<svg xmlns="http://www.w3.org/2000/svg" width="32" height="32" viewBox="0 0 32 32" fill="none">
  <mask id="mask0_2654_2472" style="mask-type:alpha" maskUnits="userSpaceOnUse" x="0" y="0" width="32" height="32">
    <rect width="32" height="32" fill="#D9D9D9"/>
  </mask>
  <g mask="url(#mask0_2654_2472)">
    <path d="M6.66667 28.0006C5.93333 28.0006 5.30556 27.7395 4.78333 27.2173C4.26111 26.6951 4 26.0673 4 25.334V6.66732C4 5.93398 4.26111 5.30621 4.78333 4.78398C5.30556 4.26176 5.93333 4.00065 6.66667 4.00065H12.2667C12.5556 3.20065 13.0389 2.55621 13.7167 2.06732C14.3944 1.57843 15.1556 1.33398 16 1.33398C16.8444 1.33398 17.6056 1.57843 18.2833 2.06732C18.9611 2.55621 19.4444 3.20065 19.7333 4.00065H25.3333C26.0667 4.00065 26.6944 4.26176 27.2167 4.78398C27.7389 5.30621 28 5.93398 28 6.66732V25.334C28 26.0673 27.7389 26.6951 27.2167 27.2173C26.6944 27.7395 26.0667 28.0006 25.3333 28.0006H6.66667ZM10.6667 22.6673H17.3333C17.7111 22.6673 18.0278 22.5395 18.2833 22.284C18.5389 22.0284 18.6667 21.7118 18.6667 21.334C18.6667 20.9562 18.5389 20.6395 18.2833 20.384C18.0278 20.1284 17.7111 20.0007 17.3333 20.0007H10.6667C10.2889 20.0007 9.97222 20.1284 9.71667 20.384C9.46111 20.6395 9.33333 20.9562 9.33333 21.334C9.33333 21.7118 9.46111 22.0284 9.71667 22.284C9.97222 22.5395 10.2889 22.6673 10.6667 22.6673ZM10.6667 17.334H21.3333C21.7111 17.334 22.0278 17.2062 22.2833 16.9507C22.5389 16.6951 22.6667 16.3784 22.6667 16.0007C22.6667 15.6229 22.5389 15.3062 22.2833 15.0507C22.0278 14.7951 21.7111 14.6673 21.3333 14.6673H10.6667C10.2889 14.6673 9.97222 14.7951 9.71667 15.0507C9.46111 15.3062 9.33333 15.6229 9.33333 16.0007C9.33333 16.3784 9.46111 16.6951 9.71667 16.9507C9.97222 17.2062 10.2889 17.334 10.6667 17.334ZM10.6667 12.0007H21.3333C21.7111 12.0007 22.0278 11.8729 22.2833 11.6173C22.5389 11.3618 22.6667 11.0451 22.6667 10.6673C22.6667 10.2895 22.5389 9.97287 22.2833 9.71732C22.0278 9.46176 21.7111 9.33398 21.3333 9.33398H10.6667C10.2889 9.33398 9.97222 9.46176 9.71667 9.71732C9.46111 9.97287 9.33333 10.2895 9.33333 10.6673C9.33333 11.0451 9.46111 11.3618 9.71667 11.6173C9.97222 11.8729 10.2889 12.0007 10.6667 12.0007ZM16 5.66732C16.2889 5.66732 16.5278 5.57287 16.7167 5.38398C16.9056 5.1951 17 4.95621 17 4.66732C17 4.37843 16.9056 4.13954 16.7167 3.95065C16.5278 3.76176 16.2889 3.66732 16 3.66732C15.7111 3.66732 15.4722 3.76176 15.2833 3.95065C15.0944 4.13954 15 4.37843 15 4.66732C15 4.95621 15.0944 5.1951 15.2833 5.38398C15.4722 5.57287 15.7111 5.66732 16 5.66732Z" fill="#FDFDFD"/>
  </g>
</svg>