<svg width="200" height="200" viewBox="0 0 200 200" fill="none" xmlns="http://www.w3.org/2000/svg">
<g opacity="0.6">
<mask id="mask0_1862_15776" style="mask-type:alpha" maskUnits="userSpaceOnUse" x="0" y="0" width="200" height="200">
<rect width="200" height="200" fill="#D9D9D9"/>
</mask>
<g mask="url(#mask0_1862_15776)">
<path d="M46.7948 166.666C42.9594 166.666 39.7569 165.381 37.1875 162.812C34.618 160.242 33.3333 157.04 33.3333 153.205V46.7941C33.3333 42.9587 34.618 39.7563 37.1875 37.1868C39.7569 34.6174 42.9594 33.3327 46.7948 33.3327H85.9614C85.3419 28.9737 86.4209 25.1061 89.1987 21.73C91.9765 18.354 95.5769 16.666 100 16.666C104.423 16.666 108.023 18.354 110.801 21.73C113.579 25.1061 114.658 28.9737 114.039 33.3327H153.205C157.041 33.3327 160.243 34.6174 162.812 37.1868C165.382 39.7563 166.667 42.9587 166.667 46.7941V153.205C166.667 157.04 165.382 160.242 162.812 162.812C160.243 165.381 157.041 166.666 153.205 166.666H46.7948ZM100 37.0185C101.806 37.0185 103.299 36.4282 104.479 35.2477C105.66 34.0671 106.25 32.5741 106.25 30.7685C106.25 28.963 105.66 27.4699 104.479 26.2894C103.299 25.1088 101.806 24.5185 100 24.5185C98.1944 24.5185 96.7014 25.1088 95.5208 26.2894C94.3403 27.4699 93.75 28.963 93.75 30.7685C93.75 32.5741 94.3403 34.0671 95.5208 35.2477C96.7014 36.4282 98.1944 37.0185 100 37.0185ZM41.6666 151.955C49.1666 144.593 57.8819 138.795 67.8125 134.559C77.743 130.323 88.4722 128.205 100 128.205C111.528 128.205 122.257 130.323 132.187 134.559C142.118 138.795 150.833 144.593 158.333 151.955V46.7941C158.333 45.5122 157.799 44.337 156.731 43.2685C155.662 42.2002 154.487 41.666 153.205 41.666H46.7948C45.5128 41.666 44.3376 42.2002 43.2691 43.2685C42.2008 44.337 41.6666 45.5122 41.6666 46.7941V151.955ZM100 108.974C106.987 108.974 112.901 106.554 117.74 101.714C122.58 96.8744 125 90.961 125 83.9737C125 76.9865 122.58 71.073 117.74 66.2333C112.901 61.3936 106.987 58.9737 100 58.9737C93.0128 58.9737 87.0993 61.3936 82.2596 66.2333C77.4198 71.073 75 76.9865 75 83.9737C75 90.961 77.4198 96.8744 82.2596 101.714C87.0993 106.554 93.0128 108.974 100 108.974ZM49.0385 158.333H150.961V156.89C143.632 149.999 135.652 144.885 127.019 141.546C118.387 138.207 109.38 136.538 100 136.538C90.8333 136.538 81.9071 138.181 73.2212 141.466C64.5353 144.751 56.4744 149.786 49.0385 156.57V158.333ZM100 100.64C95.4594 100.64 91.5465 98.9978 88.2612 95.7125C84.976 92.4272 83.3333 88.5143 83.3333 83.9737C83.3333 79.4332 84.976 75.5203 88.2612 72.235C91.5465 68.9497 95.4594 67.3071 100 67.3071C104.541 67.3071 108.453 68.9497 111.739 72.235C115.024 75.5203 116.667 79.4332 116.667 83.9737C116.667 88.5143 115.024 92.4272 111.739 95.7125C108.453 98.9978 104.541 100.64 100 100.64Z" fill="#046AD0"/>
</g>
</g>
</svg>
