<svg width="484" height="603" viewBox="0 0 484 603" fill="none" xmlns="http://www.w3.org/2000/svg">
<path d="M28.7127 0.000951519H246.289C256.788 0.000936788 266.975 3.59554 275.174 10.1939C283.374 16.7923 289.099 26.0017 291.408 36.3084L401.345 527.013C402.544 532.365 402.566 537.916 401.407 543.278C400.249 548.639 397.939 553.681 394.64 558.049C391.341 562.417 387.132 566.006 382.308 568.564C377.485 571.122 372.164 572.588 366.718 572.858L143.049 583.947C131.072 584.541 119.29 580.73 109.9 573.224C100.511 565.718 94.156 555.031 92.0216 543.157L29.6588 196.223L25.0192 197.557L13.0867 131.801L17.8624 130.599L0.454762 33.7576C-0.290844 29.6097 -0.117932 25.3473 0.961165 21.2744C2.04026 17.2014 3.99897 13.4182 6.69766 10.1943C9.39636 6.97051 12.7686 4.38549 16.5739 2.62354C20.3792 0.861602 24.524 -0.0338939 28.7127 0.000951519Z" fill="#3F3D56"/>
<path d="M217.173 10.5791H242.57C249.864 10.5791 256.938 13.0893 262.619 17.693C268.299 22.2966 272.245 28.7169 273.799 35.8879L379.324 522.589C379.931 525.391 379.931 528.292 379.322 531.094C378.713 533.896 377.511 536.532 375.797 538.824C374.083 541.115 371.897 543.007 369.39 544.371C366.882 545.735 364.112 546.538 361.268 546.725L138.322 561.429C132.033 561.844 125.811 559.914 120.846 556.007C115.88 552.1 112.518 546.49 111.4 540.248L21.3558 37.1952C20.773 33.9393 20.9074 30.5943 21.7496 27.3963C22.5917 24.1983 24.1211 21.2253 26.2297 18.687C28.3383 16.1487 30.9748 14.1071 33.9532 12.7062C36.9315 11.3052 40.1791 10.5792 43.4667 10.5792H67.5604C69.8923 10.5792 72.1592 11.3527 74.0101 12.7802C75.861 14.2076 77.1927 16.2092 77.7989 18.4751C78.3341 20.4756 79.5097 22.2426 81.1437 23.5028C82.7777 24.763 84.779 25.4459 86.8377 25.4459H201.219C205.25 25.4459 209.133 23.9147 212.091 21.1584C215.048 18.4021 216.863 14.6238 217.173 10.5791Z" fill="#EFEFEF"/>
<path d="M144.841 424.664L146.032 412.191L147.236 412.11L146.045 424.582L144.841 424.664ZM138.996 421.622L139.108 420.404L148.311 419.782L148.2 421L138.996 421.622ZM140.504 424.956L141.695 412.484L142.9 412.403L141.709 424.875L140.504 424.956ZM139.429 417.284L139.541 416.067L148.744 415.445L148.633 416.663L139.429 417.284ZM150.299 411.903L152.082 411.783L156.966 421.739L157.11 421.73L160.611 411.207L162.394 411.087L163.227 423.422L161.829 423.517L161.196 414.144L161.076 414.153L157.854 423.785L156.505 423.876L152.017 414.764L151.897 414.772L152.529 424.145L151.132 424.239L150.299 411.903ZM169.8 423.172C168.965 423.228 168.219 423.079 167.562 422.724C166.909 422.369 166.381 421.846 165.979 421.155C165.582 420.464 165.351 419.64 165.286 418.685C165.221 417.721 165.339 416.868 165.64 416.126C165.945 415.383 166.397 414.792 166.996 414.352C167.6 413.912 168.319 413.664 169.155 413.607C169.99 413.551 170.734 413.7 171.387 414.055C172.045 414.41 172.572 414.935 172.97 415.631C173.372 416.325 173.605 417.155 173.671 418.119C173.735 419.074 173.615 419.921 173.31 420.66C173.009 421.398 172.556 421.988 171.953 422.428C171.353 422.867 170.636 423.116 169.8 423.172ZM169.714 421.895C170.349 421.852 170.86 421.654 171.247 421.301C171.635 420.949 171.909 420.5 172.07 419.957C172.231 419.414 172.291 418.833 172.249 418.215C172.207 417.596 172.07 417.027 171.837 416.506C171.604 415.985 171.272 415.574 170.84 415.272C170.408 414.971 169.875 414.841 169.241 414.884C168.606 414.927 168.096 415.127 167.708 415.484C167.321 415.841 167.047 416.293 166.886 416.84C166.725 417.387 166.666 417.97 166.708 418.589C166.749 419.207 166.887 419.775 167.119 420.291C167.352 420.808 167.684 421.215 168.115 421.513C168.547 421.811 169.08 421.938 169.714 421.895ZM182.759 412.81L179.962 422.292L178.517 422.39L174.471 413.369L176.013 413.265L179.064 420.465L179.161 420.459L181.217 412.914L182.759 412.81ZM185.26 421.935L184.635 412.683L186.056 412.587L186.681 421.839L185.26 421.935ZM185.254 411.092C184.977 411.111 184.731 411.033 184.518 410.857C184.308 410.682 184.195 410.462 184.177 410.197C184.159 409.932 184.242 409.698 184.426 409.496C184.614 409.294 184.846 409.183 185.123 409.165C185.401 409.146 185.644 409.224 185.853 409.4C186.067 409.575 186.183 409.795 186.2 410.06C186.218 410.325 186.133 410.559 185.945 410.761C185.761 410.963 185.531 411.073 185.254 411.092ZM189.285 421.663L188.66 412.411L190.033 412.318L190.131 413.764L190.251 413.756C190.411 413.249 190.696 412.844 191.107 412.542C191.518 412.236 192.025 412.063 192.627 412.022C193.237 411.981 193.755 412.085 194.179 412.335C194.607 412.58 194.952 412.942 195.214 413.421L195.311 413.414C195.515 412.92 195.845 412.517 196.3 412.204C196.755 411.887 197.313 411.706 197.976 411.661C198.803 411.605 199.497 411.819 200.058 412.301C200.619 412.779 200.936 413.563 201.009 414.651L201.427 420.843L200.006 420.939L199.588 414.747C199.542 414.064 199.322 413.589 198.929 413.321C198.536 413.053 198.086 412.936 197.58 412.971C196.93 413.014 196.439 413.245 196.108 413.663C195.777 414.077 195.632 414.582 195.672 415.181L196.079 421.204L194.633 421.302L194.205 414.965C194.17 414.439 193.971 414.027 193.608 413.729C193.244 413.427 192.794 413.294 192.256 413.33C191.886 413.355 191.547 413.477 191.24 413.695C190.936 413.913 190.697 414.204 190.524 414.566C190.354 414.925 190.285 415.331 190.316 415.784L190.706 421.567L189.285 421.663ZM207.918 420.598C207.027 420.658 206.245 420.514 205.572 420.164C204.902 419.81 204.369 419.289 203.972 418.602C203.578 417.91 203.349 417.091 203.285 416.143C203.221 415.195 203.338 414.349 203.634 413.602C203.934 412.852 204.382 412.253 204.977 411.805C205.576 411.354 206.293 411.099 207.128 411.043C207.61 411.011 208.091 411.059 208.572 411.188C209.052 411.317 209.498 411.549 209.908 411.884C210.317 412.215 210.656 412.668 210.925 413.243C211.194 413.818 211.357 414.537 211.416 415.4L211.456 416.003L204.325 416.484L204.242 415.256L209.928 414.872C209.893 414.35 209.757 413.891 209.52 413.495C209.288 413.1 208.973 412.796 208.575 412.585C208.182 412.374 207.728 412.285 207.214 412.32C206.648 412.358 206.168 412.532 205.773 412.841C205.382 413.146 205.091 413.528 204.901 413.989C204.71 414.45 204.632 414.935 204.666 415.445L204.721 416.264C204.769 416.963 204.929 417.547 205.203 418.016C205.48 418.482 205.844 418.826 206.295 419.05C206.746 419.27 207.258 419.36 207.832 419.321C208.206 419.296 208.539 419.221 208.834 419.096C209.131 418.967 209.384 418.789 209.59 418.561C209.796 418.329 209.949 418.049 210.048 417.72L211.447 418.012C211.334 418.488 211.118 418.914 210.801 419.29C210.483 419.663 210.08 419.964 209.591 420.195C209.103 420.421 208.545 420.556 207.918 420.598ZM214.944 414.339L215.32 419.905L213.899 420.001L213.274 410.749L214.647 410.656L214.745 412.102L214.865 412.094C215.05 411.609 215.354 411.21 215.777 410.895C216.199 410.576 216.759 410.393 217.458 410.346C218.084 410.303 218.641 410.395 219.128 410.62C219.615 410.841 220.007 411.202 220.303 411.702C220.598 412.199 220.773 412.841 220.826 413.628L221.223 419.506L219.801 419.602L219.411 413.82C219.362 413.093 219.135 412.54 218.73 412.16C218.325 411.776 217.793 411.606 217.134 411.65C216.681 411.681 216.282 411.807 215.938 412.027C215.598 412.248 215.338 412.554 215.159 412.945C214.979 413.337 214.908 413.801 214.944 414.339ZM227.219 409.808L227.3 411.012L222.506 411.336L222.425 410.131L227.219 409.808ZM223.672 407.82L225.094 407.724L225.689 416.542C225.716 416.944 225.795 417.241 225.925 417.434C226.059 417.623 226.22 417.745 226.409 417.801C226.603 417.852 226.803 417.871 227.012 417.857C227.169 417.846 227.297 417.83 227.396 417.807C227.495 417.78 227.574 417.758 227.634 417.742L228.009 419C227.915 419.042 227.783 419.087 227.613 419.135C227.443 419.187 227.225 419.222 226.96 419.24C226.559 419.267 226.16 419.207 225.762 419.061C225.369 418.914 225.034 418.672 224.757 418.336C224.485 417.999 224.33 417.562 224.294 417.024L223.672 407.82ZM233.654 418.86C232.819 418.917 232.073 418.768 231.415 418.413C230.762 418.057 230.235 417.534 229.833 416.843C229.435 416.152 229.204 415.329 229.14 414.373C229.075 413.409 229.193 412.556 229.493 411.814C229.798 411.071 230.251 410.48 230.85 410.04C231.454 409.6 232.173 409.352 233.008 409.296C233.844 409.239 234.588 409.389 235.241 409.744C235.898 410.099 236.426 410.624 236.824 411.319C237.226 412.014 237.459 412.843 237.524 413.807C237.589 414.763 237.468 415.61 237.163 416.348C236.862 417.087 236.41 417.676 235.806 418.116C235.207 418.556 234.489 418.804 233.654 418.86ZM233.568 417.584C234.202 417.541 234.713 417.343 235.101 416.99C235.489 416.637 235.763 416.189 235.924 415.646C236.085 415.102 236.144 414.521 236.103 413.903C236.061 413.285 235.924 412.715 235.691 412.194C235.458 411.674 235.126 411.262 234.694 410.961C234.262 410.659 233.729 410.53 233.095 410.573C232.46 410.615 231.949 410.815 231.562 411.172C231.174 411.529 230.9 411.981 230.74 412.529C230.579 413.076 230.52 413.659 230.561 414.277C230.603 414.896 230.74 415.463 230.973 415.98C231.205 416.497 231.537 416.904 231.969 417.201C232.4 417.499 232.933 417.626 233.568 417.584ZM246.317 408.518C246.204 407.913 245.879 407.458 245.342 407.156C244.805 406.853 244.163 406.727 243.416 406.778C242.87 406.815 242.398 406.935 242.001 407.139C241.607 407.344 241.306 407.608 241.098 407.933C240.894 408.257 240.806 408.616 240.832 409.009C240.854 409.339 240.952 409.616 241.124 409.843C241.301 410.065 241.519 410.246 241.778 410.386C242.037 410.521 242.307 410.63 242.587 410.712C242.866 410.79 243.123 410.851 243.356 410.896L244.631 411.149C244.958 411.212 245.323 411.304 245.727 411.426C246.135 411.548 246.528 411.725 246.906 411.957C247.289 412.186 247.612 412.491 247.876 412.872C248.14 413.254 248.291 413.734 248.33 414.312C248.375 414.978 248.241 415.592 247.928 416.154C247.619 416.715 247.142 417.177 246.497 417.54C245.856 417.901 245.061 418.114 244.114 418.178C243.23 418.238 242.456 418.147 241.79 417.906C241.128 417.664 240.595 417.301 240.191 416.816C239.792 416.33 239.545 415.752 239.451 415.081L240.993 414.977C241.065 415.44 241.247 415.815 241.541 416.101C241.838 416.384 242.203 416.585 242.635 416.705C243.07 416.821 243.533 416.862 244.022 416.829C244.593 416.791 245.098 416.664 245.54 416.448C245.981 416.229 246.322 415.944 246.565 415.593C246.807 415.237 246.913 414.835 246.883 414.385C246.855 413.976 246.718 413.65 246.472 413.409C246.226 413.167 245.91 412.979 245.526 412.843C245.142 412.708 244.729 412.594 244.287 412.503L242.74 412.172C241.757 411.96 240.968 411.616 240.371 411.14C239.774 410.664 239.448 410.01 239.391 409.179C239.345 408.489 239.491 407.874 239.83 407.334C240.172 406.791 240.651 406.355 241.266 406.027C241.885 405.695 242.588 405.502 243.375 405.449C244.17 405.396 244.886 405.49 245.524 405.734C246.161 405.973 246.677 406.326 247.072 406.791C247.47 407.256 247.701 407.799 247.763 408.42L246.317 408.518ZM254.591 417.447C253.756 417.503 253.009 417.354 252.352 416.999C251.699 416.644 251.171 416.121 250.77 415.43C250.372 414.739 250.141 413.915 250.077 412.959C250.011 411.996 250.129 411.143 250.43 410.4C250.735 409.658 251.187 409.067 251.787 408.627C252.39 408.187 253.11 407.938 253.945 407.882C254.78 407.826 255.524 407.975 256.178 408.33C256.835 408.685 257.363 409.21 257.76 409.905C258.162 410.6 258.396 411.43 258.461 412.393C258.525 413.349 258.405 414.196 258.1 414.935C257.799 415.673 257.347 416.262 256.743 416.702C256.143 417.142 255.426 417.39 254.591 417.447ZM254.505 416.17C255.139 416.127 255.65 415.929 256.038 415.576C256.425 415.223 256.7 414.775 256.861 414.232C257.022 413.689 257.081 413.108 257.039 412.489C256.998 411.871 256.86 411.301 256.628 410.781C256.395 410.26 256.062 409.849 255.631 409.547C255.199 409.245 254.666 409.116 254.031 409.159C253.397 409.202 252.886 409.402 252.499 409.759C252.111 410.115 251.837 410.568 251.676 411.115C251.516 411.662 251.456 412.245 251.498 412.863C251.54 413.482 251.677 414.049 251.909 414.566C252.142 415.083 252.474 415.49 252.906 415.788C253.337 416.085 253.87 416.213 254.505 416.17ZM266.515 412.648L266.146 407.179L267.567 407.083L268.192 416.335L266.77 416.431L266.665 414.865L266.568 414.871C266.383 415.356 266.073 415.778 265.637 416.138C265.201 416.494 264.634 416.696 263.935 416.743C263.357 416.782 262.835 416.69 262.368 416.468C261.901 416.241 261.521 415.88 261.23 415.383C260.938 414.882 260.765 414.239 260.712 413.451L260.315 407.573L261.737 407.477L262.127 413.259C262.173 413.934 262.398 414.459 262.802 414.835C263.211 415.211 263.71 415.379 264.301 415.339C264.654 415.315 265.007 415.201 265.36 414.995C265.718 414.79 266.008 414.492 266.232 414.101C266.46 413.711 266.554 413.226 266.515 412.648ZM274.877 403.492L276.371 403.391L276.967 412.209C277.02 412.996 276.92 413.674 276.668 414.244C276.416 414.813 276.037 415.259 275.53 415.579C275.023 415.9 274.413 416.084 273.698 416.132C273.023 416.178 272.415 416.096 271.872 415.887C271.329 415.673 270.892 415.348 270.56 414.91C270.228 414.473 270.04 413.939 269.998 413.309L271.467 413.209C271.491 413.559 271.598 413.858 271.788 414.107C271.982 414.352 272.237 414.537 272.552 414.661C272.867 414.785 273.219 414.834 273.608 414.807C274.038 414.778 274.397 414.663 274.686 414.462C274.975 414.261 275.186 413.981 275.319 413.621C275.456 413.257 275.507 412.82 275.473 412.31L274.877 403.492ZM285.58 411.361L285.211 405.892L286.632 405.796L287.257 415.048L285.835 415.144L285.73 413.577L285.633 413.584C285.448 414.068 285.138 414.491 284.702 414.851C284.266 415.207 283.699 415.409 283 415.456C282.422 415.495 281.9 415.403 281.433 415.181C280.966 414.954 280.586 414.592 280.295 414.096C280.003 413.595 279.83 412.951 279.777 412.164L279.38 406.286L280.802 406.19L281.192 411.972C281.238 412.646 281.463 413.172 281.867 413.548C282.276 413.924 282.775 414.092 283.366 414.052C283.719 414.028 284.072 413.913 284.425 413.708C284.783 413.502 285.073 413.204 285.297 412.814C285.525 412.424 285.619 411.939 285.58 411.361ZM290.906 409.21L291.282 414.776L289.86 414.872L289.236 405.62L290.609 405.527L290.707 406.973L290.827 406.965C291.012 406.48 291.316 406.081 291.738 405.766C292.161 405.447 292.721 405.264 293.42 405.217C294.046 405.174 294.603 405.266 295.09 405.491C295.577 405.712 295.968 406.073 296.264 406.573C296.56 407.07 296.734 407.711 296.788 408.499L297.185 414.377L295.763 414.473L295.373 408.691C295.324 407.964 295.097 407.411 294.692 407.031C294.287 406.646 293.755 406.477 293.096 406.521C292.643 406.552 292.244 406.678 291.9 406.898C291.559 407.119 291.3 407.425 291.12 407.816C290.941 408.208 290.87 408.672 290.906 409.21ZM299.782 414.202L299.157 404.95L300.579 404.854L301.204 414.106L299.782 414.202ZM299.776 403.359C299.499 403.378 299.254 403.3 299.04 403.125C298.831 402.949 298.717 402.729 298.699 402.464C298.681 402.199 298.764 401.965 298.948 401.763C299.136 401.561 299.369 401.451 299.646 401.432C299.923 401.413 300.166 401.492 300.376 401.667C300.589 401.842 300.705 402.062 300.723 402.327C300.741 402.592 300.656 402.826 300.468 403.028C300.284 403.23 300.053 403.341 299.776 403.359ZM307.579 413.869C306.743 413.925 305.997 413.776 305.34 413.421C304.687 413.066 304.159 412.543 303.758 411.852C303.36 411.161 303.129 410.337 303.064 409.382C302.999 408.418 303.117 407.565 303.418 406.823C303.723 406.08 304.175 405.489 304.775 405.049C305.378 404.609 306.098 404.361 306.933 404.304C307.768 404.248 308.512 404.397 309.165 404.752C309.823 405.107 310.35 405.632 310.748 406.328C311.15 407.023 311.384 407.852 311.449 408.816C311.513 409.771 311.393 410.618 311.088 411.357C310.787 412.095 310.334 412.685 309.731 413.125C309.131 413.564 308.414 413.813 307.579 413.869ZM307.492 412.592C308.127 412.549 308.638 412.351 309.025 411.998C309.413 411.646 309.687 411.197 309.848 410.654C310.009 410.111 310.069 409.53 310.027 408.912C309.985 408.293 309.848 407.724 309.615 407.203C309.382 406.682 309.05 406.271 308.618 405.969C308.187 405.668 307.653 405.538 307.019 405.581C306.385 405.624 305.874 405.824 305.486 406.181C305.099 406.538 304.825 406.99 304.664 407.537C304.504 408.084 304.444 408.667 304.486 409.286C304.528 409.904 304.665 410.472 304.897 410.988C305.13 411.505 305.462 411.912 305.893 412.21C306.325 412.508 306.858 412.635 307.492 412.592ZM313.928 413.247L313.303 403.995L314.676 403.902L314.771 405.3L314.867 405.293C315.005 404.824 315.285 404.432 315.707 404.117C316.13 403.802 316.618 403.626 317.172 403.589C317.276 403.581 317.407 403.575 317.564 403.568C317.721 403.562 317.84 403.56 317.921 403.562L318.018 405.008C317.969 404.999 317.858 404.988 317.683 404.976C317.513 404.959 317.333 404.957 317.144 404.97C316.695 405 316.299 405.122 315.959 405.334C315.622 405.543 315.362 405.818 315.18 406.161C315.001 406.5 314.926 406.879 314.954 407.296L315.349 413.151L313.928 413.247Z" fill="#1165BA"/>
<path d="M131.711 235.778L133.434 233.436C135.48 235.194 138.132 236.081 140.823 235.906C141.698 235.89 142.562 235.704 143.368 235.359C143.967 235.102 144.485 234.687 144.867 234.157C145.18 233.711 145.339 233.175 145.32 232.629C145.297 232.053 145.104 231.496 144.766 231.029C144.3 230.453 143.706 229.993 143.032 229.685C141.936 229.161 140.792 228.744 139.615 228.441C138.067 228.019 136.571 227.425 135.155 226.67C134.207 226.19 133.397 225.478 132.8 224.599C132.328 223.826 132.064 222.943 132.034 222.037C131.973 220.931 132.258 219.832 132.85 218.896C133.499 217.898 134.399 217.089 135.459 216.549C136.681 215.913 138.03 215.563 139.406 215.524C140.76 215.471 142.113 215.661 143.4 216.086C144.735 216.504 145.985 217.155 147.093 218.01L145.409 220.452C144.582 219.716 143.627 219.139 142.591 218.749C141.54 218.359 140.42 218.189 139.3 218.252C137.84 218.322 136.76 218.685 136.059 219.341C135.737 219.614 135.48 219.956 135.309 220.343C135.137 220.729 135.055 221.149 135.068 221.572C135.097 222.065 135.274 222.537 135.577 222.926C136.016 223.44 136.568 223.846 137.19 224.11C138.22 224.576 139.289 224.948 140.386 225.222C142.028 225.616 143.609 226.235 145.083 227.061C146.104 227.623 146.983 228.411 147.652 229.366C148.183 230.168 148.488 231.1 148.533 232.061C148.597 233.19 148.32 234.312 147.74 235.281C147.1 236.324 146.18 237.165 145.086 237.709C143.719 238.38 142.222 238.742 140.7 238.77C139.59 238.821 138.478 238.725 137.393 238.484C136.306 238.254 135.25 237.898 134.245 237.422C133.327 236.996 132.474 236.442 131.711 235.778Z" fill="#1165BA"/>
<path d="M152.014 229.455C151.88 227.805 152.137 226.146 152.763 224.614C153.291 223.359 154.172 222.284 155.299 221.522C156.456 220.8 157.778 220.386 159.14 220.321C160.502 220.256 161.858 220.541 163.078 221.149C164.27 221.802 165.247 222.787 165.891 223.985C166.658 225.451 167.072 227.077 167.099 228.732C167.229 230.382 166.972 232.039 166.35 233.573C165.826 234.831 164.942 235.905 163.81 236.661C162.649 237.374 161.328 237.782 159.968 237.847C158.608 237.912 157.254 237.633 156.031 237.034C154.837 236.387 153.86 235.402 153.222 234.201C152.454 232.735 152.041 231.11 152.014 229.455V229.455ZM155.085 229.308C155.107 230.441 155.342 231.56 155.777 232.607C156.115 233.417 156.684 234.109 157.414 234.596C158.153 235.02 158.999 235.224 159.85 235.183C160.701 235.143 161.523 234.859 162.219 234.365C162.896 233.81 163.396 233.067 163.654 232.229C163.99 231.147 164.119 230.01 164.035 228.879C164.01 227.746 163.773 226.628 163.336 225.584C162.995 224.771 162.428 224.074 161.702 223.576C160.965 223.142 160.119 222.932 159.265 222.973C158.412 223.014 157.589 223.304 156.897 223.806C156.22 224.37 155.72 225.118 155.459 225.961C155.126 227.043 154.999 228.178 155.085 229.308V229.308Z" fill="#1165BA"/>
<path d="M171.781 230.413L171.286 220.067L174.286 219.923L174.763 229.875C174.836 231.405 175.222 232.502 175.921 233.167C176.267 233.498 176.679 233.751 177.13 233.911C177.58 234.07 178.06 234.132 178.537 234.092C179.423 234.046 180.281 233.762 181.02 233.269C181.854 232.714 182.595 232.03 183.216 231.243L183.329 233.599C182.678 234.532 181.861 235.336 180.92 235.974C180.037 236.565 179.014 236.913 177.954 236.984C176.894 237.056 175.834 236.847 174.879 236.38C173.953 235.89 173.197 235.131 172.711 234.202C172.114 233.027 171.796 231.731 171.781 230.413V230.413ZM183.665 236.373L182.821 233.13L182.171 219.546L185.171 219.402L185.787 232.265C185.809 232.723 185.829 233.144 185.896 233.521C185.963 233.898 186.029 234.332 186.138 234.805L186.47 236.235L183.665 236.373Z" fill="#1165BA"/>
<path d="M189.287 233.675L192.251 229.858C192.662 230.377 193.186 230.795 193.783 231.08C194.42 231.39 195.126 231.532 195.833 231.49C196.354 231.494 196.87 231.383 197.343 231.165C197.817 230.947 198.237 230.628 198.573 230.229C199.201 229.446 199.483 228.348 199.414 226.909L198.749 213.009L203.977 212.759L204.675 227.327C204.801 228.931 204.463 230.537 203.701 231.953C202.984 233.228 201.921 234.274 200.635 234.969C199.275 235.702 197.766 236.112 196.222 236.167C194.921 236.249 193.616 236.055 192.394 235.597C191.248 235.156 190.194 234.504 189.287 233.675V233.675ZM193.592 217.206L193.404 213.265L202.229 212.842L202.418 216.783L193.592 217.206Z" fill="#1165BA"/>
<path d="M209.503 228.606L208.992 217.933L213.894 217.698L214.369 227.616C214.421 228.686 214.715 229.465 215.252 229.954C215.536 230.198 215.867 230.383 216.225 230.495C216.582 230.607 216.959 230.645 217.332 230.607C218.006 230.57 218.662 230.381 219.253 230.056C219.905 229.699 220.469 229.201 220.905 228.598L221.06 231.84C220.46 232.759 219.699 233.561 218.813 234.207C217.913 234.84 216.848 235.194 215.749 235.224C214.747 235.276 213.749 235.064 212.855 234.609C211.891 234.106 211.087 233.342 210.535 232.405C209.874 231.247 209.519 229.94 209.503 228.606V228.606ZM221.323 234.569L220.543 231.323L219.877 217.423L224.78 217.188L225.406 230.273C225.428 230.731 225.448 231.141 225.514 231.495C225.58 231.85 225.645 232.272 225.754 232.749L226.094 234.341L221.323 234.569Z" fill="#1165BA"/>
<path d="M229.19 216.966L233.965 216.737L234.74 219.98L235.406 233.88L230.504 234.115L229.877 221.034C229.855 220.575 229.836 220.166 229.77 219.807C229.704 219.449 229.639 219.034 229.529 218.558L229.19 216.966ZM234.381 222.689L234.226 219.447C234.832 218.518 235.61 217.714 236.519 217.078C237.438 216.448 238.518 216.095 239.632 216.059C240.687 216.008 241.737 216.244 242.67 216.742C243.603 217.24 244.383 217.982 244.929 218.889C245.603 220.045 245.965 221.356 245.979 222.695L246.491 233.364L241.588 233.599L241.113 223.677C241.107 223.059 240.948 222.453 240.652 221.911C240.405 221.479 240.028 221.136 239.575 220.931C239.097 220.728 238.578 220.641 238.059 220.676C237.339 220.723 236.638 220.928 236.006 221.276C235.373 221.624 234.824 222.106 234.396 222.688L234.381 222.689Z" fill="#1165BA"/>
<path d="M249.808 211.023C249.786 210.656 249.838 210.29 249.958 209.943C250.079 209.597 250.267 209.278 250.512 209.005C251.024 208.442 251.738 208.106 252.497 208.069C253.256 208.033 253.999 208.3 254.563 208.811C254.829 209.06 255.044 209.361 255.195 209.694C255.346 210.027 255.43 210.387 255.441 210.753C255.463 211.119 255.412 211.486 255.292 211.832C255.172 212.178 254.985 212.497 254.741 212.771C254.228 213.327 253.516 213.659 252.761 213.696C252.005 213.732 251.266 213.469 250.701 212.964C250.432 212.715 250.215 212.416 250.061 212.083C249.908 211.75 249.822 211.389 249.808 211.023V211.023ZM251.243 233.136L250.419 215.949L255.326 215.714L256.149 232.901L251.243 233.136Z" fill="#1165BA"/>
<path d="M259.414 224.149C259.287 222.482 259.579 220.809 260.264 219.285C260.883 217.949 261.873 216.819 263.115 216.03C264.426 215.246 265.909 214.797 267.434 214.724C268.959 214.651 270.479 214.956 271.858 215.611C273.155 216.286 274.235 217.315 274.971 218.58C275.795 220.028 276.245 221.659 276.281 223.326C276.401 224.977 276.108 226.632 275.428 228.141C274.814 229.472 273.834 230.6 272.603 231.394C271.293 232.179 269.809 232.627 268.284 232.7C266.759 232.774 265.239 232.469 263.86 231.813C262.548 231.146 261.455 230.117 260.71 228.846C259.896 227.412 259.45 225.798 259.414 224.149V224.149ZM264.384 223.911C264.401 224.879 264.591 225.836 264.944 226.738C265.198 227.386 265.648 227.938 266.23 228.318C266.797 228.633 267.44 228.783 268.087 228.752C268.735 228.721 269.361 228.51 269.895 228.143C270.438 227.709 270.833 227.116 271.024 226.447C271.291 225.516 271.389 224.544 271.311 223.579C271.296 222.61 271.107 221.652 270.751 220.751C270.495 220.1 270.046 219.542 269.464 219.153C268.9 218.828 268.256 218.672 267.606 218.703C266.957 218.734 266.33 218.951 265.8 219.328C265.258 219.771 264.864 220.369 264.671 221.043C264.405 221.974 264.308 222.945 264.384 223.911V223.911Z" fill="#1165BA"/>
<path d="M279.072 214.576L283.85 214.347L284.629 217.74L285.288 231.49L280.386 231.725L279.759 218.644C279.737 218.186 279.699 217.777 279.651 217.418C279.604 217.059 279.52 216.645 279.411 216.168L279.072 214.576ZM284.283 220.792L284.135 217.711C284.689 216.578 285.501 215.59 286.505 214.827C287.439 214.126 288.562 213.723 289.728 213.671L289.96 218.517C288.869 218.542 287.789 218.738 286.758 219.096C285.826 219.485 284.983 220.062 284.283 220.792V220.792Z" fill="#1165BA"/>
<path d="M98.7063 235.367L93.8828 235.598C92.8512 235.647 92.055 236.525 92.1045 237.558L92.3359 242.389C92.3854 243.422 93.2618 244.22 94.2934 244.17L99.117 243.939C100.149 243.89 100.945 243.012 100.895 241.979L100.664 237.148C100.614 236.115 99.7379 235.317 98.7063 235.367Z" fill="#1165BA"/>
<path d="M108.577 224.276L103.754 224.507C102.722 224.556 101.926 225.434 101.975 226.467L102.207 231.298C102.256 232.332 103.133 233.129 104.164 233.08L108.988 232.849C110.02 232.799 110.816 231.922 110.766 230.888L110.535 226.057C110.485 225.024 109.609 224.226 108.577 224.276Z" fill="#1165BA"/>
<path d="M118.625 213.176L113.801 213.407C112.77 213.456 111.973 214.334 112.023 215.367L112.254 220.198C112.304 221.232 113.18 222.029 114.212 221.98L119.035 221.749C120.067 221.699 120.863 220.822 120.814 219.788L120.582 214.957C120.533 213.924 119.656 213.126 118.625 213.176Z" fill="#1165BA"/>
<path d="M109.085 234.869L104.261 235.1C103.23 235.15 102.433 236.028 102.483 237.061L102.714 241.892C102.764 242.925 103.64 243.723 104.672 243.673L109.495 243.442C110.527 243.393 111.323 242.515 111.274 241.482L111.042 236.651C110.993 235.618 110.116 234.82 109.085 234.869Z" stroke="#1165BA" stroke-miterlimit="10"/>
<path d="M119.132 223.77L114.309 224.001C113.277 224.051 112.481 224.928 112.53 225.962L112.762 230.793C112.811 231.826 113.688 232.624 114.719 232.574L119.543 232.343C120.574 232.294 121.371 231.416 121.321 230.383L121.09 225.552C121.04 224.518 120.164 223.721 119.132 223.77Z" stroke="#1165BA" stroke-miterlimit="10"/>
<path d="M98.1989 224.773L93.3753 225.004C92.3437 225.053 91.5476 225.931 91.5971 226.964L91.8285 231.795C91.878 232.829 92.7544 233.626 93.786 233.577L98.6095 233.346C99.6411 233.296 100.437 232.419 100.388 231.385L100.156 226.554C100.107 225.521 99.2305 224.723 98.1989 224.773Z" stroke="#1165BA" stroke-miterlimit="10"/>
<path d="M108.07 213.681L103.246 213.912C102.215 213.962 101.419 214.84 101.468 215.873L101.699 220.704C101.749 221.737 102.625 222.535 103.657 222.485L108.48 222.254C109.512 222.205 110.308 221.327 110.259 220.294L110.027 215.463C109.978 214.43 109.101 213.632 108.07 213.681Z" stroke="#1165BA" stroke-miterlimit="10"/>
<path d="M351.743 341.76L356.515 316.547C355.581 315.337 351.441 309.525 352.363 302.713C352.964 298.268 355.6 294.371 360.201 291.126L372.571 262.08L372.738 261.982C373.571 261.488 393.266 250.027 404.004 260.84C404.272 261.049 430.709 282.167 420.093 310.655L406.987 350.225L351.743 341.76Z" fill="white"/>
<path d="M344.993 589.304L334.219 589.303L329.093 547.485L344.994 547.486L344.993 589.304Z" fill="#A0616A"/>
<path d="M478.836 582.205L468.349 584.69L453.833 545.167L469.311 541.499L478.836 582.205Z" fill="#A0616A"/>
<path d="M342.791 414.288C342.811 412.108 343.452 360.678 357.462 341.232L357.669 340.945L406.491 347.723L405.399 358.517C407.547 360.619 424.438 378.381 429.316 420.442L481.137 560.497L457.045 562.7L385.732 409.813L347.993 576.002H324.11L342.791 414.288Z" fill="#2F2E41"/>
<path d="M335.139 375.871C336.426 375.723 337.665 375.293 338.769 374.611C339.872 373.929 340.814 373.012 341.528 371.924C342.241 370.836 342.709 369.604 342.898 368.315C343.087 367.025 342.993 365.71 342.622 364.461L368.168 345.94L352.875 340.086L330.961 358.572C328.917 359.338 327.224 360.831 326.202 362.77C325.179 364.708 324.899 366.957 325.414 369.089C325.929 371.221 327.203 373.09 328.996 374.34C330.788 375.59 332.974 376.135 335.139 375.871Z" fill="#A0616A"/>
<path d="M339.833 345.91L378.834 314.989L367.239 275.126C366.693 273.238 366.538 271.257 366.786 269.307C367.033 267.357 367.676 265.479 368.676 263.79C369.602 262.197 370.848 260.817 372.334 259.737C373.821 258.658 375.515 257.902 377.308 257.52C383.985 256.098 390.046 259.86 395.318 268.703L395.359 268.783C396.231 270.929 416.548 321.469 401.035 332.278C385.859 342.85 350.669 358.241 350.315 358.396L349.902 358.575L339.833 345.91Z" fill="white"/>
<path d="M391.667 250.328C404.715 250.328 415.293 239.683 415.293 226.553C415.293 213.422 404.715 202.778 391.667 202.778C378.619 202.778 368.041 213.422 368.041 226.553C368.041 239.683 378.619 250.328 391.667 250.328Z" fill="#A0616A"/>
<path d="M428.707 218.066C440.25 218.066 449.608 208.649 449.608 197.033C449.608 185.417 440.25 176 428.707 176C417.163 176 407.805 185.417 407.805 197.033C407.805 208.649 417.163 218.066 428.707 218.066Z" fill="#2F2E41"/>
<path d="M446.735 214.449C444.03 216.417 440.895 217.704 437.595 218.203C434.294 218.701 430.922 218.397 427.762 217.316C424.602 216.235 421.745 214.408 419.43 211.987C417.116 209.567 415.411 206.624 414.458 203.405C414.819 206.29 415.769 209.068 417.251 211.565C418.732 214.061 420.712 216.221 423.065 217.909C425.418 219.597 428.093 220.775 430.921 221.37C433.749 221.965 436.67 221.963 439.497 221.365C442.325 220.767 444.998 219.585 447.349 217.895C449.7 216.204 451.677 214.042 453.156 211.543C454.634 209.045 455.582 206.266 455.939 203.38C456.296 200.495 456.055 197.567 455.23 194.78C455.699 198.524 455.157 202.326 453.662 205.786C452.167 209.247 449.775 212.239 446.735 214.449Z" fill="#2F2E41"/>
<path d="M364.25 213.473C367.899 206.899 369.295 204.153 374 200.156C378.16 196.621 383.277 195.582 387.405 198.932C392.288 196.809 397.721 196.328 402.897 197.559C408.074 198.791 412.717 201.67 416.138 205.769C419.559 209.868 421.575 214.968 421.886 220.312C422.197 225.655 420.787 230.957 417.865 235.43C414.943 239.903 410.666 243.308 405.668 245.14C400.67 246.971 395.218 247.132 390.122 245.597C385.026 244.062 380.558 240.914 377.382 236.621C374.205 232.327 372.49 227.117 372.49 221.765C372.494 220.825 372.55 219.886 372.659 218.952C369.071 218.445 367.838 213.98 364.25 213.473Z" fill="#2F2E41"/>
<path d="M347.74 600.813L313 600.812V600.37C313 596.761 314.425 593.3 316.961 590.749C319.496 588.197 322.936 586.763 326.522 586.763L347.741 586.764L347.74 600.813Z" fill="#2F2E41"/>
<path d="M483.904 594.169L450.089 602.182L449.989 601.751C449.167 598.239 449.765 594.542 451.652 591.473C453.539 588.404 456.56 586.215 460.051 585.388L480.705 580.494L483.904 594.169Z" fill="#2F2E41"/>
</svg>
