<svg width="231" height="298" viewBox="0 0 231 298" fill="none" xmlns="http://www.w3.org/2000/svg">
<g clip-path="url(#clip0_3306_764)">
<path d="M44.457 116.873C44.191 116.43 42.5151 113.638 41.2734 113.921C38.9196 114.457 40.1964 125.566 36.7746 126.674C36.0237 126.917 34.9667 126.705 32.6058 127.377C31.6666 127.645 31.1797 127.865 31.0286 128.308C30.814 128.936 31.4628 129.465 32.4263 130.996C33.8712 133.293 33.4269 133.718 34.6976 135.364C35.6409 136.587 36.3811 136.994 36.236 137.53C36.0307 138.289 34.4158 137.963 34.0279 138.833C33.6321 139.721 34.7812 141.255 35.775 142.193C37.64 143.954 39.4987 144.124 41.2008 144.701C43.0506 145.328 45.5803 146.729 48.199 150.232L69.1269 180.408C67.4392 179.726 64.1507 178.327 59.665 175.933C55.8814 173.913 52.1304 171.615 48.5157 169.098C46.957 168.014 45.5948 167.004 44.3711 166.063L44.4953 166.133L43.8975 163.828C43.6681 162.912 43.5178 162.164 43.836 161.563C44.0116 161.241 44.3428 160.909 44.7287 160.524C45.1713 160.084 45.6739 159.586 46.1634 158.894C46.6172 158.271 46.7204 157.716 46.4938 157.251C46.4169 157.093 46.3159 156.98 46.2094 156.898C46.3311 156.692 46.4697 156.45 46.593 156.159C46.8541 155.54 46.9181 155.01 46.9643 154.616C47.1539 153.031 46.9129 152.097 46.2452 151.839C45.963 151.731 45.7082 151.78 45.4949 151.887C45.4791 151.562 45.4384 151.179 45.3271 150.767C44.969 149.443 44.4705 148.772 43.8071 148.716C42.8801 148.638 42.4126 149.729 41.8722 150.99C41.63 151.55 40.9945 153.043 40.6626 153.044C40.6216 153.044 40.5045 153.017 40.4007 152.992C40.1164 152.927 39.6877 152.827 39.0184 152.807C38.6432 152.796 38.0767 152.779 37.7302 153.274C37.4214 153.748 37.5737 154.252 37.714 154.656C37.7604 154.789 37.816 154.947 37.8717 155.138C37.9989 155.575 38.0201 155.811 38.041 156.039C38.068 156.336 38.0961 156.645 38.296 157.152C38.3128 157.194 38.3283 157.232 38.344 157.27C38.1562 157.315 37.9593 157.412 37.794 157.608C37.1715 158.329 37.7522 159.524 38.0286 160C38.5258 160.851 39.1558 161.259 39.6625 161.588C39.7903 161.671 39.9159 161.752 40.0372 161.841C40.6658 162.297 41.1872 162.988 41.605 163.877C41.1108 163.476 40.6383 163.089 40.1948 162.726C38.6063 161.424 37.1127 160.155 35.6566 158.918C34.1594 157.646 32.6933 156.401 31.2018 155.187L31.2958 154.75L30.9355 154.973C28.5835 153.068 26.1611 151.238 23.4413 149.502C23.3299 149.43 23.198 149.347 23.062 149.262L22.9325 148.763C22.7032 147.847 22.5529 147.099 22.8711 146.498C23.0466 146.176 23.3779 145.844 23.7638 145.459C24.2063 145.019 24.7089 144.521 25.1984 143.829C25.6522 143.206 25.7555 142.651 25.5288 142.186C25.452 142.027 25.351 141.915 25.2445 141.833C25.3661 141.627 25.5048 141.385 25.628 141.094C25.8892 140.475 25.9532 139.945 25.9993 139.551C26.189 137.965 25.948 137.031 25.2803 136.774C24.9981 136.665 24.7433 136.715 24.53 136.822C24.5142 136.497 24.4735 136.114 24.3622 135.702C24.004 134.378 23.5056 133.706 22.8422 133.651C21.9152 133.573 21.4476 134.664 20.9073 135.925C20.6651 136.485 20.0295 137.978 19.6977 137.979C19.6566 137.978 19.5395 137.952 19.4358 137.927C19.1515 137.861 18.7227 137.762 18.0535 137.742C17.6783 137.731 17.1118 137.714 16.7652 138.209C16.4565 138.683 16.6088 139.187 16.749 139.59C16.7955 139.723 16.851 139.881 16.9068 140.073C17.0339 140.51 17.0551 140.746 17.0761 140.974C17.103 141.271 17.1311 141.58 17.331 142.087C17.3479 142.128 17.3633 142.167 17.3791 142.205C17.1913 142.25 16.9944 142.347 16.829 142.543C16.2066 143.264 16.7872 144.459 17.0637 144.935C17.5609 145.785 18.1909 146.194 18.6976 146.523C18.8254 146.606 18.951 146.687 19.0722 146.775C19.4276 147.033 19.7472 147.369 20.0364 147.767C19.1139 147.436 18.0486 147.163 16.8474 147.045C15.4119 146.906 13.9575 147.009 12.5077 147.345C12.4975 147.229 12.4876 147.115 12.4764 146.988C12.3532 145.567 12.263 144.978 11.8035 144.426C11.5804 144.156 11.2386 143.859 10.2616 143.521C8.90741 143.051 7.74749 142.98 7.42336 142.969C5.80445 142.92 4.40617 142.878 3.13667 143.918C2.89444 144.115 2.1588 144.712 1.75501 145.765C1.54832 146.298 1.51105 146.731 1.48113 147.078C1.44957 147.442 1.42969 147.682 1.23808 148.019C1.11714 148.233 0.97164 148.408 0.85601 148.549C0.632707 148.831 0.21298 149.347 0.564752 149.908C0.649287 150.044 0.756128 150.139 0.877559 150.203C0.813121 150.679 0.852414 151.171 1.07353 151.616C1.27164 152.017 1.61311 152.285 2.53307 152.764C3.94074 153.497 5.07521 153.853 5.30052 153.921C6.76065 154.362 7.49282 154.583 8.27768 154.551C9.94783 154.48 11.1611 153.929 11.8837 152.91C11.9201 152.861 11.9538 152.81 11.9861 152.759C12.4925 151.96 12.5473 151.123 12.6349 149.79C12.6514 149.533 12.6465 149.236 12.6253 148.859C13.9948 148.519 15.3672 148.404 16.718 148.536C19.6421 148.821 21.7199 150.147 22.7178 150.785C25.2031 152.372 27.4438 154.047 29.6167 155.789L29.3548 155.951C28.5813 156.419 27.9403 156.764 27.3132 156.589C26.9765 156.489 26.5908 156.232 26.1436 155.932C25.6317 155.588 25.0518 155.196 24.2993 154.868C23.619 154.558 23.0886 154.592 22.7237 154.944C22.5994 155.063 22.5231 155.196 22.475 155.327C22.2577 155.253 22.0025 155.172 21.7067 155.119C21.0784 155.007 20.5812 155.075 20.2114 155.127C18.7238 155.334 17.9369 155.819 17.8723 156.573C17.8454 156.891 17.955 157.141 18.1061 157.334C17.8148 157.432 17.4776 157.571 17.1315 157.791C16.02 158.496 15.5371 159.179 15.6551 159.877C15.8192 160.852 16.9287 161.057 18.2108 161.294C18.7809 161.401 20.2972 161.678 20.3826 162.019C20.3926 162.062 20.3979 162.189 20.4022 162.302C20.4144 162.612 20.4332 163.079 20.5848 163.774C20.6697 164.163 20.7975 164.751 21.3349 164.983C21.844 165.18 22.2634 164.896 22.5939 164.649C22.7029 164.567 22.8323 164.47 22.9922 164.364C23.3567 164.122 23.5653 164.04 23.7673 163.961C24.0303 163.858 24.3032 163.751 24.7135 163.416C24.7467 163.388 24.7776 163.362 24.8079 163.337C24.8971 163.518 25.0347 163.697 25.2545 163.818C26.0676 164.276 27.0052 163.375 27.3668 162.969C28.0134 162.241 28.2246 161.488 28.3948 160.883C28.4378 160.73 28.4798 160.58 28.529 160.433C28.8382 159.506 29.4836 158.649 30.4481 157.884L30.6566 157.719L30.8559 156.793C32.1651 157.869 33.4614 158.967 34.7814 160.089C36.2425 161.331 37.7428 162.604 39.3378 163.912C41.4527 165.645 44.0837 167.802 47.7482 170.352C51.4069 172.898 55.2041 175.226 59.0363 177.271C62.4492 179.092 65.1827 180.347 67.0582 181.153C61.593 181.542 54.033 182.004 50.6163 182.07C49.2878 182.095 47.9189 182.073 46.9432 181.094C46.0038 180.152 45.542 178.435 44.1752 176.643C44.0156 176.434 43.5643 175.857 43.1649 175.959C42.8346 176.044 42.8406 176.515 42.5333 176.598C42.1212 176.71 41.776 175.954 40.923 175.242C40.3216 174.74 39.7735 174.515 39.3022 174.322C39.1601 174.264 37.0305 173.408 36.6394 174.031C36.3456 174.499 37.2875 175.396 37.0078 175.791C36.7292 176.185 35.6971 175.432 34.1398 175.494C33.8589 175.505 32.0891 175.576 31.8611 176.307C31.429 177.692 36.9162 180.23 36.4393 182.339C36.3347 182.801 35.9317 183.292 35.5605 184.721C35.4128 185.289 35.3737 185.607 35.5341 185.814C35.7618 186.107 36.1924 185.921 37.176 185.859C38.6512 185.766 38.7188 186.121 39.8441 185.932C40.6794 185.791 41.0808 185.522 41.286 185.752C41.5764 186.079 40.9601 186.829 41.2491 187.283C41.544 187.746 42.5825 187.588 43.3015 187.339C44.6507 186.872 45.2652 185.949 46.0222 185.226C46.8448 184.439 48.2203 183.521 50.59 183.163L67.3641 181.283C68.3448 181.699 69.0674 181.984 69.4883 182.149C69.7123 182.237 69.8563 182.292 69.9159 182.321L70.1381 181.866L70.387 182.225C70.3098 182.108 70.2251 181.979 70.1435 181.854L70.2381 181.661L70.8805 181.357C70.7942 181.148 70.6994 181.056 70.4431 180.938L71.7326 180.793C71.3427 180.827 70.8733 180.865 70.3717 180.905C70.2661 180.859 70.1363 180.808 69.9742 180.745C69.7854 180.67 69.5293 180.569 69.2226 180.446C64.1353 172.633 53.6713 156.078 49.7763 149.302C48.5575 147.181 47.37 144.954 47.8932 142.509C48.3969 140.154 50.4256 137.882 51.7562 134.082C51.9117 133.638 52.3295 132.397 51.829 131.844C51.4152 131.386 50.7508 131.815 50.3585 131.394C49.8323 130.829 50.6008 129.598 50.8535 127.589C51.0316 126.172 50.8628 125.088 50.7176 124.156C50.6738 123.875 49.995 119.679 48.7617 119.602C47.8353 119.545 47.3986 121.862 46.5875 121.763C45.7794 121.664 45.9317 119.329 44.457 116.873Z" fill="#F2F2F2"/>
<path d="M215.892 214.444L66.0868 192.389C61.073 191.651 56.9349 187.824 55.5438 182.64L21.1375 54.3627C19.9716 50.015 20.842 45.5131 23.5254 42.0101C26.2089 38.5072 30.1736 36.6969 34.4072 37.0411L185.336 49.3586C190.797 49.8041 195.38 53.9001 196.743 59.55L230.026 197.565C231.088 201.97 230.026 206.625 227.184 210.019C224.737 212.941 221.268 214.573 217.651 214.573C217.068 214.573 216.48 214.531 215.892 214.444Z" fill="#E6E6E6"/>
<path d="M178.01 185.747L130.495 178.751C128.905 178.517 127.593 177.304 127.152 175.659L116.239 134.973C115.869 133.594 116.145 132.166 116.996 131.055C117.847 129.944 119.105 129.37 120.447 129.479L168.319 133.386C170.051 133.527 171.504 134.826 171.937 136.618L182.493 180.393C182.83 181.79 182.493 183.267 181.592 184.343C180.816 185.27 179.715 185.788 178.568 185.788C178.383 185.788 178.197 185.774 178.01 185.747Z" fill="white"/>
<path d="M173.759 72.8667L85.5555 64.2181C83.3318 64 81.6012 62.9114 81.698 61.7915C81.7947 60.6715 83.6828 59.9381 85.9065 60.1562L174.11 68.8048C176.334 69.0228 178.064 70.111 177.967 71.2309C177.87 72.3508 175.983 73.0848 173.759 72.8667Z" fill="white"/>
<path d="M178.569 97.562L90.3652 88.9134C88.1415 88.6953 86.4109 87.6067 86.5077 86.4868C86.6044 85.3669 88.4925 84.6334 90.7162 84.8515L178.92 93.5001C181.144 93.7182 182.874 94.8063 182.777 95.9262C182.68 97.0461 180.793 97.7801 178.569 97.562Z" fill="white"/>
<path d="M180.268 119.086L92.0638 110.438C89.8401 110.22 88.1095 109.131 88.2063 108.011C88.303 106.891 90.1911 106.158 92.4148 106.376L180.619 115.024C182.842 115.242 184.572 116.33 184.476 117.45C184.379 118.57 182.491 119.304 180.268 119.086Z" fill="white"/>
<path d="M127.12 108.689C129.334 106.12 132.373 105.254 133.908 106.755C135.443 108.256 134.892 111.556 132.677 114.126C131.805 115.165 130.713 115.967 129.491 116.465L119.981 127.225L115.336 122.364L125.204 112.272C125.565 110.932 126.222 109.703 127.12 108.689Z" fill="#FFB6B6"/>
<path d="M72.9048 111.084C72.9048 111.084 78.4617 105.67 85.1114 110.397C91.7612 115.124 107.246 127.215 107.246 127.215L118.097 112.88L126.647 121.136C126.647 121.136 111.565 149.434 101.821 143.206C92.0769 136.978 70.3237 119.199 71.3113 115.52C72.299 111.841 72.9048 111.084 72.9048 111.084Z" fill="#1165BA"/>
<path d="M114.052 243.154L105.198 260.728L97.9061 251.327L106.294 239.253L114.052 243.154Z" fill="#FFB6B6"/>
<path d="M108.326 258.298L104.58 279.86C104.58 279.86 102.066 287.337 98.0243 279.742C93.9827 272.147 86.6645 256.432 90.8718 253.552C95.079 250.672 100.16 248.345 100.16 248.345L108.326 258.298Z" fill="#2F2E41"/>
<path d="M119.277 262.292L128.617 280.202L116.941 281.695L111.804 267.267L119.277 262.292Z" fill="#FFB6B6"/>
<path d="M69.7699 100.105C69.7699 100.105 68.8359 110.055 67.4347 111.05C66.0336 112.045 83.7886 111.05 83.7886 111.05L78.6438 100.105H69.7699Z" fill="#FFB6B6"/>
<path d="M88.9153 114.043L82.3801 108.563H66.4014L55.7587 118.015L62.5308 151.597L59.2615 168.015L100.828 169.507L93.3557 154.582C93.3557 154.582 102.229 144.632 99.4272 138.164C96.625 131.697 88.9153 114.043 88.9153 114.043Z" fill="#1165BA"/>
<path d="M96.6249 165.527L102.696 169.01C102.696 169.01 135.39 201.845 132.587 211.795C129.785 221.745 111.103 250.103 111.103 250.103L102.229 245.128L115.307 214.78L90.3198 188.164L103.733 213.35L122.779 266.521L111.57 271.496L82.6136 209.308C82.6136 209.308 58.7944 191.895 57.3933 180.95C55.9921 170.005 59.2614 168.015 59.2614 168.015L96.6249 165.527Z" fill="#2F2E41"/>
<path d="M128.384 275.974L143.796 291.396C143.796 291.396 148.467 297.864 140.06 297.366C131.653 296.869 114.84 294.879 114.84 289.406C114.84 283.934 115.774 277.964 115.774 277.964L128.384 275.974Z" fill="#2F2E41"/>
<path d="M74.4404 102.593C80.373 102.593 85.1824 97.4695 85.1824 91.1499C85.1824 84.8303 80.373 79.7073 74.4404 79.7073C68.5077 79.7073 63.6984 84.8303 63.6984 91.1499C63.6984 97.4695 68.5077 102.593 74.4404 102.593Z" fill="#FFB6B6"/>
<path d="M121.04 136.808L112.187 165.527C111.951 166.293 111.338 166.857 110.593 166.995L93.6628 170.132C92.1446 170.413 90.89 168.874 91.3643 167.312L100.205 138.202C100.444 137.417 101.079 136.842 101.845 136.718L118.787 133.972C120.296 133.727 121.516 135.263 121.04 136.808Z" fill="white"/>
<path d="M93.3035 170.662C92.5829 170.662 91.8985 170.334 91.4135 169.739C90.8308 169.024 90.6463 168.059 90.9197 167.159L99.761 138.049C100.056 137.078 100.828 136.379 101.775 136.226L118.717 133.48C119.586 133.338 120.446 133.682 121.014 134.398C121.583 135.113 121.758 136.072 121.484 136.963L112.631 165.682C112.341 166.624 111.591 167.315 110.673 167.486L93.7428 170.622C93.5957 170.649 93.4488 170.662 93.3035 170.662ZM119.099 134.444C119.019 134.444 118.938 134.45 118.857 134.463L101.915 137.21C101.32 137.306 100.835 137.745 100.65 138.355L91.8317 167.389C91.6699 167.922 91.7227 168.521 92.0335 168.973C92.3968 169.501 92.9879 169.749 93.5827 169.641L100.377 168.383C107.19 167.121 112.795 161.959 114.953 154.959L120.58 136.707C120.721 136.247 120.704 135.735 120.48 135.314C120.185 134.76 119.66 134.444 119.099 134.444Z" fill="#3F3D56"/>
<path d="M95.1961 159.181C98.4679 159.31 101.057 161.213 100.98 163.431C100.903 165.649 98.1877 167.342 94.9148 167.212C93.6067 167.18 92.325 166.814 91.1768 166.145L77.3204 165.412L77.7821 158.493L91.393 159.95C92.5848 159.374 93.8889 159.11 95.1961 159.181Z" fill="#FFB6B6"/>
<path d="M58.3274 116.771C58.3274 116.771 65.8001 117.766 66.7342 126.224C67.6682 134.682 69.0694 155.079 69.0694 155.079L86.35 154.582L85.9951 166.869C85.9951 166.869 55.9922 172.99 54.124 161.05C52.2558 149.109 50.8547 119.941 54.124 118.356C57.3933 116.771 58.3274 116.771 58.3274 116.771Z" fill="#1165BA"/>
<path d="M155.365 36.9176L151.521 34.9781C153.098 37.3217 154.456 40.982 155.184 43.8946C156.415 41.1815 158.4 37.8618 160.365 35.8788L156.302 36.9921C158.806 23.9236 168.221 14.5417 179.003 14.5417L179.155 14.0697C167.893 14.0697 157.921 23.3215 155.365 36.9176Z" fill="#3F3D56"/>
<path d="M173.056 56.8298H148.77C147.74 56.8298 146.902 55.937 146.902 54.8398C146.902 53.7425 147.74 52.8497 148.77 52.8497H173.056C174.086 52.8497 174.924 53.7425 174.924 54.8398C174.924 55.937 174.086 56.8298 173.056 56.8298Z" fill="#1165BA"/>
<path d="M117.847 141.248L101.921 142.677C101.52 142.713 101.166 142.395 101.132 141.967C101.098 141.539 101.397 141.162 101.799 141.126L117.725 139.697C118.126 139.66 118.48 139.979 118.514 140.407C118.548 140.834 118.249 141.212 117.847 141.248Z" fill="#3F3D56"/>
<path d="M116.446 146.223L100.52 147.652C100.119 147.688 99.7645 147.37 99.7306 146.942C99.6968 146.514 99.996 146.137 100.397 146.101L116.324 144.671C116.725 144.635 117.079 144.954 117.113 145.382C117.147 145.809 116.848 146.187 116.446 146.223Z" fill="#3F3D56"/>
<path d="M115.045 151.198L99.1191 152.627C98.7176 152.663 98.3633 152.345 98.3295 151.917C98.2957 151.489 98.5949 151.112 98.9964 151.076L114.922 149.647C115.324 149.611 115.678 149.929 115.712 150.357C115.746 150.784 115.447 151.162 115.045 151.198Z" fill="#3F3D56"/>
<path d="M71.5654 95.2642L79.0804 86.0728L77.8277 82.1958L81.8618 86.2794L83.9442 85.6769C83.9442 85.6769 83.9262 77.8057 78.0259 77.4502C72.1256 77.0946 67.8932 77.7566 67.8932 77.7566C67.8932 77.7566 59.4567 80.5728 59.1269 82.7311C58.797 84.8894 54.0708 87.7573 54.0708 87.7573C54.0708 87.7573 49.97 91.0067 51.887 96.453C53.804 101.899 58.1783 108.698 55.1503 112.012C52.1223 115.326 47.8434 117.877 49.9283 119.149C52.0131 120.421 55.7738 114.457 59.1987 116.841C62.6235 119.226 68.4108 128.803 73.8393 123.857C79.2678 118.91 80.2716 113.182 80.2716 113.182L71.6082 104.061C71.6082 104.061 66.3594 94.5246 71.5654 95.2642Z" fill="#2F2E41"/>
<path d="M190.995 2.69299H167.387C166.792 2.69299 166.308 2.17713 166.308 1.54315C166.308 0.90917 166.792 0.393555 167.387 0.393555H190.995C191.59 0.393555 192.074 0.909175 192.074 1.54316C192.074 2.17714 191.59 2.69299 190.995 2.69299Z" fill="#3F3D56"/>
<path d="M203.663 14.9597H154.719C154.124 14.9597 153.64 14.4439 153.64 13.8099C153.64 13.1759 154.124 12.6603 154.719 12.6603H203.663C204.258 12.6603 204.742 13.1759 204.742 13.8099C204.742 14.4439 204.258 14.9597 203.663 14.9597Z" fill="#3F3D56"/>
</g>
<defs>
<clipPath id="clip0_3306_764">
<rect width="230" height="297" fill="white" transform="translate(0.429443 0.393555)"/>
</clipPath>
</defs>
</svg>
