<svg width="334" height="183" viewBox="0 0 334 183" fill="none" xmlns="http://www.w3.org/2000/svg">
<path d="M0.000366211 6.4502H233.833V118.093H0.000366211V6.4502Z" fill="#E6E6E6"/>
<path d="M6.68658 16.0239H227.146V109.171H6.68658V16.0239Z" fill="white"/>
<path d="M0.0999756 0H233.933V9.99522H0.0999756V0Z" fill="#323232"/>
<path d="M226.55 6.47615C225.534 6.47615 224.709 5.64673 224.709 4.62357C224.709 3.60042 225.534 2.771 226.55 2.771C227.567 2.771 228.392 3.60042 228.392 4.62357C228.392 5.64673 227.567 6.47615 226.55 6.47615Z" fill="white"/>
<path d="M219.562 6.47615C218.545 6.47615 217.721 5.64673 217.721 4.62357C217.721 3.60042 218.545 2.771 219.562 2.771C220.579 2.771 221.403 3.60042 221.403 4.62357C221.403 5.64673 220.579 6.47615 219.562 6.47615Z" fill="white"/>
<path d="M212.573 6.47615C211.556 6.47615 210.732 5.64673 210.732 4.62357C210.732 3.60042 211.556 2.771 212.573 2.771C213.59 2.771 214.414 3.60042 214.414 4.62357C214.414 5.64673 213.59 6.47615 212.573 6.47615Z" fill="white"/>
<path d="M60.5491 35.4766H173.102C173.923 35.4766 174.711 35.8048 175.291 36.389C175.872 36.9732 176.198 37.7656 176.198 38.5918C176.198 39.418 175.872 40.2104 175.291 40.7946C174.711 41.3788 173.923 41.707 173.102 41.707H60.5491C59.7279 41.707 58.9404 41.3788 58.3598 40.7946C57.7792 40.2104 57.453 39.418 57.453 38.5918C57.453 37.7656 57.7792 36.9732 58.3598 36.389C58.9404 35.8048 59.7279 35.4766 60.5491 35.4766Z" fill="#E4E4E4"/>
<path d="M60.5491 59.4819H173.102C173.923 59.4819 174.711 59.8101 175.291 60.3944C175.872 60.9786 176.198 61.7709 176.198 62.5972C176.198 63.4234 175.872 64.2157 175.291 64.8C174.711 65.3842 173.923 65.7124 173.102 65.7124H60.5491C59.7285 65.7114 58.9419 65.3828 58.3621 64.7987C57.7822 64.2146 57.4565 63.4228 57.4565 62.5972C57.4565 61.7716 57.7822 60.9797 58.3621 60.3956C58.9419 59.8115 59.7285 59.4829 60.5491 59.4819Z" fill="#E4E4E4"/>
<path d="M60.5491 83.4873H173.102C173.923 83.4873 174.711 83.8155 175.291 84.3997C175.872 84.9839 176.198 85.7763 176.198 86.6025C176.198 87.4287 175.872 88.2211 175.291 88.8053C174.711 89.3896 173.923 89.7178 173.102 89.7178H60.5491C59.7279 89.7178 58.9404 89.3896 58.3598 88.8053C57.7792 88.2211 57.453 87.4287 57.453 86.6025C57.453 85.7763 57.7792 84.9839 58.3598 84.3997C58.9404 83.8155 59.7279 83.4873 60.5491 83.4873Z" fill="#E4E4E4"/>
<path d="M114.64 41.8899H172.994C173.839 41.9022 174.658 41.5918 175.285 41.0211C175.912 40.4504 176.3 39.6618 176.373 38.8143C176.405 38.3629 176.343 37.9099 176.192 37.4837C176.041 37.0576 175.804 36.6676 175.495 36.3384C175.188 36.0092 174.817 35.7466 174.406 35.5668C173.994 35.387 173.55 35.2938 173.102 35.293H121.014C119.324 35.2949 117.704 35.9712 116.509 37.1736C115.314 38.376 114.642 40.0062 114.64 41.7067V41.8899Z" fill="#046AD0"/>
<path d="M84.4071 65.8958H172.994C173.839 65.9081 174.658 65.5976 175.285 65.0269C175.912 64.4562 176.3 63.6677 176.373 62.8201C176.405 62.3688 176.343 61.9158 176.192 61.4896C176.041 61.0634 175.804 60.6735 175.495 60.3443C175.188 60.015 174.817 59.7525 174.406 59.5727C173.994 59.3929 173.55 59.2997 173.102 59.2988H90.7814C89.0914 59.3008 87.4712 59.9771 86.2762 61.1795C85.0812 62.3819 84.409 64.0121 84.4071 65.7126V65.8958Z" fill="#046AD0"/>
<path d="M96.7915 89.9012H172.994C173.839 89.9135 174.658 89.603 175.285 89.0323C175.912 88.4616 176.3 87.673 176.373 86.8255C176.405 86.3742 176.343 85.9211 176.192 85.495C176.041 85.0688 175.804 84.6788 175.495 84.3496C175.188 84.0204 174.817 83.7578 174.406 83.578C173.994 83.3982 173.55 83.3051 173.102 83.3042H103.166C101.476 83.3061 99.8557 83.9825 98.6607 85.1849C97.4657 86.3873 96.7935 88.0175 96.7915 89.7179V89.9012Z" fill="#046AD0"/>
<path d="M231.641 90.8389C231.89 91.3174 232.24 91.7351 232.667 92.0627C233.093 92.3903 233.586 92.6198 234.111 92.735C234.635 92.8502 235.178 92.8483 235.702 92.7294C236.225 92.6106 236.717 92.3777 237.141 92.0471L248.068 99.2201L248.035 92.3985L237.663 86.6327C237.064 85.9521 236.238 85.5163 235.341 85.4079C234.443 85.2994 233.538 85.5259 232.795 86.0444C232.053 86.5628 231.526 87.3373 231.313 88.2209C231.1 89.1046 231.217 90.0361 231.641 90.8389Z" fill="#FFB6B6"/>
<path d="M257.871 114.625L253.199 161.525L255.535 202.007H264.565L266.391 163.927L273.493 143.105L277.626 175.193V201.32L287.9 201.798L291.309 137.828C291.309 137.828 292.467 119.936 290.157 117.744C287.846 115.551 257.871 114.625 257.871 114.625Z" fill="#2F2E41"/>
<path d="M297.698 72.3058L288.257 68.7298L286.596 65.3398L274.727 65.5133L272.038 68.2315L262.795 71.2777L256.919 116.577C256.919 116.577 275.007 129.585 291.064 120.597L297.698 72.3058Z" fill="#D6E7FF"/>
<path d="M239.916 95.2172L255.451 104.407L268.395 86.9853V76.0579C268.396 75.0479 268.099 74.0604 267.542 73.2201C267.029 72.4437 266.314 71.8231 265.476 71.4253C264.637 71.0275 263.707 70.8676 262.785 70.9628C261.863 71.058 260.984 71.4048 260.243 71.9657C259.503 72.5266 258.928 73.2803 258.582 74.1455L251.86 90.9515L242.325 88.1167L239.916 95.2172Z" fill="#D6E7FF"/>
<path d="M285.058 119.725C285.153 119.193 285.362 118.689 285.671 118.247C285.98 117.806 286.382 117.438 286.848 117.17C287.313 116.901 287.832 116.739 288.367 116.694C288.902 116.649 289.44 116.723 289.943 116.91L298.224 106.765L300.229 113.282L292.058 121.916C291.69 122.746 291.032 123.412 290.208 123.787C289.385 124.161 288.454 124.219 287.591 123.949C286.728 123.679 285.994 123.1 285.527 122.321C285.06 121.543 284.893 120.619 285.058 119.725Z" fill="#FFB6B6"/>
<path d="M297.408 118.127L292.176 112.862L300.817 97.283L288.284 83.1485L289.008 77.4462C289.174 76.1334 289.697 74.8922 290.518 73.8585C291.232 72.9597 292.15 72.246 293.195 71.7772C294.239 71.3083 295.38 71.0979 296.522 71.1636C297.664 71.2293 298.773 71.5691 299.758 72.1546C300.743 72.7402 301.574 73.5544 302.181 74.5292L311.981 96.4527L311.932 96.5257L297.408 118.127Z" fill="#D6E7FF"/>
<path d="M289.352 53.5709C288.99 56.2299 287.594 58.6355 285.47 60.2591C283.346 61.8826 280.668 62.5913 278.025 62.2293C275.382 61.8674 272.99 60.4644 271.374 58.3288C269.759 56.1932 269.052 53.4995 269.409 50.8398L269.429 50.6961C269.845 48.0722 271.271 45.7183 273.397 44.1422C275.523 42.5662 278.18 41.8943 280.794 42.2715C283.409 42.6487 285.771 44.0448 287.371 46.1585C288.972 48.2723 289.682 50.9344 289.349 53.5704L289.352 53.5709Z" fill="#FFB6B6"/>
<path d="M286.791 58.7866C287.308 57.7303 287.838 56.5963 287.693 55.4281C287.548 54.2598 286.409 53.1432 285.291 53.4904C284.623 53.698 284.117 54.3623 283.418 54.3963C282.457 54.4431 281.906 53.3357 281.606 52.415L280.387 48.6654C279.217 49.5833 277.859 50.2299 276.411 50.5591C274.964 50.8882 273.462 50.8917 272.013 50.5695C270.881 50.3091 269.737 49.8014 269.073 48.8431C268.41 47.8847 268.414 46.3981 269.324 45.6735C269.771 45.3181 270.365 45.1831 270.792 44.804C271.056 44.5687 271.239 44.254 271.312 43.9064C271.385 43.5588 271.345 43.1967 271.198 42.8737C271.05 42.5508 270.804 42.2841 270.494 42.1132C270.185 41.9423 269.828 41.8762 269.479 41.9247L272.548 41.5387L271.633 39.8745C271.981 40.1125 272.374 40.2749 272.788 40.3513C273.202 40.4276 273.626 40.4162 274.035 40.3178C274.861 40.1682 275.639 39.8261 276.447 39.598C278.405 39.0948 280.473 39.2486 282.336 40.0359C284.2 40.8232 285.757 42.201 286.771 43.9599C287.526 43.7062 288.34 43.6893 289.105 43.9116C289.87 44.1339 290.55 44.5848 291.055 45.2046C291.877 46.2539 292.1 47.6542 292.132 48.9897C292.192 51.6229 291.621 54.232 290.468 56.5967C290.137 57.3479 289.662 58.0258 289.07 58.5915C288.772 58.8721 288.417 59.0835 288.029 59.2112C287.641 59.3388 287.23 59.3795 286.825 59.3304" fill="#2F2E41"/>
</svg>
