<svg width="114" height="100" viewBox="0 0 114 100" fill="none" xmlns="http://www.w3.org/2000/svg">
<path d="M10.8461 100C7.96953 100 5.56771 99.0365 3.64062 97.1094C1.71354 95.1823 0.75 92.7805 0.75 89.9039V28.8461C0.75 25.9695 1.71354 23.5677 3.64062 21.6406C5.56771 19.7135 7.96953 18.75 10.8461 18.75H38.25V10.0961C38.25 7.21953 39.2135 4.81771 41.1406 2.89062C43.0677 0.963542 45.4695 0 48.3461 0H65.6539C68.5305 0 70.9323 0.963542 72.8594 2.89062C74.7865 4.81771 75.75 7.21953 75.75 10.0961V18.75H103.154C106.03 18.75 108.432 19.7135 110.359 21.6406C112.286 23.5677 113.25 25.9695 113.25 28.8461V89.9039C113.25 92.7805 112.286 95.1823 110.359 97.1094C108.432 99.0365 106.03 100 103.154 100H10.8461ZM44.5 18.75H69.5V10.0961C69.5 9.13453 69.0994 8.25313 68.2981 7.45188C67.4968 6.65063 66.6154 6.25 65.6539 6.25H48.3461C47.3846 6.25 46.5032 6.65063 45.7019 7.45188C44.9006 8.25313 44.5 9.13453 44.5 10.0961V18.75ZM107 65.625H69.5V75H44.5V65.625H7V89.9039C7 90.8654 7.40063 91.7468 8.20188 92.5481C9.00323 93.3494 9.88464 93.75 10.8461 93.75H103.154C104.115 93.75 104.997 93.3494 105.798 92.5481C106.599 91.7468 107 90.8654 107 89.9039V65.625ZM50.75 68.75H63.25V56.25H50.75V68.75ZM7 59.375H44.5V50H69.5V59.375H107V28.8461C107 27.8846 106.599 27.0032 105.798 26.2019C104.997 25.4006 104.115 25 103.154 25H10.8461C9.88464 25 9.00323 25.4006 8.20188 26.2019C7.40063 27.0032 7 27.8846 7 28.8461V59.375Z" fill="#046AD0"/>
</svg>
