<svg width="56" height="56" viewBox="0 0 56 56" fill="none" xmlns="http://www.w3.org/2000/svg">
<rect width="56" height="56" fill="#00BFD9"/>
<path d="M20.8415 12L10.378 15.5L8 19L11.8049 27L23.2195 31H38.439L45.0976 30L47 23L45.0976 15.5L37.4878 11L20.8415 12Z" stroke="white" stroke-width="2"/>
<path d="M30 30L32 24" stroke="white" stroke-width="2"/>
<path d="M15.9998 14L18.9998 20H12.9998" stroke="white" stroke-width="2"/>
<path d="M30 18L36 16" stroke="white" stroke-width="2"/>
<path d="M23.8192 24.3588L18.1808 26.6411" stroke="white" stroke-width="2"/>
<path d="M40.0002 22V26.3636L46.0002 28" stroke="white" stroke-width="2"/>
<path d="M34.9998 31.5L35.9563 36H41.2171L45.9998 33L45.0432 30" stroke="white" stroke-width="2"/>
<path d="M44.0002 36V45H40.0002V36" stroke="white" stroke-width="2"/>
</svg>
