<svg width="937" height="506" viewBox="0 0 937 506" fill="none" xmlns="http://www.w3.org/2000/svg">
<g clip-path="url(#clip0_566_1693)">
<path d="M59.2948 422.007L56.3748 436.657C56.1548 437.777 55.9248 438.917 55.6748 440.047C53.2343 439.542 50.7038 439.683 48.3348 440.457C50.2143 443.143 51.8986 445.961 53.3748 448.887C51.5348 454.557 48.8348 459.797 44.3148 463.587C41.2959 466.062 37.6903 467.718 33.8456 468.394C30.0009 469.07 26.0469 468.744 22.3648 467.447L22.4948 466.867C17.6348 457.437 20.2748 445.547 26.3148 436.837C29.3954 432.54 33.0455 428.682 37.1648 425.367C41.2448 421.967 45.6548 418.917 50.0248 415.907C51.0063 415.232 52.1667 414.865 53.3579 414.853C54.549 414.841 55.7167 415.184 56.7117 415.839C57.7068 416.494 58.484 417.431 58.9442 418.529C59.4043 419.628 59.5263 420.839 59.2948 422.007Z" fill="#E4E4E4"/>
<path d="M23.4049 502.697C22.1759 493.744 20.9119 484.677 21.7739 475.628C22.5399 467.592 24.9909 459.743 29.9829 453.307C32.6325 449.897 35.8564 446.976 39.5099 444.674C40.4629 444.074 41.3389 445.583 40.3909 446.181C34.0697 450.176 29.1803 456.075 26.4279 463.028C23.3879 470.76 22.8999 479.189 23.4279 487.402C23.7449 492.369 24.4159 497.302 25.0929 502.232C25.1474 502.455 25.1146 502.691 25.0012 502.89C24.8878 503.09 24.7024 503.239 24.4829 503.306C24.2597 503.367 24.0216 503.336 23.8205 503.222C23.6194 503.108 23.4715 502.919 23.4089 502.696L23.4049 502.697Z" fill="#F2F2F2"/>
<path d="M33.9524 53.6339C76.7897 52.889 119.632 52.782 162.478 53.3129C205.318 53.8469 248.144 55.0216 290.956 56.8371C314.979 57.8559 338.993 59.0764 362.997 60.4986C364.925 60.6127 364.919 57.6123 362.997 57.4986C320.228 54.9678 277.428 53.074 234.596 51.8175C191.771 50.5643 148.933 49.9518 106.083 49.9802C82.0384 49.9962 57.9947 50.2141 33.9524 50.6339C32.0241 50.6675 32.018 53.6675 33.9524 53.6339Z" fill="#E6E6E6"/>
<path d="M332.488 34.8231L351.219 33.429C353.133 33.2866 353.148 30.2854 351.219 30.429L332.488 31.8231C330.574 31.9655 330.559 34.9667 332.488 34.8231Z" fill="#E6E6E6"/>
<path d="M332.488 52.8231L351.219 51.429C353.133 51.2866 353.148 48.2854 351.219 48.429L332.488 49.8231C330.574 49.9655 330.559 52.9667 332.488 52.8231Z" fill="#E6E6E6"/>
<path d="M331.079 44.603L357.711 47.0225C359.633 47.1971 359.621 44.196 357.711 44.0225L331.079 41.603C329.157 41.4284 329.168 44.4294 331.079 44.603Z" fill="#E6E6E6"/>
<path d="M45.0379 30.7886C43.7353 30.7805 42.4591 31.1561 41.3685 31.8684C40.2778 32.5806 39.421 33.5982 38.9047 34.7941C38.3272 35.9646 38.1489 37.2921 38.3971 38.5735C38.6454 39.8549 39.3065 41.0198 40.2793 41.8899C41.1939 42.668 42.2908 43.2015 43.4676 43.4406C44.6443 43.6797 45.8624 43.6165 47.0081 43.2569C48.1798 42.8477 49.1958 42.0854 49.9164 41.0749C50.6369 40.0644 51.0265 38.8553 51.0315 37.6143C51.0838 36.2374 50.7108 34.8777 49.9632 33.7203C49.2155 32.5629 48.1296 31.6638 46.8529 31.1453C46.4694 31.0411 46.0602 31.0927 45.7145 31.289C45.3689 31.4852 45.1148 31.8101 45.0078 32.1929C44.9131 32.5761 44.969 32.981 45.1639 33.3243C45.3588 33.6675 45.6779 33.923 46.0554 34.0381C46.3168 34.1391 45.8166 33.9096 46.0607 34.0426C46.1611 34.0973 46.2633 34.1467 46.3619 34.205C46.4457 34.2547 46.5259 34.309 46.6074 34.3622C46.8874 34.5449 46.4707 34.228 46.6496 34.3923C46.8049 34.5348 46.9586 34.6738 47.0997 34.831C47.1531 34.8904 47.362 35.0557 47.1996 34.9402C47.0754 34.8518 47.1517 34.8726 47.1996 34.9436C47.2359 34.9974 47.2744 35.0498 47.3102 35.104C47.4272 35.281 47.5335 35.4648 47.6286 35.6544C47.6507 35.6982 47.6708 35.7431 47.6932 35.7868C47.7352 35.8686 47.7961 35.89 47.6974 35.7876C47.603 35.6897 47.6631 35.6964 47.6968 35.7906C47.719 35.8525 47.7433 35.9136 47.7648 35.9758C47.8352 36.1781 47.8942 36.3842 47.9417 36.5931C47.9637 36.6896 47.9814 36.7868 48.0003 36.8839C48.0673 37.2284 47.9905 36.6698 48.0067 36.9256C48.0202 37.1393 48.036 37.3506 48.0323 37.5651C48.0306 37.6633 48.0263 37.7613 48.0195 37.8592C48.016 37.9081 48.0106 37.9568 48.0073 38.0056C47.9918 38.241 47.9913 37.9196 48.0242 37.8976C47.9557 38.0974 47.9102 38.3044 47.8887 38.5146C47.8618 38.6079 47.8299 38.6991 47.8 38.7913C47.6956 39.1132 47.898 38.6159 47.7868 38.8359C47.6952 39.0248 47.5929 39.2084 47.4803 39.3856C47.4314 39.4598 47.2471 39.6274 47.3978 39.5108C47.5614 39.3842 47.3121 39.6022 47.2589 39.6583C47.1906 39.7303 47.1197 39.7999 47.0462 39.8669C46.9991 39.9129 46.9495 39.9561 46.8974 39.9963C46.8879 39.9915 47.148 39.8225 47.0078 39.9119C46.8296 40.0256 46.6608 40.1472 46.473 40.2462C46.4511 40.2577 46.211 40.369 46.212 40.3729C46.2016 40.3324 46.5207 40.2605 46.3017 40.3313C46.2557 40.3462 46.2105 40.3641 46.1647 40.3796C45.9653 40.4467 45.7618 40.5009 45.5554 40.5419C45.5081 40.5513 45.4582 40.5561 45.4116 40.5681C45.2566 40.6082 45.5598 40.5446 45.5689 40.5499C45.4543 40.5449 45.3395 40.5551 45.2276 40.5801C45.0147 40.5923 44.8014 40.5922 44.5885 40.58C44.5393 40.5772 44.4902 40.5723 44.4409 40.5694C44.3267 40.5628 44.2428 40.4804 44.3949 40.5698C44.5122 40.6388 44.5025 40.5885 44.3985 40.5693C44.3499 40.5603 44.301 40.5527 44.2524 40.5436C44.0418 40.5042 43.8334 40.4531 43.6284 40.3907C43.5181 40.3571 43.41 40.318 43.3011 40.28C43.2537 40.2662 43.2076 40.2485 43.1631 40.2269C43.1625 40.2145 43.4437 40.3612 43.2952 40.2812C43.1078 40.1802 42.9141 40.0956 42.7311 39.9852C42.6335 39.9263 42.5397 39.8623 42.4448 39.7992C42.403 39.7741 42.3633 39.7456 42.3261 39.7142C42.3292 39.7015 42.5586 39.9141 42.4382 39.7994C42.2859 39.6542 42.123 39.5243 41.9787 39.3697C41.9457 39.3344 41.9145 39.2974 41.8816 39.2619L41.8498 39.2256C41.7685 39.1262 41.767 39.1267 41.8453 39.227C41.9248 39.2504 41.9212 39.3377 41.8457 39.2243C41.8189 39.184 41.7903 39.1447 41.7635 39.1043C41.6416 38.9307 41.5378 38.7452 41.4534 38.5507C41.4607 38.545 41.5833 38.9116 41.4896 38.6349C41.4719 38.5827 41.4519 38.5312 41.4346 38.4788C41.4001 38.3749 41.3698 38.2698 41.3436 38.1636C41.3176 38.0584 41.3043 37.9498 41.2782 37.845C41.2341 37.6683 41.3039 37.9844 41.296 37.9765C41.271 37.9518 41.2816 37.7986 41.2797 37.7619C41.2677 37.5266 41.2946 37.2981 41.2987 37.0642C41.302 36.8829 41.2837 37.2054 41.28 37.196C41.2809 37.1417 41.2905 37.0879 41.3084 37.0366C41.3356 36.9133 41.3609 36.79 41.3941 36.668C41.4322 36.5283 41.476 36.3903 41.5256 36.254C41.5441 36.203 41.5667 36.1527 41.5839 36.1013C41.647 35.9129 41.4589 36.3288 41.5626 36.1589C41.7053 35.9253 41.8116 35.6724 41.9632 35.4416C41.9991 35.3869 42.2173 35.0821 42.1015 35.236C41.9861 35.3892 42.2201 35.0988 42.2644 35.0495C42.4484 34.8446 42.6647 34.6764 42.8552 34.4802C42.968 34.3641 42.7765 34.5374 42.7652 34.5454C42.8242 34.5033 42.882 34.4595 42.9417 34.4184C43.0459 34.3466 43.1526 34.2787 43.2618 34.2148C43.3849 34.1426 43.524 34.0889 43.6433 34.0126C43.7842 33.9224 43.5355 34.0522 43.5311 34.0549C43.5954 34.023 43.6627 33.9973 43.732 33.9783C43.8482 33.9371 44.3533 33.7191 44.4593 33.7873C44.4545 33.7842 44.0757 33.8178 44.3819 33.7981C44.4543 33.7935 44.5263 33.7864 44.5988 33.7834C44.7454 33.7774 44.8915 33.781 45.0379 33.7886C45.4349 33.786 45.8149 33.6272 46.0957 33.3464C46.3764 33.0657 46.5353 32.6856 46.5379 32.2886C46.5294 31.8935 46.3686 31.5168 46.0892 31.2374C45.8097 30.9579 45.433 30.7971 45.0379 30.7886Z" fill="#E6E6E6"/>
<path d="M66.0379 30.7886C64.7353 30.7805 63.4591 31.1561 62.3685 31.8684C61.2778 32.5806 60.421 33.5982 59.9047 34.7941C59.3272 35.9646 59.1489 37.2921 59.3971 38.5735C59.6454 39.8549 60.3065 41.0198 61.2793 41.8899C62.1939 42.668 63.2908 43.2015 64.4676 43.4406C65.6443 43.6797 66.8624 43.6165 68.0081 43.2569C69.1798 42.8477 70.1958 42.0854 70.9164 41.0749C71.6369 40.0644 72.0265 38.8553 72.0315 37.6143C72.0838 36.2374 71.7108 34.8777 70.9632 33.7203C70.2155 32.5629 69.1296 31.6638 67.8529 31.1453C67.4694 31.0411 67.0602 31.0927 66.7145 31.289C66.3689 31.4852 66.1148 31.8101 66.0078 32.1929C65.9131 32.5761 65.969 32.981 66.1639 33.3243C66.3588 33.6675 66.6779 33.923 67.0554 34.0381C67.3168 34.1391 66.8166 33.9096 67.0607 34.0426C67.1611 34.0973 67.2633 34.1467 67.3619 34.205C67.4457 34.2547 67.5259 34.309 67.6074 34.3622C67.8874 34.5449 67.4707 34.228 67.6496 34.3923C67.8049 34.5348 67.9586 34.6738 68.0997 34.831C68.1531 34.8904 68.362 35.0557 68.1996 34.9402C68.0754 34.8518 68.1517 34.8726 68.1996 34.9436C68.2359 34.9974 68.2744 35.0498 68.3102 35.104C68.4272 35.281 68.5335 35.4648 68.6286 35.6544C68.6507 35.6982 68.6708 35.7431 68.6932 35.7868C68.7352 35.8686 68.7961 35.89 68.6974 35.7876C68.603 35.6897 68.6631 35.6964 68.6968 35.7906C68.719 35.8525 68.7433 35.9136 68.7648 35.9758C68.8352 36.1781 68.8942 36.3842 68.9417 36.5931C68.9637 36.6896 68.9814 36.7868 69.0003 36.8839C69.0673 37.2284 68.9905 36.6698 69.0067 36.9256C69.0202 37.1393 69.036 37.3506 69.0323 37.5651C69.0306 37.6633 69.0263 37.7613 69.0195 37.8592C69.016 37.9081 69.0106 37.9568 69.0073 38.0056C68.9918 38.241 68.9913 37.9196 69.0242 37.8976C68.9557 38.0974 68.9102 38.3044 68.8887 38.5146C68.8618 38.6079 68.8299 38.6991 68.8 38.7913C68.6956 39.1132 68.898 38.6159 68.7868 38.8359C68.6952 39.0248 68.5929 39.2084 68.4803 39.3856C68.4314 39.4598 68.2471 39.6274 68.3978 39.5108C68.5614 39.3842 68.3121 39.6022 68.2589 39.6583C68.1906 39.7303 68.1197 39.7999 68.0462 39.8669C67.9991 39.9129 67.9495 39.9561 67.8974 39.9963C67.8879 39.9915 68.148 39.8225 68.0078 39.9119C67.8296 40.0256 67.6608 40.1472 67.473 40.2462C67.4511 40.2577 67.211 40.369 67.212 40.3729C67.2016 40.3324 67.5207 40.2605 67.3017 40.3313C67.2557 40.3462 67.2105 40.3641 67.1647 40.3796C66.9653 40.4467 66.7618 40.5009 66.5554 40.5419C66.5081 40.5513 66.4582 40.5561 66.4116 40.5681C66.2566 40.6082 66.5598 40.5446 66.5689 40.5499C66.4543 40.5449 66.3395 40.5551 66.2276 40.5801C66.0147 40.5923 65.8014 40.5922 65.5885 40.58C65.5393 40.5772 65.4902 40.5723 65.4409 40.5694C65.3267 40.5628 65.2428 40.4804 65.3949 40.5698C65.5122 40.6388 65.5025 40.5885 65.3985 40.5693C65.3499 40.5603 65.301 40.5527 65.2524 40.5436C65.0418 40.5042 64.8334 40.4531 64.6284 40.3907C64.5181 40.3571 64.41 40.318 64.3011 40.28C64.2537 40.2662 64.2076 40.2485 64.1631 40.2269C64.1625 40.2145 64.4437 40.3612 64.2952 40.2812C64.1078 40.1802 63.9141 40.0956 63.7311 39.9852C63.6335 39.9263 63.5397 39.8623 63.4448 39.7992C63.403 39.7741 63.3633 39.7456 63.3261 39.7142C63.3292 39.7015 63.5586 39.9141 63.4382 39.7994C63.2859 39.6542 63.123 39.5243 62.9787 39.3697C62.9457 39.3344 62.9145 39.2974 62.8816 39.2619L62.8498 39.2256C62.7685 39.1262 62.767 39.1267 62.8453 39.227C62.9248 39.2504 62.9212 39.3377 62.8457 39.2243C62.8189 39.184 62.7903 39.1447 62.7635 39.1043C62.6416 38.9307 62.5378 38.7452 62.4534 38.5507C62.4607 38.545 62.5833 38.9116 62.4896 38.6349C62.4719 38.5827 62.4519 38.5312 62.4346 38.4788C62.4001 38.3749 62.3698 38.2698 62.3436 38.1636C62.3176 38.0584 62.3043 37.9498 62.2782 37.845C62.2341 37.6683 62.3039 37.9844 62.296 37.9765C62.271 37.9518 62.2816 37.7986 62.2797 37.7619C62.2677 37.5266 62.2946 37.2981 62.2987 37.0642C62.302 36.8829 62.2837 37.2054 62.28 37.196C62.2809 37.1417 62.2905 37.0879 62.3084 37.0366C62.3356 36.9133 62.3609 36.79 62.3941 36.668C62.4322 36.5283 62.476 36.3903 62.5256 36.254C62.5441 36.203 62.5667 36.1527 62.5839 36.1013C62.647 35.9129 62.4589 36.3288 62.5626 36.1589C62.7053 35.9253 62.8116 35.6724 62.9632 35.4416C62.9991 35.3869 63.2173 35.0821 63.1015 35.236C62.9861 35.3892 63.2201 35.0988 63.2644 35.0495C63.4484 34.8446 63.6647 34.6764 63.8552 34.4802C63.968 34.3641 63.7765 34.5374 63.7652 34.5454C63.8242 34.5033 63.882 34.4595 63.9417 34.4184C64.0459 34.3466 64.1526 34.2787 64.2618 34.2148C64.3849 34.1426 64.524 34.0889 64.6433 34.0126C64.7842 33.9224 64.5355 34.0522 64.5311 34.0549C64.5954 34.023 64.6627 33.9973 64.732 33.9783C64.8482 33.9371 65.3533 33.7191 65.4593 33.7873C65.4545 33.7842 65.0757 33.8178 65.3819 33.7981C65.4543 33.7935 65.5263 33.7864 65.5988 33.7834C65.7454 33.7774 65.8915 33.781 66.0379 33.7886C66.4349 33.786 66.8149 33.6272 67.0957 33.3464C67.3764 33.0657 67.5353 32.6856 67.5379 32.2886C67.5294 31.8935 67.3686 31.5168 67.0892 31.2374C66.8097 30.9579 66.433 30.7971 66.0379 30.7886Z" fill="#E6E6E6"/>
<path d="M87.0379 30.7886C85.7353 30.7805 84.4591 31.1561 83.3685 31.8684C82.2778 32.5806 81.421 33.5982 80.9047 34.7941C80.3272 35.9646 80.1489 37.2921 80.3971 38.5735C80.6454 39.8549 81.3065 41.0198 82.2793 41.8899C83.1939 42.668 84.2908 43.2015 85.4676 43.4406C86.6443 43.6797 87.8624 43.6165 89.0081 43.2569C90.1798 42.8477 91.1958 42.0854 91.9164 41.0749C92.6369 40.0644 93.0265 38.8553 93.0315 37.6143C93.0838 36.2374 92.7108 34.8777 91.9632 33.7203C91.2155 32.5629 90.1296 31.6638 88.8529 31.1453C88.4694 31.0411 88.0602 31.0927 87.7145 31.289C87.3689 31.4852 87.1148 31.8101 87.0078 32.1929C86.9131 32.5761 86.969 32.981 87.1639 33.3243C87.3588 33.6675 87.6779 33.923 88.0554 34.0381C88.3168 34.1391 87.8166 33.9096 88.0607 34.0426C88.1611 34.0973 88.2633 34.1467 88.3619 34.205C88.4457 34.2547 88.5259 34.309 88.6074 34.3622C88.8874 34.5449 88.4707 34.228 88.6496 34.3923C88.8049 34.5348 88.9586 34.6738 89.0997 34.831C89.1531 34.8904 89.362 35.0557 89.1996 34.9402C89.0754 34.8518 89.1517 34.8726 89.1996 34.9436C89.2359 34.9974 89.2744 35.0498 89.3102 35.104C89.4272 35.281 89.5335 35.4648 89.6286 35.6544C89.6507 35.6982 89.6708 35.7431 89.6932 35.7868C89.7352 35.8686 89.7961 35.89 89.6974 35.7876C89.603 35.6897 89.6631 35.6964 89.6968 35.7906C89.719 35.8525 89.7433 35.9136 89.7648 35.9758C89.8352 36.1781 89.8942 36.3842 89.9417 36.5931C89.9637 36.6896 89.9814 36.7868 90.0003 36.8839C90.0673 37.2284 89.9905 36.6698 90.0067 36.9256C90.0202 37.1393 90.036 37.3506 90.0323 37.5651C90.0306 37.6633 90.0263 37.7613 90.0195 37.8592C90.016 37.9081 90.0106 37.9568 90.0073 38.0056C89.9918 38.241 89.9913 37.9196 90.0242 37.8976C89.9557 38.0974 89.9102 38.3044 89.8887 38.5146C89.8618 38.6079 89.8299 38.6991 89.8 38.7913C89.6956 39.1132 89.898 38.6159 89.7868 38.8359C89.6952 39.0248 89.5929 39.2084 89.4803 39.3856C89.4314 39.4598 89.2471 39.6274 89.3978 39.5108C89.5614 39.3842 89.3121 39.6022 89.2589 39.6583C89.1906 39.7303 89.1197 39.7999 89.0462 39.8669C88.9991 39.9129 88.9495 39.9561 88.8974 39.9963C88.8879 39.9915 89.148 39.8225 89.0078 39.9119C88.8296 40.0256 88.6608 40.1472 88.473 40.2462C88.4511 40.2577 88.211 40.369 88.212 40.3729C88.2016 40.3324 88.5207 40.2605 88.3017 40.3313C88.2557 40.3462 88.2105 40.3641 88.1647 40.3796C87.9653 40.4467 87.7618 40.5009 87.5554 40.5419C87.5081 40.5513 87.4582 40.5561 87.4116 40.5681C87.2566 40.6082 87.5598 40.5446 87.5689 40.5499C87.4543 40.5449 87.3395 40.5551 87.2276 40.5801C87.0147 40.5923 86.8014 40.5922 86.5885 40.58C86.5393 40.5772 86.4902 40.5723 86.4409 40.5694C86.3267 40.5628 86.2428 40.4804 86.3949 40.5698C86.5122 40.6388 86.5025 40.5885 86.3985 40.5693C86.3499 40.5603 86.301 40.5527 86.2524 40.5436C86.0418 40.5042 85.8334 40.4531 85.6284 40.3907C85.5181 40.3571 85.41 40.318 85.3011 40.28C85.2537 40.2662 85.2076 40.2485 85.1631 40.2269C85.1625 40.2145 85.4437 40.3612 85.2952 40.2812C85.1078 40.1802 84.9141 40.0956 84.7311 39.9852C84.6335 39.9263 84.5397 39.8623 84.4448 39.7992C84.403 39.7741 84.3633 39.7456 84.3261 39.7142C84.3292 39.7015 84.5586 39.9141 84.4382 39.7994C84.2859 39.6542 84.123 39.5243 83.9787 39.3697C83.9457 39.3344 83.9145 39.2974 83.8816 39.2619L83.8498 39.2256C83.7685 39.1262 83.767 39.1267 83.8453 39.227C83.9248 39.2504 83.9212 39.3377 83.8457 39.2243C83.8189 39.184 83.7903 39.1447 83.7635 39.1043C83.6416 38.9307 83.5378 38.7452 83.4534 38.5507C83.4607 38.545 83.5833 38.9116 83.4896 38.6349C83.4719 38.5827 83.4519 38.5312 83.4346 38.4788C83.4001 38.3749 83.3698 38.2698 83.3436 38.1636C83.3176 38.0584 83.3043 37.9498 83.2782 37.845C83.2341 37.6683 83.3039 37.9844 83.296 37.9765C83.271 37.9518 83.2816 37.7986 83.2797 37.7619C83.2677 37.5266 83.2946 37.2981 83.2987 37.0642C83.302 36.8829 83.2837 37.2054 83.28 37.196C83.2809 37.1417 83.2905 37.0879 83.3084 37.0366C83.3356 36.9133 83.3609 36.79 83.3941 36.668C83.4322 36.5283 83.476 36.3903 83.5256 36.254C83.5441 36.203 83.5667 36.1527 83.5839 36.1013C83.647 35.9129 83.4589 36.3288 83.5626 36.1589C83.7053 35.9253 83.8116 35.6724 83.9632 35.4416C83.9991 35.3869 84.2173 35.0821 84.1015 35.236C83.9861 35.3892 84.2201 35.0988 84.2644 35.0495C84.4484 34.8446 84.6647 34.6764 84.8552 34.4802C84.968 34.3641 84.7765 34.5374 84.7652 34.5454C84.8242 34.5033 84.882 34.4595 84.9417 34.4184C85.0459 34.3466 85.1526 34.2787 85.2618 34.2148C85.3849 34.1426 85.524 34.0889 85.6433 34.0126C85.7842 33.9224 85.5355 34.0522 85.5311 34.0549C85.5954 34.023 85.6627 33.9973 85.732 33.9783C85.8482 33.9371 86.3533 33.7191 86.4593 33.7873C86.4545 33.7842 86.0757 33.8178 86.3819 33.7981C86.4543 33.7935 86.5263 33.7864 86.5988 33.7834C86.7454 33.7774 86.8915 33.781 87.0379 33.7886C87.4349 33.786 87.8149 33.6272 88.0957 33.3464C88.3764 33.0657 88.5353 32.6856 88.5379 32.2886C88.5294 31.8935 88.3686 31.5168 88.0892 31.2374C87.8097 30.9579 87.433 30.7971 87.0379 30.7886Z" fill="#E6E6E6"/>
<path d="M390.412 363H22.5064C17.8542 362.995 13.394 361.145 10.1043 357.855C6.81466 354.565 4.96422 350.105 4.95898 345.453V17.5474C4.9642 12.8951 6.81461 8.4349 10.1042 5.14526C13.3939 1.85562 17.8541 0.00521683 22.5064 0H390.412C395.064 0.00521684 399.524 1.85562 402.814 5.14526C406.103 8.4349 407.954 12.8951 407.959 17.5474V345.453C407.954 350.105 406.103 354.565 402.814 357.855C399.524 361.145 395.064 362.995 390.412 363ZM22.5064 2C18.3844 2.00469 14.4326 3.64422 11.5179 6.5589C8.6032 9.47358 6.96367 13.4254 6.95898 17.5474V345.453C6.96378 349.575 8.60336 353.527 11.518 356.441C14.4327 359.356 18.3845 360.995 22.5064 361H390.412C394.534 360.995 398.485 359.356 401.4 356.441C404.315 353.527 405.954 349.575 405.959 345.453V17.5474C405.954 13.4254 404.315 9.47358 401.4 6.5589C398.485 3.64422 394.534 2.00469 390.412 2H22.5064Z" fill="#E6E6E6"/>
<path d="M21.8962 223.106L151.275 222.712L279.994 222.321L352.605 222.1C352.994 222.087 353.363 221.923 353.633 221.643C353.903 221.363 354.054 220.989 354.054 220.6C354.054 220.211 353.903 219.837 353.633 219.557C353.363 219.277 352.994 219.113 352.605 219.1L223.226 219.494L94.507 219.885L21.8962 220.106C21.5074 220.119 21.139 220.283 20.8687 220.563C20.5983 220.843 20.4473 221.217 20.4473 221.606C20.4473 221.995 20.5983 222.369 20.8687 222.649C21.139 222.929 21.5074 223.092 21.8962 223.106Z" fill="#E6E6E6"/>
<path d="M87.1663 220.674L87.9663 173.437C87.999 171.506 84.999 171.505 84.9663 173.437L84.1663 220.674C84.1336 222.605 87.1336 222.605 87.1663 220.674Z" fill="#E6E6E6"/>
<path d="M149.001 221.185L150.951 161.81L151.508 144.846C151.571 142.915 148.571 142.918 148.508 144.846L146.558 204.221L146.001 221.185C145.938 223.116 148.938 223.114 149.001 221.185Z" fill="#E6E6E6"/>
<path d="M210.67 116.701C209.494 137.731 207.318 199.761 206.142 220.791C206.035 222.72 209.035 222.714 209.142 220.791C210.318 199.761 212.494 137.731 213.67 116.701C213.778 114.772 210.778 114.778 210.67 116.701Z" fill="#E6E6E6"/>
<path d="M272.042 199.689L271.674 219.902C271.639 221.833 274.639 221.834 274.674 219.902C275.108 196.029 276.222 196.807 276.345 190.069C276.38 188.138 273.38 188.138 273.345 190.069C273.345 190.069 272.476 175.816 272.042 199.689Z" fill="#E6E6E6"/>
<path d="M332.153 146.589L332.493 203.297L332.59 219.535C332.603 219.924 332.767 220.293 333.047 220.563C333.327 220.833 333.701 220.984 334.09 220.984C334.479 220.984 334.853 220.833 335.133 220.563C335.412 220.293 335.576 219.924 335.59 219.535L335.25 162.827L335.153 146.589C335.14 146.2 334.976 145.831 334.696 145.561C334.416 145.291 334.042 145.14 333.653 145.14C333.264 145.14 332.89 145.291 332.611 145.561C332.331 145.831 332.167 146.2 332.153 146.589Z" fill="#E6E6E6"/>
<path d="M22.1377 221.418C19.6545 214.594 25.2522 208.031 31.004 205.082C37.895 201.549 45.8223 200.748 52.7863 197.342C63.1686 192.264 70.7307 183.15 77.4596 174.028C84.3854 164.638 90.7224 154.561 99.5228 146.76C104.16 142.558 109.637 139.388 115.592 137.461C123.094 135.12 131.05 134.959 138.802 135.903C154.821 137.852 169.67 144.468 185.126 148.674C199.698 152.638 215.754 154.867 230.057 148.702C237.324 145.57 243.266 140.317 249.649 135.771C255.826 131.325 262.733 127.993 270.057 125.926C284.415 121.934 300.095 123 313.463 129.749C325.75 135.874 335.479 146.142 340.932 158.742C347.27 173.88 346.444 190.797 344.374 206.731C343.839 210.85 343.202 214.955 342.559 219.058C342.262 220.947 345.153 221.76 345.452 219.856C348.03 203.425 350.599 186.474 347.392 169.939C344.619 155.502 336.68 142.57 325.061 133.563C313.393 124.531 298.888 119.954 284.149 120.652C276.426 121.01 268.823 122.701 261.675 125.65C254.256 128.719 247.973 133.267 241.592 138.054C235.03 142.975 228.267 147.045 220.121 148.65C212.219 150.207 203.999 149.623 196.132 148.153C179.9 145.121 164.77 138.168 148.675 134.606C133.764 131.306 117.673 130.976 104.32 139.4C94.0483 145.88 86.7904 155.94 79.825 165.654C72.9206 175.283 65.9289 185.579 55.8329 192.157C49.6741 196.169 42.751 197.65 35.8615 199.906C28.9542 202.168 22.3231 205.985 19.5067 213.062C18.2929 215.976 18.1997 219.237 19.2449 222.216C19.8999 224.016 22.8002 223.239 22.1377 221.418Z" fill="#E6E6E6"/>
<path d="M86.171 166.905L86.167 166.907L86.175 166.905H86.171Z" fill="#E6E6E6"/>
<path d="M91.3728 164.145C90.6795 162.918 89.5733 161.975 88.2509 161.486C86.9285 160.996 85.4753 160.992 84.1497 161.472C83.4907 161.713 82.8866 162.083 82.3732 162.561C81.8598 163.039 81.4475 163.615 81.1606 164.255C81.1032 164.391 81.0696 164.534 81.0227 164.674C80.9577 164.779 80.8796 164.874 80.8214 164.984C80.1996 166.223 80.0294 167.64 80.3399 168.991C80.6505 170.342 81.4225 171.542 82.5229 172.385C83.6234 173.228 84.9833 173.661 86.3686 173.609C87.7539 173.558 89.0778 173.024 90.1122 172.102C91.1994 171.119 91.9173 169.794 92.1467 168.346C92.376 166.899 92.1029 165.416 91.3728 164.145ZM87.6156 166.693C87.6234 166.838 87.6279 166.769 87.6156 166.693V166.693ZM87.2337 165.825C87.2189 165.808 87.2208 165.81 87.2337 165.825V165.825ZM85.5503 166.502C85.5256 166.461 85.5278 166.467 85.5503 166.502V166.502ZM85.9493 166.84C86.0067 166.865 86.0443 166.872 85.9493 166.84V166.84ZM86.1275 166.925L86.167 166.907C86.1573 166.908 86.1476 166.906 86.139 166.901L86.1402 166.901L86.1711 166.905L86.1769 166.902L86.159 166.898C86.1745 166.897 86.1759 166.9 86.1769 166.902C86.3554 166.82 86.235 166.86 86.1315 166.892L86.1246 166.89C86.06 166.857 85.9905 166.835 85.9189 166.824C85.9123 166.82 85.9045 166.818 85.8989 166.814C85.8415 166.773 85.5512 166.546 85.8205 166.784C85.7619 166.732 85.704 166.681 85.6488 166.625C85.6164 166.592 85.5869 166.556 85.5608 166.517C85.5255 166.457 85.4913 166.395 85.4581 166.334L85.4531 166.3C85.4487 166.273 85.4454 166.261 85.4417 166.245C85.4434 166.228 85.4462 166.209 85.4488 166.191C85.469 166.137 85.4818 166.081 85.487 166.024L85.4985 166.009C85.5416 165.949 85.5793 165.879 85.6205 165.816C85.4031 166.146 85.7055 165.78 85.7281 165.733C85.7319 165.725 85.7252 165.73 85.7269 165.724C85.7357 165.719 85.733 165.723 85.7436 165.716C85.811 165.677 85.8748 165.633 85.9432 165.595C86.0247 165.549 86.3457 165.458 86.0128 165.554C86.0884 165.532 86.161 165.505 86.2374 165.485C86.2513 165.481 86.3633 165.465 86.4237 165.455C86.4767 165.453 86.5282 165.452 86.5336 165.452C86.5585 165.452 86.5834 165.455 86.6083 165.456C86.553 165.463 86.7979 165.516 86.8706 165.528C86.881 165.536 86.8864 165.541 86.9007 165.552C86.9622 165.596 87.0369 165.636 87.1018 165.678C86.8117 165.491 87.1056 165.693 87.161 165.749C87.1942 165.782 87.2247 165.817 87.2559 165.852C87.2845 165.885 87.3103 165.921 87.3331 165.958C87.3807 166.045 87.4313 166.133 87.4813 166.219L87.4951 166.241C87.4948 166.244 87.4947 166.247 87.4947 166.25C87.5208 166.389 87.5592 166.525 87.6096 166.657C87.612 166.669 87.6139 166.68 87.6152 166.691C87.6199 166.767 87.6262 166.843 87.6264 166.92L87.6257 166.935C87.3947 166.815 87.1384 166.751 86.8779 166.749C86.6174 166.747 86.3602 166.808 86.1275 166.925Z" fill="#E6E6E6"/>
<path d="M86.1805 166.903C86.1848 166.904 86.1797 166.905 86.1797 166.905L86.1805 166.903Z" fill="#E6E6E6"/>
<path d="M86.1793 166.905L86.1748 166.905C86.1805 166.906 86.1793 166.905 86.1793 166.905Z" fill="#E6E6E6"/>
<path d="M86.1768 166.902L86.1788 166.903L86.1768 166.902Z" fill="#E6E6E6"/>
<path d="M150.171 138.905L150.167 138.907L150.175 138.905H150.171Z" fill="#E6E6E6"/>
<path d="M155.373 136.145C154.679 134.918 153.573 133.975 152.251 133.486C150.928 132.996 149.475 132.992 148.15 133.472C147.491 133.713 146.887 134.083 146.373 134.561C145.86 135.039 145.447 135.615 145.161 136.255C145.103 136.391 145.07 136.534 145.023 136.674C144.958 136.779 144.88 136.874 144.821 136.984C144.2 138.223 144.029 139.64 144.34 140.991C144.651 142.342 145.423 143.542 146.523 144.385C147.623 145.228 148.983 145.661 150.369 145.609C151.754 145.558 153.078 145.024 154.112 144.102C155.199 143.119 155.917 141.794 156.147 140.346C156.376 138.899 156.103 137.416 155.373 136.145ZM151.616 138.693C151.623 138.838 151.628 138.769 151.616 138.693V138.693ZM151.234 137.825C151.219 137.808 151.221 137.81 151.234 137.825V137.825ZM149.55 138.502C149.526 138.461 149.528 138.467 149.55 138.502V138.502ZM149.949 138.84C150.007 138.865 150.044 138.872 149.949 138.84V138.84ZM150.127 138.925L150.167 138.907C150.157 138.908 150.148 138.906 150.139 138.901L150.14 138.901L150.171 138.905L150.177 138.902L150.159 138.898C150.174 138.897 150.176 138.9 150.177 138.902C150.355 138.82 150.235 138.86 150.131 138.892L150.125 138.89C150.06 138.857 149.99 138.835 149.919 138.824C149.912 138.82 149.904 138.818 149.899 138.814C149.841 138.773 149.551 138.546 149.82 138.784C149.762 138.732 149.704 138.681 149.649 138.625C149.616 138.592 149.587 138.556 149.561 138.517C149.525 138.457 149.491 138.395 149.458 138.334L149.453 138.3C149.449 138.273 149.445 138.261 149.442 138.245C149.443 138.228 149.446 138.209 149.449 138.191C149.469 138.137 149.482 138.081 149.487 138.024L149.498 138.009C149.542 137.949 149.579 137.879 149.62 137.816C149.403 138.146 149.705 137.78 149.728 137.733C149.732 137.725 149.725 137.73 149.727 137.724C149.736 137.719 149.733 137.723 149.744 137.716C149.811 137.677 149.875 137.633 149.943 137.595C150.025 137.549 150.346 137.458 150.013 137.554C150.088 137.532 150.161 137.505 150.237 137.485C150.251 137.481 150.363 137.465 150.424 137.455C150.477 137.453 150.528 137.452 150.534 137.452C150.558 137.452 150.583 137.455 150.608 137.456C150.553 137.463 150.798 137.516 150.87 137.528C150.881 137.536 150.886 137.541 150.901 137.552C150.962 137.596 151.037 137.636 151.102 137.678C150.812 137.491 151.106 137.693 151.161 137.749C151.194 137.782 151.225 137.817 151.256 137.852C151.284 137.885 151.31 137.921 151.333 137.958C151.381 138.045 151.431 138.133 151.481 138.219L151.495 138.241C151.495 138.244 151.495 138.247 151.495 138.25C151.521 138.389 151.559 138.525 151.61 138.657C151.612 138.669 151.614 138.68 151.615 138.691C151.62 138.767 151.626 138.843 151.626 138.92L151.626 138.935C151.395 138.815 151.138 138.751 150.878 138.749C150.617 138.747 150.36 138.808 150.127 138.925Z" fill="#E6E6E6"/>
<path d="M150.179 138.905L150.175 138.905C150.181 138.906 150.179 138.905 150.179 138.905Z" fill="#E6E6E6"/>
<path d="M150.177 138.902L150.179 138.903L150.177 138.902Z" fill="#E6E6E6"/>
<path d="M150.18 138.903C150.185 138.904 150.18 138.905 150.18 138.905L150.18 138.903Z" fill="#E6E6E6"/>
<path d="M212.177 152.902L212.179 152.903L212.177 152.902Z" fill="#E6E6E6"/>
<path d="M217.373 108.145C216.679 106.918 215.573 105.975 214.251 105.486C212.928 104.996 211.475 104.992 210.15 105.472C209.491 105.713 208.887 106.083 208.373 106.561C207.86 107.039 207.447 107.615 207.161 108.255C207.103 108.391 207.07 108.534 207.023 108.674C206.958 108.779 206.88 108.874 206.821 108.984C206.2 110.223 206.029 111.64 206.34 112.991C206.651 114.342 207.423 115.542 208.523 116.385C209.623 117.228 210.983 117.661 212.369 117.609C213.754 117.558 215.078 117.024 216.112 116.102C217.199 115.119 217.917 113.794 218.147 112.346C218.376 110.899 218.103 109.416 217.373 108.145ZM213.616 110.693C213.623 110.838 213.628 110.769 213.616 110.693V110.693ZM213.234 109.825C213.219 109.808 213.221 109.81 213.234 109.825V109.825ZM211.55 110.502C211.526 110.461 211.528 110.467 211.55 110.502V110.502ZM211.949 110.84C212.007 110.865 212.044 110.872 211.949 110.84V110.84ZM212.127 110.925L212.167 110.907C212.157 110.908 212.148 110.906 212.139 110.901L212.14 110.901L212.171 110.905L212.177 110.902L212.159 110.898C212.174 110.897 212.176 110.9 212.177 110.902C212.355 110.82 212.235 110.86 212.131 110.892L212.125 110.89C212.06 110.857 211.99 110.835 211.919 110.824C211.912 110.82 211.904 110.818 211.899 110.814C211.841 110.773 211.551 110.546 211.82 110.784C211.762 110.732 211.704 110.681 211.649 110.625C211.616 110.592 211.587 110.556 211.561 110.517C211.525 110.457 211.491 110.395 211.458 110.334L211.453 110.3C211.449 110.273 211.445 110.261 211.442 110.245C211.443 110.228 211.446 110.209 211.449 110.191C211.469 110.137 211.482 110.081 211.487 110.024L211.498 110.009C211.542 109.949 211.579 109.879 211.62 109.816C211.403 110.146 211.705 109.78 211.728 109.733C211.732 109.725 211.725 109.73 211.727 109.724C211.736 109.719 211.733 109.723 211.744 109.717C211.811 109.677 211.875 109.633 211.943 109.595C212.025 109.55 212.346 109.458 212.013 109.554C212.088 109.532 212.161 109.505 212.237 109.485C212.251 109.481 212.363 109.465 212.424 109.455C212.477 109.453 212.528 109.452 212.534 109.452C212.558 109.452 212.583 109.455 212.608 109.456C212.553 109.464 212.798 109.516 212.87 109.528C212.881 109.536 212.886 109.541 212.901 109.552C212.962 109.597 213.037 109.636 213.102 109.678C212.812 109.491 213.106 109.693 213.161 109.749C213.194 109.782 213.225 109.817 213.256 109.852C213.284 109.885 213.31 109.921 213.333 109.958C213.381 110.045 213.431 110.133 213.481 110.219L213.495 110.241C213.495 110.244 213.495 110.247 213.495 110.25C213.521 110.389 213.559 110.525 213.61 110.657C213.612 110.669 213.614 110.68 213.615 110.691C213.62 110.767 213.626 110.843 213.626 110.92L213.626 110.935C213.395 110.815 213.138 110.751 212.878 110.749C212.617 110.748 212.36 110.808 212.127 110.925Z" fill="#E6E6E6"/>
<path d="M212.171 152.905L212.167 152.907L212.175 152.905H212.171Z" fill="#E6E6E6"/>
<path d="M212.179 152.905L212.175 152.905C212.181 152.906 212.179 152.905 212.179 152.905Z" fill="#E6E6E6"/>
<path d="M212.18 152.903C212.185 152.904 212.18 152.905 212.18 152.905L212.18 152.903Z" fill="#E6E6E6"/>
<path d="M280.373 185.145C279.679 183.918 278.573 182.975 277.251 182.486C275.928 181.996 274.475 181.992 273.15 182.472C272.491 182.713 271.887 183.083 271.373 183.561C270.86 184.039 270.447 184.615 270.161 185.255C270.103 185.391 270.07 185.534 270.023 185.674C269.958 185.779 269.88 185.874 269.821 185.984C269.2 187.223 269.029 188.64 269.34 189.991C269.651 191.342 270.423 192.542 271.523 193.385C272.623 194.228 273.983 194.661 275.369 194.609C276.754 194.558 278.078 194.024 279.112 193.102C280.199 192.119 280.917 190.794 281.147 189.346C281.376 187.899 281.103 186.416 280.373 185.145ZM276.616 187.693C276.623 187.838 276.628 187.769 276.616 187.693V187.693ZM276.234 186.825C276.219 186.808 276.221 186.81 276.234 186.825V186.825ZM274.55 187.502C274.526 187.461 274.528 187.467 274.55 187.502V187.502ZM274.949 187.84C275.007 187.865 275.044 187.872 274.949 187.84V187.84ZM275.127 187.925L275.167 187.907C275.157 187.908 275.148 187.906 275.139 187.901L275.14 187.901L275.171 187.905L275.177 187.902L275.159 187.898C275.174 187.897 275.176 187.9 275.177 187.902C275.355 187.82 275.235 187.86 275.131 187.892L275.125 187.89C275.06 187.857 274.99 187.835 274.919 187.824C274.912 187.82 274.904 187.818 274.899 187.814C274.841 187.773 274.551 187.546 274.82 187.784C274.762 187.732 274.704 187.681 274.649 187.625C274.616 187.592 274.587 187.556 274.561 187.517C274.525 187.457 274.491 187.395 274.458 187.334L274.453 187.3C274.449 187.273 274.445 187.261 274.442 187.245C274.443 187.228 274.446 187.209 274.449 187.191C274.469 187.137 274.482 187.081 274.487 187.024L274.498 187.009C274.542 186.949 274.579 186.879 274.62 186.816C274.403 187.146 274.705 186.78 274.728 186.733C274.732 186.725 274.725 186.73 274.727 186.724C274.736 186.719 274.733 186.723 274.744 186.716C274.811 186.677 274.875 186.633 274.943 186.595C275.025 186.549 275.346 186.458 275.013 186.554C275.088 186.532 275.161 186.505 275.237 186.485C275.251 186.481 275.363 186.465 275.424 186.455C275.477 186.453 275.528 186.452 275.534 186.452C275.558 186.452 275.583 186.455 275.608 186.456C275.553 186.463 275.798 186.516 275.87 186.528C275.881 186.536 275.886 186.541 275.901 186.552C275.962 186.596 276.037 186.636 276.102 186.678C275.812 186.491 276.106 186.693 276.161 186.749C276.194 186.782 276.225 186.817 276.256 186.852C276.284 186.885 276.31 186.921 276.333 186.958C276.381 187.045 276.431 187.133 276.481 187.219L276.495 187.241C276.495 187.244 276.495 187.247 276.495 187.25C276.521 187.389 276.559 187.525 276.61 187.657C276.612 187.669 276.614 187.68 276.615 187.691C276.62 187.767 276.626 187.843 276.626 187.92L276.626 187.935C276.395 187.815 276.138 187.751 275.878 187.749C275.617 187.747 275.36 187.808 275.127 187.925Z" fill="#E6E6E6"/>
<path d="M275.171 121.905L275.167 121.907L275.175 121.905H275.171Z" fill="#E6E6E6"/>
<path d="M275.179 121.905L275.175 121.905C275.181 121.906 275.179 121.905 275.179 121.905Z" fill="#E6E6E6"/>
<path d="M275.18 121.903C275.185 121.904 275.18 121.905 275.18 121.905L275.18 121.903Z" fill="#E6E6E6"/>
<path d="M275.177 121.902L275.179 121.903L275.177 121.902Z" fill="#E6E6E6"/>
<path d="M339.373 139.145C338.679 137.918 337.573 136.975 336.251 136.486C334.928 135.996 333.475 135.992 332.15 136.472C331.491 136.713 330.887 137.083 330.373 137.561C329.86 138.039 329.447 138.615 329.161 139.255C329.103 139.391 329.07 139.534 329.023 139.674C328.958 139.779 328.88 139.874 328.821 139.984C328.2 141.223 328.029 142.64 328.34 143.991C328.651 145.342 329.423 146.542 330.523 147.385C331.623 148.228 332.983 148.661 334.369 148.609C335.754 148.558 337.078 148.024 338.112 147.102C339.199 146.119 339.917 144.794 340.147 143.346C340.376 141.899 340.103 140.416 339.373 139.145ZM335.616 141.693C335.623 141.838 335.628 141.769 335.616 141.693V141.693ZM335.234 140.825C335.219 140.808 335.221 140.81 335.234 140.825V140.825ZM333.55 141.502C333.526 141.461 333.528 141.467 333.55 141.502V141.502ZM333.949 141.84C334.007 141.865 334.044 141.872 333.949 141.84V141.84ZM334.127 141.925L334.167 141.907C334.157 141.908 334.148 141.906 334.139 141.901L334.14 141.901L334.171 141.905L334.177 141.902L334.159 141.898C334.174 141.897 334.176 141.9 334.177 141.902C334.355 141.82 334.235 141.86 334.131 141.892L334.125 141.89C334.06 141.857 333.99 141.835 333.919 141.824C333.912 141.82 333.904 141.818 333.899 141.814C333.841 141.773 333.551 141.546 333.82 141.784C333.762 141.732 333.704 141.681 333.649 141.625C333.616 141.592 333.587 141.556 333.561 141.517C333.525 141.457 333.491 141.395 333.458 141.334L333.453 141.3C333.449 141.273 333.445 141.261 333.442 141.245C333.443 141.228 333.446 141.209 333.449 141.191C333.469 141.137 333.482 141.081 333.487 141.024L333.498 141.009C333.542 140.949 333.579 140.879 333.62 140.816C333.403 141.146 333.705 140.78 333.728 140.733C333.732 140.725 333.725 140.73 333.727 140.724C333.736 140.719 333.733 140.723 333.744 140.716C333.811 140.677 333.875 140.633 333.943 140.595C334.025 140.549 334.346 140.458 334.013 140.554C334.088 140.532 334.161 140.505 334.237 140.485C334.251 140.481 334.363 140.465 334.424 140.455C334.477 140.453 334.528 140.452 334.534 140.452C334.558 140.452 334.583 140.455 334.608 140.456C334.553 140.463 334.798 140.516 334.87 140.528C334.881 140.536 334.886 140.541 334.901 140.552C334.962 140.596 335.037 140.636 335.102 140.678C334.812 140.491 335.106 140.693 335.161 140.749C335.194 140.782 335.225 140.817 335.256 140.852C335.284 140.885 335.31 140.921 335.333 140.958C335.381 141.045 335.431 141.133 335.481 141.219L335.495 141.241C335.495 141.244 335.495 141.247 335.495 141.25C335.521 141.389 335.559 141.525 335.61 141.657C335.612 141.669 335.614 141.68 335.615 141.691C335.62 141.767 335.626 141.843 335.626 141.92L335.626 141.935C335.395 141.815 335.138 141.751 334.878 141.749C334.617 141.747 334.36 141.808 334.127 141.925Z" fill="#E6E6E6"/>
<path d="M334.171 141.905L334.167 141.907L334.175 141.905H334.171Z" fill="#E6E6E6"/>
<path d="M334.177 141.902L334.179 141.903L334.177 141.902Z" fill="#E6E6E6"/>
<path d="M334.18 141.903C334.185 141.904 334.18 141.905 334.18 141.905L334.18 141.903Z" fill="#E6E6E6"/>
<path d="M334.179 141.905L334.175 141.905C334.181 141.906 334.179 141.905 334.179 141.905Z" fill="#E6E6E6"/>
<path d="M318.003 187.733L271.506 190.318C271.244 190.332 270.986 190.246 270.786 190.076C270.586 189.906 270.458 189.666 270.43 189.405C270.401 189.144 270.474 188.882 270.633 188.673C270.792 188.464 271.025 188.324 271.284 188.282L318.809 180.549L318.003 187.733Z" fill="#3F3D56"/>
<path d="M377.093 291.249L394.615 261.771L407.566 267.888C407.566 267.888 385.25 295.759 384.539 296.561C384.844 297.916 384.73 299.331 384.212 300.62C383.695 301.908 382.799 303.009 381.642 303.777C380.485 304.545 379.122 304.944 377.734 304.921C376.346 304.897 374.997 304.453 373.867 303.647C372.737 302.84 371.878 301.71 371.404 300.405C370.93 299.1 370.864 297.681 371.213 296.338C371.563 294.994 372.312 293.788 373.362 292.879C374.412 291.971 375.713 291.402 377.093 291.249Z" fill="#FFB6B6"/>
<path d="M384.382 222.774L412.77 237.584C414.544 238.862 416.032 240.497 417.138 242.382C418.245 244.268 418.946 246.364 419.196 248.536C419.446 250.708 419.241 252.909 418.592 254.997C417.944 257.085 416.867 259.015 415.43 260.663L395.86 283.112L387.334 271.56L393.905 257.82L381.182 254.465L384.382 222.774Z" fill="#1165BA"/>
<path d="M303.486 188.215L300.288 222.358L285.966 222.382C285.966 222.382 294.183 187.636 294.482 186.607C293.626 185.513 293.122 184.186 293.038 182.8C292.953 181.414 293.291 180.035 294.007 178.845C294.723 177.656 295.783 176.711 297.048 176.137C298.312 175.563 299.721 175.387 301.088 175.631C302.454 175.875 303.715 176.528 304.702 177.505C305.69 178.481 306.358 179.734 306.618 181.098C306.878 182.462 306.717 183.872 306.158 185.143C305.599 186.414 304.667 187.485 303.486 188.215Z" fill="#FFB6B6"/>
<path d="M331.995 258.037L299.03 251.991C285.149 250.322 279.452 241.188 281.957 232.28L290.017 203.609L302.671 210.394L302.623 225.624L320.336 223.202L331.995 258.037Z" fill="#1165BA"/>
<path d="M318.501 493.992H309.437L305.125 459.03H318.503L318.501 493.992Z" fill="#FFB6B6"/>
<path d="M318.821 503.448L290.947 503.447V503.095C290.947 500.217 292.091 497.458 294.125 495.423C296.16 493.389 298.919 492.246 301.796 492.246L306.888 488.383L316.388 492.246L318.821 492.246L318.821 503.448Z" fill="#2F2E41"/>
<path d="M382.636 493.992H391.7L396.012 459.03H382.634L382.636 493.992Z" fill="#FFB6B6"/>
<path d="M382.317 503.448L410.19 503.447V503.095C410.19 500.217 409.047 497.458 407.012 495.423C404.978 493.389 402.218 492.246 399.341 492.246L394.249 488.383L384.75 492.246L382.316 492.246L382.317 503.448Z" fill="#2F2E41"/>
<path d="M304.726 433.338C304.86 431.343 305.925 420.31 305.925 420.31L308.474 396.913L312.967 334.891L316.973 318.589L336.798 326.312L352.885 318.6L372.006 324.712L386.895 330.296C386.895 330.296 386.921 332.686 387.035 335.573C387.188 339.353 387.456 343.986 388.093 345.191C389.158 347.32 388.89 358.748 388.89 358.748C388.89 358.748 389.948 381.999 391.28 384.548C392.612 387.097 392.88 392.407 392.478 393.471C392.077 394.535 393.81 422.458 393.81 422.458C393.81 422.458 398.26 471.871 395.468 479.322C392.677 486.773 382.128 481.892 382.128 481.892C382.128 481.892 382.637 479.904 379.578 478.967C376.519 478.03 367.201 407.965 367.201 407.965C367.201 407.965 365.467 393.598 363.874 389.481C362.28 385.364 360.814 373.796 360.814 373.796C360.814 373.796 350.973 354.649 350.846 350.392C350.846 350.392 349.558 346.408 348.341 350.793C347.124 355.178 343.535 365.682 343.535 365.682L340.036 378.582L335.919 397.856L333.255 414.083C333.255 414.083 329.265 435.62 328.627 436.55C327.99 437.481 328.627 457.156 328.627 457.156C328.627 457.156 325.543 473.912 321.183 476.838C316.823 479.763 305.273 476.884 305.273 476.884C305.273 476.884 304.593 435.333 304.726 433.338Z" fill="#2F2E41"/>
<path d="M319.547 266.132L317.014 298.95L313.208 302.889C312.864 303.245 312.596 303.665 312.42 304.126C312.243 304.588 312.161 305.08 312.179 305.573C312.197 306.067 312.314 306.552 312.524 306.999C312.734 307.446 313.032 307.846 313.4 308.175L311.303 311.771L310.56 323.101C310.349 323.983 310.334 324.9 310.518 325.788C310.702 326.676 311.079 327.512 311.624 328.237C312.168 328.962 312.866 329.558 313.667 329.982C314.469 330.407 315.354 330.649 316.259 330.691L381.891 333.775C382.792 333.817 383.691 333.661 384.525 333.318C385.358 332.975 386.106 332.453 386.716 331.789C387.326 331.124 387.783 330.335 388.054 329.475C388.325 328.615 388.404 327.706 388.285 326.812L382.704 284.798V281.657L380.206 275.59L381.49 255.266L384.477 223.007L367.114 218.522L357.701 212.045L341.346 212.306L331.422 220.456L318.19 222.528L308.184 224.517L306.909 227.288L309.459 226.734L318.699 262.775L319.547 266.132Z" fill="#1165BA"/>
<path d="M349.158 207.648C359.798 207.648 368.423 199.022 368.423 188.382C368.423 177.742 359.798 169.116 349.158 169.116C338.517 169.116 329.892 177.742 329.892 188.382C329.892 199.022 338.517 207.648 349.158 207.648Z" fill="#FFB6B6"/>
<path d="M344.513 206.405L358.432 205.695C360.216 205.604 362.163 205.447 363.46 204.219C364.158 203.461 364.694 202.569 365.038 201.598C366.325 198.609 367.611 195.62 368.865 192.616C370.6 188.463 372.303 184.077 371.861 179.597C371.757 177.551 370.899 175.616 369.452 174.166C368.714 173.467 367.765 173.032 366.754 172.93C365.742 172.827 364.726 173.063 363.862 173.599C363.648 172.183 363.114 170.833 362.301 169.653C361.488 168.472 360.418 167.493 359.17 166.787C356.651 165.395 353.775 164.786 350.908 165.035C346.748 165.303 342.776 166.869 339.552 169.511C338.645 170.348 337.676 171.115 336.655 171.807C336.141 172.151 335.562 172.386 334.954 172.498C334.346 172.611 333.722 172.598 333.119 172.461C332.522 172.301 332.002 171.931 331.657 171.418C331.312 170.906 331.164 170.285 331.24 169.672C330.26 170.405 329.588 171.477 329.355 172.678C329.122 173.88 329.345 175.126 329.981 176.172C329.258 176.474 328.47 176.585 327.692 176.493C326.914 176.401 326.173 176.109 325.541 175.646C324.864 175.982 324.264 176.456 323.781 177.037C323.297 177.618 322.941 178.294 322.733 179.021C322.526 179.748 322.473 180.51 322.577 181.258C322.682 182.007 322.941 182.726 323.339 183.368C323.737 184.011 324.265 184.563 324.889 184.99C325.513 185.416 326.219 185.708 326.962 185.846C327.705 185.984 328.469 185.966 329.205 185.791C329.94 185.617 330.631 185.291 331.234 184.835C332.078 186.018 331.764 187.626 331.654 189.076C331.544 190.525 331.932 192.327 333.33 192.728C335.22 193.27 336.75 190.726 338.715 190.753C339.2 190.792 339.668 190.951 340.077 191.214C340.485 191.478 340.823 191.838 341.059 192.263C341.522 193.117 341.839 194.043 341.997 195.002L344.513 206.326" fill="#2F2E41"/>
<path d="M887.257 379.637C887.257 376.653 886.255 374.232 885.025 374.227H549.68C548.445 374.232 547.448 376.653 547.443 379.637V502.446C547.443 502.723 547.34 502.99 547.154 503.195C546.968 503.401 546.712 503.529 546.436 503.556C545.536 503.642 544.636 503.723 543.736 503.797C543.714 503.797 543.691 503.803 543.669 503.803C543.179 503.847 542.69 503.881 542.2 503.92H542.194C541.942 503.454 541.693 502.984 541.447 502.51C541.364 502.35 541.32 502.173 541.32 501.993V372.618C541.32 371.794 541.354 370.965 541.409 370.147C541.489 369.023 541.628 367.905 541.827 366.796C542.767 361.625 544.894 358.124 547.309 358.113H887.391C887.743 358.116 888.092 358.189 888.415 358.33C888.889 358.54 889.319 358.841 889.678 359.215C890.166 359.723 890.584 360.294 890.919 360.913C892.305 363.675 893.103 366.694 893.263 369.779C893.263 369.813 893.268 369.846 893.268 369.88C893.346 370.781 893.385 371.7 893.38 372.618L893.458 384.546L893.508 391.659L893.658 413.979L893.714 421.905L893.958 503.28C893.958 503.575 893.841 503.858 893.632 504.067C893.424 504.275 893.141 504.393 892.845 504.393H888.37C888.075 504.393 887.792 504.275 887.583 504.067C887.374 503.858 887.257 503.575 887.257 503.28V379.637Z" fill="#E6E6E6"/>
<path d="M796.133 302.3H759.999C759.488 302.301 758.998 302.505 758.637 302.866C758.276 303.228 758.074 303.719 758.074 304.23V361.311H798.063V304.23C798.063 303.976 798.014 303.725 797.917 303.491C797.82 303.257 797.677 303.044 797.498 302.865C797.319 302.686 797.106 302.544 796.872 302.447C796.638 302.35 796.387 302.3 796.133 302.3ZM778.188 334.733C777.058 334.727 775.976 334.276 775.177 333.477C774.377 332.678 773.926 331.596 773.921 330.466V323.882C773.921 322.75 774.37 321.665 775.171 320.865C775.971 320.065 777.056 319.615 778.188 319.615C779.319 319.615 780.405 320.065 781.205 320.865C782.005 321.665 782.455 322.75 782.455 323.882V330.466C782.449 331.596 781.998 332.678 781.199 333.477C780.4 334.276 779.318 334.727 778.188 334.733Z" fill="#CCCCCC"/>
<path d="M757.95 359.485V364.992C757.951 365.278 758.064 365.551 758.266 365.753C758.468 365.955 758.741 366.068 759.027 366.069H797.111C797.396 366.068 797.669 365.954 797.87 365.752C798.072 365.55 798.186 365.277 798.187 364.992V359.485H757.95Z" fill="#3F3D56"/>
<path d="M855.968 213.219H701.509C700.182 213.221 698.91 213.749 697.972 214.687C697.033 215.625 696.505 216.898 696.503 218.225V322.454C696.504 323.781 697.032 325.054 697.971 325.992C698.909 326.931 700.182 327.459 701.509 327.46H855.968C857.295 327.459 858.568 326.931 859.506 325.992C860.445 325.054 860.972 323.781 860.974 322.454V218.225C860.972 216.898 860.444 215.625 859.505 214.687C858.567 213.749 857.295 213.221 855.968 213.219Z" fill="#E6E6E6"/>
<path d="M854.678 216.834H702.799C702.089 216.836 701.408 217.119 700.906 217.622C700.404 218.125 700.122 218.807 700.122 219.517V321.163C700.123 321.873 700.406 322.553 700.908 323.055C701.409 323.557 702.09 323.839 702.799 323.84H854.678C855.388 323.839 856.068 323.557 856.57 323.055C857.072 322.553 857.354 321.873 857.355 321.163V219.517C857.355 218.807 857.073 218.125 856.572 217.622C856.07 217.119 855.389 216.836 854.678 216.834Z" fill="white"/>
<path d="M825.095 367.985H734.735C734.488 367.985 734.244 367.93 734.021 367.824C733.797 367.717 733.601 367.563 733.445 367.37C733.289 367.178 733.178 366.954 733.12 366.714C733.062 366.473 733.058 366.223 733.109 365.981L734.511 359.322C734.591 358.949 734.796 358.615 735.091 358.375C735.387 358.135 735.756 358.003 736.137 358.002H823.693C824.074 358.003 824.443 358.135 824.739 358.375C825.035 358.615 825.24 358.949 825.32 359.322L826.722 365.981C826.773 366.223 826.769 366.473 826.711 366.714C826.653 366.954 826.542 367.178 826.386 367.37C826.23 367.563 826.033 367.717 825.81 367.824C825.587 367.93 825.342 367.985 825.095 367.985Z" fill="#CCCCCC"/>
<path d="M739.074 359.201H737.267C736.998 359.201 736.779 359.42 736.779 359.689V360.383C736.779 360.652 736.998 360.871 737.267 360.871H739.074C739.344 360.871 739.562 360.652 739.562 360.383V359.689C739.562 359.42 739.344 359.201 739.074 359.201Z" fill="#E6E6E6"/>
<path d="M744.64 359.201H742.833C742.563 359.201 742.345 359.42 742.345 359.689V360.383C742.345 360.652 742.563 360.871 742.833 360.871H744.64C744.909 360.871 745.128 360.652 745.128 360.383V359.689C745.128 359.42 744.909 359.201 744.64 359.201Z" fill="#E6E6E6"/>
<path d="M750.206 359.201H748.399C748.13 359.201 747.911 359.42 747.911 359.689V360.383C747.911 360.652 748.13 360.871 748.399 360.871H750.206C750.476 360.871 750.694 360.652 750.694 360.383V359.689C750.694 359.42 750.476 359.201 750.206 359.201Z" fill="#E6E6E6"/>
<path d="M755.771 359.201H753.965C753.695 359.201 753.477 359.42 753.477 359.689V360.383C753.477 360.652 753.695 360.871 753.965 360.871H755.771C756.041 360.871 756.26 360.652 756.26 360.383V359.689C756.26 359.42 756.041 359.201 755.771 359.201Z" fill="#E6E6E6"/>
<path d="M761.338 359.201H759.531C759.262 359.201 759.043 359.42 759.043 359.689V360.383C759.043 360.652 759.262 360.871 759.531 360.871H761.338C761.607 360.871 761.826 360.652 761.826 360.383V359.689C761.826 359.42 761.607 359.201 761.338 359.201Z" fill="#E6E6E6"/>
<path d="M766.903 359.201H765.097C764.827 359.201 764.608 359.42 764.608 359.689V360.383C764.608 360.652 764.827 360.871 765.097 360.871H766.903C767.173 360.871 767.391 360.652 767.391 360.383V359.689C767.391 359.42 767.173 359.201 766.903 359.201Z" fill="#E6E6E6"/>
<path d="M772.47 359.201H770.663C770.393 359.201 770.175 359.42 770.175 359.689V360.383C770.175 360.652 770.393 360.871 770.663 360.871H772.47C772.739 360.871 772.958 360.652 772.958 360.383V359.689C772.958 359.42 772.739 359.201 772.47 359.201Z" fill="#E6E6E6"/>
<path d="M778.036 359.201H776.229C775.96 359.201 775.741 359.42 775.741 359.689V360.383C775.741 360.652 775.96 360.871 776.229 360.871H778.036C778.306 360.871 778.524 360.652 778.524 360.383V359.689C778.524 359.42 778.306 359.201 778.036 359.201Z" fill="#E6E6E6"/>
<path d="M783.601 359.201H781.795C781.525 359.201 781.307 359.42 781.307 359.689V360.383C781.307 360.652 781.525 360.871 781.795 360.871H783.601C783.871 360.871 784.09 360.652 784.09 360.383V359.689C784.09 359.42 783.871 359.201 783.601 359.201Z" fill="#E6E6E6"/>
<path d="M789.168 359.201H787.361C787.092 359.201 786.873 359.42 786.873 359.689V360.383C786.873 360.652 787.092 360.871 787.361 360.871H789.168C789.437 360.871 789.656 360.652 789.656 360.383V359.689C789.656 359.42 789.437 359.201 789.168 359.201Z" fill="#E6E6E6"/>
<path d="M794.733 359.201H792.927C792.657 359.201 792.438 359.42 792.438 359.689V360.383C792.438 360.652 792.657 360.871 792.927 360.871H794.733C795.003 360.871 795.221 360.652 795.221 360.383V359.689C795.221 359.42 795.003 359.201 794.733 359.201Z" fill="#E6E6E6"/>
<path d="M800.3 359.201H798.493C798.223 359.201 798.005 359.42 798.005 359.689V360.383C798.005 360.652 798.223 360.871 798.493 360.871H800.3C800.569 360.871 800.788 360.652 800.788 360.383V359.689C800.788 359.42 800.569 359.201 800.3 359.201Z" fill="#E6E6E6"/>
<path d="M805.865 359.201H804.059C803.789 359.201 803.57 359.42 803.57 359.689V360.383C803.57 360.652 803.789 360.871 804.059 360.871H805.865C806.135 360.871 806.353 360.652 806.353 360.383V359.689C806.353 359.42 806.135 359.201 805.865 359.201Z" fill="#E6E6E6"/>
<path d="M811.432 359.201H809.625C809.355 359.201 809.137 359.42 809.137 359.689V360.383C809.137 360.652 809.355 360.871 809.625 360.871H811.432C811.701 360.871 811.92 360.652 811.92 360.383V359.689C811.92 359.42 811.701 359.201 811.432 359.201Z" fill="#E6E6E6"/>
<path d="M816.998 359.201H815.191C814.922 359.201 814.703 359.42 814.703 359.689V360.383C814.703 360.652 814.922 360.871 815.191 360.871H816.998C817.268 360.871 817.486 360.652 817.486 360.383V359.689C817.486 359.42 817.268 359.201 816.998 359.201Z" fill="#E6E6E6"/>
<path d="M822.563 359.201H820.757C820.487 359.201 820.269 359.42 820.269 359.689V360.383C820.269 360.652 820.487 360.871 820.757 360.871H822.563C822.833 360.871 823.052 360.652 823.052 360.383V359.689C823.052 359.42 822.833 359.201 822.563 359.201Z" fill="#E6E6E6"/>
<path d="M739.008 361.984H737.201C736.931 361.984 736.713 362.203 736.713 362.472V363.166C736.713 363.435 736.931 363.654 737.201 363.654H739.008C739.277 363.654 739.496 363.435 739.496 363.166V362.472C739.496 362.203 739.277 361.984 739.008 361.984Z" fill="#E6E6E6"/>
<path d="M744.574 361.984H742.768C742.498 361.984 742.279 362.203 742.279 362.472V363.166C742.279 363.435 742.498 363.654 742.768 363.654H744.574C744.844 363.654 745.062 363.435 745.062 363.166V362.472C745.062 362.203 744.844 361.984 744.574 361.984Z" fill="#E6E6E6"/>
<path d="M750.14 361.984H748.333C748.063 361.984 747.845 362.203 747.845 362.472V363.166C747.845 363.435 748.063 363.654 748.333 363.654H750.14C750.409 363.654 750.628 363.435 750.628 363.166V362.472C750.628 362.203 750.409 361.984 750.14 361.984Z" fill="#E6E6E6"/>
<path d="M755.706 361.984H753.899C753.63 361.984 753.411 362.203 753.411 362.472V363.166C753.411 363.435 753.63 363.654 753.899 363.654H755.706C755.976 363.654 756.194 363.435 756.194 363.166V362.472C756.194 362.203 755.976 361.984 755.706 361.984Z" fill="#E6E6E6"/>
<path d="M761.271 361.984H759.465C759.195 361.984 758.977 362.203 758.977 362.472V363.166C758.977 363.435 759.195 363.654 759.465 363.654H761.271C761.541 363.654 761.76 363.435 761.76 363.166V362.472C761.76 362.203 761.541 361.984 761.271 361.984Z" fill="#E6E6E6"/>
<path d="M766.838 361.984H765.031C764.762 361.984 764.543 362.203 764.543 362.472V363.166C764.543 363.435 764.762 363.654 765.031 363.654H766.838C767.107 363.654 767.326 363.435 767.326 363.166V362.472C767.326 362.203 767.107 361.984 766.838 361.984Z" fill="#E6E6E6"/>
<path d="M772.404 361.984H770.598C770.328 361.984 770.109 362.203 770.109 362.472V363.166C770.109 363.435 770.328 363.654 770.598 363.654H772.404C772.674 363.654 772.892 363.435 772.892 363.166V362.472C772.892 362.203 772.674 361.984 772.404 361.984Z" fill="#E6E6E6"/>
<path d="M777.97 361.984H776.163C775.893 361.984 775.675 362.203 775.675 362.472V363.166C775.675 363.435 775.893 363.654 776.163 363.654H777.97C778.239 363.654 778.458 363.435 778.458 363.166V362.472C778.458 362.203 778.239 361.984 777.97 361.984Z" fill="#E6E6E6"/>
<path d="M783.536 361.984H781.729C781.46 361.984 781.241 362.203 781.241 362.472V363.166C781.241 363.435 781.46 363.654 781.729 363.654H783.536C783.806 363.654 784.024 363.435 784.024 363.166V362.472C784.024 362.203 783.806 361.984 783.536 361.984Z" fill="#E6E6E6"/>
<path d="M789.101 361.984H787.295C787.025 361.984 786.807 362.203 786.807 362.472V363.166C786.807 363.435 787.025 363.654 787.295 363.654H789.101C789.371 363.654 789.59 363.435 789.59 363.166V362.472C789.59 362.203 789.371 361.984 789.101 361.984Z" fill="#E6E6E6"/>
<path d="M794.668 361.984H792.861C792.592 361.984 792.373 362.203 792.373 362.472V363.166C792.373 363.435 792.592 363.654 792.861 363.654H794.668C794.937 363.654 795.156 363.435 795.156 363.166V362.472C795.156 362.203 794.937 361.984 794.668 361.984Z" fill="#E6E6E6"/>
<path d="M800.233 361.984H798.427C798.157 361.984 797.938 362.203 797.938 362.472V363.166C797.938 363.435 798.157 363.654 798.427 363.654H800.233C800.503 363.654 800.721 363.435 800.721 363.166V362.472C800.721 362.203 800.503 361.984 800.233 361.984Z" fill="#E6E6E6"/>
<path d="M805.8 361.984H803.993C803.723 361.984 803.505 362.203 803.505 362.472V363.166C803.505 363.435 803.723 363.654 803.993 363.654H805.8C806.069 363.654 806.288 363.435 806.288 363.166V362.472C806.288 362.203 806.069 361.984 805.8 361.984Z" fill="#E6E6E6"/>
<path d="M811.366 361.984H809.559C809.29 361.984 809.071 362.203 809.071 362.472V363.166C809.071 363.435 809.29 363.654 809.559 363.654H811.366C811.636 363.654 811.854 363.435 811.854 363.166V362.472C811.854 362.203 811.636 361.984 811.366 361.984Z" fill="#E6E6E6"/>
<path d="M816.932 361.984H815.125C814.855 361.984 814.637 362.203 814.637 362.472V363.166C814.637 363.435 814.855 363.654 815.125 363.654H816.932C817.201 363.654 817.42 363.435 817.42 363.166V362.472C817.42 362.203 817.201 361.984 816.932 361.984Z" fill="#E6E6E6"/>
<path d="M822.498 361.984H820.691C820.422 361.984 820.203 362.203 820.203 362.472V363.166C820.203 363.435 820.422 363.654 820.691 363.654H822.498C822.768 363.654 822.986 363.435 822.986 363.166V362.472C822.986 362.203 822.768 361.984 822.498 361.984Z" fill="#E6E6E6"/>
<path d="M785.205 365.324H763.918C763.648 365.324 763.43 365.542 763.43 365.812V366.505C763.43 366.775 763.648 366.993 763.918 366.993H785.205C785.475 366.993 785.694 366.775 785.694 366.505V365.812C785.694 365.542 785.475 365.324 785.205 365.324Z" fill="#E6E6E6"/>
<path d="M847.044 230.839H704.932C704.784 230.836 704.643 230.775 704.54 230.669C704.437 230.563 704.379 230.421 704.379 230.274C704.379 230.126 704.437 229.984 704.54 229.878C704.643 229.773 704.784 229.712 704.932 229.709H847.044C847.192 229.712 847.332 229.773 847.436 229.878C847.539 229.984 847.597 230.126 847.597 230.274C847.597 230.421 847.539 230.563 847.436 230.669C847.332 230.775 847.192 230.836 847.044 230.839Z" fill="#CACACA"/>
<path d="M714.605 226.823C716.434 226.823 717.917 225.307 717.917 223.437C717.917 221.567 716.434 220.051 714.605 220.051C712.776 220.051 711.293 221.567 711.293 223.437C711.293 225.307 712.776 226.823 714.605 226.823Z" fill="#CCCCCC"/>
<path d="M726.046 226.823C727.876 226.823 729.358 225.307 729.358 223.437C729.358 221.567 727.876 220.051 726.046 220.051C724.217 220.051 722.734 221.567 722.734 223.437C722.734 225.307 724.217 226.823 726.046 226.823Z" fill="#CCCCCC"/>
<path d="M737.488 226.823C739.317 226.823 740.8 225.307 740.8 223.437C740.8 221.567 739.317 220.051 737.488 220.051C735.659 220.051 734.176 221.567 734.176 223.437C734.176 225.307 735.659 226.823 737.488 226.823Z" fill="#CCCCCC"/>
<path d="M840.155 220.891H832.027C831.866 220.894 831.713 220.96 831.6 221.075C831.487 221.19 831.424 221.345 831.424 221.506C831.424 221.667 831.487 221.822 831.6 221.937C831.713 222.052 831.866 222.118 832.027 222.121H840.155C840.316 222.118 840.469 222.052 840.582 221.937C840.695 221.822 840.758 221.667 840.758 221.506C840.758 221.345 840.695 221.19 840.582 221.075C840.469 220.96 840.316 220.894 840.155 220.891Z" fill="#CCCCCC"/>
<path d="M840.155 223.201H832.028C831.867 223.204 831.713 223.27 831.601 223.385C831.488 223.5 831.425 223.655 831.425 223.816C831.425 223.977 831.488 224.132 831.601 224.247C831.713 224.362 831.867 224.428 832.028 224.431H840.155C840.316 224.428 840.47 224.362 840.583 224.247C840.695 224.132 840.758 223.977 840.758 223.816C840.758 223.655 840.695 223.5 840.583 223.385C840.47 223.27 840.316 223.204 840.155 223.201Z" fill="#CCCCCC"/>
<path d="M840.155 225.508H832.027C831.866 225.511 831.713 225.577 831.6 225.692C831.487 225.807 831.424 225.962 831.424 226.123C831.424 226.284 831.487 226.439 831.6 226.554C831.713 226.669 831.866 226.735 832.027 226.738H840.155C840.316 226.735 840.469 226.669 840.582 226.554C840.695 226.439 840.758 226.284 840.758 226.123C840.758 225.962 840.695 225.807 840.582 225.692C840.469 225.577 840.316 225.511 840.155 225.508Z" fill="#CCCCCC"/>
<path d="M787.462 261.629H769.704C768.37 261.629 767.289 262.71 767.289 264.044C767.289 265.378 768.37 266.459 769.704 266.459H787.462C788.796 266.459 789.877 265.378 789.877 264.044C789.877 262.71 788.796 261.629 787.462 261.629Z" fill="#1165BA"/>
<path d="M798.933 271.289H758.232C756.899 271.289 755.817 272.37 755.817 273.704C755.817 275.038 756.899 276.119 758.232 276.119H798.933C800.267 276.119 801.348 275.038 801.348 273.704C801.348 272.37 800.267 271.289 798.933 271.289Z" fill="#E6E6E6"/>
<path d="M798.933 280.949H758.232C756.899 280.949 755.817 282.03 755.817 283.364C755.817 284.698 756.899 285.779 758.232 285.779H798.933C800.267 285.779 801.348 284.698 801.348 283.364C801.348 282.03 800.267 280.949 798.933 280.949Z" fill="#E6E6E6"/>
<path d="M524.726 431.447L516.54 427.531L527.785 393.314L539.867 399.092L524.726 431.447Z" fill="#FFB6B6"/>
<path d="M579.608 425.93C579.013 426.303 578.417 426.67 577.816 427.037C576.62 427.77 575.411 428.492 574.202 429.201C573.595 429.556 572.982 429.911 572.374 430.26V430.278L572.338 430.284L572.326 430.29L571.4 430.518L570.071 427.007L569.458 425.389L568.592 423.098L567.005 418.907L558.646 396.839L571.641 393.634L572.128 395.624H572.134L572.374 396.61L576.914 415.023L577.84 418.787L577.87 418.901L578.43 421.15L578.911 423.098L579.446 425.275L579.608 425.93Z" fill="#FFB6B6"/>
<path d="M657.124 348.432C656.3 349.755 655.458 351.072 654.61 352.377C653.035 354.806 651.417 357.199 649.758 359.557C649.758 359.563 649.752 359.563 649.746 359.569C648.778 360.466 647.708 361.246 646.559 361.896C646.511 361.932 646.457 361.956 646.409 361.986C645.562 362.454 644.662 362.815 643.727 363.062C643.39 363.146 643.047 363.231 642.711 363.315C641.496 363.603 640.293 363.85 639.097 364.066C636.968 364.445 634.863 364.716 632.771 364.884C632.603 364.902 632.434 364.914 632.266 364.926C623.661 365.558 615.285 364.541 606.542 362.876C602.224 362.058 597.817 361.078 593.253 360.062C591.762 359.725 590.264 359.394 588.749 359.063C588.635 359.039 588.515 359.009 588.394 358.985C586.23 358.51 584.029 358.041 581.774 357.578C578.936 356.995 576.007 356.43 572.965 355.895L573.181 360.182C573.361 363.48 574.047 366.731 575.214 369.821C576.512 373.621 577.541 376.628 575.37 382.887L574.324 385.918C574.866 387.423 575.052 389.033 574.868 390.622C574.683 392.211 574.132 393.736 573.259 395.076L573.049 395.395L581.774 417.469L582.339 418.9H577.871L572.375 418.906H563.061L549.622 391.943L548.979 390.656V390.59L550.368 338.775C550.386 338.318 550.422 337.855 550.482 337.398C550.727 335.321 551.383 333.313 552.412 331.492C553.442 329.671 554.823 328.073 556.477 326.791C558.061 325.553 559.876 324.642 561.816 324.111C563.755 323.581 565.781 323.441 567.775 323.701L572.375 324.296L581.774 325.51L588.394 326.37L588.527 326.388L608.051 328.914L609.452 323.201L609.711 323.105L617.931 320.093L646.36 309.672L646.433 309.648L648.303 308.962L648.525 309.323C648.591 309.432 648.657 309.54 648.718 309.648C650.566 312.962 652.071 316.455 653.209 320.075C655.124 325.987 656.7 332.004 657.93 338.096C657.984 338.36 658.032 338.601 658.074 338.817L658.092 338.884C658.11 338.986 658.122 339.052 658.128 339.07C658.692 342.223 658.343 345.471 657.124 348.432Z" fill="#2F2E41"/>
<path d="M658.324 329.337C658.234 328.952 658.12 328.561 658 328.183C657.045 325.313 655.933 322.499 654.668 319.752C653.249 316.625 651.548 313.276 649.521 309.65C648.541 307.894 647.487 306.068 646.358 304.172C645.793 303.222 645.206 302.254 644.597 301.268C644.573 301.223 644.547 301.178 644.518 301.136L644.344 300.847L616.215 304.611L605.74 306.012L605.115 311.232L604.964 312.525C604.958 312.525 604.958 312.525 604.964 312.531L604.543 316.054V316.06L603.984 320.714L603.936 320.708L588.392 318.694L572.373 316.619L563.769 315.507C561.775 315.247 559.749 315.387 557.809 315.917C555.869 316.448 554.054 317.359 552.47 318.598C550.817 319.88 549.435 321.478 548.406 323.299C547.377 325.12 546.72 327.127 546.475 329.205C546.421 329.626 546.385 330.059 546.367 330.486L538.249 349.722C533.392 361.226 530.298 373.397 529.073 385.824L523.12 404.856L523.968 404.934L536.583 406.106L539.915 406.419L547.251 395.71C548.087 394.489 548.88 393.232 549.62 391.945C550.838 389.844 551.92 387.667 552.861 385.427L568.729 347.665C569.956 347.876 571.171 348.076 572.373 348.266C577.935 349.168 583.275 349.904 588.392 350.473C605.03 352.331 619.438 352.476 632.264 350.9C635.866 350.461 639.347 349.884 642.708 349.168C643.941 348.91 645.158 348.631 646.358 348.333C646.641 348.266 646.918 348.2 647.194 348.128C649.679 347.487 651.964 346.233 653.839 344.481C655.714 342.729 657.12 340.534 657.928 338.098C658.892 335.275 659.029 332.236 658.324 329.337Z" fill="#2F2E41"/>
<path d="M527.341 425.859L518.484 421.614L517.095 420.946L514.876 426.394L499.387 429.804C498.621 429.972 497.928 430.38 497.411 430.969C496.894 431.559 496.579 432.298 496.512 433.079C496.444 433.86 496.629 434.642 497.038 435.311C497.447 435.98 498.059 436.501 498.785 436.797L513.92 442.972L518.725 438.649L517.546 444.452L523.246 446.779L529.494 426.893L527.341 425.859Z" fill="#2F2E41"/>
<path d="M581.774 417.469L582.34 418.9H581.774V417.469Z" fill="#2F2E41"/>
<path d="M578.689 419.206L569.409 422.421L567.952 422.924L570.209 428.357L561.601 441.678C561.175 442.336 560.97 443.113 561.017 443.896C561.064 444.679 561.361 445.426 561.863 446.028C562.364 446.631 563.046 447.057 563.807 447.244C564.569 447.432 565.37 447.371 566.094 447.07L581.194 440.809L581.566 434.357L584.811 439.309L590.499 436.952L580.947 418.426L578.689 419.206Z" fill="#2F2E41"/>
<path d="M522.36 220.249C522.8 221.106 523.423 221.857 524.185 222.447C524.946 223.038 525.828 223.455 526.767 223.668C527.707 223.881 528.682 223.885 529.624 223.68C530.566 223.476 531.451 223.067 532.218 222.484L551.733 235.439L551.771 223.266L533.233 212.83C532.166 211.607 530.689 210.817 529.08 210.611C527.47 210.405 525.841 210.796 524.501 211.71C523.161 212.625 522.203 213.999 521.808 215.573C521.414 217.147 521.61 218.81 522.36 220.249Z" fill="#FFB6B6"/>
<path d="M536.939 225.875L546.045 215.517L583.119 237.526L632.265 233.025C634.694 232.803 637.142 233.118 639.436 233.948C641.73 234.779 643.813 236.104 645.537 237.829C647.261 239.555 648.584 241.639 649.412 243.934C650.24 246.229 650.553 248.677 650.328 251.106C649.917 255.493 647.783 259.538 644.393 262.353C641.004 265.168 636.636 266.524 632.248 266.122L576.898 260.999L536.939 225.875Z" fill="#CCCCCC"/>
<path d="M651.006 226.035L650.92 225.928C644.007 225.246 637.044 226.584 630.875 229.78C624.707 232.976 619.598 237.893 616.168 243.934L611.997 251.281C598.506 267.775 608.31 279.149 608.897 280.84L604.214 302.432L605.263 309.658L605.788 311.804L659.242 339.735C662.285 325.113 659.342 312.652 648.255 303.134L658.982 269.756C661.361 262.375 661.877 254.522 660.486 246.893C659.094 239.265 655.837 232.1 651.006 226.035Z" fill="#CCCCCC"/>
<path d="M608.503 388.192H591.357C590.414 388.191 589.503 387.85 588.791 387.232C588.079 386.613 587.614 385.759 587.482 384.825C586.423 377.034 586.423 369.136 587.482 361.345C587.612 360.423 588.068 359.577 588.766 358.96C589.464 358.343 590.36 357.995 591.291 357.979C596.686 355.561 602.495 355.561 608.562 357.978C609.127 357.986 609.683 358.117 610.192 358.362C610.701 358.608 611.15 358.962 611.508 359.399C611.881 359.854 612.148 360.387 612.289 360.958C612.431 361.529 612.443 362.124 612.325 362.701C610.948 369.555 610.948 376.615 612.325 383.469C612.443 384.046 612.431 384.641 612.289 385.212C612.148 385.783 611.881 386.316 611.508 386.771C611.144 387.216 610.686 387.575 610.166 387.82C609.646 388.066 609.078 388.193 608.503 388.192Z" fill="#1165BA"/>
<path d="M606.708 366.93H592.276C592.157 366.931 592.039 366.909 591.929 366.864C591.818 366.819 591.718 366.753 591.633 366.669C591.549 366.585 591.481 366.485 591.436 366.375C591.39 366.265 591.366 366.147 591.366 366.028C591.366 365.909 591.39 365.791 591.436 365.681C591.481 365.571 591.549 365.472 591.633 365.388C591.718 365.304 591.818 365.238 591.929 365.193C592.039 365.148 592.157 365.125 592.276 365.126H606.708C606.827 365.125 606.945 365.148 607.055 365.193C607.166 365.238 607.266 365.304 607.35 365.388C607.435 365.472 607.502 365.571 607.548 365.681C607.594 365.791 607.617 365.909 607.617 366.028C607.617 366.147 607.594 366.265 607.548 366.375C607.502 366.485 607.435 366.585 607.35 366.669C607.266 366.753 607.166 366.819 607.055 366.864C606.945 366.909 606.827 366.931 606.708 366.93Z" fill="white"/>
<path d="M606.708 374.146H592.276C592.157 374.147 592.039 374.124 591.929 374.08C591.818 374.035 591.718 373.968 591.633 373.885C591.549 373.801 591.481 373.701 591.436 373.591C591.39 373.481 591.366 373.363 591.366 373.244C591.366 373.125 591.39 373.007 591.436 372.897C591.481 372.787 591.549 372.687 591.633 372.603C591.718 372.52 591.818 372.453 591.929 372.408C592.039 372.364 592.157 372.341 592.276 372.342H606.708C606.827 372.341 606.945 372.364 607.055 372.408C607.166 372.453 607.266 372.52 607.35 372.603C607.435 372.687 607.502 372.787 607.548 372.897C607.594 373.007 607.617 373.125 607.617 373.244C607.617 373.363 607.594 373.481 607.548 373.591C607.502 373.701 607.435 373.801 607.35 373.885C607.266 373.968 607.166 374.035 607.055 374.08C606.945 374.124 606.827 374.147 606.708 374.146Z" fill="white"/>
<path d="M606.708 381.362H592.277C592.158 381.363 592.039 381.34 591.929 381.295C591.818 381.251 591.718 381.184 591.633 381.101C591.549 381.017 591.482 380.917 591.436 380.807C591.39 380.697 591.366 380.579 591.366 380.46C591.366 380.341 591.39 380.223 591.436 380.113C591.482 380.003 591.549 379.903 591.633 379.819C591.718 379.735 591.818 379.669 591.929 379.624C592.039 379.579 592.158 379.557 592.277 379.558H606.708C606.827 379.557 606.945 379.579 607.056 379.624C607.166 379.669 607.267 379.735 607.351 379.819C607.436 379.903 607.503 380.003 607.549 380.113C607.595 380.223 607.619 380.341 607.619 380.46C607.619 380.579 607.595 380.697 607.549 380.807C607.503 380.917 607.436 381.017 607.351 381.101C607.267 381.184 607.166 381.251 607.056 381.295C606.945 381.34 606.827 381.363 606.708 381.362Z" fill="white"/>
<path d="M525.503 226.192H508.357C507.414 226.191 506.503 225.85 505.791 225.232C505.079 224.613 504.614 223.759 504.482 222.825C503.423 215.034 503.423 207.136 504.482 199.345C504.612 198.423 505.068 197.577 505.766 196.96C506.464 196.343 507.36 195.995 508.291 195.979C513.686 193.561 519.495 193.561 525.562 195.978C526.127 195.986 526.683 196.117 527.192 196.362C527.701 196.608 528.15 196.962 528.508 197.399C528.881 197.854 529.148 198.387 529.289 198.958C529.431 199.529 529.443 200.124 529.325 200.701C527.948 207.555 527.948 214.615 529.325 221.469C529.443 222.046 529.431 222.641 529.289 223.212C529.148 223.783 528.881 224.316 528.508 224.771C528.144 225.216 527.686 225.575 527.166 225.82C526.646 226.066 526.078 226.193 525.503 226.192Z" fill="#1165BA"/>
<path d="M523.708 204.93H509.276C509.157 204.931 509.039 204.909 508.929 204.864C508.818 204.819 508.718 204.753 508.633 204.669C508.549 204.585 508.481 204.485 508.436 204.375C508.39 204.265 508.366 204.147 508.366 204.028C508.366 203.909 508.39 203.791 508.436 203.681C508.481 203.571 508.549 203.472 508.633 203.388C508.718 203.304 508.818 203.238 508.929 203.193C509.039 203.148 509.157 203.125 509.276 203.126H523.708C523.827 203.125 523.945 203.148 524.055 203.193C524.166 203.238 524.266 203.304 524.35 203.388C524.435 203.472 524.502 203.571 524.548 203.681C524.594 203.791 524.617 203.909 524.617 204.028C524.617 204.147 524.594 204.265 524.548 204.375C524.502 204.485 524.435 204.585 524.35 204.669C524.266 204.753 524.166 204.819 524.055 204.864C523.945 204.909 523.827 204.931 523.708 204.93Z" fill="white"/>
<path d="M523.708 212.146H509.276C509.157 212.147 509.039 212.124 508.929 212.08C508.818 212.035 508.718 211.968 508.633 211.885C508.549 211.801 508.481 211.701 508.436 211.591C508.39 211.481 508.366 211.363 508.366 211.244C508.366 211.125 508.39 211.007 508.436 210.897C508.481 210.787 508.549 210.687 508.633 210.603C508.718 210.52 508.818 210.453 508.929 210.408C509.039 210.364 509.157 210.341 509.276 210.342H523.708C523.827 210.341 523.945 210.364 524.055 210.408C524.166 210.453 524.266 210.52 524.35 210.603C524.435 210.687 524.502 210.787 524.548 210.897C524.594 211.007 524.617 211.125 524.617 211.244C524.617 211.363 524.594 211.481 524.548 211.591C524.502 211.701 524.435 211.801 524.35 211.885C524.266 211.968 524.166 212.035 524.055 212.08C523.945 212.124 523.827 212.147 523.708 212.146Z" fill="white"/>
<path d="M523.708 219.362H509.277C509.158 219.363 509.039 219.34 508.929 219.295C508.818 219.251 508.718 219.184 508.633 219.101C508.549 219.017 508.482 218.917 508.436 218.807C508.39 218.697 508.366 218.579 508.366 218.46C508.366 218.341 508.39 218.223 508.436 218.113C508.482 218.003 508.549 217.903 508.633 217.819C508.718 217.735 508.818 217.669 508.929 217.624C509.039 217.579 509.158 217.557 509.277 217.558H523.708C523.827 217.557 523.945 217.579 524.056 217.624C524.166 217.669 524.267 217.735 524.351 217.819C524.436 217.903 524.503 218.003 524.549 218.113C524.595 218.223 524.619 218.341 524.619 218.46C524.619 218.579 524.595 218.697 524.549 218.807C524.503 218.917 524.436 219.017 524.351 219.101C524.267 219.184 524.166 219.251 524.056 219.295C523.945 219.34 523.827 219.363 523.708 219.362Z" fill="white"/>
<path d="M224.504 270.192H207.358C206.415 270.191 205.504 269.85 204.792 269.232C204.08 268.613 203.615 267.759 203.483 266.825C202.424 259.034 202.424 251.136 203.483 243.345C203.613 242.423 204.069 241.577 204.767 240.96C205.465 240.343 206.36 239.995 207.292 239.979C212.687 237.561 218.496 237.561 224.563 239.978C225.128 239.986 225.684 240.117 226.193 240.362C226.702 240.608 227.151 240.962 227.509 241.399C227.882 241.854 228.149 242.387 228.29 242.958C228.432 243.529 228.444 244.124 228.326 244.701C226.949 251.555 226.949 258.615 228.326 265.469C228.444 266.046 228.432 266.641 228.29 267.212C228.149 267.783 227.882 268.316 227.509 268.771C227.145 269.216 226.687 269.575 226.167 269.82C225.647 270.066 225.079 270.193 224.504 270.192Z" fill="#1165BA"/>
<path d="M222.708 248.93H208.276C208.157 248.931 208.039 248.909 207.929 248.864C207.818 248.819 207.718 248.753 207.633 248.669C207.549 248.585 207.481 248.485 207.436 248.375C207.39 248.265 207.366 248.147 207.366 248.028C207.366 247.909 207.39 247.791 207.436 247.681C207.481 247.571 207.549 247.472 207.633 247.388C207.718 247.304 207.818 247.238 207.929 247.193C208.039 247.148 208.157 247.125 208.276 247.126H222.708C222.827 247.125 222.945 247.148 223.055 247.193C223.166 247.238 223.266 247.304 223.35 247.388C223.435 247.472 223.502 247.571 223.548 247.681C223.594 247.791 223.617 247.909 223.617 248.028C223.617 248.147 223.594 248.265 223.548 248.375C223.502 248.485 223.435 248.585 223.35 248.669C223.266 248.753 223.166 248.819 223.055 248.864C222.945 248.909 222.827 248.931 222.708 248.93Z" fill="white"/>
<path d="M222.708 256.146H208.276C208.157 256.147 208.039 256.124 207.929 256.08C207.818 256.035 207.718 255.968 207.633 255.885C207.549 255.801 207.481 255.701 207.436 255.591C207.39 255.481 207.366 255.363 207.366 255.244C207.366 255.125 207.39 255.007 207.436 254.897C207.481 254.787 207.549 254.687 207.633 254.603C207.718 254.52 207.818 254.453 207.929 254.408C208.039 254.364 208.157 254.341 208.276 254.342H222.708C222.827 254.341 222.945 254.364 223.055 254.408C223.166 254.453 223.266 254.52 223.35 254.603C223.435 254.687 223.502 254.787 223.548 254.897C223.594 255.007 223.617 255.125 223.617 255.244C223.617 255.363 223.594 255.481 223.548 255.591C223.502 255.701 223.435 255.801 223.35 255.885C223.266 255.968 223.166 256.035 223.055 256.08C222.945 256.124 222.827 256.147 222.708 256.146Z" fill="white"/>
<path d="M222.708 263.362H208.277C208.158 263.363 208.039 263.34 207.929 263.295C207.819 263.251 207.718 263.184 207.633 263.101C207.549 263.017 207.482 262.917 207.436 262.807C207.39 262.697 207.366 262.579 207.366 262.46C207.366 262.341 207.39 262.223 207.436 262.113C207.482 262.003 207.549 261.903 207.633 261.819C207.718 261.735 207.819 261.669 207.929 261.624C208.039 261.579 208.158 261.557 208.277 261.558H222.708C222.827 261.557 222.945 261.579 223.056 261.624C223.166 261.669 223.267 261.735 223.351 261.819C223.436 261.903 223.503 262.003 223.549 262.113C223.595 262.223 223.619 262.341 223.619 262.46C223.619 262.579 223.595 262.697 223.549 262.807C223.503 262.917 223.436 263.017 223.351 263.101C223.267 263.184 223.166 263.251 223.056 263.295C222.945 263.34 222.827 263.363 222.708 263.362Z" fill="white"/>
<path d="M613.527 366.274C614.357 365.784 615.069 365.118 615.613 364.323C616.158 363.527 616.521 362.623 616.678 361.672C616.835 360.721 616.782 359.747 616.522 358.82C616.261 357.892 615.801 357.032 615.173 356.301L626.948 336.052L614.794 336.737L605.476 355.861C604.318 356.998 603.618 358.52 603.508 360.138C603.397 361.757 603.884 363.36 604.877 364.643C605.869 365.927 607.298 366.802 608.892 367.102C610.486 367.403 612.136 367.108 613.527 366.274Z" fill="#FFB6B6"/>
<path d="M618.279 351.386L607.398 342.911L627.17 304.597L619.761 255.805C619.395 253.393 619.564 250.93 620.257 248.591C620.95 246.252 622.149 244.094 623.769 242.271C625.39 240.447 627.392 239.003 629.633 238.04C631.875 237.078 634.301 236.62 636.739 236.7C641.142 236.85 645.306 238.741 648.318 241.957C651.329 245.174 652.941 249.454 652.801 253.857L650.971 309.414L618.279 351.386Z" fill="#CCCCCC"/>
<path d="M92.3852 340.918C93.0705 340.229 93.5965 339.398 93.926 338.484C94.2556 337.57 94.3807 336.595 94.2926 335.628C94.2044 334.66 93.9052 333.723 93.416 332.884C92.9268 332.044 92.2594 331.322 91.461 330.769L102.043 278.208L90.3571 281.96L81.8867 332.799C81.0456 334.202 80.7482 335.865 81.0511 337.473C81.354 339.08 82.236 340.521 83.5301 341.522C84.8241 342.522 86.4403 343.014 88.0723 342.902C89.7044 342.791 91.239 342.085 92.3852 340.918Z" fill="#9E616A"/>
<path d="M108.011 229.714L100.76 224.241C100.76 224.241 94.3641 223.788 93.2313 235.323C92.0985 246.857 89.7725 269.336 89.7725 269.336L78.6777 320.723L94.0359 324.094L105.919 268.639L113.048 252.171L108.011 229.714Z" fill="#CCCCCC"/>
<path d="M96.0566 313.623L136.914 312.942L140.319 285.023H96.0566V313.623Z" fill="#9E616A"/>
<path d="M132.828 485.427H142.26L146.747 449.046L132.826 449.047L132.828 485.427Z" fill="#9E616A"/>
<path d="M73.7383 486.301L83.1703 486.234L87.4023 449.823L75.1353 452.637L73.7383 486.301Z" fill="#9E616A"/>
<path d="M103.238 260.98L101.101 266.536L101.528 272.093L143.355 286.58L141.28 262.262L136.578 256.705L103.238 260.98Z" fill="#FFB6B6"/>
<path d="M121.182 210.975C129.433 210.975 136.121 204.287 136.121 196.036C136.121 187.786 129.433 181.098 121.182 181.098C112.932 181.098 106.243 187.786 106.243 196.036C106.243 204.287 112.932 210.975 121.182 210.975Z" fill="#9E616A"/>
<path d="M130.488 480.774L145.399 479.884V486.273L159.574 496.063C160.274 496.546 160.802 497.241 161.079 498.045C161.357 498.849 161.37 499.721 161.116 500.534C160.863 501.346 160.357 502.056 159.672 502.56C158.986 503.065 158.158 503.337 157.307 503.337H139.556L136.496 497.018L135.301 503.337H128.608L130.488 480.774Z" fill="#2F2E41"/>
<path d="M70.5111 481.67L85.4147 480.676L85.4594 487.064L99.7031 496.754C100.407 497.233 100.939 497.924 101.222 498.726C101.505 499.529 101.524 500.401 101.277 501.215C101.029 502.029 100.528 502.742 99.846 503.251C99.1642 503.76 98.3375 504.038 97.4866 504.044L79.736 504.168L76.6322 497.871L75.4818 504.198L68.7891 504.245L70.5111 481.67Z" fill="#2F2E41"/>
<path d="M70.8034 458.407L77.6715 403.509L85.8429 345.628C79.8588 334.515 93.3334 300.004 93.3334 300.004L95.2354 300.096L138.285 308.217L138.276 308.176C147.081 332.192 149.998 344.056 149.516 369.63L147.781 461.565H148.325C149.228 461.565 150.094 461.924 150.733 462.563C151.371 463.201 151.73 464.067 151.73 464.97C151.73 465.873 151.371 466.739 150.733 467.378C150.094 468.016 149.228 468.375 148.325 468.375H131.302C130.854 468.376 130.411 468.288 129.997 468.117C129.583 467.947 129.207 467.696 128.89 467.38C128.574 467.064 128.322 466.688 128.151 466.275C127.979 465.861 127.891 465.418 127.891 464.97C127.891 464.523 127.979 464.079 128.151 463.666C128.322 463.252 128.574 462.877 128.89 462.561C129.207 462.244 129.583 461.994 129.997 461.823C130.411 461.652 130.854 461.565 131.302 461.565H131.741L116.115 352.098L102.867 398.061L87.8858 457.985C93.3334 456.623 92.4875 459.778 92.4875 461.565C92.4875 462.468 92.1288 463.335 91.4903 463.973C90.8518 464.612 89.9857 464.97 89.0828 464.97H72.059C71.2673 464.971 70.5 464.696 69.8895 464.191C69.2791 463.687 68.8636 462.986 68.7149 462.208C68.5661 461.43 68.6933 460.625 69.0746 459.931C69.4559 459.237 70.0672 458.698 70.8034 458.407Z" fill="#2F2E41"/>
<path d="M89.9806 301.792L91.3425 288.173C91.484 287.617 91.7977 287.121 92.2387 286.754C92.6797 286.388 93.2253 286.171 93.7974 286.134C94.3649 279.646 96.7523 251.658 96.895 250.437L96.9005 250.386L97.9862 227.194C98.0256 226.352 98.3739 225.554 98.9646 224.952C99.5553 224.35 100.347 223.987 101.188 223.932L106.922 223.557C107.001 223.555 107.076 223.522 107.13 223.465C107.185 223.408 107.216 223.333 107.216 223.254C107.216 222.621 107.34 221.994 107.583 221.409C107.825 220.824 108.18 220.292 108.628 219.844C109.076 219.397 109.607 219.041 110.192 218.799C110.777 218.557 111.405 218.432 112.038 218.432H129.015C130.114 218.432 131.176 218.834 132 219.562C132.825 220.289 133.355 221.293 133.492 222.384C133.5 222.459 133.535 222.529 133.592 222.579C133.649 222.629 133.722 222.656 133.797 222.654H133.799C135.728 222.614 137.608 223.267 139.096 224.495C140.585 225.722 141.585 227.442 141.913 229.344C144.234 242.848 148.886 273.496 146.586 290.535C145.785 296.467 147.511 291.769 147.814 296.732C147.844 297.212 147.779 297.692 147.623 298.147C147.467 298.601 147.223 299.021 146.904 299.381C147.556 299.617 148.088 300.102 148.385 300.729C148.682 301.355 148.719 302.074 148.49 302.728L148.788 302.654C148.701 303.001 148.546 303.327 148.332 303.614C148.119 303.901 147.851 304.143 147.544 304.327C147.237 304.51 146.896 304.631 146.542 304.683C146.189 304.735 145.828 304.717 145.481 304.63L101.065 310.648C99.6066 310.28 89.6129 303.251 89.9806 301.792Z" fill="#CCCCCC"/>
<path d="M208.665 246.42C208.387 247.351 207.908 248.21 207.262 248.935C206.616 249.661 205.819 250.236 204.926 250.621C204.034 251.005 203.068 251.189 202.097 251.16C201.126 251.131 200.173 250.889 199.305 250.451L182.134 266.122L179.854 254.062L196.521 241.069C197.352 239.66 198.671 238.605 200.229 238.104C201.786 237.603 203.473 237.691 204.97 238.35C206.467 239.01 207.67 240.196 208.351 241.683C209.032 243.17 209.144 244.856 208.665 246.42Z" fill="#9E616A"/>
<path d="M148.901 234.442C148.901 234.442 142.914 220.911 135.352 223.601C127.79 226.29 131.694 239.419 131.694 239.419L160.105 282.23C160.105 282.23 201.084 255.943 196.101 255.757C191.118 255.571 189.628 246.508 189.628 246.508L167.969 257.33L167.237 253.477L166.062 254.652L163.031 252.266L148.901 234.442Z" fill="#CCCCCC"/>
<path d="M638.683 219.578C650.202 219.578 659.54 210.24 659.54 198.721C659.54 187.202 650.202 177.864 638.683 177.864C627.164 177.864 617.826 187.202 617.826 198.721C617.826 210.24 627.164 219.578 638.683 219.578Z" fill="#FFB6B6"/>
<path d="M705.62 229.412C703.213 232.823 699.7 235.296 695.677 236.412C694.067 236.891 692.405 237.173 690.728 237.253C690.52 235.355 690.024 233.501 689.256 231.754C689.334 233.613 689.076 235.472 688.493 237.24C685.973 237.097 683.51 236.437 681.257 235.301C679.043 234.187 677.12 232.573 675.639 230.587C674.158 228.601 673.161 226.296 672.725 223.857C671.842 218.152 674.428 212.551 675.363 206.854C676.303 201.158 674.54 193.944 668.964 192.447C664.717 191.306 665.193 191.799 661.663 194.42C665.335 199.849 651.772 219.746 646.222 218.011C643.084 217.03 641.075 214.15 640.427 214.15C636.065 221.665 644.279 234.327 636.001 236.957L636.683 236.275C641.68 230.128 631.235 217.119 636.232 210.972C637.626 209.252 639.11 207.215 638.699 205.04C638.308 202.973 635.027 201.879 634.066 203.577C635.795 199.618 633.243 194.334 629.018 193.317C625.265 192.412 625.333 193.528 621.567 194.012C621.321 192.385 620.861 190.797 620.199 189.29C620.268 190.914 620.078 192.538 619.637 194.102C618.307 194.076 617.022 193.612 615.983 192.781C612.911 190.306 613.533 185.108 616.274 182.272C619.019 179.437 623.098 178.416 626.989 177.756C628.12 169.88 649.849 169.059 652.729 176.928C653.956 171.052 661.312 168.002 667.029 169.825C672.747 171.648 676.715 176.988 678.803 182.616C680.892 188.239 681.476 194.291 682.762 200.15C684.049 206.009 686.224 211.976 690.702 215.969C695.18 219.958 702.476 221.279 707.194 217.573C707.88 219.532 708.095 221.624 707.821 223.681C707.548 225.737 706.794 227.701 705.62 229.412Z" fill="#2F2E41"/>
<path d="M901.295 277.007L898.375 291.657C898.155 292.777 897.925 293.917 897.675 295.047C895.234 294.542 892.704 294.683 890.335 295.457C892.214 298.143 893.899 300.96 895.375 303.887C893.535 309.557 890.835 314.797 886.315 318.587C883.296 321.062 879.69 322.718 875.846 323.394C872.001 324.07 868.047 323.744 864.365 322.447L864.495 321.867C859.635 312.437 862.275 300.547 868.315 291.837C871.395 287.54 875.046 283.682 879.165 280.367C883.245 276.967 887.655 273.917 892.025 270.907C893.006 270.233 894.167 269.865 895.358 269.853C896.549 269.841 897.717 270.184 898.712 270.839C899.707 271.494 900.484 272.431 900.944 273.529C901.404 274.628 901.526 275.839 901.295 277.007Z" fill="#E4E4E4"/>
<path d="M865.405 357.697C864.176 348.744 862.912 339.677 863.774 330.628C864.54 322.592 866.991 314.743 871.983 308.307C874.632 304.898 877.856 301.976 881.51 299.674C882.463 299.074 883.339 300.583 882.391 301.181C876.07 305.176 871.18 311.075 868.428 318.028C865.388 325.76 864.9 334.189 865.428 342.402C865.745 347.369 866.416 352.302 867.093 357.232C867.147 357.455 867.115 357.691 867.001 357.89C866.888 358.09 866.702 358.239 866.483 358.306C866.26 358.367 866.022 358.336 865.82 358.222C865.619 358.108 865.471 357.919 865.409 357.696L865.405 357.697Z" fill="#F2F2F2"/>
<path d="M934.941 504.989L1.19115 505.296C0.875955 505.295 0.573992 505.169 0.35144 504.946C0.128889 504.723 0.00390625 504.42 0.00390625 504.105C0.00390625 503.79 0.128889 503.488 0.35144 503.264C0.573992 503.041 0.875955 502.915 1.19115 502.914L934.941 502.607C935.256 502.608 935.558 502.734 935.781 502.957C936.003 503.18 936.128 503.483 936.128 503.798C936.128 504.113 936.003 504.415 935.781 504.639C935.558 504.862 935.256 504.988 934.941 504.989Z" fill="#CACACA"/>
<path d="M103.599 186.889C101.308 187.989 98.7435 186.335 96.7655 184.696L97.473 185.307C93.977 188.708 92.3425 193.602 91.5439 198.419C90.7444 203.231 90.6553 208.152 89.6487 212.93C88.6413 217.703 86.5517 222.499 82.6485 225.422C77.4195 229.338 70.2076 229.086 63.7906 227.886C63.7051 227.869 63.6255 227.856 63.54 227.838C65.2666 222.853 65.9684 217.57 65.6035 212.307C63.8834 217.581 60.9552 222.381 57.0522 226.323C52.7976 225.153 48.6448 223.64 44.6344 221.799C42.0396 220.604 39.2455 218.971 38.5253 216.206C37.8033 213.462 39.4799 210.583 41.7218 208.85C43.9636 207.117 46.7151 206.213 49.2691 204.979C51.8189 203.75 54.3421 201.998 55.363 199.353C57.7178 193.269 51.0098 186.288 53.624 180.307C54.9132 177.366 58.0708 175.767 61.0387 174.533C65.5694 172.656 70.2219 171.086 74.9644 169.836C79.1275 168.738 83.4745 167.885 87.7156 168.605C91.9566 169.324 96.1116 171.904 97.638 175.932C100.185 176.792 102.889 177.763 104.523 179.906C106.157 182.045 106.025 185.727 103.599 186.889Z" fill="#2F2E41"/>
<path d="M123.986 179.839C117.431 174.665 112.132 175.548 108.044 178.763C107.356 177.998 104.432 180.102 103.441 179.8L99.8594 186.524C98.0162 189.776 97.26 193.097 97.5579 194.965C94.1675 204.473 102.207 210.893 111.715 214.284C115.509 215.646 119.649 215.706 123.481 214.454L123.597 212.834L124.317 214.162C124.317 214.162 133.009 232.059 135.063 232.863C133.817 229.63 130.53 214.264 129.613 211.061C128.354 206.704 129.214 199.78 129.953 195.535C130.414 192.918 130.438 190.243 130.025 187.618L130.006 187.503L132.04 191.609L136.603 188.74C134.859 183.66 134.824 177.584 123.986 179.839Z" fill="#2F2E41"/>
</g>
<defs>
<clipPath id="clip0_566_1693">
<rect width="936.131" height="505.296" fill="white"/>
</clipPath>
</defs>
</svg>
