<svg width="201" height="144" viewBox="0 0 201 144" fill="none" xmlns="http://www.w3.org/2000/svg">
<mask id="mask0_4025_3129" style="mask-type:alpha" maskUnits="userSpaceOnUse" x="5" y="4" width="191" height="135">
<path fill-rule="evenodd" clip-rule="evenodd" d="M13.2191 84.4277C6.06543 77.5992 6.06543 66.1792 13.2191 59.3507C19.9173 52.957 30.458 52.957 37.1562 59.3507L62.9674 83.9886C69.9231 90.6281 80.8689 90.6281 87.8246 83.9886L163.844 11.4245C170.542 5.03081 181.083 5.03082 187.781 11.4246C194.935 18.253 194.935 29.6731 187.781 36.5016L87.8245 131.915C80.8689 138.554 69.9231 138.554 62.9674 131.915L13.2191 84.4277Z" fill="white" stroke="white" stroke-width="4" stroke-linecap="round" stroke-linejoin="round"/>
</mask>
<g mask="url(#mask0_4025_3129)">
<path d="M-20 -25.1328C-20 -35.0739 -11.9411 -43.1328 -2 -43.1328H203C212.941 -43.1328 221 -35.0739 221 -25.1328V168.913C221 178.854 212.941 186.913 203 186.913H-2C-11.9411 186.913 -20 178.854 -20 168.913V-25.1328Z" fill="#1165BA"/>
</g>
</svg>
