<svg width="26" height="28" viewBox="0 0 26 28" fill="none" xmlns="http://www.w3.org/2000/svg">
<path d="M15.4998 27.3327H10.4998C10.1665 27.3327 9.87758 27.2216 9.63313 26.9993C9.38869 26.7771 9.24424 26.4993 9.1998 26.166L8.7998 23.066C8.51091 22.9549 8.23847 22.8216 7.98247 22.666C7.72647 22.5105 7.47669 22.3438 7.23313 22.166L4.33313 23.366C4.02202 23.4771 3.71091 23.4882 3.3998 23.3993C3.08869 23.3105 2.84424 23.1216 2.66647 22.8327L0.199799 18.5327C0.022021 18.2438 -0.0335346 17.9327 0.0331321 17.5993C0.0997988 17.266 0.266465 16.9993 0.533132 16.7993L3.03313 14.8993C3.01091 14.7438 2.9998 14.5936 2.9998 14.4487V13.55C2.9998 13.4051 3.01091 13.2549 3.03313 13.0993L0.533132 11.1993C0.266465 10.9993 0.0997988 10.7327 0.0331321 10.3993C-0.0335346 10.066 0.022021 9.7549 0.199799 9.46602L2.66647 5.16602C2.82202 4.8549 3.06069 4.66024 3.38247 4.58202C3.70424 4.50379 4.02113 4.52068 4.33313 4.63268L7.23313 5.83268C7.47758 5.6549 7.73313 5.48824 7.9998 5.33268C8.26646 5.17713 8.53313 5.04379 8.7998 4.93268L9.1998 1.83268C9.24424 1.49935 9.38869 1.22157 9.63313 0.999349C9.87758 0.777127 10.1665 0.666016 10.4998 0.666016H15.4998C15.8331 0.666016 16.122 0.777127 16.3665 0.999349C16.6109 1.22157 16.7554 1.49935 16.7998 1.83268L17.1998 4.93268C17.4887 5.04379 17.7611 5.17713 18.0171 5.33268C18.2731 5.48824 18.5229 5.6549 18.7665 5.83268L21.6665 4.63268C21.9776 4.52157 22.2887 4.51046 22.5998 4.59935C22.9109 4.68824 23.1554 4.87713 23.3331 5.16602L25.7998 9.46602C25.9776 9.7549 26.0331 10.066 25.9665 10.3993C25.8998 10.7327 25.7331 10.9993 25.4665 11.1993L22.9665 13.0993C22.9887 13.2549 22.9998 13.4051 22.9998 13.55V14.4487C22.9998 14.5936 22.9776 14.7438 22.9331 14.8993L25.4331 16.7993C25.6998 16.9993 25.8665 17.266 25.9331 17.5993C25.9998 17.9327 25.9442 18.2438 25.7665 18.5327L23.2998 22.7993C23.122 23.0882 22.8718 23.2829 22.5491 23.3833C22.2265 23.4838 21.91 23.478 21.5998 23.366L18.7665 22.166C18.522 22.3438 18.2665 22.5105 17.9998 22.666C17.7331 22.8216 17.4665 22.9549 17.1998 23.066L16.7998 26.166C16.7554 26.4993 16.6109 26.7771 16.3665 26.9993C16.122 27.2216 15.8331 27.3327 15.4998 27.3327ZM13.0665 18.666C14.3554 18.666 15.4554 18.2105 16.3665 17.2993C17.2776 16.3882 17.7331 15.2882 17.7331 13.9993C17.7331 12.7105 17.2776 11.6105 16.3665 10.6993C15.4554 9.78824 14.3554 9.33268 13.0665 9.33268C11.7554 9.33268 10.6496 9.78824 9.74913 10.6993C8.84869 11.6105 8.39891 12.7105 8.3998 13.9993C8.3998 15.2882 8.84958 16.3882 9.74913 17.2993C10.6487 18.2105 11.7545 18.666 13.0665 18.666Z" fill="#FDFDFD"/>
</svg>
