<svg width="200" height="200" viewBox="0 0 200 200" fill="none" xmlns="http://www.w3.org/2000/svg">
<g opacity="0.6">
<mask id="mask0_1862_15782" style="mask-type:alpha" maskUnits="userSpaceOnUse" x="0" y="0" width="200" height="200">
<rect width="200" height="200" fill="#D9D9D9"/>
</mask>
<g mask="url(#mask0_1862_15782)">
<path d="M50 175C45.2991 175 41.3462 173.397 38.141 170.192C34.9359 166.987 33.3333 163.034 33.3333 158.333V135.256H58.3333V25H166.667V158.333C166.667 163.034 165.064 166.987 161.859 170.192C158.654 173.397 154.701 175 150 175H50ZM150 166.667C152.361 166.667 154.34 165.868 155.937 164.271C157.535 162.674 158.333 160.694 158.333 158.333V33.3333H66.6666V135.256H141.667V158.333C141.667 160.694 142.465 162.674 144.062 164.271C145.66 165.868 147.639 166.667 150 166.667ZM78.2052 69.8719V61.5385H146.795V69.8719H78.2052ZM78.2052 92.9487V84.6154H146.795V92.9487H78.2052ZM50 166.667H133.333V143.59H41.6666V158.333C41.6666 160.694 42.4653 162.674 44.0625 164.271C45.6597 165.868 47.6389 166.667 50 166.667ZM50 166.667H41.6666H133.333H50Z" fill="#046AD0"/>
</g>
</g>
</svg>
