<svg width="18" height="22" viewBox="0 0 18 22" fill="none" xmlns="http://www.w3.org/2000/svg">
<path d="M16.7277 2.86503L4.51681 0.708777C4.1745 0.649388 3.82261 0.728142 3.53827 0.927778C3.25392 1.12741 3.06034 1.43164 2.99994 1.77378L0.210873 17.6175C0.180925 17.7873 0.184718 17.9613 0.222035 18.1296C0.259353 18.2979 0.329464 18.4573 0.428363 18.5985C0.527262 18.7397 0.653012 18.86 0.79843 18.9526C0.943848 19.0452 1.10608 19.1083 1.27587 19.1382L13.4868 21.2944C13.5629 21.3082 13.6401 21.3151 13.7174 21.315C14.0247 21.3126 14.3213 21.2024 14.5557 21.0036C14.7901 20.8049 14.9473 20.5303 14.9999 20.2275L17.789 4.38378C17.849 4.04173 17.771 3.68984 17.5721 3.40517C17.3732 3.12051 17.0696 2.92628 16.7277 2.86503ZM16.6874 4.19065L13.8984 20.0344C13.8942 20.0588 13.8853 20.0821 13.8721 20.103C13.8589 20.1239 13.8417 20.142 13.8215 20.1563C13.7809 20.1846 13.7306 20.1958 13.6818 20.1872L1.46712 18.0319C1.44223 18.028 1.41839 18.019 1.39703 18.0057C1.37566 17.9923 1.35721 17.9748 1.34277 17.9541C1.32833 17.9335 1.3182 17.9101 1.31299 17.8855C1.30778 17.8608 1.30759 17.8354 1.31244 17.8107L4.1015 1.9669C4.10564 1.94252 4.11457 1.9192 4.12776 1.89829C4.14095 1.87737 4.15816 1.85927 4.17837 1.84503C4.22012 1.81592 4.27167 1.80446 4.32181 1.81315L16.5327 3.9694C16.5576 3.97334 16.5815 3.98226 16.6028 3.99562C16.6242 4.00898 16.6427 4.02651 16.6571 4.04716C16.6715 4.06781 16.6817 4.09116 16.6869 4.11582C16.6921 4.14047 16.6923 4.16592 16.6874 4.19065ZM14.4477 6.07972C14.4256 6.21053 14.358 6.32932 14.2568 6.4151C14.1556 6.50087 14.0273 6.54811 13.8946 6.54847C13.8616 6.54845 13.8287 6.54563 13.7962 6.54003L6.01494 5.16565C5.94027 5.15496 5.86852 5.12936 5.80395 5.09037C5.73938 5.05139 5.68331 4.99982 5.63908 4.93872C5.59484 4.87763 5.56334 4.80827 5.54646 4.73475C5.52958 4.66124 5.52765 4.58508 5.54079 4.51081C5.55394 4.43654 5.58188 4.36567 5.62297 4.30242C5.66406 4.23917 5.71745 4.18482 5.77996 4.14262C5.84248 4.10042 5.91284 4.07122 5.98687 4.05676C6.06089 4.04231 6.13707 4.04289 6.21087 4.05847L13.9921 5.4319C14.1381 5.45799 14.2679 5.54071 14.3533 5.66203C14.4386 5.78336 14.4726 5.93348 14.4477 6.07972ZM13.9274 9.0319C13.9053 9.16272 13.8377 9.28151 13.7365 9.36728C13.6353 9.45306 13.507 9.5003 13.3743 9.50065C13.3428 9.50041 13.3115 9.49727 13.2806 9.49128L5.49931 8.11784C5.35236 8.09186 5.22176 8.00856 5.13622 7.88628C5.05069 7.764 5.01723 7.61275 5.04322 7.46581C5.0692 7.31886 5.15249 7.18826 5.27477 7.10272C5.39705 7.01719 5.5483 6.98373 5.69525 7.00971L13.4765 8.38409C13.6217 8.41126 13.7503 8.49442 13.8347 8.61563C13.919 8.73683 13.9524 8.88634 13.9274 9.0319ZM9.52118 11.2997C9.49806 11.4298 9.42986 11.5476 9.32855 11.6325C9.22723 11.7174 9.09928 11.7638 8.96712 11.7638C8.93413 11.7637 8.90121 11.7609 8.86868 11.7553L4.979 11.0682C4.90433 11.0575 4.83258 11.0319 4.76801 10.9929C4.70344 10.9539 4.64737 10.9023 4.60314 10.8412C4.5589 10.7801 4.52741 10.7108 4.51052 10.6373C4.49364 10.5637 4.49171 10.4876 4.50485 10.4133C4.518 10.339 4.54594 10.2682 4.58703 10.2049C4.62812 10.1417 4.68151 10.0873 4.74402 10.0451C4.80654 10.0029 4.8769 9.97372 4.95093 9.95926C5.02496 9.94481 5.10114 9.94538 5.17494 9.96097L9.06462 10.6472C9.13751 10.6603 9.2071 10.6877 9.26939 10.7277C9.33167 10.7678 9.38544 10.8197 9.4276 10.8806C9.46976 10.9415 9.49948 11.0101 9.51505 11.0825C9.53063 11.1549 9.53176 11.2297 9.51837 11.3025L9.52118 11.2997Z" fill="#FDFDFD"/>
</svg>
