<svg width="328" height="337" viewBox="0 0 328 337" fill="none" xmlns="http://www.w3.org/2000/svg">
<path d="M74.9632 239.498H21.6467C10.2438 239.498 1 248.927 1 260.558V314.94C1 326.571 10.2438 336 21.6467 336H74.9632C86.366 336 95.6098 326.571 95.6098 314.94V260.558C95.6098 248.927 86.366 239.498 74.9632 239.498Z" fill="#046AD0" fill-opacity="0.09"/>
<path d="M189.71 120.257H136.394C124.991 120.257 115.747 129.685 115.747 141.316V195.699C115.747 207.33 124.991 216.758 136.394 216.758H189.71C201.113 216.758 210.357 207.33 210.357 195.699V141.316C210.357 129.685 201.113 120.257 189.71 120.257Z" fill="#046AD0" fill-opacity="0.09"/>
<path d="M306.353 1H253.037C241.634 1 232.39 10.4287 232.39 22.0595V76.4421C232.39 88.0729 241.634 97.5016 253.037 97.5016H306.353C317.756 97.5016 327 88.0729 327 76.4421V22.0595C327 10.4287 317.756 1 306.353 1Z" fill="#046AD0" fill-opacity="0.09"/>
<path d="M189.71 239.498H136.394C124.991 239.498 115.747 248.927 115.747 260.558V314.94C115.747 326.571 124.991 336 136.394 336H189.71C201.113 336 210.357 326.571 210.357 314.94V260.558C210.357 248.927 201.113 239.498 189.71 239.498Z" stroke="#046AD0" stroke-opacity="0.11" stroke-width="0.837838" stroke-miterlimit="10"/>
<path d="M306.353 120.257H253.037C241.634 120.257 232.39 129.685 232.39 141.316V195.699C232.39 207.33 241.634 216.758 253.037 216.758H306.353C317.756 216.758 327 207.33 327 195.699V141.316C327 129.685 317.756 120.257 306.353 120.257Z" stroke="#046AD0" stroke-opacity="0.11" stroke-width="0.837838" stroke-miterlimit="10"/>
<path d="M74.9632 120.257H21.6467C10.2438 120.257 1 129.685 1 141.316V195.699C1 207.33 10.2438 216.758 21.6467 216.758H74.9632C86.366 216.758 95.6098 207.33 95.6098 195.699V141.316C95.6098 129.685 86.366 120.257 74.9632 120.257Z" stroke="#046AD0" stroke-opacity="0.11" stroke-width="0.837838" stroke-miterlimit="10"/>
<path d="M189.71 1H136.394C124.991 1 115.747 10.4287 115.747 22.0595V76.4421C115.747 88.0729 124.991 97.5016 136.394 97.5016H189.71C201.113 97.5016 210.357 88.0729 210.357 76.4421V22.0595C210.357 10.4287 201.113 1 189.71 1Z" stroke="#046AD0" stroke-opacity="0.11" stroke-width="0.837838" stroke-miterlimit="10"/>
</svg>
