<svg width="313" height="171" viewBox="0 0 313 171" fill="none" xmlns="http://www.w3.org/2000/svg">
<g clip-path="url(#clip0_871_11148)">
<rect x="50" y="3" width="235" height="137" fill="#EDEDED"/>
<path d="M156.5 179C242.933 179 313 174.996 313 170.056C313 165.117 242.933 161.112 156.5 161.112C70.0674 161.112 0 165.117 0 170.056C0 174.996 70.0674 179 156.5 179Z" fill="#F2F2F2"/>
<path d="M284.95 0H49.8428V7.43235H284.95V0Z" fill="#F2F2F2"/>
<path d="M56.1341 5.53018C57.2032 5.53018 58.0699 4.66898 58.0699 3.60664C58.0699 2.5443 57.2032 1.68311 56.1341 1.68311C55.0649 1.68311 54.1982 2.5443 54.1982 3.60664C54.1982 4.66898 55.0649 5.53018 56.1341 5.53018Z" fill="#046AD0"/>
<path d="M62.4261 5.53018C63.4952 5.53018 64.3619 4.66898 64.3619 3.60664C64.3619 2.5443 63.4952 1.68311 62.4261 1.68311C61.3569 1.68311 60.4902 2.5443 60.4902 3.60664C60.4902 4.66898 61.3569 5.53018 62.4261 5.53018Z" fill="#046AD0"/>
<path d="M68.7171 5.53018C69.7862 5.53018 70.6529 4.66898 70.6529 3.60664C70.6529 2.5443 69.7862 1.68311 68.7171 1.68311C67.6479 1.68311 66.7812 2.5443 66.7812 3.60664C66.7812 4.66898 67.6479 5.53018 68.7171 5.53018Z" fill="#046AD0"/>
<path d="M50.0094 117.549L49.8428 117.691V167.828H284.95V79.7607L282.148 79.9719L50.0094 117.549Z" fill="#323232"/>
<path d="M132.464 49.7173H66.8105V52.3478H132.464V49.7173Z" fill="#323232"/>
<path d="M132.464 55.5044H66.8105V58.1349H132.464V55.5044Z" fill="#323232"/>
<path d="M89.0482 61.2915H66.8105V63.922H89.0482V61.2915Z" fill="#323232"/>
<path d="M266.352 122.747H200.698V125.378H266.352V122.747Z" fill="white"/>
<path d="M266.352 128.534H200.698V131.165H266.352V128.534Z" fill="white"/>
<path d="M222.936 134.322H200.698V136.952H222.936V134.322Z" fill="white"/>
<path d="M159.907 165.403C161.333 165.403 162.489 164.254 162.489 162.837C162.489 161.419 161.333 160.271 159.907 160.271C158.48 160.271 157.324 161.419 157.324 162.837C157.324 164.254 158.48 165.403 159.907 165.403Z" fill="#F2F2F2"/>
<path d="M167.397 165.66C168.823 165.66 169.98 164.511 169.98 163.094C169.98 161.676 168.823 160.527 167.397 160.527C165.971 160.527 164.814 161.676 164.814 163.094C164.814 164.511 165.971 165.66 167.397 165.66Z" fill="#F2F2F2"/>
<path d="M174.886 165.916C176.313 165.916 177.469 164.767 177.469 163.35C177.469 161.933 176.313 160.784 174.886 160.784C173.46 160.784 172.304 161.933 172.304 163.35C172.304 164.767 173.46 165.916 174.886 165.916Z" fill="#F2F2F2"/>
<path d="M167.421 165.146C168.562 165.146 169.487 164.227 169.487 163.093C169.487 161.96 168.562 161.041 167.421 161.041C166.279 161.041 165.354 161.96 165.354 163.093C165.354 164.227 166.279 165.146 167.421 165.146Z" fill="#323232"/>
<path d="M110.698 79.8271H88.46V84.8685H110.698V79.8271Z" fill="#323232"/>
<path d="M242.877 148.045H220.64V153.087H242.877V148.045Z" fill="white"/>
<path opacity="0.3" d="M99.7042 97.66C108.2 97.66 115.087 90.8166 115.087 82.3747C115.087 73.9328 108.2 67.0894 99.7042 67.0894C91.2085 67.0894 84.3213 73.9328 84.3213 82.3747C84.3213 90.8166 91.2085 97.66 99.7042 97.66Z" fill="#046AD0"/>
<path opacity="0.3" d="M99.7045 92.565C105.368 92.565 109.96 88.0027 109.96 82.3748C109.96 76.7469 105.368 72.1846 99.7045 72.1846C94.0407 72.1846 89.4492 76.7469 89.4492 82.3748C89.4492 88.0027 94.0407 92.565 99.7045 92.565Z" fill="#046AD0"/>
<path d="M99.7038 89.4514C103.637 89.4514 106.825 86.2832 106.825 82.3749C106.825 78.4666 103.637 75.2983 99.7038 75.2983C95.7705 75.2983 92.582 78.4666 92.582 82.3749C92.582 86.2832 95.7705 89.4514 99.7038 89.4514Z" fill="#046AD0"/>
<path opacity="0.3" d="M229.142 59.7787C237.637 59.7787 244.525 52.9352 244.525 44.4933C244.525 36.0515 237.637 29.208 229.142 29.208C220.646 29.208 213.759 36.0515 213.759 44.4933C213.759 52.9352 220.646 59.7787 229.142 59.7787Z" fill="#046AD0"/>
<path opacity="0.3" d="M229.142 54.6832C234.806 54.6832 239.397 50.1209 239.397 44.493C239.397 38.8651 234.806 34.3027 229.142 34.3027C223.478 34.3027 218.887 38.8651 218.887 44.493C218.887 50.1209 223.478 54.6832 229.142 54.6832Z" fill="#046AD0"/>
<path d="M229.141 51.5696C233.074 51.5696 236.263 48.4013 236.263 44.4931C236.263 40.5848 233.074 37.4165 229.141 37.4165C225.208 37.4165 222.02 40.5848 222.02 44.4931C222.02 48.4013 225.208 51.5696 229.141 51.5696Z" fill="#046AD0"/>
<path opacity="0.3" d="M231.884 165.878C240.38 165.878 247.267 159.035 247.267 150.593C247.267 142.151 240.38 135.308 231.884 135.308C223.388 135.308 216.501 142.151 216.501 150.593C216.501 159.035 223.388 165.878 231.884 165.878Z" fill="#046AD0"/>
<path opacity="0.3" d="M231.883 160.783C237.547 160.783 242.139 156.221 242.139 150.593C242.139 144.965 237.547 140.403 231.883 140.403C226.219 140.403 221.628 144.965 221.628 150.593C221.628 156.221 226.219 160.783 231.883 160.783Z" fill="#046AD0"/>
<path d="M231.883 157.669C235.817 157.669 239.005 154.501 239.005 150.593C239.005 146.684 235.817 143.516 231.883 143.516C227.95 143.516 224.762 146.684 224.762 150.593C224.762 154.501 227.95 157.669 231.883 157.669Z" fill="#046AD0"/>
<path d="M25.6159 30.9562L31.9473 31.2002L32.2629 23.1115L25.9315 22.8675L25.6159 30.9562Z" fill="#046AD0"/>
<path d="M54.4927 51.196C54.4927 51.196 63.2606 47.0333 63.1203 50.6283C62.9801 54.2233 54.2822 56.5885 54.2822 56.5885L54.4927 51.196Z" fill="#FFB9B9"/>
<path d="M49.6824 81.6138C49.6824 81.6138 53.819 91.6743 55.3474 98.934C56.8758 106.194 59.2034 116.184 56.2094 123.27C53.2153 130.355 44.703 151.18 44.6153 153.426C44.5276 155.673 45.3444 157.955 43.5354 157.885C41.7265 157.816 31.8823 154.736 31.4827 153.37C31.0831 152.005 34.8413 148.549 34.8413 148.549L44.1216 119.654L34.439 100.829L27.4551 128.913L26.0872 163.964C26.0872 163.964 19.3737 161.905 18.399 163.667C18.399 163.667 15.3912 159.501 15.0091 157.686C14.627 155.871 16.4296 121.287 16.4296 121.287C16.4296 121.287 10.2672 81.8953 15.2419 82.087C20.2165 82.2787 39.7017 70.4281 49.6824 81.6138Z" fill="#2F2E41"/>
<path d="M43.6051 156.088C43.6051 156.088 48.1939 166.166 48.6286 166.632C49.0633 167.099 52.0536 171.715 49.7924 171.628C47.5312 171.541 42.192 169.085 38.2621 165.333C34.3322 161.581 29.1508 155.081 29.6206 154.649C30.0904 154.217 33.3087 152.991 33.3087 152.991L43.6051 156.088Z" fill="#2F2E41"/>
<path d="M25.2697 161.682C25.2697 161.682 25.5466 166.193 26.3809 168.026C27.2152 169.858 27.11 172.554 24.8488 172.467C22.5876 172.38 16.7435 171.255 16.7435 171.255C16.7435 171.255 16.3965 168.541 16.8663 168.109C17.3361 167.677 19.3379 162.804 18.4861 161.421C17.6342 160.038 25.2697 161.682 25.2697 161.682Z" fill="#2F2E41"/>
<path d="M21.9249 15.2871C21.9249 15.2871 17.1044 22.7522 15.2252 24.48C13.3461 26.2078 18.6327 30.0119 18.6327 30.0119L28.0948 31.2766C28.0948 31.2766 27.9757 22.721 28.463 21.8397C28.9504 20.9584 21.9249 15.2871 21.9249 15.2871Z" fill="#FFB9B9"/>
<path d="M30.1495 25.0551C30.1495 25.0551 28.2002 28.5804 26.3912 28.5107C24.5823 28.441 15.2255 24.48 14.8258 23.1145C14.4262 21.7489 11.7266 32.8961 11.7266 32.8961L34.6219 72.9326L40.2067 69.0974L37.5007 45.5905L35.2783 32.9035L30.1495 25.0551Z" fill="#046AD0"/>
<path d="M13.9806 60.886C14.8939 62.7844 15.4643 64.7641 15.3852 66.7907C15.3817 66.8806 15.3782 66.9705 15.3702 67.0602C15.1535 71.2193 13.6116 76.0294 13.0584 79.5275C12.657 82.0368 12.7712 83.8684 14.2491 84.2989C17.8319 85.337 13.7267 86.0789 27.5883 90.6635C41.45 95.2481 43.8691 91.2908 43.9041 90.3921C43.9392 89.4933 41.9411 82.6656 42.4108 82.2337C42.8806 81.8017 48.984 87.8876 50.8281 87.0585C52.6721 86.2294 51.0385 81.666 51.0385 81.666C51.0385 81.666 46.8844 72.0549 46.9721 69.8081C47.0597 67.5612 40.6795 56.9642 40.6795 56.9642L36.3398 28.8939C36.3398 28.8939 34.6712 25.2293 32.4275 24.6928C30.1838 24.1563 28.3223 25.4347 28.3223 25.4347L32.0768 33.6802L36.038 48.2344L35.3753 53.6095C35.3753 53.6095 30.7689 43.981 27.7435 40.264C24.7181 36.547 18.2677 27.7475 18.2677 27.7475C18.2677 27.7475 16.7618 22.6985 17.8986 21.1896C19.0356 19.6762 13.1565 19.4497 10.6497 25.6538C9.32117 28.942 7.16414 33.8454 5.81289 38.4108C4.6088 42.4554 4.04003 46.2364 5.23293 48.3976C7.05616 51.6992 11.6425 56.0389 13.9806 60.886Z" fill="#575A89"/>
<path opacity="0.1" d="M5.23293 48.3975C7.05618 51.6991 11.6425 56.0388 13.9807 60.8859C14.5914 58.6997 15.3364 56.4377 15.3364 56.4377C15.3364 56.4377 18.1938 41.2461 9.74155 37.32C8.34105 37.1855 6.94036 37.5744 5.8129 38.4108C4.6088 42.4553 4.04003 46.2363 5.23293 48.3975Z" fill="black"/>
<path d="M38.7865 47.4404L45.9522 49.5167L55.9016 49.9001L56.9251 58.4905L40.5742 59.6607C40.5742 59.6607 36.4902 48.252 38.7865 47.4404Z" fill="#575A89"/>
<path d="M27.1023 76.3237C27.1023 76.3237 36.6886 77.9041 34.5006 80.7706C32.3126 83.6371 23.8203 80.6235 23.8203 80.6235L27.1023 76.3237Z" fill="#FFB9B9"/>
<path opacity="0.1" d="M15.3704 67.0601C15.1537 71.2192 13.6118 76.0293 13.0586 79.5274C16.1124 82.3993 19.0165 84.9325 20.1109 84.9747C22.3721 85.0618 26.0076 84.7518 27.3468 85.2535C28.6859 85.7551 29.4714 77.2345 29.4714 77.2345C29.4714 77.2345 28.6721 74.5034 25.1068 73.0158C22.7003 72.0095 18.0873 69.28 15.3704 67.0601Z" fill="black"/>
<path d="M9.84757 34.6241C9.84757 34.6241 2.19452 33.4291 2.60797 46.0464C3.02141 58.6637 1.80126 66.7175 4.87927 69.0864C7.95728 71.4552 17.9555 82.1916 20.2167 82.2787C22.4779 82.3659 26.1134 82.0559 27.4526 82.5576C28.7918 83.0592 29.5772 74.5386 29.5772 74.5386C29.5772 74.5386 28.778 71.8075 25.2126 70.3199C21.6473 68.8324 13.2476 63.5582 13.3178 61.7607C13.3879 59.9632 15.4424 53.7417 15.4424 53.7417C15.4424 53.7417 18.2999 38.5501 9.84757 34.6241Z" fill="#575A89"/>
<path d="M28.6736 26.341C34.1726 26.341 38.6304 21.9115 38.6304 16.4474C38.6304 10.9832 34.1726 6.55371 28.6736 6.55371C23.1746 6.55371 18.7168 10.9832 18.7168 16.4474C18.7168 21.9115 23.1746 26.341 28.6736 26.341Z" fill="#FFB9B9"/>
<path d="M35.3772 2.26666C35.6173 2.47226 35.9049 2.61567 36.2144 2.68411C36.3697 2.71163 36.5297 2.67696 36.6594 2.58769C36.7891 2.49841 36.878 2.36176 36.9067 2.20759C37.1345 2.67702 37.3915 3.17734 37.8566 3.41822C38.3217 3.65909 39.0409 3.45711 39.1079 2.94023C39.1758 3.33268 39.3506 3.69918 39.6132 3.99998C39.9018 4.27338 40.4251 4.34238 40.677 4.03532C40.4733 5.14137 40.599 6.27883 40.5351 7.40144C40.4711 8.52406 40.1698 9.7142 39.3163 10.4524C38.0714 11.529 36.1995 11.2633 34.562 11.0593C34.3144 11.0077 34.0574 11.0216 33.8169 11.0998C33.2038 11.3594 33.2316 12.2075 33.2234 12.8696C33.1734 14.0315 32.7106 15.1381 31.9172 15.9931C31.1239 16.848 30.0513 17.3959 28.8899 17.5394C28.2399 17.6391 27.5767 17.4783 27.0461 17.0923C26.5812 16.7007 26.3437 16.0625 25.8109 15.7684C24.9443 15.2899 23.8933 15.9877 23.2597 16.7454C22.6261 17.503 22.0017 18.4351 21.0202 18.5738C19.722 18.7572 18.7333 17.4426 18.2483 16.2322C17.579 14.5357 17.2584 12.7232 17.3053 10.9017C17.3522 9.08007 17.7656 7.28625 18.5213 5.62596C21.2318 -0.24505 30.491 -1.17367 35.3772 2.26666Z" fill="#2F2E41"/>
<path d="M274.392 159.582C277.899 165.524 284.971 167.876 284.971 167.876C284.971 167.876 286.358 160.595 282.852 154.653C279.345 148.71 272.272 146.358 272.272 146.358C272.272 146.358 270.886 153.639 274.392 159.582Z" fill="#F2F2F2"/>
<path d="M276.581 157.508C282.645 160.845 285.186 167.813 285.186 167.813C285.186 167.813 277.894 169.369 271.83 166.032C265.765 162.694 263.225 155.727 263.225 155.727C263.225 155.727 270.516 154.17 276.581 157.508Z" fill="#046AD0"/>
</g>
<defs>
<clipPath id="clip0_871_11148">
<rect width="313" height="179" fill="white"/>
</clipPath>
</defs>
</svg>
