<svg width="381" height="299" viewBox="0 0 381 299" fill="none" xmlns="http://www.w3.org/2000/svg">
<g clip-path="url(#clip0_865_4420)">
<g opacity="0.35">
<path d="M67.5238 230.779C66.9849 229.715 64.6534 230.854 64.2248 229.888C63.7977 228.926 65.9639 227.46 67.2015 224.11C67.4247 223.506 68.8311 219.7 67.7899 218.525C65.8164 216.299 56.7856 225.487 53.6252 222.48C52.9316 221.82 52.4471 220.503 50.3479 218.364C49.5128 217.514 49.0079 217.13 48.5192 217.272C47.8257 217.475 47.7708 218.562 47.0272 220.699C45.912 223.904 45.2525 223.71 44.6028 226.267C44.1204 228.165 44.2306 229.269 43.6631 229.484C42.8599 229.788 42.1206 227.775 41.1028 227.955C40.0641 228.139 39.4361 230.483 39.2378 232.238C38.8656 235.532 39.8984 237.705 40.4709 239.99C41.093 242.473 41.4622 246.25 40.0256 251.597L25.8057 298.514C28.945 288.887 38.0348 262.496 41.8543 252.689C42.957 249.858 44.1744 246.986 46.6742 245.853C49.081 244.762 52.3863 245.413 56.6003 244.224C57.0924 244.085 58.4581 243.679 58.63 242.738C58.7721 241.96 57.9688 241.526 58.0922 240.798C58.2578 239.821 59.8375 239.809 61.7787 238.682C63.1476 237.887 64.0004 236.942 64.7337 236.129C64.9548 235.884 68.2413 232.196 67.5238 230.779Z" fill="#323232"/>
<path d="M11.5786 255.478C10.9771 255.481 10.7819 257.15 10.2535 257.118C9.72693 257.085 9.73743 255.417 8.6907 253.74C8.50194 253.437 7.31238 251.53 6.51969 251.79C5.01719 252.282 6.26213 260.123 4.09014 261.072C3.61349 261.28 2.9216 261.179 1.41962 261.768C0.822093 262.003 0.515407 262.182 0.43429 262.504C0.319201 262.961 0.758842 263.307 1.43992 264.351C2.46133 265.916 2.18992 266.239 3.07407 267.351C3.73042 268.175 4.22472 268.431 4.15106 268.819C4.04684 269.368 2.98974 269.212 2.77161 269.849C2.54903 270.499 3.3503 271.537 4.02865 272.157C5.30163 273.321 6.5105 273.355 7.63346 273.685C8.85381 274.044 10.5433 274.921 12.3696 277.29L27.9307 299C24.8015 294.418 16.3632 281.579 13.3549 276.554C12.4865 275.103 11.6342 273.575 11.8805 271.811C12.1176 270.113 13.3444 268.401 14.062 265.636C14.1458 265.313 14.3693 264.411 14.0246 264.041C13.7397 263.735 13.326 264.071 13.0563 263.79C12.6946 263.413 13.1454 262.502 13.2331 261.061C13.2949 260.044 13.1448 259.282 13.0157 258.626C12.9768 258.428 12.3793 255.475 11.5786 255.478Z" fill="#323232"/>
<path d="M23.5782 258.633L23.2158 254.844L23.3814 254.557C24.1476 253.229 24.5381 251.932 24.5428 250.701C24.5436 250.505 24.5358 250.31 24.528 250.11C24.4967 249.32 24.4577 248.338 24.8951 247.193C25.1403 246.554 25.8292 245.076 26.8649 245.259C27.1437 245.305 27.3546 245.455 27.5147 245.63C27.5381 245.586 27.5624 245.542 27.5881 245.495C27.9107 244.919 28.1661 244.672 28.4121 244.434C28.6011 244.251 28.7964 244.063 29.1026 243.616C29.2369 243.421 29.3416 243.249 29.4298 243.104C29.6977 242.667 30.0476 242.146 30.6647 242.155C31.3239 242.191 31.6691 242.83 31.8979 243.252C32.3064 244.006 32.4915 244.549 32.6142 244.91C32.6587 245.041 32.7094 245.189 32.7352 245.235C32.9477 245.601 34.6746 245.259 35.3252 245.135C36.7865 244.849 38.051 244.602 38.572 245.682C38.9453 246.453 38.6681 247.474 37.723 248.797C37.4285 249.208 37.1153 249.521 36.8373 249.766C37.0677 249.927 37.2739 250.174 37.3575 250.562C37.5543 251.48 36.8802 252.4 35.3549 253.3C34.9761 253.525 34.466 253.825 33.7514 253.97C33.4147 254.038 33.1117 254.054 32.8524 254.063C32.8469 254.239 32.8118 254.429 32.7204 254.625C32.4525 255.201 31.8948 255.475 31.0544 255.41C30.1297 255.353 29.3681 255.146 28.6964 254.965C28.1099 254.808 27.6045 254.674 27.2078 254.705C26.472 254.775 25.905 255.465 25.2395 256.359L23.5782 258.633Z" fill="#323232"/>
<path d="M25.2596 236.076L22.2222 237.448L21.943 237.333C20.6516 236.802 19.4813 236.689 18.4632 236.996C18.3013 237.044 18.1416 237.103 17.9789 237.162C17.3341 237.398 16.5326 237.692 15.4757 237.487C14.8862 237.371 13.4906 236.965 13.379 235.746C13.346 235.418 13.4164 235.141 13.5209 234.916C13.4787 234.9 13.4363 234.884 13.3904 234.867C12.8326 234.647 12.5639 234.421 12.305 234.202C12.106 234.035 11.9008 233.861 11.4545 233.628C11.2587 233.525 11.0901 233.45 10.9484 233.387C10.5193 233.194 9.99992 232.93 9.85097 232.229C9.71399 231.473 10.1538 230.92 10.4448 230.554C10.9637 229.9 11.3655 229.552 11.6321 229.322C11.7296 229.238 11.8391 229.143 11.8703 229.102C12.1186 228.769 11.398 226.899 11.1303 226.194C10.5239 224.611 9.99916 223.241 10.7585 222.377C11.3015 221.759 12.2149 221.814 13.5471 222.549C13.9618 222.778 14.2996 223.054 14.5726 223.306C14.6472 223.004 14.7988 222.708 15.098 222.515C15.8066 222.059 16.7376 222.589 17.8679 224.089C18.1499 224.461 18.527 224.963 18.8277 225.736C18.969 226.1 19.0594 226.439 19.1328 226.73C19.2792 226.692 19.4453 226.683 19.6301 226.737C20.174 226.895 20.5422 227.457 20.7009 228.425C20.8887 229.487 20.9111 230.402 20.9319 231.209C20.9507 231.913 20.9686 232.52 21.0949 232.961C21.3389 233.777 22.0524 234.244 22.9601 234.771L25.2596 236.076Z" fill="#323232"/>
<path d="M23.5782 224.916L23.2158 221.127L23.3814 220.84C24.1476 219.512 24.5381 218.215 24.5428 216.984C24.5436 216.788 24.5358 216.592 24.528 216.393C24.4967 215.603 24.4577 214.62 24.8951 213.475C25.1403 212.837 25.8292 211.359 26.8649 211.542C27.1437 211.587 27.3546 211.737 27.5147 211.913C27.5381 211.869 27.5624 211.825 27.5881 211.778C27.9107 211.201 28.1661 210.954 28.4121 210.717C28.6011 210.534 28.7964 210.345 29.1026 209.899C29.2369 209.703 29.3416 209.531 29.4298 209.387C29.6977 208.95 30.0476 208.428 30.6647 208.437C31.3239 208.474 31.6691 209.112 31.8979 209.535C32.3064 210.289 32.4915 210.832 32.6142 211.192C32.6587 211.324 32.7094 211.472 32.7352 211.518C32.9477 211.884 34.6746 211.542 35.3252 211.417C36.7865 211.132 38.051 210.885 38.572 211.964C38.9453 212.736 38.6681 213.757 37.723 215.079C37.4285 215.491 37.1153 215.804 36.8373 216.049C37.0677 216.21 37.2739 216.457 37.3575 216.845C37.5543 217.763 36.8802 218.683 35.3549 219.583C34.9761 219.808 34.466 220.108 33.7514 220.253C33.4147 220.32 33.1117 220.337 32.8524 220.346C32.8469 220.522 32.8118 220.712 32.7204 220.908C32.4525 221.484 31.8948 221.758 31.0544 221.692C30.1297 221.636 29.3681 221.429 28.6964 221.248C28.1099 221.091 27.6045 220.957 27.2078 220.988C26.472 221.058 25.905 221.747 25.2395 222.642L23.5782 224.916Z" fill="#323232"/>
<path d="M26.8888 298.453L26.2109 297.955L25.4204 298.061C25.4079 297.975 25.365 297.778 25.3002 297.469C24.9464 295.775 23.8677 290.62 22.968 282.501C22.34 276.834 21.9846 271.008 21.9112 265.182C21.8378 259.346 22.0737 254.929 22.2627 251.378C22.4056 248.7 22.579 246.15 22.7493 243.666C23.2023 237.029 23.6295 230.76 23.3116 223.82C23.2413 222.27 23.0937 219.045 21.4847 215.614C20.5514 213.623 19.2658 211.856 17.6631 210.364L18.6597 208.897C20.4288 210.547 21.851 212.504 22.8875 214.714C24.6714 218.519 24.8323 222.033 24.9096 223.721C25.233 230.784 24.8011 237.113 24.3434 243.814C24.1747 246.289 24.0013 248.828 23.8591 251.495C23.6717 255.013 23.4381 259.392 23.5108 265.152C23.5826 270.909 23.9341 276.664 24.5535 282.26C25.4423 290.276 26.5053 295.354 26.8544 297.022C27.0403 297.913 27.0794 298.1 26.8888 298.453Z" fill="#323232"/>
<path d="M14.7297 213.34C14.6641 213.34 14.5977 213.338 14.5306 213.333C13.1684 213.247 11.907 212.292 10.7808 210.495C10.2528 209.65 9.98254 208.686 9.44361 206.764C9.36004 206.467 8.95388 204.964 8.70707 202.895C8.54539 201.543 8.5657 200.978 8.79455 200.478C9.04839 199.922 9.45923 199.534 9.9216 199.273C9.9013 199.093 9.91769 198.909 9.98409 198.72C10.2567 197.939 10.9815 198.042 11.3736 198.091C11.572 198.12 11.8195 198.159 12.0867 198.142C12.5069 198.118 12.7326 197.972 13.0747 197.753C13.402 197.542 13.8089 197.281 14.4126 197.136C15.603 196.845 16.6003 197.24 16.9292 197.37C18.6592 198.045 19.5121 199.62 20.4993 201.444C20.6961 201.81 21.3717 203.142 21.8177 204.967C22.1395 206.284 22.0942 206.87 21.9974 207.305C21.8005 208.2 21.3358 208.712 20.1557 209.842C18.9232 211.026 18.3046 211.619 17.7735 211.979C16.5371 212.815 15.7607 213.34 14.7297 213.34Z" fill="#323232"/>
</g>
<path d="M372.164 297.601C372.164 297.948 371.924 298.229 371.628 298.229H0V296.973H371.628C371.924 296.973 372.164 297.254 372.164 297.601Z" fill="#323232"/>
<path d="M264.881 99.1148C264.881 99.1148 244.876 101.932 248.251 83.4104C251.625 64.8887 270.757 30.678 270.757 30.678L281.614 37.808L269.149 72.3108L274.515 77.2681L264.881 99.1148Z" fill="#A0616A"/>
<path d="M330.435 76.566L327.616 103.715L256.981 103.31L271.168 74.438L330.435 76.566Z" fill="#046AD0"/>
<path d="M288.459 32.1205C292.781 25.051 293.128 16.6725 289.233 13.4067C285.338 10.1408 278.677 13.2244 274.354 20.294C270.032 27.3636 269.685 35.7421 273.58 39.0079C277.474 42.2737 284.136 39.1901 288.459 32.1205Z" fill="#A0616A"/>
<path d="M323.643 180.073V297.897H327.979V180.073H323.643Z" fill="#3F3D56"/>
<path d="M302.826 180.073V297.897H307.163V180.073H302.826Z" fill="#3F3D56"/>
<path opacity="0.35" d="M186.166 105.925V297.897H190.503V105.925H186.166Z" fill="#323232"/>
<path d="M255.988 180.073V297.897H260.325V180.073H255.988Z" fill="#3F3D56"/>
<path d="M239.393 180.073V297.897H243.729V180.073H239.393Z" fill="#3F3D56"/>
<path d="M319.74 177.534H235.991L219.926 204.219L303.26 210.037L319.74 177.534Z" fill="#3F3D56"/>
<path d="M166.387 86.2326L166.768 66.8801L116.222 71.433L115.964 84.5466L166.387 86.2326Z" fill="#A0616A"/>
<path d="M132.179 69.1207L129.761 75.9316L126.289 76.0614C126.289 76.0614 130.354 77.5192 131.483 86.1694L128.148 87.3405C128.148 87.3405 124.944 90.8406 118.955 90.5011L102.898 88.9282L102.837 82.373L113.934 80.8712C113.934 80.8712 116.407 78.9661 104.166 71.1337C104.166 71.1337 100.111 68.2297 103.758 53.8901C104.259 51.9192 105.773 50.5037 107.529 50.4592C108.498 50.4346 109.406 50.8422 109.768 52.2515C110.691 55.8389 109.757 59.4152 112.293 61.6545C114.828 63.8938 132.179 69.1207 132.179 69.1207Z" fill="#2F2E41"/>
<path d="M313.472 160.219C313.472 160.219 296.032 194.955 256.569 188.695C247.178 187.205 238.915 180.666 234.208 171.034C225.11 152.417 211.295 119.819 215.774 101.361L149.03 86.4437L143.771 67.4619L216.005 56.4737C222.394 55.5018 228.653 59.1403 231.855 65.6879L267.042 137.648L277.531 138.989L313.472 160.219Z" fill="#2F2E41"/>
<path d="M167.706 94.1547L166.755 74.8291L116.687 84.1292L117.33 97.2247L167.706 94.1547Z" fill="#A0616A"/>
<path d="M132.432 80.3213L130.49 87.3379L127.038 87.7943C127.038 87.7943 131.19 88.8644 132.91 97.3802L129.666 98.8617C129.666 98.8617 126.713 102.652 120.72 102.878L104.607 102.823L104.095 96.295L115.054 93.7525C115.054 93.7525 117.388 91.6206 104.648 84.9668C104.648 84.9668 100.407 82.4544 103.057 67.8176C103.421 65.8059 104.833 64.2523 106.58 64.0425C107.544 63.9268 108.477 64.2475 108.935 65.6181C110.101 69.1069 109.416 72.7596 112.097 74.7528C114.778 76.746 132.432 80.3213 132.432 80.3213Z" fill="#2F2E41"/>
<path d="M319.396 154.044C319.396 154.044 304.399 190.31 264.633 187.788C255.171 187.188 246.486 181.449 241.132 172.292C230.785 154.592 214.775 123.402 217.971 104.581L150.419 96.0005L143.873 77.5756L215.118 59.8177C221.419 58.247 227.908 61.284 231.549 67.5088L271.565 135.921L282.113 136.269L319.396 154.044Z" fill="#2F2E41"/>
<path d="M273.68 0.901733L270.211 3.9489L288.426 33.4048L291.895 32.3891L273.68 0.901733Z" fill="#3F3D56"/>
<path d="M321.041 66.3122L340.99 65.2965L349.664 111.004C349.664 111.004 331.449 191.246 309.765 188.199C309.765 188.199 296.321 176.518 296.321 172.455C296.321 168.392 278.106 158.235 278.106 158.235L273.77 140.968L286.78 117.606C286.78 117.606 291.984 99.3232 309.331 89.166L321.041 66.3122Z" fill="#046AD0"/>
<path opacity="0.35" d="M206.982 101.862H29.6064V106.941H116.343V297.897H120.68V106.941H206.982V101.862Z" fill="#323232"/>
<path d="M331.449 62.2494C344.383 62.2494 354.868 49.971 354.868 34.8249C354.868 19.6788 344.383 7.40039 331.449 7.40039C318.515 7.40039 308.03 19.6788 308.03 34.8249C308.03 49.971 318.515 62.2494 331.449 62.2494Z" fill="#A0616A"/>
<path d="M249.794 69.8672L233.438 77.4851L265.53 127.255L276.806 117.098L249.794 69.8672Z" fill="#323232"/>
<path d="M313.668 165.345C313.668 165.345 307.597 187.843 294.586 176.594C281.576 165.345 262.873 130.811 262.873 130.811L272.902 122.177L294.586 149.721L300.658 146.046L313.668 165.345Z" fill="#A0616A"/>
<path d="M323.21 86.1188L343.159 100.339L313.669 175.502L294.587 145.031L323.21 86.1188Z" fill="#046AD0"/>
<path d="M270.517 131.241C274.666 128.436 275.019 120.058 271.307 112.528C267.594 104.997 261.222 101.167 257.073 103.972C252.925 106.777 252.571 115.155 256.284 122.685C259.996 130.215 266.369 134.045 270.517 131.241Z" fill="#A0616A"/>
<path d="M334.01 117.858C340.02 94.784 346.47 87.4818 353.251 92.0536C358.413 95.5335 359.966 103.454 356.942 109.462C349.231 124.776 333.343 159.865 336.653 183.12C336.653 183.12 341.857 215.623 300.224 215.623C258.59 215.623 218.691 204.45 218.691 204.45L240.375 200.388L289.688 204.512C300.954 205.455 310.45 194.166 308.945 181.056C308.895 180.624 308.836 180.186 308.768 179.744C306.295 163.822 334.01 117.858 334.01 117.858Z" fill="#3F3D56"/>
<path d="M322.672 23.4562C320.758 29.7291 324.962 36.2427 330.637 35.7996L330.773 35.789C334.588 41.3737 334.693 49.2736 331.029 54.995C330.728 62.3693 331.714 69.738 333.928 76.6506L340.147 96.0726L349.722 90.8401L354.266 105.043L381 88.915L364.797 46.2245L359.853 23.0637C356.335 6.58589 341.982 -3.3324 327.964 1.02802L317.209 4.37342C308.712 7.01637 303.822 17.4338 306.469 27.2509L322.672 23.4562Z" fill="#2F2E41"/>
</g>
<defs>
<clipPath id="clip0_865_4420">
<rect width="381" height="299" rx="12" fill="white"/>
</clipPath>
</defs>
</svg>
