<svg width="270" height="182" viewBox="0 0 270 182" fill="none" xmlns="http://www.w3.org/2000/svg">
<g clip-path="url(#clip0_916_6122)">
<path d="M243.442 108.298C243.478 137.377 232.23 165.337 212.063 186.3C210.847 187.572 209.598 188.814 208.317 190.024C206.365 191.88 204.347 193.664 202.263 195.376C182.773 211.422 158.441 220.438 133.193 220.971C132.352 220.99 131.508 221 130.66 221C110.525 221 85.1987 210.253 62.2156 195.376C60.3141 194.145 58.4296 192.886 56.5619 191.598C55.6889 191.001 54.8202 190.396 53.9557 189.783C45.0914 183.529 36.6775 176.66 28.7759 169.228C23.6024 164.376 18.751 159.192 14.2527 153.71C-3.40683 131.943 -7.30189 112.33 17.8748 108.298C20.8556 107.822 23.7486 107.313 26.5537 106.772C30.6171 105.992 34.5058 105.149 38.2199 104.244C43.2228 103.029 47.9232 101.711 52.3209 100.291C53.8001 99.8155 55.2456 99.3302 56.6572 98.8353C77.5261 91.5109 91.4937 81.9597 101.001 71.5963C102.614 69.8422 104.101 68.0668 105.461 66.2703C107.543 63.5359 109.434 60.6615 111.121 57.6676C113.45 53.5077 115.405 49.1502 116.966 44.646L117.051 44.3986C124.616 22.5934 122.315 2.368 130.66 -4.4013C166.335 -33.3406 210.749 7.87163 231.595 56.4717C232.646 58.9206 233.634 61.3842 234.56 63.8627C234.976 64.9698 235.377 66.079 235.763 67.1903C236.779 70.0864 237.701 72.9899 238.528 75.9009C238.846 77.0112 239.148 78.1203 239.436 79.2285C239.744 80.4244 240.039 81.6171 240.312 82.8098C242.341 91.5426 243.442 100.155 243.442 108.298Z" fill="#D6E7FF"/>
<path d="M133.193 220.971C132.352 220.99 131.507 221 130.66 221C110.524 221 85.1983 210.253 62.2152 195.376C60.3137 194.145 58.4292 192.885 56.5615 191.598L58.1995 181.637L107.788 175.058L132.676 194.075L133.193 220.971Z" fill="#2F2E41"/>
<path d="M135.58 43.1138H128.514C128.295 43.1139 128.085 43.2008 127.93 43.3554C127.776 43.5101 127.689 43.7198 127.688 43.9385V51.0028C127.689 51.1109 127.71 51.218 127.752 51.3178C127.793 51.4176 127.854 51.5083 127.931 51.5846C128.007 51.6609 128.098 51.7214 128.198 51.7625C128.298 51.8037 128.406 51.8247 128.514 51.8244H135.58C135.799 51.8245 136.008 51.738 136.163 51.584C136.317 51.43 136.405 51.221 136.406 51.0028V43.9385C136.405 43.7199 136.318 43.5105 136.163 43.356C136.008 43.2015 135.799 43.1144 135.58 43.1138Z" fill="white"/>
<path d="M135.58 55.1519H128.514C128.295 55.152 128.085 55.2389 127.93 55.3935C127.776 55.5482 127.689 55.7579 127.688 55.9766V63.0409C127.689 63.149 127.71 63.2561 127.752 63.3559C127.793 63.4558 127.854 63.5464 127.931 63.6227C128.007 63.699 128.098 63.7595 128.198 63.8006C128.298 63.8418 128.406 63.8628 128.514 63.8625H135.58C135.799 63.8626 136.008 63.7762 136.163 63.6222C136.317 63.4682 136.405 63.2591 136.406 63.0409V55.9766C136.405 55.7581 136.318 55.5486 136.163 55.3941C136.008 55.2396 135.799 55.1525 135.58 55.1519Z" fill="white"/>
<path d="M135.58 67.1904H128.514C128.295 67.1905 128.085 67.2775 127.93 67.4321C127.776 67.5868 127.689 67.7965 127.688 68.0152V75.0764C127.688 75.1847 127.709 75.2921 127.751 75.3922C127.792 75.4924 127.853 75.5834 127.93 75.66C128.006 75.7366 128.097 75.7974 128.198 75.8387C128.298 75.8801 128.405 75.9013 128.514 75.9011H135.58C135.799 75.901 136.009 75.8141 136.164 75.6594C136.318 75.5048 136.405 75.2951 136.406 75.0764V68.0152C136.405 67.7967 136.318 67.5872 136.163 67.4327C136.008 67.2782 135.799 67.1911 135.58 67.1904Z" fill="white"/>
<path d="M136.393 79.9074C136.358 79.7174 136.257 79.5457 136.109 79.4217C135.96 79.2978 135.773 79.2295 135.58 79.2285H128.514C128.295 79.2286 128.085 79.3156 127.93 79.4702C127.776 79.6249 127.689 79.8346 127.688 80.0533V87.1144C127.688 87.2228 127.709 87.3301 127.751 87.4303C127.792 87.5305 127.853 87.6215 127.93 87.6981C128.006 87.7747 128.097 87.8355 128.198 87.8768C128.298 87.9182 128.405 87.9394 128.514 87.9392H135.58C135.799 87.9391 136.009 87.8522 136.164 87.6975C136.318 87.5429 136.405 87.3331 136.406 87.1144V80.0533C136.406 80.0044 136.402 79.9555 136.393 79.9074Z" fill="white"/>
<path d="M135.901 91.3301C135.799 91.288 135.69 91.2665 135.58 91.2666H128.514C128.405 91.2664 128.298 91.2876 128.198 91.3289C128.097 91.3703 128.006 91.4311 127.93 91.5077C127.853 91.5843 127.792 91.6753 127.751 91.7755C127.709 91.8756 127.688 91.983 127.688 92.0914V99.1525C127.688 99.2609 127.709 99.3684 127.75 99.4687C127.792 99.569 127.852 99.6601 127.929 99.7368C128.006 99.8135 128.097 99.8742 128.197 99.9155C128.298 99.9567 128.405 99.9778 128.514 99.9773H135.58C135.799 99.9772 136.009 99.8902 136.164 99.7356C136.318 99.5809 136.405 99.3712 136.406 99.1525V92.0914C136.405 91.929 136.357 91.7704 136.267 91.6351C136.178 91.4998 136.05 91.3937 135.901 91.3301Z" fill="white"/>
<path d="M150.425 43.1138H143.359C143.14 43.1139 142.93 43.2008 142.775 43.3554C142.62 43.5101 142.533 43.7198 142.533 43.9385V51.0028C142.533 51.1109 142.555 51.218 142.596 51.3178C142.638 51.4176 142.699 51.5083 142.775 51.5846C142.852 51.6609 142.943 51.7214 143.043 51.7625C143.143 51.8037 143.25 51.8247 143.359 51.8244H150.425C150.643 51.8245 150.853 51.738 151.007 51.584C151.162 51.43 151.249 51.221 151.25 51.0028V43.9385C151.25 43.7199 151.162 43.5105 151.008 43.356C150.853 43.2015 150.644 43.1144 150.425 43.1138Z" fill="white"/>
<path d="M150.425 55.1519H143.359C143.14 55.152 142.93 55.2389 142.775 55.3935C142.62 55.5482 142.533 55.7579 142.533 55.9766V63.0409C142.533 63.149 142.555 63.2561 142.596 63.3559C142.638 63.4558 142.699 63.5464 142.775 63.6227C142.852 63.699 142.943 63.7595 143.043 63.8006C143.143 63.8418 143.25 63.8628 143.359 63.8625H150.425C150.643 63.8626 150.853 63.7762 151.007 63.6222C151.162 63.4682 151.249 63.2591 151.25 63.0409V55.9766C151.25 55.7581 151.162 55.5486 151.008 55.3941C150.853 55.2396 150.644 55.1525 150.425 55.1519Z" fill="#046AD0"/>
<path d="M150.425 67.1904H143.359C143.14 67.1905 142.93 67.2775 142.775 67.4321C142.62 67.5868 142.533 67.7965 142.533 68.0152V75.0764C142.533 75.1847 142.554 75.2921 142.596 75.3922C142.637 75.4924 142.698 75.5834 142.774 75.66C142.851 75.7366 142.942 75.7974 143.042 75.8387C143.143 75.8801 143.25 75.9013 143.359 75.9011H150.425C150.644 75.901 150.854 75.8141 151.008 75.6594C151.163 75.5048 151.25 75.2951 151.25 75.0764V68.0152C151.25 67.7967 151.162 67.5872 151.008 67.4327C150.853 67.2782 150.644 67.1911 150.425 67.1904Z" fill="#046AD0"/>
<path d="M150.425 79.2285H143.359C143.185 79.2286 143.017 79.2833 142.877 79.3846C142.736 79.486 142.632 79.6289 142.578 79.7932C142.548 79.8767 142.533 79.9647 142.533 80.0533V87.1144C142.533 87.2228 142.554 87.3301 142.596 87.4303C142.637 87.5305 142.698 87.6215 142.774 87.6981C142.851 87.7747 142.942 87.8355 143.042 87.8768C143.143 87.9182 143.25 87.9394 143.359 87.9392H150.425C150.644 87.9391 150.854 87.8522 151.008 87.6975C151.163 87.5429 151.25 87.3331 151.25 87.1144V80.0533C151.25 79.8347 151.162 79.6253 151.008 79.4708C150.853 79.3163 150.644 79.2292 150.425 79.2285Z" fill="#046AD0"/>
<path d="M150.425 91.2666H143.359C143.25 91.2664 143.143 91.2876 143.042 91.3289C142.942 91.3703 142.851 91.4311 142.774 91.5077C142.698 91.5843 142.637 91.6753 142.596 91.7755C142.554 91.8756 142.533 91.983 142.533 92.0914V99.1525C142.533 99.2609 142.554 99.3682 142.596 99.4684C142.637 99.5685 142.698 99.6595 142.774 99.7362C142.851 99.8128 142.942 99.8735 143.042 99.9149C143.143 99.9563 143.25 99.9775 143.359 99.9773H150.425C150.644 99.9772 150.854 99.8902 151.008 99.7356C151.163 99.5809 151.25 99.3712 151.25 99.1525V92.0914C151.25 91.8726 151.163 91.6629 151.008 91.5083C150.854 91.3536 150.644 91.2667 150.425 91.2666Z" fill="white"/>
<path d="M165.269 43.1138H158.202C157.983 43.1139 157.774 43.2008 157.619 43.3554C157.464 43.5101 157.377 43.7198 157.377 43.9385V51.0028C157.377 51.1109 157.399 51.218 157.44 51.3178C157.482 51.4176 157.542 51.5083 157.619 51.5846C157.696 51.6609 157.787 51.7214 157.887 51.7625C157.987 51.8037 158.094 51.8247 158.202 51.8244H165.269C165.487 51.8245 165.697 51.738 165.851 51.584C166.006 51.43 166.093 51.221 166.094 51.0028V43.9385C166.093 43.7199 166.006 43.5105 165.852 43.356C165.697 43.2015 165.487 43.1144 165.269 43.1138Z" fill="#046AD0"/>
<path d="M165.269 55.1519H158.202C157.983 55.152 157.774 55.2389 157.619 55.3935C157.464 55.5482 157.377 55.7579 157.377 55.9766V63.0409C157.377 63.149 157.399 63.2561 157.44 63.3559C157.482 63.4558 157.542 63.5464 157.619 63.6227C157.696 63.699 157.787 63.7595 157.887 63.8006C157.987 63.8418 158.094 63.8628 158.202 63.8625H165.269C165.487 63.8626 165.697 63.7762 165.851 63.6222C166.006 63.4682 166.093 63.2591 166.094 63.0409V55.9766C166.093 55.7581 166.006 55.5486 165.852 55.3941C165.697 55.2396 165.487 55.1525 165.269 55.1519Z" fill="#046AD0"/>
<path d="M165.269 67.1904H158.202C157.983 67.1905 157.774 67.2775 157.619 67.4321C157.464 67.5868 157.377 67.7965 157.377 68.0152V75.0764C157.377 75.1847 157.398 75.2921 157.439 75.3922C157.481 75.4924 157.542 75.5834 157.618 75.66C157.695 75.7366 157.786 75.7974 157.886 75.8387C157.986 75.8801 158.094 75.9013 158.202 75.9011H165.269C165.487 75.901 165.697 75.8141 165.852 75.6594C166.007 75.5048 166.094 75.2951 166.094 75.0764V68.0152C166.093 67.7967 166.006 67.5872 165.852 67.4327C165.697 67.2782 165.487 67.1911 165.269 67.1904Z" fill="white"/>
<path d="M165.269 79.2285H158.202C157.983 79.2286 157.774 79.3156 157.619 79.4702C157.464 79.6249 157.377 79.8346 157.377 80.0533V87.1144C157.377 87.2228 157.398 87.3301 157.439 87.4303C157.481 87.5305 157.542 87.6215 157.618 87.6981C157.695 87.7747 157.786 87.8355 157.886 87.8768C157.986 87.9182 158.094 87.9394 158.202 87.9392H165.269C165.487 87.9391 165.697 87.8522 165.852 87.6975C166.007 87.5429 166.094 87.3331 166.094 87.1144V80.0533C166.093 79.8348 166.006 79.6253 165.852 79.4708C165.697 79.3163 165.487 79.2292 165.269 79.2285Z" fill="#046AD0"/>
<path d="M165.269 91.2666H158.202C158.094 91.2664 157.986 91.2876 157.886 91.3289C157.786 91.3703 157.695 91.4311 157.618 91.5077C157.542 91.5843 157.481 91.6753 157.439 91.7755C157.398 91.8756 157.377 91.983 157.377 92.0914V99.1525C157.377 99.2609 157.398 99.3682 157.439 99.4684C157.481 99.5685 157.542 99.6595 157.618 99.7362C157.695 99.8128 157.786 99.8735 157.886 99.9149C157.986 99.9563 158.094 99.9775 158.202 99.9773H165.269C165.487 99.9772 165.697 99.8902 165.852 99.7356C166.007 99.5809 166.094 99.3712 166.094 99.1525V92.0914C166.094 91.8726 166.007 91.6629 165.852 91.5083C165.697 91.3536 165.487 91.2667 165.269 91.2666Z" fill="#046AD0"/>
<path d="M180.112 43.1138H173.046C172.827 43.1139 172.617 43.2008 172.463 43.3554C172.308 43.5101 172.221 43.7198 172.221 43.9385V51.0028C172.221 51.1109 172.242 51.218 172.284 51.3178C172.325 51.4176 172.386 51.5083 172.463 51.5846C172.54 51.6609 172.63 51.7214 172.731 51.7625C172.831 51.8037 172.938 51.8247 173.046 51.8244H180.112C180.331 51.8245 180.54 51.738 180.695 51.584C180.85 51.43 180.937 51.221 180.938 51.0028V43.9385C180.937 43.7199 180.85 43.5105 180.695 43.356C180.541 43.2015 180.331 43.1144 180.112 43.1138Z" fill="#046AD0"/>
<path d="M180.112 55.1519H173.046C172.827 55.152 172.617 55.2389 172.463 55.3935C172.308 55.5482 172.221 55.7579 172.221 55.9766V63.0409C172.221 63.149 172.242 63.2561 172.284 63.3559C172.325 63.4558 172.386 63.5464 172.463 63.6227C172.54 63.699 172.63 63.7595 172.731 63.8006C172.831 63.8418 172.938 63.8628 173.046 63.8625H180.112C180.331 63.8626 180.54 63.7762 180.695 63.6222C180.85 63.4682 180.937 63.2591 180.938 63.0409V55.9766C180.937 55.7581 180.85 55.5486 180.695 55.3941C180.541 55.2396 180.331 55.1525 180.112 55.1519Z" fill="white"/>
<path d="M180.112 67.1904H173.046C172.827 67.1905 172.617 67.2775 172.463 67.4321C172.308 67.5868 172.221 67.7965 172.221 68.0152V75.0764C172.22 75.1847 172.242 75.2921 172.283 75.3922C172.324 75.4924 172.385 75.5834 172.462 75.66C172.539 75.7366 172.63 75.7974 172.73 75.8387C172.83 75.8801 172.938 75.9013 173.046 75.9011H180.112C180.331 75.901 180.541 75.8141 180.696 75.6594C180.851 75.5048 180.938 75.2951 180.938 75.0764V68.0152C180.937 67.7967 180.85 67.5872 180.695 67.4327C180.541 67.2782 180.331 67.1911 180.112 67.1904Z" fill="white"/>
<path d="M180.112 79.2285H173.046C172.827 79.2286 172.617 79.3156 172.463 79.4702C172.308 79.6249 172.221 79.8346 172.221 80.0533V87.1144C172.22 87.2228 172.242 87.3301 172.283 87.4303C172.324 87.5305 172.385 87.6215 172.462 87.6981C172.539 87.7747 172.63 87.8355 172.73 87.8768C172.83 87.9182 172.938 87.9394 173.046 87.9392H180.112C180.331 87.9391 180.541 87.8522 180.696 87.6975C180.851 87.5429 180.938 87.3331 180.938 87.1144V80.0533C180.937 79.8348 180.85 79.6253 180.695 79.4708C180.541 79.3163 180.331 79.2292 180.112 79.2285Z" fill="white"/>
<path d="M180.112 91.2666H173.046C172.938 91.2664 172.83 91.2876 172.73 91.3289C172.63 91.3703 172.539 91.4311 172.462 91.5077C172.385 91.5843 172.324 91.6753 172.283 91.7755C172.242 91.8756 172.22 91.983 172.221 92.0914V99.1525C172.22 99.2609 172.242 99.3682 172.283 99.4684C172.324 99.5685 172.385 99.6595 172.462 99.7362C172.539 99.8128 172.63 99.8735 172.73 99.9149C172.83 99.9563 172.938 99.9775 173.046 99.9773H180.112C180.331 99.9772 180.541 99.8902 180.696 99.7356C180.851 99.5809 180.938 99.3712 180.938 99.1525V92.0914C180.938 91.8726 180.851 91.6629 180.696 91.5083C180.541 91.3536 180.331 91.2667 180.112 91.2666Z" fill="#046AD0"/>
<path d="M194.956 43.1138H187.887C187.668 43.1145 187.459 43.2018 187.305 43.3563C187.151 43.5109 187.064 43.7203 187.064 43.9385V51.0028C187.064 51.2207 187.151 51.4296 187.305 51.5837C187.46 51.7378 187.669 51.8243 187.887 51.8244H194.956C195.175 51.8245 195.384 51.738 195.539 51.584C195.693 51.43 195.781 51.221 195.782 51.0028V43.9385C195.781 43.7199 195.694 43.5105 195.539 43.356C195.384 43.2015 195.175 43.1144 194.956 43.1138Z" fill="white"/>
<path d="M194.956 55.1519H187.887C187.668 55.1526 187.459 55.2399 187.305 55.3944C187.151 55.549 187.064 55.7584 187.064 55.9766V63.0409C187.064 63.2588 187.151 63.4677 187.305 63.6218C187.46 63.7759 187.669 63.8625 187.887 63.8625H194.956C195.175 63.8626 195.384 63.7762 195.539 63.6222C195.693 63.4682 195.781 63.2591 195.782 63.0409V55.9766C195.781 55.7581 195.694 55.5486 195.539 55.3941C195.384 55.2396 195.175 55.1525 194.956 55.1519Z" fill="white"/>
<path d="M194.956 67.1904H187.887C187.668 67.1912 187.459 67.2784 187.305 67.433C187.151 67.5876 187.064 67.797 187.064 68.0152V75.0764C187.064 75.1845 187.085 75.2916 187.126 75.3916C187.168 75.4916 187.228 75.5825 187.304 75.6591C187.381 75.7357 187.472 75.7965 187.571 75.838C187.671 75.8795 187.778 75.901 187.887 75.9011H194.956C195.175 75.901 195.385 75.8141 195.54 75.6594C195.694 75.5048 195.781 75.2951 195.782 75.0764V68.0152C195.781 67.7967 195.694 67.5872 195.539 67.4327C195.384 67.2782 195.175 67.1911 194.956 67.1904Z" fill="white"/>
<path d="M194.956 79.2285H187.887C187.668 79.2293 187.459 79.3165 187.305 79.4711C187.151 79.6257 187.064 79.8351 187.064 80.0533V87.1144C187.064 87.2226 187.085 87.3297 187.126 87.4297C187.168 87.5297 187.228 87.6206 187.304 87.6972C187.381 87.7738 187.472 87.8346 187.571 87.8761C187.671 87.9176 187.778 87.9391 187.887 87.9392H194.956C195.175 87.9391 195.385 87.8522 195.54 87.6975C195.694 87.5429 195.781 87.3331 195.782 87.1144V80.0533C195.781 79.8348 195.694 79.6253 195.539 79.4708C195.384 79.3163 195.175 79.2292 194.956 79.2285Z" fill="#046AD0"/>
<path d="M194.956 91.2666H187.887C187.778 91.2667 187.671 91.2881 187.571 91.3297C187.472 91.3712 187.381 91.432 187.304 91.5086C187.228 91.5852 187.168 91.6761 187.126 91.7761C187.085 91.8761 187.064 91.9832 187.064 92.0914V99.1525C187.064 99.2606 187.085 99.3677 187.126 99.4677C187.168 99.5677 187.228 99.6586 187.304 99.7352C187.381 99.8119 187.472 99.8727 187.571 99.9142C187.671 99.9557 187.778 99.9772 187.887 99.9773H194.956C195.175 99.9772 195.385 99.8902 195.54 99.7356C195.694 99.5809 195.781 99.3712 195.782 99.1525V92.0914C195.781 91.8726 195.694 91.6629 195.54 91.5083C195.385 91.3536 195.175 91.2667 194.956 91.2666Z" fill="white"/>
<path d="M209.8 43.1138H202.73C202.512 43.1145 202.303 43.2018 202.149 43.3563C201.995 43.5109 201.908 43.7203 201.908 43.9385V51.0028C201.908 51.2207 201.995 51.4296 202.149 51.5837C202.303 51.7378 202.512 51.8243 202.73 51.8244H209.8C210.018 51.8245 210.228 51.738 210.383 51.584C210.537 51.43 210.625 51.221 210.625 51.0028V43.9385C210.625 43.7199 210.537 43.5105 210.383 43.356C210.228 43.2015 210.019 43.1144 209.8 43.1138Z" fill="white"/>
<path d="M209.8 55.1519H202.73C202.512 55.1526 202.303 55.2399 202.149 55.3944C201.995 55.549 201.908 55.7584 201.908 55.9766V63.0409C201.908 63.2588 201.995 63.4677 202.149 63.6218C202.303 63.7759 202.512 63.8625 202.73 63.8625H209.8C210.018 63.8626 210.228 63.7761 210.383 63.6221C210.537 63.4681 210.625 63.2591 210.625 63.0409V55.9766C210.625 55.7581 210.537 55.5487 210.383 55.3941C210.228 55.2396 210.019 55.1525 209.8 55.1519Z" fill="white"/>
<path d="M209.8 67.1904H202.73C202.512 67.1912 202.303 67.2784 202.149 67.433C201.995 67.5876 201.908 67.797 201.908 68.0152V75.0764C201.908 75.1845 201.929 75.2916 201.97 75.3916C202.011 75.4916 202.072 75.5825 202.148 75.6591C202.225 75.7357 202.315 75.7965 202.415 75.838C202.515 75.8795 202.622 75.901 202.73 75.9011H209.8C210.019 75.901 210.229 75.814 210.383 75.6594C210.538 75.5048 210.625 75.2951 210.625 75.0764V68.0152C210.625 67.7967 210.537 67.5873 210.383 67.4327C210.228 67.2782 210.019 67.1911 209.8 67.1904Z" fill="#046AD0"/>
<path d="M209.8 79.2285H202.73C202.512 79.2293 202.303 79.3165 202.149 79.4711C201.995 79.6257 201.908 79.8351 201.908 80.0533V87.1144C201.908 87.2226 201.929 87.3297 201.97 87.4297C202.011 87.5297 202.072 87.6206 202.148 87.6972C202.225 87.7738 202.315 87.8346 202.415 87.8761C202.515 87.9176 202.622 87.9391 202.73 87.9392H209.8C210.019 87.9391 210.229 87.8522 210.383 87.6975C210.538 87.5429 210.625 87.3331 210.625 87.1144V80.0533C210.625 79.8348 210.537 79.6253 210.383 79.4708C210.228 79.3163 210.019 79.2292 209.8 79.2285Z" fill="white"/>
<path d="M209.8 91.2666H202.73C202.622 91.2667 202.515 91.2881 202.415 91.3297C202.315 91.3712 202.225 91.432 202.148 91.5086C202.072 91.5852 202.011 91.6761 201.97 91.7761C201.929 91.8761 201.908 91.9832 201.908 92.0914V99.1525C201.908 99.2606 201.929 99.3677 201.97 99.4677C202.011 99.5677 202.072 99.6586 202.148 99.7352C202.225 99.8119 202.315 99.8727 202.415 99.9142C202.515 99.9557 202.622 99.9772 202.73 99.9773H209.8C210.019 99.9772 210.229 99.8902 210.383 99.7356C210.538 99.5809 210.625 99.3712 210.625 99.1525V92.0914C210.625 91.8726 210.538 91.6629 210.383 91.5083C210.229 91.3536 210.019 91.2667 209.8 91.2666Z" fill="white"/>
<path d="M224.644 43.1138H217.574C217.356 43.1145 217.147 43.2018 216.992 43.3563C216.838 43.5109 216.752 43.7203 216.752 43.9385V51.0028C216.752 51.2207 216.839 51.4296 216.993 51.5837C217.147 51.7378 217.356 51.8243 217.574 51.8244H224.644C224.862 51.8245 225.072 51.738 225.226 51.584C225.381 51.43 225.468 51.221 225.469 51.0028V43.9385C225.468 43.7199 225.381 43.5105 225.227 43.356C225.072 43.2015 224.862 43.1144 224.644 43.1138Z" fill="#046AD0"/>
<path d="M224.644 55.1519H217.574C217.356 55.1526 217.147 55.2399 216.992 55.3944C216.838 55.549 216.752 55.7584 216.752 55.9766V63.0409C216.752 63.2588 216.839 63.4677 216.993 63.6218C217.147 63.7759 217.356 63.8625 217.574 63.8625H224.644C224.862 63.8626 225.072 63.7761 225.226 63.6221C225.381 63.4681 225.468 63.2591 225.469 63.0409V55.9766C225.468 55.7581 225.381 55.5487 225.227 55.3941C225.072 55.2396 224.862 55.1525 224.644 55.1519Z" fill="#046AD0"/>
<path d="M224.644 67.1904H217.574C217.356 67.1912 217.147 67.2784 216.992 67.433C216.838 67.5876 216.752 67.797 216.752 68.0152V75.0764C216.752 75.1845 216.773 75.2916 216.814 75.3916C216.855 75.4916 216.916 75.5825 216.992 75.6591C217.068 75.7357 217.159 75.7965 217.259 75.838C217.359 75.8795 217.466 75.901 217.574 75.9011H224.644C224.863 75.901 225.072 75.814 225.227 75.6594C225.382 75.5048 225.469 75.2951 225.469 75.0764V68.0152C225.468 67.7967 225.381 67.5873 225.227 67.4327C225.072 67.2782 224.862 67.1911 224.644 67.1904Z" fill="white"/>
<path d="M224.644 79.2285H217.574C217.356 79.2293 217.147 79.3165 216.993 79.4711C216.838 79.6257 216.752 79.8351 216.752 80.0533V87.1144C216.752 87.2226 216.773 87.3297 216.814 87.4297C216.855 87.5297 216.916 87.6206 216.992 87.6972C217.068 87.7738 217.159 87.8346 217.259 87.8761C217.359 87.9176 217.466 87.9391 217.574 87.9392H224.644C224.863 87.9391 225.072 87.8522 225.227 87.6975C225.382 87.5429 225.469 87.3331 225.469 87.1144V80.0533C225.468 79.8348 225.381 79.6253 225.227 79.4708C225.072 79.3163 224.862 79.2292 224.644 79.2285Z" fill="white"/>
<path d="M224.644 91.2666H217.574C217.466 91.2667 217.359 91.2881 217.259 91.3297C217.159 91.3712 217.068 91.432 216.992 91.5086C216.916 91.5852 216.855 91.6761 216.814 91.7761C216.773 91.8761 216.752 91.9832 216.752 92.0914V99.1525C216.752 99.2606 216.773 99.3677 216.814 99.4677C216.855 99.5677 216.916 99.6586 216.992 99.7352C217.068 99.8119 217.159 99.8727 217.259 99.9142C217.359 99.9557 217.466 99.9772 217.574 99.9773H224.644C224.863 99.9772 225.072 99.8902 225.227 99.7356C225.382 99.5809 225.469 99.3712 225.469 99.1525V92.0914C225.469 91.8726 225.382 91.6629 225.227 91.5083C225.072 91.3536 224.863 91.2667 224.644 91.2666Z" fill="#046AD0"/>
<path d="M239.487 43.1138H232.418C232.2 43.1145 231.99 43.2018 231.836 43.3563C231.682 43.5109 231.596 43.7203 231.596 43.9385V51.0028C231.596 51.2207 231.682 51.4296 231.837 51.5837C231.991 51.7378 232.2 51.8243 232.418 51.8244H239.487C239.706 51.8245 239.915 51.738 240.07 51.584C240.225 51.43 240.312 51.221 240.313 51.0028V43.9385C240.312 43.7199 240.225 43.5105 240.07 43.356C239.916 43.2015 239.706 43.1144 239.487 43.1138Z" fill="#046AD0"/>
<path d="M239.487 55.1519H232.418C232.2 55.1526 231.99 55.2399 231.836 55.3944C231.682 55.549 231.596 55.7584 231.596 55.9766V63.0409C231.596 63.2588 231.682 63.4677 231.837 63.6218C231.991 63.7759 232.2 63.8625 232.418 63.8625H239.487C239.706 63.8626 239.915 63.7761 240.07 63.6221C240.225 63.4681 240.312 63.2591 240.313 63.0409V55.9766C240.312 55.7581 240.225 55.5487 240.07 55.3941C239.916 55.2396 239.706 55.1525 239.487 55.1519Z" fill="#046AD0"/>
<path d="M239.487 67.1904H232.418C232.2 67.1912 231.99 67.2784 231.836 67.433C231.682 67.5876 231.596 67.797 231.596 68.0152V75.0764C231.595 75.1845 231.616 75.2916 231.658 75.3916C231.699 75.4916 231.759 75.5825 231.836 75.6591C231.912 75.7357 232.003 75.7965 232.103 75.838C232.203 75.8795 232.31 75.901 232.418 75.9011H239.487C239.706 75.901 239.916 75.814 240.071 75.6594C240.226 75.5048 240.313 75.2951 240.313 75.0764V68.0152C240.312 67.7967 240.225 67.5873 240.07 67.4327C239.916 67.2782 239.706 67.1911 239.487 67.1904Z" fill="white"/>
<path d="M239.487 79.2285H232.418C232.2 79.2293 231.99 79.3165 231.836 79.4711C231.682 79.6257 231.596 79.8351 231.596 80.0533V87.1144C231.595 87.2226 231.616 87.3297 231.658 87.4297C231.699 87.5297 231.759 87.6206 231.836 87.6972C231.912 87.7738 232.003 87.8346 232.103 87.8761C232.203 87.9176 232.31 87.9391 232.418 87.9392H239.487C239.706 87.9391 239.916 87.8522 240.071 87.6975C240.226 87.5429 240.313 87.3331 240.313 87.1144V80.0533C240.312 79.8348 240.225 79.6253 240.07 79.4708C239.916 79.3163 239.706 79.2292 239.487 79.2285Z" fill="#046AD0"/>
<path d="M239.487 91.2666H232.418C232.31 91.2667 232.203 91.2881 232.103 91.3297C232.003 91.3712 231.912 91.432 231.836 91.5086C231.759 91.5852 231.699 91.6761 231.658 91.7761C231.616 91.8761 231.595 91.9832 231.596 92.0914V99.1525C231.595 99.2606 231.616 99.3677 231.658 99.4677C231.699 99.5677 231.759 99.6586 231.836 99.7352C231.912 99.8119 232.003 99.8727 232.103 99.9142C232.203 99.9557 232.31 99.9772 232.418 99.9773H239.487C239.706 99.9772 239.916 99.8902 240.071 99.7356C240.226 99.5809 240.313 99.3712 240.313 99.1525V92.0914C240.313 91.8726 240.226 91.6629 240.071 91.5083C239.916 91.3536 239.706 91.2667 239.487 91.2666Z" fill="#046AD0"/>
<path d="M254.331 43.1138H247.262C247.043 43.1145 246.834 43.2018 246.68 43.3563C246.526 43.5109 246.439 43.7203 246.439 43.9385V51.0028C246.439 51.2207 246.526 51.4296 246.68 51.5837C246.834 51.7378 247.044 51.8243 247.262 51.8244H254.331C254.55 51.8245 254.759 51.738 254.914 51.584C255.068 51.43 255.156 51.221 255.157 51.0028V43.9385C255.156 43.7199 255.069 43.5105 254.914 43.356C254.759 43.2015 254.55 43.1144 254.331 43.1138Z" fill="white"/>
<path d="M254.331 55.1519H247.262C247.043 55.1526 246.834 55.2399 246.68 55.3944C246.526 55.549 246.439 55.7584 246.439 55.9766V63.0409C246.439 63.2588 246.526 63.4677 246.68 63.6218C246.834 63.7759 247.044 63.8625 247.262 63.8625H254.331C254.55 63.8626 254.759 63.7761 254.914 63.6221C255.068 63.4681 255.156 63.2591 255.157 63.0409V55.9766C255.156 55.7581 255.069 55.5487 254.914 55.3941C254.759 55.2396 254.55 55.1525 254.331 55.1519Z" fill="#046AD0"/>
<path d="M254.331 67.1904H247.262C247.043 67.1912 246.834 67.2784 246.68 67.433C246.526 67.5876 246.439 67.797 246.439 68.0152V75.0764C246.439 75.1845 246.46 75.2916 246.501 75.3916C246.543 75.4916 246.603 75.5825 246.679 75.6591C246.756 75.7357 246.847 75.7965 246.946 75.838C247.046 75.8795 247.153 75.901 247.262 75.9011H254.331C254.55 75.901 254.76 75.814 254.915 75.6594C255.069 75.5048 255.156 75.2951 255.157 75.0764V68.0152C255.156 67.7967 255.069 67.5873 254.914 67.4327C254.759 67.2782 254.55 67.1911 254.331 67.1904Z" fill="#046AD0"/>
<path d="M254.331 79.2285H247.262C247.043 79.2293 246.834 79.3165 246.68 79.4711C246.526 79.6257 246.439 79.8351 246.439 80.0533V87.1144C246.439 87.2226 246.46 87.3297 246.501 87.4297C246.543 87.5297 246.603 87.6206 246.679 87.6972C246.756 87.7738 246.846 87.8346 246.946 87.8761C247.046 87.9176 247.153 87.9391 247.262 87.9392H254.331C254.55 87.9391 254.76 87.8522 254.915 87.6975C255.069 87.5429 255.156 87.3331 255.157 87.1144V80.0533C255.156 79.8348 255.069 79.6253 254.914 79.4708C254.759 79.3163 254.55 79.2292 254.331 79.2285Z" fill="#046AD0"/>
<path d="M254.331 91.2666H247.262C247.153 91.2667 247.046 91.2881 246.946 91.3297C246.846 91.3712 246.756 91.432 246.679 91.5086C246.603 91.5852 246.543 91.6761 246.501 91.7761C246.46 91.8761 246.439 91.9832 246.439 92.0914V99.1525C246.439 99.2606 246.46 99.3677 246.501 99.4677C246.543 99.5677 246.603 99.6586 246.679 99.7352C246.756 99.8119 246.846 99.8727 246.946 99.9142C247.046 99.9557 247.153 99.9772 247.262 99.9773H254.331C254.55 99.9772 254.76 99.8902 254.915 99.7356C255.069 99.5809 255.156 99.3712 255.157 99.1525V92.0914C255.156 91.8726 255.069 91.6629 254.915 91.5083C254.76 91.3536 254.55 91.2667 254.331 91.2666Z" fill="white"/>
<path d="M269.175 43.1138H262.105C261.887 43.1145 261.678 43.2018 261.524 43.3563C261.37 43.5109 261.283 43.7203 261.283 43.9385V51.0028C261.283 51.2207 261.37 51.4296 261.524 51.5837C261.678 51.7378 261.887 51.8243 262.105 51.8244H269.175C269.393 51.8245 269.603 51.738 269.758 51.584C269.912 51.43 270 51.221 270 51.0028V43.9385C270 43.7199 269.913 43.5105 269.758 43.356C269.603 43.2015 269.394 43.1144 269.175 43.1138Z" fill="white"/>
<path d="M269.175 55.1519H262.105C261.887 55.1526 261.678 55.2399 261.524 55.3944C261.37 55.549 261.283 55.7584 261.283 55.9766V63.0409C261.283 63.2588 261.37 63.4678 261.524 63.6218C261.678 63.7759 261.887 63.8625 262.105 63.8625H269.175C269.393 63.8626 269.603 63.7761 269.758 63.6221C269.912 63.4681 270 63.2591 270 63.0409V55.9766C270 55.7581 269.913 55.5487 269.758 55.3941C269.603 55.2396 269.394 55.1525 269.175 55.1519Z" fill="white"/>
<path d="M269.175 67.1904H262.105C261.887 67.1912 261.678 67.2784 261.524 67.433C261.37 67.5876 261.283 67.797 261.283 68.0152V75.0764C261.283 75.1845 261.304 75.2916 261.345 75.3916C261.386 75.4916 261.447 75.5825 261.523 75.6591C261.6 75.7357 261.69 75.7965 261.79 75.838C261.89 75.8795 261.997 75.9009 262.105 75.9011H269.175C269.394 75.901 269.604 75.814 269.758 75.6594C269.913 75.5048 270 75.2951 270 75.0764V68.0152C270 67.7967 269.913 67.5873 269.758 67.4327C269.603 67.2782 269.394 67.1911 269.175 67.1904Z" fill="#046AD0"/>
<path d="M269.175 79.2285H262.105C261.887 79.2293 261.678 79.3165 261.524 79.4711C261.37 79.6257 261.283 79.8351 261.283 80.0533V87.1144C261.283 87.2226 261.304 87.3297 261.345 87.4297C261.386 87.5297 261.447 87.6206 261.523 87.6972C261.6 87.7738 261.69 87.8346 261.79 87.8761C261.89 87.9176 261.997 87.9391 262.105 87.9392H269.175C269.394 87.9391 269.604 87.8522 269.758 87.6975C269.913 87.5429 270 87.3331 270 87.1144V80.0533C270 79.8348 269.913 79.6253 269.758 79.4708C269.603 79.3163 269.394 79.2292 269.175 79.2285Z" fill="white"/>
<path d="M269.175 91.2666H262.105C261.997 91.2667 261.89 91.2881 261.79 91.3297C261.69 91.3712 261.6 91.432 261.523 91.5086C261.447 91.5852 261.386 91.6761 261.345 91.7761C261.304 91.8761 261.283 91.9832 261.283 92.0914V99.1525C261.283 99.2606 261.304 99.3677 261.345 99.4677C261.386 99.5677 261.447 99.6586 261.523 99.7352C261.6 99.8119 261.69 99.8727 261.79 99.9142C261.89 99.9557 261.997 99.9772 262.105 99.9773H269.175C269.394 99.9772 269.604 99.8902 269.758 99.7356C269.913 99.5809 270 99.3712 270 99.1525V92.0914C270 91.8726 269.913 91.6629 269.758 91.5083C269.604 91.3536 269.394 91.2667 269.175 91.2666Z" fill="white"/>
<path d="M89.7784 63.7342C101.757 63.7342 111.467 54.0311 111.467 42.0617C111.467 30.0923 101.757 20.3892 89.7784 20.3892C77.8001 20.3892 68.0898 30.0923 68.0898 42.0617C68.0898 54.0311 77.8001 63.7342 89.7784 63.7342Z" fill="#FFB6B6"/>
<path d="M108.771 26.1717C108.771 26.1717 114.444 15.3354 101.964 14.3503C101.964 14.3503 91.3249 4.70632 80.4806 12.5872C80.4806 12.5872 74.5656 12.5872 71.331 19.2759C71.331 19.2759 66.6788 17.5128 65.6565 22.2312C65.6565 22.2312 62.2524 32.0824 65.6565 40.9484C69.0606 49.8144 70.1913 50.7995 70.1913 50.7995C70.1913 50.7995 64.5976 32.2114 78.2132 31.2263C91.8287 30.2411 107.065 21.7387 108.199 32.5749C109.334 43.4111 111.042 46.0811 111.042 46.0811C111.042 46.0811 121.819 30.6047 108.771 26.1717Z" fill="#2F2E41"/>
<path d="M145.881 95.4727L145.811 95.8407L145.027 99.9771L139.609 128.59L139.288 130.274L138.615 133.836L137.694 138.696L135.653 149.465L135.069 152.552L134.85 153.71L134.774 154.116L134.167 157.31L133.983 158.274L132.504 169.228L131.212 178.773L135.536 183.093L132.958 185.669L131.266 195.353L131.269 195.375H62.2152C59.4217 193.567 56.6683 191.703 53.9552 189.783L54.5235 185.532C54.5235 185.532 56.4789 177.941 55.6567 177.034C54.8377 176.127 53.0409 174.506 53.0409 174.506L55.3044 169.228L55.6186 168.495L55.0917 157.573L55.079 157.31L54.9044 153.71L54.8822 153.246L54.8473 152.552L54.1774 138.696L54.1647 138.468L53.9616 134.268L53.7711 130.274L53.6886 128.59L52.8728 111.736L52.3204 100.291L51.8379 90.3275L53.7775 89.6709L74.5226 82.6256L83.1158 71.4629L101.001 71.5961L109.756 71.6628L124.365 85.2013L127.688 86.7874L127.714 86.8001L130.098 87.9389L136.142 90.8223L142.532 93.874L145.811 95.4378L145.881 95.4727Z" fill="#CACACA"/>
<path d="M85.4277 162.862C84.1171 163.369 82.7111 163.583 81.3087 163.489C79.9064 163.394 78.5418 162.994 77.3111 162.316C76.0803 161.637 75.0134 160.697 74.1855 159.562C73.3576 158.428 72.7887 157.125 72.5191 155.747L38.6924 150.951L50.4515 137.659L80.7711 144.251C83.1184 143.952 85.4941 144.523 87.4479 145.857C89.4017 147.192 90.7979 149.195 91.3718 151.489C91.9458 153.784 91.6577 156.208 90.5622 158.304C89.4666 160.4 87.6397 162.022 85.4277 162.862Z" fill="#FFB6B6"/>
<path d="M70.3449 138.696C69.7184 137.902 68.8313 137.355 67.8403 137.151L53.9616 134.268L52.5363 133.973C51.7079 133.8 50.9254 133.455 50.24 132.959C49.5545 132.463 48.9816 131.828 48.5586 131.096C48.1199 130.327 47.8545 129.472 47.7809 128.59C47.7147 127.788 47.8108 126.981 48.0634 126.217L52.8727 111.736L55.9932 102.341C56.3714 101.207 56.5946 100.028 56.6567 98.8353C56.8306 95.534 55.8084 92.2807 53.7774 89.6711C51.9919 87.3774 49.5154 85.7184 46.7138 84.9392C43.9122 84.1601 40.934 84.3021 38.2194 85.3443C38.14 85.3729 38.0575 85.4046 37.9781 85.4363C36.0313 86.213 34.292 87.4316 32.8976 88.9957C31.5031 90.5598 30.4918 92.4264 29.9436 94.4483L26.5533 106.772L19.5599 132.177C18.8598 134.723 18.7184 137.389 19.1453 139.994C19.5722 142.6 20.5573 145.082 22.0332 147.271C23.5092 149.46 25.441 151.305 27.6967 152.679C29.9523 154.053 32.4784 154.924 35.1021 155.232L55.0917 157.573L64.342 158.658C65.4117 158.787 66.4905 158.508 67.3636 157.877C68.2366 157.246 68.8398 156.31 69.0529 155.255C69.0679 155.197 69.0796 155.139 69.0879 155.08L69.3101 153.71L71.1925 142.17L71.2116 142.052C71.3097 141.463 71.2832 140.861 71.134 140.282C70.9847 139.704 70.7159 139.164 70.3449 138.696Z" fill="#CACACA"/>
<path d="M106.974 163.232C108.343 163.549 109.765 163.563 111.14 163.272C112.515 162.981 113.81 162.392 114.933 161.547C116.055 160.702 116.979 159.622 117.638 158.381C118.298 157.141 118.677 155.771 118.75 154.369L151.561 144.854L138.044 133.353L108.958 144.151C106.592 144.185 104.32 145.086 102.574 146.682C100.828 148.278 99.7289 150.459 99.4844 152.811C99.2399 155.163 99.8672 157.523 101.248 159.443C102.628 161.364 104.666 162.712 106.974 163.232Z" fill="#FFB6B6"/>
<path d="M167.852 123.572L152.246 87.6822C150.97 84.7357 148.69 82.3363 145.812 80.9097C144.922 80.472 143.988 80.1317 143.025 79.8946C142.875 79.8566 142.726 79.8217 142.577 79.7931C140.535 79.3479 138.417 79.387 136.393 79.9073C134.543 80.3823 132.814 81.2417 131.318 82.4294C129.823 83.6171 128.595 85.1064 127.714 86.8004C127.705 86.8144 127.696 86.8293 127.689 86.8447C126.705 88.7463 126.182 90.8521 126.162 92.9926C126.141 95.1331 126.624 97.2485 127.571 99.1684L127.765 99.5554L138.793 121.687C139.17 122.444 139.382 123.272 139.416 124.116C139.45 124.961 139.304 125.803 138.99 126.588C138.675 127.372 138.198 128.081 137.589 128.668C136.981 129.256 136.255 129.708 135.46 129.995L134.685 130.274L120.756 135.302C119.711 135.675 118.851 136.438 118.358 137.432C117.864 138.425 117.776 139.571 118.111 140.628L118.146 140.739L122.051 153.225C122.07 153.282 122.089 153.339 122.111 153.396C122.146 153.504 122.188 153.609 122.238 153.71C122.653 154.64 123.387 155.391 124.307 155.829C125.227 156.267 126.273 156.363 127.257 156.098L134.774 154.116L136.307 153.71L155.719 148.587C158.273 147.912 160.652 146.694 162.691 145.016C164.73 143.338 166.383 141.239 167.535 138.864C168.687 136.488 169.312 133.892 169.367 131.252C169.421 128.613 168.905 125.993 167.852 123.572Z" fill="#CACACA"/>
<path d="M14.2529 153.71C18.7513 159.193 23.6026 164.376 28.7761 169.228H172.252C173.635 169.23 174.96 169.78 175.937 170.757C176.914 171.734 177.463 173.058 177.465 174.44L177.671 210.77C186.497 206.718 194.763 201.544 202.264 195.376C204.346 193.666 206.364 191.882 208.317 190.024C209.597 188.813 210.845 187.571 212.063 186.3C221.194 176.795 228.588 165.765 233.91 153.71H14.2529Z" fill="#323232"/>
<path d="M145.596 67.1904C145.445 66.9121 145.222 66.6797 144.95 66.5178C144.677 66.3559 144.367 66.2705 144.05 66.2705H39.9784C39.5118 66.2717 39.0647 66.4577 38.7351 66.7877C38.4054 67.1177 38.2201 67.5648 38.2197 68.031V130.274H145.812V68.031C145.813 67.7369 145.739 67.4474 145.596 67.1904Z" fill="#323232"/>
<path d="M38.126 128.589V136.27C38.126 136.588 38.1887 136.903 38.3107 137.198C38.4326 137.492 38.6114 137.759 38.8367 137.984C39.062 138.209 39.3295 138.388 39.6239 138.51C39.9183 138.632 40.2338 138.695 40.5525 138.695H80.264V153.853H79.7364C79.695 153.853 79.654 153.861 79.6158 153.877C79.5775 153.893 79.5428 153.916 79.5135 153.945C79.4842 153.974 79.461 154.009 79.4452 154.047C79.4293 154.086 79.4212 154.127 79.4212 154.168V155.222C79.4212 155.264 79.4293 155.305 79.4452 155.343C79.461 155.381 79.4842 155.416 79.5135 155.445C79.5428 155.474 79.5775 155.497 79.6158 155.513C79.654 155.529 79.695 155.537 79.7364 155.537H104.389C104.43 155.537 104.471 155.529 104.509 155.513C104.548 155.497 104.582 155.474 104.612 155.445C104.641 155.416 104.664 155.381 104.68 155.343C104.696 155.305 104.704 155.264 104.704 155.222V154.168C104.704 154.127 104.696 154.086 104.68 154.047C104.664 154.009 104.641 153.974 104.612 153.945C104.582 153.916 104.548 153.893 104.509 153.877C104.471 153.861 104.43 153.853 104.389 153.853H103.861V138.695H143.573C143.891 138.695 144.207 138.632 144.501 138.51C144.796 138.388 145.063 138.209 145.288 137.984C145.514 137.759 145.693 137.492 145.814 137.198C145.936 136.903 145.999 136.588 145.999 136.27V128.589H38.126Z" fill="#323232"/>
<path d="M90.7584 106.544C96.2471 106.544 100.697 102.098 100.697 96.6129C100.697 91.1283 96.2471 86.6821 90.7584 86.6821C85.2698 86.6821 80.8203 91.1283 80.8203 96.6129C80.8203 102.098 85.2698 106.544 90.7584 106.544Z" fill="#046AD0"/>
<path d="M116.08 40.8777H114.493C114.493 28.8871 102.617 21.0297 90.6366 21.0234C88.894 21.0183 87.1553 21.1873 85.4464 21.5278C83.5226 21.9116 81.5259 22.3715 79.5641 22.9711C71.8279 25.3406 64.6536 29.9212 64.6536 40.8777C64.652 43.0055 64.923 45.1248 65.46 47.1839L63.9235 47.5836C63.3536 45.3938 63.0656 43.1403 63.0664 40.8777C63.0664 31.3042 66.9996 24.7284 73.7929 20.8077C77.3642 18.7458 81.7227 17.4167 86.7161 16.7696C88.7941 16.4933 90.8948 16.4296 92.9857 16.5793C106.763 17.5689 116.08 28.1258 116.08 40.8777Z" fill="#046AD0"/>
<path d="M118.724 41.7563L118.099 37.1377C117.944 35.9713 117.382 34.8971 116.511 34.1051C115.952 33.5889 115.283 33.2064 114.554 32.9865C113.826 32.7667 113.057 32.7153 112.305 32.8363L111.312 32.9727C111.04 33.0085 110.778 33.0978 110.541 33.2356C110.303 33.3733 110.096 33.5568 109.931 33.7752C109.764 33.993 109.642 34.2416 109.571 34.5067C109.501 34.7719 109.484 35.0483 109.521 35.3201L110.966 45.9594C111.025 46.393 111.22 46.797 111.521 47.114C111.823 47.4311 112.217 47.6453 112.648 47.7262C112.775 47.7518 112.905 47.7645 113.035 47.7643C113.129 47.7643 113.222 47.7579 113.315 47.7453L114.426 47.5962C115.103 47.5063 115.755 47.2791 116.341 46.9283C116.928 46.5776 117.436 46.1107 117.835 45.5565C117.921 45.436 118.003 45.3122 118.079 45.1853C118.674 44.1474 118.902 42.9392 118.724 41.7563Z" fill="#046AD0"/>
<path d="M110.67 33.166C110.379 33.3075 110.125 33.5163 109.931 33.7751C109.764 33.9928 109.642 34.2414 109.571 34.5065C109.501 34.7717 109.484 35.0481 109.521 35.3199L110.966 45.9592C111.025 46.3928 111.22 46.7968 111.521 47.1139C111.823 47.4309 112.217 47.6451 112.648 47.726L110.67 33.166Z" fill="white"/>
<path d="M118.724 41.7561L118.099 37.1375C117.945 35.9711 117.382 34.8969 116.512 34.105L117.95 44.6903C117.971 44.8603 118.015 45.0266 118.08 45.1852C118.675 44.1473 118.902 42.9391 118.724 41.7561Z" fill="#323232"/>
<path d="M113.781 45.0841C114.216 45.0252 114.434 43.9924 114.269 42.7772C114.104 41.5619 113.618 40.6246 113.184 40.6834C112.75 40.7423 112.531 41.7752 112.696 42.9904C112.861 44.2056 113.347 45.143 113.781 45.0841Z" fill="#323232"/>
<path d="M112.829 39.3741C113.263 39.3153 113.482 38.2824 113.317 37.0672C113.152 35.852 112.666 34.9146 112.232 34.9735C111.797 35.0323 111.579 36.0652 111.744 37.2804C111.909 38.4956 112.395 39.433 112.829 39.3741Z" fill="#323232"/>
<path d="M118.86 41.5948C119.295 41.536 119.513 40.5031 119.348 39.2879C119.183 38.0727 118.697 37.1353 118.263 37.1942C117.829 37.2531 117.61 38.2859 117.775 39.5011C117.94 40.7163 118.426 41.6537 118.86 41.5948Z" fill="#323232"/>
<path d="M90.6367 21.0234C88.8941 21.0183 87.1554 21.1873 85.4464 21.5278C83.5227 21.9116 81.526 22.3715 79.5641 22.9711C76.5008 22.822 74.2469 22.029 73.793 20.8077C77.3642 18.7458 81.7228 17.4167 86.7162 16.7696C88.7941 16.4933 90.8949 16.4296 92.9858 16.5793C93.2071 16.7089 93.3985 16.8839 93.5473 17.0928C93.6961 17.3016 93.799 17.5396 93.8492 17.791C93.9984 18.8949 92.7382 20.0686 90.6367 21.0234Z" fill="#323232"/>
<path d="M70.3712 51.8849L67.9268 41.7309C67.8397 41.3646 67.6461 41.0321 67.3705 40.7753C67.0949 40.5186 66.7495 40.3489 66.3777 40.2876C66.2726 40.2712 66.1665 40.2628 66.0602 40.2622C65.9105 40.2627 65.7613 40.2808 65.6158 40.3161L64.6698 40.5445C63.4518 40.8389 62.4004 41.6041 61.7464 42.6721C61.0923 43.7402 60.889 45.024 61.1811 46.2417L62.2763 50.7968C62.5263 51.8692 63.1219 52.8299 63.9714 53.5312C64.1091 53.6422 64.2533 53.745 64.4032 53.8389C64.9353 54.1722 65.5288 54.3955 66.1487 54.4957C66.7687 54.596 67.4024 54.5711 68.0125 54.4226L68.9553 54.1942C69.2046 54.1361 69.4392 54.027 69.6442 53.8738C69.9491 53.6517 70.181 53.344 70.3104 52.9898C70.4399 52.6357 70.461 52.251 70.3712 51.8849Z" fill="#046AD0"/>
<path d="M65.2469 49.9955C65.6731 49.893 65.7857 48.8434 65.4986 47.6511C65.2115 46.4588 64.6333 45.5753 64.2071 45.6777C63.781 45.7802 63.6683 46.8298 63.9554 48.0221C64.2426 49.2144 64.8208 50.0979 65.2469 49.9955Z" fill="#323232"/>
<path d="M62.0721 50.9471C62.4983 50.8446 62.6109 49.795 62.3238 48.6027C62.0367 47.4104 61.4585 46.5269 61.0323 46.6294C60.6062 46.7319 60.4935 47.7815 60.7806 48.9738C61.0678 50.1661 61.646 51.0496 62.0721 50.9471Z" fill="#323232"/>
<path d="M70.526 51.8465L68.0816 41.6925C67.9864 41.2962 67.7763 40.9367 67.4776 40.6591C67.1789 40.3815 66.8048 40.1981 66.4023 40.1318L69.7387 54.0003C70.0682 53.7592 70.3188 53.426 70.4589 53.0426C70.5991 52.6593 70.6224 52.2431 70.526 51.8465Z" fill="white"/>
<path d="M61.7331 44.2303C61.6656 43.9479 61.539 43.683 61.3616 43.4531C61.018 44.3423 60.9549 45.3153 61.1807 46.2414L62.2759 50.7966C62.526 51.869 63.1215 52.8297 63.9711 53.531L61.7331 44.2303Z" fill="#323232"/>
</g>
<defs>
<clipPath id="clip0_916_6122">
<rect width="270" height="235" fill="white" transform="translate(0 -14)"/>
</clipPath>
</defs>
</svg>
