<svg width="27" height="27" viewBox="0 0 27 27" fill="none" xmlns="http://www.w3.org/2000/svg">
<path d="M2.52338 7.7108L12.9262 1.4738C13.1011 1.36889 13.3012 1.31348 13.5051 1.31348C13.709 1.31348 13.909 1.36889 14.0839 1.4738L24.4766 7.71192C24.56 7.76189 24.629 7.83261 24.6769 7.9172C24.7248 8.00178 24.75 8.09734 24.75 8.19455V22.5C24.75 22.7984 24.6315 23.0846 24.4205 23.2955C24.2095 23.5065 23.9234 23.625 23.625 23.625H3.375C3.07663 23.625 2.79048 23.5065 2.5795 23.2955C2.36853 23.0846 2.25 22.7984 2.25 22.5V8.19342C2.24998 8.09621 2.27515 8.00066 2.32306 7.91607C2.37097 7.83149 2.43999 7.76077 2.52338 7.7108ZM20.6393 9.27455L13.5686 15.3934L6.35287 9.2678L4.89713 10.9823L13.5821 18.3567L22.1107 10.9767L20.6393 9.27455Z" fill="#E6E6E6"/>
</svg>
