<svg width="271" height="196" viewBox="0 0 271 196" fill="none" xmlns="http://www.w3.org/2000/svg">
<path d="M1.41225 178.093C2.70874 178.626 4.10467 178.76 5.46027 178.48C6.81586 178.2 8.08353 177.517 9.13632 176.499C11.8417 173.838 12.6899 169.455 13.3801 165.396C14.0606 161.394 14.741 157.393 15.4215 153.391L11.1476 156.839C8.07414 159.319 4.9314 161.878 2.80334 165.47C0.675284 169.062 -0.25363 173.965 1.45621 177.851" fill="#E6E6E6"/>
<path d="M1.77733 192.628C1.34476 188.936 0.899977 185.197 1.20338 181.465C1.47285 178.151 2.33572 174.914 4.09241 172.261C5.02055 170.859 6.15523 169.654 7.44525 168.701C7.78051 168.453 8.08912 169.075 7.7553 169.322C5.51896 170.986 3.7989 173.418 2.8411 176.27C1.77122 179.458 1.59941 182.934 1.78378 186.321C1.89527 188.369 2.13157 190.404 2.36969 192.437C2.38886 192.528 2.37745 192.624 2.33772 192.706C2.29799 192.788 2.23283 192.85 2.15516 192.879C2.11595 192.891 2.07505 192.894 2.03481 192.888C1.99457 192.882 1.95579 192.867 1.92069 192.844C1.88558 192.82 1.85485 192.789 1.83025 192.752C1.80564 192.715 1.78766 192.673 1.77733 192.628Z" fill="#F2F2F2"/>
<path d="M5.94434 186.095C6.49042 187.079 7.25081 187.882 8.15049 188.426C9.05017 188.97 10.0581 189.236 11.0747 189.198C13.6718 189.053 15.837 186.929 17.786 184.913L23.5509 178.949L19.7355 178.735C16.9917 178.581 14.1771 178.438 11.5637 179.429C8.95035 180.42 6.54014 182.806 6.06228 185.976" fill="#E6E6E6"/>
<path d="M0.555093 194.75C2.63712 190.434 5.0521 185.636 9.36722 184.103C10.5655 183.678 11.8245 183.526 13.0737 183.654C13.4673 183.694 13.369 184.405 12.9762 184.365C10.878 184.163 8.7845 184.812 7.06115 186.199C5.39334 187.529 4.09476 189.378 2.99567 191.339C2.32244 192.541 1.71939 193.793 1.11624 195.043C0.923482 195.443 0.360088 195.154 0.555093 194.75Z" fill="#F2F2F2"/>
<path d="M111.164 65.7306C111.647 66.8762 111.721 68.1931 111.369 69.4C111.017 70.607 110.268 71.6085 109.28 72.1906C109.078 72.305 108.868 72.3999 108.652 72.4744L107.947 89.5076L101.842 84.2766L103.447 68.9036C103.243 67.8537 103.349 66.7559 103.748 65.7822C104.146 64.8085 104.816 64.014 105.651 63.5232C106.138 63.2454 106.669 63.0821 107.212 63.0429C107.755 63.0038 108.299 63.0896 108.813 63.2953C109.327 63.5009 109.8 63.8224 110.203 64.2406C110.607 64.6589 110.934 65.1655 111.164 65.7306Z" fill="#9E616A"/>
<path d="M120.086 188.456L124.033 187.543L122.903 169.272L117.079 170.62L120.086 188.456Z" fill="#9E616A"/>
<path d="M118.825 187.18L126.597 185.381L126.598 185.38C127.249 185.228 127.92 185.228 128.571 185.381C129.222 185.534 129.84 185.836 130.386 186.27C131.508 187.151 132.278 188.506 132.529 190.037L132.561 190.226L119.836 193.172L118.825 187.18Z" fill="#2F2E41"/>
<path d="M106.251 191.133H110.274L112.187 172.952H106.25L106.251 191.133Z" fill="#9E616A"/>
<path d="M105.225 189.594L113.147 189.594C113.813 189.593 114.473 189.746 115.086 190.044C115.699 190.342 116.254 190.778 116.717 191.327C117.671 192.444 118.202 193.947 118.196 195.51V195.702L105.225 195.702L105.225 189.594Z" fill="#2F2E41"/>
<path d="M51.6926 152.122C47.2273 152.119 43.6092 147.876 43.6113 142.643C43.6116 141.382 43.8275 140.133 44.2468 138.967L45.4375 139.557C44.7329 141.492 44.7174 143.667 45.3943 145.616C46.0712 147.564 47.3867 149.131 49.0592 149.982C49.8714 150.384 50.7452 150.596 51.6297 150.606C52.5142 150.616 53.3916 150.424 54.2106 150.042L54.6904 151.449C53.7389 151.895 52.7206 152.123 51.6926 152.122Z" fill="#3F3D56"/>
<path d="M64.1381 151.932H54.1172V148.902L62.1984 146.251L64.1381 151.932Z" fill="#3F3D56"/>
<path d="M60.5824 148.902H87.089C87.105 150.591 86.5351 152.218 85.5046 153.426C84.4741 154.633 83.0673 155.322 81.5937 155.341H66.0776C64.604 155.322 63.1972 154.633 62.1667 153.426C61.1362 152.218 60.5663 150.591 60.5824 148.902Z" fill="#3F3D56"/>
<path d="M89.5878 152.733H60.1719C59.1354 152.707 58.149 152.216 57.424 151.367C56.6989 150.517 56.293 149.376 56.293 148.188C56.293 147 56.6989 145.858 57.424 145.009C58.149 144.159 59.1354 143.669 60.1719 143.643H89.5878C90.6244 143.669 91.6108 144.159 92.3358 145.009C93.0608 145.858 93.4668 147 93.4668 148.188C93.4668 149.376 93.0608 150.517 92.3358 151.367C91.6108 152.216 90.6244 152.707 89.5878 152.733Z" fill="#CACACA"/>
<path d="M108.583 82.4284L108.527 85.4894L108.278 99.2387C108.27 100.148 108.107 101.047 107.796 101.885C107.485 102.722 107.034 103.481 106.467 104.117C105.9 104.754 105.229 105.257 104.493 105.597C103.757 105.936 102.969 106.106 102.175 106.097C100.714 106.059 99.3169 105.401 98.2539 104.251L81.5339 85.8192C80.8718 85.1058 80.352 84.237 80.0098 83.2721C79.6677 82.3073 79.5114 81.2691 79.5516 80.2287C79.5917 79.1882 79.8275 78.1699 80.2426 77.2435C80.6577 76.317 81.2425 75.5042 81.9569 74.8606C83.16 73.7805 84.6769 73.2662 86.199 73.4225C87.7211 73.5788 89.1341 74.3939 90.1505 75.7019L101.193 90.2601L102.254 81.1116L108.583 82.4284Z" fill="#E6E6E6"/>
<path d="M112.69 183.652L104.785 184.494L100.474 147.867C86.261 150.668 72.8528 151.566 61.2552 148.177C59.3513 147.6 57.7216 146.189 56.7185 144.246C55.7153 142.304 55.4192 139.987 55.8942 137.797C55.9393 137.582 55.9915 137.369 56.0508 137.159C57.4388 132.305 59.8842 127.103 62.7467 121.765L81.7898 129.764L82.5084 133.132L102.82 130.119C103.802 129.985 104.796 130.074 105.747 130.382C106.698 130.691 107.587 131.211 108.361 131.915C109.136 132.619 109.781 133.491 110.26 134.482C110.739 135.473 111.043 136.562 111.153 137.688C111.18 137.941 111.198 138.195 111.206 138.449L112.69 183.652Z" fill="#2F2E41"/>
<path d="M124.708 175.939L116.803 176.781L102.471 143.184C88.2581 145.985 74.8498 146.883 63.2523 143.494C61.3484 142.917 59.7187 141.505 58.7156 139.563C57.7124 137.621 57.4163 135.304 57.8912 133.114C57.9364 132.899 57.9886 132.686 58.0478 132.476C59.4359 127.622 61.8813 122.42 64.7438 117.082L86.8409 119.213L84.5055 128.449L104.817 125.436C105.799 125.301 106.794 125.391 107.745 125.699C108.696 126.007 109.584 126.528 110.358 127.232C111.133 127.936 111.778 128.808 112.257 129.799C112.737 130.79 113.04 131.879 113.15 133.005C113.177 133.258 113.195 133.512 113.203 133.766L124.708 175.939Z" fill="#2F2E41"/>
<path d="M87.4619 68.1437C92.8197 68.1437 97.1631 63.0545 97.1631 56.7767C97.1631 50.4989 92.8197 45.4097 87.4619 45.4097C82.1041 45.4097 77.7607 50.4989 77.7607 56.7767C77.7607 63.0545 82.1041 68.1437 87.4619 68.1437Z" fill="#9E616A"/>
<path d="M98.5405 75.4806C98.4439 75.6833 98.4197 75.921 98.473 76.1437C98.5262 76.3664 98.6528 76.5568 98.826 76.6747C99.0855 76.7116 105.182 81.218 105.355 80.702C105.452 80.6695 105.541 80.6153 105.619 80.5425C105.697 80.4696 105.761 80.3797 105.808 80.278L115.619 59.2289C115.673 59.1135 115.704 58.9859 115.71 58.8552C115.716 58.7245 115.697 58.5939 115.654 58.4725C115.925 57.9302 108.891 55.8501 108.651 55.6874C108.487 55.6298 108.31 55.6397 108.152 55.7152C107.993 55.7907 107.862 55.9271 107.782 56.1011L98.5405 75.4806Z" fill="#3F3D56"/>
<path d="M114.21 58.7849C114.21 58.7849 108.322 56.8853 108.421 56.8044C108.262 56.797 107.94 56.5332 107.838 56.805L99.0995 75.2652C98.7237 75.6677 104.9 78.9547 104.953 79.1499C105.44 79.502 114.067 59.2341 114.333 59.13C114.359 59.074 114.365 59.0087 114.35 58.9479C114.334 58.887 114.299 58.8356 114.25 58.8044C114.237 58.7962 114.224 58.7897 114.21 58.7849Z" fill="#1165BA"/>
<path d="M92.8916 74.415C92.9786 74.1613 93.0359 73.8955 93.062 73.6245C93.1428 72.834 92.9476 72.0389 92.519 71.4126C92.0903 70.7864 91.463 70.3799 90.7738 70.2817L86.2636 69.7012C85.9225 69.6613 85.5778 69.699 85.2495 69.8123C84.9211 69.9256 84.6156 70.1123 84.3504 70.3615C84.0853 70.6107 83.8657 70.9175 83.7044 71.2643C83.5432 71.6112 83.4433 71.9912 83.4107 72.3824C83.3445 73.0761 83.4864 73.775 83.8132 74.3639C81.5009 74.6552 79.3136 75.7161 77.5213 77.4157C75.729 79.1153 74.4101 81.3793 73.7275 83.9282C69.2714 93.4205 66.0638 104.4 64.5547 117.405L84.5776 128.303L92.2036 109.607L93.7383 106.847C94.0372 106.483 94.323 106.119 94.5936 105.749C96.1731 103.701 97.4402 101.363 98.3416 98.8326C98.9701 97.0189 99.3394 95.1009 99.4354 93.1525C99.741 86.92 97.1904 80.6735 92.8916 74.415Z" fill="#E4E4E4"/>
<path opacity="0.2" d="M98.3418 98.8326C97.4404 101.363 96.1732 103.701 94.5937 105.749C94.3231 106.119 94.0374 106.483 93.7384 106.847L92.2038 109.607C86.5468 104.747 81.9634 85.6111 81.9634 85.6111L88.3461 84.188L98.3418 98.8326Z" fill="black"/>
<path d="M102.206 69.2057C101.647 70.306 101.485 71.613 101.754 72.8484C102.023 74.0838 102.702 75.1502 103.646 75.8206C103.84 75.9534 104.043 76.0676 104.253 76.162L103.802 93.2069L110.242 88.5604L109.683 73.0865C109.957 72.0568 109.926 70.9521 109.595 69.9448C109.263 68.9375 108.65 68.0842 107.852 67.5182C107.386 67.1955 106.869 66.9831 106.331 66.8933C105.793 66.8036 105.244 66.8384 104.718 66.9957C104.192 67.153 103.698 67.4296 103.267 67.8092C102.835 68.1888 102.475 68.6636 102.206 69.2057Z" fill="#9E616A"/>
<path d="M103.235 86.7728L110.318 87.9271L110.013 104.737C109.995 105.936 109.711 107.11 109.185 108.147C108.66 109.185 107.913 110.051 107.013 110.664C105.914 111.405 104.635 111.716 103.368 111.552C102.102 111.387 100.916 110.754 99.9899 109.75L83.2699 91.3168C82.0935 90.0377 81.3895 88.2906 81.3026 86.4347C81.2157 84.5788 81.7526 82.7553 82.8028 81.3393C83.3225 80.6342 83.9604 80.056 84.6788 79.6389C85.3972 79.2218 86.1814 78.9744 86.9848 78.9114C87.7882 78.8483 88.5945 78.9709 89.3558 79.2718C90.117 79.5728 90.8178 80.0459 91.4165 80.6632C91.5817 80.8326 91.7389 81.012 91.8873 81.2007L102.928 95.758L103.235 86.7728Z" fill="#E6E6E6"/>
<path d="M45.3024 143.264C43.656 143.241 42.0849 142.47 40.9335 141.121C39.7821 139.772 39.1446 137.955 39.1607 136.068V95.5405C39.1426 94.6029 39.2882 93.6708 39.5887 92.7986C39.8893 91.9264 40.3388 91.1319 40.9109 90.4615C41.483 89.7912 42.1661 89.2586 42.9203 88.8949C43.6744 88.5313 44.4843 88.344 45.3024 88.344C46.1206 88.344 46.9305 88.5313 47.6846 88.8949C48.4387 89.2586 49.1219 89.7912 49.694 90.4615C50.2661 91.1319 50.7156 91.9264 51.0162 92.7986C51.3167 93.6708 51.4623 94.6029 51.4442 95.5405V136.068C51.4603 137.955 50.8227 139.772 49.6714 141.121C48.52 142.47 46.9488 143.241 45.3024 143.264Z" fill="#CACACA"/>
<path d="M83.8563 190.779H76.4215V153.68H73.8355V190.779H66.4008C65.2739 190.793 64.1981 191.32 63.4101 192.243C62.622 193.166 62.1862 194.411 62.1985 195.702L88.0586 195.702C88.0709 194.411 87.6351 193.166 86.847 192.243C86.059 191.32 84.9832 190.793 83.8563 190.779Z" fill="#3F3D56"/>
<path d="M95.8989 43.8955C93.8261 42.4978 91.3029 42.4946 88.9115 42.5295C87.1788 42.5548 85.4462 42.58 83.7135 42.6053C81.6104 42.636 79.3904 42.7045 77.5988 43.9955C75.8072 45.2864 74.7217 48.2617 75.9046 50.2995C72.3866 46.7178 67.1178 46.152 62.7081 47.9189C60.5501 48.7836 58.5079 50.1871 57.0422 52.2344C55.45 54.4585 54.6212 57.3222 54.288 60.1987C53.9547 63.0753 54.0849 65.9945 54.2156 68.8934C54.2978 70.7162 54.4781 72.7719 55.7021 73.9009C56.8314 74.9423 58.4865 74.7851 59.798 74.0968C62.0851 72.8964 63.6663 70.3807 64.8482 67.7914C66.0302 65.2021 66.9313 62.4179 68.4029 60.0412C69.8747 57.6644 72.0948 55.6765 74.6009 55.6423C72.8968 58.4752 72.5858 62.5926 74.3667 65.3597C75.6475 67.3496 77.7845 68.3827 79.8998 68.6451C82.0149 68.9075 84.1437 68.4905 86.241 68.0748C87.661 67.7934 89.3311 67.2764 89.8011 65.6812C90.262 64.1171 89.2738 62.5374 88.851 60.9586C88.035 57.9114 89.7092 54.2692 92.3297 53.3907L92.1161 53.1492C94.2859 53.5038 96.8849 53.1749 98.0401 50.9937C99.3013 48.6126 97.9716 45.2933 95.8989 43.8955Z" fill="#2F2E41"/>
<path d="M268.145 67.6632H147.423C146.823 67.6548 146.252 67.3743 145.832 66.8832C145.413 66.3922 145.181 65.7307 145.187 65.0438V2.9674C145.181 2.2805 145.413 1.61899 145.832 1.12794C146.252 0.63688 146.823 0.35636 147.423 0.3479H268.145C268.744 0.356368 269.316 0.636886 269.735 1.12794C270.154 1.619 270.386 2.28051 270.38 2.9674V65.0438C270.386 65.7307 270.154 66.3922 269.735 66.8832C269.316 67.3743 268.744 67.6548 268.145 67.6632Z" fill="#1165BA"/>
<path d="M172.008 21.9851C171.602 21.9953 171.216 22.1872 170.933 22.5196C170.649 22.852 170.49 23.2985 170.49 23.7635C170.49 24.2285 170.649 24.675 170.933 25.0074C171.216 25.3398 171.602 25.5317 172.008 25.5419H243.56C243.965 25.5308 244.35 25.3386 244.633 25.0063C244.916 24.674 245.075 24.2279 245.075 23.7635C245.075 23.2991 244.916 22.853 244.633 22.5207C244.35 22.1884 243.965 21.9962 243.56 21.9851L172.008 21.9851Z" fill="white"/>
<path d="M172.008 32.2898C171.603 32.3009 171.217 32.4931 170.934 32.8254C170.651 33.1577 170.493 33.6037 170.493 34.0682C170.493 34.5326 170.651 34.9787 170.934 35.311C171.217 35.6433 171.603 35.8355 172.008 35.8466H243.56C243.965 35.8355 244.35 35.6433 244.633 35.311C244.916 34.9787 245.075 34.5326 245.075 34.0682C245.075 33.6037 244.916 33.1577 244.633 32.8254C244.35 32.4931 243.965 32.3009 243.56 32.2898H172.008Z" fill="white"/>
<path d="M172.008 42.4695C171.602 42.4797 171.216 42.6716 170.933 43.004C170.649 43.3364 170.49 43.7829 170.49 44.2479C170.49 44.7129 170.649 45.1594 170.933 45.4918C171.216 45.8242 171.602 46.016 172.008 46.0263H202.797C203.203 46.016 203.589 45.8242 203.872 45.4918C204.156 45.1594 204.315 44.7129 204.315 44.2479C204.315 43.7829 204.156 43.3364 203.872 43.004C203.589 42.6716 203.203 42.4797 202.797 42.4695H172.008Z" fill="white"/>
</svg>
