<svg width="114" height="114" viewBox="0 0 114 114" fill="none" xmlns="http://www.w3.org/2000/svg">
<path d="M57 113.25C49.2596 113.25 41.9679 111.77 35.125 108.809C28.2821 105.848 22.3226 101.83 17.2464 96.7536C12.1703 91.6774 8.15182 85.7179 5.19109 78.875C2.23037 72.0321 0.75 64.7404 0.75 57C0.75 49.2355 2.23037 41.9379 5.19109 35.107C8.15182 28.2761 12.1703 22.3226 17.2464 17.2464C22.3226 12.1703 28.2821 8.15182 35.125 5.19109C41.9679 2.23036 49.2596 0.75 57 0.75C64.7645 0.75 72.0621 2.23036 78.893 5.19109C85.7239 8.15182 91.6774 12.1703 96.7536 17.2464C101.83 22.3226 105.848 28.2761 108.809 35.107C111.77 41.9379 113.25 49.2355 113.25 57C113.25 64.7404 111.77 72.0321 108.809 78.875C105.848 85.7179 101.83 91.6774 96.7536 96.7536C91.6774 101.83 85.7239 105.848 78.893 108.809C72.0621 111.77 64.7645 113.25 57 113.25ZM57 107.048C60.6699 102.337 63.6947 97.7092 66.0745 93.1659C68.4543 88.6226 70.3894 83.5384 71.8798 77.9134H42.1202C43.7708 83.859 45.7459 89.1034 48.0456 93.6467C50.3453 98.1899 53.3301 102.657 57 107.048ZM49.0433 106.111C46.1266 102.673 43.4643 98.4243 41.0564 93.3642C38.6486 88.3041 36.8557 83.1539 35.6778 77.9134H11.7116C15.2933 85.6859 20.3715 92.0602 26.9459 97.0361C33.5204 102.012 40.8862 105.037 49.0433 106.111ZM64.9567 106.111C73.1138 105.037 80.4796 102.012 87.0541 97.0361C93.6285 92.0602 98.7067 85.6859 102.288 77.9134H78.3222C76.7436 83.234 74.7505 88.4243 72.3427 93.4844C69.9347 98.5445 67.4728 102.753 64.9567 106.111ZM9.16344 71.6634H34.3798C33.907 69.0994 33.5725 66.6014 33.3763 64.1695C33.1799 61.7376 33.0817 59.3477 33.0817 57C33.0817 54.6523 33.1799 52.2624 33.3763 49.8305C33.5725 47.3986 33.907 44.9006 34.3798 42.3366H9.16344C8.48239 44.5 7.95156 46.8578 7.57094 49.4098C7.19031 51.9619 7 54.492 7 57C7 59.508 7.19031 62.0381 7.57094 64.5902C7.95156 67.1422 8.48239 69.5 9.16344 71.6634ZM40.6298 71.6634H73.3702C73.843 69.0994 74.1775 66.6415 74.3737 64.2897C74.5701 61.9379 74.6683 59.508 74.6683 57C74.6683 54.492 74.5701 52.0621 74.3737 49.7103C74.1775 47.3585 73.843 44.9006 73.3702 42.3366H40.6298C40.157 44.9006 39.8225 47.3585 39.6263 49.7103C39.4299 52.0621 39.3317 54.492 39.3317 57C39.3317 59.508 39.4299 61.9379 39.6263 64.2897C39.8225 66.6415 40.157 69.0994 40.6298 71.6634ZM79.6202 71.6634H104.837C105.518 69.5 106.048 67.1422 106.429 64.5902C106.81 62.0381 107 59.508 107 57C107 54.492 106.81 51.9619 106.429 49.4098C106.048 46.8578 105.518 44.5 104.837 42.3366H79.6202C80.093 44.9006 80.4276 47.3986 80.6239 49.8305C80.8202 52.2624 80.9183 54.6523 80.9183 57C80.9183 59.3477 80.8202 61.7376 80.6239 64.1695C80.4276 66.6014 80.093 69.0994 79.6202 71.6634ZM78.3222 36.0866H102.288C98.6266 28.1539 93.6085 21.7796 87.2344 16.9639C80.8602 12.1483 73.4343 9.08338 64.9567 7.76922C67.8734 11.6073 70.4956 15.9964 72.8233 20.9363C75.1511 25.8761 76.9841 30.9263 78.3222 36.0866ZM42.1202 36.0866H71.8798C70.2292 30.2211 68.194 24.9167 65.7741 20.1731C63.3542 15.4295 60.4295 11.0224 57 6.95188C53.5705 11.0224 50.6458 15.4295 48.2259 20.1731C45.806 24.9167 43.7708 30.2211 42.1202 36.0866ZM11.7116 36.0866H35.6778C37.0159 30.9263 38.8489 25.8761 41.1767 20.9363C43.5044 15.9964 46.1266 11.6073 49.0433 7.76922C40.4856 9.08338 33.0396 12.1683 26.7055 17.0241C20.3714 21.8798 15.3734 28.234 11.7116 36.0866Z" fill="#046AD0"/>
</svg>
