<svg width="220" height="234" viewBox="0 0 220 234" fill="none" xmlns="http://www.w3.org/2000/svg">
<g clip-path="url(#clip0_566_2049)">
<path d="M103.164 133.956C87.7783 133.956 70.0967 116.883 54.4529 124.995C7.08757 149.556 13.6077 108.457 0 93.1724L0.446742 92.2764C15.4612 105.739 34.2073 116.693 54.6585 123.953C73.14 130.514 91.7601 133.554 108.499 132.752L108.528 133.829C106.76 133.914 104.972 133.957 103.164 133.956Z" fill="#F2F2F2"/>
<path d="M215.47 34.7243C203.206 44.0134 178.802 41.0788 171.229 56.9905C148.3 105.167 128.684 68.4681 108.608 64.4994L108.423 63.5154C128.521 65.1822 150.078 62.5959 170.764 56.0355C189.458 50.1074 206.137 41.2887 218.996 30.5428L219.67 31.3839C218.312 32.5192 216.912 33.6327 215.47 34.7243Z" fill="#F2F2F2"/>
<path d="M34.09 62.3041C35.8661 62.3041 37.3059 60.3734 37.3059 57.9917C37.3059 55.6101 35.8661 53.6793 34.09 53.6793C32.3139 53.6793 30.874 55.6101 30.874 57.9917C30.874 60.3734 32.3139 62.3041 34.09 62.3041Z" fill="#E6E6E6"/>
<path d="M169.24 102.659C171.016 102.659 172.456 100.728 172.456 98.3464C172.456 95.9647 171.016 94.0339 169.24 94.0339C167.464 94.0339 166.024 95.9647 166.024 98.3464C166.024 100.728 167.464 102.659 169.24 102.659Z" fill="#E6E6E6"/>
<path d="M80.9171 8.62483C82.6932 8.62483 84.1331 6.69409 84.1331 4.31241C84.1331 1.93073 82.6932 0 80.9171 0C79.141 0 77.7012 1.93073 77.7012 4.31241C77.7012 6.69409 79.141 8.62483 80.9171 8.62483Z" fill="#E6E6E6"/>
<path d="M138.572 159.184L134.832 136.694C134.757 136.239 134.866 135.772 135.134 135.397C135.402 135.021 135.809 134.768 136.264 134.691L153.249 131.867C153.704 131.792 154.171 131.9 154.546 132.169C154.922 132.437 155.175 132.843 155.251 133.298L158.991 155.789C159.066 156.244 158.958 156.711 158.69 157.086C158.421 157.461 158.015 157.715 157.56 157.791L140.575 160.616C140.119 160.691 139.653 160.582 139.277 160.314C138.902 160.046 138.648 159.639 138.572 159.184Z" fill="#3F3D56"/>
<path d="M138.745 152.175L136.341 137.716C136.271 137.289 136.372 136.852 136.624 136.501C136.875 136.149 137.255 135.912 137.682 135.84L152.279 133.413C152.705 133.343 153.142 133.444 153.494 133.696C153.846 133.947 154.083 134.327 154.154 134.754L157.482 154.767C157.553 155.193 157.451 155.63 157.2 155.982C156.949 156.333 156.568 156.571 156.142 156.642L147.099 158.146C145.2 158.46 143.254 158.007 141.688 156.888C140.121 155.768 139.063 154.073 138.745 152.175Z" fill="white"/>
<path d="M139.375 141.357C139.307 140.94 139.406 140.513 139.651 140.17C139.897 139.826 140.269 139.594 140.685 139.524L150.811 137.841C151.018 137.806 151.229 137.813 151.433 137.86C151.636 137.907 151.829 137.994 151.999 138.116C152.169 138.238 152.314 138.392 152.424 138.569C152.535 138.747 152.61 138.944 152.644 139.151C152.678 139.357 152.672 139.568 152.624 139.772C152.577 139.976 152.49 140.168 152.369 140.338C152.247 140.508 152.093 140.653 151.915 140.764C151.738 140.874 151.54 140.949 151.334 140.983L141.208 142.667C140.791 142.736 140.364 142.637 140.021 142.391C139.677 142.145 139.445 141.774 139.375 141.357Z" fill="#1165BA"/>
<path d="M140.188 146.246C140.119 145.829 140.219 145.402 140.464 145.058C140.71 144.715 141.082 144.483 141.498 144.413L151.624 142.729C151.831 142.695 152.042 142.701 152.246 142.749C152.449 142.796 152.642 142.883 152.812 143.005C152.982 143.126 153.127 143.28 153.237 143.458C153.348 143.635 153.423 143.833 153.457 144.039C153.491 144.245 153.485 144.457 153.437 144.66C153.39 144.864 153.303 145.057 153.182 145.227C153.06 145.397 152.906 145.541 152.728 145.652C152.551 145.763 152.353 145.837 152.147 145.872L142.021 147.556C141.604 147.624 141.177 147.525 140.834 147.279C140.49 147.034 140.258 146.662 140.188 146.246Z" fill="#1165BA"/>
<path d="M141.001 151.134C140.932 150.717 141.032 150.29 141.277 149.947C141.523 149.603 141.895 149.371 142.311 149.301L152.437 147.618C152.854 147.548 153.281 147.647 153.625 147.893C153.969 148.139 154.201 148.511 154.27 148.928C154.339 149.344 154.24 149.771 153.995 150.115C153.749 150.459 153.377 150.691 152.96 150.76L142.834 152.444C142.417 152.513 141.99 152.414 141.647 152.168C141.303 151.922 141.071 151.55 141.001 151.134Z" fill="#1165BA"/>
<path d="M130.903 137.986C130.461 137.489 130.133 136.9 129.942 136.262C129.752 135.623 129.704 134.951 129.802 134.292C129.9 133.633 130.141 133.004 130.508 132.448C130.875 131.893 131.36 131.424 131.927 131.076L126.003 102.866L133.855 105.885L138.401 132.836C138.923 133.829 139.062 134.978 138.793 136.067C138.523 137.155 137.864 138.107 136.94 138.742C136.016 139.377 134.891 139.65 133.778 139.511C132.665 139.372 131.642 138.83 130.903 137.986Z" fill="#FFB8B8"/>
<path d="M128.289 227.21L134.752 227.21L137.827 202.279L128.288 202.279L128.289 227.21Z" fill="#FFB6B6"/>
<path d="M126.64 225.1L128.459 225.1L135.562 222.211L139.369 225.099H139.37C141.521 225.099 143.584 225.954 145.105 227.475C146.627 228.996 147.481 231.06 147.481 233.211V233.475L126.641 233.475L126.64 225.1Z" fill="#2F2E41"/>
<path d="M69.8872 218.807L75.672 221.69L89.5452 200.749L81.0076 196.494L69.8872 218.807Z" fill="#FFB6B6"/>
<path d="M69.3527 216.183L70.981 216.994L78.6264 217.577L80.7452 221.86L80.7456 221.861C82.671 222.821 84.1363 224.506 84.8191 226.546C85.502 228.586 85.3466 230.814 84.387 232.739L84.2694 232.975L65.6167 223.679L69.3527 216.183Z" fill="#2F2E41"/>
<path d="M131.153 113.984L90.056 115.056L90.7707 135.068C90.7707 135.068 90.056 140.429 91.4854 141.858C92.9149 143.288 93.6296 143.288 92.9149 145.789C92.2001 148.291 90.3524 172.192 90.3524 172.192C90.3524 172.192 73.4851 202.016 74.1999 202.731C74.9146 203.446 75.6293 202.731 74.9146 204.518C74.1999 206.305 73.4851 205.59 74.1999 206.305C74.833 206.987 75.4294 207.703 75.9867 208.449H87.6354C87.6354 208.449 88.2868 204.875 88.2868 204.518C88.2868 204.16 89.0015 202.016 89.0015 201.659C89.0015 201.301 109.353 179.739 109.353 179.739L113.642 144.002L124.005 179.024C124.005 179.024 124.005 209.757 124.72 210.472C125.435 211.186 125.435 210.829 125.077 212.258C124.72 213.688 123.291 213.331 124.363 214.403C125.435 215.475 125.792 213.688 125.435 215.475L125.077 217.262L138.807 217.415C138.807 217.415 140.236 214.403 139.522 213.331C138.807 212.258 138.85 212.551 139.722 210.797C140.594 209.042 140.951 208.685 140.594 208.327C140.236 207.97 140.236 206.069 140.236 206.069C140.236 206.069 135.084 135.783 135.084 134.711C135.057 134.159 135.158 133.609 135.38 133.103V131.648L134.012 126.492L131.153 113.984Z" fill="#2F2E41"/>
<path d="M168.199 213.779L168.554 205.806C172.25 203.83 176.373 202.786 180.565 202.766C174.796 207.482 175.517 216.573 171.606 222.916C170.371 224.885 168.709 226.55 166.742 227.789C164.776 229.028 162.556 229.809 160.247 230.074L155.42 233.029C154.758 229.337 154.904 225.544 155.848 221.913C156.792 218.282 158.513 214.899 160.891 211.997C162.241 210.382 163.789 208.944 165.498 207.716C166.654 210.764 168.199 213.779 168.199 213.779Z" fill="#F2F2F2"/>
<path d="M109.872 43.8008L130.457 85.4315L126.43 135.956L100.126 133.552L95.4087 49.8806L109.872 43.8008Z" fill="#2F2E41"/>
<path d="M138.778 130.378L126.749 129.278L126.73 129.126L118.658 62.2894L120.465 57.281C120.897 56.0919 121.629 55.0348 122.591 54.2125C123.553 53.3902 124.71 52.8306 125.952 52.5882C126.898 52.406 127.871 52.4125 128.814 52.6079C129.758 52.8033 130.653 53.1834 131.449 53.7263C132.245 54.2693 132.925 54.9643 133.451 55.7714C133.977 56.5785 134.338 57.4817 134.514 58.429L136.674 70.0972L139.738 109.539L138.778 130.378Z" fill="#2F2E41"/>
<path d="M107.46 49.9745L109.886 44.1704L117.395 44.3022L125.224 55.3767L133.441 89.9344C133.441 89.9344 136.392 115.179 133.441 116.511C130.49 117.844 120.486 116.198 120.486 116.198L107.46 49.9745Z" fill="#1165BA"/>
<path d="M117.395 44.3022C117.395 44.3022 133.568 53.6515 134.201 58.5318C134.833 63.4121 136.951 123.144 136.951 123.144L131.232 119.449L129.668 97.6782L122.688 53.106L117.395 44.3022Z" fill="#2F2E41"/>
<path d="M113.576 41.5829C119.664 41.5829 124.599 36.6478 124.599 30.5601C124.599 24.4724 119.664 19.5374 113.576 19.5374C107.489 19.5374 102.554 24.4724 102.554 30.5601C102.554 36.6478 107.489 41.5829 113.576 41.5829Z" fill="#FFB8B8"/>
<path d="M101.074 23.3174C102.311 21.4026 104.634 20.1264 106.886 20.485C107.095 19.048 107.695 17.696 108.62 16.5763C109.545 15.4566 110.759 14.6121 112.13 14.1347C113.502 13.6572 114.978 13.5652 116.398 13.8687C117.818 14.1721 119.128 14.8594 120.184 15.8556C120.532 15.6109 120.937 15.4602 121.359 15.4178C121.782 15.3755 122.209 15.4431 122.598 15.614C123.373 15.9664 124.047 16.5076 124.559 17.188C125.851 18.7993 126.682 20.7307 126.963 22.7768C127.245 24.8228 126.966 26.9069 126.157 28.8072C126.432 27.8068 125.43 26.8656 124.417 26.6411C123.404 26.4167 122.341 26.629 121.314 26.4828C119.997 26.2955 118.814 25.5318 117.495 25.3599C116.387 25.2154 115.273 25.4996 114.192 25.7844C113.111 26.0691 112 26.3596 110.89 26.2278C109.78 26.096 108.35 30.3019 108.37 33.2643C108.373 33.8257 108.258 34.5465 107.709 34.6656C107.033 34.8123 106.642 33.8798 105.999 33.6257C105.702 33.5408 105.385 33.5742 105.112 33.719C104.84 33.8637 104.635 34.1085 104.539 34.4017C104.458 34.6998 104.45 35.013 104.514 35.3151C104.579 35.6172 104.714 35.8996 104.91 36.1387C105.305 36.6127 105.774 37.0198 106.299 37.3442L106.035 37.5645C105.594 38.1465 104.68 38.1717 104.045 37.8116C103.438 37.4004 102.946 36.8405 102.617 36.1852C101.442 34.2312 100.411 32.1493 99.9969 29.9073C99.5823 27.6653 99.836 25.2323 101.074 23.3174Z" fill="#2F2E41"/>
<path d="M77.0642 104.951L99.0862 81.3249C99.5324 80.8472 100.15 80.566 100.803 80.543C101.457 80.5201 102.092 80.7572 102.571 81.2024L120.414 97.8338C120.892 98.2801 121.173 98.8976 121.196 99.551C121.219 100.204 120.982 100.84 120.537 101.319L98.5147 124.945C98.0685 125.423 97.451 125.704 96.7977 125.727C96.1443 125.75 95.5086 125.513 95.0299 125.068L77.1867 108.436C76.709 107.99 76.4278 107.372 76.4048 106.719C76.3819 106.066 76.619 105.43 77.0642 104.951Z" fill="#E6E6E6"/>
<path d="M85.0845 99.0909L99.2422 83.9016C99.6602 83.4542 100.239 83.1909 100.85 83.1694C101.462 83.1479 102.058 83.37 102.506 83.7869L117.841 98.0803C118.288 98.4982 118.551 99.0765 118.573 99.6884C118.594 100.3 118.372 100.896 117.955 101.344L98.3589 122.368C97.941 122.816 97.3626 123.079 96.7507 123.101C96.1389 123.122 95.5435 122.9 95.0952 122.483L85.5956 113.629C83.6028 111.767 82.4298 109.191 82.334 106.465C82.2382 103.74 83.2274 101.088 85.0845 99.0909Z" fill="white"/>
<path d="M97.7748 90.454C98.1832 90.0168 98.7483 89.7595 99.3462 89.7385C99.9441 89.7174 100.526 89.9345 100.964 90.3419L111.602 100.257C112.039 100.665 112.297 101.23 112.318 101.829C112.339 102.427 112.122 103.009 111.714 103.446C111.306 103.884 110.74 104.142 110.142 104.163C109.544 104.184 108.962 103.967 108.525 103.559L97.8869 93.6433C97.4497 93.2349 97.1923 92.6697 97.1713 92.0718C97.1503 91.4739 97.3673 90.8921 97.7748 90.454Z" fill="#E6E6E6"/>
<path d="M92.9882 95.5895C93.3966 95.1523 93.9617 94.895 94.5596 94.874C95.1575 94.8529 95.7393 95.07 96.1774 95.4774L106.815 105.393C107.032 105.595 107.207 105.837 107.33 106.107C107.453 106.377 107.521 106.668 107.532 106.964C107.542 107.26 107.494 107.556 107.39 107.833C107.287 108.111 107.129 108.365 106.927 108.582C106.725 108.799 106.482 108.974 106.213 109.096C105.943 109.219 105.652 109.288 105.356 109.298C105.06 109.309 104.764 109.261 104.487 109.157C104.209 109.053 103.955 108.896 103.738 108.694L93.1003 98.7788C92.6631 98.3704 92.4057 97.8052 92.3847 97.2073C92.3637 96.6094 92.5807 96.0276 92.9882 95.5895Z" fill="#E6E6E6"/>
<path d="M88.2015 100.725C88.6099 100.288 89.1751 100.03 89.773 100.009C90.3709 99.9883 90.9527 100.205 91.3908 100.613L102.028 110.528C102.466 110.936 102.724 111.501 102.745 112.099C102.766 112.698 102.549 113.28 102.141 113.717C101.733 114.155 101.167 114.413 100.569 114.434C99.9711 114.455 99.3891 114.237 98.9513 113.829L88.3136 103.914C87.8764 103.506 87.6191 102.941 87.5981 102.343C87.5771 101.745 87.7941 101.163 88.2015 100.725Z" fill="#E6E6E6"/>
<path d="M114.084 128.886L106.47 139.787L106.116 140.215C105.499 140.956 104.647 141.465 103.702 141.656C103.568 141.683 103.433 141.703 103.298 141.716C103.132 141.733 102.964 141.74 102.796 141.737C102.7 141.735 102.605 141.73 102.509 141.722C101.954 141.674 101.413 141.516 100.919 141.258L97.6706 138.99C97.412 138.809 97.2275 138.541 97.1513 138.235C97.1135 138.084 97.1027 137.927 97.1195 137.772C97.1434 137.555 97.2217 137.347 97.3471 137.168L106.722 123.744C106.921 123.46 107.225 123.266 107.566 123.206C107.908 123.145 108.259 123.222 108.544 123.421L113.761 127.064C113.773 127.072 113.785 127.081 113.797 127.09C113.805 127.096 113.813 127.102 113.82 127.108C113.831 127.116 113.841 127.124 113.85 127.133C113.863 127.143 113.875 127.153 113.887 127.164C113.898 127.174 113.909 127.184 113.92 127.195L113.926 127.201C113.94 127.214 113.954 127.227 113.966 127.241C113.979 127.255 113.992 127.269 114.004 127.283C114.013 127.294 114.022 127.304 114.031 127.315L114.032 127.316C114.057 127.347 114.08 127.38 114.102 127.414C114.11 127.424 114.116 127.435 114.123 127.445L114.126 127.45C114.131 127.458 114.136 127.467 114.141 127.476C114.156 127.501 114.17 127.528 114.184 127.555C114.206 127.599 114.225 127.645 114.242 127.692C114.248 127.707 114.252 127.722 114.257 127.737C114.261 127.749 114.265 127.762 114.268 127.775L114.269 127.777L114.271 127.782C114.274 127.793 114.277 127.804 114.28 127.815C114.285 127.836 114.29 127.857 114.294 127.879C114.295 127.885 114.297 127.89 114.298 127.896C114.299 127.902 114.3 127.908 114.301 127.914C114.302 127.92 114.303 127.926 114.304 127.931L114.305 127.941C114.308 127.958 114.31 127.975 114.312 127.993C114.314 128.014 114.316 128.036 114.317 128.058C114.319 128.076 114.319 128.093 114.32 128.111C114.32 128.127 114.32 128.143 114.32 128.159C114.32 128.163 114.32 128.168 114.319 128.172C114.319 128.188 114.318 128.205 114.317 128.221C114.315 128.263 114.31 128.304 114.304 128.345C114.301 128.361 114.298 128.375 114.295 128.39C114.292 128.409 114.288 128.427 114.283 128.445C114.282 128.451 114.28 128.458 114.278 128.465C114.276 128.475 114.273 128.485 114.27 128.495C114.267 128.506 114.264 128.517 114.26 128.527L114.252 128.553C114.247 128.569 114.241 128.584 114.236 128.599C114.232 128.608 114.229 128.617 114.225 128.626C114.199 128.691 114.167 128.754 114.131 128.814C114.126 128.821 114.122 128.829 114.117 128.836C114.107 128.853 114.096 128.869 114.084 128.886Z" fill="white"/>
<path d="M108.928 129.3C109.545 129.3 110.046 128.799 110.046 128.182C110.046 127.565 109.545 127.064 108.928 127.064C108.311 127.064 107.811 127.565 107.811 128.182C107.811 128.799 108.311 129.3 108.928 129.3Z" fill="#1165BA"/>
<path d="M96.3028 139.992C95.8604 139.494 95.5326 138.906 95.3424 138.267C95.1521 137.629 95.1042 136.957 95.2019 136.298C95.2996 135.639 95.5405 135.01 95.9078 134.454C96.275 133.899 96.7596 133.43 97.3274 133.082L91.4028 104.872L99.2554 107.891L103.801 134.842C104.323 135.834 104.462 136.984 104.193 138.072C103.923 139.161 103.264 140.113 102.34 140.748C101.416 141.382 100.29 141.656 99.1778 141.517C98.0652 141.378 97.0422 140.835 96.3028 139.992Z" fill="#FFB8B8"/>
<path d="M91.9523 128.545L88.7565 107.954L87.5557 68.4077L88.4481 56.5548C88.5205 55.5941 88.7823 54.6573 89.2184 53.7983C89.6545 52.9393 90.2562 52.1751 90.9889 51.5496C91.7217 50.9242 92.5709 50.45 93.4878 50.1542C94.4046 49.8585 95.3709 49.7471 96.331 49.8265C97.5916 49.9339 98.8031 50.3656 99.8475 51.0796C100.892 51.7937 101.734 52.7657 102.292 53.9014L104.627 58.6864L103.793 126.157L91.9523 128.545Z" fill="#2F2E41"/>
<path d="M192.472 233.409C192.473 233.486 192.457 233.563 192.428 233.635C192.398 233.707 192.355 233.772 192.3 233.827C192.245 233.882 192.179 233.926 192.107 233.956C192.036 233.985 191.959 234 191.881 234H32.7275C32.5707 234 32.4203 233.938 32.3094 233.827C32.1985 233.716 32.1362 233.566 32.1362 233.409C32.1362 233.252 32.1985 233.101 32.3094 232.991C32.4203 232.88 32.5707 232.817 32.7275 232.817H191.881C191.959 232.817 192.036 232.832 192.107 232.862C192.179 232.892 192.245 232.935 192.3 232.99C192.355 233.045 192.398 233.11 192.428 233.182C192.457 233.254 192.473 233.331 192.472 233.409Z" fill="#CCCCCC"/>
<path d="M104.944 35.0281C104.951 34.9032 104.989 34.7821 105.054 34.6752C105.119 34.5683 105.209 34.4791 105.316 34.4153C105.424 34.3516 105.545 34.3153 105.67 34.3096C105.795 34.304 105.92 34.3292 106.032 34.383C106.145 34.4368 106.243 34.5176 106.317 34.6181C106.392 34.7187 106.44 34.836 106.458 34.9597C106.476 35.0834 106.464 35.2097 106.421 35.3273C106.379 35.445 106.309 35.5505 106.216 35.6344L107.496 37.7374C107.548 37.8237 107.564 37.9272 107.54 38.0253C107.517 38.1234 107.455 38.208 107.368 38.2605C107.282 38.313 107.179 38.3291 107.081 38.3052C106.982 38.2814 106.898 38.2195 106.845 38.1332L105.406 35.7687C105.263 35.7077 105.141 35.6039 105.058 35.4714C104.976 35.3388 104.936 35.184 104.944 35.0281Z" fill="white"/>
<path d="M105.843 36.4577C105.89 36.5515 106.005 36.5892 106.099 36.5419C106.192 36.4946 106.23 36.3801 106.183 36.2862L105.84 35.6064C105.793 35.5125 105.678 35.4748 105.584 35.5221C105.49 35.5695 105.453 35.6839 105.5 35.7778L105.843 36.4577Z" fill="#2F2E41"/>
</g>
<defs>
<clipPath id="clip0_566_2049">
<rect width="219.67" height="234" fill="white"/>
</clipPath>
</defs>
</svg>
