<svg width="200" height="200" viewBox="0 0 200 200" fill="none" xmlns="http://www.w3.org/2000/svg">
<g opacity="0.6">
<mask id="mask0_1862_15788" style="mask-type:alpha" maskUnits="userSpaceOnUse" x="0" y="0" width="200" height="200">
<rect width="200" height="200" fill="#D9D9D9"/>
</mask>
<g mask="url(#mask0_1862_15788)">
<path d="M58.3334 110.257C55.4595 110.257 53.0315 109.266 51.0496 107.284C49.0678 105.302 48.0769 102.875 48.0769 100.001C48.0769 97.1268 49.0678 94.6989 51.0496 92.7169C53.0315 90.7351 55.4595 89.7442 58.3334 89.7442C61.2072 89.7442 63.6352 90.7351 65.6171 92.7169C67.5989 94.6989 68.5898 97.1268 68.5898 100.001C68.5898 102.875 67.5989 105.302 65.6171 107.284C63.6352 109.266 61.2072 110.257 58.3334 110.257ZM58.3334 141.667C46.7949 141.667 36.9658 137.608 28.8461 129.488C20.7265 121.368 16.6667 111.539 16.6667 100.001C16.6667 88.4622 20.7265 78.6331 28.8461 70.5134C36.9658 62.3938 46.7949 58.334 58.3334 58.334C66.891 58.334 74.6073 60.6523 81.4823 65.289C88.3573 69.9258 93.3761 75.9408 96.5386 83.334H173.237L189.904 100.001L163.301 126.283L149.039 115.546L133.974 126.603L119.151 116.667H96.5386C93.3761 123.954 88.3573 129.942 81.4823 134.632C74.6073 139.322 66.891 141.667 58.3334 141.667ZM58.3334 133.334C66.5385 133.334 73.539 130.866 79.335 125.93C85.1309 120.994 88.8408 115.129 90.4648 108.334H121.795L133.718 116.395L149.199 105.289L162.708 115.465L178.173 100.001L169.84 91.6673H90.4648C88.8408 84.8725 85.1309 79.007 79.335 74.0711C73.539 69.1352 66.5385 66.6673 58.3334 66.6673C49.1667 66.6673 41.3195 69.9312 34.7917 76.459C28.2639 82.9868 25 90.834 25 100.001C25 109.167 28.2639 117.015 34.7917 123.542C41.3195 130.07 49.1667 133.334 58.3334 133.334Z" fill="#046AD0"/>
</g>
</g>
</svg>
