<svg width="32" height="32" viewBox="0 0 32 32" fill="none" xmlns="http://www.w3.org/2000/svg">
<mask id="mask0_3709_3246" style="mask-type:alpha" maskUnits="userSpaceOnUse" x="0" y="0" width="32" height="32">
<rect width="32" height="32" fill="#0D0D0D"/>
</mask>
<g mask="url(#mask0_3709_3246)">
<path d="M10.167 8.53268L13.9003 3.69935C14.167 3.34379 14.4837 3.08268 14.8503 2.91602C15.217 2.74935 15.6003 2.66602 16.0003 2.66602C16.4003 2.66602 16.7837 2.74935 17.1503 2.91602C17.517 3.08268 17.8337 3.34379 18.1003 3.69935L21.8337 8.53268L27.5003 10.4327C28.0781 10.6105 28.5337 10.9382 28.867 11.416C29.2003 11.8938 29.367 12.4216 29.367 12.9993C29.367 13.266 29.3281 13.5327 29.2503 13.7993C29.1725 14.066 29.0448 14.3216 28.867 14.566L25.2003 19.766L25.3337 25.2327C25.3559 26.0105 25.1003 26.666 24.567 27.1993C24.0337 27.7327 23.4114 27.9993 22.7003 27.9993C22.6559 27.9993 22.4114 27.966 21.967 27.8994L16.0003 26.2327L10.0337 27.8994C9.92255 27.9438 9.80032 27.9716 9.66699 27.9827C9.53366 27.9938 9.41144 27.9993 9.30032 27.9993C8.58921 27.9993 7.96699 27.7327 7.43366 27.1993C6.90033 26.666 6.64477 26.0105 6.66699 25.2327L6.80033 19.7327L3.16699 14.566C2.98921 14.3216 2.86144 14.066 2.78366 13.7993C2.70588 13.5327 2.66699 13.266 2.66699 12.9993C2.66699 12.4438 2.8281 11.9271 3.15033 11.4493C3.47255 10.9716 3.92255 10.6327 4.50033 10.4327L10.167 8.53268Z" fill="#F1D302"/>
</g>
</svg>
