<svg xmlns="http://www.w3.org/2000/svg" width="32" height="32" viewBox="0 0 32 32" fill="none">
  <mask id="mask0_3655_3052" style="mask-type:alpha" maskUnits="userSpaceOnUse" x="0" y="0" width="32" height="32">
    <rect width="32" height="32" fill="#D9D9D9"/>
  </mask>
  <g mask="url(#mask0_3655_3052)">
    <path d="M10.1667 8.53268L13.9001 3.69935C14.1667 3.34379 14.4834 3.08268 14.8501 2.91602C15.2167 2.74935 15.6001 2.66602 16.0001 2.66602C16.4001 2.66602 16.7834 2.74935 17.1501 2.91602C17.5167 3.08268 17.8334 3.34379 18.1001 3.69935L21.8334 8.53268L27.5001 10.4327C28.0779 10.6105 28.5334 10.9382 28.8667 11.416C29.2001 11.8938 29.3667 12.4216 29.3667 12.9993C29.3667 13.266 29.3279 13.5327 29.2501 13.7993C29.1723 14.066 29.0445 14.3216 28.8667 14.566L25.2001 19.766L25.3334 25.2327C25.3556 26.0105 25.1001 26.666 24.5667 27.1993C24.0334 27.7327 23.4112 27.9993 22.7001 27.9993C22.6556 27.9993 22.4112 27.966 21.9667 27.8994L16.0001 26.2327L10.0334 27.8994C9.9223 27.9438 9.80008 27.9716 9.66675 27.9827C9.53341 27.9938 9.41119 27.9993 9.30008 27.9993C8.58897 27.9993 7.96675 27.7327 7.43341 27.1993C6.90008 26.666 6.64453 26.0105 6.66675 25.2327L6.80008 19.7327L3.16675 14.566C2.98897 14.3216 2.86119 14.066 2.78341 13.7993C2.70564 13.5327 2.66675 13.266 2.66675 12.9993C2.66675 12.4438 2.82786 11.9271 3.15008 11.4493C3.4723 10.9716 3.9223 10.6327 4.50008 10.4327L10.1667 8.53268Z" fill="#FDFDFD"/>
  </g>
</svg>