<svg width="32" height="32" viewBox="0 0 32 32" fill="none" xmlns="http://www.w3.org/2000/svg">
<mask id="mask0_4737_3742" style="mask-type:alpha" maskUnits="userSpaceOnUse" x="0" y="0" width="32" height="32">
<rect x="0.5" y="0.5" width="31" height="31" fill="#0D0D0D" stroke="#ACACAC"/>
</mask>
<g mask="url(#mask0_4737_3742)">
<path d="M10.3257 9.00674L10.4696 8.95848L10.5624 8.83833L14.2958 4.005L14.2958 4.00503L14.3001 3.99935C14.5217 3.70381 14.7744 3.49966 15.057 3.3712C15.3591 3.23386 15.672 3.16602 16.0001 3.16602C16.3282 3.16602 16.641 3.23386 16.9432 3.3712C17.2258 3.49966 17.4784 3.70381 17.7001 3.99935L17.7 3.99938L17.7044 4.005L21.4377 8.83833L21.5305 8.95848L21.6745 9.00674L27.3411 10.9067L27.3411 10.9069L27.353 10.9106C27.8285 11.0569 28.1897 11.3195 28.4567 11.7021C28.732 12.0967 28.8667 12.5248 28.8667 12.9993C28.8667 13.2167 28.8351 13.4363 28.7701 13.6593C28.7098 13.866 28.6092 14.07 28.4624 14.2719L28.4623 14.2719L28.4581 14.2779L24.7915 19.4779L24.6962 19.613L24.7002 19.7782L24.8336 25.2449L24.8336 25.247C24.8521 25.8921 24.6458 26.4132 24.2132 26.8458C23.7709 27.2881 23.2779 27.496 22.7137 27.4993C22.7091 27.4989 22.7004 27.498 22.6866 27.4964C22.6554 27.4928 22.6107 27.4871 22.551 27.4789C22.4376 27.4635 22.2781 27.4404 22.0714 27.4095L16.1346 25.7511L16.0001 25.7135L15.8656 25.7511L9.8989 27.4178L9.87284 27.4251L9.84772 27.4351C9.78779 27.4591 9.71484 27.4769 9.62522 27.4844C9.50303 27.4946 9.39489 27.4993 9.30008 27.4993C8.73025 27.4993 8.23285 27.2917 7.78697 26.8458C7.35432 26.4132 7.14811 25.8921 7.16655 25.247L7.1666 25.2448L7.29993 19.7448L7.30393 19.58L7.20908 19.4451L3.57574 14.2784L3.57579 14.2784L3.57112 14.2719C3.42425 14.07 3.32369 13.866 3.26341 13.6593C3.19835 13.4363 3.16675 13.2167 3.16675 12.9993C3.16675 12.5473 3.2959 12.1274 3.56462 11.7289C3.82207 11.3472 4.18046 11.0729 4.66145 10.9059L10.3257 9.00674Z" stroke="#ACACAC"/>
</g>
</svg>
