<svg width="16" height="16" viewBox="0 0 16 16" fill="none" xmlns="http://www.w3.org/2000/svg">
<g clip-path="url(#clip0_218_889)">
<path d="M7.99967 2C5.41967 2 3.33301 4.08667 3.33301 6.66667C3.33301 7.82667 3.66634 8.91333 4.27301 9.89333C4.90634 10.92 5.73967 11.8 6.37967 12.8267C6.69301 13.3267 6.91967 13.7933 7.15967 14.3333C7.33301 14.7 7.47301 15.3333 7.99967 15.3333C8.52634 15.3333 8.66634 14.7 8.83301 14.3333C9.07967 13.7933 9.29967 13.3267 9.61301 12.8267C10.253 11.8067 11.0863 10.9267 11.7197 9.89333C12.333 8.91333 12.6663 7.82667 12.6663 6.66667C12.6663 4.08667 10.5797 2 7.99967 2ZM7.99967 8.5C7.07967 8.5 6.33301 7.75333 6.33301 6.83333C6.33301 5.91333 7.07967 5.16667 7.99967 5.16667C8.91967 5.16667 9.66634 5.91333 9.66634 6.83333C9.66634 7.75333 8.91967 8.5 7.99967 8.5Z" fill="#696969"/>
</g>
<defs>
<clipPath id="clip0_218_889">
<rect width="16" height="16" fill="white"/>
</clipPath>
</defs>
</svg>
