<svg width="327" height="257" viewBox="0 0 327 257" fill="none" xmlns="http://www.w3.org/2000/svg">
<path d="M7.00225 227.078C19.2519 227.625 31.5016 227.899 43.7513 227.874C44.2244 227.874 44.2244 227.127 43.7513 227.127C31.5016 227.152 19.2519 226.878 7.00225 226.331C6.5292 226.306 6.5292 227.053 7.00225 227.078Z" fill="#E8E8E8"/>
<path d="M44.4987 208.553C46.4159 215.749 48.2085 222.994 49.8518 230.264C49.9513 230.737 50.6734 230.538 50.5738 230.065C48.9056 222.795 47.1379 215.55 45.2208 208.354C45.0963 207.906 44.3743 208.105 44.4987 208.553Z" fill="#E8E8E8"/>
<path d="M77.8614 209.101C77.1642 215.948 76.4671 222.82 75.7949 229.666C75.7451 230.139 76.492 230.139 76.5418 229.666C77.2389 222.82 77.9361 215.948 78.6083 209.101C78.6332 208.628 77.8863 208.628 77.8614 209.101Z" fill="#E8E8E8"/>
<path d="M50.0508 230.936C54.4079 231.708 58.8148 232.057 63.2466 231.932C67.4792 231.808 72.1102 231.484 76.1436 230.14C76.5918 229.99 76.3926 229.268 75.9444 229.418C71.9359 230.737 67.4294 231.061 63.2466 231.185C58.8895 231.31 54.5324 230.961 50.2499 230.214C49.7769 230.115 49.5777 230.837 50.0508 230.936Z" fill="#E8E8E8"/>
<path d="M44.7973 208.802C49.9512 210.246 55.5532 210.271 60.8813 210.296C66.6078 210.345 72.3343 210.022 78.0109 209.374C78.484 209.325 78.484 208.578 78.0109 208.628C72.4836 209.275 66.9314 209.574 61.3792 209.549C55.9764 209.524 50.25 209.524 44.9965 208.08C44.5235 207.955 44.3243 208.677 44.7973 208.802Z" fill="#E8E8E8"/>
<path d="M42.6562 206.238C42.706 206.711 42.7558 207.209 42.8056 207.682C42.8305 207.981 42.8305 208.355 42.955 208.628C43.2537 209.276 44.2496 209.052 44.8223 209.052C45.2954 209.052 45.2954 208.305 44.8223 208.305C44.5484 208.305 44.2745 208.305 43.9758 208.305C43.6023 208.305 43.6023 208.23 43.5774 207.857C43.5276 207.309 43.4778 206.786 43.428 206.238C43.3533 205.765 42.6064 205.74 42.6562 206.238Z" fill="#E8E8E8"/>
<path d="M43.1542 206.636C49.3787 207.358 55.628 207.707 61.9023 207.756C64.9896 207.781 68.0769 207.732 71.1891 207.632C72.7328 207.582 74.2764 207.507 75.8201 207.433C76.5421 207.408 77.538 207.159 78.2601 207.308C79.1315 207.458 79.0817 208.205 79.1813 208.976C79.256 208.827 79.3556 208.678 79.4303 208.528C79.1066 208.528 78.7829 208.528 78.4593 208.528C77.9862 208.429 77.787 209.151 78.2601 209.25C78.758 209.35 79.1315 209.35 79.6045 209.25C79.8286 209.201 79.9033 208.976 79.8535 208.802C79.729 207.931 79.8286 206.835 78.7829 206.611C78.1605 206.462 77.3886 206.636 76.7413 206.661C75.9197 206.711 75.123 206.736 74.3013 206.785C70.8156 206.935 67.3051 207.034 63.7945 207.034C56.8729 207.034 49.9762 206.711 43.1045 205.889C42.6812 205.839 42.6812 206.586 43.1542 206.636Z" fill="#E8E8E8"/>
<path d="M48.5571 224.737C50.5489 227.351 52.8893 229.617 55.5284 231.559C55.9268 231.833 56.3003 231.186 55.9019 230.912C53.3623 229.044 51.0966 226.853 49.1795 224.339C48.9056 223.965 48.2583 224.339 48.5571 224.737Z" fill="#E8E8E8"/>
<path d="M46.8889 217.143C50.773 222.745 55.5533 227.65 61.0806 231.659C61.479 231.933 61.8525 231.285 61.4541 231.011C56.0513 227.078 51.3456 222.247 47.5363 216.77C47.2624 216.372 46.6151 216.745 46.8889 217.143Z" fill="#E8E8E8"/>
<path d="M45.37 210.47C52.0924 218.438 59.5617 225.882 68.4751 231.409C68.8734 231.658 69.2718 231.011 68.8485 230.762C59.985 225.284 52.5654 217.89 45.8928 209.947C45.5941 209.574 45.0712 210.122 45.37 210.47Z" fill="#E8E8E8"/>
<path d="M52.5154 210.047C58.9141 217.491 66.01 224.562 73.9275 230.388C74.3258 230.662 74.6993 230.015 74.301 229.741C66.4333 223.965 59.3872 216.894 53.0383 209.524C52.7146 209.151 52.1917 209.673 52.5154 210.047Z" fill="#E8E8E8"/>
<path d="M60.682 210.57C65.0142 215.874 69.9937 220.604 75.521 224.662C75.9194 224.936 76.2929 224.289 75.8945 224.015C70.417 220.007 65.4872 215.301 61.2048 210.047C60.9061 209.674 60.3832 210.197 60.682 210.57Z" fill="#E8E8E8"/>
<path d="M67.3548 210.296C70.1433 213.433 73.3302 216.122 76.8657 218.388C77.2641 218.637 77.6375 217.989 77.2392 217.74C73.7535 215.524 70.6164 212.835 67.8776 209.773C67.554 209.4 67.0311 209.922 67.3548 210.296Z" fill="#E8E8E8"/>
<path d="M32.8962 169.264C34.5146 172.675 35.6101 176.261 36.2325 179.995C36.2574 180.169 36.4317 180.269 36.5811 180.269C36.7305 180.269 37.5272 180.244 37.577 180.493C37.6019 180.593 37.104 181.165 37.0542 181.29C36.9048 181.688 36.9048 182.161 37.0542 182.56C37.2533 183.033 37.6268 183.356 38.075 183.531C38.2244 183.605 38.3986 183.63 38.5729 183.655C38.7223 183.68 38.8717 183.68 39.0211 183.655C39.2203 183.63 39.1954 183.655 38.9713 183.755C38.7223 184.128 38.3737 184.178 38.2741 184.726C38.1995 185.249 38.4484 185.747 38.6476 186.195C39.4692 187.938 39.9423 189.78 40.6145 191.598C42.93 197.772 47.3618 202.876 52.3663 207.084C52.7397 207.383 53.2626 206.86 52.8891 206.561C47.7353 202.229 43.1541 196.926 40.988 190.427C40.7141 189.581 40.4651 188.734 40.1664 187.913C39.9174 187.191 39.4443 186.444 39.2203 185.722C38.9713 185.323 38.9962 184.875 39.3199 184.427C39.4194 184.352 39.519 184.278 39.6186 184.203C39.6933 184.078 39.8427 184.004 39.9174 183.854C40.017 183.58 39.9423 183.331 39.7431 183.132C39.4194 182.809 38.9215 182.983 38.4982 182.858C36.8799 182.385 38.1995 181.29 38.3239 180.493C38.4982 179.447 37.2035 179.572 36.5064 179.522C36.6309 179.622 36.7554 179.696 36.855 179.796C36.2325 176.012 35.0872 172.352 33.444 168.891C33.3444 168.443 32.697 168.816 32.8962 169.264Z" fill="#E8E8E8"/>
<path d="M33.1698 169.09C41.2616 171.257 48.3574 176.759 53.5113 183.282C58.9888 190.204 62.3998 198.52 64.2422 207.109C64.3418 207.582 65.0638 207.383 64.9642 206.91C63.0969 198.196 59.6112 189.78 54.059 182.759C48.8305 176.161 41.6101 170.584 33.3939 168.393C32.8959 168.244 32.6968 168.966 33.1698 169.09Z" fill="#E8E8E8"/>
<path d="M36.108 172.178C46.0173 181.813 53.6609 193.64 58.3666 206.661C58.5409 207.109 59.2629 206.91 59.0886 206.462C54.3332 193.341 46.6398 181.39 36.6309 171.655C36.3072 171.306 35.7594 171.829 36.108 172.178Z" fill="#E8E8E8"/>
<path d="M40.5147 187.838C42.6061 188.062 44.6477 188.535 46.5898 189.307C48.482 190.054 50.5485 191 51.7436 192.718C52.0175 193.117 52.6648 192.743 52.3909 192.345C51.1958 190.627 49.3285 189.656 47.4363 188.859C45.2204 187.913 42.9049 187.34 40.4898 187.091C40.0416 187.041 40.0416 187.788 40.5147 187.838Z" fill="#E8E8E8"/>
<path d="M44.2246 174.195C44.1997 177.058 44.6727 179.871 45.5939 182.585C45.7433 183.033 46.4654 182.834 46.316 182.386C45.4197 179.747 44.9715 177.008 44.9715 174.195C44.9715 173.722 44.2246 173.722 44.2246 174.195Z" fill="#E8E8E8"/>
<path d="M57.8934 187.739C59.1134 183.183 63.1718 180.469 66.6326 177.68C70.3174 174.717 73.8778 171.555 77.2639 168.269C77.0647 168.144 76.8406 168.02 76.6415 167.896C75.5211 170.908 75.297 174.07 75.3468 177.257C75.3966 180.444 76.1186 184.104 75.0978 187.191C75.2223 187.092 75.3468 187.017 75.4464 186.917C74.6496 186.967 73.8529 187.042 73.0562 187.092C72.8072 187.117 72.5582 187.415 72.7325 187.664C73.3052 188.436 73.9774 188.685 73.9525 189.83C73.9525 190.627 73.7533 191.548 73.4794 192.295C73.2056 193.067 72.4835 193.59 72.2346 194.312C72.0354 194.959 72.5333 195.507 72.5333 196.154C72.5582 197.225 71.7864 198.121 71.2386 198.968C70.7158 199.765 70.2427 200.586 69.8195 201.433C68.9729 203.101 68.3007 204.819 67.8028 206.612C67.6783 207.085 68.4003 207.284 68.5248 206.811C69.1472 204.595 70.0435 202.454 71.2137 200.462C72.0105 199.117 73.5043 197.549 73.3301 195.856C73.2554 195.183 72.9068 194.984 73.2056 194.212C73.2305 194.188 73.6786 193.59 73.7035 193.54C74.1766 192.768 74.4007 191.897 74.55 191.026C74.6496 190.378 74.8488 189.581 74.7492 188.934C74.5998 188.013 73.9027 187.938 73.3798 187.241C73.2803 187.44 73.1558 187.615 73.0562 187.814C73.8529 187.764 74.6496 187.689 75.4464 187.639C75.6206 187.615 75.7451 187.54 75.7949 187.366C76.741 184.477 76.1684 181.116 76.0688 178.128C75.9692 174.717 76.0937 171.282 77.3137 168.045C77.4631 167.671 76.9402 167.447 76.6912 167.671C73.0811 171.182 69.2966 174.543 65.3379 177.68C61.9518 180.369 58.2918 183.108 57.1216 187.49C57.0469 188.013 57.769 188.212 57.8934 187.739Z" fill="#E8E8E8"/>
<path d="M74.5003 171.506C72.0603 175.763 69.5705 179.971 67.2302 184.278C65.0391 188.262 63.0971 192.395 62.1759 196.851C62.0763 197.324 62.7984 197.524 62.8979 197.051C63.8441 192.494 65.8608 188.312 68.1016 184.253C70.3922 180.095 72.8072 176.012 75.1476 171.879C75.3717 171.481 74.7244 171.082 74.5003 171.506Z" fill="#E8E8E8"/>
<path d="M67.1552 178.427C67.4789 179.846 67.6283 181.265 67.5785 182.709C67.5536 183.182 68.3005 183.182 68.3254 182.709C68.3752 181.19 68.2258 179.721 67.8772 178.228C67.7528 177.754 67.0556 177.954 67.1552 178.427Z" fill="#E8E8E8"/>
<path d="M71.2136 173.672C71.4875 174.742 71.5373 175.788 71.4128 176.858C71.363 177.331 72.1099 177.331 72.1597 176.858C72.3091 175.713 72.2344 174.593 71.9356 173.472C71.8111 173.024 71.0891 173.223 71.2136 173.672Z" fill="#E8E8E8"/>
<path d="M71.3883 178.626C72.8573 177.755 74.376 176.983 75.9446 176.336C76.3928 176.162 76.1936 175.44 75.7454 175.614C74.1022 176.286 72.5336 177.083 70.9899 177.979C70.5916 178.228 70.965 178.875 71.3883 178.626Z" fill="#E8E8E8"/>
<path d="M64.9643 191.125C65.9104 190.328 66.8566 189.556 67.8276 188.81C68.8484 188.013 69.9688 186.942 71.2137 186.444C71.6618 186.27 71.4626 185.548 71.0145 185.722C69.8941 186.146 68.9729 186.967 68.0267 187.714C66.8068 188.66 65.6117 189.606 64.4415 190.602C64.068 190.901 64.5909 191.424 64.9643 191.125Z" fill="#E8E8E8"/>
<path d="M36.1326 177.158C37.8755 177.332 39.6183 177.506 41.3612 177.655C41.8342 177.705 41.8342 176.958 41.3612 176.909C39.6183 176.734 37.8755 176.56 36.1326 176.411C35.6596 176.361 35.6596 177.108 36.1326 177.158Z" fill="#E8E8E8"/>
<path d="M81.8202 226.828C113.017 226.828 144.189 226.828 175.386 226.828C184.175 226.828 192.964 226.828 201.753 226.828C202.226 226.828 202.226 226.081 201.753 226.081C170.556 226.081 139.384 226.081 108.187 226.081C99.3981 226.081 90.6091 226.081 81.8202 226.081C81.3223 226.081 81.3223 226.828 81.8202 226.828Z" fill="#E8E8E8"/>
<path d="M187.337 165.828C187.337 169.463 187.337 173.099 187.337 176.734C187.337 177.207 188.084 177.207 188.084 176.734C188.084 173.099 188.084 169.463 188.084 165.828C188.084 165.355 187.337 165.355 187.337 165.828Z" fill="#E8E8E8"/>
<path d="M170.158 178.402C182.233 178.402 194.308 178.402 206.384 178.402C206.857 178.402 206.857 177.655 206.384 177.655C194.308 177.655 182.233 177.655 170.158 177.655C169.685 177.655 169.66 178.402 170.158 178.402Z" fill="#E8E8E8"/>
<path d="M178.274 178.601C178.274 181.738 178.274 184.875 178.274 188.037C178.274 188.51 179.021 188.51 179.021 188.037C179.021 184.9 179.021 181.763 179.021 178.601C179.021 178.103 178.274 178.103 178.274 178.601Z" fill="#E8E8E8"/>
<path d="M196.947 178.402C196.947 181.165 196.947 183.954 196.947 186.718C196.947 187.191 197.694 187.191 197.694 186.718C197.694 183.954 197.694 181.165 197.694 178.402C197.694 177.929 196.947 177.929 196.947 178.402Z" fill="#E8E8E8"/>
<path d="M185.121 188.76C194.358 188.76 203.595 188.76 212.832 188.76C213.305 188.76 213.305 188.013 212.832 188.013C203.595 188.013 194.358 188.013 185.121 188.013C184.648 188.013 184.648 188.76 185.121 188.76Z" fill="#E8E8E8"/>
<path d="M164.232 234.049C184.623 234.049 205.014 234.049 225.406 234.049C225.879 234.049 225.879 233.302 225.406 233.302C205.014 233.302 184.623 233.302 164.232 233.302C163.759 233.302 163.759 234.049 164.232 234.049Z" fill="#E8E8E8"/>
<path d="M248.56 227.6C268.578 227.6 288.621 227.6 308.639 227.6C314.266 227.6 319.892 227.6 325.519 227.6C325.992 227.6 325.992 226.854 325.519 226.854C305.502 226.854 285.459 226.854 265.441 226.854C259.814 226.854 254.187 226.854 248.56 226.854C248.087 226.854 248.087 227.6 248.56 227.6Z" fill="#E8E8E8"/>
<path d="M0.354793 240.348C20.8705 240.348 41.4112 240.348 61.9269 240.348C62.4 240.348 62.4 239.601 61.9269 239.601C41.4112 239.601 20.8705 239.601 0.354793 239.601C-0.118264 239.601 -0.118264 240.348 0.354793 240.348Z" fill="#E8E8E8"/>
<path d="M41.7348 247.817C58.491 247.817 75.2472 247.817 92.0034 247.817C92.4764 247.817 92.4764 247.07 92.0034 247.07C75.2472 247.07 58.491 247.07 41.7348 247.07C41.2368 247.07 41.2368 247.817 41.7348 247.817Z" fill="#E8E8E8"/>
<path d="M296.464 34.9418C296.464 27.9953 296.464 21.0737 296.464 14.1273C296.464 13.6542 295.717 13.6542 295.717 14.1273C295.717 21.0737 295.717 27.9953 295.717 34.9418C295.717 35.4148 296.464 35.4148 296.464 34.9418Z" fill="#E8E8E8"/>
<path d="M296.339 13.9774C305.327 13.9774 314.315 13.9774 323.303 13.9774C323.776 13.9774 323.776 13.2305 323.303 13.2305C314.315 13.2305 305.327 13.2305 296.339 13.2305C295.866 13.2305 295.866 13.9774 296.339 13.9774Z" fill="#E8E8E8"/>
<path d="M322.93 13.6536C322.88 20.6997 322.831 27.7457 322.756 34.7918C322.756 35.2649 323.503 35.2649 323.503 34.7918C323.553 27.7457 323.602 20.6997 323.677 13.6536C323.677 13.1806 322.93 13.1806 322.93 13.6536Z" fill="#E8E8E8"/>
<path d="M296.464 35.3143C305.327 35.3143 314.191 35.3143 323.054 35.3143C323.528 35.3143 323.528 34.5674 323.054 34.5674C314.191 34.5674 305.327 34.5674 296.464 34.5674C295.991 34.5674 295.991 35.3143 296.464 35.3143Z" fill="#E8E8E8"/>
<path d="M297.186 15.5706C297.186 21.4216 297.186 27.2477 297.186 33.0986C297.186 33.5717 297.932 33.5717 297.932 33.0986C297.932 27.2477 297.932 21.4216 297.932 15.5706C297.932 15.0976 297.186 15.0976 297.186 15.5706Z" fill="#E8E8E8"/>
<path d="M297.733 15.9442C305.601 15.9442 313.444 15.9442 321.311 15.9442C321.785 15.9442 321.785 15.1973 321.311 15.1973C313.444 15.1973 305.601 15.1973 297.733 15.1973C297.235 15.1973 297.235 15.9442 297.733 15.9442Z" fill="#E8E8E8"/>
<path d="M320.914 15.7454C320.889 21.4719 320.864 27.1984 320.839 32.9498C320.839 33.4228 321.586 33.4228 321.586 32.9498C321.611 27.2233 321.636 21.4968 321.66 15.7454C321.66 15.2724 320.914 15.2724 320.914 15.7454Z" fill="#E8E8E8"/>
<path d="M297.883 33.5721C305.626 33.5721 313.37 33.5721 321.113 33.5721C321.586 33.5721 321.586 32.8252 321.113 32.8252C313.37 32.8252 305.626 32.8252 297.883 32.8252C297.41 32.8252 297.41 33.5721 297.883 33.5721Z" fill="#E8E8E8"/>
<path d="M297.734 28.4183C300.597 27.4224 303.609 28.3187 306.398 29.1403C309.236 29.9619 312.025 30.9578 314.739 32.1031C315.187 32.2774 315.386 31.5554 314.938 31.3811C311.925 30.1113 308.838 29.0407 305.701 28.1693C303.037 27.4473 300.223 26.7501 297.534 27.6962C297.086 27.8456 297.285 28.5677 297.734 28.4183Z" fill="#E8E8E8"/>
<path d="M307.195 29.2644C311.9 28.9906 316.307 27.0983 320.963 26.5755C321.436 26.5257 321.436 25.7788 320.963 25.8286C316.307 26.3514 311.9 28.2187 307.195 28.5175C306.697 28.5673 306.697 29.3142 307.195 29.2644Z" fill="#E8E8E8"/>
<path d="M316.108 20.1522C315.063 19.5546 316.009 17.5877 317.129 18.0608C317.727 18.3097 317.851 19.0318 317.527 19.5546C317.179 20.1273 316.457 20.2269 315.859 20.0526C315.386 19.9281 315.187 20.6501 315.66 20.7746C316.656 21.0485 317.776 20.7497 318.274 19.7787C318.723 18.9073 318.374 17.762 317.428 17.3636C315.486 16.542 313.892 19.7787 315.735 20.7995C316.133 21.0236 316.532 20.3762 316.108 20.1522Z" fill="#E8E8E8"/>
<path d="M308.489 13.4794C308.514 13.0562 308.539 12.6329 308.664 12.2345C308.763 11.9109 309.012 11.139 309.386 10.9897C310.058 10.7407 310.307 13.106 310.357 13.5541C310.406 14.0272 311.153 14.0272 311.104 13.5541C311.029 12.6827 310.83 9.94395 309.435 10.1431C308.838 10.2178 308.415 10.8901 308.19 11.388C307.892 12.0354 307.792 12.7574 307.767 13.4545C307.742 13.9525 308.489 13.9525 308.489 13.4794Z" fill="#E8E8E8"/>
<path d="M312.672 129.627C312.672 132.615 312.672 135.628 312.672 138.615C312.672 139.088 313.419 139.088 313.419 138.615C313.419 135.628 313.419 132.615 313.419 129.627C313.419 129.154 312.672 129.154 312.672 129.627Z" fill="#E8E8E8"/>
<path d="M303.634 139.711C310.406 139.711 317.203 139.711 323.976 139.711C324.449 139.711 324.449 138.964 323.976 138.964C317.203 138.964 310.406 138.964 303.634 138.964C303.161 138.964 303.161 139.711 303.634 139.711Z" fill="#E8E8E8"/>
<path d="M306.498 139.935C306.498 141.354 306.498 142.748 306.498 144.167C306.498 144.641 307.244 144.641 307.244 144.167C307.244 142.748 307.244 141.354 307.244 139.935C307.244 139.462 306.498 139.462 306.498 139.935Z" fill="#E8E8E8"/>
<path d="M317.378 140.16C317.378 141.828 317.378 143.521 317.378 145.189C317.378 145.662 318.125 145.662 318.125 145.189C318.125 143.521 318.125 141.828 318.125 140.16C318.125 139.662 317.378 139.662 317.378 140.16Z" fill="#E8E8E8"/>
<path d="M312.099 146.16C316.805 146.16 321.511 146.16 326.216 146.16C326.69 146.16 326.69 145.413 326.216 145.413C321.511 145.413 316.805 145.413 312.099 145.413C311.626 145.413 311.626 146.16 312.099 146.16Z" fill="#E8E8E8"/>
<path d="M209.396 142.051C146.978 146.558 84.5588 151.039 22.1651 155.546C20.472 110.282 18.779 65.0175 17.1108 19.7534C79.8034 18.9069 142.496 18.0604 205.188 17.2139C206.583 58.818 207.977 100.422 209.396 142.051Z" fill="white" stroke="#161616" stroke-width="3.5"/>
<path d="M70.1429 41.7879C82.2432 41.7879 94.3684 41.7879 106.469 41.7879C106.942 41.7879 106.942 41.041 106.469 41.041C94.3684 41.041 82.2432 41.041 70.1429 41.041C69.6698 41.041 69.6698 41.7879 70.1429 41.7879Z" fill="#161616"/>
<path d="M83.7372 44.8504C96.211 44.8504 108.685 44.8504 121.159 44.8504C121.632 44.8504 121.632 44.1035 121.159 44.1035C108.685 44.1035 96.211 44.1035 83.7372 44.1035C83.2393 44.1035 83.2393 44.8504 83.7372 44.8504Z" fill="#161616"/>
<path d="M24.6798 117.901C25.128 128.308 25.5761 138.74 26.0243 149.147C26.0492 149.62 26.7961 149.62 26.7712 149.147C26.3231 138.74 25.8749 128.308 25.4267 117.901C25.4018 117.428 24.6549 117.428 24.6798 117.901Z" fill="#161616"/>
<path d="M79.5296 111.825C80.6002 111.825 81.6708 111.825 82.7663 111.825C83.2394 111.825 83.2394 111.078 82.7663 111.078C81.6957 111.078 80.6251 111.078 79.5296 111.078C79.0565 111.078 79.0565 111.825 79.5296 111.825Z" fill="#161616"/>
<path d="M85.5799 111.825C88.3435 111.825 91.0823 111.825 93.8459 111.825C94.319 111.825 94.319 111.078 93.8459 111.078C91.0823 111.078 88.3435 111.078 85.5799 111.078C85.1068 111.078 85.1068 111.825 85.5799 111.825Z" fill="#161616"/>
<path d="M100.095 111.427C103.382 111.427 106.668 111.427 109.979 111.427C110.452 111.427 110.452 110.68 109.979 110.68C106.693 110.68 103.406 110.68 100.095 110.68C99.622 110.68 99.622 111.427 100.095 111.427Z" fill="#161616"/>
<path d="M83.9863 117.054C88.0197 117.054 92.0531 117.054 96.0866 117.054C96.5596 117.054 96.5596 116.307 96.0866 116.307C92.0531 116.307 88.0197 116.307 83.9863 116.307C83.4883 116.307 83.4883 117.054 83.9863 117.054Z" fill="#161616"/>
<path d="M89.8123 114.24C94.518 114.24 99.2237 114.24 103.929 114.24C104.402 114.24 104.402 113.493 103.929 113.493C99.2237 113.493 94.518 113.493 89.8123 113.493C89.3393 113.493 89.3393 114.24 89.8123 114.24Z" fill="#161616"/>
<path d="M114.809 140.856C122.727 140.856 130.669 140.856 138.587 140.856C139.06 140.856 139.06 140.109 138.587 140.109C130.669 140.109 122.727 140.109 114.809 140.109C114.336 140.109 114.336 140.856 114.809 140.856Z" fill="#161616"/>
<path d="M134.354 142.873C138.512 142.873 142.695 142.873 146.853 142.873C147.326 142.873 147.326 142.126 146.853 142.126C142.695 142.126 138.512 142.126 134.354 142.126C133.881 142.126 133.881 142.873 134.354 142.873Z" fill="#161616"/>
<path d="M145.235 139.835C149.343 139.835 153.426 139.835 157.534 139.835C158.007 139.835 158.007 139.088 157.534 139.088C153.426 139.088 149.343 139.088 145.235 139.088C144.762 139.088 144.762 139.835 145.235 139.835Z" fill="#161616"/>
<path d="M166.199 72.3378C173.792 72.3378 181.386 72.3378 188.98 72.3378C189.453 72.3378 189.453 71.5908 188.98 71.5908C181.386 71.5908 173.792 71.5908 166.199 71.5908C165.725 71.5908 165.725 72.3378 166.199 72.3378Z" fill="#161616"/>
<path d="M159.153 73.5321C161.568 73.5321 163.983 73.5321 166.398 73.5321C166.871 73.5321 166.871 72.7852 166.398 72.7852C163.983 72.7852 161.568 72.7852 159.153 72.7852C158.655 72.7852 158.655 73.5321 159.153 73.5321Z" fill="#161616"/>
<path d="M160.547 75.5497C168.663 75.5497 176.805 75.5497 184.922 75.5497C185.395 75.5497 185.395 74.8027 184.922 74.8027C176.805 74.8027 168.663 74.8027 160.547 74.8027C160.074 74.8027 160.074 75.5497 160.547 75.5497Z" fill="#161616"/>
<path d="M190.599 73.7313C192.142 73.7313 193.686 73.7313 195.23 73.7313C195.703 73.7313 195.703 72.9844 195.23 72.9844C193.686 72.9844 192.142 72.9844 190.599 72.9844C190.101 72.9844 190.101 73.7313 190.599 73.7313Z" fill="#161616"/>
<path d="M184.548 104.157C186.839 104.157 189.105 104.157 191.395 104.157C191.868 104.157 191.868 103.41 191.395 103.41C189.105 103.41 186.839 103.41 184.548 103.41C184.05 103.41 184.05 104.157 184.548 104.157Z" fill="#161616"/>
<path d="M180.117 106.174C182.606 106.174 185.096 106.174 187.561 106.174C188.034 106.174 188.034 105.427 187.561 105.427C185.071 105.427 182.582 105.427 180.117 105.427C179.619 105.427 179.619 106.174 180.117 106.174Z" fill="#161616"/>
<path d="M183.726 108.19C188.631 108.19 193.536 108.19 198.441 108.19C198.914 108.19 198.914 107.443 198.441 107.443C193.536 107.443 188.631 107.443 183.726 107.443C183.253 107.443 183.253 108.19 183.726 108.19Z" fill="#161616"/>
<path d="M193.014 105.775C194.483 105.775 195.976 105.775 197.445 105.775C197.918 105.775 197.918 105.028 197.445 105.028C195.976 105.028 194.483 105.028 193.014 105.028C192.516 105.028 192.516 105.775 193.014 105.775Z" fill="#161616"/>
<path d="M90.4598 74.7274C93.9455 74.7274 97.4062 74.7274 100.892 74.7274C101.365 74.7274 101.365 73.9805 100.892 73.9805C97.4062 73.9805 93.9455 73.9805 90.4598 73.9805C89.9867 73.9805 89.9867 74.7274 90.4598 74.7274Z" fill="#161616"/>
<path d="M98.0536 76.869C103.183 76.869 108.336 76.869 113.465 76.869C113.938 76.869 113.938 76.1221 113.465 76.1221C108.336 76.1221 103.183 76.1221 98.0536 76.1221C97.5806 76.1221 97.5557 76.869 98.0536 76.869Z" fill="#161616"/>
<path d="M111.573 74.0057C114.486 74.0057 117.424 74.0057 120.337 74.0057C120.81 74.0057 120.81 73.2588 120.337 73.2588C117.424 73.2588 114.486 73.2588 111.573 73.2588C111.1 73.2588 111.1 74.0057 111.573 74.0057Z" fill="#161616"/>
<path d="M22.4639 34.2689C23.0116 53.1662 23.5594 72.0885 24.1071 90.9859C24.2565 96.3638 24.4059 101.717 24.5802 107.095C24.6051 107.568 25.352 107.568 25.3271 107.095C24.7794 88.1974 24.2316 69.2751 23.6839 50.3777C23.5345 44.9998 23.3851 39.6468 23.2108 34.2689C23.2108 33.7958 22.4639 33.7958 22.4639 34.2689Z" fill="#161616"/>
<path d="M203.446 96.0403C203.819 108.539 204.193 121.013 204.566 133.511C204.591 133.985 205.338 133.985 205.313 133.511C204.94 121.013 204.566 108.539 204.193 96.0403C204.193 95.5673 203.446 95.5673 203.446 96.0403Z" fill="#161616"/>
<path d="M151.883 90.3133C152.032 91.832 152.182 93.3757 152.306 94.8945C153.75 94.521 155.169 94.1226 156.613 93.7492C156.414 92.2304 156.24 90.6867 156.041 89.168C154.646 89.5414 153.277 89.9398 151.883 90.3133Z" fill="#1165BA"/>
<path d="M151.011 101.941C152.505 101.742 153.974 101.567 155.468 101.368C155.667 103.186 155.841 105.003 156.041 106.821C154.696 106.871 153.352 106.92 152.032 106.97C151.683 105.277 151.36 103.609 151.011 101.941Z" fill="#1165BA"/>
<path d="M156.464 112.97C156.937 114.539 157.41 116.132 157.908 117.701C159.252 117.079 160.597 116.456 161.916 115.834C161.493 114.439 161.045 113.07 160.622 111.676C159.252 112.124 157.858 112.547 156.464 112.97Z" fill="#1165BA"/>
<path d="M58.043 127.81C58.3666 132.64 58.6903 137.47 59.014 142.276C67.4792 141.728 75.9445 141.205 84.4097 140.657C84.5591 136.325 84.7334 131.968 84.8827 127.636C75.9445 127.71 66.9813 127.76 58.043 127.81Z" fill="#1165BA"/>
<ellipse cx="163.286" cy="28.0696" rx="1.76774" ry="1.46897" fill="#1165BA"/>
<ellipse cx="43.154" cy="39.5716" rx="1.46897" ry="0.971012" fill="#1165BA"/>
<ellipse cx="66.533" cy="67.3582" rx="1.1453" ry="1.34448" fill="#1165BA"/>
<path opacity="0.21" d="M56.0265 35.1651C56.4747 35.0904 57.3461 39.2483 59.4873 46.7923C62.3007 56.7265 65.0893 64.7436 67.106 70.2211C64.0436 72.1133 57.1967 75.7235 47.86 75.848C41.2621 75.9227 36.0585 74.2296 32.9712 72.9349C39.0213 73.6072 43.9013 73.4329 47.3123 73.1092C52.7151 72.6113 51.769 72.0386 55.8522 71.8394C57.5453 71.7647 59.7612 71.7647 62.0269 70.3954C62.8485 69.8974 63.446 69.3497 63.8444 68.9513C62.2509 65.6648 60.2093 60.8346 58.5661 54.7845C55.9518 44.9499 55.3792 35.2895 56.0265 35.1651Z" fill="#6D6C6C"/>
<path opacity="0.25" d="M79.3556 62.1787C79.754 65.3407 80.476 68.8762 81.6711 72.6607C85.0821 83.4165 90.8335 91.085 95.1657 95.8156C92.5763 97.7327 89.3645 99.7245 85.5054 101.393C73.8034 106.447 62.8733 105.7 57.0223 104.804C56.7983 103.484 56.5742 102.164 56.3501 100.845C58.8399 100.92 61.479 100.87 64.2427 100.72C74.1022 100.098 82.5674 97.8821 89.3147 95.4172C87.1735 91.7821 85.6299 88.645 84.5592 86.2797C81.9699 80.6279 80.0528 76.3704 79.3805 70.619C78.9573 67.1085 79.1315 64.1456 79.3556 62.1787Z" fill="#6D6C6C"/>
<path opacity="0.14" d="M158.505 78.6611C158.754 84.3378 159.352 89.0435 159.875 92.4296C161.095 100.198 161.991 105.576 165.178 111.626C167.17 115.385 169.411 118.149 171.029 119.942C168.216 122.357 164.431 125.095 159.576 127.286C147.376 132.839 135.923 131.718 130.57 130.822C130.296 129.602 130.022 128.382 129.749 127.137C130.421 127.187 131.466 127.237 132.736 127.262C136.969 127.361 145.783 127.511 155.891 124.124C158.73 123.178 162.713 121.585 167.195 118.946C165.427 116.58 163.684 113.767 162.165 110.505C156.165 97.6332 157.36 85.1345 158.505 78.6611Z" fill="#6D6C6C"/>
<path opacity="0.18" d="M177.577 22.8154C178.075 25.1309 178.797 28.6664 179.519 33.0733C180.864 41.5883 180.764 44.6757 182.333 49.705C183.154 52.3193 184.623 56.029 187.387 60.2616C185.071 62.1539 182.183 64.1208 178.623 65.764C166.971 71.1669 155.816 69.6481 150.688 68.5775C150.737 67.5816 150.787 66.5857 150.837 65.6147C151.484 65.7889 152.455 66.013 153.65 66.2122C155.219 66.4612 161.02 67.3077 171.925 64.569C174.938 63.822 178.996 62.6269 183.652 60.7098C182.756 59.1163 181.436 56.6266 180.241 53.4397C176.755 44.2026 176.78 36.1855 176.83 32.0525C176.855 29.7868 177.004 26.6248 177.577 22.8154Z" fill="#6D6C6C"/>
<path d="M28.7384 33.7459C26.2735 46.7923 28.7633 59.9881 31.2531 72.8353C31.3526 73.3084 32.0747 73.1092 31.9751 72.6361C29.5102 59.9383 27.0453 46.867 29.4604 33.945C29.5351 33.4969 28.8131 33.2728 28.7384 33.7459Z" fill="#161616"/>
<path d="M29.4354 33.6461C32.9958 36.0363 37.3031 36.4596 41.5109 36.1608C46.3161 35.8122 51.0716 34.7914 55.8271 33.9947C56.3001 33.92 56.1009 33.198 55.6279 33.2726C51.0716 34.0196 46.5153 34.9906 41.9092 35.3641C37.7015 35.7126 33.3942 35.389 29.8089 32.9739C29.4105 32.7249 29.0371 33.3722 29.4354 33.6461Z" fill="#161616"/>
<path d="M55.3292 34.5179C56.0264 46.419 57.819 58.5691 63.8443 69.0262C64.0932 69.4494 64.7406 69.076 64.4916 68.6527C58.541 58.2952 56.7733 46.2696 56.0762 34.5179C56.0513 34.0448 55.3043 34.0448 55.3292 34.5179Z" fill="#161616"/>
<path d="M31.8755 73.0342C37.5273 74.6774 43.6023 73.6815 49.3537 73.2085C54.4577 72.7852 59.9352 72.586 64.3172 69.5983C64.7156 69.3244 64.3421 68.6771 63.9438 68.9509C59.5369 71.9636 54.0096 72.0632 48.8806 72.4864C43.3533 72.9346 37.5273 73.8558 32.0747 72.2872C31.6016 72.1876 31.4024 72.9097 31.8755 73.0342Z" fill="#161616"/>
<path d="M41.4362 39.7209C40.9382 39.4968 41.486 39.0237 41.7848 38.949C42.1582 38.8495 42.8803 38.7997 43.0545 39.2229C43.179 39.5466 42.9799 39.9699 42.6811 40.0943C42.208 40.3184 41.6852 40.0445 41.3615 39.7209C41.0129 39.3723 40.4901 39.8952 40.8386 40.2437C41.4611 40.8662 42.4819 41.1898 43.2537 40.6172C43.8762 40.169 44.1003 39.1731 43.5774 38.5756C42.9799 37.9033 41.7101 37.978 41.0378 38.476C40.4403 38.9242 40.3158 39.9948 41.0876 40.3433C41.5109 40.5674 41.8844 39.9201 41.4362 39.7209Z" fill="#161616"/>
<path d="M51.4202 73.1338C49.6276 82.2214 51.5447 91.4087 53.4867 100.322C53.5863 100.795 54.3084 100.596 54.2088 100.123C52.2917 91.3589 50.3994 82.2961 52.1423 73.333C52.2419 72.8599 51.5198 72.6607 51.4202 73.1338Z" fill="#161616"/>
<path d="M61.7031 63.5982C67.4545 62.5027 73.2805 62.1043 79.1066 62.3284C78.9821 62.2039 78.8576 62.0794 78.7331 61.9549C77.5629 73.9557 82.6919 85.3837 88.9163 95.3179C89.1653 95.7163 89.8126 95.3428 89.5637 94.9445C83.4139 85.1099 78.3099 73.8312 79.4801 61.9549C79.505 61.7558 79.2809 61.5815 79.1066 61.5815C73.2058 61.3574 67.3051 61.7807 61.5039 62.8762C61.0308 62.9758 61.23 63.6978 61.7031 63.5982Z" fill="#161616"/>
<path d="M53.8851 100.846C65.9854 102.265 78.26 100.447 89.4639 95.667C89.9121 95.4678 89.5137 94.8454 89.0905 95.0197C78.0359 99.7503 65.836 101.493 53.8851 100.099C53.412 100.049 53.412 100.796 53.8851 100.846Z" fill="#161616"/>
<path d="M66.3836 66.6609C66.3836 66.636 66.4583 66.5115 66.4583 66.4617C66.4832 66.3621 66.5579 66.2625 66.6326 66.1878C66.782 66.0633 66.9563 65.9637 67.1555 65.9388C67.5289 65.889 67.8775 66.0882 67.9771 66.4617C68.0518 66.7604 67.9273 67.1588 67.5787 67.2086C67.255 67.2584 66.9563 67.0343 66.9065 66.7107C66.8318 66.2376 66.1098 66.4368 66.1844 66.9098C66.3089 67.7813 67.4293 68.2045 68.1514 67.7813C68.9481 67.3082 68.8983 66.0882 68.2261 65.5156C67.4791 64.8931 66.2342 65.2168 65.811 66.0633C65.6118 66.4866 65.6118 67.0592 66.0849 67.3082C66.4583 67.5074 67.0061 67.3331 67.1057 66.86C67.1804 66.387 66.4583 66.1878 66.3836 66.6609Z" fill="#161616"/>
<path d="M31.2031 47.2902C37.8259 48.2114 44.3989 46.842 50.7478 45.0245C51.2209 44.9 51.0217 44.178 50.5487 44.3025C44.3242 46.0702 37.8757 47.4645 31.4023 46.5681C30.9292 46.4935 30.7301 47.2155 31.2031 47.2902Z" fill="#161616"/>
<path d="M32.4481 52.1703C35.8839 52.5438 39.3198 52.1952 42.6312 51.1495C43.0794 51.0001 42.9051 50.2781 42.4321 50.4275C39.1953 51.4483 35.8341 51.7719 32.4481 51.4234C31.975 51.3736 31.975 52.1205 32.4481 52.1703Z" fill="#161616"/>
<path d="M32.4481 58.1956C39.0211 58.9675 45.6439 58.4944 52.0177 56.8262C52.4907 56.7018 52.2916 55.9797 51.8185 56.1042C45.4945 57.7724 38.9464 58.2205 32.4481 57.4487C31.975 57.374 31.975 58.1209 32.4481 58.1956Z" fill="#161616"/>
<path d="M57.0473 96.4137C63.6452 96.7125 70.2431 95.9157 76.5671 94.0235C77.0153 93.899 76.841 93.177 76.3679 93.3015C70.0937 95.1688 63.5954 95.9655 57.0473 95.6668C56.5493 95.6419 56.5493 96.3888 57.0473 96.4137Z" fill="#161616"/>
<path d="M58.3167 90.7121C61.2546 90.6125 64.1926 90.3884 67.1305 90.0647C67.6036 90.0149 67.6036 89.268 67.1305 89.3178C64.1926 89.6415 61.2795 89.8656 58.3167 89.9652C57.8436 89.9901 57.8436 90.737 58.3167 90.7121Z" fill="#161616"/>
<path d="M60.7073 80.4542C62.6494 80.7032 64.6661 80.2052 66.5832 79.9314C68.6995 79.6077 70.7909 79.3089 72.9072 78.9853C73.3803 78.9106 73.1811 78.1885 72.708 78.2632C70.766 78.562 68.7991 78.8608 66.8571 79.1346C64.8404 79.4334 62.7489 79.9812 60.7073 79.7073C60.2343 79.6326 60.2343 80.3795 60.7073 80.4542Z" fill="#161616"/>
<path d="M148.695 24.6328C145.982 37.9531 145.708 51.6469 147.874 65.0667C147.949 65.5398 148.671 65.3406 148.596 64.8676C146.455 51.5971 146.753 38.0029 149.418 24.832C149.517 24.3589 148.795 24.1597 148.695 24.6328Z" fill="#161616"/>
<path d="M149.542 24.8075C158.58 22.741 167.917 22.3177 177.129 23.5626C177.602 23.6373 177.801 22.9153 177.328 22.8406C167.991 21.5708 158.53 21.994 149.343 24.0855C148.895 24.2099 149.094 24.932 149.542 24.8075Z" fill="#161616"/>
<path d="M176.905 22.8909C176.631 35.7133 176.805 49.2576 183.303 60.7355C183.552 61.1588 184.175 60.7853 183.951 60.362C177.527 49.0087 177.378 35.5888 177.652 22.8909C177.677 22.4179 176.93 22.4179 176.905 22.8909Z" fill="#161616"/>
<path d="M148.447 65.4661C151.235 66.3126 154.223 66.3624 157.111 66.3873C160.223 66.4122 163.335 66.213 166.448 65.7897C172.398 64.993 178.199 63.3747 183.752 61.0343C184.2 60.86 183.801 60.2126 183.378 60.3869C177.826 62.7273 171.975 64.3208 166 65.0926C163.211 65.4412 160.398 65.6404 157.584 65.6155C154.621 65.6155 151.509 65.5906 148.671 64.7191C148.173 64.6195 147.998 65.3416 148.447 65.4661Z" fill="#161616"/>
<path d="M163.684 25.6039C162.838 25.9026 162.464 26.8736 162.763 27.6953C163.112 28.6165 164.182 28.8406 164.979 28.2928C165.751 27.7451 166 26.6496 165.253 25.9524C164.605 25.3549 163.485 25.33 162.888 25.9773C162.564 26.3259 163.087 26.8487 163.41 26.5002C164.157 25.7035 165.626 26.8239 164.605 27.6206C164.207 27.9194 163.634 27.9194 163.46 27.3965C163.336 26.9981 163.46 26.4504 163.883 26.301C164.332 26.1516 164.132 25.4296 163.684 25.6039Z" fill="#161616"/>
<path d="M149.069 36.2104C155.866 36.3846 162.639 36.2602 169.411 35.812C169.884 35.7871 169.884 35.0402 169.411 35.0651C162.639 35.5132 155.841 35.6626 149.069 35.4634C148.571 35.4634 148.571 36.2104 149.069 36.2104Z" fill="#161616"/>
<path d="M149.742 39.9956C152.281 40.0952 154.821 40.1948 157.335 40.2944C157.809 40.3193 157.809 39.5723 157.335 39.5474C154.796 39.4478 152.256 39.3482 149.742 39.2487C149.244 39.2238 149.244 39.9707 149.742 39.9956Z" fill="#161616"/>
<path d="M149.044 45.2733C155.443 45.6219 161.916 45.9206 168.216 44.5264C168.689 44.4268 168.489 43.7047 168.016 43.8043C161.767 45.1737 155.368 44.8749 149.044 44.5264C148.571 44.5015 148.571 45.2484 149.044 45.2733Z" fill="#161616"/>
<path d="M56.2254 126.216C55.6528 131.196 55.4536 136.2 55.6279 141.205C55.6528 141.678 56.3997 141.678 56.3748 141.205C56.2005 136.2 56.3997 131.196 56.9724 126.216C57.0222 125.743 56.2752 125.743 56.2254 126.216Z" fill="#161616"/>
<path d="M56.4744 126.515C65.338 126.515 74.2265 126.391 83.0901 126.117C83.5632 126.092 83.5632 125.345 83.0901 125.37C74.2265 125.644 65.338 125.768 56.4744 125.768C56.0014 125.768 56.0014 126.515 56.4744 126.515Z" fill="#161616"/>
<path d="M83.0152 125.768C83.0899 130.1 83.1646 134.407 83.2393 138.74C83.2393 139.213 83.9863 139.213 83.9863 138.74C83.9116 134.407 83.8369 130.1 83.7622 125.768C83.7622 125.295 82.9903 125.295 83.0152 125.768Z" fill="#161616"/>
<path d="M55.5532 140.657C55.603 142.275 58.4165 141.553 59.3377 141.503C61.9768 141.329 64.616 141.155 67.2303 140.955C72.5833 140.582 77.9363 140.233 83.2893 139.86C83.7624 139.835 83.7624 139.088 83.2893 139.113C78.733 139.412 74.2016 139.735 69.6453 140.034C67.4792 140.184 65.3131 140.333 63.147 140.482C62.4997 140.532 56.3002 141.13 56.2753 140.657C56.3002 140.184 55.5532 140.184 55.5532 140.657Z" fill="#161616"/>
<path d="M58.4911 129.876C64.4666 129.602 70.4421 129.826 76.3677 130.573C76.8408 130.623 76.8408 129.876 76.3677 129.826C70.4421 129.079 64.4666 128.855 58.4911 129.129C57.9932 129.154 57.9932 129.901 58.4911 129.876Z" fill="#161616"/>
<path d="M58.7151 133.661C62.0514 133.412 65.4126 133.138 68.7489 132.889C69.222 132.864 69.222 132.117 68.7489 132.142C65.4126 132.391 62.0514 132.665 58.7151 132.914C58.2421 132.939 58.2421 133.686 58.7151 133.661Z" fill="#161616"/>
<path d="M59.8358 137.469C64.641 136.847 69.8695 135.577 74.6997 136.449C75.1728 136.523 75.3719 135.826 74.8989 135.727C69.9691 134.83 64.7406 136.075 59.8358 136.723C59.3876 136.797 59.3627 137.544 59.8358 137.469Z" fill="#161616"/>
<path d="M124.595 83.8398C120.636 97.932 121.134 113.02 125.989 126.838C126.138 127.286 126.861 127.087 126.711 126.639C121.906 112.945 121.408 98.0066 125.317 84.039C125.441 83.566 124.719 83.3668 124.595 83.8398Z" fill="#161616"/>
<path d="M125.093 84.0886C136.172 84.0388 147.202 82.5948 157.933 79.7813C158.406 79.6568 158.207 78.9348 157.734 79.0593C147.077 81.8478 136.122 83.2919 125.093 83.3417C124.595 83.3417 124.595 84.0886 125.093 84.0886Z" fill="#161616"/>
<path d="M157.734 79.3333C157.286 86.2549 157.584 93.2263 158.829 100.073C159.452 103.534 160.199 106.995 161.568 110.231C162.937 113.443 164.83 116.356 167.045 119.02C167.344 119.394 167.892 118.871 167.568 118.497C165.303 115.784 163.385 112.771 162.041 109.484C160.771 106.347 160.074 102.986 159.501 99.6748C158.306 92.9773 158.032 86.1304 158.456 79.3333C158.506 78.8603 157.759 78.8603 157.734 79.3333Z" fill="#161616"/>
<path d="M126.089 127.237C140.181 128.233 154.895 126.639 167.245 119.369C167.668 119.12 167.294 118.473 166.871 118.722C154.597 125.942 140.031 127.461 126.089 126.49C125.616 126.44 125.616 127.187 126.089 127.237Z" fill="#161616"/>
<path d="M141.077 86.3297C140.654 85.6077 141.501 84.7114 142.223 85.284C142.994 85.9065 142.173 86.9024 141.351 86.5787C140.903 86.4044 140.704 87.1265 141.152 87.3007C141.824 87.5746 142.646 87.2759 143.044 86.6783C143.492 86.0061 143.293 85.1595 142.671 84.6865C141.326 83.6159 139.633 85.284 140.43 86.7032C140.679 87.1265 141.326 86.753 141.077 86.3297Z" fill="#161616"/>
<path d="M125.342 94.9199C132.786 94.7954 140.23 94.2726 147.65 93.3763C148.123 93.3265 148.123 92.5795 147.65 92.6293C140.255 93.5506 132.811 94.0485 125.342 94.173C124.869 94.1979 124.869 94.9448 125.342 94.9199Z" fill="#161616"/>
<path d="M150.314 89.915C150.538 91.0603 150.762 92.2305 150.986 93.3758C151.086 93.8488 151.808 93.6496 151.708 93.1766C151.484 92.0313 151.26 90.8611 151.036 89.7158C150.961 89.2427 150.239 89.4419 150.314 89.915Z" fill="#161616"/>
<path d="M150.812 89.8157C152.181 89.6165 153.551 89.4173 154.945 89.1933C155.418 89.1186 155.219 88.3965 154.746 88.4712C153.376 88.6704 152.007 88.8696 150.613 89.0937C150.14 89.1684 150.339 89.8904 150.812 89.8157Z" fill="#161616"/>
<path d="M154.721 88.9694C154.92 90.04 155.095 91.1106 155.294 92.1563C155.369 92.6293 156.091 92.4302 156.016 91.9571C155.817 90.8865 155.642 89.8159 155.443 88.7702C155.369 88.322 154.647 88.5212 154.721 88.9694Z" fill="#161616"/>
<path d="M151.609 93.9489C153.078 93.6502 154.472 93.2518 155.866 92.704C156.315 92.5298 156.115 91.8077 155.667 91.982C154.273 92.5049 152.854 92.9281 151.41 93.2269C150.937 93.3265 151.136 94.0485 151.609 93.9489Z" fill="#161616"/>
<path d="M151.733 90.6625C152.007 91.2849 152.381 91.7829 152.929 92.2062C153.128 92.3555 153.501 92.3555 153.551 92.0319C153.75 90.6874 154.223 89.4923 155.02 88.3719C155.294 87.9735 154.646 87.6001 154.373 87.9984C153.551 89.1437 153.028 90.4384 152.829 91.8327C153.028 91.7829 153.252 91.7331 153.451 91.6584C152.978 91.2849 152.63 90.8368 152.381 90.2641C152.182 89.8409 151.534 90.2143 151.733 90.6625Z" fill="#161616"/>
<path d="M152.007 101.344C151.609 103.136 151.783 104.879 152.505 106.547C152.704 106.996 153.327 106.597 153.153 106.174C152.505 104.705 152.381 103.111 152.729 101.543C152.829 101.07 152.107 100.871 152.007 101.344Z" fill="#161616"/>
<path d="M152.505 101.592C153.999 101.343 155.493 101.119 156.987 100.87C156.837 100.72 156.688 100.571 156.538 100.422C156.289 102.015 156.464 103.534 157.086 105.028C157.26 105.476 157.982 105.277 157.808 104.829C157.235 103.484 157.036 102.065 157.26 100.621C157.31 100.322 157.111 100.123 156.812 100.173C155.318 100.397 153.824 100.646 152.331 100.895C151.833 100.944 152.032 101.667 152.505 101.592Z" fill="#161616"/>
<path d="M152.829 106.572C154.472 106.522 156.041 106.198 157.584 105.65C158.033 105.476 157.833 104.754 157.385 104.928C155.916 105.476 154.397 105.775 152.829 105.825C152.356 105.825 152.356 106.572 152.829 106.572Z" fill="#161616"/>
<path d="M153.053 103.111C153.277 103.759 153.65 104.207 154.248 104.555C154.522 104.705 154.771 104.505 154.821 104.232C154.97 102.912 155.319 101.642 155.866 100.422C156.066 99.999 155.418 99.6006 155.219 100.049C154.621 101.393 154.248 102.788 154.074 104.232C154.273 104.132 154.447 104.008 154.646 103.908C154.223 103.659 153.974 103.36 153.8 102.887C153.626 102.464 152.904 102.663 153.053 103.111Z" fill="#161616"/>
<path d="M153.551 112.896C153.725 114.564 154.173 116.133 154.92 117.626C155.119 118.05 155.767 117.676 155.567 117.253C154.895 115.884 154.472 114.415 154.323 112.896C154.248 112.423 153.501 112.423 153.551 112.896Z" fill="#161616"/>
<path d="M153.899 112.821C155.816 112.995 157.609 112.646 159.327 111.8C159.153 111.725 158.953 111.651 158.779 111.576C159.103 113.095 159.775 114.414 160.821 115.584C161.144 115.933 161.667 115.41 161.344 115.061C160.398 113.991 159.8 112.796 159.501 111.402C159.451 111.153 159.153 111.078 158.953 111.177C157.36 111.949 155.667 112.248 153.899 112.099C153.426 112.049 153.426 112.796 153.899 112.821Z" fill="#161616"/>
<path d="M155.592 117.9C157.534 117.178 159.452 116.406 161.319 115.56C161.767 115.361 161.369 114.713 160.945 114.913C159.128 115.734 157.261 116.481 155.393 117.178C154.945 117.353 155.144 118.075 155.592 117.9Z" fill="#161616"/>
<path d="M155.194 114.14C155.792 114.663 157.161 116.456 157.858 115.136C158.182 114.539 158.107 113.717 158.306 113.045C158.605 112.099 159.103 111.227 159.75 110.48C160.049 110.107 159.526 109.584 159.227 109.958C158.53 110.779 157.983 111.676 157.659 112.721C157.51 113.194 157.385 113.692 157.31 114.19C157.211 114.813 157.036 114.663 156.563 114.364C156.265 114.165 155.991 113.867 155.717 113.618C155.368 113.294 154.845 113.817 155.194 114.14Z" fill="#161616"/>
<path d="M126.014 107.094C132.985 107.02 139.932 106.447 146.804 105.351C147.277 105.277 147.077 104.555 146.604 104.629C139.782 105.7 132.911 106.273 126.014 106.322C125.541 106.347 125.541 107.094 126.014 107.094Z" fill="#161616"/>
<path d="M125.217 96.9865C129.724 97.111 134.205 96.9616 138.687 96.5882C139.16 96.5384 139.16 95.7915 138.687 95.8412C134.205 96.2147 129.699 96.3392 125.217 96.2396C124.744 96.2147 124.744 96.9616 125.217 96.9865Z" fill="#161616"/>
<path d="M126.288 108.564C131.018 108.788 135.749 108.613 140.43 108.016C140.903 107.966 140.903 107.219 140.43 107.269C135.724 107.842 130.994 108.041 126.288 107.817C125.815 107.792 125.815 108.539 126.288 108.564Z" fill="#161616"/>
<path d="M142.023 107.667C143.368 107.692 144.687 107.518 145.982 107.095C146.43 106.945 146.231 106.223 145.783 106.373C144.563 106.771 143.318 106.945 142.023 106.921C141.55 106.921 141.55 107.667 142.023 107.667Z" fill="#161616"/>
<path d="M128.828 117.925C134.504 117.576 140.156 117.053 145.783 116.281C146.256 116.207 146.256 115.46 145.783 115.535C140.156 116.281 134.504 116.829 128.828 117.178C128.33 117.203 128.33 117.95 128.828 117.925Z" fill="#161616"/>
<path d="M129.475 119.668C131.342 119.668 133.21 119.668 135.077 119.668C135.55 119.668 135.55 118.921 135.077 118.921C133.21 118.921 131.342 118.921 129.475 118.921C129.002 118.921 129.002 119.668 129.475 119.668Z" fill="#161616"/>
<path d="M131.093 121.336C134.006 121.162 136.919 120.888 139.832 120.539C142.173 120.241 144.687 120.116 146.704 118.747C147.102 118.473 146.729 117.825 146.331 118.099C144.214 119.543 141.376 119.618 138.911 119.892C136.322 120.191 133.707 120.415 131.118 120.589C130.62 120.614 130.595 121.361 131.093 121.336Z" fill="#161616"/>
<path d="M159.526 101.218C164.058 100.994 168.564 100.397 173.021 99.4506C172.871 99.3759 172.722 99.2763 172.573 99.2016C174.664 105.426 177.751 111.227 181.71 116.481C181.984 116.854 182.656 116.481 182.357 116.107C178.448 110.928 175.386 105.177 173.295 99.0273C173.22 98.8281 173.046 98.7285 172.846 98.7783C168.464 99.7244 164.033 100.297 159.551 100.521C159.028 100.496 159.028 101.243 159.526 101.218Z" fill="#161616"/>
<path d="M160.298 122.233C160.97 123.179 161.518 124.175 161.991 125.246C162.041 125.395 162.265 125.47 162.414 125.42C166.074 124.2 169.685 122.855 173.22 121.337C175.013 120.565 176.78 119.768 178.548 118.921C179.395 118.523 180.241 118.1 181.063 117.677C181.561 117.428 182.133 117.278 182.308 116.73C182.358 116.581 182.283 116.382 182.133 116.307C181.909 116.183 181.785 116.183 181.561 116.307C181.411 116.382 181.337 116.581 181.386 116.73C181.386 116.755 181.411 116.78 181.411 116.805C181.536 117.278 182.258 117.079 182.133 116.606C182.133 116.581 182.109 116.556 182.109 116.531C182.059 116.681 181.984 116.805 181.934 116.955C181.884 116.955 181.81 116.955 181.76 116.955C181.71 116.805 181.635 116.681 181.586 116.531C181.436 116.979 179.868 117.453 179.444 117.677C178.747 118.025 178.05 118.349 177.328 118.697C175.66 119.494 173.967 120.241 172.249 120.963C168.963 122.357 165.601 123.602 162.215 124.723C162.365 124.772 162.489 124.847 162.638 124.897C162.19 123.826 161.618 122.83 160.945 121.884C160.672 121.461 160.024 121.835 160.298 122.233Z" fill="#161616"/>
<path d="M164.63 103.16C164.581 102.837 165.178 102.538 165.402 102.762C165.701 103.061 165.203 103.608 164.855 103.484C164.406 103.31 164.207 104.032 164.655 104.206C165.726 104.604 166.772 103.061 165.95 102.239C165.577 101.866 165.004 101.89 164.556 102.115C164.083 102.364 163.834 102.837 163.933 103.359C163.983 103.833 164.705 103.608 164.63 103.16Z" fill="#161616"/>
<path d="M54.3082 83.2429C57.0718 83.2927 59.8604 83.1682 62.5991 82.7948C65.4624 82.3964 68.3007 81.5748 71.2137 81.6993C71.6868 81.7242 71.6868 80.9772 71.2137 80.9523C68.5497 80.8527 65.9603 81.525 63.346 81.9233C60.3583 82.3964 57.3208 82.5707 54.2833 82.496C53.8351 82.496 53.8351 83.2429 54.3082 83.2429Z" fill="#161616"/>
<path d="M54.7068 75.0013C58.9395 75.325 63.1721 74.9515 67.2802 73.8809C67.7533 73.7564 67.5541 73.0344 67.081 73.1589C63.0227 74.2046 58.8897 74.5781 54.7068 74.2544C54.2338 74.2295 54.2338 74.9764 54.7068 75.0013Z" fill="#161616"/>
<path d="M150.513 54.0371C150.09 56.7758 149.741 59.7387 151.459 62.1289C151.733 62.5272 152.381 62.1538 152.107 61.7554C150.513 59.5395 150.862 56.7758 151.235 54.2363C151.31 53.7632 150.588 53.564 150.513 54.0371Z" fill="#161616"/>
<path d="M150.737 54.0127C156.663 54.2368 162.589 53.6642 168.365 52.2948C168.216 52.2201 168.066 52.1205 167.917 52.0458C168.44 54.6103 169.436 57.0005 170.83 59.1915C171.079 59.5898 171.726 59.2164 171.477 58.818C170.108 56.6768 169.162 54.3364 168.639 51.8466C168.589 51.6474 168.365 51.5479 168.191 51.5977C162.489 52.9421 156.638 53.5148 150.762 53.2907C150.264 53.2409 150.264 53.9878 150.737 54.0127Z" fill="#161616"/>
<path d="M152.082 62.104C158.506 61.9049 164.855 60.9587 171.029 59.2657C171.502 59.1412 171.303 58.4192 170.83 58.5437C164.705 60.2367 158.431 61.1828 152.082 61.3571C151.584 61.382 151.584 62.1289 152.082 62.104Z" fill="#161616"/>
<path d="M239.871 236.015C239.871 238.828 239.871 241.617 239.871 244.43C219.953 252.323 215.894 255.136 216.193 256.157C216.268 256.406 216.791 257.153 227.248 255.933C237.605 254.713 245.996 252.945 251.822 251.501C250.801 245.75 249.755 239.998 248.735 234.247C245.772 234.845 242.809 235.442 239.871 236.015Z" fill="#161616"/>
<path d="M248.809 116.929C248.236 118 248.037 118.871 247.988 119.071C244.427 134.208 239.771 143.147 236.734 160.7C230.933 194.511 235.937 232.928 236.41 236.538C238.004 237.235 241.066 238.281 244.975 238.132C248.411 237.982 251.075 236.961 252.594 236.239C252.021 225.21 252.594 211.591 256.403 196.577C261.059 178.178 266.96 172.078 272.263 150.566C276.197 134.632 280.753 116.083 272.885 110.58C266.86 106.298 252.743 109.435 248.809 116.929Z" fill="#EC615B"/>
<path opacity="0.2" d="M262.578 124.872C258.594 143.047 254.884 162.418 251.747 182.908C248.784 202.179 246.569 220.628 244.925 238.156C247.44 237.634 249.93 237.111 252.444 236.588C252.121 228.845 252.469 222.247 252.967 217.193C253.565 210.918 255.084 196.303 261.184 181.713C261.98 179.846 263.001 177.58 264.669 173.323C267.483 166.277 269.524 160.251 270.445 157.413C274.778 143.869 276.944 128.158 277.616 122.979C272.587 123.577 267.582 124.224 262.578 124.872Z" fill="#6D6C6C"/>
<path opacity="0.19" d="M270.794 156.517C261.034 169.239 256.478 180.767 254.187 188.51C252.096 195.556 251.175 201.781 249.979 209.848C248.286 221.301 247.639 230.961 247.365 237.833C249.008 237.434 250.627 237.011 252.27 236.613C251.996 226.977 252.668 218.736 253.49 212.312C254.486 204.694 255.631 195.855 259.615 185.224C261.059 181.365 261.756 180.269 265.043 171.928C267.582 165.405 269.524 160.052 270.794 156.517Z" fill="#6D6C6C"/>
<path d="M293.65 233.152C295.044 236.613 296.463 240.074 297.858 243.559C286.156 251.004 280.628 255.336 281.251 256.606C282.023 258.174 292.131 255.062 311.576 247.319C309.51 240.597 307.443 233.899 305.377 227.177C301.468 229.169 297.559 231.16 293.65 233.152Z" fill="#161616"/>
<path d="M284.04 117.228C290.14 122.805 289.94 130.623 290.712 143.57C290.712 143.57 292.604 175.414 298.953 201.009C300.547 207.408 303.435 217.342 308.788 229.243C307.892 230.388 305.452 233.177 301.169 234.646C296.787 236.14 293.053 235.343 291.658 234.969C284.04 221.973 278.637 210.893 275.151 203.225C258.992 167.82 257.698 149.172 257.698 139.437C257.698 129.428 257.872 117.427 265.316 113.419C270.918 110.406 279.135 112.746 284.04 117.228Z" fill="#EC615B"/>
<path opacity="0.15" d="M266.761 121.037C269.524 131.668 272.512 142.474 275.699 153.429C284.015 181.862 293.053 208.727 302.539 233.923C303.46 233.45 304.58 232.803 305.726 231.932C306.896 231.035 307.817 230.139 308.514 229.342C307.22 226.33 305.427 221.973 303.535 216.62C300.671 208.428 296.016 193.365 293.601 173.297C291.285 154.027 290.115 144.391 290.214 138.316C290.289 133.312 290.737 123.128 284.264 117.651C282.919 116.531 281.6 115.858 280.679 115.46C276.023 117.327 271.392 119.195 266.761 121.037Z" fill="#6D6C6C"/>
<path opacity="0.22" d="M290.513 144.79C289.368 156.367 288.994 171.879 291.783 189.805C294.596 207.831 299.701 222.546 304.307 233.252C305.726 232.082 307.145 230.911 308.564 229.716C306.871 225.708 304.655 220.131 302.439 213.309C298.182 200.188 296.339 189.955 294.746 180.767C293.127 171.356 291.434 159.181 290.513 144.79Z" fill="#6D6C6C"/>
<path d="M173.942 26.2764C172.946 26.7743 171.577 27.6457 170.506 29.1396C169.934 29.9114 169.237 30.9322 169.137 32.3763C169.112 32.949 169.037 34.1939 169.834 35.0155C170.058 35.2645 170.656 35.7375 173.594 35.6379C176.208 35.5383 177.527 35.4885 178.2 34.7914C179.494 33.4469 179.021 30.9073 178.2 29.3886C176.905 26.9735 174.365 26.376 173.942 26.2764Z" fill="white" stroke="#161616" stroke-width="2"/>
<path d="M188.98 32.5254C192.491 36.5339 198.118 38.9241 208.45 43.1816C221.472 48.5595 227.995 51.2485 235.713 52.1946C244.054 53.2154 248.511 52.1448 250.054 54.8586C252.071 58.3692 247.341 64.9422 242.461 70.4446C238.826 69.6479 235.066 68.652 231.182 67.3573C209.894 60.3112 194.508 47.9122 184.399 37.6045C183.129 37.8784 180.963 38.1522 178.498 37.4053C176.382 36.7829 173.394 35.1894 173.569 33.9196C173.793 32.376 179.195 32.1021 179.519 32.0772C177.876 31.405 175.511 30.2597 172.946 28.3923C172.199 27.8446 167.917 24.6826 168.44 23.6867C168.888 22.8152 172.772 24.0103 176.432 25.1307C179.768 26.1515 182.084 26.8736 184.623 28.6164C187.063 30.2597 188.482 31.9527 188.98 32.5254Z" fill="white" stroke="#161616" stroke-width="2"/>
<path d="M171.751 26.5501C172.349 27.2223 172.473 28.1186 172.996 28.8158C173.444 29.4382 174.092 29.8864 174.764 30.2598C176.781 31.3802 178.922 32.3015 180.988 33.3223C181.337 33.4965 181.785 33.0235 181.436 32.7247C180.366 31.8035 179.221 30.9819 178.025 30.2349C177.627 29.986 177.229 30.6333 177.652 30.8823C178.797 31.6043 179.893 32.3761 180.914 33.2476C181.063 33.0484 181.212 32.8492 181.362 32.65C179.395 31.7039 177.428 30.7827 175.486 29.7619C174.565 29.2888 173.743 28.7411 173.27 27.795C172.946 27.1476 172.772 26.5252 172.274 25.9774C171.95 25.6787 171.428 26.2015 171.751 26.5501Z" fill="white"/>
<path d="M173.693 29.1644C174.838 29.6624 175.934 30.3097 176.93 31.0816C177.303 31.3803 177.826 30.8575 177.453 30.5587C176.407 29.7371 175.286 29.0649 174.066 28.5171C173.618 28.3179 173.245 28.9653 173.693 29.1644Z" fill="white"/>
<path d="M170.755 26.1022C171.701 27.621 172.946 28.8659 174.415 29.8618C174.814 30.1357 175.187 29.4883 174.789 29.2145C173.419 28.2932 172.274 27.1231 171.403 25.7039C171.154 25.3304 170.506 25.7039 170.755 26.1022Z" fill="white"/>
<path d="M171.875 28.1434C172.373 28.8156 172.921 29.4381 173.544 29.9858C173.992 30.3842 175.959 31.8034 174.938 32.5254C174.739 32.6499 174.938 32.9736 175.137 32.8491C175.834 32.376 175.56 31.5295 175.137 30.9568C174.813 30.5336 174.365 30.2099 173.942 29.8364C173.295 29.2638 172.722 28.6413 172.199 27.9691C172.05 27.745 171.726 27.9442 171.875 28.1434Z" fill="#161616"/>
<path d="M171.352 30.7329C172.099 31.7538 173.519 33.1978 174.913 32.7746C175.137 32.6999 175.037 32.3513 174.813 32.426C173.618 32.7995 172.299 31.4301 171.676 30.5587C171.527 30.3595 171.203 30.5338 171.352 30.7329Z" fill="#161616"/>
<path d="M170.257 32.476C171.079 33.5964 172.274 34.2438 173.668 34.3185C173.917 34.3434 173.917 33.9699 173.668 33.945C172.423 33.8703 171.328 33.2727 170.581 32.2768C170.431 32.0777 170.108 32.2768 170.257 32.476Z" fill="#161616"/>
<path d="M169.461 34.7164C170.631 35.9364 172.573 35.9613 173.743 34.7164C173.917 34.5421 173.643 34.2683 173.469 34.4425C172.448 35.538 170.755 35.5131 169.734 34.4425C169.56 34.2683 169.286 34.5421 169.461 34.7164Z" fill="#161616"/>
<path d="M169.709 26.0521C172.473 27.8696 174.465 30.9321 177.926 31.5296C178.15 31.5794 178.274 31.2059 178.025 31.181C174.614 30.6084 172.622 27.546 169.908 25.7533C169.684 25.579 169.51 25.9027 169.709 26.0521Z" fill="#161616"/>
<path opacity="0.2" d="M169.41 34.1937C168.514 32.9737 169.261 30.3594 171.427 27.8945C173.867 29.3137 176.282 30.7578 178.722 32.1769C178.274 32.1769 174.34 32.2267 174.066 33.4467C174.016 33.6459 174.066 33.9447 174.44 34.3679C175.685 34.9655 177.776 35.7622 180.465 35.8369C181.859 35.8618 183.079 35.6875 184.025 35.4634C189.105 40.5924 198.043 48.3356 211.189 53.9625C222.741 58.8922 233.099 60.3114 239.946 60.7098C239.722 63.6477 239.498 66.5607 239.274 69.4987C227.995 66.5109 212.708 60.8343 197.52 49.4311C192.341 45.547 187.909 41.5385 184.125 37.6793C180.639 38.252 178.473 37.6544 177.104 36.9573C175.934 36.3598 175.187 35.6128 173.643 35.4883C172.622 35.4137 171.751 35.6626 170.63 35.1149C170.506 35.0651 169.784 34.6916 169.41 34.1937Z" fill="#6D6C6C"/>
<path opacity="0.14" d="M201.479 51.7715C204.965 53.6388 208.998 55.531 213.604 57.1494C223.638 60.7098 232.726 61.8302 239.672 62.0792C239.573 64.6187 239.498 67.1832 239.398 69.7228C232.178 68.0297 223.115 65.0669 213.505 59.689C208.899 57.1245 204.915 54.4106 201.479 51.7715Z" fill="#6D6C6C"/>
<path d="M240.842 58.8672C239.423 62.079 239.348 64.743 239.224 69.5234C239.124 73.1336 239.373 77.0176 241.315 87.2257C243.68 99.575 244.801 101.567 245.174 108.115C245.473 113.244 245.075 117.452 244.701 120.24C247.838 121.958 253.092 124.298 259.963 124.821C272.113 125.743 281.102 120.389 284.189 118.348C284.562 110.53 284.936 102.687 285.334 94.8693C283.965 88.1967 282.346 82.9682 281.176 79.5323C277.491 68.7018 274.056 63.5728 276.247 58.1451C277.467 55.1325 279.882 53.2901 281.55 52.2693C280.38 51.3729 268.105 42.2853 254.71 46.9909C253.316 47.464 244.502 50.5762 240.842 58.8672Z" fill="white" stroke="#161616" stroke-width="2"/>
<path opacity="0.19" d="M254.66 46.9664C258.395 52.9418 260.486 58.2202 261.681 61.905C261.681 61.905 267.532 79.682 263.25 103.534C262.329 108.613 260.685 115.834 257.449 124.1C258.694 124.373 260.187 124.598 261.881 124.672C261.881 124.672 264.495 124.797 267.433 124.423C271.018 123.95 277.168 122.033 284.413 118.348C284.537 110.007 284.662 101.692 284.786 93.3509C282.944 86.3048 281.077 80.653 279.682 76.6943C276.321 67.258 273.956 62.8262 275.898 58.1455C277.168 55.083 279.757 53.1908 281.774 52.0953C279.135 50.3525 274.255 47.6386 267.582 46.5929C262.08 45.7464 257.548 46.3439 254.66 46.9664Z" fill="#6D6C6C"/>
<path opacity="0.11" d="M258.071 46.3936C262.08 51.3233 266.761 58.5188 269.649 68.0048C277.84 95.0936 264.37 118.846 261.258 124.05C263.872 124.025 266.935 123.801 270.271 123.153C276.222 122.008 280.977 119.966 284.388 118.149C284.513 110.381 284.637 102.613 284.762 94.8695C282.645 87.674 280.654 80.852 277.94 71.5901C276.097 65.2411 274.653 60.0375 277.367 55.8796C278.687 53.8629 280.529 52.7425 281.923 52.0951C273.981 50.178 266.014 48.2858 258.071 46.3936Z" fill="#6D6C6C"/>
<path d="M256.229 97.2599C256.154 91.9318 256.104 86.6285 256.03 81.3004C268.802 80.6531 281.575 80.0057 294.372 79.3584C294.82 84.2882 295.269 89.2179 295.742 94.1477C282.571 95.1934 269.4 96.2142 256.229 97.2599Z" fill="white" stroke="#161616" stroke-width="2"/>
<path d="M252.345 95.5168C252.345 93.5748 252.345 91.6328 252.345 89.6907C268.752 88.4707 285.16 87.2258 301.568 86.0059C301.692 88.396 301.817 90.8111 301.966 93.2013C285.434 93.9482 268.877 94.745 252.345 95.5168Z" fill="white" stroke="#161616" stroke-width="2"/>
<path d="M253.714 86.7529C253.914 89.6161 254.113 92.4545 254.287 95.3177C269.475 94.0977 284.637 92.8528 299.825 91.6328C299.949 89.0435 300.074 86.4541 300.223 83.8398C284.712 84.8109 269.201 85.7819 253.714 86.7529Z" fill="white" stroke="#161616" stroke-width="2"/>
<path d="M250.004 93.1763C250.453 104.53 250.901 115.883 251.374 127.236C268.304 125.344 285.235 123.477 302.165 121.585C302.688 110.43 303.211 99.2763 303.734 88.1221C285.807 89.8151 267.906 91.4833 250.004 93.1763Z" fill="white" stroke="#161616" stroke-width="2"/>
<path d="M252.892 97.6084C260.586 96.5876 268.279 95.8655 276.022 95.4174C276.371 95.3925 276.371 94.8447 276.022 94.8447C268.279 95.2929 260.561 96.0149 252.892 97.0357C252.544 97.0855 252.544 97.6582 252.892 97.6084Z" fill="#161616"/>
<path d="M261.482 99.1273C267.383 98.3803 273.284 97.6085 279.209 96.8616C279.558 96.8118 279.558 96.264 279.209 96.2889C273.309 97.0358 267.408 97.8077 261.482 98.5546C261.134 98.6293 261.134 99.177 261.482 99.1273Z" fill="#161616"/>
<path d="M289.841 115.062C289.741 116.631 289.741 118.224 289.891 119.793C289.916 120.141 290.488 120.141 290.463 119.793C290.314 118.224 290.289 116.631 290.414 115.062C290.438 114.714 289.866 114.714 289.841 115.062Z" fill="#161616"/>
<path d="M290.09 115.112C293.177 115.187 296.239 115.012 299.302 114.614C299.202 114.514 299.103 114.415 299.028 114.34C298.978 115.784 299.028 117.203 299.127 118.622C299.152 118.971 299.725 118.971 299.7 118.622C299.576 117.203 299.551 115.759 299.601 114.34C299.601 114.191 299.476 114.041 299.327 114.066C296.264 114.465 293.202 114.614 290.114 114.564C289.716 114.539 289.716 115.087 290.09 115.112Z" fill="#161616"/>
<path d="M290.314 120.24C293.376 120.29 296.389 119.966 299.376 119.294C299.725 119.219 299.576 118.672 299.227 118.746C296.289 119.394 293.326 119.717 290.314 119.667C289.965 119.667 289.965 120.215 290.314 120.24Z" fill="#161616"/>
<path d="M291.484 116.854C293.376 116.979 295.244 116.879 297.136 116.58C297.484 116.53 297.335 115.983 296.986 116.032C295.169 116.331 293.327 116.406 291.484 116.281C291.136 116.257 291.136 116.829 291.484 116.854Z" fill="#161616"/>
<path d="M292.679 118.423C294.646 118.373 296.538 118 298.406 117.328C298.729 117.203 298.605 116.656 298.256 116.78C296.464 117.452 294.596 117.801 292.679 117.875C292.33 117.851 292.306 118.423 292.679 118.423Z" fill="#161616"/>
<path opacity="0.2" d="M258.046 125.942C258.495 115.435 258.943 104.929 259.366 94.3968C273.906 93.2266 288.471 92.0813 303.012 90.9111C302.688 100.87 302.339 110.829 302.016 120.788C287.351 122.506 272.711 124.224 258.046 125.942Z" fill="#6D6C6C"/>
<path opacity="0.2" d="M297.534 84.1143C297.609 87.0024 297.46 90.4383 296.713 94.2476C294.87 103.609 290.439 110.356 287.426 114.166C289.468 116.88 291.509 119.594 293.576 122.307C287.326 123.029 281.077 123.751 274.828 124.474C275.824 113.07 276.819 101.667 277.815 90.2889C277.492 88.795 277.143 87.3012 276.819 85.8073C283.716 85.2098 290.638 84.662 297.534 84.1143Z" fill="#6D6C6C"/>
<path d="M280.205 51.5975C285.409 50.9004 291.609 62.8513 294.073 71.441C296.912 81.3254 295.667 89.8654 294.646 94.3719C292.654 103.211 288.521 109.435 285.932 112.796C286.33 114.116 287.252 117.701 285.733 121.635C283.492 127.386 277.417 130.15 276.944 129.627C276.794 129.453 277.093 128.731 279.459 126.017C278.961 126.54 275.375 130.1 271.342 129.254C270.645 129.104 269.773 128.93 269.275 128.233C268.105 126.54 270.047 122.705 274.18 118.448C269.674 119.568 268.479 119.27 268.255 118.772C267.682 117.577 272.288 114.19 273.956 112.946C276.421 111.128 278.637 109.883 280.156 109.111C284.413 100.273 284.189 93.3759 283.816 90.1392C283.268 85.3589 281.475 80.1552 281.127 79.1593C280.131 76.2961 279.658 75.6488 277.666 70.4949C274.454 62.2289 274.454 60.8097 274.579 59.7142C275.027 56.4277 277.243 51.9959 280.205 51.5975Z" fill="white" stroke="#161616" stroke-width="2"/>
<path d="M269.375 127.536C272.139 125.967 274.554 123.951 276.571 121.511C276.869 121.137 276.346 120.614 276.048 120.988C274.081 123.378 271.715 125.37 269.002 126.914C268.578 127.113 268.952 127.76 269.375 127.536Z" fill="#161616"/>
<path d="M271.815 129.204C274.554 127.785 276.894 125.818 278.786 123.378C279.085 123.004 278.438 122.631 278.139 123.004C276.346 125.345 274.056 127.212 271.442 128.557C271.018 128.781 271.392 129.428 271.815 129.204Z" fill="#161616"/>
<path opacity="0.17" d="M278.114 52.7924C273.16 57.0997 293.377 75.9971 289.916 97.459C287.55 112.174 277.741 121.784 277.741 121.784C275.002 124.523 269.848 127.884 270.471 129.054C270.919 129.901 274.031 129.129 275.151 128.78C277.268 128.133 278.737 127.037 279.558 126.315C278.313 127.71 276.894 129.428 277.193 129.776C277.616 130.224 281.152 128.382 283.368 125.793C287.202 121.311 286.654 115.087 286.281 112.547C287.177 111.377 288.347 109.734 289.542 107.642C290.638 105.775 293.8 99.9487 295.169 92.0313C297.584 78.0138 292.63 66.9592 290.638 62.627C288.845 58.7679 285.808 52.3691 281.202 52.0953C280.604 52.0206 279.085 51.9459 278.114 52.7924Z" fill="#6D6C6C"/>
<path opacity="0.22" d="M294.895 91.6328C293.551 95.5418 291.957 99.6499 290.065 103.957C288.72 107.02 287.351 109.883 285.957 112.597C285.26 114.838 283.94 118.199 281.326 121.659C278.587 125.295 275.574 127.51 273.558 128.78C274.13 128.805 274.827 128.755 275.599 128.556C277.541 128.108 278.836 127.037 279.483 126.39C278.736 127.336 277.965 128.257 277.218 129.204C277.815 129.104 278.761 128.93 279.807 128.457C285.284 125.992 286.43 119.294 286.504 118.846C286.704 117.626 286.828 115.535 286.081 112.945C287.874 110.829 290.14 107.667 291.957 103.409C293.974 98.7287 294.646 94.521 294.895 91.6328Z" fill="#6D6C6C"/>
<path d="M235.116 35.2149C231.107 39.7961 233.871 46.1949 234.244 47.0663C235.638 50.303 239.249 54.9091 243.83 54.5356C247.166 54.2368 249.282 51.4234 249.805 50.6764C253.49 45.3732 252.27 35.2398 246.046 32.6256C242.61 31.1815 237.879 32.028 235.116 35.2149Z" fill="#1165BA"/>
<path d="M245.224 39.2984C245.398 41.2653 247.465 41.6885 248.859 44.9252C249.855 47.2656 249.855 49.5562 249.681 51.1995C251.299 51.3489 254.287 51.4236 257.673 50.1289C260.337 49.1081 262.204 47.6391 263.325 46.6183C262.802 45.4481 262.03 43.7302 261.109 41.6885C257.125 32.9992 256.478 32.2523 255.507 31.8788C251.623 30.4099 244.9 35.6384 245.224 39.2984Z" fill="white" stroke="#161616" stroke-width="2"/>
<path d="M230.883 13.5791C230.037 14.7742 229.514 16.2431 229.439 22.5423C229.389 27.9202 229.688 32.8251 230.186 37.1822C231.306 36.5348 232.427 35.8875 233.547 35.2401C234.045 36.4601 234.892 38.1283 236.336 39.7466C239.199 42.9584 242.685 44.0539 244.228 44.4523C245.847 44.0539 249.88 42.809 252.942 38.9997C254.959 36.4601 255.607 33.9454 255.756 33.3728C256.677 29.6132 255.781 26.501 255.308 25.2063C255.905 24.9325 256.827 24.4096 257.524 23.4635C258.993 21.4717 259.391 17.9113 257.573 16.7162C256.229 15.8199 253.839 16.3427 252.046 18.1852C251.648 17.264 251.025 15.9942 250.029 14.6746C249.78 14.3509 247.913 11.9109 245.623 10.6412C241.216 8.10159 233.921 9.29668 230.883 13.5791Z" fill="white" stroke="#161616" stroke-width="2"/>
<path d="M229.065 21.3965C228.069 21.2222 226.227 20.6994 225.356 19.1806C223.862 16.6161 226.053 12.7072 226.6 11.7362C227.049 10.9145 228.244 8.94763 233.323 5.38725C237.182 2.67339 239.124 1.32892 241.215 0.681574C248.635 -1.53433 255.432 2.29993 256.702 3.02196C259.366 4.54073 261.059 6.18398 262.403 7.47866C264.47 9.47048 266.785 11.7611 269.375 14.4002C276.023 23.0149 278.363 30.8825 279.309 35.5882C280.38 40.9163 281.475 46.344 278.288 49.531C275.101 52.7179 269.275 52.0705 265.715 50.5518C260.76 48.4355 258.644 43.9539 257.001 40.4931C254.212 34.5674 254.038 28.8907 254.312 25.2059C256.801 24.4838 258.071 22.1434 257.499 20.3757C257.05 18.9814 255.382 17.5871 253.664 18.0851C252.345 18.4586 251.399 19.8279 251.473 21.4214C250.278 21.3965 247.091 21.1226 244.054 18.832C241.838 17.1639 240.717 15.1721 240.195 14.0766C238.825 14.2508 236.087 14.7488 233.323 16.7406C231.007 18.3341 229.713 20.2512 229.065 21.3965Z" fill="#1165BA"/>
<path opacity="0.24" d="M245.548 26.1516C248.536 29.7618 249.482 33.5712 249.482 33.5712C250.453 37.8536 249.058 41.4886 248.436 42.9576C250.005 41.7625 251.598 40.5674 253.167 39.3723C254.262 43.0074 255.333 46.6176 256.428 50.2526C257.25 50.178 258.943 49.8792 260.636 48.6841C261.931 47.7629 262.702 46.6923 263.126 46.02C261.109 44.1527 257.25 40.0197 255.482 33.5214C254.636 30.3842 254.511 27.5957 254.611 25.5043C256.876 24.5831 258.047 22.3672 257.573 20.5247C257.225 19.1803 255.855 17.5619 254.088 17.8109C252.619 18.035 251.399 19.479 251.424 21.2468C250.303 21.2468 247.664 21.1223 244.9 19.4541C242.037 17.7362 240.668 15.346 240.145 14.3252C240.27 19.1056 241.738 21.8692 243.058 23.5125C243.929 24.6329 244.328 24.6827 245.548 26.1516Z" fill="#6D6C6C"/>
<path d="M233.97 25.1058C233.696 26.1018 233.721 27.1226 234.095 28.0936C234.219 28.4421 234.692 28.467 234.817 28.0936C235.116 27.1973 235.116 26.2511 234.842 25.3548C234.692 24.9067 233.97 25.0809 234.12 25.554C234.369 26.3507 234.344 27.1226 234.095 27.9193C234.344 27.9193 234.568 27.9193 234.817 27.9193C234.493 27.0728 234.443 26.2013 234.692 25.3299C234.817 24.832 234.12 24.6328 233.97 25.1058Z" fill="#161616"/>
<path d="M233.074 23.5626C233.721 23.1642 234.518 23.2389 235.066 23.7617C235.414 24.0854 235.937 23.5626 235.589 23.2389C234.817 22.492 233.622 22.3426 232.701 22.9152C232.302 23.1642 232.676 23.8115 233.074 23.5626Z" fill="#161616"/>
<path d="M235.763 29.8866C236.236 29.8866 236.236 29.1396 235.763 29.1396C235.265 29.1396 235.265 29.8866 235.763 29.8866Z" fill="#161616"/>
<path d="M237.406 27.7201C237.406 27.745 237.406 27.7699 237.406 27.7948C237.406 27.994 237.581 28.1683 237.78 28.1683C237.979 28.1683 238.153 27.994 238.153 27.7948C238.153 27.7699 238.153 27.745 238.153 27.7201C238.153 27.521 237.979 27.3467 237.78 27.3467C237.581 27.3467 237.406 27.4961 237.406 27.7201Z" fill="#161616"/>
<path d="M237.481 29.5878C237.954 29.5878 237.954 28.8408 237.481 28.8408C237.008 28.8408 237.008 29.5878 237.481 29.5878Z" fill="#161616"/>
<path d="M227.223 26.2519C226.924 27.2478 226.949 28.2687 227.298 29.2397C227.422 29.5882 227.895 29.5882 228.02 29.2397C228.318 28.3433 228.343 27.3972 228.094 26.5009C227.97 26.0279 227.248 26.227 227.372 26.7001C227.596 27.4968 227.572 28.2687 227.298 29.0405C227.547 29.0405 227.771 29.0405 228.02 29.0405C227.721 28.194 227.671 27.3225 227.945 26.4511C228.069 25.9781 227.347 25.7789 227.223 26.2519Z" fill="#161616"/>
<path d="M226.8 24.3847C227.323 24.1108 228.045 24.2353 228.393 24.7332C228.667 25.1067 229.315 24.7332 229.041 24.3598C228.418 23.5381 227.348 23.2643 226.426 23.7373C226.003 23.9614 226.377 24.6087 226.8 24.3847Z" fill="#161616"/>
<path d="M235.19 37.9284C237.107 37.5798 238.775 36.559 240.02 35.0402C240.244 34.7663 239.846 34.368 239.622 34.6419C238.452 36.0859 236.883 37.032 235.041 37.3806C234.692 37.4553 234.841 38.0031 235.19 37.9284Z" fill="#161616"/>
<path d="M239.074 34.6916C239.523 34.841 239.896 35.0651 240.22 35.3888C240.469 35.6377 240.867 35.2394 240.618 34.9904C240.22 34.592 239.747 34.3182 239.224 34.1439C238.875 34.0443 238.726 34.592 239.074 34.6916Z" fill="#161616"/>
<path opacity="0.45" d="M254.585 2.12598C257.747 6.50798 261.806 12.7075 265.665 20.625C269.748 28.9906 272.736 35.2898 270.42 37.7796C267.358 41.091 256.776 35.8375 255.083 34.9661C255.432 37.2318 256.303 40.842 258.868 44.4522C260.163 46.2697 262.428 49.4815 266.611 50.9754C269.126 51.8717 271.367 51.8219 272.238 51.7472C273.408 51.6725 274.753 51.5729 276.222 50.7762C276.222 50.7762 278.139 49.7554 279.433 47.664C281.4 44.477 280.355 40.1697 278.96 34.7669C277.292 28.2935 275.051 23.9862 272.86 19.7287C272.313 18.683 271.665 17.463 270.62 16.0438C269.574 14.5997 268.802 13.8279 265.565 10.7157C260.76 6.05982 260.013 5.38758 258.569 4.41657C256.976 3.32107 255.556 2.59903 254.585 2.12598Z" fill="#0F4F8F"/>
<path opacity="0.43" d="M248.585 44.4766C248.785 45.0492 249.233 46.6676 248.585 48.4602C247.614 51.1243 244.925 52.0206 244.502 52.1451C241.44 53.141 237.581 51.5724 234.991 48.1614C235.34 49.0577 236.112 50.6512 237.705 52.0455C238.502 52.7426 240.668 54.6099 243.73 54.3859C244.253 54.3361 247.614 54.0871 249.158 51.1741C250.278 49.1075 250.029 46.5182 248.585 44.4766Z" fill="#371B9B"/>
</svg>
