<svg width="191" height="32" viewBox="0 0 191 32" fill="none" xmlns="http://www.w3.org/2000/svg">
<path d="M9.53809 20.6152C10.5577 20.6152 11.3848 21.4423 11.3848 22.4619V26.1543C11.3845 27.1737 10.5575 28 9.53809 28H5.8457C4.82646 27.9998 4.00024 27.1735 4 26.1543V22.4619C4 21.4425 4.82631 20.6155 5.8457 20.6152H9.53809ZM18.0352 20.625C18.966 20.7197 19.6924 21.5061 19.6924 22.4619V26.1543L19.6826 26.3428C19.5943 27.2115 18.9038 27.9019 18.0352 27.9902L17.8457 28H14.1543L13.9648 27.9902C13.0962 27.9019 12.4057 27.2115 12.3174 26.3428L12.3076 26.1543V22.4619C12.3076 21.5061 13.034 20.7197 13.9648 20.625L14.1543 20.6152H17.8457L18.0352 20.625ZM14.1543 21.415C13.5765 21.415 13.1074 21.8841 13.1074 22.4619V26.1543C13.1077 26.7319 13.5767 27.2002 14.1543 27.2002H17.8457C18.4233 27.2002 18.8923 26.7319 18.8926 26.1543V22.4619C18.8926 21.8841 18.4235 21.415 17.8457 21.415H14.1543ZM9.72754 12.3174C10.6583 12.4121 11.3848 13.1985 11.3848 14.1543V17.8457L11.375 18.0352C11.2867 18.9038 10.5962 19.5942 9.72754 19.6826L9.53809 19.6924H5.8457L5.65723 19.6826C4.78853 19.5943 4.09811 18.9038 4.00977 18.0352L4 17.8457V14.1543C4 13.1985 4.72638 12.412 5.65723 12.3174L5.8457 12.3076H9.53809L9.72754 12.3174ZM17.8457 12.3076C18.8653 12.3076 19.6924 13.1347 19.6924 14.1543V17.8457C19.6924 18.8653 18.8653 19.6924 17.8457 19.6924H14.1543C13.1347 19.6924 12.3076 18.8653 12.3076 17.8457V14.1543C12.3076 13.1347 13.1347 12.3076 14.1543 12.3076H17.8457ZM26.3428 12.3174C27.2736 12.412 28 13.1985 28 14.1543V17.8457L27.9902 18.0352C27.9019 18.9038 27.2115 19.5943 26.3428 19.6826L26.1543 19.6924H22.4619L22.2725 19.6826C21.4038 19.5942 20.7133 18.9038 20.625 18.0352L20.6152 17.8457V14.1543C20.6152 13.1985 21.3417 12.4121 22.2725 12.3174L22.4619 12.3076H26.1543L26.3428 12.3174ZM5.8457 13.1074C5.26814 13.1077 4.7998 13.5767 4.7998 14.1543V17.8457C4.7998 18.4233 5.26813 18.8923 5.8457 18.8926H9.53809C10.1159 18.8926 10.585 18.4235 10.585 17.8457V14.1543C10.585 13.5765 10.1159 13.1074 9.53809 13.1074H5.8457ZM22.4619 13.1074C21.8841 13.1074 21.415 13.5765 21.415 14.1543V17.8457C21.415 18.4235 21.8841 18.8926 22.4619 18.8926H26.1543C26.7319 18.8923 27.2002 18.4233 27.2002 17.8457V14.1543C27.2002 13.5767 26.7319 13.1077 26.1543 13.1074H22.4619ZM18.0352 4.00977C18.9658 4.10441 19.6922 4.89012 19.6924 5.8457V9.53809L19.6826 9.72754C19.5942 10.5962 18.9038 11.2867 18.0352 11.375L17.8457 11.3848H14.1543L13.9648 11.375C13.0962 11.2867 12.4058 10.5962 12.3174 9.72754L12.3076 9.53809V5.8457C12.3078 4.89012 13.0342 4.10442 13.9648 4.00977L14.1543 4H17.8457L18.0352 4.00977ZM26.1543 4C27.1735 4.00024 27.9998 4.82646 28 5.8457V9.53809C28 10.5575 27.1737 11.3845 26.1543 11.3848H22.4619C21.4423 11.3848 20.6152 10.5577 20.6152 9.53809V5.8457C20.6155 4.82631 21.4425 4 22.4619 4H26.1543ZM14.1543 4.7998C13.5767 4.7998 13.1077 5.26814 13.1074 5.8457V9.53809C13.1074 10.1159 13.5765 10.585 14.1543 10.585H17.8457C18.4235 10.585 18.8926 10.1159 18.8926 9.53809V5.8457C18.8923 5.26813 18.4233 4.7998 17.8457 4.7998H14.1543Z" fill="#003986"/>
<path d="M105.318 20.0303C105.365 21.551 104.972 23.0532 104.188 24.3564C103.454 25.529 102.402 26.4685 101.155 27.0664C99.8377 27.6974 98.393 28.0169 96.9326 27.999C95.699 28.0178 94.4753 27.7749 93.3418 27.2871C92.2788 26.8187 91.3124 26.1555 90.4932 25.3311L93.4658 21.8584C93.8304 22.3676 94.307 22.7861 94.8584 23.082C95.446 23.4042 96.1065 23.5698 96.7764 23.5625C97.2685 23.5899 97.7606 23.5086 98.2178 23.3242C98.6751 23.1398 99.086 22.8565 99.4219 22.4951C100.051 21.7836 100.367 20.759 100.367 19.3965V9.96582H95.3057V6.23438H105.318V20.0303ZM114.464 20.7422C114.464 21.7547 114.707 22.5041 115.192 22.9902C115.45 23.2344 115.754 23.4236 116.087 23.5459C116.42 23.6682 116.774 23.7206 117.128 23.7012C117.766 23.6962 118.395 23.5483 118.968 23.2676C119.394 23.0602 119.784 22.7884 120.129 22.4658V11.3604H124.771V23.751C124.771 24.185 124.771 24.5732 124.817 24.9111C124.864 25.2491 124.907 25.6511 124.988 26.1064L125.237 27.625H120.719L120.299 25.418C119.747 26.0963 119.096 26.6881 118.364 27.1699C117.486 27.7273 116.462 28.0136 115.423 27.9922C114.474 27.9958 113.541 27.7501 112.717 27.2803C111.829 26.7613 111.104 26.0034 110.625 25.0928C110.053 23.9691 109.777 22.7175 109.822 21.457V11.3496H114.464V20.7422ZM165.185 10.9629C166.629 10.9629 168.051 11.3191 169.324 12.001C170.519 12.6969 171.492 13.7191 172.13 14.9473C172.843 16.3526 173.195 17.9143 173.153 19.4902C173.193 21.0556 172.841 22.6062 172.13 24.001C171.489 25.2305 170.512 26.252 169.313 26.9463C168.04 27.6283 166.618 27.9854 165.174 27.9854C163.73 27.9853 162.308 27.6283 161.034 26.9463C159.825 26.2572 158.838 25.2351 158.192 24.001C157.488 22.6094 157.14 21.0637 157.181 19.5039C157.136 17.9233 157.488 16.3567 158.203 14.9473C158.849 13.7131 159.836 12.69 161.045 12.001C162.318 11.3191 163.74 10.9629 165.185 10.9629ZM44.1875 5.9248C45.4688 5.93569 46.7382 6.17709 47.9346 6.63672C49.1769 7.09156 50.329 7.76314 51.3369 8.62109L49.6357 10.8516C48.8876 10.1189 48.0107 9.53101 47.0498 9.11621C46.0743 8.6997 45.0233 8.48884 43.9629 8.49707C42.5802 8.49712 41.5429 8.79079 40.8516 9.37891C40.5346 9.62229 40.2772 9.93472 40.0977 10.292C39.9181 10.6493 39.8209 11.0424 39.8145 11.4424C39.8192 11.9087 39.9654 12.3628 40.2334 12.7441C40.6249 13.25 41.1285 13.6585 41.7041 13.9365C42.6561 14.4234 43.6502 14.8235 44.6738 15.1318C46.2076 15.5787 47.6729 16.2345 49.0283 17.0811C49.9673 17.6583 50.7623 18.4436 51.3516 19.376C51.8169 20.158 52.0621 21.0516 52.0615 21.9619C52.0706 23.0311 51.7583 24.0782 51.166 24.9678C50.5141 25.9237 49.6075 26.6771 48.5488 27.1416C47.2274 27.7136 45.7964 27.9878 44.3574 27.9453C43.3064 27.9436 42.2602 27.8023 41.2461 27.5254C40.2294 27.2588 39.2471 26.8744 38.3193 26.3799C37.4719 25.9356 36.691 25.3744 36 24.7119L37.7334 22.5771C39.5874 24.3309 42.0528 25.2883 44.6025 25.2451C45.4307 25.2691 46.2558 25.1332 47.0322 24.8438C47.6099 24.6281 48.1185 24.2591 48.5029 23.7764C48.8188 23.369 48.9933 22.8693 49 22.3535C49.0044 21.8079 48.8473 21.2729 48.5488 20.8164C48.1345 20.2507 47.5945 19.7888 46.9717 19.4678C45.9597 18.923 44.8974 18.4778 43.7998 18.1377C42.3562 17.6692 40.969 17.0401 39.665 16.2627C38.7921 15.7665 38.0588 15.0563 37.5342 14.1992C37.1233 13.4475 36.9139 12.602 36.9268 11.7451C36.919 10.6967 37.2384 9.67163 37.8398 8.81348C38.4983 7.90009 39.3851 7.17641 40.4111 6.71484C41.5939 6.16911 42.8855 5.89881 44.1875 5.9248ZM62.6113 11.3496C63.9008 11.3496 65.1692 11.6806 66.2949 12.3105C67.3913 12.9813 68.2702 13.9563 68.8242 15.1172C69.4831 16.537 69.8004 18.0923 69.751 19.6572C69.7986 21.2218 69.4814 22.7761 68.8242 24.1963C68.2722 25.3611 67.3881 26.3368 66.2842 27C65.1557 27.6207 63.889 27.9462 62.6016 27.9463C61.314 27.9463 60.0466 27.6208 58.918 27C57.819 26.335 56.9405 25.3593 56.3926 24.1963C55.7337 22.7766 55.4165 21.222 55.4658 19.6572C55.4143 18.0922 55.7316 16.5363 56.3926 15.1172C56.9482 13.9551 57.8295 12.9799 58.9287 12.3105C60.0542 11.6807 61.322 11.3497 62.6113 11.3496ZM76.9434 21.083C76.9434 22.5321 77.2578 23.5868 77.8877 24.2461C78.1994 24.5742 78.5774 24.8318 78.9961 25.0029C79.4149 25.174 79.8654 25.2544 80.3174 25.2383C81.1569 25.2348 81.9799 25.005 82.7002 24.5732C83.3219 24.2014 83.8955 23.755 84.4092 23.2461V11.6592H87.251V23.8398C87.251 24.2739 87.2507 24.6729 87.2969 25.0322C87.343 25.3915 87.3851 25.8042 87.4668 26.2559L87.7158 27.6221L85.0596 27.625L84.5801 25.3398C83.9796 26.0401 83.2734 26.6434 82.4844 27.124C81.6231 27.6425 80.6405 27.925 79.6357 27.9443C78.6312 27.9637 77.6392 27.7191 76.7588 27.2344C75.9059 26.7301 75.2256 25.9779 74.8086 25.0781C74.298 23.9416 74.0559 22.7025 74.1016 21.457V11.6592H76.9434V21.083ZM138.854 10.9658C139.853 10.9649 140.835 11.2361 141.693 11.749C142.552 12.262 143.256 12.9983 143.73 13.8799C144.315 15.002 144.598 16.2575 144.551 17.5225V27.626H139.909V18.2305C139.931 17.6467 139.809 17.0664 139.554 16.541C139.34 16.1218 138.999 15.7809 138.58 15.5664C138.137 15.3536 137.65 15.2475 137.159 15.2568C136.477 15.2696 135.806 15.4317 135.192 15.7314C134.776 15.935 134.393 16.1991 134.056 16.5137V27.6113H129.413V15.2246C129.413 14.7907 129.413 14.403 129.367 14.0615C129.321 13.72 129.278 13.3245 129.196 12.8691L128.947 11.3506H133.469L133.884 13.5449C134.445 12.8565 135.115 12.2628 135.867 11.7881C136.764 11.2347 137.8 10.949 138.854 10.9658ZM153.698 27.626H149.053V11.3506H153.698V27.626ZM186.294 15.5654C185.262 15.5401 184.233 15.6761 183.243 15.9678C182.537 16.2235 181.88 16.5928 181.293 17.0576V27.6113H176.65V15.2246C176.65 14.7908 176.633 14.4029 176.604 14.0615C176.576 13.72 176.516 13.3245 176.435 12.8691L176.186 11.3506H180.711L181.181 13.9668C181.717 13.166 182.4 12.4707 183.197 11.9229C184.111 11.3033 185.19 10.9735 186.294 10.9766V15.5654ZM62.6104 13.8613C61.8022 13.8613 61.011 14.0975 60.335 14.541C59.6695 15.0429 59.1637 15.7276 58.8789 16.5117C58.5153 17.519 58.3437 18.5865 58.374 19.6572C58.3433 20.729 58.5149 21.7973 58.8789 22.8057C59.161 23.5864 59.6676 24.2663 60.335 24.7588C61.0144 25.1933 61.8042 25.4238 62.6104 25.4238C63.4163 25.4238 64.2055 25.1932 64.8848 24.7588C65.5501 24.265 66.0558 23.5855 66.3379 22.8057C66.7043 21.7978 66.8771 20.7294 66.8486 19.6572C66.8767 18.5861 66.7039 17.5186 66.3379 16.5117C66.0532 15.7285 65.5483 15.0441 64.8848 14.541C64.2088 14.0976 63.4183 13.8614 62.6104 13.8613ZM165.167 14.7305C164.552 14.7305 163.95 14.9062 163.432 15.2383C162.9 15.6321 162.501 16.1801 162.288 16.8076C161.995 17.6752 161.859 18.5884 161.887 19.5039C161.859 20.4195 161.995 21.3334 162.288 22.2012C162.499 22.8248 162.898 23.367 163.432 23.752C163.953 24.0752 164.554 24.2461 165.167 24.2461C165.78 24.2461 166.381 24.0751 166.902 23.752C167.435 23.367 167.835 22.8247 168.046 22.2012C168.341 21.3338 168.477 20.4196 168.447 19.5039C168.477 18.5883 168.341 17.6748 168.046 16.8076C167.833 16.1801 167.434 15.6321 166.902 15.2383C166.384 14.9062 165.782 14.7305 165.167 14.7305ZM151.372 4C152.091 4.00007 152.781 4.28566 153.29 4.79395C153.531 5.04208 153.72 5.33559 153.848 5.65723C153.975 5.9789 154.038 6.32295 154.032 6.66895C154.036 7.01559 153.972 7.36002 153.843 7.68164C153.714 8.00317 153.522 8.29567 153.279 8.54297C152.769 9.0455 152.082 9.32715 151.366 9.32715C150.651 9.32708 149.964 9.04544 149.454 8.54297C149.211 8.29574 149.018 8.00333 148.889 7.68164C148.759 7.36003 148.694 7.01581 148.697 6.66895C148.694 6.32193 148.759 5.97702 148.889 5.65527C149.019 5.33361 149.211 5.04102 149.454 4.79395C149.963 4.28564 150.653 4 151.372 4Z" fill="#003986"/>
</svg>
