<svg width="344" height="102" viewBox="0 0 344 102" fill="none" xmlns="http://www.w3.org/2000/svg">
<path d="M76.8405 57.25H71.9095C70.8549 57.25 70 58.1049 70 59.1595V64.0905C70 65.1451 70.8549 66 71.9095 66H76.8405C77.8951 66 78.75 65.1451 78.75 64.0905V59.1595C78.75 58.1049 77.8951 57.25 76.8405 57.25Z" fill="#046AD0"/>
<path d="M87.2572 46.8335H82.3262C81.2716 46.8335 80.4167 47.6477 80.4167 48.6521V53.3482C80.4167 54.3526 81.2716 55.1668 82.3262 55.1668H87.2572C88.3118 55.1668 89.1667 54.3526 89.1667 53.3482V48.6521C89.1667 47.6477 88.3118 46.8335 87.2572 46.8335Z" fill="#046AD0"/>
<path d="M98.0905 36H93.1595C92.1049 36 91.25 36.8549 91.25 37.9095V42.8405C91.25 43.8951 92.1049 44.75 93.1595 44.75H98.0905C99.1451 44.75 100 43.8951 100 42.8405V37.9095C100 36.8549 99.1451 36 98.0905 36Z" fill="#046AD0"/>
<path d="M87.2572 57.25H82.3262C81.2716 57.25 80.4167 58.1049 80.4167 59.1595V64.0905C80.4167 65.1451 81.2716 66 82.3262 66H87.2572C88.3118 66 89.1667 65.1451 89.1667 64.0905V59.1595C89.1667 58.1049 88.3118 57.25 87.2572 57.25Z" stroke="#046AD0" stroke-width="0.830793" stroke-miterlimit="10"/>
<path d="M98.0905 46.8335H93.1595C92.1049 46.8335 91.25 47.6477 91.25 48.6521V53.3482C91.25 54.3526 92.1049 55.1668 93.1595 55.1668H98.0905C99.1451 55.1668 100 54.3526 100 53.3482V48.6521C100 47.6477 99.1451 46.8335 98.0905 46.8335Z" stroke="#046AD0" stroke-width="0.830793" stroke-miterlimit="10"/>
<path d="M76.8405 46.8335H71.9095C70.8549 46.8335 70 47.6477 70 48.6521V53.3482C70 54.3526 70.8549 55.1668 71.9095 55.1668H76.8405C77.8951 55.1668 78.75 54.3526 78.75 53.3482V48.6521C78.75 47.6477 77.8951 46.8335 76.8405 46.8335Z" stroke="#046AD0" stroke-width="0.830793" stroke-miterlimit="10"/>
<path d="M87.2572 36H82.3262C81.2716 36 80.4167 36.8549 80.4167 37.9095V42.8405C80.4167 43.8951 81.2716 44.75 82.3262 44.75H87.2572C88.3118 44.75 89.1667 43.8951 89.1667 42.8405V37.9095C89.1667 36.8549 88.3118 36 87.2572 36Z" stroke="#046AD0" stroke-width="0.830793" stroke-miterlimit="10"/>
<path d="M109.6 58.992L111.392 56.784C112.331 57.6587 113.387 58.3413 114.56 58.832C115.755 59.3013 117.067 59.536 118.496 59.536C119.499 59.536 120.331 59.3973 120.992 59.12C121.675 58.8427 122.187 58.48 122.528 58.032C122.869 57.5627 123.04 57.0613 123.04 56.528C123.04 55.952 122.88 55.4293 122.56 54.96C122.261 54.4693 121.717 54 120.928 53.552C120.16 53.104 119.072 52.6453 117.664 52.176C115.851 51.5573 114.421 50.928 113.376 50.288C112.352 49.6267 111.627 48.912 111.2 48.144C110.773 47.376 110.56 46.5333 110.56 45.616C110.56 44.5067 110.869 43.504 111.488 42.608C112.128 41.6907 113.013 40.9653 114.144 40.432C115.275 39.8773 116.576 39.6 118.048 39.6C119.307 39.6 120.597 39.8453 121.92 40.336C123.243 40.8267 124.416 41.5093 125.44 42.384L123.68 44.688C122.891 43.92 121.995 43.3227 120.992 42.896C120.011 42.4693 118.955 42.256 117.824 42.256C116.395 42.256 115.317 42.5653 114.592 43.184C113.888 43.7813 113.536 44.4853 113.536 45.296C113.536 45.7653 113.675 46.2133 113.952 46.64C114.251 47.0667 114.763 47.4827 115.488 47.888C116.213 48.272 117.237 48.6773 118.56 49.104C120.459 49.7013 121.963 50.3733 123.072 51.12C124.181 51.8453 124.981 52.6347 125.472 53.488C125.963 54.32 126.208 55.2053 126.208 56.144C126.208 57.2747 125.899 58.3093 125.28 59.248C124.661 60.1867 123.755 60.9333 122.56 61.488C121.387 62.0427 119.947 62.32 118.24 62.32C117.173 62.32 116.096 62.1813 115.008 61.904C113.941 61.6053 112.939 61.2107 112 60.72C111.061 60.208 110.261 59.632 109.6 58.992ZM130.729 53.776C130.729 51.92 131.049 50.3627 131.689 49.104C132.329 47.824 133.203 46.8533 134.313 46.192C135.422 45.5307 136.691 45.2 138.121 45.2C139.55 45.2 140.819 45.5307 141.929 46.192C143.038 46.8533 143.913 47.824 144.553 49.104C145.193 50.3627 145.513 51.92 145.513 53.776C145.513 55.6107 145.193 57.168 144.553 58.448C143.913 59.728 143.038 60.6987 141.929 61.36C140.819 62 139.55 62.32 138.121 62.32C136.691 62.32 135.422 62 134.313 61.36C133.203 60.6987 132.329 59.728 131.689 58.448C131.049 57.168 130.729 55.6107 130.729 53.776ZM133.737 53.776C133.737 55.056 133.907 56.144 134.249 57.04C134.611 57.9147 135.113 58.5867 135.753 59.056C136.414 59.504 137.203 59.728 138.121 59.728C139.038 59.728 139.817 59.504 140.457 59.056C141.118 58.5867 141.619 57.9147 141.961 57.04C142.323 56.144 142.505 55.056 142.505 53.776C142.505 52.496 142.323 51.4187 141.961 50.544C141.619 49.648 141.118 48.9653 140.457 48.496C139.817 48.0267 139.038 47.792 138.121 47.792C137.203 47.792 136.414 48.0267 135.753 48.496C135.113 48.9653 134.611 49.648 134.249 50.544C133.907 51.4187 133.737 52.496 133.737 53.776ZM151.001 55.632V45.52H153.945V55.248C153.945 56.7413 154.265 57.8293 154.905 58.512C155.567 59.1947 156.409 59.536 157.433 59.536C158.18 59.536 158.905 59.3547 159.609 58.992C160.335 58.6293 161.017 58.128 161.657 57.488V45.52H164.601V58.096C164.601 58.544 164.612 58.96 164.633 59.344C164.676 59.7067 164.74 60.1227 164.825 60.592L165.081 62H162.329L161.849 59.632C161.167 60.4213 160.377 61.072 159.481 61.584C158.607 62.0747 157.668 62.32 156.665 62.32C155.577 62.32 154.607 62.0747 153.753 61.584C152.9 61.0933 152.228 60.3573 151.737 59.376C151.247 58.3733 151.001 57.1253 151.001 55.632ZM168.949 59.632L172.021 56.048C172.383 56.56 172.863 56.9867 173.461 57.328C174.058 57.648 174.719 57.808 175.445 57.808C176.618 57.808 177.525 57.4453 178.165 56.72C178.826 55.9947 179.157 54.928 179.157 53.52V43.76H173.909V39.92H184.277V54.16C184.277 55.9093 183.882 57.4027 183.093 58.64C182.325 59.856 181.279 60.784 179.957 61.424C178.655 62.064 177.205 62.384 175.605 62.384C174.239 62.384 173.002 62.1387 171.893 61.648C170.783 61.1573 169.802 60.4853 168.949 59.632ZM189.928 55.632V45.2H194.728V54.896C194.728 55.9413 194.973 56.72 195.464 57.232C195.976 57.7227 196.648 57.968 197.48 57.968C198.034 57.968 198.568 57.8613 199.08 57.648C199.613 57.4133 200.114 57.0933 200.584 56.688V45.2H205.384V58C205.384 58.448 205.394 58.8533 205.416 59.216C205.458 59.5573 205.522 59.9627 205.608 60.432L205.864 62H201.192L200.776 59.728C200.136 60.5173 199.4 61.1573 198.568 61.648C197.736 62.1387 196.786 62.384 195.72 62.384C194.738 62.384 193.8 62.1387 192.904 61.648C192.029 61.136 191.314 60.3787 190.76 59.376C190.205 58.3733 189.928 57.1253 189.928 55.632ZM210.701 45.2H215.373L215.789 47.472C216.451 46.6613 217.208 46.0213 218.061 45.552C218.915 45.0613 219.875 44.816 220.941 44.816C221.944 44.816 222.893 45.072 223.789 45.584C224.685 46.0747 225.411 46.8213 225.965 47.824C226.541 48.8053 226.829 50.0533 226.829 51.568V62H222.029V52.304C222.029 51.6 221.901 51.024 221.645 50.576C221.411 50.1067 221.08 49.7653 220.653 49.552C220.227 49.3387 219.736 49.232 219.181 49.232C218.648 49.232 218.093 49.3387 217.517 49.552C216.963 49.7653 216.451 50.0853 215.981 50.512V62H211.181V49.2C211.181 48.752 211.16 48.3573 211.117 48.016C211.096 47.6533 211.043 47.2373 210.957 46.768L210.701 45.2ZM232.463 62V45.2H237.263V62H232.463ZM232.111 40.368C232.111 39.6213 232.367 38.9813 232.879 38.448C233.391 37.8933 234.052 37.616 234.863 37.616C235.673 37.616 236.335 37.8933 236.847 38.448C237.359 38.9813 237.615 39.6213 237.615 40.368C237.615 41.1147 237.359 41.7653 236.847 42.32C236.335 42.8533 235.673 43.12 234.863 43.12C234.052 43.12 233.391 42.8533 232.879 42.32C232.367 41.7653 232.111 41.1147 232.111 40.368ZM241.872 53.616C241.872 51.8027 242.224 50.2453 242.928 48.944C243.632 47.6213 244.603 46.608 245.84 45.904C247.099 45.1787 248.528 44.816 250.128 44.816C251.75 44.816 253.179 45.1787 254.416 45.904C255.654 46.608 256.624 47.6213 257.328 48.944C258.032 50.2453 258.384 51.8027 258.384 53.616C258.384 55.408 258.032 56.9653 257.328 58.288C256.624 59.5893 255.654 60.6027 254.416 61.328C253.179 62.032 251.75 62.384 250.128 62.384C248.528 62.384 247.099 62.032 245.84 61.328C244.603 60.6027 243.632 59.5893 242.928 58.288C242.224 56.9653 241.872 55.408 241.872 53.616ZM246.736 53.616C246.736 54.7467 246.875 55.6747 247.152 56.4C247.43 57.1253 247.824 57.6587 248.336 58C248.848 58.3413 249.446 58.512 250.128 58.512C250.811 58.512 251.408 58.3413 251.92 58C252.432 57.6587 252.827 57.1253 253.104 56.4C253.382 55.6747 253.52 54.7467 253.52 53.616C253.52 52.4853 253.382 51.5573 253.104 50.832C252.827 50.1067 252.432 49.5733 251.92 49.232C251.408 48.8693 250.811 48.688 250.128 48.688C249.446 48.688 248.848 48.8693 248.336 49.232C247.824 49.5733 247.43 50.1067 247.152 50.832C246.875 51.5573 246.736 52.4853 246.736 53.616ZM262.514 45.2H267.186L267.666 47.92C268.327 46.9387 269.116 46.1813 270.034 45.648C270.951 45.0933 271.932 44.816 272.978 44.816V49.552C271.847 49.552 270.887 49.6693 270.098 49.904C269.308 50.1173 268.54 50.512 267.794 51.088V62H262.994V49.2C262.994 48.752 262.972 48.3573 262.93 48.016C262.908 47.6533 262.855 47.2373 262.77 46.768L262.514 45.2Z" fill="#046AD0"/>
</svg>
