<svg xmlns="http://www.w3.org/2000/svg" viewBox="0 0 423.18 67.45"><defs><style>.cls-1{fill:#c6c6c6;}</style></defs><g id="Camada_2" data-name="Camada 2"><g id="Camada_1-2" data-name="Camada 1"><path class="cls-1" d="M4.36,65.45l4.88-6a27.49,27.49,0,0,0,19.34,7.5,18.17,18.17,0,0,0,6.85-1.13,9.63,9.63,0,0,0,4.14-3,6.71,6.71,0,0,0,1.39-4,7.84,7.84,0,0,0-1.26-4.32,12.87,12.87,0,0,0-4.45-3.79,50.19,50.19,0,0,0-8.93-3.74A57.27,57.27,0,0,1,14.68,41.7a16.88,16.88,0,0,1-6-5.8A13.93,13.93,0,0,1,7,29a14.16,14.16,0,0,1,2.57-8.24,18.12,18.12,0,0,1,7.19-5.92,24.28,24.28,0,0,1,10.63-2.22,30.13,30.13,0,0,1,10.55,2,31.65,31.65,0,0,1,9.59,5.58l-4.8,6.27a24.08,24.08,0,0,0-7.27-4.88,21.81,21.81,0,0,0-8.68-1.74q-5.84,0-8.75,2.48a7.43,7.43,0,0,0-2.92,5.8,6.46,6.46,0,0,0,1.17,3.66,11.63,11.63,0,0,0,4.14,3.35,50.5,50.5,0,0,0,8.37,3.36A49.16,49.16,0,0,1,41.05,44a20.18,20.18,0,0,1,6.53,6.45,14.19,14.19,0,0,1,2,7.27,15.05,15.05,0,0,1-2.53,8.45,17.39,17.39,0,0,1-7.36,6.11,27.77,27.77,0,0,1-11.81,2.26,33.52,33.52,0,0,1-8.76-1.18,38.05,38.05,0,0,1-8.24-3.22A28.9,28.9,0,0,1,4.36,65.45Z" transform="translate(-4.36 -7.23)"/><path class="cls-1" d="M59.17,51.24a28,28,0,0,1,2.62-12.76,18.67,18.67,0,0,1,7.14-7.89,21.26,21.26,0,0,1,20.74,0,18.63,18.63,0,0,1,7.15,7.89,28.16,28.16,0,0,1,2.62,12.76A28.29,28.29,0,0,1,96.82,64a18.31,18.31,0,0,1-7.15,7.88,21.54,21.54,0,0,1-20.74,0A18.36,18.36,0,0,1,61.79,64,28.16,28.16,0,0,1,59.17,51.24Zm8.2,0a24,24,0,0,0,1.43,8.85,11.88,11.88,0,0,0,4.1,5.49,11.9,11.9,0,0,0,12.81,0,11.88,11.88,0,0,0,4.1-5.49,24.2,24.2,0,0,0,1.43-8.85,24.18,24.18,0,0,0-1.43-8.84,12.19,12.19,0,0,0-4.1-5.54,11.69,11.69,0,0,0-12.81,0,12.19,12.19,0,0,0-4.1,5.54A24,24,0,0,0,67.37,51.24Z" transform="translate(-4.36 -7.23)"/><path class="cls-1" d="M111.63,56.3V28.76h8V55.25q0,6.11,2.66,8.89a9,9,0,0,0,6.84,2.79,13.17,13.17,0,0,0,6.71-1.87A25.27,25.27,0,0,0,142,60v6.27a24.7,24.7,0,0,1-6.71,6,16.17,16.17,0,0,1-16.12.31,13.89,13.89,0,0,1-5.49-6.06A22.77,22.77,0,0,1,111.63,56.3Zm30.86,17.34-1.83-8.72V28.76h8V63c0,1.22.05,2.34.13,3.35s.25,2.17.48,3.44l.7,3.84Z" transform="translate(-4.36 -7.23)"/><path class="cls-1" d="M157.82,67.19l8.37-9.76a11.52,11.52,0,0,0,3.92,3.44,11,11,0,0,0,5.4,1.35,9.46,9.46,0,0,0,7.45-3c1.78-2,2.66-4.88,2.66-8.71v-37h13.95V52.29a22.25,22.25,0,0,1-3.19,12.16,20.57,20.57,0,0,1-8.54,7.62A26.77,26.77,0,0,1,176,74.69a24.66,24.66,0,0,1-10.11-2A26.2,26.2,0,0,1,157.82,67.19ZM171.33,24V13.51h23.53V24Z" transform="translate(-4.36 -7.23)"/><path class="cls-1" d="M212.2,56.3V27.89h13.07v26.4c0,2.85.69,5,2,6.32a7.35,7.35,0,0,0,5.45,2A12,12,0,0,0,238,61.44a13.21,13.21,0,0,0,4.58-3.66v8.63a24,24,0,0,1-6.28,6A14.9,14.9,0,0,1,228,74.69a15.29,15.29,0,0,1-7.62-2,15.46,15.46,0,0,1-5.88-6.15A20.84,20.84,0,0,1,212.2,56.3Zm30.68,17.34-1.66-8.72v-37h13.07V62.75c0,1.22.05,2.31.13,3.26s.25,2.08.48,3.36l.7,4.27Z" transform="translate(-4.36 -7.23)"/><path class="cls-1" d="M266.06,27.89h12.72l1.66,8.71v37H267.36V38.78c0-1.22,0-2.31-.13-3.27a33.62,33.62,0,0,0-.48-3.35Zm13.07,15.86V35.12a23.1,23.1,0,0,1,6.4-6A15.77,15.77,0,0,1,307.67,35,20.47,20.47,0,0,1,310,45.23V73.64H296.91V47.23a10.13,10.13,0,0,0-1-4.75,6.33,6.33,0,0,0-2.75-2.74,8.86,8.86,0,0,0-4-.87,13.19,13.19,0,0,0-10,4.88Z" transform="translate(-4.36 -7.23)"/><path class="cls-1" d="M321.66,14.73a7.39,7.39,0,0,1,2.09-5.27,7.65,7.65,0,0,1,10.8,0,7.4,7.4,0,0,1,2.1,5.27,7.41,7.41,0,0,1-2.1,5.27,7.68,7.68,0,0,1-10.8,0A7.4,7.4,0,0,1,321.66,14.73Zm1,58.91V27.89h13.07V73.64Z" transform="translate(-4.36 -7.23)"/><path class="cls-1" d="M345.53,50.81A26.61,26.61,0,0,1,348.41,38a20.51,20.51,0,0,1,8-8.28,24.74,24.74,0,0,1,23.32,0A20.68,20.68,0,0,1,387.63,38a26.72,26.72,0,0,1,2.87,12.77,26.55,26.55,0,0,1-2.87,12.68,20.68,20.68,0,0,1-7.93,8.28,24.74,24.74,0,0,1-23.32,0,20.51,20.51,0,0,1-8-8.28A26.43,26.43,0,0,1,345.53,50.81Zm13.25,0a21.63,21.63,0,0,0,1.13,7.58,8.84,8.84,0,0,0,3.23,4.36,9.26,9.26,0,0,0,9.76,0,8.83,8.83,0,0,0,3.22-4.36,21.4,21.4,0,0,0,1.13-7.58,21.36,21.36,0,0,0-1.13-7.58,9.06,9.06,0,0,0-3.22-4.41,9,9,0,0,0-9.76,0,9.08,9.08,0,0,0-3.23,4.41A21.59,21.59,0,0,0,358.78,50.81Z" transform="translate(-4.36 -7.23)"/><path class="cls-1" d="M399,27.89h12.72L413.42,37v36.6H400.35V38.78c0-1.22-.05-2.31-.13-3.27s-.25-2.07-.48-3.35Zm13.07,17.17v-8.2a21.48,21.48,0,0,1,6.71-7.36,15.5,15.5,0,0,1,8.72-2.66v12.9A28,28,0,0,0,419,40.87,19.6,19.6,0,0,0,412.11,45.06Z" transform="translate(-4.36 -7.23)"/></g></g></svg>