<svg width="191" height="65" viewBox="0 0 191 65" fill="none" xmlns="http://www.w3.org/2000/svg">
<path d="M9.53809 20.6152C10.5577 20.6152 11.3848 21.4423 11.3848 22.4619V26.1543C11.3845 27.1737 10.5575 28 9.53809 28H5.8457C4.82646 27.9998 4.00024 27.1735 4 26.1543V22.4619C4 21.4425 4.82631 20.6155 5.8457 20.6152H9.53809ZM18.0352 20.625C18.966 20.7197 19.6924 21.5061 19.6924 22.4619V26.1543L19.6826 26.3428C19.5943 27.2115 18.9038 27.9019 18.0352 27.9902L17.8457 28H14.1543L13.9648 27.9902C13.0962 27.9019 12.4057 27.2115 12.3174 26.3428L12.3076 26.1543V22.4619C12.3076 21.5061 13.034 20.7197 13.9648 20.625L14.1543 20.6152H17.8457L18.0352 20.625ZM14.1543 21.415C13.5765 21.415 13.1074 21.8841 13.1074 22.4619V26.1543C13.1077 26.7319 13.5767 27.2002 14.1543 27.2002H17.8457C18.4233 27.2002 18.8923 26.7319 18.8926 26.1543V22.4619C18.8926 21.8841 18.4235 21.415 17.8457 21.415H14.1543ZM9.72754 12.3174C10.6583 12.4121 11.3848 13.1985 11.3848 14.1543V17.8457L11.375 18.0352C11.2867 18.9038 10.5962 19.5942 9.72754 19.6826L9.53809 19.6924H5.8457L5.65723 19.6826C4.78853 19.5943 4.09811 18.9038 4.00977 18.0352L4 17.8457V14.1543C4 13.1985 4.72638 12.412 5.65723 12.3174L5.8457 12.3076H9.53809L9.72754 12.3174ZM17.8457 12.3076C18.8653 12.3076 19.6924 13.1347 19.6924 14.1543V17.8457C19.6924 18.8653 18.8653 19.6924 17.8457 19.6924H14.1543C13.1347 19.6924 12.3076 18.8653 12.3076 17.8457V14.1543C12.3076 13.1347 13.1347 12.3076 14.1543 12.3076H17.8457ZM26.3428 12.3174C27.2736 12.412 28 13.1985 28 14.1543V17.8457L27.9902 18.0352C27.9019 18.9038 27.2115 19.5943 26.3428 19.6826L26.1543 19.6924H22.4619L22.2725 19.6826C21.4038 19.5942 20.7133 18.9038 20.625 18.0352L20.6152 17.8457V14.1543C20.6152 13.1985 21.3417 12.4121 22.2725 12.3174L22.4619 12.3076H26.1543L26.3428 12.3174ZM5.8457 13.1074C5.26814 13.1077 4.7998 13.5767 4.7998 14.1543V17.8457C4.7998 18.4233 5.26813 18.8923 5.8457 18.8926H9.53809C10.1159 18.8926 10.585 18.4235 10.585 17.8457V14.1543C10.585 13.5765 10.1159 13.1074 9.53809 13.1074H5.8457ZM22.4619 13.1074C21.8841 13.1074 21.415 13.5765 21.415 14.1543V17.8457C21.415 18.4235 21.8841 18.8926 22.4619 18.8926H26.1543C26.7319 18.8923 27.2002 18.4233 27.2002 17.8457V14.1543C27.2002 13.5767 26.7319 13.1077 26.1543 13.1074H22.4619ZM18.0352 4.00977C18.9658 4.10441 19.6922 4.89012 19.6924 5.8457V9.53809L19.6826 9.72754C19.5942 10.5962 18.9038 11.2867 18.0352 11.375L17.8457 11.3848H14.1543L13.9648 11.375C13.0962 11.2867 12.4058 10.5962 12.3174 9.72754L12.3076 9.53809V5.8457C12.3078 4.89012 13.0342 4.10442 13.9648 4.00977L14.1543 4H17.8457L18.0352 4.00977ZM26.1543 4C27.1735 4.00024 27.9998 4.82646 28 5.8457V9.53809C28 10.5575 27.1737 11.3845 26.1543 11.3848H22.4619C21.4423 11.3848 20.6152 10.5577 20.6152 9.53809V5.8457C20.6155 4.82631 21.4425 4 22.4619 4H26.1543ZM14.1543 4.7998C13.5767 4.7998 13.1077 5.26814 13.1074 5.8457V9.53809C13.1074 10.1159 13.5765 10.585 14.1543 10.585H17.8457C18.4235 10.585 18.8926 10.1159 18.8926 9.53809V5.8457C18.8923 5.26813 18.4233 4.7998 17.8457 4.7998H14.1543Z" fill="#003986"/>
<path d="M105.318 20.0303C105.365 21.551 104.972 23.0532 104.188 24.3564C103.454 25.529 102.402 26.4685 101.155 27.0664C99.8377 27.6974 98.393 28.0169 96.9326 27.999C95.699 28.0178 94.4753 27.7749 93.3418 27.2871C92.2788 26.8187 91.3124 26.1555 90.4932 25.3311L93.4658 21.8584C93.8304 22.3676 94.307 22.7861 94.8584 23.082C95.446 23.4042 96.1065 23.5698 96.7764 23.5625C97.2685 23.5899 97.7606 23.5086 98.2178 23.3242C98.6751 23.1398 99.086 22.8565 99.4219 22.4951C100.051 21.7836 100.367 20.759 100.367 19.3965V9.96582H95.3057V6.23438H105.318V20.0303ZM114.464 20.7422C114.464 21.7547 114.707 22.5041 115.192 22.9902C115.45 23.2344 115.754 23.4236 116.087 23.5459C116.42 23.6682 116.774 23.7206 117.128 23.7012C117.766 23.6962 118.395 23.5483 118.968 23.2676C119.394 23.0602 119.784 22.7884 120.129 22.4658V11.3604H124.771V23.751C124.771 24.185 124.771 24.5732 124.817 24.9111C124.864 25.2491 124.907 25.6511 124.988 26.1064L125.237 27.625H120.719L120.299 25.418C119.747 26.0963 119.096 26.6881 118.364 27.1699C117.486 27.7273 116.462 28.0136 115.423 27.9922C114.474 27.9958 113.541 27.7501 112.717 27.2803C111.829 26.7613 111.104 26.0034 110.625 25.0928C110.053 23.9691 109.777 22.7175 109.822 21.457V11.3496H114.464V20.7422ZM165.185 10.9629C166.629 10.9629 168.051 11.3191 169.324 12.001C170.519 12.6969 171.492 13.7191 172.13 14.9473C172.843 16.3526 173.195 17.9143 173.153 19.4902C173.193 21.0556 172.841 22.6062 172.13 24.001C171.489 25.2305 170.512 26.252 169.313 26.9463C168.04 27.6283 166.618 27.9854 165.174 27.9854C163.73 27.9853 162.308 27.6283 161.034 26.9463C159.825 26.2572 158.838 25.2351 158.192 24.001C157.488 22.6094 157.14 21.0637 157.181 19.5039C157.136 17.9233 157.488 16.3567 158.203 14.9473C158.849 13.7131 159.836 12.69 161.045 12.001C162.318 11.3191 163.74 10.9629 165.185 10.9629ZM44.1875 5.9248C45.4688 5.93569 46.7382 6.17709 47.9346 6.63672C49.1769 7.09156 50.329 7.76314 51.3369 8.62109L49.6357 10.8516C48.8876 10.1189 48.0107 9.53101 47.0498 9.11621C46.0743 8.6997 45.0233 8.48884 43.9629 8.49707C42.5802 8.49712 41.5429 8.79079 40.8516 9.37891C40.5346 9.62229 40.2772 9.93472 40.0977 10.292C39.9181 10.6493 39.8209 11.0424 39.8145 11.4424C39.8192 11.9087 39.9654 12.3628 40.2334 12.7441C40.6249 13.25 41.1285 13.6585 41.7041 13.9365C42.6561 14.4234 43.6502 14.8235 44.6738 15.1318C46.2076 15.5787 47.6729 16.2345 49.0283 17.0811C49.9673 17.6583 50.7623 18.4436 51.3516 19.376C51.8169 20.158 52.0621 21.0516 52.0615 21.9619C52.0706 23.0311 51.7583 24.0782 51.166 24.9678C50.5141 25.9237 49.6075 26.6771 48.5488 27.1416C47.2274 27.7136 45.7964 27.9878 44.3574 27.9453C43.3064 27.9436 42.2602 27.8023 41.2461 27.5254C40.2294 27.2588 39.2471 26.8744 38.3193 26.3799C37.4719 25.9356 36.691 25.3744 36 24.7119L37.7334 22.5771C39.5874 24.3309 42.0528 25.2883 44.6025 25.2451C45.4307 25.2691 46.2558 25.1332 47.0322 24.8438C47.6099 24.6281 48.1185 24.2591 48.5029 23.7764C48.8188 23.369 48.9933 22.8693 49 22.3535C49.0044 21.8079 48.8473 21.2729 48.5488 20.8164C48.1345 20.2507 47.5945 19.7888 46.9717 19.4678C45.9597 18.923 44.8974 18.4778 43.7998 18.1377C42.3562 17.6692 40.969 17.0401 39.665 16.2627C38.7921 15.7665 38.0588 15.0563 37.5342 14.1992C37.1233 13.4475 36.9139 12.602 36.9268 11.7451C36.919 10.6967 37.2384 9.67163 37.8398 8.81348C38.4983 7.90009 39.3851 7.17641 40.4111 6.71484C41.5939 6.16911 42.8855 5.89881 44.1875 5.9248ZM62.6113 11.3496C63.9008 11.3496 65.1692 11.6806 66.2949 12.3105C67.3913 12.9813 68.2702 13.9563 68.8242 15.1172C69.4831 16.537 69.8004 18.0923 69.751 19.6572C69.7986 21.2218 69.4814 22.7761 68.8242 24.1963C68.2722 25.3611 67.3881 26.3368 66.2842 27C65.1557 27.6207 63.889 27.9462 62.6016 27.9463C61.314 27.9463 60.0466 27.6208 58.918 27C57.819 26.335 56.9405 25.3593 56.3926 24.1963C55.7337 22.7766 55.4165 21.222 55.4658 19.6572C55.4143 18.0922 55.7316 16.5363 56.3926 15.1172C56.9482 13.9551 57.8295 12.9799 58.9287 12.3105C60.0542 11.6807 61.322 11.3497 62.6113 11.3496ZM76.9434 21.083C76.9434 22.5321 77.2578 23.5868 77.8877 24.2461C78.1994 24.5742 78.5774 24.8318 78.9961 25.0029C79.4149 25.174 79.8654 25.2544 80.3174 25.2383C81.1569 25.2348 81.9799 25.005 82.7002 24.5732C83.3219 24.2014 83.8955 23.755 84.4092 23.2461V11.6592H87.251V23.8398C87.251 24.2739 87.2507 24.6729 87.2969 25.0322C87.343 25.3915 87.3851 25.8042 87.4668 26.2559L87.7158 27.6221L85.0596 27.625L84.5801 25.3398C83.9796 26.0401 83.2734 26.6434 82.4844 27.124C81.6231 27.6425 80.6405 27.925 79.6357 27.9443C78.6312 27.9637 77.6392 27.7191 76.7588 27.2344C75.9059 26.7301 75.2256 25.9779 74.8086 25.0781C74.298 23.9416 74.0559 22.7025 74.1016 21.457V11.6592H76.9434V21.083ZM138.854 10.9658C139.853 10.9649 140.835 11.2361 141.693 11.749C142.552 12.262 143.256 12.9983 143.73 13.8799C144.315 15.002 144.598 16.2575 144.551 17.5225V27.626H139.909V18.2305C139.931 17.6467 139.809 17.0664 139.554 16.541C139.34 16.1218 138.999 15.7809 138.58 15.5664C138.137 15.3536 137.65 15.2475 137.159 15.2568C136.477 15.2696 135.806 15.4317 135.192 15.7314C134.776 15.935 134.393 16.1991 134.056 16.5137V27.6113H129.413V15.2246C129.413 14.7907 129.413 14.403 129.367 14.0615C129.321 13.72 129.278 13.3245 129.196 12.8691L128.947 11.3506H133.469L133.884 13.5449C134.445 12.8565 135.115 12.2628 135.867 11.7881C136.764 11.2347 137.8 10.949 138.854 10.9658ZM153.698 27.626H149.053V11.3506H153.698V27.626ZM186.294 15.5654C185.262 15.5401 184.233 15.6761 183.243 15.9678C182.537 16.2235 181.88 16.5928 181.293 17.0576V27.6113H176.65V15.2246C176.65 14.7908 176.633 14.4029 176.604 14.0615C176.576 13.72 176.516 13.3245 176.435 12.8691L176.186 11.3506H180.711L181.181 13.9668C181.717 13.166 182.4 12.4707 183.197 11.9229C184.111 11.3033 185.19 10.9735 186.294 10.9766V15.5654ZM62.6104 13.8613C61.8022 13.8613 61.011 14.0975 60.335 14.541C59.6695 15.0429 59.1637 15.7276 58.8789 16.5117C58.5153 17.519 58.3437 18.5865 58.374 19.6572C58.3433 20.729 58.5149 21.7973 58.8789 22.8057C59.161 23.5864 59.6676 24.2663 60.335 24.7588C61.0144 25.1933 61.8042 25.4238 62.6104 25.4238C63.4163 25.4238 64.2055 25.1932 64.8848 24.7588C65.5501 24.265 66.0558 23.5855 66.3379 22.8057C66.7043 21.7978 66.8771 20.7294 66.8486 19.6572C66.8767 18.5861 66.7039 17.5186 66.3379 16.5117C66.0532 15.7285 65.5483 15.0441 64.8848 14.541C64.2088 14.0976 63.4183 13.8614 62.6104 13.8613ZM165.167 14.7305C164.552 14.7305 163.95 14.9062 163.432 15.2383C162.9 15.6321 162.501 16.1801 162.288 16.8076C161.995 17.6752 161.859 18.5884 161.887 19.5039C161.859 20.4195 161.995 21.3334 162.288 22.2012C162.499 22.8248 162.898 23.367 163.432 23.752C163.953 24.0752 164.554 24.2461 165.167 24.2461C165.78 24.2461 166.381 24.0751 166.902 23.752C167.435 23.367 167.835 22.8247 168.046 22.2012C168.341 21.3338 168.477 20.4196 168.447 19.5039C168.477 18.5883 168.341 17.6748 168.046 16.8076C167.833 16.1801 167.434 15.6321 166.902 15.2383C166.384 14.9062 165.782 14.7305 165.167 14.7305ZM151.372 4C152.091 4.00007 152.781 4.28566 153.29 4.79395C153.531 5.04208 153.72 5.33559 153.848 5.65723C153.975 5.9789 154.038 6.32295 154.032 6.66895C154.036 7.01559 153.972 7.36002 153.843 7.68164C153.714 8.00317 153.522 8.29567 153.279 8.54297C152.769 9.0455 152.082 9.32715 151.366 9.32715C150.651 9.32708 149.964 9.04544 149.454 8.54297C149.211 8.29574 149.018 8.00333 148.889 7.68164C148.759 7.36003 148.694 7.01581 148.697 6.66895C148.694 6.32193 148.759 5.97702 148.889 5.65527C149.019 5.33361 149.211 5.04102 149.454 4.79395C149.963 4.28564 150.653 4 151.372 4Z" fill="#003986"/>
<path d="M38.28 59V42.44H49.32V44.96H41.112V49.4H48.144V51.848H41.112V56.48H49.44V59H38.28ZM52.7034 46.544H55.2714L55.6074 48.272C56.0874 47.68 56.6394 47.208 57.2634 46.856C57.9034 46.488 58.5994 46.304 59.3514 46.304C60.0554 46.304 60.7034 46.48 61.2954 46.832C61.9034 47.184 62.3754 47.728 62.7114 48.464C63.2074 47.824 63.7994 47.304 64.4874 46.904C65.1754 46.504 65.9354 46.304 66.7674 46.304C67.5034 46.304 68.1674 46.48 68.7594 46.832C69.3514 47.168 69.8234 47.696 70.1754 48.416C70.5274 49.136 70.7034 50.048 70.7034 51.152V59H68.0154V51.536C68.0154 50.56 67.8074 49.864 67.3914 49.448C66.9914 49.032 66.4714 48.824 65.8314 48.824C65.3834 48.824 64.9274 48.944 64.4634 49.184C64.0154 49.408 63.5914 49.744 63.1914 50.192C63.2074 50.336 63.2154 50.488 63.2154 50.648C63.2314 50.808 63.2394 50.976 63.2394 51.152V59H60.5274V51.536C60.5274 50.56 60.3194 49.864 59.9034 49.448C59.5034 49.032 58.9914 48.824 58.3674 48.824C57.9194 48.824 57.4714 48.936 57.0234 49.16C56.5754 49.384 56.1514 49.704 55.7514 50.12V59H53.0634V49.52C53.0634 49.184 53.0474 48.88 53.0154 48.608C52.9994 48.32 52.9594 48 52.8954 47.648L52.7034 46.544ZM74.3128 46.544H76.8808L77.2168 48.296C77.7288 47.688 78.3128 47.208 78.9688 46.856C79.6248 46.488 80.3288 46.304 81.0808 46.304C81.9288 46.304 82.7048 46.568 83.4088 47.096C84.1128 47.608 84.6728 48.344 85.0888 49.304C85.5208 50.248 85.7368 51.384 85.7368 52.712C85.7368 54.088 85.5128 55.264 85.0648 56.24C84.6328 57.216 84.0248 57.968 83.2408 58.496C82.4728 59.008 81.5768 59.264 80.5528 59.264C79.9448 59.264 79.3608 59.128 78.8008 58.856C78.2408 58.584 77.7608 58.168 77.3608 57.608V63.32L74.6728 63.8V49.52C74.6728 49.184 74.6568 48.88 74.6248 48.608C74.6088 48.32 74.5688 48 74.5048 47.648L74.3128 46.544ZM77.3608 53.48C77.3608 54.296 77.4808 54.968 77.7208 55.496C77.9768 56.024 78.2968 56.416 78.6808 56.672C79.0808 56.928 79.5128 57.056 79.9768 57.056C80.8888 57.056 81.6168 56.672 82.1608 55.904C82.7208 55.136 83.0008 54.112 83.0008 52.832C83.0008 51.936 82.8808 51.192 82.6408 50.6C82.4168 49.992 82.0968 49.536 81.6808 49.232C81.2648 48.928 80.7928 48.776 80.2648 48.776C79.7528 48.776 79.2488 48.896 78.7528 49.136C78.2568 49.376 77.7928 49.712 77.3608 50.144V53.48ZM88.5863 46.544H91.1543L91.5383 48.56C92.0183 47.84 92.5943 47.288 93.2663 46.904C93.9543 46.504 94.7143 46.304 95.5463 46.304V49.088C94.6983 49.104 93.9543 49.232 93.3143 49.472C92.6903 49.696 92.1303 50.032 91.6343 50.48V59H88.9463V49.52C88.9463 49.184 88.9303 48.88 88.8983 48.608C88.8823 48.32 88.8423 48 88.7783 47.648L88.5863 46.544ZM97.2932 52.952C97.2932 51.528 97.5412 50.32 98.0372 49.328C98.5492 48.336 99.2372 47.584 100.101 47.072C100.981 46.56 101.965 46.304 103.053 46.304C104.061 46.304 104.965 46.544 105.765 47.024C106.565 47.488 107.189 48.184 107.637 49.112C108.101 50.04 108.333 51.184 108.333 52.544C108.333 52.72 108.325 52.904 108.309 53.096C108.293 53.272 108.277 53.432 108.261 53.576H99.4292V51.632H106.245L105.717 52.544C105.717 51.12 105.453 50.104 104.925 49.496C104.413 48.872 103.773 48.56 103.005 48.56C102.413 48.56 101.885 48.72 101.421 49.04C100.973 49.344 100.621 49.816 100.365 50.456C100.109 51.08 99.9812 51.88 99.9812 52.856C99.9812 53.768 100.149 54.528 100.485 55.136C100.821 55.728 101.269 56.176 101.829 56.48C102.389 56.768 103.029 56.912 103.749 56.912C104.293 56.912 104.813 56.832 105.309 56.672C105.805 56.496 106.237 56.272 106.605 56L107.637 58.088C107.077 58.472 106.445 58.768 105.741 58.976C105.053 59.168 104.325 59.264 103.557 59.264C102.309 59.264 101.213 59.024 100.269 58.544C99.3412 58.048 98.6132 57.328 98.0852 56.384C97.5572 55.44 97.2932 54.296 97.2932 52.952ZM110.461 57.752L111.733 55.784C112.197 56.12 112.733 56.416 113.341 56.672C113.949 56.912 114.621 57.032 115.357 57.032C116.093 57.032 116.629 56.92 116.965 56.696C117.301 56.456 117.469 56.152 117.469 55.784C117.469 55.544 117.397 55.32 117.253 55.112C117.109 54.904 116.861 54.704 116.509 54.512C116.157 54.32 115.661 54.128 115.021 53.936C113.533 53.456 112.477 52.896 111.853 52.256C111.229 51.6 110.917 50.832 110.917 49.952C110.917 49.248 111.117 48.624 111.517 48.08C111.917 47.536 112.469 47.104 113.173 46.784C113.893 46.464 114.733 46.304 115.693 46.304C116.413 46.304 117.141 46.416 117.877 46.64C118.613 46.848 119.261 47.152 119.821 47.552L118.621 49.544C118.205 49.256 117.717 49.016 117.157 48.824C116.613 48.616 116.053 48.512 115.477 48.512C114.837 48.512 114.349 48.624 114.013 48.848C113.693 49.072 113.533 49.352 113.533 49.688C113.533 49.944 113.605 50.168 113.749 50.36C113.893 50.536 114.141 50.712 114.493 50.888C114.861 51.048 115.373 51.232 116.029 51.44C117.085 51.76 117.917 52.128 118.525 52.544C119.149 52.944 119.589 53.392 119.845 53.888C120.101 54.368 120.229 54.912 120.229 55.52C120.229 56.256 120.021 56.904 119.605 57.464C119.189 58.024 118.597 58.464 117.829 58.784C117.077 59.104 116.189 59.264 115.165 59.264C114.237 59.264 113.365 59.12 112.549 58.832C111.733 58.544 111.037 58.184 110.461 57.752ZM122.583 55.784C122.583 55.032 122.783 54.352 123.183 53.744C123.583 53.136 124.223 52.64 125.103 52.256C125.983 51.872 127.135 51.656 128.559 51.608L129.903 51.56V51.44C129.903 50.496 129.671 49.808 129.207 49.376C128.743 48.944 128.079 48.728 127.215 48.728C126.575 48.728 125.975 48.824 125.415 49.016C124.855 49.208 124.319 49.44 123.807 49.712L122.967 47.504C123.543 47.168 124.247 46.888 125.079 46.664C125.911 46.424 126.735 46.304 127.551 46.304C128.527 46.304 129.391 46.488 130.143 46.856C130.911 47.208 131.511 47.752 131.943 48.488C132.375 49.208 132.591 50.112 132.591 51.2V56.048C132.591 56.384 132.599 56.688 132.615 56.96C132.647 57.232 132.695 57.544 132.759 57.896L132.951 59H130.383L130.047 57.32C129.599 57.88 129.031 58.344 128.343 58.712C127.655 59.08 126.911 59.264 126.111 59.264C125.487 59.264 124.903 59.12 124.359 58.832C123.831 58.544 123.399 58.144 123.063 57.632C122.743 57.104 122.583 56.488 122.583 55.784ZM125.199 55.52C125.199 55.984 125.343 56.352 125.631 56.624C125.919 56.88 126.295 57.008 126.759 57.008C127.319 57.008 127.863 56.88 128.391 56.624C128.935 56.368 129.439 56.016 129.903 55.568V53.312L128.703 53.408C127.775 53.472 127.055 53.616 126.543 53.84C126.047 54.048 125.695 54.296 125.487 54.584C125.295 54.872 125.199 55.184 125.199 55.52ZM135.492 57.752L136.764 55.784C137.228 56.12 137.764 56.416 138.372 56.672C138.98 56.912 139.652 57.032 140.388 57.032C141.124 57.032 141.66 56.92 141.996 56.696C142.332 56.456 142.5 56.152 142.5 55.784C142.5 55.544 142.428 55.32 142.284 55.112C142.14 54.904 141.892 54.704 141.54 54.512C141.188 54.32 140.692 54.128 140.052 53.936C138.564 53.456 137.508 52.896 136.884 52.256C136.26 51.6 135.948 50.832 135.948 49.952C135.948 49.248 136.148 48.624 136.548 48.08C136.948 47.536 137.5 47.104 138.204 46.784C138.924 46.464 139.764 46.304 140.724 46.304C141.444 46.304 142.172 46.416 142.908 46.64C143.644 46.848 144.292 47.152 144.852 47.552L143.652 49.544C143.236 49.256 142.748 49.016 142.188 48.824C141.644 48.616 141.084 48.512 140.508 48.512C139.868 48.512 139.38 48.624 139.044 48.848C138.724 49.072 138.564 49.352 138.564 49.688C138.564 49.944 138.636 50.168 138.78 50.36C138.924 50.536 139.172 50.712 139.524 50.888C139.892 51.048 140.404 51.232 141.06 51.44C142.116 51.76 142.948 52.128 143.556 52.544C144.18 52.944 144.62 53.392 144.876 53.888C145.132 54.368 145.26 54.912 145.26 55.52C145.26 56.256 145.052 56.904 144.636 57.464C144.22 58.024 143.628 58.464 142.86 58.784C142.108 59.104 141.22 59.264 140.196 59.264C139.268 59.264 138.396 59.12 137.58 58.832C136.764 58.544 136.068 58.184 135.492 57.752Z" fill="#003986"/>
</svg>
