<svg width="42" height="42" viewBox="0 0 42 42" fill="none" xmlns="http://www.w3.org/2000/svg">
<g clip-path="url(#clip0_6262_1932)">
<path d="M21 0C9.42375 0 0 9.34325 0 21C0 32.5745 9.42375 42 21 42C32.5745 42 42 32.5745 42 21C42 9.4255 32.5745 0 21 0ZM15.134 6.67275C17.3652 6.55375 33.8537 10.7013 35.1365 11.823C36.211 13.3105 36.211 27.7795 35.1365 28.7717C34.6395 28.938 31.4142 28.2765 27.7778 27.4505C27.7778 31.0047 27.5275 34.391 27.0322 34.8057C25.7092 35.2188 8.18125 30.8385 6.86 29.6818C5.78375 28.1943 5.78375 13.7235 6.86 12.7312C7.35525 12.5668 10.4983 13.2283 14.2188 14.0543C14.2188 10.5 14.4673 7.1085 14.9625 6.6955C15.0187 6.68161 15.0762 6.67398 15.134 6.67275ZM14.2188 14.1365C14.1348 18.27 14.385 22.8183 14.9625 23.646C15.708 24.3075 22.239 26.1275 27.6955 27.4505C27.7778 23.233 27.5292 18.6865 26.95 17.8587C26.2062 17.1973 19.6753 15.3772 14.2188 14.1365Z" fill="black"/>
</g>
<defs>
<clipPath id="clip0_6262_1932">
<rect width="42" height="42" fill="white"/>
</clipPath>
</defs>
</svg>
