<svg width="451" height="70" viewBox="0 0 451 70" fill="none" xmlns="http://www.w3.org/2000/svg">
<path d="M90.8605 53.5881L95.0139 48.4734C99.4566 52.6757 105.365 54.9704 111.474 54.8668C113.459 54.9242 115.436 54.5971 117.296 53.9036C118.68 53.3869 119.898 52.5029 120.82 51.3462C121.577 50.3698 121.995 49.1726 122.011 47.9363C122.022 46.6288 121.646 45.3474 120.93 44.2537C119.938 42.8981 118.644 41.792 117.151 41.0228C114.726 39.7173 112.181 38.6496 109.551 37.8346C106.092 36.7119 102.769 35.2051 99.644 33.3421C97.5516 32.1531 95.7946 30.452 94.5373 28.3978C93.5524 26.5962 93.051 24.5696 93.0819 22.5158C93.0634 20.0035 93.828 17.5479 95.2692 15.4915C96.8471 13.3026 98.9723 11.568 101.431 10.462C104.265 9.15428 107.359 8.50724 110.479 8.56954C113.549 8.5955 116.591 9.17295 119.458 10.2745C122.435 11.3644 125.196 12.975 127.612 15.0312L123.535 20.3762C121.742 18.6203 119.641 17.2101 117.339 16.2161C115.001 15.2181 112.483 14.7131 109.942 14.7329C106.629 14.7329 104.144 15.4376 102.487 16.847C101.727 17.4302 101.109 18.1779 100.679 19.0341C100.248 19.8902 100.017 20.8328 100.001 21.7912C100.013 22.9092 100.363 23.9972 101.006 24.9113C101.944 26.1233 103.15 27.1009 104.529 27.767C106.81 28.9337 109.192 29.8923 111.645 30.6313C115.32 31.7022 118.831 33.274 122.079 35.3028C124.329 36.686 126.233 38.5669 127.646 40.8012C128.761 42.6753 129.349 44.8168 129.348 46.9986C129.37 49.5607 128.622 52.0703 127.203 54.2019C125.641 56.4926 123.467 58.2975 120.93 59.4105C117.764 60.7811 114.335 61.4388 110.887 61.337C108.368 61.3328 105.861 60.9946 103.431 60.3311C100.995 59.6924 98.6414 58.7712 96.4182 57.5862C94.3874 56.5216 92.5164 55.1757 90.8605 53.5881Z" fill="white"/>
<path d="M137.51 41.4749C137.387 37.7246 138.148 33.998 139.731 30.5975C141.063 27.8125 143.174 25.4756 145.808 23.8715C148.506 22.3619 151.544 21.5693 154.634 21.5693C157.724 21.5693 160.763 22.3619 163.46 23.8715C166.088 25.4789 168.193 27.8154 169.52 30.5975C171.099 33.9996 171.86 37.725 171.742 41.4749C171.856 45.2244 171.095 48.9489 169.52 52.3523C168.198 55.1434 166.08 57.4805 163.435 59.0697C160.73 60.5576 157.695 61.3377 154.609 61.3377C151.523 61.3377 148.487 60.5576 145.783 59.0697C143.149 57.4761 141.044 55.1393 139.731 52.3523C138.152 48.9502 137.392 45.2247 137.51 41.4749ZM144.481 41.4749C144.407 44.0434 144.817 46.6027 145.689 49.0192C146.365 50.8903 147.579 52.5189 149.179 53.6992C150.807 54.7406 152.698 55.294 154.63 55.294C156.562 55.294 158.453 54.7406 160.082 53.6992C161.676 52.5158 162.887 50.888 163.563 49.0192C164.441 46.6039 164.856 44.0444 164.788 41.4749C164.855 38.9082 164.44 36.3518 163.563 33.9391C162.88 32.0621 161.672 30.4222 160.082 29.2165C158.461 28.1537 156.567 27.5875 154.63 27.5875C152.693 27.5875 150.799 28.1537 149.179 29.2165C147.584 30.4193 146.372 32.0598 145.689 33.9391C144.818 36.3529 144.408 38.9093 144.481 41.4749Z" fill="white"/>
<path d="M182.159 45.7879V22.311H188.968V44.8928C188.968 48.3652 189.723 50.8913 191.232 52.4712C191.979 53.2576 192.885 53.8762 193.888 54.2862C194.892 54.6962 195.971 54.8882 197.054 54.8496C199.066 54.8412 201.039 54.2906 202.765 53.2555C204.714 52.0898 206.466 50.6224 207.957 48.9079V54.2528C206.382 56.2937 204.446 58.0274 202.246 59.3676C200.182 60.61 197.829 61.2882 195.421 61.3346C193.013 61.381 190.636 60.7939 188.526 59.6319C186.482 58.4235 184.853 56.6221 183.853 54.466C182.63 51.7423 182.05 48.7726 182.159 45.7879ZM208.416 60.5696L206.859 53.1361V22.311H213.668V51.4994C213.668 52.5394 213.668 53.4942 213.778 54.3551C213.889 55.2161 213.991 56.205 214.187 57.2876L214.783 60.5611L208.416 60.5696Z" fill="white"/>
<path d="M221.438 55.0718L228.562 46.7517C229.436 47.9718 230.577 48.975 231.899 49.6842C233.307 50.4561 234.889 50.8524 236.495 50.835C237.674 50.9007 238.854 50.7057 239.949 50.2637C241.045 49.8218 242.03 49.1437 242.835 48.2776C244.342 46.5727 245.099 44.1176 245.099 40.8527V9.31152H256.964V42.3701C257.075 46.0141 256.135 49.613 254.257 52.736C252.497 55.5464 249.976 57.7988 246.989 59.2318C243.831 60.744 240.369 61.5082 236.869 61.4652C233.913 61.5103 230.981 60.9293 228.264 59.7603C225.717 58.6378 223.402 57.0476 221.438 55.0718ZM232.971 18.2539V9.31152H252.998V18.2539H232.971Z" fill="white"/>
<path d="M267.756 45.7878V21.5693H278.88V44.0744C278.88 46.5011 279.461 48.2969 280.625 49.4619C281.241 50.0471 281.971 50.5001 282.768 50.7932C283.566 51.0864 284.415 51.2135 285.263 51.1669C286.792 51.1551 288.299 50.7997 289.672 50.1269C291.187 49.3902 292.519 48.3243 293.57 47.0068V54.3636C292.112 56.3782 290.301 58.1112 288.225 59.4784C286.12 60.814 283.669 61.4989 281.178 61.4476C278.904 61.4564 276.668 60.8686 274.692 59.7427C272.565 58.4989 270.828 56.6826 269.679 54.5C268.309 51.8071 267.647 48.8085 267.756 45.7878ZM293.868 60.5695L292.455 53.1361V21.5949H303.579V51.2862C303.579 52.3262 303.579 53.2554 303.69 54.0653C303.8 54.8751 303.903 55.8384 304.098 56.9295L304.694 60.5695H293.868Z" fill="white"/>
<path d="M313.588 21.5708H324.423L325.827 28.9958V60.5369H314.703V30.8541C314.703 29.8141 314.703 28.8849 314.592 28.0666C314.482 27.2482 314.38 26.302 314.184 25.2108L313.588 21.5708ZM324.721 35.0909V27.7341C326.194 25.6963 328.043 23.9601 330.168 22.6193C332.318 21.2929 334.801 20.6097 337.326 20.6501C339.722 20.648 342.073 21.296 344.131 22.5253C346.188 23.7546 347.875 25.5193 349.011 27.6318C350.413 30.3209 351.091 33.3296 350.978 36.361V60.571H339.853V38.0574C339.906 36.6582 339.614 35.2675 339.002 34.0082C338.489 33.0036 337.673 32.1864 336.67 31.6725C335.609 31.1625 334.443 30.9085 333.266 30.9308C331.63 30.9613 330.021 31.3493 328.551 32.0679C327.081 32.7865 325.785 33.8182 324.755 35.0909H324.721Z" fill="white"/>
<path d="M360.91 10.3521C360.902 9.52055 361.057 8.69555 361.369 7.92455C361.68 7.15356 362.14 6.45179 362.723 5.85961C363.943 4.64149 365.596 3.95752 367.319 3.95752C369.042 3.95752 370.694 4.64149 371.915 5.85961C372.492 6.45429 372.946 7.15727 373.252 7.9282C373.557 8.69914 373.707 9.52285 373.694 10.3521C373.703 11.183 373.549 12.0077 373.239 12.7786C372.929 13.5496 372.471 14.2517 371.889 14.8446C370.667 16.0488 369.021 16.7236 367.306 16.7236C365.591 16.7236 363.945 16.0488 362.723 14.8446C362.14 14.2521 361.68 13.5503 361.369 12.7794C361.058 12.0084 360.902 11.1836 360.91 10.3521ZM361.761 60.5707V21.5705H372.894V60.5707H361.761Z" fill="white"/>
<path d="M381.235 41.1098C381.128 37.3218 381.971 33.5675 383.686 30.1897C385.234 27.2323 387.597 24.7824 390.495 23.1313C393.547 21.4971 396.954 20.6421 400.415 20.6421C403.875 20.6421 407.282 21.4971 410.334 23.1313C413.198 24.799 415.529 27.2467 417.058 30.1897C418.767 33.5573 419.61 37.2992 419.509 41.0757C419.604 44.827 418.761 48.5425 417.058 51.8849C415.522 54.8314 413.182 57.2794 410.309 58.9433C407.257 60.5775 403.85 61.4325 400.389 61.4325C396.928 61.4325 393.521 60.5775 390.469 58.9433C387.572 57.2922 385.208 54.8423 383.66 51.8849C381.972 48.5504 381.138 44.8474 381.235 41.1098ZM392.512 41.1098C392.446 43.3038 392.772 45.492 393.474 47.5714C393.978 49.0661 394.936 50.3656 396.214 51.2882C397.463 52.0626 398.903 52.4729 400.372 52.4729C401.841 52.4729 403.281 52.0626 404.53 51.2882C405.808 50.3656 406.766 49.0661 407.27 47.5714C407.977 45.493 408.302 43.3041 408.232 41.1098C408.303 38.9154 407.977 36.7263 407.27 34.6481C406.761 33.1443 405.805 31.8325 404.53 30.8887C403.289 30.0929 401.846 29.6699 400.372 29.6699C398.898 29.6699 397.456 30.0929 396.214 30.8887C394.939 31.8325 393.983 33.1443 393.474 34.6481C392.771 36.7273 392.445 38.9157 392.512 41.1098Z" fill="white"/>
<path d="M426.777 21.5704H437.621L439.016 29.3364V60.5365H427.892V30.8538C427.892 29.8138 427.85 28.8846 427.782 28.0662C427.714 27.2478 427.569 26.3016 427.373 25.2105L426.777 21.5704ZM437.901 36.2072V29.217C439.278 26.7101 441.223 24.5613 443.578 22.9429C445.769 21.458 448.355 20.6679 451 20.6753V31.6721C448.528 31.6113 446.061 31.9363 443.689 32.6354C441.535 33.4155 439.565 34.6314 437.901 36.2072Z" fill="white"/>
<path d="M16.1838 49.0781H5.23854C2.89766 49.0781 1 50.9788 1 53.3234V64.2861C1 66.6307 2.89766 68.5313 5.23854 68.5313H16.1838C18.5247 68.5313 20.4224 66.6307 20.4224 64.2861V53.3234C20.4224 50.9788 18.5247 49.0781 16.1838 49.0781Z" fill="white"/>
<path d="M39.7339 25.04H28.7886C26.4477 25.04 24.55 26.9407 24.55 29.2853V40.248C24.55 42.5926 26.4477 44.4933 28.7886 44.4933H39.7339C42.0748 44.4933 43.9724 42.5926 43.9724 40.248V29.2853C43.9724 26.9407 42.0748 25.04 39.7339 25.04Z" fill="white"/>
<path d="M63.6843 1H52.739C50.3981 1 48.5005 2.90067 48.5005 5.24527V16.2079C48.5005 18.5525 50.3981 20.4532 52.739 20.4532H63.6843C66.0252 20.4532 67.9229 18.5525 67.9229 16.2079V5.24527C67.9229 2.90067 66.0252 1 63.6843 1Z" fill="white"/>
<path d="M39.7339 49.0781H28.7886C26.4477 49.0781 24.55 50.9788 24.55 53.3234V64.2861C24.55 66.6307 26.4477 68.5313 28.7886 68.5313H39.7339C42.0748 68.5313 43.9724 66.6307 43.9724 64.2861V53.3234C43.9724 50.9788 42.0748 49.0781 39.7339 49.0781Z" stroke="white" stroke-miterlimit="10"/>
<path d="M63.6843 25.04H52.739C50.3981 25.04 48.5005 26.9407 48.5005 29.2853V40.248C48.5005 42.5926 50.3981 44.4933 52.739 44.4933H63.6843C66.0252 44.4933 67.9229 42.5926 67.9229 40.248V29.2853C67.9229 26.9407 66.0252 25.04 63.6843 25.04Z" stroke="white" stroke-miterlimit="10"/>
<path d="M16.1838 25.04H5.23854C2.89766 25.04 1 26.9407 1 29.2853V40.248C1 42.5926 2.89766 44.4933 5.23854 44.4933H16.1838C18.5247 44.4933 20.4224 42.5926 20.4224 40.248V29.2853C20.4224 26.9407 18.5247 25.04 16.1838 25.04Z" stroke="white" stroke-miterlimit="10"/>
<path d="M39.7339 1H28.7886C26.4477 1 24.55 2.90067 24.55 5.24527V16.2079C24.55 18.5525 26.4477 20.4532 28.7886 20.4532H39.7339C42.0748 20.4532 43.9724 18.5525 43.9724 16.2079V5.24527C43.9724 2.90067 42.0748 1 39.7339 1Z" stroke="white" stroke-miterlimit="10"/>
</svg>
