<svg width="331" height="178" viewBox="0 0 331 178" fill="none" xmlns="http://www.w3.org/2000/svg">
<g clip-path="url(#clip0_764_6834)">
<path d="M296.535 177.27H77.5336C74.2266 177.27 71.5391 174.589 71.5391 171.291V48.3786C71.5391 45.0801 74.2266 42.3994 77.5336 42.3994H296.535C299.842 42.3994 302.53 45.0801 302.53 48.3786V171.291C302.53 174.589 299.842 177.27 296.535 177.27ZM77.5336 46.2915C76.3776 46.2915 75.4411 47.2256 75.4411 48.3786V171.291C75.4411 172.444 76.3776 173.378 77.5336 173.378H296.535C297.691 173.378 298.628 172.444 298.628 171.291V48.3786C298.628 47.2256 297.691 46.2915 296.535 46.2915H77.5336Z" fill="#D5D5D6"/>
<path d="M132.396 102.581H121.831V129.378H132.396V102.581Z" fill="#323232"/>
<path d="M149.516 100.007H138.951V129.378H149.516V100.007Z" fill="#323232"/>
<path d="M166.636 110.059H156.071V129.378H166.636V110.059Z" fill="#323232"/>
<path d="M183.756 104.094H173.191V129.378H183.756V104.094Z" fill="#323232"/>
<path d="M200.877 109.203H190.312V129.373H200.877V109.203Z" fill="#323232"/>
<path d="M217.997 94.1499H207.433V129.378H217.997V94.1499Z" fill="#323232"/>
<path d="M235.118 100.007H224.553V129.378H235.118V100.007Z" fill="#323232"/>
<path d="M252.238 94.9038H241.673V129.378H252.238V94.9038Z" fill="#323232"/>
<path d="M86.2545 59.4419H164.227C164.929 59.4419 165.5 60.0111 165.5 60.7117C165.5 61.4123 164.929 61.9815 164.227 61.9815H86.2545C85.5521 61.9815 84.9814 61.4123 84.9814 60.7117C84.9814 60.0111 85.5521 59.4419 86.2545 59.4419Z" fill="#D5D5D6"/>
<path d="M65.2129 29.5214L74.7973 32.6643V18.9009H66.1006L65.2129 29.5214Z" fill="#F3A3A6"/>
<path d="M73.6118 22.7105C78.8862 22.7105 83.162 18.4456 83.162 13.1846C83.162 7.92358 78.8862 3.65869 73.6118 3.65869C68.3373 3.65869 64.0615 7.92358 64.0615 13.1846C64.0615 18.4456 68.3373 22.7105 73.6118 22.7105Z" fill="#F3A3A6"/>
<path d="M71.1777 13.9287L72.4947 15.5244L74.8749 11.3696C74.8749 11.3696 77.9136 11.5253 77.9136 9.27761C77.9136 7.02992 80.7036 6.96668 80.7036 6.96668C80.7036 6.96668 84.6495 0.0922668 76.4747 1.90209C76.4747 1.90209 70.8021 -1.97541 67.9829 1.33774C67.9829 1.33774 59.335 5.68228 61.8079 13.2475L65.9197 21.0415L66.8513 19.2754C66.8513 19.2754 66.2855 11.8658 71.1777 13.9287Z" fill="#2F2E43"/>
<path d="M70.2954 159.902H62.5791V170.819H70.2954V159.902Z" fill="#F3A3A6"/>
<path d="M69.4413 177.071C68.1195 177.192 61.5201 177.708 61.1885 176.2C60.8861 174.813 61.3299 173.364 61.3933 173.169C62.0274 166.873 62.2615 166.8 62.403 166.757C62.6273 166.693 63.2858 167 64.3491 167.686L64.4174 167.73L64.432 167.808C64.4516 167.905 64.9247 170.216 67.1586 169.865C68.6901 169.622 69.1876 169.287 69.3486 169.121C69.2169 169.063 69.056 168.961 68.9438 168.781C68.7779 168.523 68.7487 168.192 68.856 167.798C69.1437 166.752 70.0071 165.205 70.0412 165.141L70.1388 164.966L78.9086 170.868L84.3227 172.41C84.7324 172.527 85.0592 172.819 85.225 173.208C85.4543 173.753 85.3128 174.385 84.8738 174.779C83.8886 175.66 81.9375 177.173 79.8841 177.358C79.3378 177.406 78.6159 177.426 77.8063 177.426C74.4164 177.426 69.4754 177.076 69.4364 177.071H69.4413Z" fill="#2F2E43"/>
<path d="M46.2219 143.512L39.2451 151.924L45.1906 156.83L52.1673 148.418L46.2219 143.512Z" fill="#F3A3A6"/>
<path d="M40.5474 161.108C39.4548 160.359 34.0359 156.564 34.7431 155.192C35.3967 153.932 36.6648 153.1 36.8404 152.988C41.3522 148.541 41.5814 148.634 41.718 148.692C41.9326 148.785 42.2399 149.442 42.6252 150.643L42.6496 150.716L42.6106 150.784C42.5618 150.872 41.4497 152.954 43.3959 154.102C44.7323 154.89 45.3322 154.944 45.5566 154.92C45.4932 154.793 45.4347 154.608 45.4591 154.399C45.4932 154.097 45.6834 153.82 46.0249 153.587C46.9175 152.964 48.5661 152.322 48.6392 152.293L48.8246 152.22L51.8096 162.344L54.9947 166.975C55.2337 167.326 55.302 167.759 55.18 168.167C55.0093 168.732 54.4972 169.131 53.9021 169.155C52.5803 169.209 50.1122 169.131 48.41 167.968C47.9612 167.661 47.3906 167.219 46.7662 166.703C44.1568 164.548 40.5718 161.137 40.5425 161.108H40.5474Z" fill="#2F2E43"/>
<path d="M83.0544 75.6914H56.5889L62.4712 162.952H71.2947L83.0593 75.6914H83.0544Z" fill="#2F2E43"/>
<path d="M77.6654 80.4981L83.0551 75.6914L80.3578 123.686L50.2194 152.283L42.7031 146.09L60.2672 123.36L77.6654 80.4981Z" fill="#2F2E43"/>
<path d="M77.6648 24.3644L64.5929 22.248L60.5348 29.3268C55.3744 38.3273 53.2721 48.7483 54.5354 59.0381L56.5889 75.7011H83.0544L77.6648 24.3692V24.3644Z" fill="#D6E7FF"/>
<path d="M67.0514 91.4059C67.5928 94.0963 66.5831 96.5532 64.8028 96.8937C63.0177 97.2294 61.1349 95.3223 60.5935 92.627C60.3643 91.5518 60.4033 90.4426 60.7106 89.3869L58.5645 77.949L64.1736 77.0781L65.6905 88.4479C66.3832 89.3188 66.8514 90.3307 67.0514 91.4108V91.4059Z" fill="#F3A3A6"/>
<path d="M60.2284 88.3069L51.9902 62.9208V62.8818L55.1021 36.7416C55.5801 32.7376 58.9846 29.7212 63.0232 29.7212C65.4962 29.7212 67.7886 30.8353 69.3104 32.7813C70.8322 34.7274 71.3638 37.2135 70.7639 39.612L65.2669 61.5391L66.579 86.4241L60.2235 88.3069H60.2284Z" fill="#D6E7FF"/>
</g>
<defs>
<clipPath id="clip0_764_6834">
<rect width="331" height="178" fill="white"/>
</clipPath>
</defs>
</svg>
