<svg width="32" height="26" viewBox="0 0 32 26" fill="none" xmlns="http://www.w3.org/2000/svg">
<path d="M28.5 1.19979C28.1562 0.977353 27.763 0.842784 27.3549 0.80791C26.9469 0.773037 26.5366 0.838927 26.16 0.999789L13.82 5.85979C13.5279 5.97869 13.2154 6.03982 12.9 6.03979H5C4.33696 6.03979 3.70107 6.30318 3.23223 6.77202C2.76339 7.24086 2.5 7.87675 2.5 8.53979V8.73979H0V14.7398H2.5V14.9998C2.51567 15.6524 2.78596 16.273 3.25311 16.7289C3.72027 17.1848 4.34722 17.44 5 17.4398L8 23.7998C8.20314 24.2281 8.52296 24.5904 8.92272 24.8451C9.32249 25.0998 9.78599 25.2366 10.26 25.2398H11.52C12.1796 25.2345 12.8103 24.9688 13.2749 24.5005C13.7394 24.0323 14 23.3994 14 22.7398V17.6798L26.16 22.5398C26.4591 22.6588 26.7781 22.7199 27.1 22.7198C27.5994 22.7117 28.0858 22.5589 28.5 22.2798C28.829 22.0577 29.1003 21.7604 29.2916 21.4127C29.4829 21.0649 29.5886 20.6765 29.6 20.2798V3.25979C29.5982 2.85282 29.497 2.45245 29.3053 2.09346C29.1136 1.73446 28.8372 1.42769 28.5 1.19979ZM11.5 8.53979V14.9998H5V8.53979H11.5ZM11.5 22.7398H10.24L7.78 17.4398H11.5V22.7398ZM14.74 15.2998C14.5025 15.1784 14.2549 15.0781 14 14.9998V8.39979C14.2525 8.34769 14.5001 8.27409 14.74 8.17979L27.1 3.25979V20.2198L14.74 15.2998ZM29.66 9.23979V14.2398C30.323 14.2398 30.9589 13.9764 31.4278 13.5076C31.8966 13.0387 32.16 12.4028 32.16 11.7398C32.16 11.0767 31.8966 10.4409 31.4278 9.97202C30.9589 9.50318 30.323 9.23979 29.66 9.23979Z" fill="#FDFDFD"/>
</svg>
