<svg width="425" height="282" viewBox="0 0 425 282" fill="none" xmlns="http://www.w3.org/2000/svg">
<g clip-path="url(#clip0_3342_13435)">
<path d="M215.301 79.259C211.512 72.9962 207.021 66.3093 199.989 64.2643C191.845 61.8961 183.479 66.6006 176.383 71.2431C155.161 85.1272 134.724 100.174 115.166 116.313L115.187 116.557C130.414 115.507 145.641 114.458 160.868 113.409C171.87 112.651 183.249 111.788 192.972 106.587C196.661 104.614 200.257 101.978 204.438 101.794C209.632 101.566 214.161 105.191 217.72 108.978C238.772 131.379 244.865 165.637 268.484 185.318C253.59 148.616 235.807 113.151 215.301 79.259Z" fill="#F2F2F2"/>
<path d="M344.71 269.265C342.382 266.328 341.43 265.64 339.134 262.675C320.435 238.509 302.86 213.527 286.408 187.729C275.234 170.207 264.613 152.349 254.547 134.155C249.754 125.506 245.093 116.788 240.564 108.002C237.049 101.19 233.612 94.3375 230.254 87.444C229.294 85.475 228.361 83.497 227.432 81.5145C225.244 76.8524 223.097 72.1677 220.792 67.569C218.165 62.3276 214.967 56.8326 210.142 53.3112C207.947 51.6428 205.322 50.6334 202.573 50.4008C198.646 50.1473 195.022 51.7678 191.616 53.5375C166.694 66.5234 143.362 82.8046 122.258 101.331C101.1 119.898 82.1886 140.875 65.9087 163.834C65.4106 164.545 64.2328 163.866 64.7356 163.151C66.7151 160.353 68.7338 157.586 70.7918 154.85C96.3811 120.842 127.758 91.5968 163.487 68.4516C169.498 64.559 175.622 60.849 181.859 57.3215C185.003 55.5426 188.16 53.7864 191.371 52.1389C194.52 50.523 197.862 49.0701 201.459 49.0157C213.698 48.8257 220.035 62.6761 224.388 71.9957C225.756 74.9288 227.141 77.8527 228.542 80.7677C233.837 91.8344 239.336 102.8 245.039 113.665C248.558 120.373 252.155 127.041 255.829 133.671C267.261 154.315 279.413 174.542 292.283 194.35C309.333 220.589 326.247 243.768 345.67 268.305C346.205 268.984 345.249 269.953 344.71 269.265Z" fill="#E4E4E4"/>
<path d="M121.048 94.4914C120.337 93.6993 119.631 92.9072 118.915 92.1151C113.271 85.8779 107.215 79.7131 99.4645 76.1373C95.7691 74.3785 91.735 73.4441 87.642 73.3989C83.4114 73.4125 79.2759 74.5214 75.3668 76.0739C73.5187 76.8117 71.7112 77.6491 69.9312 78.5407C67.8973 79.5637 65.8996 80.6546 63.9113 81.7544C60.1787 83.8184 56.4946 85.9729 52.8589 88.218C45.625 92.6854 38.6175 97.4938 31.8367 102.643C28.3215 105.314 24.8789 108.072 21.5089 110.917C18.3744 113.561 15.3033 116.275 12.2956 119.06C11.6524 119.653 10.6921 118.694 11.3353 118.101C12.128 117.363 12.9297 116.63 13.7315 115.905C15.9963 113.859 18.2974 111.853 20.6348 109.885C24.8971 106.291 29.2697 102.836 33.7527 99.5201C40.7239 94.3601 47.9351 89.5502 55.3863 85.0903C59.1098 82.8634 62.8845 80.73 66.7105 78.6901C67.8657 78.0746 69.0344 77.4726 70.2165 76.9022C72.899 75.5502 75.6862 74.4164 78.5511 73.512C82.6093 72.2002 86.9029 71.7787 91.139 72.2764C95.2291 72.8709 99.1698 74.2331 102.753 76.2912C110.363 80.5414 116.265 87.1135 122.009 93.5273C122.589 94.1791 121.633 95.1432 121.048 94.4914Z" fill="#E4E4E4"/>
<path d="M276.97 159.126L295.205 152.461L304.259 149.152C307.207 148.075 310.149 146.848 313.197 146.076C315.846 145.32 318.658 145.356 321.287 146.179C323.632 147.046 325.778 148.375 327.598 150.088C329.457 151.799 331.187 153.645 332.773 155.611C334.744 157.978 336.687 160.37 338.637 162.754C346.688 172.593 354.687 182.475 362.633 192.399C370.578 202.323 378.471 212.29 386.31 222.298C394.169 232.331 401.974 242.406 409.724 252.523C410.674 253.762 411.622 255.002 412.57 256.243C413.094 256.928 414.274 256.252 413.743 255.557C405.936 245.339 398.074 235.162 390.157 225.027C382.221 214.868 374.23 204.752 366.185 194.679C358.139 184.606 350.039 174.577 341.885 164.591C339.853 162.104 337.819 159.619 335.781 157.137C334.061 155.043 332.361 152.926 330.476 150.977C327.014 147.4 322.69 144.239 317.513 144.153C314.469 144.103 311.524 145.068 308.696 146.09C305.647 147.192 302.606 148.315 299.562 149.427L281.199 156.139L276.609 157.816C275.794 158.114 276.146 159.427 276.97 159.126Z" fill="#E4E4E4"/>
<path d="M97.0647 83.9856C87.7981 79.2266 75.9309 80.1587 67.4155 86.1044C83.6579 88.9045 99.7226 92.6511 115.527 97.3251C108.964 93.4818 103.83 87.4603 97.0647 83.9856Z" fill="#F2F2F2"/>
<path d="M67.3245 86.088L65.5405 87.5369C66.144 87.0298 66.7713 86.5543 67.4157 86.1044C67.3852 86.0991 67.3549 86.0932 67.3245 86.088Z" fill="#F2F2F2"/>
<path d="M326.911 159.192C325.116 157.009 323.175 154.723 320.491 153.836L317.984 153.935C337.065 187.627 362.836 217.068 393.715 240.449C371.447 213.363 349.179 186.278 326.911 159.192Z" fill="#F2F2F2"/>
<path d="M171.036 141.181C172.196 145.392 174.81 149.058 178.414 151.529C179.807 152.477 181.456 153.387 181.933 155.002C182.184 156.032 182.029 157.119 181.501 158.039C180.974 158.947 180.333 159.783 179.593 160.528L179.526 160.781C176.068 158.733 172.778 156.143 170.868 152.609C168.958 149.075 168.691 144.443 171.036 141.181Z" fill="#F2F2F2"/>
<path d="M286.164 241.411C287.324 245.622 289.937 249.288 293.541 251.759C294.935 252.707 296.583 253.616 297.06 255.232C297.311 256.262 297.156 257.349 296.629 258.269C296.102 259.176 295.46 260.013 294.721 260.758L294.653 261.011C291.195 258.963 287.905 256.373 285.995 252.839C284.085 249.304 283.818 244.673 286.164 241.411Z" fill="#F2F2F2"/>
<path d="M56.4025 234.498C57.5625 238.71 60.1758 242.375 63.7801 244.846C65.1736 245.795 66.8222 246.704 67.2989 248.32C67.5497 249.35 67.3952 250.437 66.8673 251.356C66.3403 252.264 65.6991 253.1 64.9594 253.845L64.8919 254.098C61.4339 252.05 58.1441 249.46 56.2339 245.926C54.3238 242.392 54.0571 237.76 56.4025 234.498Z" fill="#F2F2F2"/>
<path d="M320.801 50.3617C334.718 50.3617 346 39.0879 346 25.1809C346 11.2739 334.718 0 320.801 0C306.883 0 295.601 11.2739 295.601 25.1809C295.601 39.0879 306.883 50.3617 320.801 50.3617Z" fill="#1165BA"/>
<path d="M366.276 5.86092C354.063 4.21135 340.12 10.8076 336.955 22.7092C336.157 20.593 334.707 18.7851 332.814 17.5466C330.92 16.3081 328.682 15.703 326.422 15.8189C324.162 15.9348 321.998 16.7656 320.241 18.1913C318.485 19.617 317.227 21.5637 316.65 23.7503L318.049 24.751C344.22 30.4064 371.312 30.284 397.432 24.3923C388.937 15.4709 378.489 7.51045 366.276 5.86092Z" fill="#F0F0F0"/>
<path d="M313.901 39.4354C301.688 37.7858 287.745 44.382 284.58 56.2836C283.782 54.1675 282.332 52.3596 280.438 51.1211C278.545 49.8825 276.307 49.2775 274.047 49.3934C271.787 49.5093 269.622 50.3401 267.866 51.7658C266.109 53.1914 264.852 55.1382 264.275 57.3248L265.673 58.3254C291.845 63.9809 318.937 63.8585 345.056 57.9668C336.561 49.0454 326.114 41.0849 313.901 39.4354Z" fill="#F0F0F0"/>
<path d="M420.494 45.7839C420.443 45.784 420.393 45.7762 420.345 45.7607C289.699 4.47489 174.552 9.87374 100.962 21.6729C90.9467 23.2781 80.905 25.132 71.1155 27.1837C68.6162 27.7068 66.0233 28.2676 63.409 28.8515C60.2868 29.5463 57.2061 30.2618 54.252 30.9774C52.9762 31.2792 51.7253 31.5835 50.4994 31.8901C48.6424 32.3482 46.7581 32.8255 44.7382 33.3501C42.4812 33.9316 40.188 34.5416 37.9208 35.1631C37.9125 35.166 37.904 35.1684 37.8955 35.1703L37.8957 35.1708C35.3349 35.8695 32.7876 36.5884 30.3243 37.3063C28.9911 37.6911 27.7037 38.0706 26.4706 38.4452C26.3328 38.4833 26.2108 38.52 26.087 38.5576L25.8221 38.6381C25.6686 38.6849 25.5171 38.7307 25.3656 38.7741L25.356 38.777L25.3562 38.7775L24.9552 38.9019C24.477 39.0465 24.0104 39.1878 23.5515 39.3286C11.4236 43.0645 4.75652 45.7222 4.69065 45.7482C4.63042 45.7723 4.56603 45.7844 4.50115 45.7836C4.43626 45.7829 4.37216 45.7694 4.3125 45.7439C4.25284 45.7184 4.19878 45.6814 4.15343 45.635C4.10808 45.5887 4.07231 45.5338 4.04816 45.4736C4.02402 45.4134 4.01198 45.3491 4.01273 45.2842C4.01347 45.2194 4.02699 45.1554 4.05251 45.0957C4.07802 45.0361 4.11504 44.9821 4.16145 44.9368C4.20785 44.8915 4.26273 44.8557 4.32296 44.8316C4.38931 44.8056 11.089 42.1344 23.2611 38.3845C23.7216 38.2432 24.1894 38.102 24.6691 37.9568L25.0416 37.8411C25.0544 37.8363 25.0672 37.8324 25.0802 37.8286C25.231 37.7857 25.3815 37.7399 25.5345 37.6936L25.7999 37.613C25.9321 37.573 26.0624 37.5335 26.1958 37.4968C27.4205 37.1246 28.7122 36.7442 30.0488 36.358C32.5131 35.6395 35.0628 34.9206 37.6255 34.221C37.6335 34.2181 37.6417 34.2161 37.6496 34.2137C39.9247 33.5903 42.2264 32.9774 44.4907 32.394C46.5137 31.8689 48.4016 31.3906 50.2617 30.9316C51.4929 30.6254 52.7462 30.3205 54.0216 30.0169C56.979 29.3004 60.066 28.5839 63.1938 27.8877C65.8122 27.3033 68.4094 26.7411 70.9128 26.2174C80.7176 24.1624 90.7749 22.3056 100.805 20.698C174.501 8.88194 289.812 3.47437 420.642 44.8195C420.755 44.855 420.851 44.9295 420.913 45.0297C420.976 45.1298 421 45.2489 420.982 45.3654C420.964 45.4819 420.905 45.5881 420.815 45.6649C420.726 45.7416 420.612 45.7839 420.494 45.7839Z" fill="#CCCCCC"/>
<path d="M129.945 207.293C129.774 206.793 129.486 206.341 129.105 205.975C128.965 205.844 128.813 205.727 128.651 205.624C127.361 204.765 125.434 204.572 124.209 205.624C124.085 205.731 123.971 205.848 123.868 205.975C123.502 206.424 123.127 206.863 122.741 207.293C122.109 208.014 121.462 208.71 120.785 209.386C120.592 209.574 120.399 209.766 120.202 209.954C120.088 210.068 119.974 210.176 119.861 210.285C119.426 210.7 118.981 211.1 118.532 211.495C118.294 211.707 118.057 211.914 117.815 212.117C117.454 212.418 117.094 212.719 116.728 213.01C116.693 213.035 116.659 213.06 116.624 213.089C116.614 213.094 116.609 213.104 116.6 213.109C116.595 213.109 116.59 213.109 116.585 213.119C116.571 213.124 116.559 213.133 116.55 213.144C116.441 213.218 116.367 213.267 116.313 213.312C116.333 213.302 116.352 213.287 116.372 213.277C116.283 213.346 116.189 213.415 116.1 213.484C115.236 214.121 114.351 214.734 113.447 215.306C111.21 216.737 108.86 217.984 106.421 219.034C106.258 219.098 106.09 219.167 105.922 219.231C99.5352 221.846 92.6073 222.866 85.7374 222.204C85.0357 222.15 84.3341 222.075 83.6325 221.982C82.8221 221.863 82.0167 221.72 81.2163 221.557C78.1689 220.949 75.1872 220.05 72.3124 218.871C68.7163 217.226 65.2961 215.221 62.1041 212.887C61.61 212.536 61.1109 212.186 60.6119 211.845C61.1801 210.453 61.7384 209.06 62.282 207.658C62.5537 206.982 62.8156 206.305 63.0725 205.624C65.0934 200.375 66.9908 195.078 68.8091 189.76C70.6472 184.373 72.3816 178.955 74.0121 173.506C74.1801 172.953 74.3432 172.4 74.5013 171.847C75.3561 168.969 76.1763 166.083 76.962 163.192C77.0361 162.91 77.1152 162.634 77.1843 162.352C77.4116 161.523 77.634 160.693 77.8514 159.864C78.3455 157.993 77.2288 155.756 75.2622 155.307C74.3154 155.064 73.3113 155.198 72.4615 155.681C71.6116 156.163 70.9825 156.957 70.7065 157.894C70.4941 158.694 70.2816 159.489 70.0642 160.289C69.0216 164.155 67.9247 168.007 66.7734 171.847C66.6054 172.4 66.4374 172.953 66.2694 173.506C63.7297 181.87 60.9413 190.15 57.9041 198.346C57.5385 199.339 57.1679 200.328 56.7924 201.314C56.6096 201.797 56.4267 202.281 56.239 202.765C55.8783 203.718 55.5077 204.671 55.1371 205.624C54.9246 206.182 54.7072 206.74 54.4898 207.293C54.3465 207.643 54.2082 207.994 54.0698 208.34C52.661 207.834 51.2014 207.483 49.7167 207.293L49.4795 207.263C48.3285 207.125 47.1644 207.135 46.0158 207.293C44.2968 207.493 42.6429 208.069 41.1709 208.978C39.699 209.888 38.4449 211.109 37.4974 212.556C35.1405 216.264 35.1701 221.567 38.4757 224.717C41.8801 227.961 47.0337 227.936 51.0409 225.907C53.1645 224.759 54.9551 223.082 56.239 221.039C56.7308 220.298 57.1828 219.532 57.5928 218.743C57.6966 218.812 57.8004 218.881 57.9041 218.955C58.2994 219.231 58.6947 219.513 59.0851 219.789C61.3594 221.436 63.7563 222.907 66.2546 224.189C71.6265 226.857 77.4091 228.605 83.3607 229.358C83.4941 229.373 83.6226 229.393 83.756 229.408C84.4132 229.491 85.0753 229.556 85.7374 229.61C95.2352 230.325 104.745 228.383 113.2 224.001C113.917 223.631 114.626 223.242 115.33 222.836C116.422 222.204 117.489 221.532 118.532 220.821C119.1 220.436 119.653 220.046 120.202 219.636C122.598 217.872 124.832 215.898 126.877 213.736C127.653 212.921 128.396 212.08 129.105 211.213C129.777 210.504 130.164 209.572 130.193 208.596C130.189 208.151 130.105 207.709 129.945 207.293ZM48.1257 219.054C48.2295 218.98 48.3332 218.901 48.432 218.822C48.4024 218.896 48.2591 218.98 48.1257 219.054ZM49.7118 217.459C49.5981 217.587 49.4944 217.716 49.3807 217.844C49.035 218.231 48.6636 218.594 48.269 218.93C48.2146 218.98 48.1553 219.029 48.096 219.073C48.0954 219.073 48.0947 219.074 48.0941 219.074C48.0935 219.074 48.093 219.074 48.0925 219.075C48.0921 219.075 48.0917 219.076 48.0914 219.077C48.0912 219.077 48.0911 219.078 48.0911 219.078C48.0197 219.11 47.9504 219.147 47.8835 219.187C47.6711 219.315 47.4537 219.434 47.2313 219.543C46.796 219.703 46.3481 219.827 45.8923 219.913C45.5421 219.938 45.1905 219.942 44.8399 219.923H44.83C44.588 219.869 44.3488 219.803 44.1135 219.725C43.9949 219.666 43.8813 219.597 43.7676 219.528C43.7232 219.488 43.6836 219.449 43.6589 219.424C43.6107 219.38 43.5661 219.332 43.5255 219.281C43.5256 219.28 43.5254 219.28 43.5252 219.279C43.5249 219.278 43.5246 219.278 43.5241 219.277C43.5237 219.277 43.5231 219.277 43.5225 219.276C43.5219 219.276 43.5213 219.276 43.5206 219.276C43.4662 219.177 43.4069 219.078 43.3526 218.98C43.3498 218.977 43.348 218.974 43.3477 218.97C43.3081 218.846 43.2735 218.718 43.2439 218.59C43.2332 218.364 43.2348 218.138 43.2488 217.913C43.3151 217.598 43.4043 217.288 43.5157 216.985C43.6157 216.77 43.7296 216.563 43.8566 216.363C43.8665 216.343 43.9159 216.264 43.9702 216.175C43.9752 216.17 43.9752 216.17 43.9752 216.165C44.0493 216.081 44.1234 215.993 44.2025 215.914C44.3359 215.765 44.4792 215.637 44.6225 215.504C44.9011 215.321 45.1898 215.155 45.4872 215.005C45.9589 214.838 46.4429 214.707 46.9349 214.615C47.6604 214.557 48.3896 214.564 49.1139 214.635C49.8 214.754 50.4769 214.92 51.1398 215.133C50.738 215.913 50.2806 216.662 49.7711 217.375C49.7513 217.405 49.7316 217.434 49.7118 217.459ZM44.2173 215.835C44.1737 215.904 44.1223 215.969 44.0641 216.027C44.1033 215.954 44.1552 215.889 44.2173 215.835Z" fill="#3F3D56"/>
<path d="M115.093 156.867C115.048 158.417 115.004 159.968 114.959 161.518C114.865 164.959 114.768 168.402 114.668 171.847C114.564 175.723 114.455 179.597 114.341 183.47C114.287 185.469 114.231 187.469 114.173 189.469C114.02 194.855 113.869 200.241 113.719 205.624C113.704 206.182 113.684 206.735 113.669 207.293C113.595 209.964 113.521 212.635 113.447 215.306C113.363 218.204 113.281 221.103 113.2 224.001C113.141 226.174 113.08 228.348 113.017 230.523C112.573 246.289 112.128 262.054 111.683 277.819C111.664 278.795 111.268 279.726 110.577 280.417C109.886 281.107 108.954 281.503 107.977 281.522C106.997 281.514 106.059 281.121 105.366 280.429C104.672 279.736 104.279 278.799 104.271 277.819C104.519 268.951 104.769 260.084 105.023 251.216C105.245 243.198 105.471 235.179 105.699 227.161C105.774 224.519 105.848 221.876 105.922 219.231C106.035 215.252 106.147 211.272 106.258 207.293C106.273 206.735 106.292 206.182 106.307 205.624C106.317 205.135 106.332 204.651 106.347 204.162C106.564 196.435 106.782 188.707 106.999 180.976C107.088 177.935 107.174 174.892 107.256 171.847C107.355 168.376 107.454 164.907 107.552 161.439C107.597 159.913 107.636 158.393 107.681 156.867C107.7 155.891 108.096 154.96 108.787 154.269C109.478 153.579 110.41 153.183 111.387 153.164C112.367 153.172 113.305 153.564 113.998 154.257C114.692 154.95 115.085 155.887 115.093 156.867Z" fill="#3F3D56"/>
<path d="M318.384 157.894C314.498 172.598 309.853 187.091 304.469 201.315C302.983 205.238 301.463 209.154 299.838 213.022L300.212 212.138C299.487 213.98 298.56 215.737 297.45 217.377C297.375 217.483 297.298 217.588 297.219 217.691C297.603 217.201 297.676 217.104 297.438 217.401C297.313 217.549 297.189 217.698 297.059 217.843C296.713 218.23 296.342 218.593 295.948 218.931C295.848 219.015 295.748 219.098 295.645 219.18L296.109 218.82C296.055 218.946 295.677 219.115 295.56 219.186C295.179 219.416 294.782 219.617 294.372 219.788L295.257 219.415C294.584 219.686 293.883 219.878 293.166 219.988L294.151 219.856C293.447 219.953 292.734 219.96 292.028 219.878L293.013 220.011C292.435 219.931 291.87 219.779 291.331 219.558L292.216 219.931C291.928 219.806 291.651 219.658 291.386 219.489C291.252 219.401 290.84 219.089 291.379 219.501C291.939 219.928 291.451 219.538 291.336 219.424C291.24 219.329 291.153 219.226 291.059 219.13C290.623 218.683 291.551 219.899 291.255 219.376C291.097 219.114 290.952 218.845 290.821 218.568L291.195 219.453C291.025 219.032 290.904 218.592 290.835 218.144L290.967 219.128C290.897 218.57 290.896 218.005 290.966 217.447L290.834 218.431C290.924 217.808 291.089 217.198 291.325 216.614L290.952 217.499C291.116 217.106 291.311 216.727 291.534 216.364C291.636 216.177 291.757 215.999 291.893 215.835C291.918 215.843 291.267 216.582 291.612 216.209C291.703 216.111 291.787 216.008 291.879 215.912C292.025 215.757 292.182 215.615 292.336 215.468C292.852 214.977 291.614 215.945 292.209 215.557C292.641 215.273 293.095 215.025 293.568 214.816L292.682 215.19C293.473 214.865 294.303 214.643 295.15 214.528L294.165 214.66C295.227 214.538 296.299 214.551 297.358 214.698L296.372 214.566C297.713 214.769 299.022 215.137 300.272 215.662L299.387 215.289C302.05 216.431 304.408 218.127 306.763 219.791C309.037 221.436 311.433 222.906 313.93 224.188C319.303 226.857 325.086 228.605 331.038 229.359C339.574 230.404 348.236 229.29 356.229 226.12C364.222 222.949 371.29 217.824 376.785 211.213C377.455 210.503 377.842 209.571 377.87 208.595C377.863 207.614 377.474 206.675 376.785 205.977C375.425 204.729 372.857 204.377 371.544 205.977C370.3 207.495 368.962 208.934 367.539 210.285C366.874 210.915 366.192 211.526 365.492 212.117C365.092 212.455 364.687 212.786 364.276 213.11C364.082 213.264 363.476 213.672 364.406 213.013C364.193 213.164 363.988 213.329 363.778 213.484C360.666 215.776 357.294 217.693 353.732 219.194L354.617 218.821C350.795 220.423 346.78 221.522 342.674 222.091L343.659 221.958C339.435 222.513 335.156 222.507 330.934 221.94L331.919 222.072C327.698 221.492 323.569 220.369 319.637 218.729L320.522 219.102C316.727 217.425 313.126 215.34 309.782 212.886C308.041 211.598 306.206 210.443 304.291 209.432C302.06 208.294 299.645 207.56 297.157 207.265C292.493 206.717 287.741 208.532 285.177 212.559C282.817 216.264 282.847 221.566 286.152 224.717C289.555 227.962 294.709 227.935 298.72 225.905C302.583 223.95 304.903 219.888 306.534 216.059C310.206 207.44 313.457 198.623 316.486 189.76C319.482 180.993 322.199 172.136 324.638 163.191C324.94 162.083 325.237 160.974 325.53 159.863C326.025 157.993 324.907 155.755 322.942 155.308C321.995 155.065 320.99 155.198 320.14 155.681C319.289 156.163 318.66 156.957 318.384 157.894Z" fill="#3F3D56"/>
<path d="M355.359 156.867L354.025 204.164L352.699 251.215L351.948 277.819C351.957 278.799 352.35 279.736 353.043 280.428C353.736 281.121 354.674 281.514 355.654 281.522C356.631 281.503 357.563 281.107 358.254 280.417C358.945 279.726 359.341 278.795 359.36 277.819L360.694 230.522L362.021 183.471L362.771 156.867C362.763 155.887 362.37 154.95 361.676 154.257C360.983 153.565 360.045 153.172 359.065 153.164C358.088 153.183 357.157 153.579 356.466 154.269C355.775 154.96 355.378 155.89 355.359 156.867Z" fill="#3F3D56"/>
<path opacity="0.2" d="M227.089 264.614H228.24V212.257H255.084V211.11H228.24V189.018H248.971C248.667 188.631 248.354 188.25 248.032 187.874H228.24V173.282C227.859 173.12 227.476 172.964 227.089 172.816V187.874H204.532V169.178C204.145 169.196 203.765 169.222 203.381 169.255V187.874H185.386V173.925C184.999 174.096 184.619 174.276 184.241 174.464V187.874H169.113V189.018H184.241V211.11H169.113V212.257H184.241V264.614H185.386V212.257C187.749 212.256 190.089 212.721 192.273 213.624C194.456 214.528 196.44 215.853 198.112 217.522C199.783 219.192 201.108 221.175 202.012 223.357C202.917 225.539 203.382 227.877 203.381 230.239V264.614H204.532V212.257H227.089V264.614ZM185.386 211.11V189.018H203.381V211.11H185.386ZM204.532 211.11V189.018H204.983C207.887 189.018 210.761 189.589 213.443 190.7C216.125 191.81 218.562 193.437 220.615 195.489C222.668 197.54 224.296 199.976 225.407 202.656C226.518 205.336 227.089 208.209 227.089 211.11H204.532Z" fill="black"/>
<path d="M220.061 248.915C218.613 255.373 215.143 261.201 210.155 265.554C209.789 265.87 209.423 266.177 209.043 266.478C208.119 266.562 207.201 266.647 206.291 266.734C205.535 266.804 204.788 266.878 204.047 266.947L203.914 266.962L203.82 266.152L203.444 262.873C201.988 260.497 201.085 257.823 200.802 255.051C200.52 252.278 200.866 249.477 201.814 246.856C203.118 243.341 205.48 240.235 207.803 237.154C211.009 232.898 214.127 228.692 214.241 223.502C215.819 225.52 217.131 227.732 218.144 230.084C217.188 230.534 216.328 231.166 215.614 231.945C215.412 232.168 215.209 232.479 215.348 232.745C215.466 232.972 215.763 233.027 216.02 233.056C216.637 233.12 217.26 233.185 217.877 233.249C218.372 233.303 218.866 233.353 219.36 233.407C219.958 235.367 220.363 237.382 220.57 239.421C220.903 242.593 220.732 245.797 220.061 248.915Z" fill="#3F3D56"/>
<path d="M236.466 235.974C233.55 238.092 231.846 241.139 230.522 244.496C229.164 244.93 227.944 245.71 226.979 246.758C226.776 246.98 226.574 247.291 226.712 247.558C226.831 247.785 227.127 247.839 227.384 247.869C228.002 247.933 228.624 247.997 229.242 248.061C227.918 252.031 226.702 256.139 224.36 259.491C222.802 261.705 220.772 263.545 218.416 264.878C217.773 265.244 217.11 265.572 216.43 265.861C213.919 266.053 211.457 266.259 209.043 266.478C208.119 266.562 207.201 266.647 206.29 266.734C205.534 266.804 204.788 266.878 204.047 266.947C204.042 266.675 204.042 266.404 204.047 266.132C204.203 258.898 206.867 251.942 211.582 246.452C211.805 246.195 212.032 245.943 212.264 245.691C214.653 243.141 217.463 241.02 220.57 239.421C225.467 236.877 230.955 235.687 236.466 235.974Z" fill="#1165BA"/>
<path d="M207.145 264.202L206.577 265.88L206.291 266.734C205.535 266.804 204.789 266.878 204.047 266.947L203.914 266.962C203.094 267.046 202.278 267.129 201.463 267.213C201.251 266.966 201.038 266.715 200.831 266.458C195.673 260.217 193.198 252.19 193.945 244.131C194.692 236.072 198.601 228.636 204.818 223.448C204.166 226.86 204.927 230.128 206.177 233.372C206.044 233.427 205.915 233.481 205.792 233.54C204.835 233.99 203.976 234.622 203.262 235.402C203.059 235.624 202.857 235.935 202.995 236.201C203.113 236.429 203.41 236.483 203.667 236.512C204.285 236.577 204.907 236.641 205.525 236.705C206.019 236.759 206.513 236.809 207.007 236.863C207.239 236.888 207.472 236.912 207.704 236.937C207.738 237.011 207.768 237.08 207.803 237.154C209.211 240.206 210.728 243.272 211.583 246.451C211.797 247.249 211.965 248.059 212.087 248.876C212.467 251.637 212.22 254.449 211.365 257.102C210.51 259.755 209.067 262.181 207.145 264.202Z" fill="#1165BA"/>
<path d="M256.882 192.589C252.628 184.298 246.038 177.323 238.287 172.196C230.511 167.077 221.589 163.959 212.315 163.121C211.1 163.011 209.881 162.946 208.659 162.927C207.216 162.906 185.502 169.164 178.229 174.275C170.959 179.323 164.978 186.008 160.77 193.791C156.569 201.616 154.503 210.408 154.779 219.284C155.139 228.214 157.63 236.928 162.044 244.7C166.397 252.447 172.579 259.014 180.051 263.831C187.63 268.663 195.242 281.475 204.191 281.927C213.206 282.383 223.488 270.297 231.71 266.627C239.933 262.927 247.041 257.138 252.327 249.838C257.464 242.683 260.787 234.39 262.011 225.67C263.283 216.742 262.69 207.534 259.639 199C258.856 196.807 257.935 194.666 256.882 192.589C256.002 190.859 253.425 190.222 251.811 191.261C250.98 191.772 250.378 192.584 250.13 193.528C249.883 194.472 250.009 195.474 250.482 196.327C250.998 197.344 251.478 198.377 251.922 199.427L251.549 198.542C253.229 202.579 254.371 206.818 254.946 211.152L254.814 210.167C255.426 214.869 255.415 219.63 254.781 224.329L254.914 223.345C254.273 228.043 253.018 232.637 251.181 237.009L251.555 236.124C250.609 238.355 249.508 240.516 248.258 242.591C247.625 243.64 246.952 244.664 246.242 245.663C245.93 246.102 245.608 246.533 245.284 246.962C244.861 247.523 245.86 246.23 245.423 246.78C245.349 246.873 245.275 246.967 245.2 247.061C244.976 247.341 244.748 247.619 244.517 247.894C242.977 249.731 241.295 251.445 239.489 253.021C239.039 253.413 238.581 253.797 238.116 254.172C237.885 254.359 237.656 254.553 237.414 254.727C237.423 254.721 238.195 254.135 237.738 254.475C237.595 254.582 237.452 254.69 237.309 254.797C236.35 255.506 235.366 256.18 234.357 256.817C232.033 258.28 229.594 259.554 227.066 260.625L227.951 260.252C223.589 262.087 219.004 263.341 214.315 263.981L215.3 263.848C210.613 264.481 205.863 264.49 201.174 263.873L202.159 264.006C197.897 263.434 193.729 262.308 189.759 260.656L190.645 261.029C188.345 260.059 186.129 258.905 184.016 257.577C182.97 256.919 181.951 256.22 180.96 255.48C180.819 255.375 180.679 255.268 180.538 255.162C180.085 254.82 180.863 255.413 180.869 255.417C180.606 255.229 180.353 255.027 180.11 254.813C179.632 254.423 179.16 254.024 178.697 253.617C176.841 251.984 175.108 250.216 173.512 248.329C173.112 247.857 172.721 247.378 172.339 246.892C172.173 246.682 171.871 246.255 172.539 247.153C172.451 247.035 172.36 246.919 172.271 246.802C172.058 246.519 171.848 246.235 171.641 245.948C170.915 244.945 170.225 243.917 169.571 242.865C168.094 240.482 166.804 237.988 165.715 235.405L166.088 236.29C164.305 232.05 163.086 227.595 162.461 223.039L162.594 224.023C162.03 219.824 162.022 215.568 162.57 211.366L162.437 212.35C162.999 208.281 164.094 204.304 165.696 200.521L165.322 201.405C166.33 199.037 167.518 196.75 168.877 194.564C169.558 193.47 170.279 192.403 171.04 191.362C171.213 191.126 171.388 190.891 171.565 190.657C171.725 190.446 172.166 189.92 171.414 190.849C171.488 190.758 171.559 190.664 171.632 190.572C172.05 190.043 172.478 189.522 172.916 189.01C174.575 187.069 176.372 185.25 178.294 183.568C178.779 183.143 179.272 182.727 179.773 182.319C180.001 182.134 180.23 181.951 180.461 181.77C180.553 181.697 180.646 181.626 180.738 181.553C179.751 182.338 180.464 181.767 180.688 181.599C181.72 180.826 182.78 180.092 183.868 179.396C186.285 177.852 188.828 176.512 191.47 175.393L190.585 175.767C194.419 174.158 211.407 170.36 214.497 170.775L213.512 170.643C218.053 171.276 222.492 172.502 226.714 174.288L225.829 173.914C227.969 174.822 230.049 175.866 232.055 177.039C233.058 177.627 234.041 178.246 235.004 178.897C235.459 179.205 235.91 179.521 236.357 179.843C236.58 180.004 236.801 180.166 237.022 180.331C237.144 180.422 237.266 180.515 237.388 180.606C237.902 180.991 236.681 180.049 237.219 180.475C239.021 181.889 240.732 183.415 242.342 185.043C243.133 185.848 243.897 186.679 244.633 187.534C245.011 187.974 245.381 188.419 245.743 188.871C245.923 189.096 246.536 189.909 245.785 188.913C245.968 189.156 246.154 189.398 246.335 189.643C247.897 191.755 249.284 193.991 250.482 196.327C251.368 198.054 253.934 198.698 255.552 197.656C256.384 197.145 256.986 196.333 257.234 195.389C257.481 194.445 257.355 193.443 256.882 192.589Z" fill="#3F3D56"/>
<path d="M213.701 253.021C213.319 253.039 212.94 252.938 212.617 252.734C212.293 252.529 212.04 252.23 211.893 251.877C211.745 251.524 211.709 251.134 211.791 250.76C211.872 250.386 212.067 250.046 212.348 249.786C212.395 249.599 212.429 249.465 212.476 249.278C212.459 249.237 212.442 249.197 212.425 249.156C210.706 245.059 199.734 256.48 199.259 260.33C199.051 262.032 199.139 263.758 199.52 265.429C195.966 257.683 194.12 249.263 194.109 240.741C194.108 238.602 194.227 236.466 194.465 234.34C194.661 232.598 194.934 230.868 195.283 229.151C197.188 219.832 201.278 211.098 207.217 203.666C210.613 203.855 213.59 203.338 213.877 196.76C213.928 195.59 214.797 194.577 214.988 193.425C214.664 193.467 214.334 193.494 214.01 193.515C213.909 193.52 213.803 193.526 213.702 193.531L213.664 193.533C213.307 193.549 212.954 193.461 212.646 193.281C212.338 193.101 212.089 192.836 211.929 192.518C211.768 192.2 211.703 191.842 211.741 191.487C211.779 191.133 211.919 190.797 212.144 190.52C212.284 190.348 212.424 190.176 212.564 190.004C212.777 189.738 212.995 189.478 213.208 189.213C213.232 189.187 213.255 189.161 213.277 189.133C213.521 188.83 213.766 188.533 214.01 188.23C213.564 187.538 212.964 186.958 212.256 186.536C209.806 185.101 206.425 186.095 204.655 188.31C202.879 190.525 202.545 193.632 203.161 196.399C203.767 198.754 204.77 200.988 206.127 203.007C205.994 203.177 205.856 203.342 205.723 203.512C203.294 206.633 201.177 209.985 199.402 213.519C199.904 209.599 193.763 195.444 191.388 192.446C188.536 188.844 182.687 190.416 182.184 194.981C182.179 195.025 182.174 195.07 182.17 195.114C182.522 195.313 182.868 195.524 183.206 195.747C183.63 196.03 183.959 196.435 184.149 196.908C184.339 197.382 184.382 197.901 184.272 198.399C184.161 198.897 183.903 199.35 183.53 199.699C183.158 200.048 182.689 200.276 182.184 200.354L182.133 200.362C177.411 207.098 192.547 224.631 196.336 220.695C194.553 225.745 193.434 231.005 193.008 236.343C192.767 239.492 192.782 242.656 193.051 245.803L193.035 245.691C192.193 238.837 177.751 228.646 173.534 229.495C171.105 229.984 168.712 229.873 169.081 232.322C169.087 232.361 169.093 232.4 169.099 232.439C169.753 232.705 170.391 233.012 171.007 233.358C171.36 233.557 171.705 233.768 172.043 233.991C172.467 234.274 172.796 234.679 172.986 235.152C173.177 235.626 173.219 236.145 173.109 236.643C172.998 237.141 172.74 237.594 172.368 237.943C171.995 238.292 171.526 238.52 171.021 238.598L170.97 238.606C170.933 238.611 170.901 238.616 170.863 238.622C168.714 246.011 184.653 257.937 194.342 254.142H194.348C195.308 258.312 196.699 262.37 198.499 266.253H213.33C213.383 266.088 213.431 265.918 213.479 265.753C212.106 265.84 210.728 265.758 209.375 265.509C210.475 264.16 211.576 262.8 212.676 261.451C212.701 261.426 212.724 261.399 212.745 261.371C213.303 260.681 213.867 259.996 214.425 259.305L214.425 259.304C214.455 257.188 214.212 255.076 213.702 253.021L213.701 253.021ZM196.719 219.638L196.726 219.627L196.719 219.648V219.638ZM193.434 249.229L193.306 248.942C193.311 248.735 193.311 248.528 193.306 248.315C193.306 248.257 193.295 248.198 193.295 248.14C193.343 248.506 193.386 248.873 193.439 249.239L193.434 249.229Z" fill="#3F3D56"/>
<path d="M47.0636 222.184C50.0654 222.184 52.4989 219.752 52.4989 216.753C52.4989 213.753 50.0654 211.322 47.0636 211.322C44.0618 211.322 41.6284 213.753 41.6284 216.753C41.6284 219.752 44.0618 222.184 47.0636 222.184Z" fill="#3F3D56"/>
<path d="M112.286 281.433C115.288 281.433 117.721 279.002 117.721 276.002C117.721 273.002 115.288 270.571 112.286 270.571C109.284 270.571 106.851 273.002 106.851 276.002C106.851 279.002 109.284 281.433 112.286 281.433Z" fill="#3F3D56"/>
<path d="M359.836 281.433C362.837 281.433 365.271 279.002 365.271 276.002C365.271 273.002 362.837 270.571 359.836 270.571C356.834 270.571 354.4 273.002 354.4 276.002C354.4 279.002 356.834 281.433 359.836 281.433Z" fill="#3F3D56"/>
<path d="M373.176 212.309C376.178 212.309 378.612 209.878 378.612 206.878C378.612 203.879 376.178 201.447 373.176 201.447C370.175 201.447 367.741 203.879 367.741 206.878C367.741 209.878 370.175 212.309 373.176 212.309Z" fill="#3F3D56"/>
<path d="M357.365 161.948C360.367 161.948 362.8 159.516 362.8 156.516C362.8 153.517 360.367 151.085 357.365 151.085C354.363 151.085 351.93 153.517 351.93 156.516C351.93 159.516 354.363 161.948 357.365 161.948Z" fill="#3F3D56"/>
<path d="M130.568 206.878C130.565 208.265 130.028 209.598 129.069 210.601C128.109 211.604 126.801 212.2 125.414 212.265C124.027 212.331 122.668 211.861 121.618 210.953C120.568 210.046 119.908 208.769 119.773 207.388C119.639 206.008 120.041 204.628 120.896 203.535C121.752 202.442 122.995 201.72 124.368 201.517C125.742 201.315 127.14 201.648 128.275 202.447C129.41 203.246 130.194 204.451 130.464 205.812C130.534 206.163 130.569 206.52 130.568 206.878Z" fill="#3F3D56"/>
<path d="M239.273 177.747C242.274 177.747 244.708 175.316 244.708 172.316C244.708 169.317 242.274 166.885 239.273 166.885C236.271 166.885 233.837 169.317 233.837 172.316C233.837 175.316 236.271 177.747 239.273 177.747Z" fill="#3F3D56"/>
<path d="M185.414 172.316C185.411 173.703 184.874 175.036 183.915 176.039C182.955 177.042 181.647 177.638 180.26 177.703C178.873 177.769 177.514 177.299 176.464 176.391C175.414 175.484 174.754 174.207 174.62 172.827C174.485 171.446 174.887 170.066 175.743 168.973C176.598 167.88 177.841 167.158 179.214 166.955C180.588 166.753 181.987 167.086 183.121 167.885C184.256 168.684 185.04 169.889 185.311 171.25C185.38 171.601 185.415 171.958 185.414 172.316Z" fill="#3F3D56"/>
<path d="M115.251 156.516C115.247 157.904 114.711 159.237 113.751 160.239C112.792 161.242 111.483 161.838 110.096 161.904C108.71 161.969 107.351 161.499 106.301 160.592C105.251 159.684 104.59 158.408 104.456 157.027C104.322 155.646 104.724 154.266 105.579 153.174C106.434 152.081 107.677 151.358 109.051 151.156C110.424 150.953 111.823 151.286 112.958 152.085C114.093 152.885 114.876 154.089 115.147 155.45C115.217 155.801 115.251 156.158 115.251 156.516Z" fill="#3F3D56"/>
<path d="M296.095 224.159C299.097 224.159 301.531 221.727 301.531 218.728C301.531 215.728 299.097 213.297 296.095 213.297C293.094 213.297 290.66 215.728 290.66 218.728C290.66 221.727 293.094 224.159 296.095 224.159Z" fill="#3F3D56"/>
<path d="M210.614 174.785C214.981 174.785 218.52 171.248 218.52 166.885C218.52 162.522 214.981 158.985 210.614 158.985C206.248 158.985 202.708 162.522 202.708 166.885C202.708 171.248 206.248 174.785 210.614 174.785Z" fill="#3F3D56"/>
<path d="M424.412 281.848L0.588324 282C0.511064 282 0.434558 281.985 0.363179 281.955C0.2918 281.926 0.226947 281.882 0.172316 281.828C0.117685 281.773 0.0743435 281.708 0.0447773 281.637C0.015211 281.566 0 281.489 0 281.412C0 281.335 0.015211 281.258 0.0447773 281.187C0.0743435 281.116 0.117685 281.051 0.172316 280.996C0.226947 280.942 0.2918 280.899 0.363179 280.869C0.434558 280.839 0.511064 280.824 0.588324 280.824L424.412 280.672C424.567 280.673 424.717 280.735 424.827 280.845C424.937 280.955 424.998 281.105 424.998 281.26C424.998 281.416 424.937 281.565 424.827 281.675C424.717 281.786 424.567 281.848 424.412 281.848Z" fill="#CACACA"/>
</g>
<defs>
<clipPath id="clip0_3342_13435">
<rect width="425" height="282" fill="white"/>
</clipPath>
</defs>
</svg>
