<svg width="27" height="27" viewBox="0 0 27 27" fill="none" xmlns="http://www.w3.org/2000/svg">
<path d="M20.25 9H22.5C22.7984 9 23.0845 9.11853 23.2955 9.3295C23.5065 9.54048 23.625 9.82663 23.625 10.125V23.625C23.625 23.9234 23.5065 24.2095 23.2955 24.4205C23.0845 24.6315 22.7984 24.75 22.5 24.75H4.5C4.20163 24.75 3.91548 24.6315 3.7045 24.4205C3.49353 24.2095 3.375 23.9234 3.375 23.625V10.125C3.375 9.82663 3.49353 9.54048 3.7045 9.3295C3.91548 9.11853 4.20163 9 4.5 9H6.75V7.875C6.75 6.08479 7.46116 4.3679 8.72703 3.10203C9.9929 1.83616 11.7098 1.125 13.5 1.125C15.2902 1.125 17.0071 1.83616 18.273 3.10203C19.5388 4.3679 20.25 6.08479 20.25 7.875V9ZM18 9V7.875C18 6.68153 17.5259 5.53693 16.682 4.69302C15.8381 3.84911 14.6935 3.375 13.5 3.375C12.3065 3.375 11.1619 3.84911 10.318 4.69302C9.47411 5.53693 9 6.68153 9 7.875V9H18ZM12.375 15.75V18H14.625V15.75H12.375ZM7.875 15.75V18H10.125V15.75H7.875ZM16.875 15.75V18H19.125V15.75H16.875Z" fill="#E6E6E6"/>
</svg>
