<svg width="28" height="29" viewBox="0 0 28 29" fill="none" xmlns="http://www.w3.org/2000/svg">
<path fill-rule="evenodd" clip-rule="evenodd" d="M4.99984 12.406V9.66602C4.99984 7.27907 5.94805 4.98988 7.63588 3.30205C9.3237 1.61423 11.6129 0.666016 13.9998 0.666016C16.3868 0.666016 18.676 1.61423 20.3638 3.30205C22.0516 4.98988 22.9998 7.27907 22.9998 9.66602V12.406C24.4865 12.5167 25.4532 12.7967 26.1612 13.5047C27.3332 14.6753 27.3332 16.562 27.3332 20.3327C27.3332 24.1033 27.3332 25.99 26.1612 27.1607C24.9905 28.3327 23.1038 28.3327 19.3332 28.3327H8.6665C4.89584 28.3327 3.00917 28.3327 1.8385 27.1607C0.666504 25.99 0.666504 24.1033 0.666504 20.3327C0.666504 16.562 0.666504 14.6753 1.8385 13.5047C2.54517 12.7967 3.51317 12.5167 4.99984 12.406ZM6.99984 9.66602C6.99984 7.8095 7.73733 6.02902 9.05009 4.71627C10.3628 3.40351 12.1433 2.66602 13.9998 2.66602C15.8564 2.66602 17.6368 3.40351 18.9496 4.71627C20.2623 6.02902 20.9998 7.8095 20.9998 9.66602V12.338C20.4892 12.3327 19.9345 12.3327 19.3332 12.3327H8.6665C8.06384 12.3327 7.5105 12.3327 6.99984 12.338V9.66602ZM8.6665 21.666C9.02013 21.666 9.35926 21.5255 9.60931 21.2755C9.85936 21.0254 9.99984 20.6863 9.99984 20.3327C9.99984 19.9791 9.85936 19.6399 9.60931 19.3899C9.35926 19.1398 9.02013 18.9993 8.6665 18.9993C8.31288 18.9993 7.97374 19.1398 7.72369 19.3899C7.47365 19.6399 7.33317 19.9791 7.33317 20.3327C7.33317 20.6863 7.47365 21.0254 7.72369 21.2755C7.97374 21.5255 8.31288 21.666 8.6665 21.666ZM13.9998 21.666C14.3535 21.666 14.6926 21.5255 14.9426 21.2755C15.1927 21.0254 15.3332 20.6863 15.3332 20.3327C15.3332 19.9791 15.1927 19.6399 14.9426 19.3899C14.6926 19.1398 14.3535 18.9993 13.9998 18.9993C13.6462 18.9993 13.3071 19.1398 13.057 19.3899C12.807 19.6399 12.6665 19.9791 12.6665 20.3327C12.6665 20.6863 12.807 21.0254 13.057 21.2755C13.3071 21.5255 13.6462 21.666 13.9998 21.666ZM20.6665 20.3327C20.6665 20.6863 20.526 21.0254 20.276 21.2755C20.0259 21.5255 19.6868 21.666 19.3332 21.666C18.9795 21.666 18.6404 21.5255 18.3904 21.2755C18.1403 21.0254 17.9998 20.6863 17.9998 20.3327C17.9998 19.9791 18.1403 19.6399 18.3904 19.3899C18.6404 19.1398 18.9795 18.9993 19.3332 18.9993C19.6868 18.9993 20.0259 19.1398 20.276 19.3899C20.526 19.6399 20.6665 19.9791 20.6665 20.3327Z" fill="#FDFDFD"/>
</svg>
