<svg width="201" height="201" viewBox="0 0 201 201" fill="none" xmlns="http://www.w3.org/2000/svg">
<g opacity="0.6">
<mask id="mask0_1862_15758" style="mask-type:alpha" maskUnits="userSpaceOnUse" x="0" y="0" width="201" height="201">
<rect x="0.5" y="0.0683594" width="200" height="200" fill="#D9D9D9"/>
</mask>
<g mask="url(#mask0_1862_15758)">
<path d="M100.5 139.492C109.207 139.492 116.566 136.487 122.575 130.478C128.585 124.468 131.59 117.11 131.59 108.402C131.59 99.6951 128.585 92.3367 122.575 86.3269C116.566 80.3173 109.207 77.3125 100.5 77.3125C91.7928 77.3125 84.4343 80.3173 78.4246 86.3269C72.415 92.3367 69.4102 99.6951 69.4102 108.402C69.4102 117.11 72.415 124.468 78.4246 130.478C84.4343 136.487 91.7928 139.492 100.5 139.492ZM100.5 131.159C94.0257 131.159 88.6144 128.985 84.266 124.636C79.9177 120.288 77.7435 114.877 77.7435 108.402C77.7435 101.928 79.9177 96.5167 84.266 92.1684C88.6144 87.8201 94.0257 85.6459 100.5 85.6459C106.974 85.6459 112.386 87.8201 116.734 92.1684C121.082 96.5167 123.256 101.928 123.256 108.402C123.256 114.877 121.082 120.288 116.734 124.636C112.386 128.985 106.974 131.159 100.5 131.159ZM38.9615 166.736C35.126 166.736 31.9236 165.451 29.3542 162.882C26.7847 160.312 25.5 157.11 25.5 153.274V63.5305C25.5 59.695 26.7847 56.4926 29.3542 53.9232C31.9236 51.3537 35.126 50.069 38.9615 50.069H63.609L79.0256 33.4023H121.974L137.391 50.069H162.039C165.874 50.069 169.076 51.3537 171.646 53.9232C174.215 56.4926 175.5 59.695 175.5 63.5305V153.274C175.5 157.11 174.215 160.312 171.646 162.882C169.076 165.451 165.874 166.736 162.039 166.736H38.9615ZM38.9615 158.402H162.039C163.534 158.402 164.763 157.922 165.724 156.96C166.686 155.999 167.167 154.77 167.167 153.274V63.5305C167.167 62.0348 166.686 60.8062 165.724 59.8446C164.763 58.8831 163.534 58.4023 162.039 58.4023H133.737L118.369 41.7357H82.6315L67.2629 58.4023H38.9615C37.4658 58.4023 36.2372 58.8831 35.2756 59.8446C34.3141 60.8062 33.8333 62.0348 33.8333 63.5305V153.274C33.8333 154.77 34.3141 155.999 35.2756 156.96C36.2372 157.922 37.4658 158.402 38.9615 158.402Z" fill="#046AD0"/>
</g>
</g>
</svg>
