<svg width="133" height="114" viewBox="0 0 133 114" fill="none" xmlns="http://www.w3.org/2000/svg">
<path d="M103.821 111.611C103.227 112.206 102.522 112.678 101.746 113C100.97 113.322 100.138 113.488 99.2972 113.488C98.4569 113.488 97.6247 113.322 96.8485 113C96.0722 112.678 95.3671 112.206 94.7735 111.611L81.1702 98.0078C80.5761 97.4138 80.1049 96.7085 79.7834 95.9323C79.4618 95.1561 79.2964 94.3242 79.2964 93.4841C79.2964 92.6439 79.4618 91.812 79.7834 91.0358C80.1049 90.2596 80.5761 89.5544 81.1702 88.9603C82.3699 87.7606 83.9972 87.0865 85.6939 87.0865C86.5341 87.0865 87.366 87.252 88.1422 87.5735C88.9183 87.895 89.6236 88.3663 90.2177 88.9603L99.2652 98.0078L121.98 75.2928C122.574 74.6988 123.279 74.2275 124.056 73.906C124.832 73.5845 125.664 73.419 126.504 73.419C127.344 73.419 128.176 73.5845 128.952 73.906C129.728 74.2275 130.434 74.6988 131.028 75.2928C131.622 75.8869 132.093 76.5922 132.414 77.3683C132.736 78.1445 132.901 78.9764 132.901 79.8166C132.901 80.6567 132.736 81.4886 132.414 82.2648C132.093 83.041 131.622 83.7463 131.028 84.3403L103.821 111.611ZM65.5135 103.334H13.6668C6.6085 103.334 0.833496 97.5587 0.833496 90.5003V13.5003C0.833496 6.44199 6.6085 0.666992 13.6668 0.666992H116.334C123.392 0.666992 129.167 6.44199 129.167 13.5003V56.3637C122.324 53.1081 114.767 51.6383 107.203 52.0911C99.6382 52.5439 92.3113 54.9046 85.9053 58.9533C79.4992 63.0019 74.2225 68.6066 70.5671 75.2448C66.9117 81.8831 64.9965 89.3388 65.0002 96.917C65.0002 99.0987 65.1927 101.216 65.5135 103.334ZM61.5993 56.2995C63.6527 57.5828 66.3477 57.5828 68.401 56.2995L113.767 27.9378C114.41 27.5766 114.974 27.0887 115.423 26.5034C115.872 25.9182 116.198 25.2478 116.381 24.533C116.564 23.8181 116.6 23.0736 116.486 22.3445C116.373 21.6153 116.113 20.9168 115.722 20.2911C115.331 19.6654 114.817 19.1255 114.211 18.7042C113.606 18.2829 112.921 17.9889 112.198 17.8399C111.475 17.691 110.73 17.6902 110.007 17.8377C109.284 17.9851 108.598 18.2777 107.992 18.6978L65.0002 45.5837L22.0085 18.6978C21.4019 18.2777 20.7164 17.9851 19.9934 17.8377C19.2704 17.6902 18.525 17.691 17.8023 17.8399C17.0797 17.9889 16.3947 18.2829 15.789 18.7042C15.1832 19.1255 14.6693 19.6654 14.2782 20.2911C13.8872 20.9168 13.6271 21.6153 13.5138 22.3445C13.4006 23.0736 13.4364 23.8181 13.6192 24.533C13.802 25.2478 14.1279 25.9182 14.5773 26.5034C15.0266 27.0887 15.5901 27.5766 16.2335 27.9378L61.5993 56.2995Z" fill="#1165BA"/>
</svg>
