<svg width="320" height="240" viewBox="0 0 320 240" fill="none" xmlns="http://www.w3.org/2000/svg">
<g clip-path="url(#clip0_492_1724)">
<path d="M240.684 9.27235C238.266 10.8025 234.365 4.75013 233.48 7.71061C232.596 10.6711 234.738 22.6165 235.843 25.4814C236.392 26.9054 237.168 28.2078 237.707 29.6368C238.246 31.0658 238.535 32.7089 238.059 34.1658C237.23 36.7013 234.494 37.7327 233.138 39.9612C231.558 42.5566 232.196 46.0525 232.934 49.0874C233.571 51.7033 234.249 54.3429 235.475 56.6779C236.7 59.0129 238.547 61.046 240.856 61.8185C243.795 62.8022 246.936 61.6332 249.77 60.3135C252.494 59.0447 255.189 57.6063 257.506 55.5535C259.823 53.5007 261.756 50.776 262.566 47.5836C263.582 43.5791 262.733 39.1966 260.974 35.5333C259.215 31.8699 256.613 28.8179 253.943 25.9366C249.446 21.0837 244.661 16.5702 239.63 12.4364L240.684 9.27235Z" fill="#2F2E41"/>
<path d="M276.639 214.748L274.356 238.742L274.252 239.839L248.43 239.726L248.293 238.625L245.56 216.639L276.639 214.748Z" fill="#FFB6B6"/>
<path d="M237.157 238.577C237.157 238.939 237.153 239.305 237.15 239.675L210.344 239.557L210.256 238.457L208.604 217.586L236.322 213.801C236.322 213.801 237.215 224.871 237.157 238.577Z" fill="#FFB6B6"/>
<path d="M234.173 51.776C238.431 57.8174 245.938 59.5681 251.997 55.9721C260.645 50.839 272.453 44.956 274.54 49.6568C277.899 57.2255 277.899 64.5706 277.899 64.5706L281.259 152.779C281.259 152.779 282.939 188.395 261.94 185.252C240.941 182.108 208.182 195.353 208.182 195.353L211.528 156.276L220.463 141.542L224.082 99.2729L217.841 65.2672L225.401 61.4828C225.401 61.4828 226.241 54.8603 228.761 54.8603C231.281 54.8603 231.889 48.4985 234.105 51.6794C234.127 51.7112 234.15 51.7434 234.173 51.776Z" fill="#1165BA"/>
<path d="M279.73 239.865L274.253 239.839L248.43 239.726L245.069 239.711L244.875 238.61L239.68 209.072L238.868 238.585L238.839 239.682L237.15 239.674L210.344 239.557L208.422 239.546L208.415 238.449L208.302 217.59L208.198 198.273L208.182 195.351L208.185 195.348L216.211 177.022L218.552 171.676L219.033 170.579L223.721 159.874L266.145 153.259L266.794 153.156L278.321 151.361L278.405 156.682L278.454 159.703L278.626 170.579L278.646 171.676L278.665 172.93L279.711 238.764L279.73 239.865Z" fill="#2F2E41"/>
<path d="M246.724 48.9701C256.412 48.9701 264.266 40.1241 264.266 29.212C264.266 18.3 256.412 9.45398 246.724 9.45398C237.036 9.45398 229.182 18.3 229.182 29.212C229.182 40.1241 237.036 48.9701 246.724 48.9701Z" fill="#FFB6B6"/>
<path d="M266.498 60.1559C262.404 66.7342 260.31 74.8621 260.642 82.8871C256 80.3543 252.867 75.0031 251.801 69.3188C250.734 63.6345 251.548 57.666 253.261 52.1862C253.279 52.1314 253.296 52.0766 253.313 52.0219C255.915 43.7968 253.497 34.604 247.213 29.491C242.974 26.0421 239.298 21.7153 236.476 16.7557C234.884 13.9557 233.53 10.4433 234.72 7.39994C235.816 4.59557 238.649 3.28484 241.256 2.40783C247.208 0.405213 253.533 -0.7343 259.642 0.532894C265.752 1.80009 271.633 5.7574 274.521 11.9527C277.408 18.1481 276.652 26.6032 271.965 31.1959C273.443 31.7342 274.489 33.499 274.364 35.243C274.238 36.9871 272.954 38.539 271.418 38.802C272.42 38.762 273.011 40.2485 272.654 41.3037C272.297 42.3589 271.375 43.0143 270.496 43.5574C269.244 44.3311 267.856 45.1401 267.85 47.1661C267.848 47.9784 268.105 48.7668 268.525 49.427C269.544 51.027 271.188 51.7475 272.77 52.424C269.423 53.5344 266.754 56.9042 266.155 60.7761L266.498 60.1559Z" fill="#2F2E41"/>
<path d="M191.696 52.5123C191.217 46.8555 193.421 41.9919 196.617 41.6493C199.814 41.3068 202.792 45.6146 203.27 51.2735C203.489 53.5311 203.224 55.8148 202.498 57.9335L204.258 81.9308L194.242 82.6208L193.571 58.8905C192.503 56.9636 191.86 54.7765 191.696 52.5123Z" fill="#FFB6B6"/>
<path d="M246.264 63.8964C246.264 63.8964 229.901 53.055 226.532 54.6812C223.163 56.3074 206.8 83.9528 206.8 83.9528L205.296 78.9077L193.806 80.1583C193.806 80.1583 187.068 115.393 201.987 112.14C216.907 108.888 241.451 78.5321 241.451 78.5321L246.264 63.8964Z" fill="#1165BA"/>
<path d="M94.4502 122.147C94.4502 122.147 103.689 116.047 106.177 121.703C108.665 127.36 131.652 194.845 131.652 194.845L116.839 198.094L94.4502 122.147Z" fill="#1165BA"/>
<path d="M74.2993 81.8334L74.7348 82.5318C73.1111 83.5875 72.8717 86.251 73.6331 88.1837C74.3945 90.1164 75.8681 91.5489 77.1429 93.1016C78.4176 94.6542 79.5798 96.5772 79.4615 98.6885C79.3289 101.063 77.6101 103.018 77.3707 105.383C77.0246 108.826 79.8711 111.847 79.7297 115.31C79.623 117.954 77.8177 120.078 76.0268 121.793C74.6252 123.138 73.0996 124.489 72.1536 126.224C71.8941 126.701 71.6778 127.211 71.5192 127.757C70.8126 130.219 71.4788 132.902 72.3757 135.283C73.2697 137.664 74.4089 139.99 74.6886 142.556C74.9655 145.122 74.1061 148.084 72.0094 149.137C76.1854 148.734 80.2604 147.094 83.7182 144.427C84.0297 144.187 84.3325 143.94 84.6324 143.686C89.5351 139.529 92.9786 133.523 96.2922 127.669C96.5662 127.189 96.8373 126.705 97.1113 126.224C97.8467 124.921 98.585 123.622 99.3232 122.319C101.429 118.597 103.56 114.819 104.708 110.603C105.763 106.715 105.942 102.606 106.374 98.5683C106.585 96.5902 106.862 94.6185 106.914 92.6273C106.997 89.5642 106.533 86.4881 105.587 83.6134C104.661 80.7874 103.271 78.1531 101.48 75.9118C99.6462 73.6153 97.4025 71.7476 94.9339 70.4028C92.5431 69.1003 89.9418 68.2915 87.2914 68.0673C86.4032 67.9926 85.5178 67.9796 84.6324 68.0251C81.14 68.1875 77.6879 69.1815 74.331 70.4028C71.8623 71.7476 69.6187 73.6153 67.7845 75.9118C65.9935 78.1531 64.6035 80.7874 63.6777 83.6134C66.8962 81.6774 70.7203 81.0116 74.2993 81.8334Z" fill="#2F2E41"/>
<path d="M99.3279 117.369L82.7688 110.055L82.3495 117.369L67.8331 119.929L61.0146 154.67L67.1837 176.247L113.29 177.71L111.666 170.396C111.666 170.396 119.134 160.887 114.588 145.528L114.083 141.619C112.764 131.398 107.315 122.443 99.3279 117.369Z" fill="#1165BA"/>
<path d="M90.1114 109.726C98.2345 109.726 104.82 102.309 104.82 93.16C104.82 84.0109 98.2345 76.594 90.1114 76.594C81.9884 76.594 75.4033 84.0109 75.4033 93.16C75.4033 102.309 81.9884 109.726 90.1114 109.726Z" fill="#A0616A"/>
<path d="M62.3514 92.6273C62.4033 94.6185 62.6802 96.5902 62.8907 98.5683C63.3233 102.606 63.5021 106.715 64.5576 110.603C65.7054 114.819 67.8367 118.597 69.9419 122.319C70.6802 123.622 71.4185 124.921 72.1539 126.224C72.4279 126.705 72.699 127.189 72.973 127.669C76.2866 133.523 79.73 139.529 84.6327 143.686C84.9327 143.94 85.2355 144.187 85.5469 144.427C89.0048 147.094 93.0798 148.734 97.2558 149.137C95.1591 148.084 94.2997 145.122 94.5766 142.556C94.8563 139.99 95.9955 137.664 96.8895 135.283C97.7864 132.902 98.4526 130.219 97.746 127.757C97.5874 127.211 97.3711 126.701 97.1116 126.224C96.1656 124.489 94.64 123.138 93.2384 121.793C91.4475 120.078 89.6421 117.954 89.5354 115.31C89.3941 111.847 87.4302 113.007 87.0841 109.564C86.8447 107.199 84.0444 103.168 83.9118 100.793C83.7935 98.682 84.9442 93.5758 86.2189 92.0231C87.4936 90.4705 86.3227 85.8352 87.0841 83.9025C87.8454 81.9698 96.1541 83.5874 94.5304 82.5318L94.9659 81.8334C98.5449 81.0116 102.369 81.6774 105.587 83.6134C106.288 84.0324 106.957 84.5099 107.592 85.0492C109.123 81.8983 107.306 77.8998 104.835 75.6293C102.415 73.4009 99.4331 72.1146 96.4742 70.981C95.9637 70.7861 95.4504 70.5912 94.9342 70.4028C91.5773 69.1815 88.1252 68.1875 84.6327 68.0251C83.7474 67.9796 82.862 67.9926 81.9737 68.0673C79.3234 68.2915 76.7221 69.1003 74.3313 70.4028C71.8626 71.7476 69.6189 73.6153 67.7847 75.9118C65.9938 78.1531 64.6038 80.7874 63.678 83.6134C62.7321 86.4881 62.2678 89.5642 62.3514 92.6273Z" fill="#2F2E41"/>
<path d="M319.092 225.057L298.591 176.54C297.062 172.919 293.772 170.579 290.211 170.579H31.2651C30.2812 170.579 29.3234 170.75 28.4207 171.08C26.1382 171.902 24.1966 173.702 23.0472 176.174L1.0722 223.357C-0.447318 226.615 -0.346645 230.448 1.34172 233.6C3.02683 236.756 5.98478 238.651 9.25442 238.665L208.422 239.547L210.344 239.558L237.15 239.675L238.838 239.682L245.069 239.711L248.43 239.726L274.252 239.839L279.73 239.865L310.676 240H310.715C313.91 240 316.835 238.186 318.549 235.147C320.27 232.094 320.472 228.319 319.092 225.057Z" fill="white"/>
<path d="M319.092 225.057L298.591 176.54C297.062 172.919 293.772 170.579 290.211 170.579H31.2651C30.2812 170.579 29.3234 170.75 28.4207 171.08C26.1382 171.902 24.1966 173.702 23.0472 176.174L1.0722 223.357C-0.447318 226.615 -0.346645 230.448 1.34172 233.6C3.02683 236.756 5.98478 238.651 9.25442 238.665L208.422 239.547L210.344 239.558L237.15 239.675L238.838 239.682L245.069 239.711L248.43 239.726L274.252 239.839L279.73 239.865L310.676 240H310.715C313.91 240 316.835 238.186 318.549 235.147C320.27 232.094 320.472 228.319 319.092 225.057ZM317.728 234.558C316.192 237.283 313.575 238.903 310.715 238.903H310.679L279.71 238.764L274.356 238.742L248.293 238.625L244.874 238.61L238.868 238.585L237.157 238.577L210.256 238.457L208.415 238.449L9.25758 237.568C6.33221 237.553 3.68271 235.86 2.17619 233.037C0.666338 230.214 0.575497 226.784 1.93592 223.865L23.9108 176.686C24.703 174.985 25.9109 173.64 27.3558 172.773C28.5344 172.063 29.8721 171.676 31.2651 171.676H290.211C293.399 171.676 296.341 173.771 297.711 177.011L318.212 225.526C319.449 228.451 319.267 231.827 317.728 234.558Z" fill="#3F3D56"/>
<path d="M92.0225 205.686L141.051 185.572L116.537 174.467L67.6709 188.864L92.0225 205.686Z" fill="#F2F2F2"/>
<path d="M166.701 175.333L161.182 195.081L225.795 199.469L220.275 177.161L166.701 175.333Z" fill="#F2F2F2"/>
<path d="M90.5384 178.711C95.0812 179.218 98.5312 182.27 98.244 185.526C97.9569 188.782 94.0417 191.01 89.4973 190.501C87.6795 190.326 85.9253 189.664 84.3815 188.568L65.1572 186.145L66.3593 176.008L85.1835 179.474C86.8887 178.741 88.7249 178.48 90.5384 178.711Z" fill="#A0616A"/>
<path d="M71.2424 121.94L67.8332 119.929C67.8332 119.929 62.4758 120.111 58.9043 124.134C55.3327 128.157 26.4354 174.236 26.4354 174.236C26.4354 174.236 19.2923 186.669 37.1501 188.498C55.008 190.326 74.814 190.326 74.814 190.326L76.4374 175.333L49.4883 172.041L68.3599 143.882L71.2424 121.94Z" fill="#1165BA"/>
<path d="M172.555 117.069C169.279 118.162 165.817 118.78 162.243 118.839C162.032 118.846 161.82 118.85 161.609 118.85C158.376 118.85 155.236 118.4 152.232 117.552L152.31 116.685L154.057 97.7085L154.168 96.4943L152.547 91.0198H172.425L172.107 96.3701L171.99 98.3192L172.162 98.9373L176.545 114.67L176.74 115.372C175.383 116.027 173.987 116.593 172.555 117.069Z" fill="#1165BA"/>
<path d="M152.233 117.552C147.515 116.224 143.138 113.913 139.284 110.83C137.696 109.861 136.154 108.811 134.677 107.699L135.407 107.286L153.762 96.9478L154.057 97.7084L161.96 118.115L162.243 118.839C162.032 118.846 161.821 118.85 161.61 118.85C158.376 118.85 155.236 118.4 152.233 117.552Z" fill="#2F2E41"/>
<path d="M192.221 101.856C192.14 101.98 192.055 102.101 191.971 102.221C190.601 104.181 189.081 106.003 187.438 107.667L187.425 106.69L187.38 103.095C187.38 103.095 188.692 102.017 190.312 101.735C190.698 101.665 191.104 101.644 191.513 101.695C191.75 101.72 191.984 101.772 192.221 101.856Z" fill="#2F2E41"/>
<path d="M187.438 107.667C184.295 110.859 180.685 113.478 176.74 115.372C175.383 116.027 173.986 116.593 172.555 117.069L172.538 116.312L172.162 98.9372L172.106 96.37L190.312 101.735L191.279 102.02L191.971 102.221C190.601 104.181 189.081 106.003 187.438 107.667Z" fill="#2F2E41"/>
<path d="M162.674 85.0872C170.727 85.0872 177.255 77.7341 177.255 68.6635C177.255 59.5929 170.727 52.2397 162.674 52.2397C154.62 52.2397 148.092 59.5929 148.092 68.6635C148.092 77.7341 154.62 85.0872 162.674 85.0872Z" fill="#A0616A"/>
<path d="M172.54 116.312C169.183 117.453 165.634 118.078 161.961 118.115L162.244 118.839C165.819 118.78 169.28 118.162 172.556 117.069L172.54 116.312ZM135.409 107.286C127.924 99.4968 123.174 88.4233 122.983 76.1211C115.343 86.0829 122.934 98.8678 134.678 107.7C136.155 108.811 137.698 109.861 139.285 110.83C137.925 109.744 136.629 108.559 135.409 107.286ZM191.846 48.2655C184.761 38.2452 173.842 31.8125 161.611 31.8125C140.308 31.8125 122.973 51.3337 122.973 75.3312C122.973 75.5945 122.976 75.8578 122.983 76.1211C123.184 75.8541 123.398 75.5908 123.622 75.3312C134.337 62.8973 140.665 32.5439 161.611 32.5439C173.855 32.5439 184.764 39.101 191.716 49.2639C196.658 56.4828 199.599 65.5267 199.599 75.3312C199.599 76.7538 199.538 78.1617 199.414 79.5477C199.336 80.4693 199.229 81.3836 199.096 82.2869C198.129 88.9244 195.801 95.0572 192.447 100.298C192.145 100.773 191.833 101.238 191.515 101.695C191.437 101.804 191.362 101.914 191.281 102.02C190.099 103.684 188.81 105.246 187.427 106.69C184.255 110.011 180.579 112.724 176.547 114.67C175.248 115.303 173.91 115.851 172.54 116.312C169.183 117.453 165.634 118.078 161.961 118.115C161.845 118.118 161.728 118.118 161.611 118.118C158.669 118.118 155.516 117.61 152.312 116.685C147.935 115.423 143.457 113.39 139.285 110.83C143.139 113.913 147.516 116.224 152.234 117.552C155.237 118.4 158.377 118.85 161.611 118.85C161.822 118.85 162.033 118.846 162.244 118.839C165.819 118.78 169.28 118.162 172.556 117.069C173.988 116.593 175.384 116.027 176.741 115.372C180.686 113.478 184.297 110.859 187.44 107.667C189.083 106.003 190.602 104.182 191.973 102.221C192.057 102.101 192.141 101.98 192.223 101.856C192.333 101.695 192.443 101.53 192.55 101.366C196.223 95.8544 198.755 89.3303 199.762 82.2393C199.892 81.3287 199.996 80.4071 200.073 79.4746C200.19 78.1105 200.249 76.7282 200.249 75.3312C200.249 65.1098 197.106 55.7002 191.846 48.2655Z" fill="#E6E6E6"/>
<path d="M149.614 77.4007C146.99 74.6127 145.16 70.9171 146.991 63.0392C147.128 62.4527 146.762 61.8231 146.41 61.3652C146.057 60.9073 145.391 60.6945 144.973 61.0755C145.271 60.0865 149.357 56.5539 149.655 55.5649C149.307 56.0852 146.65 57.2008 146.437 56.5949C146.224 55.989 146.411 55.3083 146.598 54.6917L147.713 51.016C147.994 50.0915 149.1 51.1961 149.655 50.445C150.649 49.0995 149.515 47.6811 151.032 47.3039C155.999 46.0693 161.264 44.9662 166.089 46.7784C168.196 47.57 170.113 48.885 172.009 50.1892L175.478 52.5755C177.469 53.9445 179.63 55.5685 180.176 58.1224L176.533 56.656C177.344 58.602 178.163 60.5723 178.534 62.6813C178.905 64.7903 177.901 72.7313 176.929 74.5815C176.074 76.2068 175.47 71.8416 175.189 73.7038C175.51 70.0458 174.048 66.2514 171.457 64.0174C170.925 63.5592 170.319 63.1185 170.083 62.4132C169.819 61.6266 170.083 60.6806 169.723 59.9441C169.276 59.0283 168.107 58.941 167.235 59.3004C166.364 59.6599 165.602 60.3355 164.699 60.5776C162.305 61.2195 160.127 58.6703 157.673 58.4786C155.334 58.296 153.242 60.3578 152.27 62.7601C151.298 65.1625 148.608 64.6424 148.356 67.2674C148.105 69.8924 151.777 75.0872 150.304 77.1414L149.614 77.4007Z" fill="#2F2E41"/>
<path d="M147.772 101.889L146.685 100.934L146.432 100.715C146.188 100.499 145.867 100.426 145.565 100.51L144.292 100.868C144.159 100.905 144.016 100.861 143.918 100.751L142.49 99.1422C142.392 99.0325 142.353 98.8715 142.386 98.7216L142.704 97.288C142.782 96.9479 142.714 96.5896 142.522 96.3116L141.48 94.8013C141.454 94.7647 141.425 94.7281 141.396 94.6952C140.999 94.2491 140.36 94.2491 139.964 94.6952L139.363 95.3718C138.931 95.8545 138.743 96.5822 138.954 97.2551C139.493 98.9813 140.37 100.55 141.522 101.841C141.931 102.302 142.37 102.726 142.834 103.106C143.678 103.794 144.607 104.342 145.594 104.734C146.194 104.971 146.837 104.759 147.266 104.277L147.867 103.596C148.298 103.114 148.253 102.313 147.772 101.889ZM147.428 103.106L146.828 103.783C146.545 104.097 146.149 104.214 145.798 104.075C144.97 103.75 144.188 103.304 143.464 102.748C142.925 102.342 142.422 101.87 141.961 101.347C140.876 100.13 140.048 98.6521 139.538 97.0247C139.415 96.6298 139.519 96.1836 139.798 95.8655L140.402 95.1889C140.412 95.1743 140.425 95.1633 140.438 95.1524C140.61 95.0024 140.857 95.0353 140.99 95.2291L142.032 96.7395C142.107 96.8456 142.133 96.9882 142.103 97.1198L141.785 98.5534C141.698 98.941 141.801 99.3543 142.051 99.6359L143.48 101.245C143.73 101.53 144.097 101.644 144.441 101.545L145.714 101.186C145.831 101.154 145.957 101.183 146.052 101.267L146.068 101.282L147.393 102.441C147.406 102.452 147.419 102.466 147.428 102.477C147.584 102.653 147.584 102.931 147.428 103.106Z" fill="#CCCCCC"/>
<path d="M160.448 98.5833C160.608 98.5833 160.738 98.7298 160.738 98.9105V99.5649C160.738 101.011 161.779 102.183 163.062 102.183C164.346 102.183 165.387 101.011 165.387 99.5649V98.9105C165.387 98.7298 165.517 98.5833 165.677 98.5833C165.838 98.5833 165.968 98.7298 165.968 98.9105V99.5649C165.968 101.245 164.838 102.653 163.353 102.821V104.146H165.096C165.257 104.146 165.387 104.293 165.387 104.473C165.387 104.654 165.257 104.8 165.096 104.8H161.029C160.868 104.8 160.738 104.654 160.738 104.473C160.738 104.293 160.868 104.146 161.029 104.146H162.772V102.821C161.287 102.653 160.157 101.245 160.157 99.5649V98.9105C160.157 98.7298 160.287 98.5833 160.448 98.5833Z" fill="#CCCCCC"/>
<path d="M163.062 94.3295C162.101 94.3295 161.318 95.2071 161.318 96.2933V99.5663C161.318 100.649 162.101 101.527 163.062 101.527C164.026 101.527 164.806 100.649 164.806 99.5663V96.2933C164.806 95.2071 164.026 94.3295 163.062 94.3295ZM164.224 99.5663C164.224 100.287 163.705 100.876 163.062 100.876C162.419 100.876 161.9 100.287 161.9 99.5663V96.2933C161.9 95.5692 162.419 94.9841 163.062 94.9841C163.705 94.9841 164.224 95.5692 164.224 96.2933V99.5663Z" fill="#CCCCCC"/>
<path d="M183.171 94.4575C182.258 94.11 181.268 94.6586 180.96 95.6862L181.45 96.2384C181.482 95.5436 181.995 94.9987 182.616 95.0023C183.255 95.006 183.775 95.5948 183.771 96.3152V98.8532L184.353 99.5078V96.3152C184.353 95.4778 183.875 94.7281 183.171 94.4575ZM184.645 104.171H182.901V102.843C183.411 102.788 183.898 102.58 184.314 102.24L183.895 101.768C183.528 102.046 183.086 102.207 182.609 102.207C181.327 102.207 180.284 101.033 180.284 99.5883V98.9337C180.284 98.8752 180.271 98.8166 180.242 98.7691C180.193 98.674 180.102 98.6082 179.995 98.6082C179.943 98.6082 179.895 98.6228 179.852 98.6521C179.765 98.7069 179.703 98.813 179.703 98.9337V99.5883C179.703 101.267 180.836 102.675 182.32 102.843V104.171H180.577C180.414 104.171 180.284 104.317 180.284 104.496C180.284 104.679 180.414 104.825 180.577 104.825H184.645C184.804 104.825 184.934 104.679 184.934 104.496C184.934 104.317 184.804 104.171 184.645 104.171ZM185.226 98.6082C185.064 98.6082 184.934 98.7545 184.934 98.9337V99.5883C184.934 99.7638 184.918 99.9393 184.888 100.111L184.918 100.144L185.359 100.645C185.392 100.532 185.421 100.418 185.444 100.301C185.492 100.071 185.515 99.8333 185.515 99.5883V98.9337C185.515 98.7545 185.385 98.6082 185.226 98.6082Z" fill="#CCCCCC"/>
<path d="M183.807 99.8187L179.329 94.7756L178.917 95.2401L182.69 99.4896L185.891 103.092L186.3 102.627L183.807 99.8187ZM183.037 100.806C182.443 101.073 181.768 100.744 181.531 100.071C181.476 99.9174 181.446 99.7528 181.446 99.5883V99.0141L180.865 98.3595V99.5883C180.865 100.671 181.648 101.552 182.609 101.552C182.911 101.552 183.209 101.464 183.472 101.296L183.037 100.806Z" fill="#CCCCCC"/>
<path d="M261.357 171.302C257.503 174.526 252.901 174.899 251.08 172.136C249.259 169.373 250.908 164.52 254.764 161.296C256.289 159.984 258.07 159.103 259.959 158.726L276.443 145.299L281.873 154.146L265.046 166.443C264.178 168.371 262.913 170.038 261.357 171.302Z" fill="#FFB6B6"/>
<path d="M271.742 61.9559C271.742 61.9559 285.04 62.429 287.56 72.8358C290.079 83.2427 295.119 105.424 294.279 136.223C294.279 136.223 298.479 156.091 287.56 155.145L272.44 162.713L262.36 147.576L270.76 136.223L271.742 61.9559Z" fill="#1165BA"/>
</g>
<defs>
<clipPath id="clip0_492_1724">
<rect width="320" height="240" fill="white"/>
</clipPath>
</defs>
</svg>
