<svg width="200" height="200" viewBox="0 0 200 200" fill="none" xmlns="http://www.w3.org/2000/svg">
<path d="M106.471 3.54827L106.478 3.55186L191.094 46.5542C193.209 47.6291 194.955 49.2028 196.162 51.0946C197.369 52.9846 197.999 55.1279 198 57.3013C198 57.3016 198 57.3019 198 57.3022V142.703C197.995 144.873 197.363 147.012 196.156 148.897C194.949 150.785 193.205 152.355 191.094 153.428L191.094 153.428L106.478 196.448L106.471 196.452C104.498 197.465 102.271 198 100 198C97.7292 198 95.502 197.465 93.5286 196.452L93.5218 196.448L8.90642 153.428L8.90611 153.428C6.79469 152.355 5.05146 150.785 3.84382 148.897C2.63758 147.012 2.00575 144.874 2 142.705V57.2949C2.00575 55.1259 2.63758 52.9878 3.84382 51.1025C5.05147 49.2151 6.79469 47.6451 8.9061 46.5721L8.90642 46.5719L93.5218 3.55172L93.5286 3.54825C95.502 2.53544 97.7292 2 100 2C102.271 2 104.498 2.53544 106.471 3.54827ZM100.907 12.4896L100 12.0284L99.0936 12.4893L70.459 27.0467L66.953 28.8291L70.4587 30.6122L147.718 69.9082L148.625 70.3694L149.532 69.9083L178.157 55.3509L181.662 53.5684L178.157 51.7856L100.907 12.4896ZM99.0932 94.6468L99.9998 95.108L100.907 94.6469L133.503 78.0712L137.008 76.2887L133.503 74.5058L56.2529 35.2098L55.3463 34.7486L54.4396 35.2097L21.8434 51.7854L18.3383 53.5679L21.8432 55.3508L99.0932 94.6468ZM16.2909 64.2886L13.3846 62.8113V66.0715V142.717V143.944L14.4789 144.5L91.4019 183.572L94.3077 185.048V181.789V105.171V103.944L93.2139 103.388L16.2909 64.2886ZM185.522 144.464L186.615 143.908V142.681V142.672V66.0715V62.8081L183.708 64.2894L152.938 79.9631L151.846 80.5195V81.7452V121.443C151.846 122.758 151.285 124.052 150.232 125.03C149.174 126.013 147.709 126.588 146.154 126.588C144.598 126.588 143.134 126.013 142.076 125.03C141.023 124.052 140.462 122.758 140.462 121.443V89.5687V86.3087L137.555 87.7858L106.786 103.424L105.692 103.98V105.207V181.789V185.05L108.599 183.572L185.522 144.464Z" fill="white" stroke="#1165BA" stroke-width="4"/>
</svg>
