<svg width="82" height="110" viewBox="0 0 82 110" fill="none" xmlns="http://www.w3.org/2000/svg">
<path d="M6.74518 100.544L22.2139 94.2213C20.8517 90.1588 19.6879 86.0243 18.7224 81.8176C17.7568 77.6108 17.0537 73.344 16.613 69.0171L8.42783 74.4979C7.867 74.8985 7.44632 75.3592 7.1658 75.8801C6.88539 76.4009 6.74518 76.9819 6.74518 77.6229V100.544ZM28.5 93.5002H53.5C55.375 88.4522 56.8854 82.9334 58.0313 76.9438C59.1771 70.9542 59.75 64.7142 59.75 58.2238C59.75 48.7927 58.3117 40.1088 55.4352 32.1721C52.5585 24.2354 47.7468 16.5652 41 9.16133C34.2533 16.5652 29.4415 24.2354 26.5649 32.1721C23.6883 40.1088 22.25 48.7927 22.25 58.2238C22.25 64.7142 22.8229 70.9542 23.9688 76.9438C25.1146 82.9334 26.625 88.4522 28.5 93.5002ZM41 59.1252C38.3638 59.1252 36.1422 58.2218 34.3353 56.4149C32.5285 54.608 31.625 52.3865 31.625 49.7502C31.625 47.114 32.5285 44.8924 34.3353 43.0855C36.1422 41.2787 38.3638 40.3752 41 40.3752C43.6363 40.3752 45.8578 41.2787 47.6647 43.0855C49.4716 44.8924 50.375 47.114 50.375 49.7502C50.375 52.3865 49.4716 54.608 47.6647 56.4149C45.8578 58.2218 43.6363 59.1252 41 59.1252ZM75.2549 100.544V77.743C75.2549 77.102 75.1147 76.5011 74.8342 75.9402C74.5537 75.3793 74.133 74.8985 73.5722 74.4979L65.3871 69.0171C64.9463 73.344 64.143 78.0315 62.9772 83.0796C61.8114 88.1276 60.7477 91.8816 59.7861 94.3416L75.2549 100.544ZM41 0.916016C49.6298 8.57633 55.9539 17.2062 59.9724 26.8055C63.9908 36.4049 66 47.098 66 58.8849C66 59.3657 66.0201 59.8664 66.0602 60.3873C66.1002 60.9081 66.0801 61.449 66 62.0099L76.8414 69.3176C78.2917 70.223 79.4316 71.4329 80.261 72.9474C81.0902 74.4618 81.5049 76.0603 81.5049 77.743V109.726L56.6611 99.7502H25.2188L0.495178 109.726V77.6229C0.495178 75.9402 0.889813 74.3416 1.67908 72.8271C2.46835 71.3127 3.58815 70.1028 5.03846 69.1974L16 61.8896V58.8849C16 47.098 18.0092 36.4049 22.0277 26.8055C26.0461 17.2062 32.3702 8.57633 41 0.916016Z" fill="#046AD0"/>
</svg>
