<svg width="320" height="240" viewBox="0 0 320 240" fill="none" xmlns="http://www.w3.org/2000/svg">
<g clip-path="url(#clip0_566_1888)">
<path d="M320 120C320.033 136.717 315.816 153.253 307.621 168.539C307.356 169.032 307.088 169.523 306.816 170.011C306.682 170.256 306.544 170.499 306.407 170.744C306.269 170.987 306.131 171.232 305.99 171.474C305.809 171.789 305.628 172.1 305.443 172.411C305.215 172.803 304.983 173.192 304.743 173.581C304.714 173.635 304.682 173.689 304.646 173.743C304.446 174.072 304.247 174.401 304.04 174.73C303.997 174.802 303.953 174.874 303.906 174.943C303.671 175.326 303.428 175.709 303.182 176.089V176.092C302.921 176.496 302.658 176.899 302.395 177.301C301.743 178.294 301.072 179.279 300.384 180.254C300.177 180.545 299.974 180.835 299.764 181.122C299.572 181.392 299.38 181.658 299.184 181.924C299.05 182.11 298.916 182.292 298.779 182.475C298.561 182.771 298.34 183.067 298.115 183.364C298.112 183.367 298.112 183.367 298.112 183.37C297.615 184.028 297.108 184.683 296.597 185.333H296.593C296.358 185.635 296.119 185.934 295.879 186.233V186.236C295.158 187.134 294.423 188.023 293.672 188.903V188.906C293.67 188.906 293.667 188.907 293.665 188.909V188.912L293.658 188.918C293.064 189.621 292.457 190.318 291.839 191.009V191.012C291.444 191.455 291.045 191.898 290.643 192.335C290.313 192.694 289.98 193.052 289.643 193.409C289.574 193.487 289.501 193.562 289.425 193.64V193.643C289.335 193.742 289.244 193.837 289.146 193.936V193.939C287.715 195.45 286.24 196.932 284.721 198.383H284.718C284.638 198.464 284.555 198.542 284.471 198.619C284.392 198.697 284.305 198.775 284.221 198.856H284.218C284.091 198.979 283.96 199.101 283.83 199.224C283.703 199.347 283.569 199.469 283.435 199.592V199.595C275.52 206.969 266.538 213.512 256.691 219.076C255.379 219.821 254.05 220.547 252.704 221.252C252.371 221.428 252.037 221.602 251.7 221.776C251.599 221.832 251.497 221.883 251.396 221.934C251.218 222.027 251.037 222.12 250.856 222.212C250.678 222.302 250.497 222.395 250.316 222.485C249.595 222.85 248.867 223.209 248.138 223.562C247.957 223.652 247.772 223.739 247.587 223.828C247.406 223.915 247.221 224.002 247.036 224.089C247.034 224.092 247.031 224.095 247.027 224.097C247.023 224.099 247.019 224.1 247.015 224.101L247.007 224.104L247 224.11H246.997C246.083 224.544 245.167 224.972 244.239 225.385C242.579 226.133 240.902 226.854 239.209 227.548C238.788 227.722 238.365 227.892 237.941 228.063C237.589 228.203 237.234 228.344 236.882 228.482C236.784 228.521 236.69 228.56 236.592 228.596C236.299 228.709 236.005 228.823 235.712 228.934C235.393 229.059 235.07 229.179 234.751 229.299C234.393 229.433 234.038 229.565 233.679 229.697C232.331 230.194 230.968 230.672 229.602 231.133C224.721 232.783 219.733 234.208 214.661 235.4C214.425 235.457 214.186 235.514 213.947 235.568C211.776 236.071 209.59 236.531 207.387 236.948C203.542 237.678 199.662 238.277 195.747 238.746C195.74 238.746 195.729 238.749 195.722 238.749C195.255 238.806 194.784 238.86 194.316 238.914C194.276 238.92 194.233 238.926 194.189 238.929C194.186 238.932 194.182 238.932 194.175 238.929C194.175 238.929 194.175 238.932 194.171 238.929C193.653 238.986 193.135 239.042 192.613 239.096C192.577 239.102 192.54 239.105 192.504 239.108C192.018 239.156 191.529 239.204 191.04 239.249C190.515 239.297 189.989 239.342 189.46 239.387C189.058 239.419 188.655 239.452 188.253 239.482C188.217 239.488 188.181 239.491 188.145 239.491C187.778 239.518 187.413 239.545 187.046 239.569C187.032 239.569 187.014 239.572 186.999 239.572C186.68 239.596 186.362 239.614 186.043 239.635C182.292 239.88 178.505 240.002 174.682 240C170.532 240 166.425 239.857 162.36 239.572C162.346 239.572 162.331 239.569 162.317 239.569C161.451 239.509 160.586 239.443 159.722 239.372C159.494 239.354 159.269 239.333 159.041 239.315C158.997 239.312 158.954 239.309 158.911 239.303C158.842 239.297 158.773 239.291 158.7 239.285C158.664 239.282 158.624 239.279 158.588 239.273C158.287 239.246 157.986 239.219 157.682 239.189C157.345 239.156 157.004 239.123 156.667 239.087C156.33 239.054 155.99 239.018 155.653 238.98C155.58 238.974 155.504 238.968 155.432 238.956C155.185 238.932 154.939 238.905 154.696 238.875C154.576 238.863 154.46 238.848 154.344 238.833C154.109 238.806 153.877 238.779 153.641 238.749C153.634 238.749 153.623 238.746 153.616 238.746C146.216 237.864 138.911 236.504 131.768 234.679H131.764C131.376 234.581 130.988 234.479 130.601 234.377C130.485 234.35 130.369 234.32 130.253 234.287C129.245 234.021 128.244 233.746 127.249 233.461C125.875 233.072 124.511 232.665 123.157 232.24C122.787 232.124 122.421 232.007 122.052 231.89C121.316 231.651 120.584 231.411 119.856 231.166C118.613 230.747 117.378 230.315 116.152 229.87H116.149V229.867C115.003 229.451 113.867 229.022 112.738 228.581C112.705 228.572 112.673 228.56 112.644 228.545C112.641 228.545 112.641 228.542 112.637 228.542C112.387 228.446 112.137 228.347 111.887 228.248L111.88 228.245C105.664 225.785 99.67 222.959 93.9449 219.789C92.1076 218.774 90.3017 217.726 88.5272 216.643C87.0957 215.773 85.6848 214.88 84.2944 213.965C77.3688 209.42 70.9593 204.362 65.1458 198.856H65.1421V198.853C64.7326 198.467 64.334 198.084 63.9281 197.695V197.692C63.8702 197.638 63.8158 197.584 63.7614 197.53C63.5041 197.282 63.2541 197.036 63.004 196.785V196.782C62.6634 196.45 62.33 196.117 62.0038 195.783C61.9314 195.711 61.8625 195.642 61.7937 195.57H61.79V195.567C61.5219 195.298 61.2573 195.025 60.9964 194.753C60.8623 194.618 60.7319 194.481 60.6014 194.343H60.5978V194.34C59.8078 193.517 59.0334 192.686 58.2749 191.847V191.844C58.0647 191.614 57.8581 191.384 57.6552 191.15H57.6516C56.6803 190.067 55.7345 188.971 54.814 187.861V187.858C54.4662 187.442 54.1219 187.023 53.7812 186.601C53.4406 186.18 53.1036 185.757 52.7702 185.333H52.7665C52.4223 184.896 52.0816 184.457 51.7446 184.016C51.7265 183.992 51.7084 183.971 51.6939 183.95C51.3605 183.516 51.0319 183.079 50.7082 182.639C50.4473 182.289 50.19 181.942 49.9399 181.592C49.766 181.356 49.5956 181.122 49.4289 180.883C49.3673 180.802 49.313 180.721 49.2586 180.643C48.8745 180.102 48.4976 179.56 48.1207 179.015C47.6822 178.375 47.2474 177.729 46.8234 177.082C46.6494 176.816 46.4755 176.547 46.3052 176.277C46.2435 176.191 46.1892 176.104 46.1348 176.014C45.9319 175.697 45.7289 175.38 45.5296 175.059C45.3303 174.742 45.131 174.422 44.9353 174.102C44.7396 173.782 44.5439 173.461 44.3519 173.138C44.2069 172.896 44.062 172.65 43.9206 172.408C43.9059 172.388 43.8926 172.367 43.8808 172.345C43.8155 172.231 43.7467 172.121 43.6851 172.007C43.6706 171.99 43.6596 171.97 43.6525 171.95C43.5039 171.699 43.3589 171.45 43.2176 171.199C43.0291 170.876 42.8479 170.55 42.6668 170.223C42.5363 169.996 42.4131 169.766 42.2862 169.535C42.1051 169.212 41.9275 168.886 41.7535 168.557C41.5687 168.218 41.3911 167.877 41.2136 167.536C41.1665 167.449 41.1229 167.366 41.0795 167.279C40.9961 167.123 40.9164 166.968 40.8367 166.812C40.6229 166.399 40.4127 165.98 40.2061 165.564C39.9706 165.094 39.741 164.623 39.5176 164.152C39.3038 163.712 39.096 163.271 38.8943 162.829L38.8182 162.667V162.664C35.6694 155.831 33.2869 148.773 31.7008 141.579V141.576C30.7964 137.469 30.1529 133.326 29.7729 129.163C29.7512 128.936 29.733 128.708 29.7149 128.481C29.4758 125.665 29.3586 122.838 29.3634 120C29.3634 118.74 29.3876 117.486 29.4359 116.238C30.3755 90.1493 41.6377 65.0324 61.5002 44.7292C62.3735 43.8344 63.2626 42.9506 64.1674 42.0778C90.8175 16.3242 130.441 0 174.682 0C226.406 0 271.82 22.3152 297.568 55.9242C298.909 57.6658 300.192 59.4394 301.417 61.2449C313.639 79.1805 320.04 99.4199 320 120Z" fill="#F2F2F2"/>
<path d="M245.05 214.19C244.529 215.381 244.008 216.572 243.489 217.763C243.391 217.99 243.289 218.214 243.191 218.442C241.865 221.476 240.537 224.512 239.209 227.548C238.788 227.722 238.364 227.892 237.94 228.063C237.589 228.203 237.234 228.344 236.882 228.482C236.784 228.521 236.69 228.56 236.592 228.596C236.299 228.709 236.005 228.823 235.712 228.934C235.393 229.059 235.07 229.179 234.751 229.299C234.393 229.433 234.037 229.565 233.679 229.697C233.492 229.296 233.386 228.872 233.363 228.443C233.348 227.769 233.444 227.096 233.65 226.444C233.965 225.367 234.465 224.31 234.795 223.23C234.813 223.179 234.827 223.125 234.842 223.074C235.577 220.495 235.237 217.787 233.878 215.387C233.059 213.956 231.885 212.654 231.374 211.128C230.93 209.695 231.127 208.178 231.928 206.855C232.226 206.342 232.599 205.861 233.041 205.424C233.146 205.314 233.258 205.209 233.374 205.104C234.44 204.137 235.856 203.481 237.411 203.234C240.386 202.797 243.496 204.105 245.159 206.158C245.841 206.982 246.256 207.937 246.366 208.932C246.547 210.73 245.793 212.493 245.05 214.19Z" fill="#E4E4E4"/>
<path d="M236.835 226.345C236.154 225.307 235.013 224.397 234.795 223.23C234.089 219.483 232.385 216.796 229.562 215.273C228.743 214.833 228.613 213.86 228.109 213.16C227.884 212.846 227.656 212.532 227.421 212.223C227.04 211.712 226.644 211.21 226.232 210.718C225.451 209.768 224.59 208.864 223.655 208.013C223.268 207.657 222.858 207.313 222.434 206.987L222.43 206.984C222.166 206.774 221.898 206.574 221.619 206.379C221.51 206.301 221.398 206.223 221.282 206.146L221.274 206.14C220.785 205.789 220.272 205.461 219.738 205.158C218.509 204.473 217.121 203.997 215.697 204.377C215.137 204.535 214.598 204.74 214.088 204.988C213.827 205.11 213.57 205.239 213.313 205.368C213.139 205.454 212.965 205.541 212.791 205.631C212.65 205.7 212.508 205.769 212.367 205.834C211.272 206.355 210.173 206.866 209.069 207.367C208.91 207.441 208.75 207.513 208.587 207.585H208.584C208.471 207.639 208.355 207.69 208.239 207.741C208.018 207.842 207.794 207.944 207.572 208.043C206.909 208.339 206.245 208.632 205.579 208.923C205.239 209.072 204.894 209.216 204.55 209.36C204.391 209.425 204.231 209.491 204.075 209.56H204.072C204.014 209.584 203.959 209.608 203.901 209.632C203.43 209.832 202.966 210.039 202.517 210.263C201.214 210.912 200.081 211.769 199.187 212.786C199.013 212.984 198.846 213.187 198.694 213.396C198.494 213.667 198.313 213.947 198.15 214.234C198.038 214.429 197.933 214.623 197.839 214.821V214.824C196.948 216.715 196.823 218.794 197.484 220.749V220.752C197.527 220.887 197.574 221.018 197.628 221.15C197.715 221.372 197.813 221.593 197.922 221.808C198.042 222.049 198.177 222.283 198.328 222.512V222.515C199.134 223.651 200.141 224.681 201.314 225.573L201.35 225.603C201.495 225.72 201.644 225.839 201.789 225.956C201.868 226.019 201.952 226.082 202.039 226.142C203.293 227.03 205.318 227.704 206.464 228.616C207.076 229.104 207.435 229.658 207.293 230.349C206.917 232.184 207 233.372 207.384 234.135C208.428 236.217 211.704 235.158 213.947 235.568C214.186 235.514 214.425 235.457 214.661 235.4C219.733 234.208 224.721 232.783 229.602 231.133C230.968 230.672 232.331 230.193 233.679 229.697C234.038 229.565 234.393 229.433 234.752 229.299C235.071 229.179 235.393 229.059 235.712 228.934C236.006 228.823 236.299 228.709 236.593 228.595C236.69 228.56 236.785 228.521 236.883 228.482C237.234 228.344 237.589 228.203 237.941 228.063C237.582 227.485 237.209 226.914 236.835 226.345Z" fill="#E4E4E4"/>
<path d="M210.321 197.292C211.082 195.392 210.035 194.139 207.34 193.474C207.248 193.405 207.136 193.356 207.015 193.332C206.895 193.308 206.768 193.31 206.648 193.336C206.528 193.363 206.418 193.414 206.328 193.485C206.238 193.555 206.171 193.644 206.133 193.741L203.78 199.499C201.319 198.979 199.513 199.335 199.121 201.346C200.093 199.298 199.179 198.014 196.446 197.466C196.357 197.393 196.247 197.339 196.127 197.311C196.007 197.282 195.879 197.279 195.757 197.302C195.635 197.325 195.521 197.373 195.428 197.441C195.334 197.51 195.263 197.597 195.221 197.695L193.673 202.881C191.789 205.225 190.863 208.007 191.032 210.817C191.202 213.628 192.457 216.32 194.614 218.498C196.771 220.677 199.717 222.227 203.019 222.922C206.321 223.617 209.806 223.421 212.963 222.361C216.12 221.301 218.783 219.434 220.561 217.033C222.339 214.633 223.139 211.825 222.843 209.021C222.548 206.218 221.172 203.566 218.919 201.456C216.665 199.345 213.652 197.886 210.321 197.292Z" fill="#E4E4E4"/>
<path d="M208.823 213.702C208.505 213.842 208.133 213.873 207.787 213.787C207.442 213.701 207.152 213.505 206.981 213.243C206.957 213.206 206.951 213.162 206.966 213.121C206.981 213.08 207.015 213.046 207.06 213.026C207.106 213.006 207.159 213.002 207.208 213.014C207.257 213.026 207.299 213.054 207.323 213.091C207.445 213.278 207.653 213.418 207.899 213.479C208.146 213.54 208.412 213.518 208.639 213.418C208.866 213.317 209.035 213.147 209.109 212.943C209.184 212.739 209.158 212.52 209.036 212.332C209.012 212.295 209.007 212.251 209.022 212.21C209.037 212.17 209.071 212.135 209.116 212.115C209.161 212.095 209.214 212.091 209.264 212.103C209.313 212.115 209.354 212.143 209.379 212.18C209.549 212.443 209.586 212.751 209.482 213.036C209.378 213.321 209.141 213.561 208.823 213.702Z" fill="white"/>
<path d="M207.399 211.341C208.156 211.005 208.642 210.539 208.486 210.298C208.33 210.058 207.59 210.135 206.833 210.47C206.076 210.806 205.59 211.272 205.746 211.513C205.902 211.753 206.642 211.676 207.399 211.341Z" fill="white"/>
<path d="M199.355 211.748C199.458 211.338 199.668 210.952 199.971 210.617C200.273 210.281 200.662 210.005 201.108 209.807C201.555 209.609 202.049 209.495 202.554 209.472C203.06 209.449 203.566 209.518 204.036 209.674C204.273 209.077 204.29 208.435 204.085 207.83C203.879 207.225 203.462 206.684 202.884 206.275C202.307 205.866 201.595 205.607 200.84 205.532C200.084 205.457 199.319 205.569 198.64 205.853C197.962 206.137 197.4 206.581 197.027 207.129C196.654 207.676 196.486 208.303 196.544 208.929C196.603 209.556 196.885 210.154 197.354 210.648C197.824 211.142 198.461 211.51 199.184 211.706C199.241 211.721 199.298 211.735 199.355 211.748Z" fill="white"/>
<path d="M200.504 210.595C201.235 210.595 201.827 210.106 201.827 209.502C201.827 208.899 201.235 208.409 200.504 208.409C199.773 208.409 199.181 208.899 199.181 209.502C199.181 210.106 199.773 210.595 200.504 210.595Z" fill="#3F3D56"/>
<path d="M208.515 207.816C208.618 207.406 208.828 207.02 209.131 206.684C209.434 206.349 209.822 206.072 210.269 205.875C210.715 205.677 211.209 205.562 211.715 205.539C212.221 205.516 212.726 205.585 213.197 205.741C213.433 205.144 213.45 204.502 213.245 203.897C213.04 203.292 212.622 202.751 212.044 202.342C211.467 201.933 210.755 201.675 210 201.6C209.244 201.525 208.479 201.636 207.8 201.921C207.122 202.205 206.561 202.649 206.187 203.196C205.814 203.744 205.646 204.37 205.705 204.997C205.763 205.623 206.045 206.221 206.515 206.716C206.985 207.21 207.621 207.578 208.344 207.773C208.401 207.788 208.458 207.803 208.515 207.816Z" fill="white"/>
<path d="M210.149 206.601C210.88 206.601 211.473 206.112 211.473 205.509C211.473 204.905 210.88 204.416 210.149 204.416C209.419 204.416 208.826 204.905 208.826 205.509C208.826 206.112 209.419 206.601 210.149 206.601Z" fill="#3F3D56"/>
<path d="M216.791 205.433L212.272 209.235L212.729 209.605L217.247 205.803L216.791 205.433Z" fill="white"/>
<path d="M218.227 207.273L212.768 210.111L213.108 210.557L218.567 207.719L218.227 207.273Z" fill="white"/>
<path d="M202.579 213.53L196.245 214.537L196.366 215.055L202.7 214.048L202.579 213.53Z" fill="white"/>
<path d="M203.189 214.355L197.308 216.542L197.57 217.023L203.452 214.836L203.189 214.355Z" fill="white"/>
<path d="M16.6529 133.194C4.26261 123.985 -3.2398 109.342 1.37081 96.114C11.7758 108.372 27.0958 117.195 44.6204 121.023C51.3854 122.479 59.0934 123.517 63.2091 128.184C65.7701 131.087 66.3647 134.924 65.7586 138.481C65.1523 142.038 63.4578 145.398 61.7788 148.711L61.8677 149.605C45.5053 146.976 29.0431 142.402 16.6529 133.194Z" fill="#E6E6E6"/>
<path d="M1.71664 96.1557C4.86573 107.125 12.2791 117.335 22.6813 124.663C24.9303 126.247 27.3786 127.692 30.125 128.627C32.8104 129.521 35.7367 129.804 38.5999 129.448C41.2776 129.161 43.9762 128.611 46.6919 128.866C49.5544 129.134 51.9458 130.459 53.6165 132.366C55.6605 134.699 56.5673 137.5 57.3389 140.265C58.1955 143.334 59.0264 146.533 61.4804 149.042C61.7777 149.346 61.1892 149.709 60.8923 149.405C56.6228 145.041 57.2069 139 54.1147 134.177C52.6718 131.927 50.399 130.022 47.2685 129.549C44.5311 129.136 41.7476 129.701 39.0395 130.012C36.1959 130.338 33.4447 130.259 30.7166 129.463C27.9259 128.649 25.404 127.28 23.1159 125.75C17.9586 122.249 13.5 118.101 9.90333 113.456C5.7629 108.174 2.74716 102.346 0.986593 96.2247C0.877811 95.8457 1.60858 95.7793 1.71664 96.1557Z" fill="white"/>
<path d="M19.1479 122.428C17.3971 123.705 15.1534 124.427 12.8177 124.464C10.482 124.502 8.20634 123.852 6.39707 122.632C6.03201 122.384 6.48151 121.904 6.84705 122.152C8.52929 123.291 10.6492 123.896 12.8241 123.857C14.999 123.819 17.0857 123.14 18.7075 121.943C19.0604 121.683 19.4987 122.17 19.1479 122.428Z" fill="white"/>
<path d="M37.2653 129.742C37.6032 125.808 36.1332 121.914 33.1484 118.835C32.8524 118.531 33.4408 118.167 33.7365 118.472C36.8352 121.68 38.355 125.735 37.9925 129.828C37.9576 130.218 37.2306 130.13 37.2653 129.742Z" fill="white"/>
<path d="M6.72356 108.041C7.52571 107.664 8.20173 107.128 8.69091 106.481C9.18008 105.834 9.4671 105.097 9.52619 104.337C9.55506 103.946 10.2821 104.035 10.2534 104.423C10.1834 105.263 9.86521 106.077 9.32666 106.792C8.78811 107.508 8.04558 108.103 7.16396 108.527C7.08491 108.573 6.98775 108.592 6.89224 108.58C6.79672 108.569 6.71001 108.528 6.64973 108.466C6.59181 108.401 6.56707 108.321 6.5809 108.241C6.59472 108.162 6.64599 108.09 6.72356 108.041Z" fill="white"/>
<path d="M53.1149 77.5043C53.1053 77.7484 53.0956 77.9925 53.0909 78.2397C52.982 81.5221 53.1961 84.8064 53.7313 88.0601C53.7678 88.3122 53.8094 88.5673 53.8547 88.818C55.2451 96.6456 58.3834 104.192 63.1099 111.074C64.9938 113.811 67.127 116.425 69.4913 118.895C72.7566 122.305 76.6257 125.789 78.287 129.774C78.466 130.188 78.6137 130.611 78.7294 131.04L63.1809 149.446C63.1201 149.473 63.0642 149.504 63.0033 149.531L62.4232 150.289C62.2905 150.169 62.156 150.042 62.0233 149.922C61.946 149.852 61.8721 149.778 61.7947 149.709C61.7443 149.661 61.694 149.613 61.6451 149.573C61.6283 149.557 61.6116 149.541 61.5998 149.528C61.5509 149.487 61.5108 149.445 61.4671 149.408C60.7128 148.699 59.9633 147.984 59.2186 147.264C59.2135 147.261 59.2135 147.261 59.2118 147.254C53.5539 141.753 48.4024 135.814 44.5063 129.418C44.3891 129.226 44.2667 129.031 44.1567 128.83C42.4198 125.939 40.972 122.936 39.8277 119.85C39.2078 118.159 38.6918 116.442 38.282 114.708C37.2334 110.225 37.0453 105.634 37.7246 101.102C39.0803 92.0691 43.9193 83.4946 52.4575 77.9246C52.676 77.7822 52.8913 77.6437 53.1149 77.5043Z" fill="#E6E6E6"/>
<path d="M53.3632 77.7086C47.8796 88.0329 46.3547 99.8707 49.318 110.893C49.9587 113.276 50.8597 115.647 52.3712 117.759C53.8637 119.807 55.9933 121.489 58.5388 122.628C60.8864 123.73 63.4423 124.632 65.4247 126.186C67.5143 127.824 68.4581 130.07 68.4015 132.424C68.3322 135.303 67.0142 137.99 65.6147 140.581C64.0609 143.458 62.3917 146.425 62.5221 149.648C62.5379 150.039 61.8032 150.036 61.7874 149.646C61.5605 144.039 66.4316 139.505 67.4789 134.117C67.9676 131.603 67.5417 128.952 65.3869 127.018C63.5026 125.327 60.8679 124.395 58.4792 123.296C55.971 122.143 53.8319 120.712 52.2337 118.721C50.599 116.683 49.5838 114.336 48.8722 111.977C47.3068 106.618 46.7716 101.089 47.2861 95.5922C47.8313 89.3164 49.6725 83.1638 52.73 77.4007C52.9195 77.044 53.5514 77.3543 53.3632 77.7086Z" fill="white"/>
<path d="M48.1259 107.352C45.7968 107.501 43.4792 106.962 41.5871 105.831C39.6951 104.699 38.3517 103.049 37.7968 101.175C37.6862 100.796 38.3951 100.636 38.5059 101.016C39.0187 102.761 40.2702 104.298 42.0347 105.349C43.7993 106.4 45.9605 106.895 48.1283 106.745C48.5995 106.713 48.5944 107.32 48.1259 107.352Z" fill="white"/>
<path d="M57.259 122.199C60.3968 119.226 62.0624 115.386 61.9237 111.444C61.9095 111.054 62.6442 111.056 62.6584 111.446C62.7934 115.548 61.0503 119.542 57.7768 122.629C57.4645 122.924 56.9484 122.492 57.259 122.199Z" fill="white"/>
<path d="M48.6957 89.688C49.6115 89.7853 50.5422 89.6933 51.4042 89.4202C52.2663 89.147 53.0327 88.7014 53.6346 88.1233C53.9422 87.826 54.458 88.2583 54.1524 88.5537C53.4838 89.1899 52.6366 89.6812 51.685 89.9847C50.7334 90.2882 49.7062 90.3946 48.6933 90.2947C48.5968 90.2919 48.5053 90.2588 48.4373 90.2023C48.3693 90.1458 48.3299 90.07 48.3271 89.9903C48.328 89.91 48.3671 89.8332 48.4361 89.7766C48.5051 89.72 48.5984 89.6881 48.6957 89.688Z" fill="white"/>
<path d="M195.155 78.7318C197.315 68.867 193.725 57.6732 183.926 51.7556C184.556 62.6448 180.501 73.3671 172.479 82.0253C169.371 85.3552 165.494 88.7915 165.645 92.9941C165.739 95.609 167.469 98.0371 169.739 99.8617C172.009 101.686 174.799 102.996 177.555 104.286L177.987 104.833C185.987 97.293 192.995 88.5967 195.155 78.7318Z" fill="#E6E6E6"/>
<path d="M183.749 51.9071C187.902 59.463 189.066 67.9073 187.076 76.0407C186.686 77.7979 185.962 79.4932 184.932 81.0643C183.868 82.568 182.337 83.8091 180.496 84.6587C178.799 85.4793 176.948 86.1565 175.523 87.3035C174.803 87.8995 174.245 88.6144 173.884 89.4012C173.522 90.1881 173.367 91.0291 173.427 91.8691C173.51 93.9653 174.501 95.9118 175.55 97.7875C176.714 99.8701 177.964 102.018 177.906 104.366C177.899 104.651 178.434 104.643 178.441 104.359C178.542 100.274 174.942 97.0107 174.118 93.0952C173.733 91.2682 174.013 89.3344 175.56 87.9093C176.913 86.6631 178.82 85.9635 180.547 85.1449C182.358 84.3378 183.901 83.177 185.043 81.7638C186.166 80.241 186.968 78.5715 187.413 76.8267C188.492 72.9118 188.818 68.8812 188.38 64.8826C187.911 60.3167 186.5 55.8507 184.207 51.6779C184.065 51.4197 183.608 51.6505 183.749 51.9071Z" fill="white"/>
<path d="M187.903 73.4529C189.601 73.5433 191.282 73.1325 192.647 72.2937C194.012 71.4549 194.971 70.2428 195.354 68.8738C195.43 68.5966 194.912 68.4857 194.836 68.7633C194.482 70.0386 193.588 71.1676 192.316 71.9466C191.043 72.7255 189.475 73.1031 187.894 73.0111C187.551 72.9914 187.561 73.4333 187.903 73.4529Z" fill="white"/>
<path d="M181.423 84.3362C179.104 82.1959 177.847 79.4125 177.903 76.5409C177.908 76.2564 177.373 76.2639 177.368 76.5481C177.316 79.5364 178.632 82.4308 181.051 84.6537C181.282 84.8654 181.653 84.5468 181.423 84.3362Z" fill="white"/>
<path d="M187.286 60.5941C186.62 60.6721 185.941 60.6124 185.31 60.4202C184.679 60.2281 184.116 59.9096 183.671 59.4933C183.444 59.2792 183.073 59.5981 183.299 59.8107C183.793 60.2688 184.416 60.62 185.112 60.8335C185.809 61.0471 186.558 61.1165 187.294 61.0358C187.365 61.033 187.431 61.0083 187.48 60.9666C187.529 60.9249 187.556 60.8694 187.557 60.8113C187.556 60.7528 187.527 60.6972 187.476 60.6565C187.425 60.6158 187.356 60.5934 187.286 60.5941Z" fill="white"/>
<path d="M144.084 60.0988C144.221 60.2358 144.359 60.3728 144.495 60.5134C146.331 62.3631 147.981 64.3328 149.43 66.4031C149.546 66.5617 149.659 66.7239 149.769 66.8849C153.196 71.9036 155.465 77.4042 156.461 83.1069C156.854 85.3765 157.038 87.6675 157.011 89.9601C156.973 93.1262 156.627 96.5567 157.823 99.4627C157.943 99.7671 158.087 100.065 158.252 100.355L177.145 105.225C177.195 105.219 177.243 105.215 177.293 105.209L178.037 105.432C178.048 105.313 178.057 105.191 178.068 105.073C178.075 105.004 178.078 104.934 178.085 104.866C178.088 104.82 178.091 104.774 178.097 104.732C178.099 104.717 178.1 104.702 178.099 104.69C178.106 104.649 178.106 104.61 178.111 104.572C178.162 103.886 178.208 103.198 178.247 102.509C178.249 102.506 178.249 102.506 178.246 102.501C178.532 97.2504 178.291 91.9339 177.079 86.8168C177.043 86.6628 177.008 86.5054 176.963 86.3492C176.401 84.0451 175.613 81.7828 174.605 79.5848C174.048 78.3827 173.418 77.2046 172.718 76.0551C170.9 73.0879 168.528 70.3752 165.69 68.0165C160.031 63.3152 152.614 60.1609 144.689 60.0986C144.487 60.0972 144.288 60.0967 144.084 60.0988Z" fill="#E6E6E6"/>
<path d="M144.052 60.3077C152.876 64.2761 159.962 70.4397 164.304 77.9231C165.273 79.5204 165.931 81.2338 166.254 83.0004C166.501 84.7296 166.183 86.482 165.333 88.0755C164.577 89.5744 163.592 91.0353 163.29 92.6599C163.151 93.4934 163.226 94.3419 163.511 95.1498C163.796 95.9576 164.285 96.7065 164.945 97.3474C166.541 98.9797 168.751 100.041 170.956 101.017C173.404 102.101 175.968 103.195 177.633 105.099C177.835 105.329 178.257 105.057 178.055 104.827C175.157 101.515 169.904 100.699 166.391 97.9827C164.752 96.7153 163.566 95.0322 163.762 93.1252C163.933 91.4576 164.946 89.9505 165.728 88.4383C166.585 86.8938 166.971 85.1996 166.853 83.5036C166.64 81.7292 166.062 79.9976 165.146 78.3831C163.152 74.7211 160.474 71.3407 157.209 68.3657C153.506 64.9533 149.123 62.0892 144.25 59.8973C143.948 59.7617 143.752 60.1731 144.052 60.3077Z" fill="white"/>
<path d="M163.077 75.4455C164.499 74.6736 165.542 73.5096 166.02 72.1613C166.498 70.813 166.38 69.3682 165.688 68.085C165.546 67.8257 165.052 67.9948 165.193 68.2544C165.841 69.4483 165.951 70.7941 165.502 72.0489C165.054 73.3037 164.077 74.3848 162.748 75.0971C162.46 75.2522 162.79 75.5997 163.077 75.4455Z" fill="white"/>
<path d="M165.838 87.3572C162.426 86.8013 159.393 85.2038 157.344 82.8833C157.141 82.6532 156.719 82.9252 156.922 83.155C159.06 85.5665 162.22 87.2236 165.772 87.7957C166.111 87.85 166.175 87.4112 165.838 87.3572Z" fill="white"/>
<path d="M153.209 65.4855C152.734 65.8788 152.148 66.1686 151.505 66.3288C150.861 66.4891 150.179 66.5148 149.52 66.4036C149.182 66.3458 149.119 66.7846 149.454 66.8421C150.183 66.9621 150.936 66.933 151.648 66.7572C152.36 66.5815 153.008 66.2645 153.538 65.8339C153.592 65.7967 153.626 65.744 153.635 65.6864C153.644 65.6288 153.625 65.5707 153.584 65.5238C153.54 65.4779 153.476 65.4481 153.406 65.4409C153.336 65.4337 153.265 65.4497 153.209 65.4855Z" fill="white"/>
<path d="M47.5726 113.122C50.1882 113.122 52.6968 113.98 54.5463 115.508C56.3959 117.035 57.4349 119.107 57.4349 121.266C57.4346 123.156 56.639 124.986 55.1843 126.444C53.7297 127.902 51.7065 128.898 49.4611 129.26V142.58H43.166V113.122H47.5726Z" fill="#3F3D56"/>
<path d="M289.147 191.149V193.938C287.715 195.449 286.24 196.931 284.722 198.382C284.559 198.541 284.392 198.696 284.222 198.855C283.965 199.103 283.7 199.349 283.436 199.594V191.149H289.147Z" fill="#CACACA"/>
<path d="M272.39 185.332C271.127 185.333 269.917 185.747 269.024 186.485C268.132 187.222 267.629 188.221 267.628 189.264V194.923C267.629 195.965 268.132 196.965 269.024 197.702C269.917 198.439 271.127 198.854 272.39 198.855H284.222C284.392 198.696 284.559 198.541 284.722 198.382C286.24 196.931 287.715 195.449 289.147 193.938C289.241 193.839 289.335 193.741 289.426 193.642C290.245 192.777 291.049 191.897 291.839 191.011C292.455 190.317 293.068 189.617 293.666 188.911C293.669 188.908 293.673 188.908 293.673 188.905C294.673 187.732 295.648 186.541 296.597 185.332H272.39Z" fill="#3F3D56"/>
<path d="M302.856 136.895C302.129 136.687 301.365 136.582 300.595 136.584H298.649C297.94 136.584 297.236 136.672 296.558 136.844C295.129 137.215 293.881 137.952 292.994 138.949C292.107 139.945 291.628 141.149 291.626 142.386V189.593C291.626 189.77 291.637 189.943 291.655 190.114C291.686 190.417 291.748 190.717 291.84 191.011C292.456 190.317 293.068 189.617 293.666 188.911C293.67 188.908 293.673 188.908 293.673 188.905C294.674 187.732 295.649 186.541 296.598 185.332C297.109 184.682 297.616 184.027 298.113 183.369C301.7 178.615 304.878 173.66 307.622 168.538V142.386C307.62 141.175 307.16 139.994 306.306 139.009C305.451 138.025 304.245 137.285 302.856 136.895Z" fill="#3F3D56"/>
<path d="M63.0048 191.149V196.784C61.3741 195.174 59.7977 193.528 58.2757 191.846C58.0655 191.616 57.8589 191.382 57.6523 191.149H63.0048Z" fill="#CACACA"/>
<path d="M74.0507 185.332H52.7676C53.438 186.184 54.1205 187.027 54.8151 187.86C55.7355 188.97 56.6814 190.067 57.6526 191.149C57.8591 191.382 58.0657 191.616 58.2759 191.846C59.8016 193.528 61.378 195.174 63.0051 196.784C63.3095 197.089 63.6175 197.391 63.9292 197.694C64.3278 198.083 64.7325 198.47 65.1432 198.855H74.0507C75.3128 198.853 76.5227 198.439 77.4148 197.701C78.3068 196.964 78.8082 195.965 78.8089 194.923V189.264C78.8083 188.222 78.3069 187.222 77.4148 186.485C76.5227 185.748 75.3128 185.333 74.0507 185.332Z" fill="#3F3D56"/>
<path d="M51.0345 137.239C50.0312 136.809 48.9177 136.584 47.7875 136.584H45.8451C44.926 136.582 44.0157 136.732 43.167 137.023C41.8813 137.462 40.7819 138.206 40.0078 139.16C39.2338 140.115 38.8198 141.237 38.8184 142.386V162.666C42.4774 170.61 47.1534 178.208 52.7667 185.332C53.4372 186.185 54.1197 187.027 54.8143 187.86V142.386C54.8133 141.325 54.4605 140.284 53.7942 139.377C53.128 138.47 52.1735 137.73 51.0345 137.239Z" fill="#3F3D56"/>
<path d="M130.204 224.885L136.588 223.675L133.977 202.766L124.555 204.551L130.204 224.885Z" fill="#9E616A"/>
<path d="M136.012 206.743C135.881 206.375 135.792 205.997 135.747 205.615C135.694 205.163 135.587 204.717 135.428 204.283C135.247 203.888 135.022 203.508 134.758 203.146C134.631 202.955 134.497 202.763 134.377 202.568C134.257 202.374 134.153 202.173 134.066 201.967C130.329 192.855 125.115 180.472 121.498 173.224C119.371 168.96 106.289 167.541 93.9455 167.179C92.4416 167.134 90.9485 167.104 89.4881 167.089C88.9844 167.083 88.4843 167.077 87.9878 167.074C86.7195 167.068 85.4837 167.068 84.2951 167.08C84.1392 167.08 83.9834 167.08 83.8276 167.083C82.9615 167.089 82.122 167.099 81.309 167.113C75.7209 167.203 71.615 167.412 70.883 167.451L64.3636 164.067L63.0916 163.405L62.9575 164.067L61.932 169.112L60.1816 177.722L64.5702 178.739L67.4186 179.397L84.2951 183.306L87.8827 184.138L87.9045 184.144L93.9455 184.135L110.463 184.111L111.26 185.855C110.974 186.222 110.786 186.636 110.708 187.068C110.63 187.499 110.664 187.94 110.809 188.36C110.953 188.78 111.204 189.17 111.545 189.504C111.886 189.838 112.309 190.108 112.786 190.296L113.406 190.539L120.954 207.033C120.978 208.525 121.542 209.977 122.574 211.202C122.701 211.355 122.839 211.504 122.984 211.651L123.151 211.815L126.053 216.505L127.782 216.175L135.138 214.784L135.175 214.724C135.178 214.715 135.272 214.551 135.41 214.263V214.254C135.986 213.066 137.262 209.819 136.012 206.743Z" fill="#2F2E41"/>
<path d="M153.947 226.275C153.672 225.27 153.159 224.32 152.438 223.479C151.716 222.638 150.8 221.923 149.743 221.376C148.686 220.829 147.508 220.459 146.277 220.289C145.046 220.119 143.787 220.152 142.571 220.386L137.473 218.486L136.045 219.315L130.123 222.744L129.634 222.837L128.047 223.136L130.239 231.027L154.019 226.524L153.947 226.275Z" fill="#2F2E41"/>
<path d="M122.404 214.108L120.248 228.544L120.175 229.016L119.857 231.168C118.614 230.749 117.374 230.315 116.149 229.869C115.004 229.453 113.867 229.024 112.739 228.582V214.111L122.404 214.108Z" fill="#9E616A"/>
<path d="M75.6145 114.866C82.8343 114.866 88.6871 110.033 88.6871 104.071C88.6871 98.1091 82.8343 93.276 75.6145 93.276C68.3948 93.276 62.542 98.1091 62.542 104.071C62.542 110.033 68.3948 114.866 75.6145 114.866Z" fill="#9E616A"/>
<path d="M123.792 219.617C123.429 219.207 123.052 218.779 123.031 218.369C122.947 216.924 122.86 215.493 122.77 214.093C122.705 213.114 122.639 212.147 122.574 211.202C122.567 211.082 122.556 210.962 122.549 210.846C122.436 209.281 122.998 207.629 123.538 206.028C123.716 205.504 123.893 204.974 124.053 204.445C124.451 203.264 124.619 202.039 124.549 200.815C123.621 191.122 119.476 182.007 117.617 180.472C114.79 178.137 102.008 172.745 93.9453 169.465C92.5139 168.882 91.231 168.367 90.1801 167.948C89.2487 167.574 88.4986 167.278 87.9876 167.074C87.5962 166.922 87.3426 166.823 87.2556 166.787L87.2121 166.769L84.2949 167.038L83.8274 167.083L81.2544 167.323L64.5156 168.873L61.9318 169.112L58.2753 169.453L54.9739 169.758L54.8507 169.767L54.829 169.869C54.829 169.872 54.8217 169.893 54.8145 169.932C54.2467 172.89 54.2467 175.904 54.8145 178.862C55.2421 180.87 56.0502 182.911 57.4853 184.628C57.681 184.862 57.8839 185.086 58.1013 185.302C58.1087 185.313 58.1185 185.323 58.1303 185.332C58.1774 185.379 58.2245 185.427 58.2753 185.475V185.478C59.9167 187.055 62.1201 188.162 64.57 188.641C64.9324 188.722 65.302 188.788 65.6825 188.842C69.7377 189.434 74.3183 189.979 78.8083 190.458C80.6673 190.655 82.5119 190.841 84.2949 191.014C87.8644 191.361 91.1984 191.655 93.9453 191.888C97.7939 192.211 100.497 192.412 101.099 192.454L107.821 218.351C107.294 219.088 107.083 219.95 107.224 220.798C107.365 221.646 107.849 222.43 108.597 223.022L109.148 223.462L109.785 225.928L111.887 228.25L112.152 228.543H121.425L121.476 228.493C121.509 228.457 124.77 224.997 124.549 220.877C124.527 220.452 124.169 220.048 123.792 219.617Z" fill="#2F2E41"/>
<path d="M123.539 132.823C122.837 132.665 122.101 132.635 121.383 132.737C120.666 132.839 119.984 133.069 119.386 133.412C118.788 133.755 118.288 134.202 117.922 134.721C117.556 135.241 117.332 135.82 117.266 136.419L106.404 139.222L106.857 145.089L122.129 140.952C123.354 140.976 124.548 140.629 125.484 139.975C126.419 139.321 127.032 138.407 127.206 137.405C127.38 136.403 127.103 135.383 126.427 134.539C125.751 133.694 124.723 133.084 123.539 132.823Z" fill="#9E616A"/>
<path d="M116.452 142.531L108.334 145.068L108.126 145.4C107.88 145.795 107.542 146.146 107.131 146.433C106.721 146.72 106.246 146.937 105.733 147.072C105.221 147.207 104.681 147.258 104.145 147.221C103.609 147.184 103.088 147.06 102.609 146.857L84.363 152.56C84.363 152.56 76.2145 145.826 70.4131 139.817L72.3903 129.774C72.8483 127.444 73.8216 125.203 75.2617 123.164C87.1594 125.319 93.9891 139.053 93.9891 139.053L115.432 135.674L116.452 142.531Z" fill="#1165BA"/>
<path d="M73.757 114.289C70.4843 115.019 66.8762 114.048 64.3222 112.208C61.7682 110.367 60.1705 107.759 59.25 105.065C58.5758 103.091 58.2561 100.901 59.32 99.0488C60.3839 97.1964 63.2473 95.9466 65.4564 96.8823C64.0936 95.5712 64.7744 93.4027 66.366 92.2811C67.9576 91.1595 70.1431 90.838 72.2247 90.6622C75.2455 90.4071 78.3659 90.3785 81.2405 91.1867C84.1151 91.9948 86.7269 93.7617 87.6265 96.1567C88.5454 96.5099 89.5802 96.6016 90.5689 96.4173C91.5575 96.2329 92.4443 95.783 93.0902 95.138C93.2567 95.8788 93.1229 96.6443 92.7096 97.316C92.2963 97.9877 91.6264 98.5282 90.8036 98.8539L95.208 97.6747C95.9654 98.9987 94.6382 100.637 92.9409 101.061C91.2436 101.485 89.4114 101.022 87.8008 100.409C86.1902 99.7968 84.6293 99.0224 82.8798 98.7835C81.1304 98.5446 79.0753 99.0088 78.2661 100.312C77.8423 100.994 77.8202 101.793 77.5741 102.533C77.328 103.272 76.7046 104.039 75.7788 104.1C75.1938 104.138 74.6211 103.881 74.0378 103.933C73.6798 103.991 73.3501 104.135 73.0892 104.345C72.8282 104.556 72.6473 104.825 72.5685 105.119C72.4233 105.709 72.4215 106.317 72.5633 106.908L73.6821 113.97L73.757 114.289Z" fill="#2F2E41"/>
<path d="M90.1804 167.948L89.4883 167.089L84.4366 160.832L84.3351 160.709L85.897 154.018L86.3826 151.929L87.4444 147.383L87.1364 136.978L86.9153 129.617L86.8827 128.462L85.7629 125.643C85.232 124.325 84.3792 123.11 83.2572 122.075C82.1352 121.04 80.7679 120.206 79.2399 119.625L71.7022 116.776C70.8151 116.442 69.8039 116.414 68.8911 116.696C67.9783 116.978 67.2386 117.548 66.8348 118.28C66.8011 118.342 66.7698 118.404 66.7411 118.467C65.7083 118.583 61.2255 119.206 57.424 121.642C54.7609 123.315 52.9018 125.713 52.1766 128.411C52.1694 128.432 52.1657 128.453 52.1585 128.474C51.6548 130.332 51.2779 133.265 51.0351 137.239C50.872 139.866 50.7693 142.944 50.7271 146.474C50.6594 152.356 51.0601 158.236 51.9266 164.076C52.0099 164.632 52.0969 165.186 52.1875 165.742C52.2636 166.209 52.8072 166.655 53.3326 167.083C53.8146 167.475 54.3111 167.882 54.3799 168.25C54.4416 168.573 54.1915 168.912 53.8943 169.265C53.8581 169.31 53.8182 169.354 53.782 169.399C53.4124 169.833 53.0319 170.285 53.1297 170.761C53.358 171.832 53.4921 172.922 53.6189 173.975C53.7606 175.425 54.0148 176.867 54.3799 178.29C54.5068 178.727 54.6517 179.167 54.8148 179.607C55.1953 180.639 55.6556 181.669 56.1049 182.674C56.4927 183.548 56.8949 184.446 57.2356 185.332C57.3008 185.496 57.3624 185.658 57.4204 185.819L57.4494 185.903L57.5545 185.918H57.5617C57.7045 185.708 57.8746 185.511 58.0691 185.332C58.0779 185.32 58.0889 185.31 58.1017 185.302C58.1524 185.251 58.2104 185.197 58.2756 185.14C59.0693 184.425 60.7942 183.141 64.5703 180.977C65.4147 180.496 66.3605 179.972 67.4187 179.397C71.2999 177.3 76.7213 174.567 84.2952 171.039C86.1941 170.153 88.232 169.217 90.4087 168.229L90.1804 167.948Z" fill="#1165BA"/>
<path d="M130.83 233.777C129.95 233.048 128.903 232.469 127.75 232.075C126.598 231.681 125.362 231.48 124.115 231.482L120.176 229.016L119.657 228.69L116.149 229.869C117.374 230.315 118.614 230.749 119.857 231.168C123.745 232.479 127.716 233.65 131.768 234.681C131.484 234.361 131.17 234.059 130.83 233.777Z" fill="#2F2E41"/>
<path d="M218.322 224.681L213.389 222.732L220.166 205.703L227.447 208.579L218.322 224.681Z" fill="#FFB6B6"/>
<path d="M251.397 221.936C249.962 222.675 248.508 223.393 247.037 224.091V224.1L247.015 224.103L247.008 224.106L246.45 224.219L245.649 222.472L243.801 218.441L238.764 207.458L246.595 205.863L247.037 207.345L250.349 218.438L251.299 221.61L251.397 221.936Z" fill="#FFB6B6"/>
<path d="M231.424 150.666C232.127 151.61 233.25 152.289 234.552 152.558C235.853 152.828 237.231 152.667 238.391 152.109C238.624 151.993 238.846 151.86 239.052 151.714L254.65 159.105L253.972 151.518L239.265 145.662C238.464 144.998 237.42 144.572 236.295 144.451C235.17 144.33 234.028 144.521 233.049 144.993C231.928 145.549 231.12 146.45 230.803 147.498C230.486 148.546 230.687 149.654 231.36 150.58C231.381 150.609 231.402 150.638 231.424 150.666Z" fill="#FFB6B6"/>
<path d="M247.944 156.322L250.701 157.709L263.084 163.945C263.897 164.364 264.802 164.648 265.747 164.779C266.693 164.91 267.661 164.886 268.595 164.709C269.529 164.531 270.412 164.203 271.193 163.744C271.974 163.284 272.637 162.703 273.146 162.031L273.15 162.026C274.067 160.779 274.391 159.295 274.061 157.862L268.557 135.156C268.354 134.265 267.92 133.42 267.285 132.68C266.65 131.94 265.829 131.322 264.878 130.868C263.927 130.414 262.869 130.135 261.775 130.05C260.682 129.965 259.579 130.076 258.542 130.375C256.799 130.881 255.355 131.916 254.504 133.27C253.652 134.624 253.457 136.194 253.959 137.662L259.714 153.776L250.892 150.38L247.944 156.322Z" fill="#1165BA"/>
<path d="M298.718 178.709C298.714 178.7 298.707 178.667 298.696 178.616L298.685 178.583C298.66 178.476 298.631 178.356 298.598 178.224C297.859 175.192 296.909 172.198 295.753 169.256C295.069 167.454 294.161 165.715 293.046 164.067C293.01 164.013 292.97 163.959 292.93 163.905L292.796 163.726L291.669 164.067L291.626 164.079L274.492 169.265L269.538 170.764L269.382 170.812L268.538 173.655L256.691 172.389L247.037 171.357L244.265 171.06C243.063 170.931 241.842 171 240.673 171.264C239.504 171.528 238.41 171.982 237.456 172.598C236.459 173.236 235.627 174.032 235.006 174.938C234.386 175.844 233.99 176.843 233.842 177.877C233.806 178.105 233.785 178.335 233.774 178.562L232.937 204.349V204.382L233.324 205.022L241.424 218.441H247.037L250.349 218.438H253.042L247.443 206.74L247.57 206.581C248.097 205.915 248.429 205.156 248.54 204.365C248.651 203.574 248.539 202.773 248.211 202.024L248.842 200.516C250.15 197.4 249.53 195.904 248.748 194.013C248.045 192.475 247.631 190.857 247.523 189.216L247.392 187.082C250.679 187.558 253.741 188.088 256.691 188.62C257.677 188.797 258.653 188.975 259.619 189.156C262.37 189.662 265.026 190.15 267.628 190.557C272.897 191.385 277.945 191.891 283.131 191.577C283.233 191.571 283.334 191.565 283.436 191.556C284.697 191.472 285.965 191.338 287.248 191.149C287.969 191.041 288.694 190.919 289.426 190.775C289.629 190.733 289.835 190.691 290.038 190.649C290.602 190.527 291.145 190.347 291.655 190.114C292.38 189.779 293.055 189.375 293.666 188.911C293.669 188.908 293.673 188.908 293.673 188.905C294.673 187.732 295.648 186.541 296.598 185.332C297.109 184.682 297.616 184.027 298.112 183.368C298.837 181.726 299.113 180.068 298.718 178.709Z" fill="#2F2E41"/>
<path d="M298.837 173.864C298.783 173.673 298.714 173.478 298.641 173.29C298.066 171.862 297.396 170.461 296.634 169.094C295.778 167.538 294.753 165.871 293.531 164.067C292.941 163.193 292.305 162.284 291.625 161.341C291.285 160.868 290.931 160.386 290.563 159.895C290.549 159.873 290.533 159.851 290.516 159.829L290.411 159.686L273.459 161.559L267.146 162.256L266.769 164.854L266.678 165.497C266.675 165.497 266.675 165.497 266.678 165.5L266.425 167.254V167.257L266.088 169.573L266.059 169.57L256.691 168.567L247.037 167.535L241.851 166.981C240.649 166.852 239.428 166.921 238.259 167.186C237.09 167.45 235.997 167.903 235.042 168.52C234.045 169.157 233.213 169.953 232.593 170.859C231.972 171.765 231.577 172.765 231.429 173.798C231.396 174.008 231.374 174.223 231.363 174.436L226.471 184.009C223.544 189.734 221.679 195.791 220.941 201.976L217.354 211.447L217.864 211.486L225.467 212.07L227.475 212.225L231.896 206.896C232.4 206.288 232.878 205.663 233.324 205.022C234.058 203.976 234.71 202.893 235.277 201.778L244.841 182.985C245.58 183.09 246.312 183.19 247.037 183.285C250.389 183.734 253.607 184.1 256.691 184.383C266.718 185.308 275.401 185.379 283.131 184.595C285.302 184.377 287.4 184.09 289.426 183.734C290.169 183.605 290.902 183.466 291.625 183.318C291.796 183.285 291.962 183.252 292.129 183.216C293.627 182.897 295.004 182.273 296.134 181.401C297.264 180.529 298.111 179.437 298.598 178.224C299.179 176.819 299.262 175.307 298.837 173.864Z" fill="#2F2E41"/>
<path d="M262.788 117.345C269.264 117.345 274.514 112.913 274.514 107.446C274.514 101.979 269.264 97.5465 262.788 97.5465C256.312 97.5465 251.062 101.979 251.062 107.446C251.062 112.913 256.312 117.345 262.788 117.345Z" fill="#FFB6B6"/>
<path d="M290.633 160.227C290.615 160.117 290.593 160.006 290.564 159.895C290.285 158.68 289.56 157.489 288.861 156.334C288.194 155.233 287.56 154.191 287.299 153.156C287.042 152.136 287.194 151.112 287.343 150.125C287.502 149.053 287.669 147.946 287.296 146.872C285.402 141.385 282.803 136.082 279.54 131.053C278.717 128.842 277.139 126.874 274.996 125.384C272.852 123.895 270.234 122.948 267.455 122.656C267.779 122.156 267.914 121.587 267.842 121.022C267.797 120.658 267.664 120.304 267.452 119.982C267.24 119.66 266.953 119.376 266.607 119.146C266.274 118.925 265.892 118.76 265.482 118.662C265.072 118.563 264.643 118.532 264.219 118.571L258.768 119.077C257.894 119.168 257.099 119.54 256.556 120.112C256.012 120.684 255.764 121.41 255.865 122.133C255.896 122.355 255.957 122.574 256.047 122.785C250.988 128.106 248.389 132.953 248.15 137.538V137.541C248.121 138.07 248.125 138.601 248.161 139.13C248.276 140.841 248.726 142.526 249.495 144.119C250.402 145.958 251.617 147.684 253.104 149.245C253.408 149.562 253.724 149.873 254.05 150.178C254.354 150.478 254.695 150.792 255.072 151.121L256.025 152.354L256.913 153.506L261.66 162.552L264.077 162.487L264.414 164.477L264.494 164.94L266.059 169.57L266.175 169.917L268.317 169.076L281.095 164.067L290.648 160.32L290.633 160.227Z" fill="#1165BA"/>
<path opacity="0.2" d="M249.638 144.071C250.727 146.274 252.259 148.311 254.168 150.094C254.495 150.416 254.841 150.733 255.202 151.05L257.057 153.454C263.895 149.221 269.435 132.556 269.435 132.556L261.72 131.317L249.638 144.071Z" fill="black"/>
<path d="M244.967 118.27C245.643 119.228 245.839 120.366 245.514 121.442C245.188 122.518 244.368 123.446 243.226 124.03C242.992 124.146 242.746 124.245 242.492 124.328L243.038 139.171L235.254 135.125L235.929 121.649C235.597 120.753 235.635 119.79 236.036 118.913C236.436 118.036 237.177 117.293 238.143 116.8C239.259 116.242 240.598 116.074 241.865 116.331C243.132 116.589 244.223 117.251 244.899 118.173C244.922 118.205 244.945 118.237 244.967 118.27Z" fill="#FFB6B6"/>
<path d="M243.723 133.568L235.162 134.574L235.53 149.212C235.552 150.257 235.896 151.279 236.531 152.183C237.165 153.086 238.069 153.84 239.156 154.374C240.485 155.019 242.031 155.291 243.562 155.147C245.093 155.004 246.526 154.453 247.646 153.578L267.856 137.526C269.278 136.412 270.129 134.89 270.234 133.274C270.339 131.658 269.69 130.07 268.421 128.836C267.177 127.621 265.399 126.863 263.479 126.729C261.558 126.596 259.652 127.098 258.179 128.125C258.122 128.165 258.065 128.206 258.009 128.248C257.809 128.395 257.619 128.551 257.44 128.716L244.095 141.393L243.723 133.568Z" fill="#1165BA"/>
<path d="M251.614 221.562L251.299 221.61L247.037 222.259L245.649 222.472L243.464 222.804L244.239 225.386C245.171 224.97 246.091 224.543 247.008 224.106L247.015 224.103L247.037 224.1V224.091C248.508 223.396 249.962 222.678 251.397 221.936C251.498 221.885 251.6 221.834 251.701 221.777L251.614 221.562Z" fill="#2F2E41"/>
<path d="M219.898 221.9L214.56 219.787L213.723 219.455L212.386 222.167L203.05 223.863C202.589 223.947 202.172 224.15 201.86 224.443C201.548 224.737 201.358 225.105 201.318 225.493C201.277 225.882 201.388 226.271 201.635 226.604C201.881 226.937 202.25 227.196 202.688 227.344L211.809 230.417L214.705 228.265L213.995 231.153L217.43 232.311L221.195 222.415L219.898 221.9Z" fill="#2F2E41"/>
<path d="M294.167 103.152C292.174 101.233 291.226 98.6863 289.633 96.5066C288.04 94.327 285.267 92.3762 282.337 92.8834C280.318 93.2331 278.757 94.7045 277.967 96.345C277.177 97.9855 277.029 99.7947 276.891 101.567C276.94 97.9248 274.034 94.3939 270.031 93.2317C266.028 92.0695 261.238 93.3658 258.722 96.292C257.625 95.4518 256.192 94.9735 254.696 94.9475C253.199 94.9216 251.744 95.3499 250.604 96.1512C248.354 97.8117 247.857 100.972 249.511 103.09C251.166 105.208 254.749 105.997 257.378 104.822L258.308 105.529C257.785 107.04 258.8 108.825 260.505 109.394C261.889 109.855 263.841 109.778 264.359 110.977C264.721 111.815 264.045 112.709 263.325 113.352C262.606 113.996 261.752 114.66 261.666 115.551C261.536 116.895 263.217 117.836 264.746 118.12C268.432 118.803 272.522 117.394 274.646 114.707C274.687 114.656 274.732 114.604 274.78 114.552C275.972 113.293 276.841 111.847 277.333 110.302C277.825 108.756 277.931 107.144 277.643 105.564C277.524 104.943 277.644 104.482 278.162 104.335C280.403 103.699 286.68 105.033 288.58 106.238C290.48 107.444 292.001 109.039 293.831 110.323C295.661 111.606 297.993 112.596 300.316 112.246C302.177 111.966 303.76 110.851 304.825 109.505C305.89 108.16 306.503 106.591 307.051 105.032C302.936 106.995 297.305 106.173 294.167 103.152Z" fill="#2F2E41"/>
<path d="M256.69 162.159V219.077C255.378 219.822 254.049 220.547 252.703 221.253V165.933C252.703 164.329 252.051 163.027 251.25 163.024H190.916C190.111 163.027 189.463 164.329 189.459 165.933V239.387C188.654 239.453 187.85 239.516 187.045 239.57C186.712 239.594 186.375 239.615 186.042 239.636C185.85 239.342 185.661 239.046 185.473 238.747V162.159C185.473 161.716 185.494 161.271 185.531 160.831C185.857 157.096 187.477 154.367 189.372 154.361H252.79C253.02 154.362 253.247 154.402 253.457 154.478C255.044 155.034 256.298 157.476 256.613 160.633C256.664 161.136 256.693 161.648 256.69 162.159Z" fill="#E4E4E4"/>
<path d="M159.885 162.159V239.16C159.83 239.232 159.776 239.3 159.722 239.372C158.359 239.259 157.003 239.128 155.652 238.98V165.933C155.652 164.329 154.96 163.027 154.108 163.024H90.0704C89.2188 163.027 88.5267 164.329 88.5267 165.933V216.644C87.0952 215.773 85.6843 214.881 84.2939 213.966V162.159C84.2939 161.716 84.3157 161.271 84.3555 160.831C84.6998 157.096 86.4212 154.367 88.4361 154.361H155.743C155.985 154.361 156.225 154.401 156.449 154.478C158.135 155.034 159.468 157.476 159.805 160.633C159.859 161.136 159.885 161.648 159.885 162.159Z" fill="#E4E4E4"/>
<path d="M138.424 136.57L142.621 151.819L145.302 154.244H147.237L139.263 126.52L138.869 131.23V131.233L138.424 136.57Z" fill="#3F3D56"/>
<path d="M152.399 155.023C152.387 155 152.371 154.978 152.352 154.957C152.314 154.885 152.258 154.82 152.189 154.766L151.7 154.362L149.127 152.234C148.938 152.082 148.685 151.996 148.42 151.995H148.409L146.594 152.004L145.032 152.013L142.85 152.025L127.992 152.103L118.226 152.153C117.962 152.156 117.709 152.245 117.522 152.4C117.336 152.555 117.231 152.764 117.229 152.982C117.231 153.103 117.263 153.223 117.324 153.333L117.512 153.665L117.907 154.362L118.422 155.275L118.675 155.724C118.756 155.866 118.885 155.987 119.046 156.072C119.207 156.157 119.394 156.202 119.585 156.202H151.479C151.647 156.2 151.811 156.163 151.958 156.096C152.104 156.028 152.229 155.932 152.32 155.815C152.41 155.699 152.465 155.566 152.479 155.428C152.493 155.289 152.466 155.151 152.399 155.023Z" fill="#3F3D56"/>
<path opacity="0.17" d="M118.422 155.274L118.674 155.725C118.756 155.867 118.884 155.987 119.046 156.072C119.207 156.157 119.393 156.202 119.584 156.203H151.48C151.647 156.2 151.812 156.164 151.958 156.096C152.105 156.029 152.229 155.933 152.32 155.816C152.411 155.7 152.465 155.566 152.479 155.428C152.493 155.29 152.465 155.152 152.399 155.024C152.387 155.001 152.372 154.978 152.352 154.959L118.422 155.274Z" fill="black"/>
<path opacity="0.17" d="M138.868 131.23V131.233L145.696 154.244H147.236L139.263 126.52L138.868 131.23Z" fill="black"/>
<path d="M149.58 66.8338L148.579 66.7231C148.305 66.6935 148.027 66.7549 147.807 66.8936L147.209 67.2737L140.552 74.1505C140.333 74.2908 140.189 74.4975 140.154 74.7251L139.781 77.0652L130.489 135.446C130.456 135.663 130.522 135.881 130.674 136.06L135.051 146.025L135.182 146.18L135.464 146.513C135.61 146.681 135.823 146.802 136.066 146.854L136.7 146.985C136.844 147.015 136.994 147.019 137.141 146.998C137.287 146.976 137.426 146.929 137.548 146.86C137.671 146.791 137.775 146.702 137.853 146.598C137.93 146.494 137.98 146.377 137.998 146.255L139.132 139.139V139.136L139.857 134.569L140.469 130.718V130.715L150.485 67.8034C150.522 67.5762 150.447 67.3465 150.278 67.1648C150.109 66.9831 149.86 66.8642 149.585 66.8343L149.58 66.8338Z" fill="#3F3D56"/>
<path opacity="0.17" d="M147.208 67.274L135.051 146.026L135.183 146.18L135.465 146.512C135.61 146.681 135.823 146.802 136.066 146.853L136.701 146.985C136.845 147.014 136.995 147.018 137.141 146.997C137.286 146.975 137.425 146.928 137.547 146.859C137.67 146.791 137.773 146.701 137.851 146.597C137.929 146.493 137.979 146.376 137.998 146.255L150.485 67.8044C150.521 67.5766 150.446 67.3462 150.276 67.164C150.107 66.9817 149.857 66.8625 149.581 66.8325L148.578 66.7236C148.442 66.7085 148.304 66.7158 148.171 66.7452C148.039 66.7746 147.915 66.8256 147.806 66.895L147.208 67.274Z" fill="black"/>
<path d="M146.85 69.5261L140.399 77.1304L132.73 125.31L136.888 132.121L146.85 69.5261Z" fill="#1165BA"/>
<path d="M209.695 136.57L205.498 151.819L202.817 154.244H200.882L208.856 126.52L209.25 131.23V131.233L209.695 136.57Z" fill="#3F3D56"/>
<path d="M229.892 152.153L205.272 152.025L203.087 152.013L201.528 152.004L199.713 151.995H199.698C199.435 151.995 199.182 152.081 198.995 152.234L195.929 154.766C195.861 154.821 195.806 154.886 195.766 154.957C195.747 154.978 195.731 155 195.719 155.023C195.653 155.151 195.625 155.289 195.639 155.428C195.653 155.566 195.708 155.699 195.799 155.815C195.89 155.932 196.014 156.028 196.161 156.096C196.307 156.163 196.472 156.2 196.64 156.202H228.534C228.725 156.202 228.912 156.157 229.074 156.072C229.235 155.987 229.365 155.866 229.447 155.724L229.697 155.275L230.211 154.362L230.795 153.333C230.857 153.223 230.889 153.103 230.889 152.982C230.888 152.764 230.782 152.555 230.596 152.4C230.41 152.245 230.157 152.156 229.892 152.153Z" fill="#3F3D56"/>
<path opacity="0.17" d="M229.696 155.274L229.445 155.725C229.363 155.867 229.234 155.987 229.073 156.072C228.912 156.157 228.725 156.202 228.534 156.203H196.639C196.471 156.2 196.307 156.164 196.16 156.096C196.014 156.029 195.889 155.933 195.798 155.816C195.708 155.7 195.653 155.566 195.639 155.428C195.625 155.29 195.653 155.152 195.72 155.024C195.731 155.001 195.746 154.978 195.766 154.959L229.696 155.274Z" fill="black"/>
<path opacity="0.17" d="M209.25 131.23V131.233L202.422 154.244H200.882L208.856 126.52L209.25 131.23Z" fill="black"/>
<path d="M217.629 135.446L207.964 74.725C207.929 74.4975 207.786 74.2908 207.566 74.1505L200.912 67.2737L200.314 66.8936C200.093 66.7551 199.814 66.6939 199.539 66.723L198.539 66.8338C198.263 66.8631 198.012 66.9818 197.842 67.1636C197.673 67.3454 197.597 67.5756 197.633 67.8033L207.649 130.718V130.721L208.262 134.569L208.99 139.139V139.145L210.121 146.255C210.139 146.377 210.188 146.494 210.267 146.599C210.345 146.703 210.45 146.792 210.574 146.86C210.695 146.929 210.834 146.976 210.979 146.998C211.125 147.019 211.274 147.015 211.418 146.985L212.052 146.854C212.295 146.802 212.508 146.681 212.654 146.513L212.936 146.18L213.067 146.025L217.444 136.06C217.598 135.882 217.664 135.663 217.629 135.446Z" fill="#3F3D56"/>
<path opacity="0.17" d="M200.91 67.274L213.068 146.026L212.936 146.18L212.654 146.512C212.509 146.681 212.295 146.801 212.052 146.853L211.417 146.985C211.273 147.014 211.124 147.018 210.978 146.997C210.832 146.975 210.693 146.928 210.571 146.859C210.449 146.791 210.345 146.701 210.267 146.597C210.19 146.493 210.14 146.376 210.12 146.255L197.634 67.8044C197.598 67.5766 197.673 67.3462 197.842 67.164C198.011 66.9817 198.262 66.8625 198.537 66.8325L199.54 66.7236C199.676 66.7085 199.815 66.7158 199.947 66.7452C200.08 66.7746 200.204 66.8255 200.312 66.895L200.91 67.274Z" fill="black"/>
<path d="M201.269 69.5261L207.72 77.1304L215.388 125.31L211.231 132.121L201.269 69.5261Z" fill="#1165BA"/>
<path d="M81.3562 166.664C81.3572 166.815 81.3414 166.965 81.3091 167.113C81.2946 167.185 81.2764 167.254 81.2547 167.323C81.0782 167.879 80.6834 168.371 80.1319 168.723C79.5805 169.074 78.9035 169.265 78.207 169.265H64.5703V196.123C64.5709 196.69 64.3455 197.242 63.9288 197.694C63.6172 197.391 63.3092 197.089 63.0047 196.784C61.374 195.174 59.7976 193.528 58.2756 191.846V169.265H52.1874C51.3756 169.264 50.5954 169.005 50.0098 168.541C49.4241 168.076 49.0784 167.443 49.0447 166.774C49.011 166.104 49.292 165.449 49.829 164.946C50.3661 164.444 51.1175 164.132 51.9265 164.076C52.0135 164.07 52.1004 164.067 52.1874 164.067H78.207C79.0417 164.067 79.8423 164.34 80.4328 164.827C81.0234 165.314 81.3555 165.975 81.3562 166.664Z" fill="#3F3D56"/>
<path d="M298.656 166.664C298.656 167.191 298.463 167.705 298.102 168.139C297.741 168.572 297.229 168.906 296.634 169.094C296.352 169.183 296.055 169.238 295.753 169.256C295.674 169.262 295.59 169.265 295.511 169.265H289.426V193.642C289.335 193.741 289.241 193.839 289.147 193.938C287.716 195.449 286.241 196.931 284.722 198.382C284.237 198.156 283.834 197.828 283.555 197.431C283.275 197.034 283.129 196.582 283.131 196.123V169.265H269.491C269.088 169.266 268.69 169.202 268.317 169.076C267.847 168.921 267.43 168.675 267.101 168.358C266.771 168.041 266.54 167.663 266.425 167.257V167.254C266.256 166.663 266.346 166.042 266.679 165.5C266.675 165.497 266.675 165.497 266.679 165.497C266.823 165.259 267.011 165.041 267.237 164.851C267.53 164.603 267.881 164.405 268.268 164.271C268.655 164.136 269.071 164.067 269.491 164.067H295.511C296.345 164.067 297.145 164.34 297.735 164.827C298.324 165.314 298.656 165.975 298.656 166.663L298.656 166.664Z" fill="#3F3D56"/>
<path d="M298.447 116.588C297.152 116.588 295.87 116.799 294.673 117.208C293.477 117.617 292.389 118.217 291.474 118.973C290.558 119.73 289.831 120.627 289.336 121.615C288.84 122.604 288.585 123.663 288.585 124.732C288.585 126.621 289.381 128.452 290.836 129.91C292.29 131.368 294.313 132.363 296.559 132.725V146.045H302.854V116.588H298.447Z" fill="#3F3D56"/>
<path d="M126.258 146.326C125.63 146.022 124.929 145.835 124.204 145.778C123.48 145.722 122.749 145.797 122.063 145.999C121.377 146.202 120.754 146.525 120.236 146.948C119.718 147.371 119.319 147.882 119.066 148.446L107.695 148.812L106.163 153.186L122.329 153.869C123.504 154.157 124.766 154.078 125.876 153.649C126.986 153.219 127.867 152.469 128.351 151.539C128.835 150.609 128.89 149.565 128.504 148.604C128.118 147.643 127.319 146.833 126.258 146.326Z" fill="#9E616A"/>
<path d="M116.918 154.341L105.237 154.221L103.758 154.204L79.9938 153.957C79.9938 153.957 73.5403 148.873 67.9209 143.638L68.7085 138.934C69.4768 134.317 72.2502 130.088 76.5127 127.034C84.561 131.475 89.2283 140.265 89.2283 140.265L97.0542 143.157C102.562 143.36 107.928 144.658 112.699 146.94L115.272 148.171L116.918 154.341Z" fill="#1165BA"/>
<path d="M153.616 238.748H195.748C192.874 239.095 189.974 239.369 187.047 239.571H162.317C159.389 239.37 156.489 239.096 153.616 238.748Z" fill="#CCCCCC"/>
<path d="M162.088 221.233C162.903 215.156 167.359 209.128 174.334 207.077C171.672 213.352 171.783 220.202 174.649 226.415C175.764 228.808 177.307 231.374 176.333 233.809C175.728 235.324 174.205 236.495 172.494 237.236C170.782 237.976 168.875 238.341 166.992 238.699L166.625 238.957C163.536 233.4 161.272 227.31 162.088 221.233Z" fill="#CCCCCC"/>
<path d="M174.406 207.19C170.386 211.011 167.927 215.78 167.377 220.82C167.235 221.904 167.301 222.999 167.572 224.065C167.877 225.097 168.511 226.042 169.408 226.803C170.227 227.527 171.167 228.188 171.758 229.064C172.053 229.515 172.229 230.014 172.275 230.525C172.32 231.037 172.234 231.551 172.022 232.034C171.532 233.247 170.542 234.243 169.534 235.188C168.415 236.239 167.232 237.315 166.771 238.696C166.715 238.863 166.404 238.782 166.46 238.615C167.261 236.212 170.053 234.822 171.36 232.651C171.969 231.638 172.213 230.468 171.609 229.413C171.081 228.49 170.113 227.807 169.276 227.08C168.388 226.348 167.73 225.448 167.36 224.458C167.024 223.406 166.907 222.315 167.014 221.231C167.209 218.788 167.867 216.385 168.965 214.11C170.201 211.509 171.967 209.101 174.187 206.991C174.324 206.86 174.542 207.061 174.406 207.19Z" fill="white"/>
<path d="M167.438 219.189C166.427 218.998 165.531 218.516 164.909 217.83C164.288 217.143 163.983 216.297 164.048 215.442C164.051 215.407 164.07 215.374 164.101 215.351C164.133 215.328 164.174 215.315 164.216 215.317C164.259 215.318 164.299 215.333 164.328 215.358C164.357 215.383 164.374 215.417 164.374 215.452C164.312 216.248 164.596 217.036 165.176 217.674C165.756 218.313 166.593 218.758 167.537 218.932C167.742 218.97 167.642 219.226 167.438 219.189Z" fill="white"/>
<path d="M168.934 226.482C170.74 225.564 172.062 224.117 172.634 222.43C172.69 222.263 173.002 222.344 172.945 222.511C172.346 224.266 170.967 225.769 169.084 226.721C168.905 226.811 168.755 226.572 168.934 226.482Z" fill="white"/>
<path d="M170.508 211.761C170.881 211.902 171.29 211.964 171.699 211.943C172.108 211.921 172.505 211.816 172.853 211.636C173.031 211.544 173.18 211.784 173.003 211.875C172.618 212.072 172.18 212.188 171.728 212.213C171.276 212.238 170.823 212.171 170.41 212.018C170.369 212.006 170.336 211.982 170.316 211.95C170.296 211.919 170.292 211.883 170.303 211.849C170.316 211.815 170.345 211.786 170.384 211.77C170.422 211.753 170.467 211.75 170.508 211.761Z" fill="white"/>
<path d="M195.867 217.677C195.758 217.737 195.648 217.798 195.539 217.86C194.077 218.678 192.697 219.592 191.413 220.594C191.313 220.67 191.212 220.749 191.114 220.827C188.054 223.269 185.568 226.158 183.785 229.349C183.077 230.619 182.487 231.932 182.02 233.276C181.375 235.132 180.855 237.187 179.543 238.714C179.409 238.875 179.262 239.028 179.105 239.174L167.034 239.307C167.007 239.296 166.979 239.287 166.951 239.276L166.47 239.3C166.488 239.229 166.509 239.156 166.527 239.085C166.537 239.044 166.55 239.003 166.561 238.962C166.568 238.935 166.576 238.907 166.581 238.882C166.584 238.873 166.587 238.864 166.589 238.857C166.594 238.832 166.602 238.809 166.607 238.786C166.722 238.378 166.84 237.97 166.962 237.561C166.962 237.559 166.962 237.559 166.965 237.557C167.858 234.437 169.196 231.415 170.951 228.556C171.004 228.471 171.058 228.384 171.117 228.299C171.931 227.033 172.868 225.824 173.921 224.683C174.499 224.061 175.115 223.463 175.767 222.891C177.455 221.418 179.413 220.173 181.569 219.202C185.867 217.266 190.868 216.488 195.513 217.59C195.632 217.618 195.748 217.646 195.867 217.677Z" fill="#CCCCCC"/>
<path d="M195.841 217.804C189.847 218.856 184.406 221.441 180.292 225.192C179.389 225.986 178.643 226.893 178.082 227.88C177.574 228.855 177.39 229.925 177.552 230.979C177.678 231.964 177.946 232.959 177.78 233.952C177.686 234.459 177.463 234.945 177.126 235.376C176.79 235.807 176.346 236.175 175.825 236.454C174.549 237.18 173.033 237.483 171.539 237.737C169.879 238.018 168.15 238.29 166.775 239.163C166.609 239.269 166.42 239.049 166.586 238.944C168.978 237.424 172.22 237.701 174.846 236.618C176.071 236.113 177.119 235.299 177.406 234.156C177.657 233.157 177.383 232.13 177.244 231.134C177.069 230.108 177.2 229.062 177.626 228.088C178.125 227.081 178.827 226.152 179.703 225.34C181.64 223.485 183.917 221.894 186.452 220.624C189.336 219.161 192.502 218.117 195.812 217.535C196.017 217.499 196.045 217.768 195.841 217.804Z" fill="white"/>
<path d="M181.53 223.92C180.862 223.264 180.498 222.434 180.502 221.577C180.506 220.72 180.88 219.893 181.555 219.242C181.692 219.111 181.946 219.281 181.808 219.412C181.178 220.017 180.831 220.788 180.828 221.586C180.826 222.384 181.169 223.156 181.796 223.763C181.932 223.895 181.666 224.051 181.53 223.92Z" fill="white"/>
<path d="M177.408 230.486C179.52 230.651 181.629 230.153 183.316 229.091C183.483 228.986 183.672 229.205 183.505 229.311C181.748 230.413 179.551 230.928 177.354 230.752C177.145 230.735 177.2 230.469 177.408 230.486Z" fill="white"/>
<path d="M189.398 219.515C189.592 219.813 189.873 220.067 190.216 220.253C190.559 220.439 190.952 220.552 191.36 220.581C191.57 220.596 191.515 220.862 191.306 220.847C190.855 220.813 190.421 220.688 190.042 220.483C189.663 220.278 189.35 219.999 189.132 219.671C189.108 219.642 189.099 219.606 189.106 219.571C189.113 219.536 189.136 219.505 189.17 219.483C189.205 219.463 189.249 219.455 189.292 219.46C189.334 219.466 189.372 219.486 189.398 219.515Z" fill="white"/>
<path d="M202.128 226.143C204.248 226.143 205.967 224.724 205.967 222.973C205.967 221.222 204.248 219.803 202.128 219.803C200.008 219.803 198.289 221.222 198.289 222.973C198.289 224.724 200.008 226.143 202.128 226.143Z" fill="#CCCCCC"/>
<path d="M214.66 235.401C214.424 235.457 214.185 235.514 213.946 235.568C211.775 236.071 209.589 236.531 207.387 236.948C207.133 236.525 206.997 236.061 206.989 235.589C206.98 235.118 207.099 234.651 207.337 234.222C207.575 233.793 207.925 233.414 208.363 233.111C208.801 232.808 209.316 232.59 209.869 232.472C210.422 232.355 211 232.341 211.56 232.431C212.121 232.521 212.65 232.713 213.109 232.994C213.568 233.275 213.946 233.636 214.214 234.053C214.482 234.469 214.635 234.929 214.66 235.401Z" fill="#CCCCCC"/>
<path d="M236.593 228.596C236.299 228.709 236.005 228.823 235.712 228.934C235.393 229.059 235.07 229.179 234.752 229.299C234.393 229.433 234.038 229.565 233.679 229.697C232.331 230.194 230.968 230.672 229.602 231.133C229.584 231.109 229.566 231.082 229.548 231.055C229.069 230.315 228.966 229.448 229.261 228.644C229.555 227.841 230.224 227.166 231.119 226.769C232.015 226.372 233.065 226.285 234.039 226.526C235.012 226.768 235.831 227.318 236.313 228.057C236.424 228.23 236.518 228.41 236.593 228.596Z" fill="#CCCCCC"/>
<path d="M215.667 218.362C217.787 218.362 219.506 216.943 219.506 215.192C219.506 213.441 217.787 212.022 215.667 212.022C213.547 212.022 211.828 213.441 211.828 215.192C211.828 216.943 213.547 218.362 215.667 218.362Z" fill="#CCCCCC"/>
<path d="M180.453 41.5069C157.873 46.4117 132.854 49.3952 107.414 50.2122C103.686 50.3799 99.9484 50.3589 96.2232 50.1493C88.0368 49.5807 81.0246 47.4561 73.2151 46.295C69.4607 45.7383 65.2788 45.3314 61.499 44.7299C62.3724 43.8351 63.2614 42.9513 64.1662 42.0785C72.3164 42.6471 80.5933 44.5084 88.8413 45.3733C102.862 46.8456 118.572 45.2027 129.201 41.1508C134.358 39.1847 138.308 36.7309 143.446 34.7558C144.145 34.4595 144.902 34.268 145.682 34.1902C147.309 34.0675 148.737 34.6092 149.9 35.094C158.522 38.688 171.039 41.6087 182.657 40.0017C183.523 40.5613 181.878 41.1987 180.453 41.5069Z" fill="white"/>
<path d="M231.867 54.1548C231.973 54.1388 232.079 54.1263 232.185 54.1111C231.739 53.8827 231.319 53.6212 230.93 53.33L231.867 54.1548Z" fill="white"/>
<path d="M301.417 61.2456C296.564 61.5658 291.686 61.8042 286.783 61.9608C283.055 62.127 279.318 62.106 275.593 61.8979C267.406 61.3264 260.394 59.2047 252.584 58.0436C245.427 56.9812 236.73 56.4695 232.186 54.1114C243.931 52.4326 256.1 55.8501 268.211 57.1219C278.007 58.1166 287.938 57.7117 297.568 55.9249C298.909 57.6665 300.192 59.4401 301.417 61.2456Z" fill="white"/>
<path d="M192.184 106.135C180.816 73.9146 174.125 40.6937 174.125 7.13399V4.70178H170.348V7.13393C170.348 40.6937 163.657 73.9146 152.29 106.135C151.74 107.695 151.462 109.311 151.463 110.935C151.463 111.55 151.609 112.158 151.894 112.726C152.179 113.293 152.596 113.809 153.122 114.244C153.648 114.678 154.273 115.023 154.96 115.258C155.648 115.493 156.384 115.614 157.128 115.614H164.683C164.683 116.433 164.878 117.244 165.258 118.001C165.637 118.758 166.194 119.446 166.895 120.025C167.597 120.604 168.429 121.064 169.346 121.377C170.262 121.691 171.245 121.852 172.237 121.852C173.229 121.852 174.211 121.691 175.128 121.377C176.044 121.064 176.877 120.604 177.578 120.025C178.28 119.446 178.836 118.758 179.216 118.001C179.595 117.244 179.791 116.433 179.791 115.614H185.669V129.059C184.84 129.079 184.052 129.36 183.466 129.845C182.88 130.33 182.541 130.981 182.518 131.666C182.496 132.351 182.792 133.017 183.345 133.527C183.899 134.037 184.667 134.353 185.494 134.41C186.321 134.467 187.143 134.261 187.791 133.833C188.439 133.405 188.864 132.789 188.979 132.111C189.094 131.432 188.89 130.743 188.41 130.185C187.929 129.627 187.208 129.242 186.394 129.109V115.614H187.345C188.848 115.614 190.289 115.121 191.351 114.244C192.414 113.366 193.011 112.176 193.011 110.935C193.012 109.311 192.733 107.694 192.184 106.135Z" fill="white"/>
</g>
<defs>
<clipPath id="clip0_566_1888">
<rect width="320" height="240" fill="white"/>
</clipPath>
</defs>
</svg>
