<svg width="114" height="114" viewBox="0 0 114 114" fill="none" xmlns="http://www.w3.org/2000/svg">
<path d="M57.0209 113.25C49.2425 113.25 41.9295 111.774 35.0819 108.822C28.2343 105.87 22.2778 101.864 17.2123 96.803C12.147 91.7423 8.13698 85.7915 5.18219 78.9503C2.2274 72.1091 0.75 64.7993 0.75 57.0209C0.75 49.2425 2.22599 41.9295 5.17797 35.0819C8.13005 28.2343 12.1364 22.2778 17.197 17.2123C22.2577 12.147 28.2085 8.13698 35.0497 5.18219C41.8909 2.2274 49.2007 0.75 56.9791 0.75C64.7575 0.75 72.0705 2.22599 78.9181 5.17797C85.7657 8.13005 91.7222 12.1364 96.7877 17.197C101.853 22.2577 105.863 28.2085 108.818 35.0497C111.773 41.8909 113.25 49.2007 113.25 56.9791C113.25 64.7575 111.774 72.0705 108.822 78.9181C105.87 85.7657 101.864 91.7222 96.803 96.7877C91.7423 101.853 85.7915 105.863 78.9503 108.818C72.1091 111.773 64.7993 113.25 57.0209 113.25ZM57 107C70.9583 107 82.7812 102.156 92.4688 92.4688C102.156 82.7812 107 70.9583 107 57C107 43.0417 102.156 31.2188 92.4688 21.5312C82.7812 11.8438 70.9583 7 57 7C43.0417 7 31.2188 11.8438 21.5312 21.5312C11.8438 31.2188 7 43.0417 7 57C7 70.9583 11.8438 82.7812 21.5312 92.4688C31.2188 102.156 43.0417 107 57 107ZM57.0283 88.25C48.3556 88.25 40.9743 85.2146 34.8845 79.1438C28.7948 73.0728 25.75 65.701 25.75 57.0283C25.75 48.3556 28.7854 40.9743 34.8563 34.8845C40.9272 28.7948 48.299 25.75 56.9717 25.75C65.6444 25.75 73.0257 28.7854 79.1155 34.8563C85.2052 40.9272 88.25 48.299 88.25 56.9717C88.25 65.6444 85.2146 73.0257 79.1437 79.1155C73.0728 85.2052 65.701 88.25 57.0283 88.25ZM57 82C63.875 82 69.7604 79.5521 74.6562 74.6562C79.5521 69.7604 82 63.875 82 57C82 50.125 79.5521 44.2396 74.6562 39.3438C69.7604 34.4479 63.875 32 57 32C50.125 32 44.2396 34.4479 39.3438 39.3438C34.4479 44.2396 32 50.125 32 57C32 63.875 34.4479 69.7604 39.3438 74.6562C44.2396 79.5521 50.125 82 57 82ZM57 63.25C55.3253 63.25 53.865 62.627 52.6189 61.3811C51.373 60.1351 50.75 58.6747 50.75 57C50.75 55.3253 51.373 53.865 52.6189 52.6189C53.865 51.373 55.3253 50.75 57 50.75C58.6747 50.75 60.1351 51.373 61.3811 52.6189C62.627 53.865 63.25 55.3253 63.25 57C63.25 58.6747 62.627 60.1351 61.3811 61.3811C60.1351 62.627 58.6747 63.25 57 63.25Z" fill="#046AD0"/>
</svg>
