<svg width="619" height="115" viewBox="0 0 619 115" fill="none" xmlns="http://www.w3.org/2000/svg">
<mask id="path-1-outside-1_881_6388" maskUnits="userSpaceOnUse" x="4" y="14" width="612" height="100" fill="black">
<rect fill="white" x="4" y="14" width="612" height="100"/>
<path d="M8.13313 65.368V24.76H21.4771V63.736C21.4771 67.448 22.0531 70.52 23.2051 72.952C24.4211 75.32 26.0211 77.112 28.0051 78.328C30.0531 79.48 32.4211 80.056 35.1091 80.056C37.7331 80.056 40.0691 79.48 42.1171 78.328C44.1651 77.112 45.7651 75.32 46.9171 72.952C48.0691 70.52 48.6451 67.448 48.6451 63.736V24.76H61.7011V65.368C61.7011 71.064 60.5171 75.928 58.1491 79.96C55.8451 83.928 52.6451 86.936 48.5491 88.984C44.5171 91.032 39.9731 92.056 34.9171 92.056C29.9251 92.056 25.3811 91.032 21.2851 88.984C17.2531 86.936 14.0531 83.928 11.6851 79.96C9.31713 75.928 8.13313 71.064 8.13313 65.368ZM70.6074 91L93.9354 54.424L98.5434 48.568L112.655 24.76H127.631L105.359 59.704L100.751 65.56L85.6794 91H70.6074ZM71.5674 24.76H87.1194L103.535 51.448L128.591 91H113.039L95.8554 63.064L71.5674 24.76ZM129.828 93.88L153.636 21.88H165.828L142.02 93.88H129.828ZM173.508 65.368V24.76H186.852V63.736C186.852 67.448 187.428 70.52 188.58 72.952C189.796 75.32 191.396 77.112 193.38 78.328C195.428 79.48 197.796 80.056 200.484 80.056C203.108 80.056 205.444 79.48 207.492 78.328C209.54 77.112 211.14 75.32 212.292 72.952C213.444 70.52 214.02 67.448 214.02 63.736V24.76H227.076V65.368C227.076 71.064 225.892 75.928 223.524 79.96C221.22 83.928 218.02 86.936 213.924 88.984C209.892 91.032 205.348 92.056 200.292 92.056C195.3 92.056 190.756 91.032 186.66 88.984C182.628 86.936 179.428 83.928 177.06 79.96C174.692 75.928 173.508 71.064 173.508 65.368ZM241.454 91V80.728H272.75V91H241.454ZM241.454 35.032V24.76H272.75V35.032H241.454ZM250.382 91V24.76H263.726V91H250.382ZM311.999 91V24.76H325.343V91H311.999ZM318.335 91V79.192H334.751C338.463 79.192 341.727 78.424 344.543 76.888C347.423 75.288 349.663 72.888 351.263 69.688C352.863 66.488 353.663 62.552 353.663 57.88C353.663 53.144 352.863 49.208 351.263 46.072C349.663 42.872 347.423 40.504 344.543 38.968C341.727 37.368 338.463 36.568 334.751 36.568H318.335V24.76H335.903C341.855 24.76 347.199 26.072 351.935 28.696C356.671 31.256 360.415 35 363.167 39.928C365.983 44.856 367.391 50.84 367.391 57.88C367.391 64.856 365.983 70.84 363.167 75.832C360.415 80.76 356.671 84.536 351.935 87.16C347.199 89.72 341.855 91 335.903 91H318.335ZM376.3 66.808C376.3 61.24 377.324 56.44 379.372 52.408C381.484 48.376 384.332 45.272 387.916 43.096C391.5 40.92 395.596 39.832 400.204 39.832C404.556 39.832 408.364 40.824 411.628 42.808C414.892 44.792 417.42 47.64 419.212 51.352C421.068 55.064 421.996 59.576 421.996 64.888C421.996 65.848 421.964 66.744 421.9 67.576C421.836 68.408 421.74 69.112 421.612 69.688H385.708V61.24H412.396L409.804 65.08C409.804 59.704 408.908 55.832 407.116 53.464C405.324 51.096 402.924 49.912 399.916 49.912C397.804 49.912 395.884 50.488 394.156 51.64C392.492 52.792 391.18 54.584 390.22 57.016C389.26 59.384 388.78 62.424 388.78 66.136C388.78 69.656 389.388 72.568 390.604 74.872C391.884 77.112 393.612 78.808 395.788 79.96C398.028 81.048 400.588 81.592 403.468 81.592C405.516 81.592 407.532 81.272 409.516 80.632C411.564 79.992 413.388 79.224 414.988 78.328L418.924 87.832C416.684 89.112 414.156 90.136 411.34 90.904C408.524 91.672 405.484 92.056 402.22 92.056C396.972 92.056 392.396 91.064 388.492 89.08C384.588 87.032 381.58 84.12 379.468 80.344C377.356 76.568 376.3 72.056 376.3 66.808ZM429.059 86.872L434.051 77.176C435.971 78.456 438.211 79.576 440.771 80.536C443.331 81.432 445.955 81.88 448.643 81.88C451.395 81.88 453.315 81.496 454.403 80.728C455.555 79.896 456.131 78.872 456.131 77.656C456.131 76.824 455.875 76.088 455.363 75.448C454.851 74.744 453.987 74.104 452.771 73.528C451.619 72.952 450.051 72.344 448.067 71.704C441.795 69.592 437.379 67.224 434.819 64.6C432.259 61.912 430.979 58.712 430.979 55C430.979 52.184 431.779 49.624 433.379 47.32C434.979 45.016 437.251 43.192 440.195 41.848C443.203 40.504 446.723 39.832 450.755 39.832C453.763 39.832 456.739 40.248 459.683 41.08C462.691 41.848 465.347 42.936 467.651 44.344L462.851 53.848C461.059 52.824 459.011 51.928 456.707 51.16C454.403 50.392 452.163 50.008 449.987 50.008C447.747 50.008 446.051 50.392 444.899 51.16C443.747 51.864 443.171 52.792 443.171 53.944C443.171 54.776 443.427 55.512 443.939 56.152C444.451 56.792 445.315 57.4 446.531 57.976C447.811 58.552 449.571 59.192 451.811 59.896C456.035 61.304 459.395 62.84 461.891 64.504C464.451 66.104 466.275 67.896 467.363 69.88C468.515 71.864 469.091 74.136 469.091 76.696C469.091 79.704 468.195 82.36 466.403 84.664C464.675 86.968 462.243 88.792 459.107 90.136C455.971 91.416 452.227 92.056 447.875 92.056C444.163 92.056 440.675 91.576 437.411 90.616C434.211 89.592 431.427 88.344 429.059 86.872ZM480.633 91V40.888H493.209V91H480.633ZM479.481 26.392C479.481 24.28 480.153 22.488 481.497 21.016C482.905 19.544 484.697 18.808 486.873 18.808C489.113 18.808 490.905 19.544 492.249 21.016C493.657 22.488 494.361 24.28 494.361 26.392C494.361 28.44 493.657 30.2 492.249 31.672C490.905 33.144 489.113 33.88 486.873 33.88C484.697 33.88 482.905 33.144 481.497 31.672C480.153 30.2 479.481 28.44 479.481 26.392ZM505.019 64.696C505.019 59.384 505.915 54.872 507.707 51.16C509.563 47.448 512.027 44.632 515.099 42.712C518.235 40.792 521.787 39.832 525.755 39.832C529.019 39.832 531.931 40.664 534.491 42.328C537.115 43.928 539.195 46.392 540.731 49.72C542.267 53.048 543.035 57.208 543.035 62.2L538.427 62.872C538.427 59.864 538.011 57.432 537.179 55.576C536.411 53.656 535.323 52.248 533.915 51.352C532.507 50.392 530.907 49.912 529.115 49.912C525.723 49.912 522.971 51.192 520.859 53.752C518.747 56.248 517.691 59.704 517.691 64.12C517.691 67.064 518.107 69.56 518.939 71.608C519.835 73.592 521.051 75.096 522.587 76.12C524.123 77.08 525.883 77.56 527.867 77.56C529.915 77.56 531.995 77.112 534.107 76.216C536.283 75.32 538.203 74.072 539.867 72.472V80.536C537.883 83.224 535.515 85.272 532.763 86.68C530.075 88.024 527.195 88.696 524.123 88.696C520.539 88.696 517.307 87.736 514.427 85.816C511.547 83.896 509.243 81.144 507.515 77.56C505.851 73.976 505.019 69.688 505.019 64.696ZM507.899 105.688L511.259 95.128C513.307 96.152 515.483 97.016 517.787 97.72C520.091 98.424 522.523 98.776 525.083 98.776C529.179 98.776 532.411 97.656 534.779 95.416C537.211 93.176 538.427 89.624 538.427 84.76V50.488L540.347 40.888H552.443L551.675 45.496C551.419 46.904 551.227 48.152 551.099 49.24C551.035 50.264 551.003 51.448 551.003 52.792V84.76C551.003 90.008 549.915 94.52 547.739 98.296C545.563 102.072 542.587 104.92 538.811 106.84C535.035 108.824 530.715 109.816 525.851 109.816C522.331 109.816 519.035 109.4 515.963 108.568C512.891 107.736 510.203 106.776 507.899 105.688ZM564.881 40.888H576.977L578.897 50.488V91H566.321V52.792C566.321 51.448 566.257 50.264 566.129 49.24C566.065 48.152 565.905 46.904 565.649 45.496L564.881 40.888ZM577.457 57.592V48.952C579.505 46.264 581.905 44.088 584.657 42.424C587.409 40.696 590.481 39.832 593.873 39.832C596.945 39.832 599.793 40.6 602.417 42.136C605.105 43.608 607.249 45.816 608.849 48.76C610.513 51.704 611.345 55.448 611.345 59.992V91H598.769V61.912C598.769 59.48 598.353 57.496 597.521 55.96C596.753 54.424 595.665 53.304 594.257 52.6C592.913 51.832 591.345 51.448 589.553 51.448C587.441 51.448 585.297 51.992 583.121 53.08C581.009 54.104 579.121 55.608 577.457 57.592Z"/>
</mask>
<path d="M8.13313 24.76V20.76H4.13313V24.76H8.13313ZM21.4771 24.76H25.4771V20.76H21.4771V24.76ZM23.2051 72.952L19.5902 74.6643L19.6176 74.7222L19.6469 74.7792L23.2051 72.952ZM28.0051 78.328L25.9149 81.7384L25.9788 81.7776L26.0441 81.8143L28.0051 78.328ZM42.1171 78.328L44.0782 81.8143L44.119 81.7913L44.1593 81.7674L42.1171 78.328ZM46.9171 72.952L50.5141 74.7019L50.5232 74.6832L50.5321 74.6643L46.9171 72.952ZM48.6451 24.76V20.76H44.6451V24.76H48.6451ZM61.7011 24.76H65.7011V20.76H61.7011V24.76ZM58.1491 79.96L54.7 77.9343L54.695 77.9429L54.69 77.9515L58.1491 79.96ZM48.5491 88.984L46.7603 85.4063L46.749 85.4119L46.7377 85.4177L48.5491 88.984ZM21.2851 88.984L19.4737 92.5503L19.4849 92.556L19.4963 92.5617L21.2851 88.984ZM11.6851 79.96L8.23598 81.9857L8.24309 81.9978L8.25028 82.0098L11.6851 79.96ZM12.1331 65.368V24.76H4.13313V65.368H12.1331ZM8.13313 28.76H21.4771V20.76H8.13313V28.76ZM17.4771 24.76V63.736H25.4771V24.76H17.4771ZM17.4771 63.736C17.4771 67.8288 18.1075 71.5342 19.5902 74.6643L26.8201 71.2397C25.9988 69.5058 25.4771 67.0672 25.4771 63.736H17.4771ZM19.6469 74.7792C21.1486 77.7037 23.2198 80.0866 25.9149 81.7384L30.0954 74.9176C28.8225 74.1374 27.6936 72.9363 26.7634 71.1248L19.6469 74.7792ZM26.0441 81.8143C28.7725 83.349 31.8344 84.056 35.1091 84.056V76.056C33.0079 76.056 31.3338 75.611 29.9662 74.8417L26.0441 81.8143ZM35.1091 84.056C38.3383 84.056 41.364 83.341 44.0782 81.8143L40.1561 74.8417C38.7743 75.619 37.128 76.056 35.1091 76.056V84.056ZM44.1593 81.7674C46.9497 80.1106 49.0576 77.6958 50.5141 74.7019L43.3202 71.2021C42.4727 72.9442 41.3806 74.1134 40.075 74.8886L44.1593 81.7674ZM50.5321 74.6643C52.0148 71.5342 52.6451 67.8288 52.6451 63.736H44.6451C44.6451 67.0672 44.1235 69.5058 43.3022 71.2397L50.5321 74.6643ZM52.6451 63.736V24.76H44.6451V63.736H52.6451ZM48.6451 28.76H61.7011V20.76H48.6451V28.76ZM57.7011 24.76V65.368H65.7011V24.76H57.7011ZM57.7011 65.368C57.7011 70.5068 56.6361 74.6376 54.7 77.9343L61.5983 81.9857C64.3981 77.2184 65.7011 71.6212 65.7011 65.368H57.7011ZM54.69 77.9515C52.777 81.2461 50.1569 83.708 46.7603 85.4063L50.338 92.5617C55.1333 90.164 58.9133 86.6099 61.6083 81.9685L54.69 77.9515ZM46.7377 85.4177C43.3303 87.1484 39.4188 88.056 34.9171 88.056V96.056C40.5275 96.056 45.7039 94.9156 50.3606 92.5503L46.7377 85.4177ZM34.9171 88.056C30.4892 88.056 26.5658 87.1522 23.074 85.4063L19.4963 92.5617C24.1965 94.9118 29.3611 96.056 34.9171 96.056V88.056ZM23.0966 85.4177C19.7534 83.7196 17.1098 81.2445 15.12 77.9102L8.25028 82.0098C10.9965 86.6115 14.7529 90.1525 19.4737 92.5503L23.0966 85.4177ZM15.1343 77.9343C13.1981 74.6376 12.1331 70.5068 12.1331 65.368H4.13313C4.13313 71.6212 5.43614 77.2184 8.23598 81.9857L15.1343 77.9343ZM70.6074 91L67.2349 88.8491L63.3119 95H70.6074V91ZM93.9354 54.424L90.7919 51.9504L90.6694 52.1061L90.5629 52.2731L93.9354 54.424ZM98.5434 48.568L101.687 51.0416L101.85 50.8344L101.984 50.6076L98.5434 48.568ZM112.655 24.76V20.76H110.376L109.214 22.7204L112.655 24.76ZM127.631 24.76L131.005 26.9099L134.924 20.76H127.631V24.76ZM105.359 59.704L108.503 62.1776L108.626 62.0214L108.732 61.8539L105.359 59.704ZM100.751 65.56L97.6079 63.0864L97.4446 63.294L97.31 63.5211L100.751 65.56ZM85.6794 91V95H87.9589L89.1208 93.0389L85.6794 91ZM71.5674 24.76V20.76H64.2947L68.1892 26.902L71.5674 24.76ZM87.1194 24.76L90.5264 22.6643L89.3551 20.76H87.1194V24.76ZM103.535 51.448L100.128 53.5437L100.142 53.5662L100.156 53.5886L103.535 51.448ZM128.591 91V95H135.86L131.97 88.8594L128.591 91ZM113.039 91L109.632 93.0957L110.804 95H113.039V91ZM95.8554 63.064L99.2624 60.9683L99.2481 60.945L99.2335 60.922L95.8554 63.064ZM73.9798 93.1509L97.3078 56.5749L90.5629 52.2731L67.2349 88.8491L73.9798 93.1509ZM97.0789 56.8976L101.687 51.0416L95.3999 46.0944L90.7919 51.9504L97.0789 56.8976ZM101.984 50.6076L116.096 26.7996L109.214 22.7204L95.1024 46.5284L101.984 50.6076ZM112.655 28.76H127.631V20.76H112.655V28.76ZM124.258 22.6101L101.986 57.5541L108.732 61.8539L131.005 26.9099L124.258 22.6101ZM102.216 57.2304L97.6079 63.0864L103.895 68.0336L108.503 62.1776L102.216 57.2304ZM97.31 63.5211L82.238 88.9611L89.1208 93.0389L104.193 67.5989L97.31 63.5211ZM85.6794 87H70.6074V95H85.6794V87ZM71.5674 28.76H87.1194V20.76H71.5674V28.76ZM83.7123 26.8557L100.128 53.5437L106.942 49.3523L90.5264 22.6643L83.7123 26.8557ZM100.156 53.5886L125.212 93.1406L131.97 88.8594L106.914 49.3074L100.156 53.5886ZM128.591 87H113.039V95H128.591V87ZM116.446 88.9043L99.2624 60.9683L92.4483 65.1597L109.632 93.0957L116.446 88.9043ZM99.2335 60.922L74.9455 22.618L68.1892 26.902L92.4772 65.206L99.2335 60.922ZM129.828 93.88L126.03 92.6242L124.292 97.88H129.828V93.88ZM153.636 21.88V17.88H150.746L149.838 20.6242L153.636 21.88ZM165.828 21.88L169.626 23.1358L171.364 17.88H165.828V21.88ZM142.02 93.88V97.88H144.91L145.818 95.1358L142.02 93.88ZM133.626 95.1358L157.434 23.1358L149.838 20.6242L126.03 92.6242L133.626 95.1358ZM153.636 25.88H165.828V17.88H153.636V25.88ZM162.03 20.6242L138.222 92.6242L145.818 95.1358L169.626 23.1358L162.03 20.6242ZM142.02 89.88H129.828V97.88H142.02V89.88ZM173.508 24.76V20.76H169.508V24.76H173.508ZM186.852 24.76H190.852V20.76H186.852V24.76ZM188.58 72.952L184.965 74.6643L184.993 74.7222L185.022 74.7792L188.58 72.952ZM193.38 78.328L191.29 81.7384L191.354 81.7776L191.419 81.8143L193.38 78.328ZM207.492 78.328L209.453 81.8143L209.494 81.7913L209.534 81.7674L207.492 78.328ZM212.292 72.952L215.889 74.7019L215.898 74.6832L215.907 74.6643L212.292 72.952ZM214.02 24.76V20.76H210.02V24.76H214.02ZM227.076 24.76H231.076V20.76H227.076V24.76ZM223.524 79.96L220.075 77.9343L220.07 77.9429L220.065 77.9515L223.524 79.96ZM213.924 88.984L212.135 85.4063L212.124 85.4119L212.113 85.4177L213.924 88.984ZM186.66 88.984L184.849 92.5503L184.86 92.556L184.871 92.5617L186.66 88.984ZM177.06 79.96L173.611 81.9857L173.618 81.9978L173.625 82.0098L177.06 79.96ZM177.508 65.368V24.76H169.508V65.368H177.508ZM173.508 28.76H186.852V20.76H173.508V28.76ZM182.852 24.76V63.736H190.852V24.76H182.852ZM182.852 63.736C182.852 67.8288 183.482 71.5342 184.965 74.6643L192.195 71.2397C191.374 69.5058 190.852 67.0672 190.852 63.736H182.852ZM185.022 74.7792C186.524 77.7037 188.595 80.0866 191.29 81.7384L195.47 74.9176C194.197 74.1374 193.069 72.9363 192.138 71.1248L185.022 74.7792ZM191.419 81.8143C194.147 83.349 197.209 84.056 200.484 84.056V76.056C198.383 76.056 196.709 75.611 195.341 74.8417L191.419 81.8143ZM200.484 84.056C203.713 84.056 206.739 83.341 209.453 81.8143L205.531 74.8417C204.149 75.619 202.503 76.056 200.484 76.056V84.056ZM209.534 81.7674C212.325 80.1106 214.433 77.6958 215.889 74.7019L208.695 71.2021C207.848 72.9442 206.756 74.1134 205.45 74.8886L209.534 81.7674ZM215.907 74.6643C217.39 71.5342 218.02 67.8288 218.02 63.736H210.02C210.02 67.0672 209.498 69.5058 208.677 71.2397L215.907 74.6643ZM218.02 63.736V24.76H210.02V63.736H218.02ZM214.02 28.76H227.076V20.76H214.02V28.76ZM223.076 24.76V65.368H231.076V24.76H223.076ZM223.076 65.368C223.076 70.5068 222.011 74.6376 220.075 77.9343L226.973 81.9857C229.773 77.2184 231.076 71.6212 231.076 65.368H223.076ZM220.065 77.9515C218.152 81.2461 215.532 83.708 212.135 85.4063L215.713 92.5617C220.508 90.164 224.288 86.6099 226.983 81.9685L220.065 77.9515ZM212.113 85.4177C208.705 87.1484 204.794 88.056 200.292 88.056V96.056C205.902 96.056 211.079 94.9156 215.736 92.5503L212.113 85.4177ZM200.292 88.056C195.864 88.056 191.941 87.1522 188.449 85.4063L184.871 92.5617C189.571 94.9118 194.736 96.056 200.292 96.056V88.056ZM188.472 85.4177C185.128 83.7196 182.485 81.2445 180.495 77.9102L173.625 82.0098C176.371 86.6115 180.128 90.1525 184.849 92.5503L188.472 85.4177ZM180.509 77.9343C178.573 74.6376 177.508 70.5068 177.508 65.368H169.508C169.508 71.6212 170.811 77.2184 173.611 81.9857L180.509 77.9343ZM241.454 91H237.454V95H241.454V91ZM241.454 80.728V76.728H237.454V80.728H241.454ZM272.75 80.728H276.75V76.728H272.75V80.728ZM272.75 91V95H276.75V91H272.75ZM241.454 35.032H237.454V39.032H241.454V35.032ZM241.454 24.76V20.76H237.454V24.76H241.454ZM272.75 24.76H276.75V20.76H272.75V24.76ZM272.75 35.032V39.032H276.75V35.032H272.75ZM250.382 91H246.382V95H250.382V91ZM250.382 24.76V20.76H246.382V24.76H250.382ZM263.726 24.76H267.726V20.76H263.726V24.76ZM263.726 91V95H267.726V91H263.726ZM245.454 91V80.728H237.454V91H245.454ZM241.454 84.728H272.75V76.728H241.454V84.728ZM268.75 80.728V91H276.75V80.728H268.75ZM272.75 87H241.454V95H272.75V87ZM245.454 35.032V24.76H237.454V35.032H245.454ZM241.454 28.76H272.75V20.76H241.454V28.76ZM268.75 24.76V35.032H276.75V24.76H268.75ZM272.75 31.032H241.454V39.032H272.75V31.032ZM254.382 91V24.76H246.382V91H254.382ZM250.382 28.76H263.726V20.76H250.382V28.76ZM259.726 24.76V91H267.726V24.76H259.726ZM263.726 87H250.382V95H263.726V87ZM311.999 91H307.999V95H311.999V91ZM311.999 24.76V20.76H307.999V24.76H311.999ZM325.343 24.76H329.343V20.76H325.343V24.76ZM325.343 91V95H329.343V91H325.343ZM318.335 91H314.335V95H318.335V91ZM318.335 79.192V75.192H314.335V79.192H318.335ZM344.543 76.888L346.459 80.3996L346.472 80.3922L346.486 80.3846L344.543 76.888ZM351.263 69.688L347.686 67.8991V67.8991L351.263 69.688ZM351.263 46.072L347.686 47.8609L347.693 47.8754L347.7 47.8899L351.263 46.072ZM344.543 38.968L342.567 42.4458L342.614 42.4722L342.661 42.4974L344.543 38.968ZM318.335 36.568H314.335V40.568H318.335V36.568ZM318.335 24.76V20.76H314.335V24.76H318.335ZM351.935 28.696L349.997 32.1949L350.015 32.2049L350.033 32.2148L351.935 28.696ZM363.167 39.928L359.675 41.8783L359.685 41.8955L359.694 41.9126L363.167 39.928ZM363.167 75.832L359.683 73.8667L359.679 73.8742L359.675 73.8817L363.167 75.832ZM351.935 87.16L353.837 90.6788L353.856 90.6689L353.874 90.6589L351.935 87.16ZM315.999 91V24.76H307.999V91H315.999ZM311.999 28.76H325.343V20.76H311.999V28.76ZM321.343 24.76V91H329.343V24.76H321.343ZM325.343 87H311.999V95H325.343V87ZM322.335 91V79.192H314.335V91H322.335ZM318.335 83.192H334.751V75.192H318.335V83.192ZM334.751 83.192C339.027 83.192 342.969 82.3033 346.459 80.3996L342.628 73.3764C340.486 74.5447 337.9 75.192 334.751 75.192V83.192ZM346.486 80.3846C350.132 78.3593 352.913 75.3329 354.841 71.4769L347.686 67.8991C346.414 70.4431 344.715 72.2167 342.601 73.3914L346.486 80.3846ZM354.841 71.4769C356.79 67.5782 357.663 62.9901 357.663 57.88H349.663C349.663 62.1139 348.936 65.3978 347.686 67.8991L354.841 71.4769ZM357.663 57.88C357.663 52.7203 356.795 48.1131 354.826 44.2541L347.7 47.8899C348.931 50.3029 349.663 53.5677 349.663 57.88H357.663ZM354.841 44.2831C352.908 40.4161 350.108 37.4026 346.426 35.4386L342.661 42.4974C344.739 43.6054 346.419 45.3279 347.686 47.8609L354.841 44.2831ZM346.519 35.4902C343.018 33.5006 339.054 32.568 334.751 32.568V40.568C337.873 40.568 340.437 41.2354 342.567 42.4458L346.519 35.4902ZM334.751 32.568H318.335V40.568H334.751V32.568ZM322.335 36.568V24.76H314.335V36.568H322.335ZM318.335 28.76H335.903V20.76H318.335V28.76ZM335.903 28.76C341.246 28.76 345.912 29.9314 349.997 32.1949L353.874 25.1971C348.487 22.2126 342.465 20.76 335.903 20.76V28.76ZM350.033 32.2148C354.068 34.3956 357.275 37.5798 359.675 41.8783L366.66 37.9777C363.556 32.4202 359.275 28.1163 353.837 25.1772L350.033 32.2148ZM359.694 41.9126C362.091 46.107 363.391 51.3705 363.391 57.88H371.391C371.391 50.3095 369.876 43.605 366.64 37.9434L359.694 41.9126ZM363.391 57.88C363.391 64.3161 362.095 69.5919 359.683 73.8667L366.651 77.7973C369.872 72.0881 371.391 65.3959 371.391 57.88H363.391ZM359.675 73.8817C357.27 78.1878 354.052 81.4142 349.997 83.6611L353.874 90.6589C359.291 87.6578 363.56 83.3322 366.66 77.7823L359.675 73.8817ZM350.033 83.6412C345.941 85.853 341.263 87 335.903 87V95C342.448 95 348.457 93.587 353.837 90.6788L350.033 83.6412ZM335.903 87H318.335V95H335.903V87ZM379.372 52.408L375.829 50.552L375.817 50.5742L375.806 50.5965L379.372 52.408ZM387.916 43.096L389.992 46.5151L387.916 43.096ZM419.212 51.352L415.61 53.091L415.622 53.116L415.634 53.1409L419.212 51.352ZM421.9 67.576L417.912 67.2692V67.2692L421.9 67.576ZM421.612 69.688V73.688H424.821L425.517 70.5557L421.612 69.688ZM385.708 69.688H381.708V73.688H385.708V69.688ZM385.708 61.24V57.24H381.708V61.24H385.708ZM412.396 61.24L415.711 63.4779L419.922 57.24H412.396V61.24ZM409.804 65.08H405.804V78.1555L413.119 67.3179L409.804 65.08ZM407.116 53.464L410.306 51.0502L407.116 53.464ZM394.156 51.64L391.937 48.3118L391.908 48.3313L391.879 48.3512L394.156 51.64ZM390.22 57.016L393.927 58.5188L393.934 58.5018L393.94 58.4847L390.22 57.016ZM390.604 74.872L387.066 76.739L387.098 76.7983L387.131 76.8566L390.604 74.872ZM395.788 79.96L393.916 83.4951L393.978 83.5277L394.04 83.558L395.788 79.96ZM409.516 80.632L408.323 76.8141L408.305 76.8195L408.288 76.8252L409.516 80.632ZM414.988 78.328L418.684 76.7975L416.961 72.6385L413.033 74.838L414.988 78.328ZM418.924 87.832L420.908 91.305L423.968 89.5568L422.619 86.3015L418.924 87.832ZM411.34 90.904L410.287 87.0449L411.34 90.904ZM388.492 89.08L386.634 92.6222L386.657 92.6342L386.68 92.6459L388.492 89.08ZM379.468 80.344L382.959 78.3914H382.959L379.468 80.344ZM380.3 66.808C380.3 61.7265 381.234 57.5752 382.938 54.2195L375.806 50.5965C373.414 55.3048 372.3 60.7535 372.3 66.808H380.3ZM382.915 54.264C384.719 50.8198 387.083 48.2812 389.992 46.5151L385.84 39.6768C381.581 42.2628 378.248 45.9322 375.829 50.552L382.915 54.264ZM389.992 46.5151C392.889 44.7561 396.253 43.832 400.204 43.832V35.832C394.939 35.832 390.111 37.0839 385.84 39.6768L389.992 46.5151ZM400.204 43.832C403.927 43.832 406.996 44.6735 409.55 46.2261L413.706 39.3899C409.732 36.9745 405.184 35.832 400.204 35.832V43.832ZM409.55 46.2261C412.102 47.7773 414.125 50.0166 415.61 53.091L422.814 49.613C420.714 45.2634 417.682 41.8067 413.706 39.3899L409.55 46.2261ZM415.634 53.1409C417.146 56.1641 417.996 60.0285 417.996 64.888H425.996C425.996 59.1235 424.99 53.9639 422.79 49.5631L415.634 53.1409ZM417.996 64.888C417.996 65.7605 417.967 66.5531 417.912 67.2692L425.888 67.8828C425.961 66.9349 425.996 65.9355 425.996 64.888H417.996ZM417.912 67.2692C417.857 67.9831 417.781 68.4872 417.707 68.8203L425.517 70.5557C425.699 69.7368 425.815 68.8329 425.888 67.8828L417.912 67.2692ZM421.612 65.688H385.708V73.688H421.612V65.688ZM389.708 69.688V61.24H381.708V69.688H389.708ZM385.708 65.24H412.396V57.24H385.708V65.24ZM409.08 59.0021L406.488 62.8421L413.119 67.3179L415.711 63.4779L409.08 59.0021ZM413.804 65.08C413.804 59.4527 412.903 54.4832 410.306 51.0502L403.926 55.8778C404.912 57.1808 405.804 59.9553 405.804 65.08H413.804ZM410.306 51.0502C407.746 47.668 404.158 45.912 399.916 45.912V53.912C401.69 53.912 402.902 54.524 403.926 55.8778L410.306 51.0502ZM399.916 45.912C397.028 45.912 394.334 46.7139 391.937 48.3118L396.375 54.9682C397.434 54.2621 398.579 53.912 399.916 53.912V45.912ZM391.879 48.3512C389.399 50.0685 387.666 52.5921 386.499 55.5473L393.94 58.4847C394.694 56.5759 395.585 55.5155 396.433 54.9288L391.879 48.3512ZM386.513 55.5132C385.293 58.523 384.78 62.1223 384.78 66.136H392.78C392.78 62.7257 393.227 60.245 393.927 58.5188L386.513 55.5132ZM384.78 66.136C384.78 70.0884 385.459 73.6933 387.066 76.739L394.141 73.005C393.317 71.4427 392.78 69.2236 392.78 66.136H384.78ZM387.131 76.8566C388.768 79.7217 391.038 81.9711 393.916 83.4951L397.659 76.4249C396.186 75.6449 395 74.5023 394.077 72.8874L387.131 76.8566ZM394.04 83.558C396.904 84.949 400.077 85.592 403.468 85.592V77.592C401.099 77.592 399.152 77.147 397.535 76.362L394.04 83.558ZM403.468 85.592C405.94 85.592 408.37 85.2045 410.744 84.4388L408.288 76.8252C406.693 77.3395 405.091 77.592 403.468 77.592V85.592ZM410.709 84.4499C412.978 83.7409 415.064 82.8699 416.942 81.818L413.033 74.838C411.712 75.5781 410.15 76.2431 408.323 76.8141L410.709 84.4499ZM411.292 79.8585L415.228 89.3625L422.619 86.3015L418.684 76.7975L411.292 79.8585ZM416.939 84.359C415.028 85.4513 412.82 86.3544 410.287 87.0449L412.392 94.7631C415.492 93.9176 418.34 92.7727 420.908 91.305L416.939 84.359ZM410.287 87.0449C407.852 87.7091 405.17 88.056 402.22 88.056V96.056C405.798 96.056 409.196 95.6349 412.392 94.7631L410.287 87.0449ZM402.22 88.056C397.478 88.056 393.546 87.1615 390.304 85.5141L386.68 92.6459C391.246 94.9665 396.466 96.056 402.22 96.056V88.056ZM390.35 85.5378C387.119 83.8429 384.685 81.4769 382.959 78.3914L375.977 82.2966C378.475 86.7631 382.057 90.2211 386.634 92.6222L390.35 85.5378ZM382.959 78.3914C381.245 75.3269 380.3 71.5172 380.3 66.808H372.3C372.3 72.5948 373.467 77.8091 375.977 82.2966L382.959 78.3914ZM429.059 86.872L425.502 85.041L423.813 88.3213L426.947 90.2691L429.059 86.872ZM434.051 77.176L436.269 73.8478L432.544 71.3641L430.494 75.345L434.051 77.176ZM440.771 80.536L439.366 84.2813L439.408 84.2968L439.449 84.3114L440.771 80.536ZM454.403 80.728L456.709 83.9959L456.727 83.9834L456.745 83.9707L454.403 80.728ZM455.363 75.448L452.128 77.8007L452.182 77.875L452.239 77.9468L455.363 75.448ZM452.771 73.528L450.982 77.1057L451.02 77.1247L451.058 77.143L452.771 73.528ZM448.067 71.704L446.79 75.4949L446.814 75.503L446.839 75.5108L448.067 71.704ZM434.819 64.6L431.922 67.3586L431.939 67.3761L431.956 67.3933L434.819 64.6ZM433.379 47.32L436.664 49.6016L433.379 47.32ZM440.195 41.848L438.563 38.196L438.548 38.2025L438.533 38.2092L440.195 41.848ZM459.683 41.08L458.595 44.9292L458.644 44.9431L458.693 44.9557L459.683 41.08ZM467.651 44.344L471.221 46.1473L472.884 42.8545L469.736 40.9309L467.651 44.344ZM462.851 53.848L460.866 57.321L464.523 59.4104L466.421 55.6513L462.851 53.848ZM456.707 51.16L455.442 54.9547L456.707 51.16ZM444.899 51.16L446.984 54.5731L447.052 54.532L447.117 54.4882L444.899 51.16ZM443.939 56.152L440.815 58.6508V58.6508L443.939 56.152ZM446.531 57.976L444.818 61.591L444.854 61.6077L444.889 61.6237L446.531 57.976ZM451.811 59.896L453.076 56.1013L453.043 56.0904L453.01 56.08L451.811 59.896ZM461.891 64.504L459.672 67.8322L459.721 67.8648L459.771 67.896L461.891 64.504ZM467.363 69.88L463.855 71.8033L463.879 71.8462L463.903 71.8885L467.363 69.88ZM466.403 84.664L463.245 82.2082L463.224 82.2359L463.203 82.264L466.403 84.664ZM459.107 90.136L460.618 93.8394L460.65 93.8263L460.682 93.8126L459.107 90.136ZM437.411 90.616L436.192 94.4257L436.237 94.4401L436.282 94.4535L437.411 90.616ZM432.615 88.703L437.607 79.007L430.494 75.345L425.502 85.041L432.615 88.703ZM431.832 80.5042C434.048 81.9817 436.571 83.233 439.366 84.2813L442.175 76.7907C439.851 75.919 437.893 74.9303 436.269 73.8478L431.832 80.5042ZM439.449 84.3114C442.43 85.3547 445.501 85.88 448.643 85.88V77.88C446.409 77.88 444.231 77.5093 442.092 76.7606L439.449 84.3114ZM448.643 85.88C451.5 85.88 454.532 85.5329 456.709 83.9959L452.096 77.4601C452.17 77.4076 452.01 77.54 451.362 77.6697C450.741 77.794 449.852 77.88 448.643 77.88V85.88ZM456.745 83.9707C458.737 82.5314 460.131 80.3851 460.131 77.656H452.131C452.131 77.6413 452.133 77.5976 452.149 77.5358C452.165 77.4733 452.188 77.4175 452.212 77.375C452.262 77.2874 452.264 77.3388 452.061 77.4853L456.745 83.9707ZM460.131 77.656C460.131 75.9306 459.575 74.31 458.486 72.9492L452.239 77.9468C452.226 77.9305 452.19 77.8772 452.161 77.7941C452.147 77.756 452.139 77.7218 452.135 77.6945C452.131 77.6677 452.131 77.6537 452.131 77.656H460.131ZM458.598 73.0953C457.534 71.6327 456.003 70.6333 454.483 69.913L451.058 77.143C451.487 77.3459 451.771 77.5222 451.95 77.6542C452.129 77.7867 452.159 77.8443 452.128 77.8007L458.598 73.0953ZM454.559 69.9503C453.151 69.246 451.369 68.5663 449.295 67.8972L446.839 75.5108C448.732 76.1217 450.086 76.658 450.982 77.1057L454.559 69.9503ZM449.343 67.9132C443.261 65.8652 439.573 63.7451 437.682 61.8067L431.956 67.3933C435.184 70.7029 440.328 73.3188 446.79 75.4949L449.343 67.9132ZM437.715 61.8414C435.864 59.8971 434.979 57.6849 434.979 55H426.979C426.979 59.7391 428.654 63.9269 431.922 67.3586L437.715 61.8414ZM434.979 55C434.979 52.9962 435.531 51.2329 436.664 49.6016L430.093 45.0384C428.026 48.0151 426.979 51.3718 426.979 55H434.979ZM436.664 49.6016C437.795 47.9734 439.463 46.579 441.856 45.4868L438.533 38.2092C435.038 39.805 432.162 42.0586 430.093 45.0384L436.664 49.6016ZM441.826 45.5C444.22 44.4308 447.162 43.832 450.755 43.832V35.832C446.283 35.832 442.186 36.5772 438.563 38.196L441.826 45.5ZM450.755 43.832C453.389 43.832 455.999 44.1955 458.595 44.9292L460.77 37.2308C457.479 36.3004 454.137 35.832 450.755 35.832V43.832ZM458.693 44.9557C461.371 45.6395 463.648 46.5855 465.565 47.7571L469.736 40.9309C467.046 39.2865 464.01 38.0565 460.672 37.2043L458.693 44.9557ZM464.08 42.5407L459.28 52.0447L466.421 55.6513L471.221 46.1473L464.08 42.5407ZM464.835 50.375C462.779 49.1998 460.483 48.2024 457.972 47.3653L455.442 54.9547C457.538 55.6536 459.339 56.4482 460.866 57.321L464.835 50.375ZM457.972 47.3653C455.307 46.4769 452.639 46.008 449.987 46.008V54.008C451.686 54.008 453.499 54.3071 455.442 54.9547L457.972 47.3653ZM449.987 46.008C447.401 46.008 444.78 46.4314 442.68 47.8318L447.117 54.4882C447.321 54.3526 448.092 54.008 449.987 54.008V46.008ZM442.813 47.7469C440.712 49.0305 439.171 51.138 439.171 53.944H447.171C447.171 53.9925 447.164 54.0792 447.134 54.1895C447.103 54.3013 447.056 54.4056 447.001 54.4935C446.891 54.6713 446.818 54.6746 446.984 54.5731L442.813 47.7469ZM439.171 53.944C439.171 55.6693 439.726 57.2899 440.815 58.6508L447.062 53.6532C447.075 53.6695 447.112 53.7228 447.141 53.8059C447.154 53.844 447.162 53.8782 447.166 53.9055C447.171 53.9323 447.171 53.9463 447.171 53.944H439.171ZM440.815 58.6508C441.875 59.9754 443.364 60.902 444.818 61.591L448.243 54.361C447.788 54.1456 447.476 53.9598 447.273 53.8168C447.065 53.6709 447.025 53.6074 447.062 53.6532L440.815 58.6508ZM444.889 61.6237C446.377 62.293 448.306 62.9875 450.611 63.712L453.01 56.08C450.835 55.3965 449.245 54.811 448.172 54.3283L444.889 61.6237ZM450.546 63.6907C454.579 65.035 457.577 66.4357 459.672 67.8322L464.109 61.1758C461.212 59.2443 457.491 57.573 453.076 56.1013L450.546 63.6907ZM459.771 67.896C461.937 69.2501 463.188 70.5871 463.855 71.8033L470.87 67.9567C469.361 65.2049 466.964 62.9579 464.011 61.112L459.771 67.896ZM463.903 71.8885C464.661 73.1939 465.091 74.7578 465.091 76.696H473.091C473.091 73.5142 472.368 70.534 470.822 67.8715L463.903 71.8885ZM465.091 76.696C465.091 78.8438 464.473 80.6292 463.245 82.2082L469.56 87.1198C471.916 84.0908 473.091 80.5642 473.091 76.696H465.091ZM463.203 82.264C461.967 83.912 460.143 85.3402 457.531 86.4594L460.682 93.8126C464.343 92.2438 467.383 90.024 469.603 87.064L463.203 82.264ZM457.595 86.4326C455.054 87.4696 451.85 88.056 447.875 88.056V96.056C452.604 96.056 456.887 95.3624 460.618 93.8394L457.595 86.4326ZM447.875 88.056C444.51 88.056 441.405 87.6214 438.539 86.7785L436.282 94.4535C439.944 95.5306 443.815 96.056 447.875 96.056V88.056ZM438.63 86.8063C435.681 85.8628 433.209 84.742 431.17 83.4749L426.947 90.2691C429.644 91.946 432.74 93.3212 436.192 94.4257L438.63 86.8063ZM480.633 91H476.633V95H480.633V91ZM480.633 40.888V36.888H476.633V40.888H480.633ZM493.209 40.888H497.209V36.888H493.209V40.888ZM493.209 91V95H497.209V91H493.209ZM481.497 21.016L478.607 18.2511L478.574 18.2846L478.543 18.3189L481.497 21.016ZM492.249 21.016L489.295 23.7131L489.326 23.7473L489.359 23.7809L492.249 21.016ZM492.249 31.672L489.359 28.9071L489.326 28.9406L489.295 28.9749L492.249 31.672ZM481.497 31.672L478.543 34.3691L478.574 34.4033L478.607 34.4369L481.497 31.672ZM484.633 91V40.888H476.633V91H484.633ZM480.633 44.888H493.209V36.888H480.633V44.888ZM489.209 40.888V91H497.209V40.888H489.209ZM493.209 87H480.633V95H493.209V87ZM483.481 26.392C483.481 25.2129 483.823 24.4013 484.451 23.7131L478.543 18.3189C476.484 20.5747 475.481 23.347 475.481 26.392H483.481ZM484.388 23.7809C484.986 23.1559 485.706 22.808 486.873 22.808V14.808C483.689 14.808 480.825 15.9321 478.607 18.2511L484.388 23.7809ZM486.873 22.808C488.143 22.808 488.807 23.1785 489.295 23.7131L495.203 18.3189C493.003 15.9095 490.083 14.808 486.873 14.808V22.808ZM489.359 23.7809C490.026 24.4786 490.361 25.268 490.361 26.392H498.361C498.361 23.292 497.288 20.4974 495.14 18.2511L489.359 23.7809ZM490.361 26.392C490.361 27.4161 490.05 28.184 489.359 28.9071L495.14 34.4369C497.264 32.216 498.361 29.4639 498.361 26.392H490.361ZM489.295 28.9749C488.807 29.5095 488.143 29.88 486.873 29.88V37.88C490.083 37.88 493.003 36.7785 495.203 34.3691L489.295 28.9749ZM486.873 29.88C485.706 29.88 484.986 29.5321 484.388 28.9071L478.607 34.4369C480.825 36.7559 483.689 37.88 486.873 37.88V29.88ZM484.451 28.9749C483.8 28.262 483.481 27.4722 483.481 26.392H475.481C475.481 29.4078 476.506 32.138 478.543 34.3691L484.451 28.9749ZM507.707 51.16L504.129 49.3711L504.116 49.396L504.104 49.421L507.707 51.16ZM515.099 42.712L513.01 39.3006L512.994 39.3102L512.979 39.32L515.099 42.712ZM534.491 42.328L532.311 45.6818L532.359 45.7132L532.408 45.7432L534.491 42.328ZM540.731 49.72L537.099 51.3962L540.731 49.72ZM543.035 62.2L543.612 66.1581L547.035 65.659V62.2H543.035ZM538.427 62.872H534.427V67.4976L539.004 66.8301L538.427 62.872ZM537.179 55.576L533.465 57.0616L533.495 57.1375L533.529 57.2122L537.179 55.576ZM533.915 51.352L531.661 54.6569L531.714 54.6926L531.767 54.7266L533.915 51.352ZM520.859 53.752L523.912 56.3358L523.928 56.3167L523.944 56.2975L520.859 53.752ZM518.939 71.608L515.233 73.1135L515.262 73.1845L515.293 73.2543L518.939 71.608ZM522.587 76.12L520.368 79.4482L520.417 79.4808L520.467 79.512L522.587 76.12ZM534.107 76.216L532.584 72.5173L532.564 72.5254L532.544 72.5337L534.107 76.216ZM539.867 72.472H543.867V63.0767L537.094 69.5887L539.867 72.472ZM539.867 80.536L543.085 82.9114L543.867 81.8523V80.536H539.867ZM532.763 86.68L534.551 90.2577L534.568 90.2494L534.585 90.241L532.763 86.68ZM514.427 85.816L512.208 89.1442L514.427 85.816ZM507.515 77.56L503.887 79.2444L503.899 79.2709L503.912 79.2972L507.515 77.56ZM507.899 105.688L504.087 104.475L503.026 107.81L506.191 109.305L507.899 105.688ZM511.259 95.128L513.047 91.5503L508.865 89.459L507.447 93.9152L511.259 95.128ZM517.787 97.72L518.956 93.8946L517.787 97.72ZM534.779 95.416L532.069 92.4738L532.049 92.4918L532.03 92.5101L534.779 95.416ZM538.427 50.488L534.504 49.7035L534.427 50.0919V50.488H538.427ZM540.347 40.888V36.888H537.067L536.424 40.1035L540.347 40.888ZM552.443 40.888L556.388 41.5456L557.164 36.888H552.443V40.888ZM551.675 45.496L555.61 46.2115L555.615 46.1826L555.62 46.1536L551.675 45.496ZM551.099 49.24L547.126 48.7726L547.113 48.8813L547.106 48.9905L551.099 49.24ZM547.739 98.296L551.204 100.293L547.739 98.296ZM538.811 106.84L536.998 103.274L536.974 103.287L536.95 103.299L538.811 106.84ZM515.963 108.568L514.917 112.429L515.963 108.568ZM509.019 64.696C509.019 59.8185 509.843 55.9355 511.309 52.899L504.104 49.421C501.986 53.8085 501.019 58.9495 501.019 64.696H509.019ZM511.284 52.9489C512.86 49.7974 514.857 47.5797 517.219 46.104L512.979 39.32C509.196 41.6842 506.265 45.0986 504.129 49.3711L511.284 52.9489ZM517.187 46.1234C519.645 44.6187 522.463 43.832 525.755 43.832V35.832C521.11 35.832 516.824 36.9653 513.01 39.3006L517.187 46.1234ZM525.755 43.832C528.301 43.832 530.445 44.469 532.311 45.6818L536.671 38.9742C533.416 36.859 529.737 35.832 525.755 35.832V43.832ZM532.408 45.7432C534.233 46.8559 535.83 48.6475 537.099 51.3962L544.362 48.0438C542.559 44.1365 539.996 41.0001 536.573 38.9128L532.408 45.7432ZM537.099 51.3962C538.321 54.0447 539.035 57.5891 539.035 62.2H547.035C547.035 56.8269 546.212 52.0513 544.362 48.0438L537.099 51.3962ZM542.457 58.2419L537.849 58.9139L539.004 66.8301L543.612 66.1581L542.457 58.2419ZM542.427 62.872C542.427 59.5469 541.975 56.496 540.829 53.9398L533.529 57.2122C534.047 58.368 534.427 60.1811 534.427 62.872H542.427ZM540.893 54.0904C539.889 51.5807 538.331 49.4213 536.062 47.9774L531.767 54.7266C532.314 55.0747 532.933 55.7313 533.465 57.0616L540.893 54.0904ZM536.168 48.0471C534.06 46.6102 531.667 45.912 529.115 45.912V53.912C530.147 53.912 530.953 54.1738 531.661 54.6569L536.168 48.0471ZM529.115 45.912C524.559 45.912 520.664 47.7022 517.773 51.2065L523.944 56.2975C525.277 54.6818 526.886 53.912 529.115 53.912V45.912ZM517.805 51.1682C514.897 54.6054 513.691 59.0909 513.691 64.12H521.691C521.691 60.3171 522.597 57.8906 523.912 56.3358L517.805 51.1682ZM513.691 64.12C513.691 67.4184 514.154 70.4574 515.233 73.1135L522.644 70.1025C522.06 68.6626 521.691 66.7096 521.691 64.12H513.691ZM515.293 73.2543C516.442 75.7974 518.104 77.9388 520.368 79.4482L524.805 72.7918C523.998 72.2532 523.228 71.3866 522.584 69.9617L515.293 73.2543ZM520.467 79.512C522.698 80.9068 525.207 81.56 527.867 81.56V73.56C526.558 73.56 525.547 73.2532 524.707 72.728L520.467 79.512ZM527.867 81.56C530.512 81.56 533.122 80.9788 535.669 79.8983L532.544 72.5337C530.867 73.2452 529.317 73.56 527.867 73.56V81.56ZM535.63 79.9147C538.26 78.8315 540.606 77.3099 542.639 75.3553L537.094 69.5887C535.799 70.8341 534.305 71.8085 532.584 72.5173L535.63 79.9147ZM535.867 72.472V80.536H543.867V72.472H535.867ZM536.648 78.1606C535.002 80.3917 533.098 82.0152 530.941 83.119L534.585 90.241C537.931 88.5288 540.764 86.0563 543.085 82.9114L536.648 78.1606ZM530.974 83.1023C528.854 84.1623 526.588 84.696 524.123 84.696V92.696C527.801 92.696 531.295 91.8857 534.551 90.2577L530.974 83.1023ZM524.123 84.696C521.299 84.696 518.844 83.9536 516.645 82.4878L512.208 89.1442C515.769 91.5184 519.779 92.696 524.123 92.696V84.696ZM516.645 82.4878C514.445 81.021 512.582 78.8601 511.118 75.8228L503.912 79.2972C505.903 83.4279 508.648 86.771 512.208 89.1442L516.645 82.4878ZM511.143 75.8756C509.779 72.9391 509.019 69.2546 509.019 64.696H501.019C501.019 70.1214 501.922 75.0129 503.887 79.2444L511.143 75.8756ZM511.71 106.901L515.07 96.3408L507.447 93.9152L504.087 104.475L511.71 106.901ZM509.47 98.7057C511.727 99.8344 514.112 100.78 516.618 101.545L518.956 93.8946C516.854 93.2524 514.886 92.4696 513.047 91.5503L509.47 98.7057ZM516.618 101.545C519.324 102.372 522.151 102.776 525.083 102.776V94.776C522.894 94.776 520.858 94.4758 518.956 93.8946L516.618 101.545ZM525.083 102.776C529.927 102.776 534.239 101.433 537.527 98.3219L532.03 92.5101C530.582 93.8793 528.43 94.776 525.083 94.776V102.776ZM537.489 98.3582C541.066 95.0634 542.427 90.2106 542.427 84.76H534.427C534.427 89.0374 533.356 91.2886 532.069 92.4738L537.489 98.3582ZM542.427 84.76V50.488H534.427V84.76H542.427ZM542.349 51.2725L544.269 41.6725L536.424 40.1035L534.504 49.7035L542.349 51.2725ZM540.347 44.888H552.443V36.888H540.347V44.888ZM548.497 40.2304L547.729 44.8384L555.62 46.1536L556.388 41.5456L548.497 40.2304ZM547.739 44.7805C547.472 46.2474 547.266 47.5809 547.126 48.7726L555.071 49.7074C555.187 48.7231 555.365 47.5606 555.61 46.2115L547.739 44.7805ZM547.106 48.9905C547.036 50.1184 547.003 51.3886 547.003 52.792H555.003C555.003 51.5074 555.033 50.4096 555.091 49.4895L547.106 48.9905ZM547.003 52.792V84.76H555.003V52.792H547.003ZM547.003 84.76C547.003 89.4501 546.034 93.2432 544.273 96.2988L551.204 100.293C553.796 95.7968 555.003 90.5659 555.003 84.76H547.003ZM544.273 96.2988C542.472 99.4233 540.062 101.717 536.998 103.274L540.624 110.406C545.112 108.123 548.653 104.721 551.204 100.293L544.273 96.2988ZM536.95 103.299C533.824 104.942 530.158 105.816 525.851 105.816V113.816C531.271 113.816 536.245 112.706 540.671 110.381L536.95 103.299ZM525.851 105.816C522.647 105.816 519.706 105.438 517.008 104.707L514.917 112.429C518.364 113.362 522.014 113.816 525.851 113.816V105.816ZM517.008 104.707C514.11 103.922 511.653 103.037 509.607 102.071L506.191 109.305C508.753 110.515 511.671 111.55 514.917 112.429L517.008 104.707ZM564.881 40.888V36.888H560.159L560.935 41.5456L564.881 40.888ZM576.977 40.888L580.899 40.1035L580.256 36.888H576.977V40.888ZM578.897 50.488H582.897V50.0919L582.819 49.7035L578.897 50.488ZM578.897 91V95H582.897V91H578.897ZM566.321 91H562.321V95H566.321V91ZM566.129 49.24L562.135 49.4749L562.143 49.6059L562.159 49.7361L566.129 49.24ZM565.649 45.496L561.703 46.1536L561.708 46.1826L561.713 46.2115L565.649 45.496ZM577.457 57.592H573.457V68.5858L580.521 60.1624L577.457 57.592ZM577.457 48.952L574.275 46.5278L573.457 47.6018V48.952H577.457ZM584.657 42.424L586.726 45.8469L586.755 45.8295L586.784 45.8116L584.657 42.424ZM602.417 42.136L600.396 45.5881L600.445 45.6169L600.495 45.6444L602.417 42.136ZM608.849 48.76L605.334 50.67L605.35 50.6993L605.366 50.7282L608.849 48.76ZM611.345 91V95H615.345V91H611.345ZM598.769 91H594.769V95H598.769V91ZM597.521 55.96L593.943 57.7489L593.972 57.8075L594.003 57.8651L597.521 55.96ZM594.257 52.6L592.272 56.073L592.368 56.1281L592.468 56.1777L594.257 52.6ZM583.121 53.08L584.866 56.6793L584.888 56.6686L584.909 56.6577L583.121 53.08ZM564.881 44.888H576.977V36.888H564.881V44.888ZM573.054 41.6725L574.974 51.2725L582.819 49.7035L580.899 40.1035L573.054 41.6725ZM574.897 50.488V91H582.897V50.488H574.897ZM578.897 87H566.321V95H578.897V87ZM570.321 91V52.792H562.321V91H570.321ZM570.321 52.792C570.321 51.3287 570.251 49.9729 570.098 48.7439L562.159 49.7361C562.262 50.5551 562.321 51.5673 562.321 52.792H570.321ZM570.122 49.0051C570.046 47.7151 569.861 46.3013 569.584 44.7805L561.713 46.2115C561.949 47.5067 562.083 48.5889 562.135 49.4749L570.122 49.0051ZM569.594 44.8384L568.826 40.2304L560.935 41.5456L561.703 46.1536L569.594 44.8384ZM581.457 57.592V48.952H573.457V57.592H581.457ZM580.638 51.3762C582.397 49.0674 584.426 47.2378 586.726 45.8469L582.587 39.0011C579.383 40.9382 576.612 43.4606 574.275 46.5278L580.638 51.3762ZM586.784 45.8116C588.87 44.5018 591.198 43.832 593.873 43.832V35.832C589.763 35.832 585.948 36.8902 582.53 39.0364L586.784 45.8116ZM593.873 43.832C596.242 43.832 598.392 44.4148 600.396 45.5881L604.437 38.6839C601.194 36.7852 597.647 35.832 593.873 35.832V43.832ZM600.495 45.6444C602.447 46.7133 604.065 48.3353 605.334 50.67L612.363 46.8499C610.432 43.2967 607.762 40.5026 604.338 38.6276L600.495 45.6444ZM605.366 50.7282C606.594 52.9003 607.345 55.9096 607.345 59.992H615.345C615.345 54.9864 614.431 50.5077 612.331 46.7918L605.366 50.7282ZM607.345 59.992V91H615.345V59.992H607.345ZM611.345 87H598.769V95H611.345V87ZM602.769 91V61.912H594.769V91H602.769ZM602.769 61.912C602.769 59.0618 602.287 56.3603 601.038 54.0549L594.003 57.8651C594.419 58.6317 594.769 59.8982 594.769 61.912H602.769ZM601.098 54.1711C599.981 51.9355 598.299 50.149 596.045 49.0223L592.468 56.1777C593.03 56.459 593.525 56.9125 593.943 57.7489L601.098 54.1711ZM596.241 49.127C594.203 47.9625 591.93 47.448 589.553 47.448V55.448C590.759 55.448 591.622 55.7015 592.272 56.073L596.241 49.127ZM589.553 47.448C586.732 47.448 583.979 48.1789 581.332 49.5023L584.909 56.6577C586.615 55.8051 588.15 55.448 589.553 55.448V47.448ZM581.376 49.4807C578.706 50.7752 576.381 52.6504 574.392 55.0215L580.521 60.1624C581.861 58.5656 583.311 57.4328 584.866 56.6793L581.376 49.4807Z" fill="#1165BA" mask="url(#path-1-outside-1_881_6388)"/>
</svg>
