<svg width="231" height="138" viewBox="0 0 231 138" fill="none" xmlns="http://www.w3.org/2000/svg">
<g id="undraw_responsive_re_e1nn" clip-path="url(#clip0_881_6460)">
<path id="Vector" d="M13.6111 105.868C6.81196 103.39 0.909856 97.4638 0.161133 90.2559C6.76164 94.5451 14.6641 96.3575 22.4703 95.3725C25.4794 94.9817 28.7857 94.2332 31.3607 95.8409C32.963 96.8413 33.9577 98.6175 34.414 100.453C34.8703 102.288 34.8498 104.203 34.8265 106.094L35.0382 106.516C27.9357 107.897 20.4103 108.345 13.6111 105.868Z" fill="#F0F0F0"/>
<path id="Vector_2" d="M0.308739 90.2199C3.77359 95.1124 8.68938 98.7869 14.3579 100.722C15.5708 101.16 16.8451 101.404 18.1339 101.445C19.3906 101.444 20.6241 101.106 21.7063 100.466C22.7272 99.8892 23.705 99.1812 24.8481 98.8635C25.4356 98.7095 26.049 98.6817 26.648 98.7818C27.247 98.882 27.8181 99.1078 28.3239 99.4446C29.6059 100.251 30.5222 101.47 31.377 102.694C32.326 104.053 33.2902 105.479 34.7716 106.304C34.9511 106.404 34.7858 106.677 34.6065 106.578C32.0291 105.142 31.0748 102.098 28.8809 100.247C27.8573 99.3839 26.5675 98.8242 25.2147 99.1032C24.0316 99.3471 23.0228 100.076 21.994 100.669C20.9475 101.309 19.7605 101.682 18.5366 101.756C17.25 101.782 15.9684 101.587 14.7468 101.182C11.9822 100.313 9.3711 99.0135 7.00931 97.3319C4.30319 95.4278 1.94221 93.074 0.0285142 90.3724C-0.0898618 90.2052 0.191136 90.0537 0.308739 90.2199Z" fill="#323232"/>
<path id="Vector_3" d="M12.4959 100.206C12.0427 101.115 11.2819 101.833 10.3492 102.231C9.41656 102.63 8.37286 102.683 7.40448 102.382C7.20873 102.32 7.29512 102.013 7.49111 102.075C8.39234 102.357 9.36456 102.307 10.2323 101.934C11.1 101.561 11.8061 100.89 12.2231 100.041C12.3139 99.8569 12.5862 100.023 12.4959 100.206Z" fill="#323232"/>
<path id="Vector_4" d="M21.2268 100.826C20.5884 98.8508 19.2301 97.1892 17.4229 96.1726C17.2437 96.072 17.409 95.7988 17.5879 95.8993C19.4666 96.9608 20.8766 98.6928 21.5364 100.75C21.5992 100.946 21.2892 101.021 21.2268 100.826Z" fill="#323232"/>
<path id="Vector_5" d="M4.66335 95.2068C4.91183 94.8919 5.07832 94.5201 5.14788 94.1247C5.21743 93.7294 5.18787 93.323 5.06185 92.9419C4.99664 92.7467 5.3067 92.6717 5.37149 92.8656C5.50876 93.2872 5.54086 93.7361 5.46498 94.1731C5.38909 94.61 5.20754 95.0217 4.93618 95.3721C4.91336 95.4073 4.87803 95.4325 4.83736 95.4425C4.79669 95.4525 4.75374 95.4467 4.71723 95.4261C4.68122 95.404 4.65536 95.3686 4.64527 95.3276C4.63518 95.2865 4.64168 95.2431 4.66335 95.2068Z" fill="#323232"/>
<path id="Vector_6" d="M17.3216 72.7456C17.3658 72.8663 17.4099 72.9871 17.4567 73.1085C18.0591 74.7285 18.7918 76.2969 19.6477 77.798C19.7121 77.9152 19.779 78.0329 19.8466 78.1479C21.9472 81.7425 24.6958 84.9152 27.9528 87.5048C29.2497 88.5341 30.623 89.463 32.0606 90.2836C34.0462 91.4167 36.289 92.4871 37.7421 94.1617C37.8956 94.3347 38.0383 94.5171 38.1694 94.7078L35.5358 106.225C35.5167 106.248 35.5001 106.272 35.481 106.295L35.3969 106.76C35.3198 106.723 35.2406 106.682 35.1635 106.645C35.1187 106.624 35.0745 106.6 35.0296 106.579C35 106.564 34.9703 106.548 34.9426 106.537C34.9327 106.532 34.9229 106.526 34.9156 106.522C34.8879 106.51 34.8635 106.496 34.8385 106.485C34.3953 106.262 33.953 106.035 33.5115 105.804C33.5088 105.804 33.5088 105.804 33.5068 105.801C30.1256 104.078 26.9604 101.959 24.0775 99.4891C23.9925 99.4142 23.9048 99.3389 23.821 99.2588C22.5529 98.1304 21.3789 96.9001 20.3109 95.5801C19.7285 94.8554 19.183 94.1017 18.6766 93.3218C17.372 91.3042 16.3924 89.0935 15.7737 86.771C14.5409 82.1407 14.8003 77.1672 17.1398 73.0578C17.1997 72.9527 17.259 72.8501 17.3216 72.7456Z" fill="#F0F0F0"/>
<path id="Vector_7" d="M17.4614 72.8053C17.2871 78.8012 19.0034 84.6996 22.3665 89.6628C23.0715 90.7442 23.9424 91.7074 24.9469 92.5172C25.9508 93.2743 27.1389 93.7483 28.3876 93.8899C29.5493 94.0454 30.7555 94.0697 31.8592 94.5054C32.4209 94.7368 32.9273 95.0845 33.3454 95.5257C33.7635 95.9669 34.0837 96.4916 34.2852 97.0655C34.8242 98.4823 34.8228 100.009 34.7696 101.501C34.7106 103.158 34.6231 104.879 35.3101 106.431C35.3933 106.619 35.0971 106.737 35.014 106.55C33.8188 103.849 34.8866 100.843 34.2473 98.0425C33.949 96.7357 33.2557 95.5109 32.0078 94.9179C30.9166 94.3992 29.6728 94.3731 28.4952 94.2258C27.275 94.1055 26.1028 93.6878 25.0809 93.0091C24.0385 92.2533 23.1321 91.3252 22.4005 90.2647C20.7155 87.9035 19.4116 85.2916 18.5365 82.5247C17.5204 79.3724 17.0501 76.0693 17.146 72.7581C17.152 72.5532 17.4674 72.6017 17.4614 72.8053Z" fill="#323232"/>
<path id="Vector_8" d="M21.1901 88.1285C20.2822 88.5806 19.2433 88.6948 18.2591 88.4505C17.2749 88.2063 16.4094 87.6196 15.8172 86.7952C15.698 86.6279 15.9518 86.4345 16.0712 86.6019C16.6213 87.3706 17.4275 87.9171 18.3445 88.1426C19.2614 88.3682 20.2287 88.258 21.0717 87.832C21.2549 87.7396 21.3724 88.0367 21.1901 88.1285Z" fill="#323232"/>
<path id="Vector_9" d="M27.7887 93.8888C28.4661 91.9266 28.3804 89.7808 27.5486 87.8792C27.466 87.6909 27.7622 87.5724 27.8446 87.7606C28.7066 89.741 28.7913 91.9743 28.0818 94.0145C28.014 94.209 27.7213 94.0821 27.7887 93.8888Z" fill="#323232"/>
<path id="Vector_10" d="M17.9408 79.4131C18.3285 79.3115 18.6849 79.115 18.9781 78.8413C19.2712 78.5676 19.4919 78.2253 19.6204 77.845C19.6856 77.6498 19.9783 77.7769 19.9135 77.9708C19.7696 78.3903 19.5254 78.768 19.2022 79.0711C18.879 79.3743 18.4866 79.5935 18.0592 79.7096C18.0199 79.724 17.9766 79.7227 17.9381 79.7062C17.8996 79.6897 17.8688 79.6591 17.852 79.6207C17.8365 79.5814 17.8371 79.5375 17.8538 79.4986C17.8704 79.4597 17.9017 79.429 17.9408 79.4131Z" fill="#323232"/>
<path id="Vector_11" d="M219.403 105.63C225.846 102.334 230.976 95.7259 230.835 88.4805C224.811 93.5498 217.191 96.3214 209.323 96.305C206.289 96.2876 202.916 95.9519 200.557 97.8645C199.09 99.0545 198.321 100.94 198.093 102.817C197.865 104.694 198.121 106.593 198.376 108.467L198.218 108.912C205.436 109.408 212.959 108.926 219.403 105.63Z" fill="#F0F0F0"/>
<path id="Vector_12" d="M230.684 88.4628C227.846 93.7448 223.418 97.9967 218.03 100.615C216.88 101.199 215.645 101.598 214.371 101.797C213.124 101.951 211.858 101.767 210.706 101.265C209.622 100.819 208.565 100.237 207.391 100.062C206.789 99.9817 206.177 100.03 205.595 100.203C205.013 100.376 204.474 100.67 204.013 101.067C202.84 102.025 202.08 103.348 201.382 104.668C200.607 106.133 199.825 107.667 198.456 108.668C198.29 108.79 198.488 109.04 198.654 108.919C201.035 107.178 201.609 104.039 203.559 101.932C204.469 100.949 205.68 100.235 207.057 100.345C208.261 100.442 209.352 101.041 210.445 101.503C211.562 102.009 212.786 102.233 214.01 102.156C215.29 102.023 216.538 101.672 217.7 101.119C220.338 99.9162 222.769 98.3055 224.907 96.3459C227.359 94.123 229.413 91.4964 230.981 88.5797C231.078 88.3991 230.78 88.2835 230.684 88.4628Z" fill="#323232"/>
<path id="Vector_13" d="M219.814 99.874C220.376 100.72 221.219 101.338 222.193 101.619C223.168 101.9 224.21 101.824 225.134 101.406C225.321 101.321 225.197 101.026 225.01 101.112C224.151 101.503 223.18 101.573 222.273 101.31C221.366 101.046 220.583 100.467 220.065 99.6763C219.952 99.5046 219.702 99.7032 219.814 99.874Z" fill="#323232"/>
<path id="Vector_14" d="M211.226 101.564C211.617 99.5254 212.761 97.7092 214.43 96.4777C214.596 96.3558 214.398 96.1051 214.233 96.2268C212.499 97.5116 211.312 99.4041 210.909 101.527C210.871 101.729 211.188 101.765 211.226 101.564Z" fill="#323232"/>
<path id="Vector_15" d="M226.974 93.9482C226.688 93.6662 226.477 93.3177 226.36 92.9339C226.242 92.5502 226.222 92.1432 226.3 91.7495C226.341 91.5478 226.024 91.5115 225.983 91.7119C225.899 92.1472 225.922 92.5967 226.051 93.021C226.18 93.4453 226.411 93.8315 226.723 94.1458C226.75 94.1779 226.788 94.1985 226.83 94.2035C226.871 94.2084 226.913 94.1973 226.947 94.1724C226.98 94.1461 227.001 94.1078 227.006 94.0658C227.011 94.0238 226.999 93.9815 226.974 93.9482Z" fill="#323232"/>
<path id="Vector_16" d="M211.656 73.2158C211.627 73.3411 211.598 73.4663 211.566 73.5926C211.167 75.2745 210.632 76.9212 209.967 78.5163C209.918 78.6405 209.866 78.7656 209.813 78.888C208.169 82.714 205.831 86.2011 202.916 89.172C201.756 90.3532 200.507 91.4441 199.181 92.4355C197.349 93.8045 195.255 95.1429 194.018 96.9837C193.887 97.1743 193.768 97.3729 193.661 97.5783L197.688 108.684C197.71 108.704 197.729 108.726 197.751 108.747L197.892 109.197C197.964 109.151 198.037 109.101 198.109 109.055C198.151 109.028 198.192 108.999 198.234 108.972C198.261 108.954 198.289 108.935 198.315 108.92C198.324 108.914 198.333 108.908 198.34 108.902C198.366 108.887 198.389 108.87 198.412 108.856C198.824 108.58 199.236 108.3 199.645 108.017C199.648 108.016 199.648 108.016 199.65 108.013C202.794 105.887 205.675 103.394 208.233 100.588C208.308 100.504 208.386 100.418 208.459 100.328C209.579 99.0522 210.593 97.6866 211.491 96.2452C211.98 95.4543 212.429 94.6392 212.836 93.8028C213.883 91.6399 214.584 89.3254 214.913 86.9442C215.568 82.1973 214.701 77.2934 211.874 73.5033C211.802 73.4064 211.731 73.3118 211.656 73.2158Z" fill="#F0F0F0"/>
<path id="Vector_17" d="M211.524 73.2919C212.433 79.2208 211.453 85.2858 208.725 90.6254C208.158 91.7854 207.412 92.8486 206.514 93.7758C205.611 94.6508 204.49 95.2675 203.268 95.5618C202.134 95.8591 200.94 96.0318 199.898 96.6C199.369 96.8988 198.909 97.3062 198.549 97.7955C198.188 98.2849 197.935 98.8451 197.805 99.4394C197.444 100.912 197.633 102.426 197.869 103.901C198.131 105.539 198.429 107.235 197.937 108.86C197.878 109.057 198.186 109.138 198.246 108.941C199.1 106.114 197.672 103.262 197.963 100.404C198.098 99.0707 198.636 97.7699 199.802 97.0276C200.821 96.3786 202.052 96.1995 203.203 95.9084C204.399 95.6388 205.511 95.0799 206.442 94.2805C207.383 93.402 208.169 92.3694 208.765 91.2269C210.148 88.6762 211.121 85.9236 211.65 83.0699C212.271 79.8164 212.333 76.4804 211.831 73.2062C211.8 73.0035 211.493 73.0906 211.524 73.2919Z" fill="#323232"/>
<path id="Vector_18" d="M209.705 88.958C210.661 89.2949 211.706 89.2803 212.653 88.9167C213.6 88.5531 214.387 87.8643 214.873 86.9732C214.971 86.7926 214.696 86.6318 214.598 86.8127C214.146 87.6433 213.413 88.2849 212.531 88.6216C211.648 88.9584 210.675 88.9681 209.786 88.6491C209.593 88.58 209.513 88.8893 209.705 88.958Z" fill="#323232"/>
<path id="Vector_19" d="M203.863 95.4868C202.95 93.623 202.772 91.4829 203.364 89.4933C203.423 89.2962 203.115 89.2152 203.056 89.412C202.443 91.4836 202.633 93.7103 203.588 95.6478C203.679 95.8324 203.954 95.6704 203.863 95.4868Z" fill="#323232"/>
<path id="Vector_20" d="M211.859 79.909C211.462 79.8559 211.084 79.7048 210.759 79.4693C210.435 79.2338 210.174 78.9212 210 78.5596C209.911 78.374 209.636 78.5361 209.724 78.7206C209.918 79.1191 210.207 79.464 210.565 79.725C210.923 79.986 211.339 80.1552 211.778 80.2179C211.819 80.2273 211.861 80.2207 211.898 80.1996C211.934 80.1785 211.961 80.1443 211.973 80.1041C211.983 80.0632 211.977 80.0197 211.956 79.9832C211.935 79.9466 211.9 79.92 211.859 79.909Z" fill="#323232"/>
<path id="Vector_21" d="M201.218 4.74365H155.82V7.66886C155.82 7.81864 155.871 7.964 155.966 8.07997C155.874 10.3664 155.82 13.2852 155.82 16.4571V94.6628C155.82 101.993 156.114 107.957 156.474 107.957H200.564C200.924 107.957 201.218 101.993 201.218 94.6628V16.4571C201.218 13.2852 201.164 10.3664 201.072 8.07997C201.167 7.96398 201.218 7.81863 201.218 7.66886L201.218 4.74365Z" fill="#323232"/>
<path id="Vector_22" d="M200.563 108.274H156.473C156.13 108.274 155.903 108.274 155.696 104.075C155.572 101.555 155.504 98.2121 155.504 94.6628V16.4571C155.504 13.3915 155.556 10.412 155.65 8.06721C155.708 6.65943 155.776 5.53175 155.849 4.71505C155.995 3.11626 156.132 2.84619 156.473 2.84619H200.563C200.904 2.84619 201.042 3.11626 201.187 4.71505C201.261 5.53483 201.329 6.66251 201.387 8.06659L201.387 8.06721C201.481 10.4095 201.533 13.3891 201.533 16.4571V94.6628C201.533 98.2122 201.464 101.555 201.341 104.075C201.134 108.274 200.907 108.274 200.563 108.274ZM156.653 107.641H200.384C200.613 106.777 200.901 102.085 200.901 94.6628V16.4571C200.901 13.3974 200.85 10.4271 200.756 8.09315C200.698 6.69911 200.632 5.58178 200.558 4.77219C200.53 4.33733 200.471 3.90505 200.381 3.47867H156.656C156.566 3.90505 156.507 4.33733 156.478 4.77219C156.405 5.57869 156.339 6.69602 156.28 8.09315C156.187 10.4291 156.135 13.3997 156.135 16.4571V94.6628C156.135 102.085 156.424 106.777 156.653 107.641Z" fill="#E4E4E4"/>
<path id="Vector_23" d="M200.564 3.16211H156.474C156.301 3.16244 156.135 3.23152 156.012 3.3542C155.89 3.47689 155.821 3.6432 155.82 3.81672V7.6685C155.82 7.81829 155.871 7.96365 155.966 8.07962C156.027 8.15545 156.105 8.21664 156.192 8.25876C156.28 8.30088 156.377 8.32286 156.474 8.32312H200.564C200.662 8.32284 200.758 8.30085 200.846 8.25873C200.934 8.21661 201.011 8.15543 201.072 8.07962C201.167 7.96363 201.218 7.81828 201.218 7.6685V3.81672C201.217 3.64322 201.148 3.47691 201.026 3.35422C200.903 3.23153 200.737 3.16245 200.564 3.16211Z" fill="#CACACA"/>
<path id="Ellipse 90" d="M159.615 6.48424C160.127 6.48424 160.543 6.06804 160.543 5.55462C160.543 5.04121 160.127 4.625 159.615 4.625C159.102 4.625 158.687 5.04121 158.687 5.55462C158.687 6.06804 159.102 6.48424 159.615 6.48424Z" fill="#323232"/>
<path id="Ellipse 91" d="M163.138 6.48424C163.651 6.48424 164.066 6.06804 164.066 5.55462C164.066 5.04121 163.651 4.625 163.138 4.625C162.625 4.625 162.21 5.04121 162.21 5.55462C162.21 6.06804 162.625 6.48424 163.138 6.48424Z" fill="#323232"/>
<path id="Ellipse 92" d="M166.661 6.48424C167.173 6.48424 167.589 6.06804 167.589 5.55462C167.589 5.04121 167.173 4.625 166.661 4.625C166.148 4.625 165.732 5.04121 165.732 5.55462C165.732 6.06804 166.148 6.48424 166.661 6.48424Z" fill="#323232"/>
<path id="Vector_24" d="M197.113 4.31348H193.056C192.976 4.31401 192.9 4.34583 192.844 4.40206C192.788 4.45829 192.756 4.5344 192.756 4.6139C192.755 4.65917 192.766 4.70395 192.788 4.74356C192.812 4.79449 192.85 4.83756 192.897 4.86778C192.944 4.898 193 4.91414 193.056 4.91433H197.113C197.17 4.91461 197.225 4.8987 197.273 4.86846C197.321 4.83822 197.36 4.7949 197.384 4.74356C197.404 4.70313 197.414 4.65874 197.413 4.6139C197.413 4.57444 197.405 4.53536 197.39 4.4989C197.375 4.46244 197.353 4.42931 197.325 4.40141C197.297 4.3735 197.264 4.35138 197.228 4.33629C197.191 4.3212 197.152 4.31345 197.113 4.31348Z" fill="#323232"/>
<path id="Vector_25" d="M197.113 5.44238H193.056C192.976 5.44238 192.9 5.47403 192.844 5.53037C192.787 5.58672 192.756 5.66313 192.756 5.74281C192.756 5.82249 192.787 5.8989 192.844 5.95524C192.9 6.01158 192.976 6.04323 193.056 6.04323H197.113C197.192 6.04323 197.269 6.01158 197.325 5.95524C197.381 5.8989 197.413 5.82249 197.413 5.74281C197.413 5.66313 197.381 5.58672 197.325 5.53037C197.269 5.47403 197.192 5.44238 197.113 5.44238Z" fill="#323232"/>
<path id="Vector_26" d="M197.113 6.57129H193.056C192.976 6.57129 192.9 6.60294 192.844 6.65929C192.787 6.71563 192.756 6.79204 192.756 6.87171C192.756 6.95139 192.787 7.02781 192.844 7.08415C192.9 7.14049 192.976 7.17214 193.056 7.17214H197.113C197.192 7.17214 197.269 7.14049 197.325 7.08415C197.381 7.02781 197.413 6.95139 197.413 6.87171C197.413 6.79204 197.381 6.71563 197.325 6.65929C197.269 6.60294 197.192 6.57129 197.113 6.57129Z" fill="#323232"/>
<path id="Vector_27" d="M182.906 16.7671H174.558C174.139 16.7673 173.738 16.9339 173.442 17.2304C173.146 17.5269 172.98 17.929 172.979 18.3483V25.5901C172.98 26.0093 173.147 26.4111 173.443 26.7074C173.739 27.0038 174.14 27.1706 174.558 27.1713H182.906C183.324 27.1701 183.725 27.0031 184.021 26.7069C184.316 26.4106 184.483 26.0091 184.484 25.5901V18.3483C184.484 17.9291 184.317 17.5274 184.021 17.231C183.725 16.9346 183.324 16.7678 182.906 16.7671Z" fill="#046AD0"/>
<path id="Vector_28" d="M193.277 31.9019H164.183C163.993 31.9019 163.811 31.9775 163.677 32.1121C163.542 32.2467 163.467 32.4293 163.467 32.6197C163.467 32.8101 163.542 32.9927 163.677 33.1273C163.811 33.2619 163.993 33.3376 164.183 33.3376H193.277C193.467 33.3376 193.649 33.2619 193.784 33.1273C193.918 32.9927 193.994 32.8101 193.994 32.6197C193.994 32.4293 193.918 32.2467 193.784 32.1121C193.649 31.9775 193.467 31.9019 193.277 31.9019Z" fill="#E4E4E4"/>
<path id="Vector_29" d="M175.234 35.2671H164.183C163.993 35.2671 163.811 35.3427 163.677 35.4774C163.542 35.612 163.467 35.7946 163.467 35.985C163.467 36.1753 163.542 36.3579 163.677 36.4926C163.811 36.6272 163.993 36.7028 164.183 36.7028H175.234C175.424 36.7028 175.606 36.6272 175.74 36.4926C175.875 36.3579 175.95 36.1753 175.95 35.985C175.95 35.7946 175.875 35.612 175.74 35.4774C175.606 35.3427 175.424 35.2671 175.234 35.2671Z" fill="#E4E4E4"/>
<path id="Vector_30" d="M182.906 48.0747H174.558C174.139 48.0749 173.738 48.2415 173.442 48.538C173.146 48.8345 172.98 49.2366 172.979 49.6559V56.8978C172.98 57.3169 173.147 57.7187 173.443 58.0151C173.739 58.3114 174.14 58.4783 174.558 58.479H182.906C183.324 58.4777 183.725 58.3107 184.021 58.0145C184.316 57.7182 184.483 57.3167 184.484 56.8978V49.6559C184.484 49.2368 184.317 48.835 184.021 48.5386C183.725 48.2422 183.324 48.0754 182.906 48.0747Z" fill="#046AD0"/>
<path id="Vector_31" d="M193.277 63.2095H164.183C163.993 63.2095 163.811 63.2851 163.677 63.4197C163.542 63.5544 163.467 63.7369 163.467 63.9273C163.467 64.1177 163.542 64.3003 163.677 64.4349C163.811 64.5696 163.993 64.6452 164.183 64.6452H193.277C193.467 64.6452 193.649 64.5696 193.784 64.4349C193.918 64.3003 193.994 64.1177 193.994 63.9273C193.994 63.7369 193.918 63.5544 193.784 63.4197C193.649 63.2851 193.467 63.2095 193.277 63.2095Z" fill="#E4E4E4"/>
<path id="Vector_32" d="M175.234 66.5742H164.183C163.993 66.5742 163.811 66.6499 163.677 66.7845C163.542 66.9191 163.467 67.1017 163.467 67.2921C163.467 67.4825 163.542 67.6651 163.677 67.7997C163.811 67.9343 163.993 68.0099 164.183 68.0099H175.234C175.424 68.0099 175.606 67.9343 175.74 67.7997C175.875 67.6651 175.95 67.4825 175.95 67.2921C175.95 67.1017 175.875 66.9191 175.74 66.7845C175.606 66.6499 175.424 66.5742 175.234 66.5742Z" fill="#E4E4E4"/>
<path id="Vector_33" d="M182.906 79.3823H174.558C174.139 79.3825 173.738 79.5491 173.442 79.8456C173.146 80.1421 172.98 80.5442 172.979 80.9635V88.2054C172.98 88.6245 173.147 89.0263 173.443 89.3227C173.739 89.619 174.14 89.7859 174.558 89.7866H182.906C183.324 89.7853 183.725 89.6184 184.021 89.3221C184.316 89.0258 184.483 88.6244 184.484 88.2054V80.9635C184.484 80.5444 184.317 80.1426 184.021 79.8462C183.725 79.5498 183.324 79.383 182.906 79.3823Z" fill="#046AD0"/>
<path id="Vector_34" d="M193.277 94.5171H164.183C163.993 94.5171 163.811 94.5927 163.677 94.7273C163.542 94.862 163.467 95.0446 163.467 95.235C163.467 95.4253 163.542 95.6079 163.677 95.7426C163.811 95.8772 163.993 95.9528 164.183 95.9528H193.277C193.467 95.9528 193.649 95.8772 193.784 95.7426C193.918 95.6079 193.994 95.4253 193.994 95.235C193.994 95.0446 193.918 94.862 193.784 94.7273C193.649 94.5927 193.467 94.5171 193.277 94.5171Z" fill="#E4E4E4"/>
<path id="Vector_35" d="M175.234 97.8818H164.183C163.993 97.8818 163.811 97.9575 163.677 98.0921C163.542 98.2267 163.467 98.4093 163.467 98.5997C163.467 98.7901 163.542 98.9727 163.677 99.1073C163.811 99.2419 163.993 99.3176 164.183 99.3176H175.234C175.424 99.3176 175.606 99.2419 175.74 99.1073C175.875 98.9727 175.95 98.7901 175.95 98.5997C175.95 98.4093 175.875 98.2267 175.74 98.0921C175.606 97.9575 175.424 97.8818 175.234 97.8818Z" fill="#E4E4E4"/>
<path id="Vector_36" d="M143.441 0.971022C143.44 0.797517 143.371 0.631212 143.249 0.50852C143.126 0.385829 142.96 0.316747 142.787 0.316406H26.0814C25.9081 0.316741 25.7421 0.385813 25.6196 0.508501C25.4971 0.631189 25.4281 0.797501 25.4277 0.971022V4.8228C25.4272 4.98316 25.487 5.13785 25.5952 5.25605C25.4909 7.87134 25.4277 11.3183 25.4277 15.0942V102.031C25.4277 110.184 25.7214 116.812 26.0814 116.812H142.787C143.147 116.812 143.441 110.184 143.441 102.031V15.0942C143.441 11.3183 143.378 7.87134 143.273 5.25605C143.382 5.13784 143.441 4.98314 143.441 4.8228V0.971022Z" fill="#323232"/>
<path id="Vector_37" d="M142.787 117.128H26.0817C25.7249 117.128 25.5095 117.128 25.3044 112.493C25.1805 109.693 25.1123 105.977 25.1123 102.031V15.094C25.1123 11.455 25.1718 7.9566 25.28 5.24326C25.4875 4.22224e-06 25.7239 0 26.0817 0H142.787C143.145 0 143.382 0.000930701 143.589 5.24326C143.697 7.95413 143.757 11.4525 143.757 15.094V102.031C143.757 105.977 143.688 109.693 143.565 112.493C143.36 117.128 143.144 117.128 142.787 117.128ZM26.266 116.496H142.603C142.861 115.504 143.125 109.937 143.125 102.031V15.094C143.125 11.4607 143.066 7.97112 142.958 5.26858C142.827 1.947 142.673 0.936052 142.6 0.632476H26.2694C26.196 0.936065 26.0424 1.94685 25.9109 5.26843C25.8031 7.97374 25.7437 11.4632 25.7437 15.094V102.031C25.7437 109.937 26.0076 115.504 26.266 116.496Z" fill="#E4E4E4"/>
<path id="Vector_38" d="M142.787 0.316406H26.0814C25.9081 0.316741 25.7421 0.385813 25.6196 0.508501C25.4971 0.631189 25.4281 0.797501 25.4277 0.971022V4.8228C25.4272 4.98316 25.487 5.13785 25.5952 5.25605C25.6558 5.32546 25.7306 5.3811 25.8144 5.41927C25.8983 5.45745 25.9893 5.47727 26.0814 5.47742H142.787C142.879 5.47727 142.97 5.45745 143.054 5.41927C143.138 5.3811 143.213 5.32546 143.273 5.25605C143.382 5.13784 143.441 4.98314 143.441 4.8228V0.971022C143.44 0.797522 143.371 0.631221 143.249 0.50853C143.126 0.385839 142.96 0.316754 142.787 0.316406Z" fill="#CACACA"/>
<path id="Ellipse 90_2" d="M29.223 3.63854C29.7356 3.63854 30.1511 3.22233 30.1511 2.70892C30.1511 2.1955 29.7356 1.7793 29.223 1.7793C28.7104 1.7793 28.2949 2.1955 28.2949 2.70892C28.2949 3.22233 28.7104 3.63854 29.223 3.63854Z" fill="#323232"/>
<path id="Ellipse 91_2" d="M32.7455 3.63854C33.2581 3.63854 33.6736 3.22233 33.6736 2.70892C33.6736 2.1955 33.2581 1.7793 32.7455 1.7793C32.2329 1.7793 31.8174 2.1955 31.8174 2.70892C31.8174 3.22233 32.2329 3.63854 32.7455 3.63854Z" fill="#323232"/>
<path id="Ellipse 92_2" d="M36.2679 3.63854C36.7805 3.63854 37.196 3.22233 37.196 2.70892C37.196 2.1955 36.7805 1.7793 36.2679 1.7793C35.7554 1.7793 35.3398 2.1955 35.3398 2.70892C35.3398 3.22233 35.7554 3.63854 36.2679 3.63854Z" fill="#323232"/>
<path id="Vector_39" d="M139.336 1.46729H135.279C135.2 1.46729 135.124 1.49894 135.067 1.55528C135.011 1.61162 134.979 1.68803 134.979 1.76771C134.979 1.84739 135.011 1.9238 135.067 1.98014C135.124 2.03649 135.2 2.06814 135.279 2.06814H139.336C139.416 2.06814 139.492 2.03649 139.549 1.98014C139.605 1.9238 139.636 1.84739 139.636 1.76771C139.636 1.68803 139.605 1.61162 139.549 1.55528C139.492 1.49894 139.416 1.46729 139.336 1.46729Z" fill="#323232"/>
<path id="Vector_40" d="M139.336 2.59619H135.279C135.2 2.59619 135.124 2.62784 135.067 2.68418C135.011 2.74052 134.979 2.81694 134.979 2.89662C134.979 2.97629 135.011 3.05271 135.067 3.10905C135.124 3.16539 135.2 3.19704 135.279 3.19704H139.336C139.416 3.19704 139.492 3.16539 139.549 3.10905C139.605 3.05271 139.636 2.97629 139.636 2.89662C139.636 2.81694 139.605 2.74052 139.549 2.68418C139.492 2.62784 139.416 2.59619 139.336 2.59619Z" fill="#323232"/>
<path id="Vector_41" d="M139.336 3.7251H135.279C135.2 3.7251 135.124 3.75675 135.067 3.81309C135.011 3.86943 134.979 3.94584 134.979 4.02552C134.979 4.1052 135.011 4.18162 135.067 4.23796C135.124 4.2943 135.2 4.32595 135.279 4.32595H139.336C139.416 4.32595 139.492 4.2943 139.549 4.23796C139.605 4.18162 139.636 4.1052 139.636 4.02552C139.636 3.94584 139.605 3.86943 139.549 3.81309C139.492 3.75675 139.416 3.7251 139.336 3.7251Z" fill="#323232"/>
<path id="Vector_42" d="M63.8041 19.6133H50.146C49.4613 19.6141 48.8049 19.8869 48.3208 20.3719C47.8366 20.8568 47.5643 21.5143 47.5635 22.2001V34.0496C47.5643 34.7354 47.8366 35.3928 48.3208 35.8778C48.8049 36.3627 49.4613 36.6355 50.146 36.6364H63.8041C64.4888 36.6355 65.1452 36.3627 65.6293 35.8778C66.1134 35.3928 66.3858 34.7354 66.3866 34.0496V22.2001C66.3858 21.5143 66.1134 20.8568 65.6293 20.3719C65.1452 19.8869 64.4888 19.6141 63.8041 19.6133Z" fill="#046AD0"/>
<path id="Vector_43" d="M120.137 24.1953H72.5332C72.2222 24.1953 71.9238 24.3191 71.7039 24.5394C71.4839 24.7597 71.3604 25.0586 71.3604 25.3701C71.3604 25.6817 71.4839 25.9805 71.7039 26.2009C71.9238 26.4212 72.2222 26.545 72.5332 26.545H120.137C120.448 26.545 120.747 26.4212 120.967 26.2009C121.187 25.9805 121.31 25.6817 121.31 25.3701C121.31 25.0586 121.187 24.7597 120.967 24.5394C120.747 24.3191 120.448 24.1953 120.137 24.1953Z" fill="#E4E4E4"/>
<path id="Vector_44" d="M90.6145 29.7012H72.5332C72.2222 29.7012 71.9238 29.8249 71.7039 30.0453C71.4839 30.2656 71.3604 30.5644 71.3604 30.876C71.3604 31.1876 71.4839 31.4864 71.7039 31.7067C71.9238 31.927 72.2222 32.0508 72.5332 32.0508H90.6145C90.9256 32.0508 91.2239 31.927 91.4439 31.7067C91.6638 31.4864 91.7874 31.1876 91.7874 30.876C91.7874 30.5644 91.6638 30.2656 91.4439 30.0453C91.2239 29.8249 90.9256 29.7012 90.6145 29.7012Z" fill="#E4E4E4"/>
<path id="Vector_45" d="M63.8041 51.2368H50.146C49.4613 51.2377 48.8049 51.5105 48.3208 51.9954C47.8366 52.4804 47.5643 53.1379 47.5635 53.8237V65.6731C47.5643 66.3589 47.8366 67.0164 48.3208 67.5013C48.8049 67.9863 49.4613 68.2591 50.146 68.2599H63.8041C64.4888 68.2591 65.1452 67.9863 65.6293 67.5013C66.1134 67.0164 66.3858 66.3589 66.3866 65.6731V53.8237C66.3858 53.1378 66.1134 52.4804 65.6293 51.9954C65.1452 51.5105 64.4888 51.2377 63.8041 51.2368Z" fill="#046AD0"/>
<path id="Vector_46" d="M120.137 55.8193H72.5332C72.2222 55.8193 71.9238 55.9431 71.7039 56.1634C71.4839 56.3838 71.3604 56.6826 71.3604 56.9942C71.3604 57.3057 71.4839 57.6046 71.7039 57.8249C71.9238 58.0452 72.2222 58.169 72.5332 58.169H120.137C120.448 58.169 120.747 58.0452 120.967 57.8249C121.187 57.6046 121.31 57.3057 121.31 56.9942C121.31 56.6826 121.187 56.3838 120.967 56.1634C120.747 55.9431 120.448 55.8193 120.137 55.8193Z" fill="#E4E4E4"/>
<path id="Vector_47" d="M90.6145 61.3247H72.5332C72.2222 61.3247 71.9238 61.4485 71.7039 61.6688C71.4839 61.8891 71.3604 62.1879 71.3604 62.4995C71.3604 62.8111 71.4839 63.1099 71.7039 63.3303C71.9238 63.5506 72.2222 63.6744 72.5332 63.6744H90.6145C90.9256 63.6744 91.2239 63.5506 91.4439 63.3303C91.6638 63.1099 91.7874 62.8111 91.7874 62.4995C91.7874 62.1879 91.6638 61.8891 91.4439 61.6688C91.2239 61.4485 90.9256 61.3247 90.6145 61.3247Z" fill="#E4E4E4"/>
<path id="Vector_48" d="M63.8041 82.8608H50.146C49.4613 82.8617 48.8049 83.1345 48.3208 83.6194C47.8366 84.1044 47.5643 84.7619 47.5635 85.4477V97.2971C47.5643 97.9829 47.8366 98.6404 48.3208 99.1253C48.8049 99.6103 49.4613 99.8831 50.146 99.8839H63.8041C64.4888 99.8831 65.1452 99.6103 65.6293 99.1253C66.1134 98.6404 66.3858 97.9829 66.3866 97.2971V85.4477C66.3858 84.7619 66.1134 84.1044 65.6293 83.6194C65.1452 83.1345 64.4888 82.8617 63.8041 82.8608Z" fill="#046AD0"/>
<path id="Vector_49" d="M120.137 87.4429H72.5332C72.2222 87.4429 71.9238 87.5666 71.7039 87.787C71.4839 88.0073 71.3604 88.3061 71.3604 88.6177C71.3604 88.9293 71.4839 89.2281 71.7039 89.4484C71.9238 89.6688 72.2222 89.7925 72.5332 89.7925H120.137C120.448 89.7925 120.747 89.6688 120.967 89.4484C121.187 89.2281 121.31 88.9293 121.31 88.6177C121.31 88.3061 121.187 88.0073 120.967 87.787C120.747 87.5666 120.448 87.4429 120.137 87.4429Z" fill="#E4E4E4"/>
<path id="Vector_50" d="M90.6145 92.9487H72.5332C72.2222 92.9487 71.9238 93.0725 71.7039 93.2928C71.4839 93.5131 71.3604 93.812 71.3604 94.1236C71.3604 94.4351 71.4839 94.734 71.7039 94.9543C71.9238 95.1746 72.2222 95.2984 72.5332 95.2984H90.6145C90.9256 95.2984 91.2239 95.1746 91.4439 94.9543C91.6638 94.734 91.7874 94.4351 91.7874 94.1236C91.7874 93.812 91.6638 93.5131 91.4439 93.2928C91.2239 93.0725 90.9256 92.9487 90.6145 92.9487Z" fill="#E4E4E4"/>
<path id="Vector_51" d="M163.626 137.684H85.4379C85.0774 137.684 84.7842 132.134 84.7842 125.312V52.5344C84.7842 45.7119 85.0774 40.1621 85.4379 40.1621H163.626C163.986 40.1621 164.279 45.7119 164.279 52.5344V125.312C164.279 132.134 163.986 137.684 163.626 137.684Z" fill="#323232"/>
<path id="Vector_52" d="M163.626 138H85.4382C85.1074 138 84.8684 138 84.6609 134.073C84.537 131.728 84.4688 128.616 84.4688 125.311V52.5343C84.4688 49.2294 84.537 46.1178 84.6609 43.773C84.8684 39.8457 85.1074 39.8457 85.4382 39.8457H163.626C163.957 39.8457 164.196 39.8457 164.403 43.773C164.527 46.1178 164.595 49.2294 164.595 52.5343V125.311C164.595 128.616 164.527 131.728 164.403 134.073C164.196 138 163.957 138 163.626 138ZM85.6129 137.368H163.451C163.678 136.548 163.964 132.183 163.964 125.311V52.5343C163.964 45.6626 163.678 41.2975 163.451 40.4782H85.6129C85.3863 41.2975 85.1002 45.6626 85.1002 52.5343V125.311C85.1002 132.183 85.3863 136.548 85.6129 137.368Z" fill="#E4E4E4"/>
<path id="Vector_53" d="M163.626 45.3232H85.4379C85.2646 45.3231 85.0984 45.254 84.9759 45.1313C84.8533 45.0085 84.7844 44.8421 84.7842 44.6685V40.8169C84.7844 40.6433 84.8533 40.4769 84.9759 40.3541C85.0984 40.2313 85.2646 40.1623 85.4379 40.1621H163.626C163.799 40.1623 163.965 40.2313 164.088 40.3541C164.21 40.4769 164.279 40.6433 164.279 40.8169V44.6685C164.279 44.8421 164.21 45.0085 164.088 45.1313C163.965 45.254 163.799 45.3231 163.626 45.3232Z" fill="#CACACA"/>
<path id="Ellipse 90_3" d="M88.5785 43.4842C89.0911 43.4842 89.5066 43.068 89.5066 42.5546C89.5066 42.0412 89.0911 41.625 88.5785 41.625C88.0659 41.625 87.6504 42.0412 87.6504 42.5546C87.6504 43.068 88.0659 43.4842 88.5785 43.4842Z" fill="#323232"/>
<path id="Ellipse 91_3" d="M92.1009 43.4842C92.6135 43.4842 93.029 43.068 93.029 42.5546C93.029 42.0412 92.6135 41.625 92.1009 41.625C91.5884 41.625 91.1729 42.0412 91.1729 42.5546C91.1729 43.068 91.5884 43.4842 92.1009 43.4842Z" fill="#323232"/>
<path id="Ellipse 92_3" d="M95.6234 43.4842C96.136 43.4842 96.5515 43.068 96.5515 42.5546C96.5515 42.0412 96.136 41.625 95.6234 41.625C95.1108 41.625 94.6953 42.0412 94.6953 42.5546C94.6953 43.068 95.1108 43.4842 95.6234 43.4842Z" fill="#323232"/>
<path id="Vector_54" d="M160.174 41.9149H156.118C156.038 41.9149 155.962 41.8832 155.905 41.8268C155.849 41.7703 155.817 41.6938 155.817 41.614C155.817 41.5341 155.849 41.4576 155.905 41.4011C155.962 41.3447 156.038 41.313 156.118 41.313H160.174C160.254 41.3132 160.33 41.3451 160.386 41.4015C160.442 41.4579 160.474 41.5343 160.474 41.614C160.474 41.6936 160.442 41.77 160.386 41.8265C160.33 41.8829 160.254 41.9147 160.174 41.9149Z" fill="#323232"/>
<path id="Vector_55" d="M160.174 43.0434H156.118C156.038 43.0434 155.962 43.0117 155.905 42.9552C155.849 42.8988 155.817 42.8222 155.817 42.7424C155.817 42.6626 155.849 42.586 155.905 42.5296C155.962 42.4731 156.038 42.4414 156.118 42.4414H160.174C160.254 42.4414 160.331 42.4731 160.387 42.5296C160.443 42.586 160.475 42.6626 160.475 42.7424C160.475 42.8222 160.443 42.8988 160.387 42.9552C160.331 43.0117 160.254 43.0434 160.174 43.0434Z" fill="#323232"/>
<path id="Vector_56" d="M160.174 44.1723H156.118C156.038 44.1723 155.962 44.1406 155.905 44.0841C155.849 44.0277 155.817 43.9511 155.817 43.8713C155.817 43.7915 155.849 43.7149 155.905 43.6585C155.962 43.602 156.038 43.5703 156.118 43.5703H160.174C160.254 43.5706 160.33 43.6024 160.386 43.6588C160.442 43.7152 160.474 43.7916 160.474 43.8713C160.474 43.9509 160.442 44.0274 160.386 44.0838C160.33 44.1402 160.254 44.172 160.174 44.1723Z" fill="#323232"/>
<path id="Vector_57" d="M109.464 69.2299H99.4898C98.9897 69.2293 98.5102 69.0301 98.1566 68.6759C97.803 68.3217 97.6041 67.8414 97.6035 67.3405V58.6872C97.6041 58.1863 97.803 57.7061 98.1566 57.3519C98.5102 56.9977 98.9897 56.7984 99.4898 56.7979H109.464C109.964 56.7984 110.444 56.9977 110.798 57.3519C111.151 57.7061 111.35 58.1863 111.351 58.6872V67.3405C111.35 67.8414 111.151 68.3217 110.798 68.6759C110.444 69.0301 109.964 69.2293 109.464 69.2299Z" fill="#046AD0"/>
<path id="Vector_58" d="M150.604 61.8611H115.84C115.613 61.8611 115.395 61.7707 115.234 61.6098C115.074 61.449 114.983 61.2308 114.983 61.0033C114.983 60.7758 115.074 60.5576 115.234 60.3967C115.395 60.2359 115.613 60.1455 115.84 60.1455H150.604C150.831 60.1455 151.049 60.2359 151.209 60.3967C151.37 60.5576 151.46 60.7758 151.46 61.0033C151.46 61.2308 151.37 61.449 151.209 61.6098C151.049 61.7707 150.831 61.8611 150.604 61.8611Z" fill="#E4E4E4"/>
<path id="Vector_59" d="M129.044 65.8821H115.84C115.613 65.8821 115.395 65.7917 115.234 65.6308C115.074 65.47 114.983 65.2518 114.983 65.0243C114.983 64.7968 115.074 64.5786 115.234 64.4177C115.395 64.2569 115.613 64.1665 115.84 64.1665H129.044C129.156 64.1663 129.268 64.1883 129.372 64.2313C129.476 64.2743 129.571 64.3375 129.65 64.4172C129.73 64.4968 129.793 64.5915 129.836 64.6957C129.88 64.7998 129.902 64.9115 129.902 65.0243C129.902 65.1371 129.88 65.2488 129.836 65.3529C129.793 65.4571 129.73 65.5517 129.65 65.6314C129.571 65.7111 129.476 65.7742 129.372 65.8173C129.268 65.8603 129.156 65.8823 129.044 65.8821Z" fill="#E4E4E4"/>
<path id="Vector_60" d="M109.464 94.8451H99.4898C98.9897 94.8446 98.5102 94.6453 98.1566 94.2911C97.803 93.9369 97.6041 93.4567 97.6035 92.9558V84.3025C97.6041 83.8015 97.803 83.3213 98.1566 82.9671C98.5102 82.6129 98.9897 82.4137 99.4898 82.4131H109.464C109.964 82.4137 110.444 82.6129 110.798 82.9671C111.151 83.3213 111.35 83.8015 111.351 84.3025V92.9558C111.35 93.4567 111.151 93.9369 110.798 94.2911C110.444 94.6453 109.964 94.8446 109.464 94.8451Z" fill="#046AD0"/>
<path id="Vector_61" d="M150.604 87.4763H115.84C115.613 87.4763 115.395 87.3859 115.234 87.2251C115.074 87.0642 114.983 86.846 114.983 86.6185C114.983 86.391 115.074 86.1728 115.234 86.012C115.395 85.8511 115.613 85.7607 115.84 85.7607H150.604C150.831 85.7607 151.049 85.8511 151.209 86.012C151.37 86.1728 151.46 86.391 151.46 86.6185C151.46 86.846 151.37 87.0642 151.209 87.2251C151.049 87.3859 150.831 87.4763 150.604 87.4763Z" fill="#E4E4E4"/>
<path id="Vector_62" d="M129.044 91.4973H115.84C115.613 91.4973 115.395 91.4069 115.234 91.2461C115.074 91.0852 114.983 90.867 114.983 90.6395C114.983 90.412 115.074 90.1938 115.234 90.033C115.395 89.8721 115.613 89.7817 115.84 89.7817H129.044C129.156 89.7815 129.268 89.8035 129.372 89.8466C129.476 89.8896 129.571 89.9527 129.65 90.0324C129.73 90.1121 129.793 90.2067 129.836 90.3109C129.88 90.4151 129.902 90.5267 129.902 90.6395C129.902 90.7523 129.88 90.864 129.836 90.9682C129.793 91.0723 129.73 91.167 129.65 91.2466C129.571 91.3263 129.476 91.3895 129.372 91.4325C129.268 91.4755 129.156 91.4975 129.044 91.4973Z" fill="#E4E4E4"/>
<path id="Vector_63" d="M109.464 120.46H99.4898C98.9897 120.46 98.5102 120.261 98.1566 119.906C97.803 119.552 97.6041 119.072 97.6035 118.571V109.918C97.6041 109.417 97.803 108.937 98.1566 108.582C98.5102 108.228 98.9897 108.029 99.4898 108.028H109.464C109.964 108.029 110.444 108.228 110.798 108.582C111.151 108.937 111.35 109.417 111.351 109.918V118.571C111.35 119.072 111.151 119.552 110.798 119.906C110.444 120.261 109.964 120.46 109.464 120.46Z" fill="#046AD0"/>
<path id="Vector_64" d="M150.604 113.092H115.84C115.613 113.092 115.395 113.001 115.234 112.84C115.074 112.679 114.983 112.461 114.983 112.234C114.983 112.006 115.074 111.788 115.234 111.627C115.395 111.466 115.613 111.376 115.84 111.376H150.604C150.831 111.376 151.049 111.466 151.209 111.627C151.37 111.788 151.46 112.006 151.46 112.234C151.46 112.461 151.37 112.679 151.209 112.84C151.049 113.001 150.831 113.092 150.604 113.092Z" fill="#E4E4E4"/>
<path id="Vector_65" d="M129.044 117.113H115.84C115.613 117.113 115.395 117.022 115.234 116.861C115.074 116.7 114.983 116.482 114.983 116.255C114.983 116.027 115.074 115.809 115.234 115.648C115.395 115.487 115.613 115.397 115.84 115.397H129.044C129.156 115.397 129.268 115.419 129.372 115.462C129.476 115.505 129.571 115.568 129.65 115.648C129.73 115.727 129.793 115.822 129.836 115.926C129.88 116.03 129.902 116.142 129.902 116.255C129.902 116.368 129.88 116.479 129.836 116.583C129.793 116.688 129.73 116.782 129.65 116.862C129.571 116.942 129.476 117.005 129.372 117.048C129.268 117.091 129.156 117.113 129.044 117.113Z" fill="#E4E4E4"/>
</g>
<defs>
<clipPath id="clip0_881_6460">
<rect width="231" height="138" fill="white"/>
</clipPath>
</defs>
</svg>
