<svg width="27" height="27" viewBox="0 0 27 27" fill="none" xmlns="http://www.w3.org/2000/svg">
<path d="M22.5 24.75H4.5V22.5C4.5 21.0082 5.09263 19.5774 6.14752 18.5225C7.20242 17.4676 8.63316 16.875 10.125 16.875H16.875C18.3668 16.875 19.7976 17.4676 20.8525 18.5225C21.9074 19.5774 22.5 21.0082 22.5 22.5V24.75ZM13.5 14.625C12.6136 14.625 11.7358 14.4504 10.9169 14.1112C10.0979 13.772 9.35382 13.2748 8.72703 12.648C8.10023 12.0212 7.60303 11.2771 7.26381 10.4581C6.92459 9.63917 6.75 8.76142 6.75 7.875C6.75 6.98858 6.92459 6.11083 7.26381 5.29189C7.60303 4.47294 8.10023 3.72882 8.72703 3.10203C9.35382 2.47523 10.0979 1.97803 10.9169 1.63881C11.7358 1.29959 12.6136 1.125 13.5 1.125C15.2902 1.125 17.0071 1.83616 18.273 3.10203C19.5388 4.3679 20.25 6.08479 20.25 7.875C20.25 9.66521 19.5388 11.3821 18.273 12.648C17.0071 13.9138 15.2902 14.625 13.5 14.625Z" fill="#E6E6E6"/>
</svg>
