<svg width="267" height="299" viewBox="0 0 267 299" fill="none" xmlns="http://www.w3.org/2000/svg">
<g clip-path="url(#clip0_3353_931)">
<path d="M149.207 71.0536H147.562V26.048C147.562 19.1397 144.816 12.5142 139.927 7.6293C135.038 2.74435 128.408 8.71699e-06 121.494 0H26.0685C22.6452 -8.63228e-06 19.2553 0.673734 16.0926 1.98276C12.9298 3.29179 10.056 5.21046 7.63532 7.62923C5.21463 10.048 3.29444 12.9195 1.98437 16.0798C0.674296 19.2401 7.55925e-06 22.6273 0 26.0479V272.952C-3.23967e-06 276.373 0.674267 279.76 1.98433 282.92C3.29439 286.08 5.21459 288.952 7.63527 291.371C10.056 293.79 12.9297 295.708 16.0925 297.017C19.2553 298.326 22.6451 299 26.0685 299H121.494C128.408 299 135.038 296.256 139.927 291.371C144.816 286.486 147.562 279.86 147.562 272.952V103.089H149.207V71.0536Z" fill="#E6E6E6"/>
<path d="M122.546 6.7768H110.09C110.663 8.18008 110.881 9.70259 110.726 11.2102C110.572 12.7178 110.048 14.1643 109.202 15.4221C108.356 16.68 107.214 17.7106 105.875 18.4233C104.537 19.136 103.043 19.5088 101.526 19.5089H46.8585C45.3417 19.5088 43.8483 19.136 42.5098 18.4233C41.1712 17.7106 40.0286 16.68 39.1826 15.4221C38.3366 14.1642 37.8131 12.7178 37.6584 11.2102C37.5036 9.70256 37.7223 8.18005 38.2951 6.77676H26.661C21.4979 6.77676 16.5462 8.8262 12.8953 12.4742C9.24442 16.1222 7.19337 21.07 7.19336 26.2291V272.771C7.19336 277.93 9.2444 282.878 12.8953 286.526C16.5462 290.174 21.4978 292.223 26.661 292.223H122.546C125.102 292.223 127.634 291.72 129.996 290.743C132.358 289.765 134.504 288.332 136.312 286.526C138.119 284.72 139.553 282.575 140.532 280.215C141.51 277.855 142.014 275.325 142.014 272.771V26.2291C142.014 23.6746 141.51 21.1451 140.532 18.785C139.553 16.425 138.119 14.2806 136.312 12.4742C134.504 10.6679 132.358 9.23507 129.996 8.25751C127.634 7.27994 125.102 6.77679 122.546 6.7768Z" fill="white"/>
<path d="M134.101 200.415H19.1319C18.5675 200.415 18.0264 200.19 17.6272 199.791C17.2281 199.393 17.0036 198.852 17.0029 198.288V169.792C17.0036 169.228 17.2281 168.687 17.6272 168.288C18.0264 167.889 18.5675 167.665 19.1319 167.664H134.101C134.665 167.665 135.206 167.889 135.606 168.288C136.005 168.687 136.229 169.228 136.23 169.792V198.288C136.229 198.852 136.005 199.393 135.605 199.792C135.206 200.19 134.665 200.415 134.101 200.415ZM19.1319 168.515C18.7932 168.516 18.4685 168.65 18.229 168.889C17.9895 169.129 17.8548 169.453 17.8545 169.792V198.288C17.8548 198.627 17.9895 198.951 18.229 199.191C18.4685 199.43 18.7932 199.564 19.1319 199.565H134.101C134.44 199.564 134.764 199.43 135.004 199.191C135.243 198.951 135.378 198.627 135.378 198.288V169.792C135.378 169.453 135.243 169.129 135.004 168.889C134.764 168.65 134.44 168.516 134.101 168.515H19.1319Z" fill="#E6E6E6"/>
<path d="M34.0357 192.975C38.9742 192.975 42.9777 188.974 42.9777 184.04C42.9777 179.105 38.9742 175.105 34.0357 175.105C29.0972 175.105 25.0938 179.105 25.0938 184.04C25.0938 188.974 29.0972 192.975 34.0357 192.975Z" fill="#E6E6E6"/>
<path d="M54.6874 178.083C54.2964 178.09 53.9237 178.249 53.6495 178.528C53.3753 178.807 53.2217 179.182 53.2217 179.572C53.2217 179.963 53.3753 180.338 53.6495 180.617C53.9237 180.895 54.2964 181.055 54.6874 181.061H124.946C125.341 181.069 125.723 180.919 126.008 180.646C126.293 180.372 126.457 179.996 126.465 179.601C126.473 179.206 126.323 178.824 126.049 178.54C125.775 178.255 125.399 178.091 125.004 178.083L124.995 178.083C124.979 178.083 124.962 178.083 124.946 178.083H54.6874Z" fill="#E6E6E6"/>
<path d="M54.6874 187.018C54.2964 187.025 53.9237 187.184 53.6495 187.463C53.3753 187.742 53.2217 188.117 53.2217 188.507C53.2217 188.898 53.3753 189.273 53.6495 189.552C53.9237 189.83 54.2964 189.99 54.6874 189.996H124.946C125.341 190.002 125.721 189.851 126.005 189.576C126.288 189.302 126.451 188.926 126.457 188.532C126.463 188.137 126.313 187.757 126.039 187.473C125.765 187.189 125.39 187.026 124.995 187.018C124.979 187.018 124.962 187.018 124.946 187.018H54.6874Z" fill="#E6E6E6"/>
<path d="M134.101 248.069H19.1319C18.5675 248.068 18.0264 247.844 17.6272 247.445C17.2281 247.046 17.0036 246.505 17.0029 245.941V217.445C17.0036 216.881 17.2281 216.34 17.6272 215.941C18.0264 215.543 18.5675 215.318 19.1319 215.318H134.101C134.665 215.318 135.206 215.543 135.606 215.941C136.005 216.34 136.229 216.881 136.23 217.445V245.942C136.229 246.506 136.005 247.046 135.605 247.445C135.206 247.844 134.665 248.068 134.101 248.069ZM19.1319 216.168C18.7932 216.169 18.4685 216.303 18.229 216.543C17.9895 216.782 17.8548 217.107 17.8545 217.445V245.942C17.8548 246.28 17.9895 246.605 18.229 246.844C18.4685 247.083 18.7932 247.218 19.1319 247.218H134.101C134.44 247.218 134.764 247.083 135.004 246.844C135.243 246.605 135.378 246.28 135.378 245.942V217.445C135.378 217.107 135.243 216.782 135.004 216.543C134.764 216.303 134.44 216.169 134.101 216.168H19.1319Z" fill="#E6E6E6"/>
<path d="M34.0357 240.628C38.9742 240.628 42.9777 236.628 42.9777 231.693C42.9777 226.758 38.9742 222.758 34.0357 222.758C29.0972 222.758 25.0938 226.758 25.0938 231.693C25.0938 236.628 29.0972 240.628 34.0357 240.628Z" fill="#E6E6E6"/>
<path d="M54.6874 225.737C54.2964 225.743 53.9237 225.903 53.6495 226.181C53.3753 226.46 53.2217 226.835 53.2217 227.226C53.2217 227.616 53.3753 227.991 53.6495 228.27C53.9237 228.549 54.2964 228.708 54.6874 228.715H124.946C125.341 228.72 125.721 228.569 126.005 228.295C126.288 228.02 126.451 227.644 126.457 227.25C126.463 226.856 126.313 226.475 126.039 226.191C125.765 225.908 125.39 225.744 124.995 225.737C124.979 225.736 124.962 225.736 124.946 225.737H54.6874Z" fill="#E6E6E6"/>
<path d="M54.6874 234.672C54.2964 234.678 53.9237 234.838 53.6495 235.116C53.3753 235.395 53.2217 235.77 53.2217 236.161C53.2217 236.551 53.3753 236.926 53.6495 237.205C53.9237 237.483 54.2964 237.643 54.6874 237.65H124.946C125.341 237.655 125.721 237.504 126.005 237.229C126.288 236.955 126.451 236.579 126.457 236.185C126.463 235.791 126.313 235.41 126.039 235.126C125.765 234.843 125.39 234.679 124.995 234.672C124.979 234.671 124.962 234.671 124.946 234.672H54.6874Z" fill="#E6E6E6"/>
<path d="M74.197 141.281C63.4729 141.286 53.1864 137.033 45.6002 129.459C38.014 121.885 33.7496 111.61 33.7451 100.895V100.861C33.7451 100.776 33.7451 100.687 33.75 100.603C33.8734 78.467 52.0188 60.4406 74.197 60.4406C84.9254 60.4394 95.215 64.6968 102.802 72.2761C110.389 79.8555 114.652 90.136 114.653 100.856C114.655 111.576 110.394 121.858 102.809 129.439C95.2233 137.02 84.9347 141.279 74.2062 141.281H74.197V141.281ZM74.197 61.2906C63.7421 61.314 53.7187 65.4588 46.3048 72.8245C38.8909 80.1903 34.6854 90.1818 34.602 100.628C34.5975 100.719 34.5975 100.792 34.5975 100.86C34.5965 108.687 36.9183 116.338 41.2694 122.847C45.6205 129.355 51.8053 134.428 59.0419 137.425C66.2784 140.421 74.2416 141.205 81.9245 139.679C89.6073 138.153 96.6648 134.385 102.204 128.851C107.744 123.318 111.517 116.267 113.046 108.59C114.575 100.914 113.792 92.9566 110.795 85.725C107.798 78.4934 102.723 72.3121 96.2103 67.9628C89.6978 63.6135 82.0408 61.2916 74.2076 61.2906H74.197Z" fill="#E6E6E6"/>
<path d="M129.563 190.154C138.646 190.154 146.009 182.796 146.009 173.72C146.009 164.644 138.646 157.287 129.563 157.287C120.48 157.287 113.116 164.644 113.116 173.72C113.116 182.796 120.48 190.154 129.563 190.154Z" fill="white"/>
<path d="M123.851 181.114C123.823 181.114 123.794 181.113 123.766 181.113H114.926C113.805 181.095 112.735 180.637 111.948 179.839C111.161 179.04 110.719 177.964 110.719 176.843C110.718 175.722 111.159 174.646 111.945 173.847C112.732 173.047 113.801 172.589 114.923 172.57H123.77C123.814 172.57 123.861 172.57 123.908 172.57C125.036 172.586 126.112 173.047 126.902 173.852C127.692 174.658 128.131 175.742 128.124 176.87C128.116 177.998 127.663 179.077 126.862 179.872C126.062 180.667 124.979 181.113 123.851 181.114Z" fill="#1165BA"/>
<path d="M267 298H133.77V298.921H267V298Z" fill="#3F3D56"/>
<path d="M141.979 220.099C141.874 219.937 141.787 219.763 141.72 219.582L139.597 213.902C139.35 213.238 139.376 212.504 139.67 211.86C139.964 211.216 140.502 210.714 141.165 210.466L188.549 192.787C189.213 192.54 189.948 192.566 190.592 192.86C191.237 193.154 191.739 193.691 191.987 194.354L194.11 200.035C194.233 200.363 194.29 200.713 194.277 201.063C194.265 201.414 194.183 201.758 194.038 202.077C193.892 202.396 193.685 202.684 193.428 202.923C193.171 203.162 192.87 203.348 192.541 203.471L145.158 221.15C144.588 221.362 143.962 221.374 143.384 221.183C142.806 220.992 142.31 220.61 141.979 220.099Z" fill="#1165BA"/>
<path d="M188.398 191.319L169.129 198.996C168.522 199.179 168.009 199.588 167.695 200.138C167.382 200.689 167.293 201.339 167.447 201.954L169.683 210.9C169.771 211.253 169.937 211.583 170.168 211.865C170.399 212.146 170.689 212.374 171.019 212.53C171.348 212.686 171.708 212.767 172.072 212.768C172.437 212.768 172.797 212.688 173.127 212.533L192.448 203.446C193.06 203.216 193.557 202.754 193.828 202.16C194.1 201.565 194.125 200.888 193.897 200.275L191.575 192.767C191.345 192.154 190.882 191.658 190.286 191.386C189.691 191.115 189.011 191.09 188.398 191.319Z" fill="#2F2E41"/>
<path d="M223.66 247.054C223.055 247.123 222.444 246.984 221.929 246.66C221.414 246.336 221.025 245.846 220.826 245.271L204.333 197.495C204.218 197.163 204.17 196.812 204.191 196.462C204.213 196.112 204.303 195.77 204.456 195.454C204.61 195.139 204.824 194.857 205.087 194.625C205.35 194.392 205.656 194.214 205.988 194.099L211.724 192.122C212.395 191.891 213.129 191.936 213.766 192.246C214.403 192.556 214.891 193.106 215.122 193.775L231.616 241.552C231.846 242.222 231.801 242.955 231.491 243.592C231.181 244.228 230.63 244.716 229.961 244.947L224.224 246.924C224.041 246.988 223.852 247.031 223.66 247.054Z" fill="#1165BA"/>
<path d="M216.352 192.958L222.682 212.697C222.927 213.281 222.938 213.937 222.712 214.529C222.486 215.121 222.041 215.603 221.469 215.876L213.139 219.843C212.809 220 212.45 220.082 212.085 220.083C211.721 220.084 211.36 220.005 211.03 219.85C210.7 219.696 210.408 219.47 210.176 219.189C209.944 218.909 209.777 218.58 209.687 218.227L204.411 197.55C204.199 196.932 204.24 196.256 204.526 195.668C204.812 195.081 205.32 194.631 205.937 194.416L213.212 191.43C213.832 191.217 214.51 191.259 215.098 191.545C215.687 191.832 216.138 192.34 216.352 192.958Z" fill="#2F2E41"/>
<path d="M197.185 298.271H191.117C190.408 298.27 189.729 297.988 189.228 297.488C188.727 296.987 188.445 296.308 188.444 295.6V245.061C188.445 244.353 188.727 243.674 189.228 243.174C189.729 242.673 190.408 242.391 191.117 242.391H197.185C197.894 242.391 198.573 242.673 199.074 243.174C199.575 243.674 199.857 244.353 199.858 245.061V295.6C199.857 296.308 199.575 296.987 199.074 297.488C198.573 297.988 197.894 298.27 197.185 298.271Z" fill="#2F2E41"/>
<path d="M209.188 298.271H203.12C202.411 298.27 201.732 297.988 201.231 297.488C200.73 296.987 200.448 296.308 200.447 295.6V245.061C200.448 244.353 200.73 243.674 201.231 243.174C201.732 242.673 202.411 242.391 203.12 242.391H209.188C209.897 242.391 210.576 242.673 211.077 243.174C211.578 243.674 211.86 244.353 211.861 245.061V295.6C211.86 296.308 211.578 296.987 211.077 297.488C210.576 297.988 209.897 298.27 209.188 298.271Z" fill="#2F2E41"/>
<path d="M214.189 251.003H186.615C185.852 251.002 185.121 250.699 184.581 250.159C184.042 249.62 183.738 248.889 183.737 248.127V203.368C183.737 198.952 185.493 194.716 188.618 191.594C191.744 188.471 195.982 186.716 200.402 186.716C204.822 186.716 209.061 188.471 212.186 191.594C215.311 194.716 217.067 198.952 217.067 203.368V248.127C217.066 248.889 216.763 249.62 216.223 250.159C215.684 250.699 214.952 251.002 214.189 251.003Z" fill="#CCCCCC"/>
<path d="M218.34 261.951H204.36V183.007L204.62 183.077C208.557 184.157 212.031 186.498 214.509 189.74C216.987 192.982 218.333 196.946 218.34 201.026V261.951Z" fill="#2F2E41"/>
<path d="M195.309 261.951H181.329V201.026C181.336 196.946 182.682 192.982 185.16 189.74C187.638 186.498 191.112 184.157 195.049 183.077L195.309 183.007V261.951Z" fill="#2F2E41"/>
<path d="M200.194 177.458C212.347 177.458 222.199 167.614 222.199 155.47C222.199 143.327 212.347 133.482 200.194 133.482C188.04 133.482 178.188 143.327 178.188 155.47C178.188 167.614 188.04 177.458 200.194 177.458Z" fill="#1165BA"/>
<path d="M225.073 150.408C225.073 150.408 226.306 116.308 210.271 127.401C210.271 127.401 201.02 96.3826 178.406 142.807L171.827 149.381C171.827 149.381 201.431 145.272 228.979 158.008L225.073 150.408Z" fill="#2F2E41"/>
<path d="M200.53 166.359C199.17 166.322 197.479 166.275 196.175 165.323C195.787 165.028 195.469 164.652 195.241 164.221C195.014 163.79 194.884 163.315 194.86 162.828C194.836 162.483 194.893 162.136 195.026 161.816C195.158 161.496 195.363 161.21 195.625 160.982C196.305 160.408 197.299 160.273 198.37 160.587L197.261 152.483L198.075 152.372L199.38 161.899L198.7 161.587C197.911 161.226 196.828 161.042 196.155 161.61C195.99 161.758 195.862 161.943 195.779 162.149C195.697 162.356 195.664 162.578 195.681 162.799C195.701 163.162 195.799 163.515 195.968 163.836C196.137 164.157 196.373 164.438 196.661 164.66C197.675 165.4 199.023 165.495 200.553 165.538L200.53 166.359Z" fill="#2F2E41"/>
<path d="M193.232 153.182H188.803V154.004H193.232V153.182Z" fill="#2F2E41"/>
<path d="M207.211 153.182H202.782V154.004H207.211V153.182Z" fill="#2F2E41"/>
<path d="M151.131 222.196C150.538 222.471 149.859 222.499 149.245 222.274C148.63 222.049 148.131 221.59 147.855 220.997L133.665 190.437C133.39 189.844 133.362 189.166 133.587 188.552C133.812 187.938 134.272 187.439 134.865 187.164C135.459 186.889 136.137 186.86 136.752 187.085C137.366 187.31 137.866 187.769 138.141 188.362L152.331 218.922C152.606 219.515 152.635 220.193 152.41 220.807C152.185 221.421 151.725 221.92 151.131 222.196Z" fill="#3F3D56"/>
<path d="M136.553 189.313C136.116 189.313 135.698 189.139 135.39 188.831C135.081 188.523 134.908 188.105 134.908 187.669V166.736H114.35C113.914 166.736 113.495 166.563 113.187 166.255C112.878 165.946 112.705 165.528 112.705 165.093C112.705 164.657 112.878 164.239 113.187 163.93C113.495 163.622 113.914 163.449 114.35 163.449H136.553C136.989 163.449 137.407 163.622 137.715 163.93C138.024 164.239 138.197 164.657 138.197 165.093V187.669C138.197 188.105 138.024 188.523 137.715 188.831C137.407 189.139 136.989 189.313 136.553 189.313Z" fill="#1165BA"/>
<path d="M136.942 191.636C133.401 193.277 129.453 193.833 125.596 193.232C121.739 192.631 118.148 190.901 115.275 188.26C112.402 185.62 110.377 182.187 109.457 178.397C108.537 174.607 108.762 170.629 110.104 166.966C111.446 163.304 113.845 160.121 116.997 157.821C120.149 155.521 123.913 154.206 127.813 154.044C131.713 153.881 135.574 154.878 138.907 156.908C142.24 158.937 144.896 161.909 146.539 165.447C148.736 170.193 148.959 175.615 147.16 180.524C145.361 185.434 141.686 189.43 136.942 191.636ZM122.407 160.33C119.751 161.561 117.52 163.552 115.997 166.05C114.473 168.548 113.725 171.441 113.847 174.364C113.969 177.286 114.956 180.107 116.682 182.469C118.409 184.832 120.798 186.63 123.547 187.635C126.296 188.641 129.282 188.81 132.127 188.12C134.972 187.43 137.548 185.913 139.53 183.76C141.512 181.607 142.81 178.915 143.261 176.025C143.712 173.135 143.295 170.176 142.063 167.522C140.408 163.967 137.408 161.213 133.723 159.865C130.038 158.517 125.968 158.684 122.407 160.33Z" fill="#3F3D56"/>
</g>
<defs>
<clipPath id="clip0_3353_931">
<rect width="267" height="299" fill="white"/>
</clipPath>
</defs>
</svg>
