<svg width="465" height="316" viewBox="0 0 465 316" fill="none" xmlns="http://www.w3.org/2000/svg">
<path d="M395.158 302.183L389.867 300.941L393.067 276.521L400.877 278.354L395.158 302.183Z" fill="#FFB6B6"/>
<path d="M374.266 308.481C374.035 309.37 374.479 310.255 375.257 310.457L385.697 313.17C385.697 313.17 387.796 309.302 392.446 308.611L391.202 314.6L396.587 316L398.4 306.321C398.4 306.321 401.159 301.607 398.841 298.229C396.523 294.851 398.853 295.843 398.853 295.843L399.202 289.651L390.815 288.495L388.361 297.719L382.034 305.863L375.499 307.223C374.917 307.344 374.433 307.838 374.266 308.481Z" fill="#2F2E41"/>
<path d="M445.889 296.421L441.062 298.924L427.628 278.292L434.75 274.599L445.889 296.421Z" fill="#FFB6B6"/>
<path d="M434.112 314.811C434.514 315.637 435.426 316.02 436.148 315.667L445.84 310.929C445.84 310.929 444.922 306.624 448.004 303.071L450.951 308.43L455.95 305.985L451.039 297.454C451.039 297.454 450.072 292.077 446.117 291.02C442.162 289.964 444.576 289.2 444.576 289.2L440.818 284.271L433.697 288.854L437.825 297.458L438.311 307.764L434.231 313.053C433.868 313.524 433.821 314.215 434.112 314.811Z" fill="#2F2E41"/>
<path d="M162.84 205.724H303.107C304.873 205.724 306.304 204.291 306.304 202.523V3.8C306.304 2.03193 304.873 0.598633 303.107 0.598633H162.84C161.074 0.598633 159.642 2.03193 159.642 3.8V202.523C159.642 204.291 161.074 205.724 162.84 205.724Z" fill="white"/>
<path d="M306.903 206.323H159.044V0H306.903V206.323ZM160.241 205.126H305.706V1.19763H160.241V205.126Z" fill="#E6E6E6"/>
<path d="M273.674 33.0518C274.243 33.0518 274.705 33.5137 274.705 34.0835V36.147C274.705 36.7169 274.243 37.1788 273.674 37.1788H192.273C191.704 37.1788 191.243 36.7168 191.243 36.147V34.0835C191.243 33.5137 191.704 33.0518 192.273 33.0518H273.674Z" fill="#E6E6E6"/>
<path d="M273.674 42.8525C274.243 42.8525 274.705 43.3145 274.705 43.8843V45.9478C274.705 46.5176 274.243 46.9796 273.674 46.9796H192.273C191.704 46.9796 191.243 46.5176 191.243 45.9478V43.8843C191.243 43.3145 191.704 42.8525 192.273 42.8525H273.674Z" fill="#E6E6E6"/>
<path d="M273.674 52.6533C274.243 52.6533 274.705 53.1152 274.705 53.6851V55.7486C274.705 56.3184 274.243 56.7803 273.674 56.7803H192.273C191.704 56.7803 191.243 56.3184 191.243 55.7486V53.6857C191.243 53.1159 191.704 52.6539 192.273 52.6539L273.674 52.6533Z" fill="#1165BA"/>
<path d="M423.502 78.3649H450.541C450.501 77.0929 450.771 75.8304 451.327 74.6862C451.343 75.9559 451.622 77.2086 452.146 78.3649H453.374C455.253 78.3629 456.775 76.8387 456.777 74.9579V57.366C456.776 48.7527 449.42 35.8407 441.428 41.2438C441.17 41.2303 437.118 39.4336 436.86 39.4336C429.829 39.4393 427.411 45.7922 425.287 52.5035C422.868 51.3872 421.201 56.0469 419.995 64.2485C419.643 66.6419 419.33 69.3369 419.05 72.2781C418.274 74.7458 419.644 77.3754 422.109 78.1515C422.56 78.2936 423.03 78.3663 423.503 78.3672L423.502 78.3649Z" fill="#2F2E41"/>
<path d="M370.442 178.938C369.102 182.12 369.654 185.391 371.676 186.245C373.699 187.099 376.424 185.212 377.765 182.03C378.318 180.766 378.56 179.387 378.472 178.01L383.983 164.458L377.576 162.004L372.822 175.625C371.775 176.523 370.959 177.659 370.44 178.938L370.442 178.938Z" fill="#FFB6B6"/>
<path d="M429.687 72.4102L442.611 75.1169L440.629 81.0708L444.593 126.61L437.986 141.273L397.678 137.965L407.59 118.117C407.59 118.117 403.625 101.578 408.912 98.2686C414.198 94.9594 422.788 78.4203 422.788 78.4203L429.687 72.4102Z" fill="#C1DFFF"/>
<path d="M441.734 77.751L453.184 82.3922L449.219 140.611L457.809 190.89L430.057 195.521C430.057 195.521 433.361 84.377 435.343 82.3922C437.324 80.4074 441.734 77.748 441.734 77.748V77.751Z" fill="#2F2E41"/>
<path d="M419.31 85.0115C419.31 85.0115 411.861 80.2924 407.836 83.7867C403.81 87.2809 372.822 171.746 372.822 171.746L381.18 175.382L400.35 135.141L419.31 85.0115Z" fill="#2F2E41"/>
<path d="M397.969 227.326L390.411 285.497L400.984 286.159C400.984 286.159 406.481 271.141 412.752 253.451C414.087 249.699 415.454 245.829 416.809 241.953C418.276 237.745 419.737 233.537 421.124 229.476C424.553 219.46 427.56 210.343 429.278 204.389C429.575 203.344 429.839 202.398 430.057 201.564C434.68 183.781 437.325 137.308 437.325 137.308L399 134L398.591 134.509L390.411 144.744L390.794 146.907L400.984 204.127L397.971 227.328L397.969 227.326Z" fill="#2F2E41"/>
<path d="M400.982 204.126L397.969 227.328L411.521 251.216L412.749 253.452L431.41 287.404L440.628 282.171C440.628 282.171 428.635 254.576 421.121 229.476C420.289 226.717 419.515 223.985 418.822 221.325C416.78 213.538 420.124 199.328 418.815 195.411C414.395 182.193 399.99 155.75 393.303 143.771L390.792 146.906L400.982 204.126Z" fill="#2F2E41"/>
<path d="M422.955 77.9219L409.575 83.0561L374.553 185.6L395.698 188.908L405.61 129.367L422.955 77.9219Z" fill="#2F2E41"/>
<path d="M456.416 188.61C456.756 192.046 458.803 194.655 460.987 194.438C463.171 194.221 464.665 191.26 464.324 187.822C464.207 186.447 463.762 185.12 463.028 183.953L461.402 169.411L454.603 170.32L456.927 184.559C456.436 185.849 456.261 187.238 456.416 188.61Z" fill="#FFB6B6"/>
<path d="M448.557 82.3955C448.557 82.3955 457.147 80.4106 459.79 85.0419C462.434 89.6732 463.755 179.647 463.755 179.647L454.666 180.309L449.879 135.985L448.558 82.3972L448.557 82.3955Z" fill="#2F2E41"/>
<path d="M437.595 70.8051C445.181 70.8051 451.33 64.648 451.33 57.0529C451.33 49.4578 445.181 43.3008 437.595 43.3008C430.009 43.3008 423.859 49.4578 423.859 57.0529C423.859 64.648 430.009 70.8051 437.595 70.8051Z" fill="#FFB6B6"/>
<path d="M443.108 78.3641H449.892C450.236 78.3641 450.529 78.098 450.545 77.7533L450.547 77.7153C450.584 76.9968 451.591 76.8759 451.825 77.5563C451.919 77.8299 452.026 78.0995 452.146 78.3641H452.813V57.1625C452.813 53.5261 449.869 50.5781 446.237 50.5781C443.136 50.5781 440.456 52.747 439.806 55.7828C439.806 55.7828 435.196 61.4439 437.913 64.6266C440.63 67.8094 436.678 70.4 436.678 70.4C435.8 74.4988 438.921 78.3641 443.108 78.3641Z" fill="#2F2E41"/>
<path d="M218.201 103.06C219.724 102.078 220.044 99.9741 218.98 98.5072L213.992 91.6356C212.827 90.029 210.582 89.672 208.977 90.8383C208.835 90.9416 208.7 91.0553 208.575 91.1784C200.129 95.6989 195.583 102.301 200.637 110.105C200.637 111.408 200.732 112.709 200.921 113.999C201.003 114.558 201.192 115.105 201.51 115.572C202.457 116.958 204.127 117.467 205.597 116.987L213.755 114.334C215.488 113.77 216.426 111.875 215.786 110.167C214.959 107.96 215.3 104.934 218.201 103.06Z" fill="#F2F2F2"/>
<path d="M237.563 123.331C235.216 123.099 233.212 125.035 233.212 127.396V134.442C233.212 134.625 233.226 134.807 233.254 134.987C233.555 136.95 235.389 138.297 237.35 137.995C248.783 139.406 256.595 134.428 257.065 123.508C257.14 123.354 257.204 123.196 257.257 123.034C257.866 121.147 256.832 119.122 254.947 118.512L248.117 116.29C245.761 115.524 243.312 117.056 242.9 119.502C242.527 121.711 241.071 123.677 237.563 123.331Z" fill="#E6E6E6"/>
<path d="M195.336 130.219C197.706 144.308 210.053 149.652 222.93 150.497C223.182 150.536 223.437 150.555 223.692 150.556C226.469 150.557 228.722 148.304 228.723 145.523V133.742C228.723 130.447 226.026 127.88 222.734 127.847C219.553 127.815 217.479 126.308 216.627 123.54C215.654 120.378 212.184 118.711 209.042 119.734L198.301 123.228C196.91 123.681 195.784 124.716 195.216 126.066C194.651 127.402 194.695 128.918 195.336 130.219Z" fill="#3F3D56"/>
<path d="M261.505 81.506C259.523 79.5621 256.342 79.595 254.401 81.5796C254.228 81.7562 254.068 81.9454 253.923 82.1455L244.38 95.2972C243.159 96.9789 243.857 99.3217 245.764 100.143C250.232 102.066 249.762 106.384 248.308 109.026C247.595 110.321 248.183 111.941 249.588 112.398L265.67 117.63C268.316 118.485 271.153 117.031 272.007 114.382C272.093 114.115 272.157 113.842 272.197 113.565C272.474 111.721 272.613 109.86 272.612 107.996C275.333 97.8389 271.568 88.2642 261.505 81.506Z" fill="#05407C"/>
<path d="M233.887 96.7554C235.669 97.7598 237.917 97.274 239.119 95.6177L242.317 91.2121C242.938 90.3578 243.153 89.2741 242.906 88.247C242.668 87.2387 242 86.3857 241.079 85.9133C233.555 79.1073 224.651 78.6896 217.1 85.8786C216.151 86.3581 215.46 87.2308 215.21 88.2655C214.964 89.2855 215.177 90.3623 215.794 91.2107L219.53 96.3593C220.813 98.1277 223.299 98.5903 225.068 97.3086C227.637 95.4461 231.37 95.3365 233.887 96.7554Z" fill="#E6E6E6"/>
<path d="M191.765 185.508C192.052 184.291 193.4 183.891 194.502 183.937C195.199 183.984 195.889 184.093 196.566 184.264C197.274 184.422 197.976 184.611 198.674 184.809C199.954 185.175 201.22 185.617 202.521 185.902C203.612 186.201 204.761 186.218 205.861 185.951C206.919 185.661 207.751 184.843 208.062 183.79C208.378 182.783 207.923 181.696 206.985 181.215C206.117 180.736 205.026 181.052 204.548 181.921C204.541 181.934 204.534 181.947 204.527 181.96C204.125 183.031 204.44 184.24 205.315 184.978C205.763 185.399 206.254 185.773 206.779 186.092C207.313 186.456 207.907 186.722 208.533 186.878C209.598 187.161 210.724 186.721 211.317 185.79C211.434 185.567 211.505 185.323 211.525 185.072C211.556 184.73 211.022 184.731 210.991 185.072C210.901 186.051 209.755 186.509 208.898 186.402C208.32 186.306 207.767 186.091 207.276 185.772C206.801 185.495 206.352 185.177 205.932 184.822C205.205 184.193 204.524 183.157 205.012 182.174C205.392 181.542 206.211 181.339 206.842 181.719C206.926 181.77 207.004 181.83 207.075 181.898C207.839 182.523 207.702 183.657 207.199 184.399C206.595 185.174 205.662 185.62 204.679 185.602C203.644 185.604 202.614 185.442 201.629 185.123C200.4 184.774 199.184 184.383 197.949 184.054C197.248 183.867 196.542 183.699 195.828 183.567C195.153 183.418 194.46 183.37 193.771 183.425C192.608 183.48 191.602 184.253 191.249 185.364C191.171 185.7 191.686 185.842 191.765 185.508Z" fill="#3F3D56"/>
<path d="M212.888 171.585C213.049 171.585 213.18 172.047 213.18 172.617V174.68C213.18 175.25 213.049 175.712 212.888 175.712H189.881C189.72 175.712 189.59 175.25 189.59 174.68V172.617C189.59 172.047 189.72 171.585 189.881 171.585H212.888Z" fill="#E6E6E6"/>
<path d="M274.413 171.585C274.574 171.585 274.705 172.047 274.705 172.617V174.68C274.705 175.25 274.574 175.712 274.413 175.712H251.406C251.245 175.712 251.115 175.25 251.115 174.68V172.617C251.115 172.047 251.245 171.585 251.406 171.585H274.413Z" fill="#E6E6E6"/>
<path d="M264.169 183.208L259.602 184.719L257.318 185.475C256.617 185.775 255.858 185.914 255.096 185.884C254.533 185.846 254.039 185.496 253.817 184.977C253.72 184.456 253.943 183.928 254.384 183.636C255.474 182.806 256.852 183.651 257.625 184.51C258.569 185.562 259.104 186.919 259.99 188.02C260.778 189.008 261.778 189.806 262.915 190.355C265.189 191.484 267.9 191.252 269.949 189.753C272.356 187.894 272.602 184.671 272.615 181.86C272.605 181.59 272.379 181.379 272.109 181.388C271.853 181.397 271.647 181.603 271.638 181.86C271.627 184.408 271.482 187.531 269.161 189.126C266.938 190.653 264.018 190.248 261.97 188.62C260.915 187.68 260.038 186.558 259.38 185.307C258.649 184.109 257.741 182.953 256.366 182.488C255.149 182.046 253.79 182.521 253.114 183.626C252.531 184.608 252.854 185.877 253.835 186.461C253.911 186.506 253.99 186.546 254.071 186.581C255.666 187.343 257.491 186.451 259.026 185.942L264.43 184.154C265.024 183.958 264.77 183.013 264.171 183.211L264.169 183.208Z" fill="#1165BA"/>
<path d="M30.5607 312.218L36.65 312.164L39.3417 288.623L30.3545 288.702L30.5607 312.218Z" fill="#FFB6B6"/>
<path d="M51.4221 311.897C51.6145 312.215 51.7236 313.246 51.7268 313.618C51.7368 314.761 50.8196 315.695 49.6781 315.705L30.8203 315.87C30.0416 315.877 29.4049 315.25 29.3981 314.471L29.3912 313.685C29.3912 313.685 28.4377 311.33 30.333 308.402C30.333 308.402 32.7399 310.661 36.2757 307.059L37.3109 305.142L44.9735 310.65L49.1984 311.133C50.1227 311.239 50.9402 311.101 51.4221 311.897Z" fill="#2F2E41"/>
<path d="M53.7266 291.894L59.5123 293.795L69.5927 272.358L61.0536 269.551L53.7266 291.894Z" fill="#FFB6B6"/>
<path d="M73.5917 298.279C73.6722 298.642 73.4457 299.654 73.3299 300.007C72.9737 301.093 71.8059 301.684 70.7214 301.327L52.8042 295.437C52.0644 295.193 51.6615 294.396 51.9045 293.655L52.1495 292.908C52.1495 292.908 51.9993 290.372 54.7316 288.205C54.7316 288.205 56.2891 291.117 60.791 288.839L62.3849 287.354L67.8817 295.03L71.7294 296.842C72.5712 297.239 73.39 297.37 73.5917 298.279Z" fill="#2F2E41"/>
<path d="M61.896 155.396L74.0619 194.451L88.3244 229.551L66.7058 280.058L54.6771 275.366L65.4428 231.653L47.0397 199.014L38.3427 296.994L27.7628 295.726L14.0066 178.358L16.164 152.836L61.896 155.396Z" fill="#2F2E41"/>
<path d="M49.4486 66.4716L36.3037 63.2949L32.6774 71.9178C32.6774 71.9178 14.9146 74.9221 14.0067 88.5368C14.0067 88.5368 10.4665 106.408 12.7327 111.401C14.9989 116.393 20.5857 134.047 20.5857 134.047C20.5857 134.047 11.7399 156.041 14.0067 157.4C16.2734 158.76 64.8448 163.716 64.8448 160.993C64.8448 158.27 65.3992 125.921 65.3992 125.921L63.4973 76.9077L51.262 72.3717L49.4486 66.4716Z" fill="#E6E6E6"/>
<path d="M47.2238 64.2783C54.5396 64.2783 60.4701 58.3406 60.4701 51.0161C60.4701 43.6916 54.5396 37.7539 47.2238 37.7539C39.9081 37.7539 33.9775 43.6916 33.9775 51.0161C33.9775 58.3406 39.9081 64.2783 47.2238 64.2783Z" fill="#FFB6B6"/>
<path d="M38.4527 52.9874C39.5099 53.5664 38.508 56.3329 39.1687 56.5718C39.9324 56.8479 42.7156 53.6739 42.7488 50.1199C42.7589 49.0443 42.5115 48.5278 42.7488 47.2524C43.0593 45.5841 44.0132 43.6161 44.8969 43.668C45.4207 43.6988 45.9325 44.4401 45.9709 45.1018C46.0247 46.0291 45.1251 46.3945 45.2549 46.894C45.502 47.8454 49.2804 48.501 50.625 46.894C51.6791 45.6341 50.8696 43.423 51.341 43.3096C51.6885 43.226 52.062 44.4434 53.489 45.8187C54.0267 46.3368 54.8263 47.1074 55.2791 46.894C55.9334 46.5856 55.4572 44.4138 55.6371 44.3849C55.7861 44.361 55.8801 45.8876 56.7111 47.2524C57.7787 49.0059 59.9804 50.3569 61.0072 49.7615C61.6363 49.3967 61.6857 48.3817 61.7232 47.6109C61.8022 45.9869 64.1582 42.2505 63.5477 40.5134C62.3053 36.978 60.1794 39.4712 59.2172 38.2915C57.9145 36.6945 56.7465 37.5538 54.5631 35.7824C52.4301 34.052 52.4109 32.3121 50.983 32.1981C49.697 32.0954 49.2402 33.4689 47.7609 33.2734C46.5078 33.1077 46.2348 32.0426 45.2549 32.1981C44.3578 32.3403 44.2989 33.2787 43.1068 33.6318C42.3458 33.8572 42.1784 33.5314 41.3168 33.6318C39.5239 33.8407 38.3202 35.4761 38.0947 35.7824C37.2255 36.9634 37.5631 37.4612 36.6627 38.6499C35.8862 39.6751 34.1647 39.2405 33.5176 39.7526C31.4034 41.4259 30.4957 44.5107 30.4786 48.0264C30.4666 50.4853 30.7873 51.7276 31.5029 54.831C32.0463 57.1876 34.5606 60.2323 35.9467 61.5899C36.3187 61.9543 37.3617 62.9759 38.0947 62.6652C38.7893 62.3708 38.8099 61.0477 38.8107 60.873C38.8136 60.2722 38.6536 59.5289 37.3787 57.6471C36.0395 55.6704 35.5077 55.445 35.5887 54.7796C35.7317 53.6034 37.61 52.5259 38.4527 52.9874Z" fill="#2F2E41"/>
<path d="M0.993767 185.271C0.532468 189.127 2.14554 192.492 4.59668 192.786C7.04781 193.079 9.40879 190.191 9.87009 186.335C10.072 184.647 9.87639 183.053 9.38706 181.77L11.137 165.405L3.4489 164.746L2.53984 180.949C1.76169 182.08 1.19569 183.583 0.993767 185.271Z" fill="#FFB6B6"/>
<path d="M23.1309 76.5889C23.1309 76.5889 19.1477 76.6442 16.5086 81.8003C15.1062 84.5402 5.99052 133.648 5.99052 133.648L3.42959 149.18L4.74573 151.749C2.65352 154.953 2.07754 158.917 3.17128 162.585L0.669189 177.759L12.4348 177.823L21.6166 138.071L29.337 115.016L23.1309 76.5889Z" fill="#E6E6E6"/>
<path d="M83.2406 184.672C83.7019 188.529 82.0888 191.893 79.6377 192.187C77.1866 192.481 74.8256 189.593 74.3643 185.736C74.1624 184.048 74.358 182.455 74.8473 181.171L73.0974 164.806L80.7855 164.147L81.6945 180.35C82.4727 181.482 83.0387 182.984 83.2406 184.672Z" fill="#FFB6B6"/>
<path d="M61.1033 75.9902C61.1033 75.9902 65.0865 76.0456 67.7256 81.2016C69.128 83.9415 78.2437 133.05 78.2437 133.05L80.8046 148.581L79.4885 151.15C81.5807 154.354 82.1567 158.318 81.0629 161.986L83.565 177.161L71.7994 177.224L62.6176 137.472L54.8972 114.417L61.1033 75.9902Z" fill="#E6E6E6"/>
<path d="M421.084 55.0116C421.572 55.8124 424.165 52.8826 428.146 52.5594C429.159 52.4751 431.444 56.3603 434.065 56.4166C435.802 56.4517 436.871 56.4376 439.01 56.4166C441.538 56.3884 442.231 56.3323 442.719 55.7141C443.665 54.5128 442.886 52.3773 443.337 52.2017C443.714 52.0541 444.691 53.3748 445.192 55.0116C446.243 58.4467 442.472 63.2306 442.101 67.6562C441.705 72.426 445.6 63.2868 445.192 67.6562C444.734 72.5736 443.096 72.2012 443.115 73.9785C443.121 74.2455 443.189 74.4773 443.337 74.681C443.467 74.8637 443.597 74.9339 445.81 75.3835C448.455 75.9244 449.785 76.1913 450.137 76.086C451.045 75.819 451.967 74.3368 452.609 73.2761C453.673 71.5409 452.919 73.2901 452.609 71.1686C452.313 69.1173 451.385 68.8504 451.373 66.9537C451.361 64.5653 452.826 63.8418 453.846 61.3339C455.731 56.6975 453.889 51.3306 453.228 49.3918C452.91 48.462 452.334 47.2852 451.324 45.3409C450.513 43.78 449.437 42.405 448.125 41.3747C446.159 39.8306 443.874 38.7726 441.404 38.3534C440.052 38.1237 438.672 38.2443 437.342 38.6075L433.897 39.5482C432.449 39.9436 431.084 40.6602 429.881 41.6569C428.759 41.6612 427.786 42.4852 427.401 43.6829C427.361 43.8082 427.324 43.8812 427.294 43.8705C421.084 41.6645 421.088 48.1984 421.156 52.28C421.163 52.6978 421.15 53.0675 421.103 53.3678V53.3889C420.979 54.1967 420.948 54.7868 421.084 55.0116Z" fill="#2F2E41"/>
<path d="M340.36 91.0957H274.984V92.2933H340.36V91.0957Z" fill="#3F3D56"/>
<path d="M353.518 99.4621C348.901 99.4621 345.145 95.7014 345.145 91.0787C345.145 86.456 348.901 82.6953 353.518 82.6953C358.135 82.6953 361.891 86.456 361.891 91.0787C361.891 95.7014 358.135 99.4621 353.518 99.4621ZM353.518 83.8929C349.56 83.8929 346.341 87.1165 346.341 91.0787C346.341 95.0409 349.56 98.2645 353.518 98.2645C357.475 98.2645 360.695 95.0409 360.695 91.0787C360.695 87.1165 357.475 83.8929 353.518 83.8929Z" fill="#3F3D56"/>
<path d="M353.518 95.2701C355.83 95.2701 357.705 93.3934 357.705 91.0784C357.705 88.7634 355.83 86.8867 353.518 86.8867C351.206 86.8867 349.331 88.7634 349.331 91.0784C349.331 93.3934 351.206 95.2701 353.518 95.2701Z" fill="#1165BA"/>
<path d="M191.019 135.408H125.643V136.606H191.019V135.408Z" fill="#3F3D56"/>
<path d="M104.112 135.391C104.112 130.769 107.868 127.008 112.485 127.008C117.102 127.008 120.859 130.769 120.859 135.391C120.859 140.014 117.102 143.775 112.485 143.775C107.868 143.775 104.112 140.014 104.112 135.391ZM105.308 135.391C105.308 139.353 108.528 142.577 112.485 142.577C116.443 142.577 119.662 139.353 119.662 135.391C119.662 131.429 116.443 128.205 112.485 128.205C108.528 128.205 105.308 131.429 105.308 135.391Z" fill="#3F3D56"/>
<path d="M112.485 139.583C114.797 139.583 116.672 137.706 116.672 135.391C116.672 133.076 114.797 131.199 112.485 131.199C110.173 131.199 108.299 133.076 108.299 135.391C108.299 137.706 110.173 139.583 112.485 139.583Z" fill="#1165BA"/>
</svg>
