<svg width="88" height="117" viewBox="0 0 88 117" fill="none" xmlns="http://www.w3.org/2000/svg">
<path d="M31.0313 64.9808L35.8991 48.8509L23.0866 39.4519H39.0961L44 23.1539L48.9039 39.4519H64.9134L52.0648 48.8509L56.9327 64.9808L44 54.9688L31.0313 64.9808ZM12.75 116.135V74.9447C8.79167 71.0505 5.71875 66.4912 3.53125 61.2669C1.34375 56.0425 0.25 50.4535 0.25 44.5C0.25 32.3045 4.49276 21.9639 12.9783 13.4783C21.4639 4.99276 31.8045 0.75 44 0.75C56.1955 0.75 66.5361 4.99276 75.0217 13.4783C83.5072 21.9639 87.75 32.3045 87.75 44.5C87.75 50.4535 86.6562 56.0425 84.4688 61.2669C82.2812 66.4912 79.2083 71.0505 75.25 74.9447V116.135L44 106.76L12.75 116.135ZM44 82C54.4167 82 63.2708 78.3542 70.5625 71.0625C77.8542 63.7708 81.5 54.9167 81.5 44.5C81.5 34.0833 77.8542 25.2292 70.5625 17.9375C63.2708 10.6458 54.4167 7 44 7C33.5833 7 24.7292 10.6458 17.4375 17.9375C10.1458 25.2292 6.5 34.0833 6.5 44.5C6.5 54.9167 10.1458 63.7708 17.4375 71.0625C24.7292 78.3542 33.5833 82 44 82ZM19 107.276L44 100.269L69 107.276V80.2092C65.5144 82.7733 61.6422 84.7544 57.3834 86.1527C53.1246 87.5509 48.6634 88.25 44 88.25C39.3366 88.25 34.8754 87.5509 30.6166 86.1527C26.3578 84.7544 22.4856 82.7733 19 80.2092V107.276Z" fill="#046AD0"/>
</svg>
