<svg width="294" height="127" viewBox="0 0 294 127" fill="none" xmlns="http://www.w3.org/2000/svg">
<g clip-path="url(#clip0_764_7426)">
<path d="M280.432 69.9593L279.513 76.1323L277.231 91.4647H231.397C231.755 88.0282 232.245 83.0819 232.767 77.7421C232.819 77.2089 232.873 76.6722 232.924 76.1323C234.235 62.7097 235.669 47.5205 235.669 47.5205L241.695 48.4671L253.386 50.3004L258.15 51.047L270.907 53.0502C277.267 54.0468 281.642 61.8131 280.432 69.9593Z" fill="#F2F2F2"/>
<path d="M245.763 22.6816L251.4 30.9994L240.567 37.4737L235.945 27.2496L245.763 22.6816Z" fill="#FFB6B6"/>
<path d="M238.587 30.5513C246.299 30.5513 252.55 25.2794 252.55 18.7762C252.55 12.2729 246.299 7.00098 238.587 7.00098C230.876 7.00098 224.624 12.2729 224.624 18.7762C224.624 25.2794 230.876 30.5513 238.587 30.5513Z" fill="#FFB6B6"/>
<path d="M237.585 21.408C236.476 19.985 236.911 19.2407 235.983 18.7178C235.983 18.7177 235.61 18.5073 232.936 18.3873C232.338 14.7547 231.591 14.3141 231.591 14.3141C230.73 13.8064 229.452 13.9714 228.657 14.2819C226.975 14.9387 227.17 16.3573 226.038 16.6288C224.474 17.0038 221.629 14.8897 221.349 12.4694C221.12 10.4951 222.628 8.57762 223.226 8.67905C223.82 8.77963 225.24 7.2507 226.007 7.27428C226.53 7.29039 228.67 6.50614 229.245 6.56745C229.874 6.63443 231.947 7.5465 232.033 7.33812C232.633 5.89006 232.457 5.48828 232.966 5.07403C233.868 4.33996 235.344 4.85115 237.66 5.12558C242.425 5.69023 243.257 4.3653 245.699 5.26335C246.932 5.717 247.964 6.94043 249.978 9.36878C252.795 12.7648 254.203 14.4628 254.212 16.4433C254.221 18.463 253.061 18.3348 252.552 21.3249C251.985 24.6533 253.19 26.1753 251.874 27.2566C250.856 28.0923 248.788 28.2907 247.702 27.5572C245.842 26.3014 248.276 23.2712 246.218 21.0573C244.954 19.6984 242.413 19.0937 241.249 19.7654C239.933 20.525 240.658 22.7544 239.732 22.9658C238.94 23.1469 237.778 21.6559 237.585 21.408Z" fill="#2F2E41"/>
<path d="M270.111 67.7853C269.721 73.4011 268.174 75.174 267.632 81.8062C267.514 83.2623 267.443 84.9524 267.443 86.9681C267.443 87.4819 267.446 87.9787 267.446 88.4641C267.446 89.4976 267.423 90.4741 267.28 91.4647C267.172 92.2555 266.986 93.0521 266.678 93.8914H236.605C236.601 93.8857 236.601 93.88 236.598 93.8743C236.422 93.2291 236.31 92.6124 236.225 92.0215C236.198 91.833 236.175 91.6474 236.154 91.4647C236.127 91.2506 236.103 91.0394 236.08 90.831C235.988 90.0001 235.897 89.215 235.68 88.4641C235.389 87.4277 234.861 86.4513 233.778 85.5092C233.334 85.1237 232.891 84.824 232.457 84.5614C232.373 84.5127 232.291 84.4642 232.207 84.4157C231.008 83.7219 229.874 83.2223 228.892 81.8062C228.876 81.7863 228.862 81.7634 228.848 81.7435C228.679 81.495 228.239 80.844 227.921 79.9762C227.586 79.074 227.383 77.9405 227.748 76.7815C228.618 74.035 231.841 73.7609 234.475 70.9858C234.76 70.6861 235.041 70.3548 235.308 69.9865C236.5 68.3534 236.821 66.9146 237.2 65.2044C237.261 64.9274 237.315 64.6533 237.359 64.3879C237.394 64.188 237.424 63.991 237.448 63.7969C237.657 62.1667 237.556 60.762 237.309 59.5058C236.503 55.3918 234.126 52.8451 235.806 49.1536C236.334 47.9945 237.082 47.1237 237.837 46.3786C239.435 44.7997 241.077 43.7748 240.793 41.7364C240.505 39.6808 238.656 39.398 238.45 37.6022C238.345 36.6944 238.697 35.738 239.357 34.7987V34.7959C241.47 31.7724 246.744 28.9887 250.096 29.0773C250.715 29.0916 251.264 29.2086 251.721 29.4341C253.376 30.2563 252.686 32.0521 255.222 34.5703C257.107 36.4403 259.24 37.1883 260.049 37.5423C263.255 38.9528 265.862 43.1125 267.632 48.4313C267.646 48.4713 267.66 48.5112 267.673 48.5541C268.767 51.8859 269.539 55.6687 269.921 59.5058C270.084 61.1303 270.179 62.7634 270.199 64.3793C270.216 65.6697 270.182 66.789 270.111 67.7853Z" fill="#338AFF"/>
<path d="M247.591 87.0248L246.978 88.4637L246.592 89.3658L245.698 91.4643L244.662 93.891H238.003L239.12 91.4643L239.638 90.3337L240.498 88.4637L241.94 85.3232L247.591 87.0248Z" fill="#FFB6B6"/>
<path d="M267.738 47.9399C267.721 48.1256 267.697 48.3311 267.674 48.5538C267.41 50.8207 266.787 54.8776 265.876 59.5056C265.395 61.9465 264.833 64.5476 264.2 67.1313C262.839 72.707 261.147 78.1973 259.234 81.8059C258.892 82.4569 258.54 83.0451 258.181 83.5647C257.907 83.9615 257.619 84.3526 257.317 84.738C256.342 86.0028 255.249 87.202 254.115 88.3211C254.071 88.3696 254.02 88.4154 253.969 88.4639C253.787 88.6465 253.597 88.8265 253.407 89.0063C252.48 89.8884 251.532 90.7107 250.614 91.4644C249.497 92.3838 248.42 93.1975 247.456 93.8912H236.642L236.598 93.874L235.041 93.2916C235.041 93.2916 235.484 92.8519 236.226 92.0212C236.378 91.8526 236.541 91.6671 236.717 91.4644C236.933 91.216 237.167 90.9419 237.417 90.645C237.939 90.0227 238.531 89.2918 239.168 88.4639C240.4 86.8621 241.805 84.8922 243.224 82.6111C243.386 82.3456 243.552 82.0772 243.718 81.8059C243.721 81.7974 243.728 81.7888 243.732 81.7803C244.013 81.3177 244.29 80.841 244.568 80.3556C246.921 76.2273 247.594 72.8013 247.788 71.6908C248.058 70.1205 248.434 67.9249 248.332 65.5096C248.265 63.9166 247.991 62.232 247.337 60.5591V60.5563C247.202 60.2051 247.049 59.8539 246.877 59.5056C246.569 58.8803 246.203 58.2636 245.769 57.6555C243.857 54.9776 242.303 54.8662 241.067 51.9483C240.701 51.0833 239.872 49.1306 240.126 47.0692V47.0664C240.157 46.8123 240.207 46.5553 240.275 46.2983V46.2955C240.292 46.2241 240.316 46.15 240.339 46.0786C240.532 45.4476 240.851 44.8223 241.335 44.2284C242.279 43.0751 243.569 42.3898 244.723 41.9816L244.727 41.9787C246.061 41.5106 247.212 41.4106 247.435 41.3935C252.381 41.0224 256.217 44.5283 258.313 46.444C259.122 47.1834 259.864 47.803 260.541 48.3082C265.812 52.2768 267.257 49.7414 267.633 48.431C267.69 48.2283 267.721 48.0542 267.738 47.9399Z" fill="#338AFF"/>
<path d="M267.755 47.792C267.755 47.8062 267.752 47.8547 267.738 47.9347C267.745 47.8918 267.749 47.849 267.752 47.809C267.752 47.8005 267.752 47.7948 267.755 47.792Z" fill="#338AFF"/>
<path d="M240.868 108.035H59.3886C57.7025 108.035 56.3281 109.191 56.3281 110.613C56.3281 112.038 57.7025 113.194 59.3886 113.194H240.868C242.553 113.194 243.925 112.038 243.925 110.613C243.925 109.191 242.553 108.035 240.868 108.035Z" fill="#E6E6E6"/>
<path d="M200.594 121.362H99.6586C97.9726 121.362 96.6016 122.519 96.6016 123.94C96.6016 125.362 97.9726 126.521 99.6586 126.521H200.594C202.28 126.521 203.654 125.362 203.654 123.94C203.654 122.519 202.28 121.362 200.594 121.362Z" fill="#E6E6E6"/>
<path d="M79.582 23.2291L91.0194 19.1699L95.9252 27.6508L83.9061 31.7878L79.582 23.2291Z" fill="#FFB6B6"/>
<path opacity="0.1" d="M79.582 23.2291L91.0194 19.1699L95.9252 27.6508L83.9061 31.7878L79.582 23.2291Z" fill="black"/>
<path d="M81.2077 19.9973L92.4909 30.9604C92.4909 30.9604 84.6418 51.8524 76.7926 53.7141C68.9434 55.5757 54.4715 64.6772 54.4715 64.6772L36.3203 54.7483L45.1506 43.7852C45.1506 43.7852 66.4906 19.1699 72.1321 19.1699C77.7737 19.1699 81.2077 19.9973 81.2077 19.9973Z" fill="#338AFF"/>
<path d="M65.9633 91.4643H39.698L38.0374 89.5923L31.2577 81.9491L29.6977 80.1909C29.6977 80.1909 23.8108 71.0894 25.0372 62.8154C26.2637 54.5413 39.0186 52.6797 39.0186 52.6797H39.5435L55.1584 64.2509L54.2263 75.0196L59.1713 81.9491L65.9633 91.4643Z" fill="#2F2E41"/>
<path d="M45.0768 91.465H38.0371V82.6738L45.0768 91.465Z" fill="#2F2E41"/>
<path d="M196.914 78.1186L196.039 81.9495L193.866 91.4647H150.207C150.548 89.332 151.014 86.2623 151.512 82.9486C151.561 82.6176 151.613 82.2846 151.662 81.9495C152.91 73.6196 154.276 64.1934 154.276 64.1934L160.016 64.7808L171.152 65.9185L175.69 66.3819L187.841 67.625C193.9 68.2435 198.067 73.0632 196.914 78.1186Z" fill="#F2F2F2"/>
<path d="M258.7 91.4649H235.021C235.381 91.107 235.585 90.9002 235.585 90.9002L242.683 89.9114L257.31 87.876C257.31 87.876 257.977 89.3301 258.7 91.4649Z" fill="#2F2E41"/>
<path d="M158.256 27.3662L168.554 39.6478L150.591 40.1002L148.663 28.5584L158.256 27.3662Z" fill="#A0616A"/>
<path opacity="0.1" d="M158.256 27.3662L168.554 39.6478L150.591 40.1002L148.663 28.5584L158.256 27.3662Z" fill="black"/>
<path d="M107.471 52.8137C106.15 49.5992 103.112 47.5686 100.686 48.2781C98.2606 48.9876 97.3659 52.1681 98.6883 55.3836C99.1956 56.6742 100.062 57.8435 101.215 58.7938L107.018 72.354L114.505 69.9221L107.99 56.8123C108.198 55.4636 108.02 54.0925 107.471 52.8137Z" fill="#A0616A"/>
<path d="M177.179 46.5554L177.165 59.0719L175.784 63.6951L172.943 73.204L170.876 81.9497L169.335 88.4655L168.786 90.7926C168.371 91.0263 167.959 91.2497 167.547 91.4649H131.669C129.631 90.4327 128.49 89.6301 128.49 89.6301C128.49 89.6301 129.054 89.1833 129.699 88.4655C130.789 87.2534 132.106 85.2676 131.299 83.3708C131.13 82.9736 131.085 82.4896 131.137 81.9497C131.466 78.3877 135.895 72.3642 135.895 72.3642L134.978 63.4241L134.576 59.5064L137.412 40.4035L146.657 35.8714L148.253 35.7412L164.008 35.0234L170.519 35.3399L170.816 35.4082L177.179 46.5554Z" fill="#CCCCCC"/>
<path d="M177.878 91.464H170.029L169.683 88.4646L169.676 88.4046L171.898 88.2764L177.68 87.9434L177.78 89.7388L177.859 91.1165L177.878 91.464Z" fill="#FFB6B6"/>
<path d="M179.811 49.5812L183.108 65.8955L180.417 81.9493L179.998 84.448L179.257 88.8601L179.029 90.2171L179.036 90.364L179.093 91.4644H169.772L169.428 88.4651L169.399 88.1962L168.697 82.0527L168.685 81.9493L167.196 68.9218L170.115 59.5059L170.331 58.8129V58.8109L171.601 42.6889L170.617 35.3622L170.608 35.2939C170.627 35.3043 170.644 35.3147 170.664 35.325C170.716 35.3519 170.767 35.3788 170.816 35.4077C176.546 38.4733 179.96 43.8514 179.811 49.5812Z" fill="#CCCCCC"/>
<path d="M140.75 43.5297L137.166 40.4033C137.166 40.4033 129.493 43.3204 129.111 44.9388C128.728 46.5572 115.181 70.3271 115.181 70.3271L109.286 57.0517L101.614 61.3714C101.614 61.3714 107.77 81.9821 113.528 82.9497C119.285 83.9173 138.581 58.5549 138.581 58.5549L140.75 43.5297Z" fill="#CCCCCC"/>
<path d="M286.29 81.8057H7.16375C3.21291 81.8057 0 84.5179 0 87.8497C0 91.1814 3.21291 93.8909 7.16375 93.8909H286.29C290.241 93.8909 293.458 91.1816 293.458 87.8497C293.458 84.5178 290.241 81.8057 286.29 81.8057Z" fill="#E6E6E6"/>
<path d="M175.545 63.3889L175.002 84.7449C174.95 86.8123 172.947 88.465 170.495 88.465H123.91C121.516 88.465 119.54 86.8869 119.409 84.871L118.024 63.5149C117.883 61.3371 119.939 59.5059 122.526 59.5059H171.038C173.565 59.5059 175.599 61.2579 175.545 63.3889Z" fill="#3F3D56"/>
<path d="M100.341 28.3843C106.497 28.3843 111.487 24.1761 111.487 18.9851C111.487 13.7941 106.497 9.58594 100.341 9.58594C94.1854 9.58594 89.1953 13.7941 89.1953 18.9851C89.1953 24.1761 94.1854 28.3843 100.341 28.3843Z" fill="#FFB6B6"/>
<path d="M81.6998 43.5786L82.9262 54.7486L91.2659 83.0872L84.061 85.2168L71.8883 54.3349L70.207 41.9238L81.6998 43.5786Z" fill="#FFB6B6"/>
<path d="M78.3807 63.3889L77.8381 84.7449C77.7855 86.8123 75.7832 88.465 73.3312 88.465H26.746C24.352 88.465 22.3755 86.8869 22.2448 84.871L20.8604 63.5149C20.7192 61.3371 22.7752 59.5059 25.3616 59.5059H73.8738C76.4013 59.5059 78.4349 61.2579 78.3807 63.3889Z" fill="#3F3D56"/>
<path d="M92.5933 88.6095C97.4546 88.6095 101.396 87.1395 101.396 85.3262C101.396 83.5129 97.4546 82.043 92.5933 82.043C87.7319 82.043 83.791 83.5129 83.791 85.3262C83.791 87.1395 87.7319 88.6095 92.5933 88.6095Z" fill="#FFB6B6"/>
<path d="M64.4062 45.2864L69.4346 22.6866C69.4346 22.6866 83.416 21.0318 83.9065 24.962C84.3971 28.8922 83.556 48.0995 83.556 48.0995L64.4062 45.2864Z" fill="#338AFF"/>
<path d="M95.8411 20.4631C95.8411 20.4631 102.736 18.388 105.644 17.2715C108.552 16.155 114.33 23.9426 114.459 19.8297C114.587 15.7168 112.591 13.992 112.591 13.992C112.591 13.992 112.092 4.99448 101.343 6.11938C101.343 6.11938 103.707 1.61781 95.9464 0.921726C88.1853 0.225641 76.111 16.0307 77.1923 18.3926C78.2737 20.7546 79.57 22.7073 76.5021 25.2328C73.4342 27.7583 67.6895 42.0114 72.0603 45.8468C76.4311 49.6822 76.7179 51.3466 73.7232 53.7327C70.7286 56.1188 63.65 61.3071 71.3036 62.2078C78.9572 63.1085 70.6034 62.4357 76.3092 58.2033C82.0151 53.9708 90.3412 54.1437 87.2323 47.353C84.1235 40.5623 89.5247 30.8313 88.8489 29.3551C88.173 27.8789 90.3631 18.5047 90.3631 18.5047C90.3631 18.5047 95.4599 17.8732 95.8411 20.4631Z" fill="#2F2E41"/>
<path d="M152.75 31.812C159.451 31.812 164.883 27.2311 164.883 21.5803C164.883 15.9295 159.451 11.3486 152.75 11.3486C146.049 11.3486 140.617 15.9295 140.617 21.5803C140.617 27.2311 146.049 31.812 152.75 31.812Z" fill="#A0616A"/>
<path d="M153.718 7.82451C153.367 7.99734 152.897 7.73585 152.785 7.40645C152.672 7.07704 152.803 6.72729 152.933 6.40249L153.588 4.76739C154.052 3.60774 154.545 2.40757 155.55 1.52492C157.068 0.192709 159.48 -0.146199 161.651 0.0993275C164.439 0.414634 167.19 1.68786 168.487 3.79331C169.783 5.89877 169.231 8.83663 166.889 10.1502C170.227 13.3773 171.391 16.9738 171.208 21.2537C171.024 25.5337 165.493 29.4726 161.886 32.4876C161.081 32.0759 160.349 30.1462 160.792 29.4452C161.234 28.7443 160.6 27.9321 161.148 27.2865C161.697 26.6408 162.156 27.6689 161.601 27.0269C161.251 26.6217 162.617 25.6897 162.097 25.4472C159.581 24.2744 158.744 21.6298 157.164 19.6046C155.258 17.1618 151.996 15.5076 148.544 15.2331C146.642 15.0819 144.633 15.3558 143.075 16.2868C141.516 17.2178 140.507 18.8816 140.868 20.4633C139.932 19.6617 139.466 18.487 139.642 17.3718C139.818 16.2566 140.631 15.2253 141.783 14.6578C141.083 12.7045 141.683 10.4578 143.309 8.94629C144.934 7.43482 151.529 7.69225 153.902 8.09005L153.718 7.82451Z" fill="#2F2E41"/>
<path d="M154.087 15.292C157.23 15.5781 159.5 17.8744 161.416 19.9949C162.521 21.2171 163.678 22.5669 163.65 24.1035C163.622 25.657 162.391 26.9895 161.802 28.4617C160.84 30.8682 161.778 33.7313 164.068 35.3802C161.805 35.7424 159.358 34.3114 158.968 32.397C158.513 30.1683 160.516 28.0174 160.279 25.7649C160.07 23.7804 158.215 22.2531 156.639 20.7693C155.062 19.2855 153.582 17.3165 154.307 15.4204L154.087 15.292Z" fill="#2F2E41"/>
<path d="M201.08 83.0991C197.967 84.5926 196.356 87.1579 197.484 88.8287C198.611 90.4996 202.049 90.643 205.163 89.1487C206.417 88.5662 207.487 87.7389 208.284 86.7361L221.381 80.2679L217.651 75.1494L205.135 82.0693C203.705 82.1346 202.315 82.4877 201.08 83.0991Z" fill="#FFB6B6"/>
<path d="M245.425 35.6673C245.034 35.5365 241.6 34.4397 238.464 35.8878C234.863 37.5512 234.306 41.3484 234.111 42.6802C233.661 45.7567 234.988 46.4463 235.269 49.5609C235.793 55.388 237.176 48.7404 234.968 51.4002C234.203 52.3209 226.397 66.5883 222.091 69.3829C213.718 74.818 208.4 78.6457 208.4 78.6457L214.471 84.2065C214.471 84.2065 224.063 82.0512 232.541 77.4087C241.238 72.6466 245.586 70.2655 248.95 65.6075C249.24 65.2064 256.172 55.2793 252.449 44.3023C251.6 41.7984 250.044 37.2109 245.425 35.6673Z" fill="#338AFF"/>
<path d="M276.771 63.3889L276.229 84.7449C276.176 86.8123 274.174 88.465 271.722 88.465H225.137C222.743 88.465 220.766 86.8869 220.635 84.871L219.251 63.5149C219.11 61.3371 221.166 59.5059 223.752 59.5059H272.264C274.792 59.5059 276.826 61.2579 276.771 63.3889Z" fill="#3F3D56"/>
</g>
<defs>
<clipPath id="clip0_764_7426">
<rect width="293.458" height="126.496" fill="white" transform="translate(0 0.0253906)"/>
</clipPath>
</defs>
</svg>
