<svg width="315" height="68" viewBox="0 0 315 68" fill="none" xmlns="http://www.w3.org/2000/svg">
<path d="M206.865 44V25.0909H219.163V27.9624H210.29V33.0959H218.526V35.9673H210.29V41.1286H219.237V44H206.865ZM222.51 44V29.8182H225.705V32.228H225.871C226.167 31.4155 226.656 30.7815 227.339 30.326C228.022 29.8643 228.838 29.6335 229.786 29.6335C230.746 29.6335 231.556 29.8674 232.214 30.3352C232.879 30.7969 233.347 31.4278 233.618 32.228H233.765C234.079 31.4401 234.609 30.8123 235.353 30.3445C236.104 29.8705 236.994 29.6335 238.022 29.6335C239.327 29.6335 240.391 30.0459 241.216 30.8707C242.041 31.6955 242.453 32.8989 242.453 34.4808V44H239.102V34.9979C239.102 34.1177 238.868 33.4744 238.4 33.0682C237.932 32.6558 237.36 32.4496 236.683 32.4496C235.877 32.4496 235.246 32.7019 234.79 33.2067C234.341 33.7053 234.116 34.3546 234.116 35.1548V44H230.838V34.8594C230.838 34.1269 230.617 33.5421 230.174 33.1051C229.737 32.6681 229.164 32.4496 228.456 32.4496C227.976 32.4496 227.539 32.5727 227.145 32.8189C226.751 33.0589 226.437 33.4006 226.203 33.8438C225.97 34.2808 225.853 34.7917 225.853 35.3764V44H222.51ZM245.844 49.3182V29.8182H249.131V32.1634H249.325C249.497 31.8187 249.741 31.4524 250.055 31.0646C250.368 30.6707 250.793 30.3352 251.329 30.0582C251.864 29.7751 252.547 29.6335 253.378 29.6335C254.474 29.6335 255.462 29.9136 256.342 30.4737C257.229 31.0277 257.93 31.8494 258.447 32.9389C258.97 34.0223 259.232 35.3518 259.232 36.9276C259.232 38.4848 258.977 39.8082 258.466 40.8977C257.955 41.9872 257.259 42.8182 256.379 43.3906C255.499 43.9631 254.502 44.2493 253.388 44.2493C252.575 44.2493 251.901 44.1139 251.366 43.843C250.83 43.5722 250.399 43.246 250.073 42.8643C249.753 42.4766 249.504 42.1103 249.325 41.7656H249.187V49.3182H245.844ZM249.122 36.9091C249.122 37.8262 249.251 38.6295 249.51 39.3189C249.774 40.0083 250.153 40.5469 250.645 40.9347C251.144 41.3163 251.747 41.5071 252.455 41.5071C253.194 41.5071 253.812 41.3101 254.311 40.9162C254.809 40.5161 255.185 39.9714 255.437 39.282C255.696 38.5864 255.825 37.7955 255.825 36.9091C255.825 36.0289 255.699 35.2472 255.447 34.5639C255.194 33.8807 254.819 33.3452 254.32 32.9574C253.822 32.5696 253.2 32.3757 252.455 32.3757C251.741 32.3757 251.135 32.5634 250.636 32.9389C250.138 33.3144 249.759 33.8407 249.501 34.5178C249.248 35.1948 249.122 35.992 249.122 36.9091ZM262.094 44V29.8182H265.335V32.1818H265.483C265.741 31.3632 266.184 30.7322 266.812 30.2891C267.446 29.8397 268.17 29.6151 268.982 29.6151C269.167 29.6151 269.373 29.6243 269.601 29.6428C269.835 29.6551 270.028 29.6766 270.182 29.7074V32.782C270.041 32.7327 269.816 32.6896 269.508 32.6527C269.207 32.6096 268.914 32.5881 268.631 32.5881C268.022 32.5881 267.474 32.7204 266.988 32.9851C266.508 33.2436 266.129 33.6037 265.852 34.0653C265.575 34.527 265.437 35.0594 265.437 35.6626V44H262.094ZM278.097 44.277C276.675 44.277 275.447 43.9815 274.413 43.3906C273.385 42.7936 272.594 41.9503 272.04 40.8608C271.487 39.7652 271.21 38.4756 271.21 36.9922C271.21 35.5334 271.487 34.2531 272.04 33.1513C272.601 32.0433 273.382 31.1816 274.386 30.5661C275.389 29.9444 276.568 29.6335 277.922 29.6335C278.796 29.6335 279.621 29.7751 280.396 30.0582C281.178 30.3352 281.867 30.7661 282.464 31.3509C283.068 31.9356 283.542 32.6804 283.886 33.5852C284.231 34.4839 284.403 35.5549 284.403 36.7983V37.8232H272.779V35.5703H281.2C281.193 34.9302 281.055 34.3608 280.784 33.8622C280.513 33.3575 280.135 32.9605 279.648 32.6712C279.168 32.3819 278.608 32.2372 277.968 32.2372C277.285 32.2372 276.685 32.4034 276.168 32.7358C275.651 33.062 275.247 33.4929 274.958 34.0284C274.675 34.5578 274.53 35.1394 274.524 35.7734V37.7401C274.524 38.5649 274.675 39.2727 274.977 39.8636C275.278 40.4484 275.7 40.8977 276.241 41.2116C276.783 41.5194 277.417 41.6733 278.143 41.6733C278.63 41.6733 279.07 41.6056 279.464 41.4702C279.858 41.3286 280.199 41.1224 280.489 40.8516C280.778 40.5807 280.996 40.2453 281.144 39.8452L284.265 40.196C284.068 41.0208 283.692 41.741 283.138 42.3565C282.591 42.9659 281.889 43.4399 281.033 43.7784C280.178 44.1108 279.199 44.277 278.097 44.277ZM298.44 33.5668L295.393 33.8991C295.307 33.5914 295.156 33.3021 294.941 33.0312C294.731 32.7604 294.448 32.5419 294.091 32.3757C293.734 32.2095 293.297 32.1264 292.78 32.1264C292.084 32.1264 291.5 32.2772 291.026 32.5788C290.558 32.8804 290.327 33.2713 290.333 33.7514C290.327 34.1638 290.478 34.4993 290.786 34.7578C291.1 35.0163 291.617 35.2287 292.337 35.3949L294.756 35.9119C296.098 36.2012 297.095 36.6598 297.747 37.2876C298.406 37.9155 298.738 38.7372 298.744 39.7528C298.738 40.6454 298.477 41.4332 297.96 42.1165C297.449 42.7936 296.738 43.3229 295.827 43.7045C294.916 44.0862 293.869 44.277 292.688 44.277C290.952 44.277 289.555 43.9138 288.496 43.1875C287.437 42.455 286.806 41.4363 286.603 40.1314L289.862 39.8175C290.01 40.4576 290.324 40.9408 290.804 41.267C291.284 41.5933 291.909 41.7564 292.678 41.7564C293.472 41.7564 294.11 41.5933 294.59 41.267C295.076 40.9408 295.319 40.5376 295.319 40.0575C295.319 39.6513 295.162 39.3158 294.848 39.0511C294.54 38.7865 294.06 38.5833 293.408 38.4418L290.989 37.9339C289.628 37.6508 288.622 37.1738 287.97 36.5028C287.317 35.8258 286.994 34.9702 287 33.9361C286.994 33.062 287.231 32.3049 287.711 31.6648C288.197 31.0185 288.871 30.5199 289.733 30.169C290.601 29.812 291.601 29.6335 292.734 29.6335C294.396 29.6335 295.704 29.9875 296.658 30.6953C297.618 31.4032 298.212 32.3603 298.44 33.5668ZM305.581 44.2862C304.683 44.2862 303.873 44.1262 303.153 43.8061C302.439 43.4799 301.873 42.9998 301.454 42.3658C301.042 41.7318 300.836 40.95 300.836 40.0206C300.836 39.2204 300.983 38.5587 301.279 38.0355C301.574 37.5123 301.978 37.0938 302.488 36.7798C302.999 36.4659 303.575 36.2289 304.215 36.0689C304.861 35.9027 305.529 35.7827 306.219 35.7088C307.05 35.6226 307.724 35.5457 308.241 35.478C308.758 35.4041 309.133 35.2933 309.367 35.1456C309.607 34.9917 309.727 34.7547 309.727 34.4347V34.3793C309.727 33.6837 309.521 33.1451 309.108 32.7635C308.696 32.3819 308.102 32.1911 307.327 32.1911C306.508 32.1911 305.858 32.3696 305.378 32.7266C304.904 33.0836 304.584 33.5052 304.418 33.9915L301.297 33.5483C301.544 32.6866 301.95 31.9664 302.516 31.3878C303.082 30.803 303.775 30.366 304.594 30.0767C305.412 29.7812 306.317 29.6335 307.308 29.6335C307.991 29.6335 308.671 29.7135 309.349 29.8736C310.026 30.0336 310.644 30.2983 311.204 30.6676C311.765 31.0308 312.214 31.5263 312.552 32.1541C312.897 32.782 313.069 33.5668 313.069 34.5085V44H309.856V42.0518H309.746C309.542 42.4458 309.256 42.8151 308.887 43.1598C308.524 43.4983 308.065 43.7723 307.511 43.9815C306.963 44.1847 306.32 44.2862 305.581 44.2862ZM306.449 41.8303C307.12 41.8303 307.702 41.6979 308.194 41.4332C308.687 41.1624 309.065 40.8054 309.33 40.3622C309.601 39.919 309.736 39.4358 309.736 38.9126V37.2415C309.632 37.3277 309.453 37.4077 309.201 37.4815C308.955 37.5554 308.678 37.62 308.37 37.6754C308.062 37.7308 307.757 37.7801 307.456 37.8232C307.154 37.8662 306.893 37.9032 306.671 37.9339C306.172 38.0017 305.726 38.1125 305.332 38.2663C304.938 38.4202 304.627 38.6357 304.4 38.9126C304.172 39.1835 304.058 39.5343 304.058 39.9652C304.058 40.5807 304.283 41.0455 304.732 41.3594C305.181 41.6733 305.754 41.8303 306.449 41.8303Z" fill="#C1C1C1"/>
<g clip-path="url(#clip0_246_1328)">
<path d="M21.7373 42.7042L23.6101 40.3582C24.591 41.2874 25.6946 42.013 26.9208 42.5342C28.1693 43.033 29.5405 43.2822 31.0342 43.2822C32.082 43.2822 32.9515 43.135 33.6427 42.8402C34.356 42.5454 34.8911 42.1602 35.2479 41.6842C35.6047 41.1854 35.783 40.653 35.783 40.0862C35.783 39.4742 35.6158 38.919 35.2814 38.4202C34.9693 37.899 34.4008 37.4002 33.5758 36.9242C32.7732 36.4482 31.6362 35.961 30.1647 35.4622C28.2696 34.805 26.7759 34.1362 25.6835 33.4562C24.6133 32.7535 23.8553 31.9942 23.4094 31.1782C22.9635 30.3622 22.7406 29.4669 22.7406 28.4922C22.7406 27.3135 23.0639 26.2482 23.7104 25.2962C24.3792 24.3215 25.3045 23.5509 26.4861 22.9842C27.6677 22.3949 29.0277 22.1002 30.566 22.1002C31.8814 22.1002 33.2302 22.3609 34.6125 22.8822C35.9947 23.4035 37.221 24.1289 38.2911 25.0582L36.4518 27.5062C35.6268 26.6902 34.6904 26.0555 33.6427 25.6022C32.6171 25.1489 31.5135 24.9222 30.3319 24.9222C28.8382 24.9222 27.7123 25.2509 26.9543 25.9082C26.2185 26.5429 25.8507 27.2909 25.8507 28.1522C25.8507 28.6509 25.9956 29.1269 26.2854 29.5802C26.5975 30.0335 27.1326 30.4755 27.8907 30.9062C28.6487 31.3142 29.7188 31.7449 31.1011 32.1982C33.0853 32.8329 34.657 33.5469 35.8164 34.3402C36.9759 35.111 37.8119 35.9494 38.3246 36.8562C38.8372 37.7402 39.0938 38.681 39.0938 39.6782C39.0938 40.8794 38.7704 41.979 38.1239 42.9762C37.4775 43.9734 36.5297 44.767 35.2814 45.3562C34.055 45.9454 32.5502 46.2402 30.7667 46.2402C29.6519 46.2402 28.5261 46.093 27.389 45.7982C26.2743 45.481 25.2264 45.0614 24.2455 44.5402C23.2645 43.9962 22.4285 43.3842 21.7373 42.7042ZM42.7731 37.1622C42.7731 35.1902 43.1075 33.5355 43.7763 32.1982C44.4452 30.8382 45.3595 29.8069 46.5186 29.1042C47.678 28.4015 49.0047 28.0502 50.4982 28.0502C51.992 28.0502 53.3187 28.4015 54.4778 29.1042C55.6372 29.8069 56.5512 30.8382 57.22 32.1982C57.8889 33.5355 58.2233 35.1902 58.2233 37.1622C58.2233 39.1114 57.8889 40.7662 57.22 42.1262C56.5512 43.4862 55.6372 44.5174 54.4778 45.2202C53.3187 45.9002 51.992 46.2402 50.4982 46.2402C49.0047 46.2402 47.678 45.9002 46.5186 45.2202C45.3595 44.5174 44.4452 43.4862 43.7763 42.1262C43.1075 40.7662 42.7731 39.1114 42.7731 37.1622ZM45.9166 37.1622C45.9166 38.5222 46.0952 39.6782 46.4517 40.6302C46.8309 41.5594 47.3546 42.2734 48.0235 42.7722C48.7147 43.2482 49.5397 43.4862 50.4982 43.4862C51.457 43.4862 52.2706 43.2482 52.9394 42.7722C53.6307 42.2734 54.1547 41.5594 54.5112 40.6302C54.8905 39.6782 55.0797 38.5222 55.0797 37.1622C55.0797 35.8022 54.8905 34.6574 54.5112 33.7282C54.1547 32.7762 53.6307 32.0509 52.9394 31.5522C52.2706 31.0535 51.457 30.8042 50.4982 30.8042C49.5397 30.8042 48.7147 31.0535 48.0235 31.5522C47.3546 32.0509 46.8309 32.7762 46.4517 33.7282C46.0952 34.6574 45.9166 35.8022 45.9166 37.1622ZM62.9142 39.1342V28.3902H65.9909V38.7262C65.9909 40.313 66.3253 41.469 66.9942 42.1942C67.6854 42.9194 68.5659 43.2822 69.6361 43.2822C70.528 43.2822 71.3861 43.0442 72.2111 42.5682C73.0361 42.0694 73.8163 41.401 74.5521 40.5622V43.0102C73.8163 43.9622 72.9579 44.7442 71.977 45.3562C70.9962 45.9454 69.9481 46.2402 68.8335 46.2402C67.6964 46.2402 66.6821 45.9794 65.7902 45.4582C64.8983 44.937 64.1961 44.155 63.6834 43.1122C63.1707 42.047 62.9142 40.721 62.9142 39.1342ZM74.7527 45.9002L74.0504 42.5002V28.3902H77.1271V41.7522C77.1271 42.2282 77.1381 42.6702 77.1606 43.0782C77.205 43.4634 77.2719 43.9054 77.3612 44.4042L77.6287 45.9002H74.7527ZM80.6255 43.3842L83.8359 39.5762C84.2148 40.1202 84.7165 40.5734 85.3408 40.9362C85.9652 41.2762 86.6561 41.4462 87.4142 41.4462C88.6406 41.4462 89.588 41.061 90.2568 40.2902C90.9481 39.5194 91.2935 38.3862 91.2935 36.8902V22.4402H96.6442V37.5702C96.6442 39.429 96.2319 41.0154 95.4069 42.3302C94.6043 43.6222 93.5117 44.6082 92.1296 45.2882C90.7695 45.9682 89.2536 46.3082 87.5815 46.3082C86.1545 46.3082 84.8616 46.0474 83.7022 45.5262C82.5427 45.005 81.5174 44.291 80.6255 43.3842ZM85.809 26.5202V22.4402H94.8384V26.5202H85.809ZM101.504 39.1342V28.0502H106.521V38.3522C106.521 39.463 106.777 40.2902 107.29 40.8342C107.825 41.3554 108.527 41.6162 109.397 41.6162C110.066 41.6162 110.723 41.4574 111.37 41.1402C112.039 40.823 112.63 40.347 113.142 39.7122V43.0782C112.451 44.0302 111.649 44.8122 110.734 45.4242C109.82 46.0134 108.761 46.3082 107.557 46.3082C106.532 46.3082 105.551 46.0474 104.615 45.5262C103.701 44.9822 102.954 44.1774 102.374 43.1122C101.794 42.047 101.504 40.721 101.504 39.1342ZM113.276 45.9002L112.641 42.5002V28.0502H117.657V41.6502C117.657 42.1262 117.668 42.557 117.69 42.9422C117.735 43.305 117.802 43.7354 117.891 44.2342L118.159 45.9002H113.276ZM122.169 28.0502H127.052L127.687 31.4502V45.9002H122.671V32.3002C122.671 31.8242 122.649 31.4049 122.604 31.0422C122.582 30.6569 122.526 30.2149 122.437 29.7162L122.169 28.0502ZM127.186 34.2382V30.8722C127.877 29.9202 128.69 29.1495 129.627 28.5602C130.586 27.9482 131.667 27.6422 132.871 27.6422C133.919 27.6422 134.911 27.9142 135.847 28.4582C136.783 28.9795 137.542 29.7729 138.121 30.8382C138.723 31.8809 139.024 33.2069 139.024 34.8162V45.9002H134.008V35.5982C134.008 34.8502 133.874 34.2382 133.606 33.7622C133.361 33.2635 133.016 32.9009 132.57 32.6742C132.124 32.4475 131.611 32.3342 131.031 32.3342C130.363 32.3342 129.683 32.4929 128.991 32.8102C128.301 33.1275 127.699 33.6035 127.186 34.2382ZM143.866 45.9002V28.0502H148.882V45.9002H143.866ZM143.498 22.9162C143.498 22.1229 143.766 21.4429 144.301 20.8762C144.836 20.2869 145.527 19.9922 146.374 19.9922C147.222 19.9922 147.913 20.2869 148.448 20.8762C148.983 21.4429 149.25 22.1229 149.25 22.9162C149.25 23.7095 148.983 24.4009 148.448 24.9902C147.913 25.5569 147.222 25.8402 146.374 25.8402C145.527 25.8402 144.836 25.5569 144.301 24.9902C143.766 24.4009 143.498 23.7095 143.498 22.9162ZM152.655 36.9922C152.655 35.0654 153.023 33.4109 153.759 32.0282C154.494 30.6229 155.509 29.5462 156.802 28.7982C158.117 28.0275 159.611 27.6422 161.283 27.6422C162.977 27.6422 164.471 28.0275 165.764 28.7982C167.057 29.5462 168.072 30.6229 168.808 32.0282C169.543 33.4109 169.911 35.0654 169.911 36.9922C169.911 38.8962 169.543 40.551 168.808 41.9562C168.072 43.339 167.057 44.4154 165.764 45.1862C164.471 45.9342 162.977 46.3082 161.283 46.3082C159.611 46.3082 158.117 45.9342 156.802 45.1862C155.509 44.4154 154.494 43.339 153.759 41.9562C153.023 40.551 152.655 38.8962 152.655 36.9922ZM157.738 36.9922C157.738 38.1934 157.883 39.1794 158.173 39.9502C158.463 40.721 158.875 41.2874 159.41 41.6502C159.945 42.013 160.569 42.1942 161.283 42.1942C161.996 42.1942 162.621 42.013 163.156 41.6502C163.691 41.2874 164.103 40.721 164.393 39.9502C164.683 39.1794 164.828 38.1934 164.828 36.9922C164.828 35.791 164.683 34.805 164.393 34.0342C164.103 33.2635 163.691 32.6969 163.156 32.3342C162.621 31.9489 161.996 31.7562 161.283 31.7562C160.569 31.7562 159.945 31.9489 159.41 32.3342C158.875 32.6969 158.463 33.2635 158.173 34.0342C157.883 34.805 157.738 35.791 157.738 36.9922ZM173.182 28.0502H178.064L178.699 31.6202V45.9002H173.683V32.3002C173.683 31.8242 173.661 31.4049 173.616 31.0422C173.594 30.6569 173.538 30.2149 173.449 29.7162L173.182 28.0502ZM178.198 34.7482V31.5522C178.889 30.3282 179.748 29.3762 180.773 28.6962C181.799 27.9935 182.913 27.6422 184.117 27.6422V32.6742C182.802 32.6742 181.698 32.8215 180.806 33.1162C179.937 33.4109 179.067 33.9549 178.198 34.7482Z" fill="#E6E6E6"/>
<circle cx="195" cy="36" r="3" fill="#D9D9D9"/>
</g>
<defs>
<clipPath id="clip0_246_1328">
<rect width="205" height="68" rx="6" fill="white"/>
</clipPath>
</defs>
</svg>
