<svg width="249" height="213" viewBox="0 0 249 213" fill="none" xmlns="http://www.w3.org/2000/svg">
<g clip-path="url(#clip0_114_459)">
<path d="M18.6387 195.468C20.069 195.971 21.6047 196.097 23.0979 195.834C24.591 195.571 25.9912 194.928 27.1636 193.966C30.1495 191.46 31.0858 187.333 31.8473 183.51L34.1003 172.202L29.3835 175.449C25.9912 177.785 22.5227 180.196 20.1741 183.579C17.8255 186.962 16.8009 191.58 18.6874 195.241" fill="#E6E6E6"/>
<path d="M19.3673 209.946C18.7736 205.621 18.1628 201.239 18.5802 196.868C18.9501 192.985 20.1347 189.194 22.5462 186.084C23.8263 184.436 25.3838 183.025 27.1489 181.913C27.6091 181.622 28.0327 182.351 27.5745 182.641C24.5204 184.571 22.158 187.421 20.8281 190.78C19.3594 194.516 19.1236 198.588 19.3765 202.556C19.5295 204.956 19.8544 207.34 20.1808 209.721C20.2065 209.829 20.1905 209.942 20.1358 210.039C20.0811 210.135 19.9919 210.207 19.8862 210.24C19.7784 210.269 19.6634 210.254 19.5664 210.199C19.4693 210.144 19.3978 210.053 19.3676 209.945L19.3673 209.946Z" fill="#F2F2F2"/>
<path d="M23.6404 203.005C24.2537 203.938 25.0969 204.697 26.0887 205.209C27.0805 205.721 28.1874 205.969 29.3028 205.929C32.1701 205.793 34.5594 203.793 36.7101 201.893L43.0728 196.275L38.8619 196.074C35.8336 195.929 32.7272 195.792 29.8428 196.727C26.9585 197.662 24.2984 199.909 23.7711 202.894" fill="#E6E6E6"/>
<path d="M17.6888 212.432C20.547 207.375 23.862 201.754 29.7859 199.958C31.4328 199.46 33.1598 199.282 34.8737 199.433C35.414 199.479 35.2791 200.312 34.7399 200.265C31.8669 200.027 28.9994 200.786 26.6201 202.414C24.3306 203.972 22.5478 206.139 21.0392 208.436C20.1149 209.844 19.2871 211.311 18.4593 212.776C18.1947 213.244 17.4212 212.906 17.6888 212.432Z" fill="#F2F2F2"/>
<path d="M246.389 150.001H88.812C88.3264 150 87.8609 149.807 87.5176 149.463C87.1743 149.12 86.9811 148.655 86.9805 148.169V1.83151C86.9811 1.34596 87.1743 0.880472 87.5176 0.537136C87.861 0.193801 88.3264 0.000634736 88.812 0H246.389C246.875 0.000634736 247.34 0.193801 247.684 0.537136C248.027 0.880472 248.22 1.34596 248.221 1.83151V148.169C248.22 148.654 248.027 149.12 247.684 149.463C247.34 149.807 246.875 150 246.389 150.001Z" fill="white"/>
<path d="M246.389 150.001H88.812C88.3264 150 87.8609 149.807 87.5176 149.463C87.1743 149.12 86.9811 148.655 86.9805 148.169V1.83151C86.9811 1.34596 87.1743 0.880472 87.5176 0.537136C87.861 0.193801 88.3264 0.000634736 88.812 0H246.389C246.875 0.000634736 247.34 0.193801 247.684 0.537136C248.027 0.880472 248.22 1.34596 248.221 1.83151V148.169C248.22 148.654 248.027 149.12 247.684 149.463C247.34 149.807 246.875 150 246.389 150.001ZM88.812 0.731159C88.521 0.731791 88.2421 0.847672 88.0363 1.05344C87.8305 1.25921 87.7147 1.53811 87.714 1.8291V148.169C87.7147 148.46 87.8305 148.739 88.0363 148.944C88.2421 149.15 88.521 149.266 88.812 149.267H246.389C246.68 149.266 246.959 149.15 247.165 148.944C247.371 148.739 247.487 148.46 247.487 148.169V1.83151C247.487 1.54051 247.371 1.26161 247.165 1.05584C246.959 0.850076 246.68 0.734195 246.389 0.733563L88.812 0.731159Z" fill="#CACACA"/>
<path d="M163.27 38.0264C162.94 38.0269 162.625 38.1582 162.392 38.3913C162.159 38.6244 162.029 38.9404 162.029 39.2698C162.029 39.5992 162.159 39.9151 162.392 40.1483C162.625 40.3814 162.94 40.5126 163.27 40.5132H231.499C231.828 40.5126 232.144 40.3814 232.376 40.1483C232.609 39.9151 232.74 39.5992 232.74 39.2698C232.74 38.9404 232.609 38.6244 232.376 38.3913C232.144 38.1582 231.828 38.0269 231.499 38.0264H163.27Z" fill="#E4E4E4"/>
<path d="M163.27 45.4875C162.941 45.4883 162.625 45.6197 162.393 45.8528C162.16 46.0859 162.03 46.4017 162.03 46.731C162.03 47.0602 162.16 47.376 162.393 47.6091C162.625 47.8422 162.941 47.9736 163.27 47.9744H198.102C198.432 47.9736 198.747 47.8422 198.98 47.6091C199.212 47.376 199.343 47.0602 199.343 46.731C199.343 46.4017 199.212 46.0859 198.98 45.8528C198.747 45.6197 198.432 45.4883 198.102 45.4875H163.27Z" fill="#E4E4E4"/>
<path d="M103.636 85.6112C103.307 85.612 102.991 85.7434 102.759 85.9765C102.526 86.2096 102.396 86.5254 102.396 86.8546C102.396 87.1839 102.526 87.4997 102.759 87.7328C102.991 87.9659 103.307 88.0972 103.636 88.098H231.565C231.895 88.0972 232.21 87.9659 232.443 87.7328C232.675 87.4997 232.806 87.1839 232.806 86.8546C232.806 86.5254 232.675 86.2096 232.443 85.9765C232.21 85.7434 231.895 85.612 231.565 85.6112H103.636Z" fill="#E4E4E4"/>
<path d="M103.636 93.0724C103.307 93.0732 102.991 93.2045 102.759 93.4376C102.526 93.6707 102.396 93.9865 102.396 94.3158C102.396 94.6451 102.526 94.9609 102.759 95.194C102.991 95.4271 103.307 95.5584 103.636 95.5592H198.169C198.498 95.5584 198.814 95.4271 199.046 95.194C199.279 94.9609 199.409 94.6451 199.409 94.3158C199.409 93.9865 199.279 93.6707 199.046 93.4376C198.814 93.2045 198.498 93.0732 198.169 93.0724H103.636Z" fill="#E4E4E4"/>
<path d="M103.636 100.365C103.307 100.366 102.991 100.497 102.759 100.73C102.526 100.963 102.396 101.279 102.396 101.608C102.396 101.937 102.526 102.253 102.759 102.486C102.991 102.719 103.307 102.851 103.636 102.852H231.565C231.895 102.851 232.21 102.719 232.443 102.486C232.675 102.253 232.806 101.937 232.806 101.608C232.806 101.279 232.675 100.963 232.443 100.73C232.21 100.497 231.895 100.366 231.565 100.365H103.636Z" fill="#E4E4E4"/>
<path d="M103.636 107.826C103.307 107.827 102.991 107.958 102.759 108.191C102.526 108.424 102.396 108.74 102.396 109.069C102.396 109.399 102.526 109.714 102.759 109.948C102.991 110.181 103.307 110.312 103.636 110.313H198.169C198.498 110.312 198.814 110.181 199.046 109.948C199.279 109.714 199.409 109.399 199.409 109.069C199.409 108.74 199.279 108.424 199.046 108.191C198.814 107.958 198.498 107.827 198.169 107.826H103.636Z" fill="#E4E4E4"/>
<path d="M103.636 115.313C103.307 115.313 102.991 115.445 102.759 115.678C102.526 115.911 102.396 116.227 102.396 116.556C102.396 116.885 102.526 117.201 102.759 117.434C102.991 117.667 103.307 117.799 103.636 117.799H231.565C231.895 117.799 232.21 117.667 232.443 117.434C232.675 117.201 232.806 116.885 232.806 116.556C232.806 116.227 232.675 115.911 232.443 115.678C232.21 115.445 231.895 115.313 231.565 115.313H103.636Z" fill="#E4E4E4"/>
<path d="M103.636 122.774C103.307 122.775 102.991 122.906 102.759 123.139C102.526 123.372 102.396 123.688 102.396 124.017C102.396 124.346 102.526 124.662 102.759 124.895C102.991 125.128 103.307 125.26 103.636 125.261H198.169C198.498 125.26 198.814 125.128 199.046 124.895C199.279 124.662 199.409 124.346 199.409 124.017C199.409 123.688 199.279 123.372 199.046 123.139C198.814 122.906 198.498 122.775 198.169 122.774H103.636Z" fill="#E4E4E4"/>
<path d="M123.899 60.8647C120.365 60.8647 116.911 59.817 113.974 57.8541C111.036 55.8911 108.746 53.1011 107.394 49.8368C106.042 46.5725 105.688 42.9805 106.377 39.5151C107.066 36.0498 108.768 32.8666 111.266 30.3682C113.765 27.8698 116.948 26.1683 120.413 25.479C123.879 24.7897 127.471 25.1435 130.735 26.4956C133.999 27.8477 136.789 30.1374 138.752 33.0752C140.715 36.013 141.763 39.467 141.763 43.0002C141.758 47.7365 139.874 52.2773 136.525 55.6263C133.176 58.9754 128.635 60.8593 123.899 60.8647Z" fill="#42FF60"/>
<path d="M69.6706 128.412C69.6397 127.759 69.4662 127.122 69.1623 126.544C68.8585 125.967 68.4316 125.462 67.9119 125.068C67.3921 124.673 66.7921 124.396 66.154 124.258C65.516 124.12 64.8555 124.124 64.219 124.269L58.3141 115.947L52.3818 118.302L60.8858 129.937C61.2001 130.99 61.8899 131.891 62.8243 132.47C63.7587 133.049 64.8729 133.264 65.9557 133.076C67.0386 132.888 68.0148 132.309 68.6995 131.45C69.3842 130.59 69.7297 129.509 69.6706 128.412Z" fill="#A0616A"/>
<path d="M58.1617 127.795L40.2944 104.616L46.9892 83.5751C47.4797 78.2853 50.7899 76.8082 50.9308 76.7478L51.1456 76.6556L56.9713 92.1911L52.6939 103.598L63.1926 121.255L58.1617 127.795Z" fill="#3F3D56"/>
<path d="M120.213 56.341C119.565 56.4222 118.943 56.6444 118.39 56.992C117.838 57.3397 117.368 57.8042 117.015 58.3529C116.661 58.9017 116.432 59.5213 116.344 60.1681C116.256 60.8149 116.31 61.4731 116.504 62.0965L108.664 68.6271L111.47 74.3595L122.413 64.9815C123.438 64.5867 124.284 63.8293 124.788 62.853C125.293 61.8766 125.422 60.7491 125.151 59.684C124.879 58.6189 124.227 57.6904 123.317 57.0742C122.407 56.4581 121.302 56.1972 120.213 56.341Z" fill="#A0616A"/>
<path d="M120.487 67.8626L98.7586 87.4686L77.2636 82.4206C71.9516 82.3405 70.223 79.1545 70.152 79.0187L70.0435 78.8116L85.082 71.8022L96.785 75.1849L113.578 63.3524L120.487 67.8626Z" fill="#3F3D56"/>
<path d="M82.8502 207.242L88.6883 207.241L91.4653 184.723L82.8491 184.724L82.8502 207.242Z" fill="#A0616A"/>
<path d="M99.9475 212.662L81.5996 212.662L81.5992 205.573L94.7996 205.573C96.1648 205.573 97.4742 206.115 98.4396 207.08C99.405 208.046 99.9474 209.355 99.9474 210.72L99.9475 212.662Z" fill="#2F2E41"/>
<path d="M59.5168 207.242L65.3549 207.241L68.1323 184.723L59.5161 184.724L59.5168 207.242Z" fill="#A0616A"/>
<path d="M76.614 212.662L58.2661 212.662L58.2657 205.573L71.4661 205.573C72.1421 205.573 72.8115 205.706 73.436 205.965C74.0606 206.223 74.6281 206.602 75.1061 207.08C75.5841 207.558 75.9633 208.126 76.222 208.75C76.4807 209.375 76.6139 210.044 76.6139 210.72L76.614 212.662Z" fill="#2F2E41"/>
<path d="M57.4399 125.048L57.9161 158.381L58.3926 202.191L68.8685 201.239L74.1068 140.763L80.7735 201.239H91.5888L92.6782 140.286L88.8687 126.953L57.4399 125.048Z" fill="#2F2E41"/>
<path d="M77.9448 129.524C66.5461 129.525 56.0537 124.366 55.912 124.295L55.7944 124.237L54.8378 101.28C54.5604 100.469 49.0983 84.4617 48.1733 79.3738C47.236 74.2191 60.82 69.6952 62.4696 69.1661L62.8439 65.0193L78.0665 63.379L79.9959 68.685L85.4571 70.7328C86.0762 70.9651 86.5886 71.4165 86.8972 72.0014C87.2058 72.5863 87.2891 73.264 87.1313 73.9062L84.096 86.2495L91.5091 127.087L89.9132 127.156C86.0877 128.884 81.9589 129.524 77.9448 129.524Z" fill="#3F3D56"/>
<path d="M76.3081 59.4096C81.6196 56.5061 83.5716 49.8466 80.6681 44.5352C77.7646 39.2238 71.1051 37.2718 65.7937 40.1753C60.4823 43.0787 58.5303 49.7382 61.4338 55.0496C64.3372 60.3611 70.9967 62.3131 76.3081 59.4096Z" fill="#A0616A"/>
<path d="M62.1741 60.4029C64.2629 62.6279 68.142 61.4334 68.4142 58.3938C68.4355 58.1578 68.434 57.9203 68.4095 57.6846C68.269 56.3382 67.4912 55.1157 67.6775 53.6941C67.7196 53.3403 67.8515 53.0031 68.0604 52.7145C69.7249 50.4856 73.6322 53.7114 75.2031 51.6936C76.1663 50.4564 75.0341 48.5084 75.7732 47.1256C76.7488 45.3005 79.6385 46.2008 81.4506 45.2013C83.4668 44.0892 83.3462 40.9958 82.019 39.1142C80.4004 36.8195 77.5625 35.5951 74.76 35.4187C71.9575 35.2422 69.1743 35.9998 66.5579 37.0194C63.5851 38.1779 60.6372 39.779 58.8078 42.393C56.5831 45.5718 56.369 49.8455 57.4816 53.5626C58.1584 55.8237 60.4684 58.5859 62.1741 60.4029Z" fill="#2F2E41"/>
<path d="M139.27 212.944H0.364337C0.267644 212.944 0.174906 212.906 0.106533 212.837C0.0381611 212.769 -0.000244141 212.676 -0.000244141 212.579C-0.000244141 212.483 0.0381611 212.39 0.106533 212.322C0.174906 212.253 0.267644 212.215 0.364337 212.215H139.27C139.366 212.215 139.459 212.253 139.528 212.322C139.596 212.39 139.634 212.483 139.634 212.579C139.634 212.676 139.596 212.769 139.528 212.837C139.459 212.906 139.366 212.944 139.27 212.944Z" fill="#CACACA"/>
<path d="M122.867 49.7477C122.545 49.748 122.235 49.6261 121.999 49.4066L116.108 43.9352C115.861 43.7048 115.715 43.3855 115.703 43.0475C115.69 42.7096 115.813 42.3805 116.043 42.1327C116.273 41.8849 116.592 41.7386 116.93 41.726C117.268 41.7133 117.597 41.8354 117.845 42.0653L122.835 46.6998L132.706 36.8283C132.825 36.7091 132.965 36.6144 133.12 36.5497C133.275 36.485 133.442 36.4515 133.61 36.4512C133.778 36.4509 133.944 36.4837 134.099 36.5479C134.254 36.612 134.396 36.7062 134.514 36.825C134.633 36.9438 134.727 37.0849 134.791 37.2402C134.855 37.3954 134.888 37.5618 134.888 37.7298C134.888 37.8978 134.854 38.0641 134.789 38.2191C134.725 38.3741 134.63 38.5148 134.511 38.6331L123.77 49.374C123.651 49.4926 123.511 49.5867 123.356 49.6508C123.201 49.7149 123.035 49.7478 122.867 49.7477Z" fill="white"/>
</g>
<defs>
<clipPath id="clip0_114_459">
<rect width="248.221" height="213" fill="white"/>
</clipPath>
</defs>
</svg>
