<svg width="140" height="23" viewBox="0 0 140 23" fill="none" xmlns="http://www.w3.org/2000/svg">
<path d="M0 19.706L1.61697 17.6705C2.46394 18.4767 3.41679 19.1063 4.47553 19.5585C5.5535 19.9913 6.73735 20.2075 8.02708 20.2075C8.9318 20.2075 9.68254 20.0798 10.2793 19.824C10.8952 19.5682 11.3572 19.234 11.6653 18.821C11.9733 18.3882 12.1272 17.9263 12.1272 17.4345C12.1272 16.9035 11.9829 16.4218 11.6941 15.989C11.4247 15.5368 10.9339 15.104 10.2215 14.691C9.52855 14.278 8.54682 13.8553 7.27635 13.4225C5.64012 12.8523 4.35042 12.272 3.40718 11.682C2.4832 11.0723 1.8287 10.4135 1.44372 9.7055C1.05874 8.9975 0.866232 8.22068 0.866232 7.375C0.866232 6.35232 1.14536 5.428 1.70359 4.602C2.28108 3.75632 3.07994 3.08768 4.10016 2.596C5.12038 2.08468 6.29462 1.829 7.62284 1.829C8.75856 1.829 9.92318 2.05518 11.1166 2.5075C12.31 2.95982 13.3688 3.58918 14.2928 4.3955L12.7047 6.5195C11.9924 5.8115 11.1839 5.26082 10.2793 4.8675C9.39379 4.47418 8.44094 4.2775 7.42072 4.2775C6.13099 4.2775 5.1589 4.56268 4.50441 5.133C3.86917 5.68368 3.55155 6.33268 3.55155 7.08C3.55155 7.51268 3.67666 7.92568 3.92692 8.319C4.1964 8.71232 4.65839 9.09582 5.31289 9.4695C5.96738 9.8235 6.89137 10.1972 8.08483 10.5905C9.79803 11.1412 11.155 11.7607 12.1561 12.449C13.1572 13.1178 13.8791 13.8452 14.3217 14.632C14.7643 15.399 14.9858 16.2153 14.9858 17.0805C14.9858 18.1227 14.7066 19.0768 14.1485 19.942C13.5903 20.8072 12.772 21.4958 11.6941 22.007C10.6353 22.5182 9.33604 22.774 7.79609 22.774C6.83362 22.774 5.8615 22.6463 4.87977 22.3905C3.9173 22.1153 3.01255 21.7512 2.16558 21.299C1.31861 20.827 0.596747 20.296 0 19.706ZM18.1626 14.8975C18.1626 13.1865 18.4513 11.7508 19.0288 10.5905C19.6063 9.4105 20.3957 8.51568 21.3965 7.906C22.3976 7.29632 23.543 6.9915 24.8326 6.9915C26.1224 6.9915 27.2678 7.29632 28.2686 7.906C29.2697 8.51568 30.0588 9.4105 30.6363 10.5905C31.2138 11.7508 31.5025 13.1865 31.5025 14.8975C31.5025 16.5887 31.2138 18.0245 30.6363 19.2045C30.0588 20.3845 29.2697 21.2792 28.2686 21.889C27.2678 22.479 26.1224 22.774 24.8326 22.774C23.543 22.774 22.3976 22.479 21.3965 21.889C20.3957 21.2792 19.6063 20.3845 19.0288 19.2045C18.4513 18.0245 18.1626 16.5887 18.1626 14.8975ZM20.8768 14.8975C20.8768 16.0775 21.031 17.0805 21.3388 17.9065C21.6662 18.7127 22.1184 19.3322 22.6959 19.765C23.2927 20.178 24.005 20.3845 24.8326 20.3845C25.6604 20.3845 26.3629 20.178 26.9404 19.765C27.5372 19.3322 27.9897 18.7127 28.2975 17.9065C28.6249 17.0805 28.7883 16.0775 28.7883 14.8975C28.7883 13.7175 28.6249 12.7242 28.2975 11.918C27.9897 11.092 27.5372 10.4627 26.9404 10.03C26.3629 9.59732 25.6604 9.381 24.8326 9.381C24.005 9.381 23.2927 9.59732 22.6959 10.03C22.1184 10.4627 21.6662 11.092 21.3388 11.918C21.031 12.7242 20.8768 13.7175 20.8768 14.8975ZM35.5528 16.6085V7.2865H38.2092V16.2545C38.2092 17.6313 38.4979 18.6343 39.0754 19.2635C39.6723 19.8927 40.4325 20.2075 41.3565 20.2075C42.1266 20.2075 42.8675 20.001 43.5798 19.588C44.2922 19.1552 44.9658 18.5753 45.601 17.8475V19.9715C44.9658 20.7975 44.2246 21.476 43.3777 22.007C42.5308 22.5182 41.6259 22.774 40.6635 22.774C39.6818 22.774 38.806 22.5477 38.036 22.0955C37.2659 21.6433 36.6595 20.9648 36.2169 20.06C35.7742 19.1358 35.5528 17.9853 35.5528 16.6085ZM45.7743 22.479L45.1679 19.529V7.2865H47.8244V18.88C47.8244 19.293 47.8339 19.6765 47.8532 20.0305C47.8916 20.3647 47.9494 20.7482 48.0265 21.181L48.2575 22.479H45.7743ZM50.8449 20.296L53.6169 16.992C53.944 17.464 54.3771 17.8572 54.9162 18.172C55.4553 18.467 56.0518 18.6145 56.7064 18.6145C57.7653 18.6145 58.5833 18.2803 59.1608 17.6115C59.7576 16.9427 60.0559 15.9595 60.0559 14.6615V2.124H64.6758V15.2515C64.6758 16.8643 64.3197 18.2407 63.6074 19.3815C62.9144 20.5025 61.9711 21.358 60.7777 21.948C59.6034 22.538 58.2945 22.833 56.8508 22.833C55.6187 22.833 54.5024 22.6067 53.5014 22.1545C52.5003 21.7023 51.615 21.0828 50.8449 20.296ZM55.3204 5.664V2.124H63.1165V5.664H55.3204ZM68.8721 16.6085V6.9915H73.2032V15.93C73.2032 16.8938 73.4247 17.6115 73.8673 18.0835C74.3293 18.5357 74.9357 18.762 75.6864 18.762C76.2639 18.762 76.8319 18.6242 77.39 18.349C77.9675 18.0738 78.4777 17.6608 78.9204 17.11V20.0305C78.3238 20.8565 77.6308 21.535 76.8414 22.066C76.0523 22.5772 75.1378 22.833 74.0983 22.833C73.213 22.833 72.3659 22.6067 71.5574 22.1545C70.7682 21.6825 70.1235 20.9842 69.6228 20.06C69.1224 19.1358 68.8721 17.9853 68.8721 16.6085ZM79.0359 22.479L78.4872 19.529V6.9915H82.8184V18.7915C82.8184 19.2045 82.8282 19.5783 82.8473 19.9125C82.886 20.2273 82.9437 20.6007 83.0205 21.0335L83.2515 22.479H79.0359ZM86.7144 6.9915H90.9301L91.4787 9.9415V22.479H87.1475V10.679C87.1475 10.266 87.1285 9.90218 87.0898 9.5875C87.0707 9.25318 87.0225 8.86968 86.9454 8.437L86.7144 6.9915ZM91.0456 12.3605V9.44C91.6424 8.614 92.3449 7.94532 93.1534 7.434C93.9812 6.903 94.9148 6.6375 95.9542 6.6375C96.8592 6.6375 97.7156 6.8735 98.5241 7.3455C99.3325 7.79782 99.9871 8.48618 100.488 9.4105C101.007 10.3152 101.267 11.4657 101.267 12.862V22.479H96.936V13.5405C96.936 12.8915 96.8205 12.3605 96.5895 11.9475C96.3778 11.5148 96.0795 11.2002 95.6944 11.0035C95.3095 10.8068 94.8668 10.7085 94.3661 10.7085C93.7887 10.7085 93.2016 10.8462 92.6048 11.1215C92.0083 11.3968 91.4885 11.8098 91.0456 12.3605ZM105.448 22.479V6.9915H109.779V22.479H105.448ZM105.13 2.537C105.13 1.84868 105.361 1.25868 105.823 0.767001C106.285 0.255677 106.882 0 107.613 0C108.345 0 108.942 0.255677 109.404 0.767001C109.866 1.25868 110.097 1.84868 110.097 2.537C110.097 3.22532 109.866 3.82518 109.404 4.3365C108.942 4.82818 108.345 5.074 107.613 5.074C106.882 5.074 106.285 4.82818 105.823 4.3365C105.361 3.82518 105.13 3.22532 105.13 2.537ZM113.036 14.75C113.036 13.0782 113.354 11.6427 113.989 10.443C114.624 9.22368 115.5 8.2895 116.617 7.6405C117.752 6.97182 119.042 6.6375 120.486 6.6375C121.949 6.6375 123.239 6.97182 124.355 7.6405C125.471 8.2895 126.347 9.22368 126.983 10.443C127.618 11.6427 127.936 13.0782 127.936 14.75C127.936 16.402 127.618 17.8378 126.983 19.057C126.347 20.2568 125.471 21.1907 124.355 21.8595C123.239 22.5085 121.949 22.833 120.486 22.833C119.042 22.833 117.752 22.5085 116.617 21.8595C115.5 21.1907 114.624 20.2568 113.989 19.057C113.354 17.8378 113.036 16.402 113.036 14.75ZM117.425 14.75C117.425 15.7922 117.55 16.6477 117.801 17.3165C118.051 17.9853 118.407 18.4767 118.869 18.7915C119.331 19.1063 119.87 19.2635 120.486 19.2635C121.102 19.2635 121.641 19.1063 122.103 18.7915C122.565 18.4767 122.921 17.9853 123.171 17.3165C123.421 16.6477 123.547 15.7922 123.547 14.75C123.547 13.7078 123.421 12.8523 123.171 12.1835C122.921 11.5148 122.565 11.0232 122.103 10.7085C121.641 10.3742 121.102 10.207 120.486 10.207C119.87 10.207 119.331 10.3742 118.869 10.7085C118.407 11.0232 118.051 11.5148 117.801 12.1835C117.55 12.8523 117.425 13.7078 117.425 14.75ZM130.759 6.9915H134.975L135.523 10.089V22.479H131.192V10.679C131.192 10.266 131.173 9.90218 131.135 9.5875C131.115 9.25318 131.067 8.86968 130.99 8.437L130.759 6.9915ZM135.09 12.803V10.03C135.687 8.968 136.428 8.142 137.314 7.552C138.199 6.94232 139.162 6.6375 140.201 6.6375V11.0035C139.065 11.0035 138.113 11.1313 137.343 11.387C136.592 11.6427 135.841 12.1147 135.09 12.803Z" fill="#1165BA"/>
</svg>
