<svg width="32" height="32" viewBox="0 0 32 32" fill="none" xmlns="http://www.w3.org/2000/svg">
<circle cx="16" cy="16" r="16" fill="#046AD0"/>
<path d="M15.255 23.1661H16.6924V21.8908C17.5089 21.7801 18.2481 21.4733 18.91 20.9705C19.5719 20.4679 19.9029 19.7058 19.9029 18.6842C19.9029 17.9474 19.6856 17.2955 19.2511 16.7287C18.8165 16.162 17.9676 15.6506 16.7045 15.1945C15.5978 14.8166 14.863 14.4893 14.5 14.2126C14.137 13.936 13.9555 13.5493 13.9555 13.0526C13.9555 12.556 14.1414 12.1525 14.5132 11.8421C14.8849 11.5318 15.3981 11.3766 16.0526 11.3766C16.6005 11.3766 17.0425 11.5058 17.3784 11.7642C17.7146 12.0226 17.9731 12.3468 18.1539 12.7368L19.4534 12.2145C19.2334 11.6545 18.8748 11.1751 18.3776 10.7763C17.8803 10.3775 17.3361 10.1552 16.745 10.1092V8.83395H15.3076V10.1092C14.4103 10.282 13.7211 10.6461 13.24 11.2013C12.7588 11.7568 12.5182 12.3739 12.5182 13.0526C12.5182 13.8435 12.7577 14.4798 13.2368 14.9616C13.716 15.4433 14.4967 15.8785 15.5789 16.2671C16.6977 16.6775 17.4619 17.0456 17.8716 17.3716C18.2811 17.6974 18.4858 18.1349 18.4858 18.6842C18.4858 19.3442 18.2476 19.8236 17.7713 20.1224C17.2948 20.4213 16.757 20.5708 16.1579 20.5708C15.5654 20.5708 15.0354 20.3927 14.5679 20.0366C14.1002 19.6803 13.7408 19.1593 13.4897 18.4737L12.1579 19.0163C12.4305 19.7975 12.8222 20.4182 13.3329 20.8784C13.8438 21.3386 14.4845 21.6585 15.255 21.8382V23.1661ZM16 26C14.6181 26 13.3189 25.7372 12.1024 25.2116C10.8857 24.686 9.82728 23.9731 8.92711 23.0729C8.02693 22.1727 7.31404 21.1143 6.78842 19.8976C6.26281 18.6811 6 17.3819 6 16C6 14.6181 6.26281 13.3189 6.78842 12.1024C7.31404 10.8857 8.02693 9.82728 8.92711 8.9271C9.82728 8.02693 10.8857 7.31404 12.1024 6.78842C13.3189 6.26281 14.6181 6 16 6C17.3819 6 18.6811 6.26281 19.8976 6.78842C21.1143 7.31404 22.1727 8.02693 23.0729 8.9271C23.9731 9.82728 24.686 10.8857 25.2116 12.1024C25.7372 13.3189 26 14.6181 26 16C26 17.3819 25.7372 18.6811 25.2116 19.8976C24.686 21.1143 23.9731 22.1727 23.0729 23.0729C22.1727 23.9731 21.1143 24.686 19.8976 25.2116C18.6811 25.7372 17.3819 26 16 26ZM16 24.4211C18.3509 24.4211 20.3421 23.6053 21.9737 21.9737C23.6053 20.3421 24.4211 18.3509 24.4211 16C24.4211 13.6491 23.6053 11.6579 21.9737 10.0263C20.3421 8.39474 18.3509 7.57895 16 7.57895C13.6491 7.57895 11.6579 8.39474 10.0263 10.0263C8.39474 11.6579 7.57895 13.6491 7.57895 16C7.57895 18.3509 8.39474 20.3421 10.0263 21.9737C11.6579 23.6053 13.6491 24.4211 16 24.4211Z" fill="white"/>
</svg>
