<svg width="32" height="32" viewBox="0 0 32 32" fill="none" xmlns="http://www.w3.org/2000/svg">
<circle cx="16" cy="16" r="16" fill="#046AD0"/>
<path d="M16.7692 7V9.88091H15.2308V7H16.7692ZM26 16.0484V17.5564H23.061V16.0484H26ZM8.93897 16.0484V17.5564H6V16.0484H8.93897ZM9.82641 9.1887L11.8815 11.2032L10.8008 12.2626L8.74564 10.2481L9.82641 9.1887ZM22.1736 9.1887L23.2544 10.2481L21.1992 12.2626L20.1185 11.2032L22.1736 9.1887ZM16 12.2782C17.2807 12.2782 18.3701 12.7184 19.2682 13.5988C20.1663 14.4792 20.6154 15.547 20.6154 16.8024C20.6154 17.568 20.4316 18.2776 20.0641 18.931C19.6966 19.5845 19.1966 20.1253 18.5641 20.5532V25H13.4359V20.5532C12.8034 20.1253 12.3034 19.5845 11.9359 18.931C11.5684 18.2776 11.3846 17.568 11.3846 16.8024C11.3846 15.547 11.8337 14.4792 12.7318 13.5988C13.6299 12.7184 14.7193 12.2782 16 12.2782ZM17.0256 21.2067C16.8547 21.2466 16.6854 21.2766 16.5177 21.2967C16.35 21.3166 16.1774 21.3266 16 21.3266C15.8226 21.3266 15.65 21.3166 15.4823 21.2967C15.3146 21.2766 15.1453 21.2466 14.9744 21.2067V23.4919H17.0256V21.2067ZM16 13.7863C15.1453 13.7863 14.4188 14.0795 13.8205 14.666C13.2222 15.2525 12.9231 15.9646 12.9231 16.8024C12.9231 17.6402 13.2222 18.3524 13.8205 18.9388C14.4188 19.5253 15.1453 19.8185 16 19.8185C16.8547 19.8185 17.5812 19.5253 18.1795 18.9388C18.7778 18.3524 19.0769 17.6402 19.0769 16.8024C19.0769 15.9646 18.7778 15.2525 18.1795 14.666C17.5812 14.0795 16.8547 13.7863 16 13.7863Z" fill="white"/>
</svg>
