<svg width="32" height="32" viewBox="0 0 32 32" fill="none" xmlns="http://www.w3.org/2000/svg">
<circle cx="16" cy="16" r="16" fill="#046AD0"/>
<path d="M11.0175 26V21.9693C10.062 21.1026 9.32017 20.1093 8.7921 18.9895C8.26403 17.8695 8 16.704 8 15.493C8 13.1338 8.83124 11.1286 10.4937 9.47725C12.156 7.82575 14.1747 7 16.5496 7C18.5033 7 20.2503 7.5805 21.7906 8.7415C23.331 9.90233 24.3314 11.4084 24.7918 13.2598L25.9668 17.8743C26.0423 18.1594 25.989 18.4183 25.8071 18.651C25.6254 18.8837 25.383 19 25.0799 19H23.0876V22.1923C23.0876 22.6894 22.9096 23.115 22.5535 23.469C22.1974 23.823 21.7694 24 21.2693 24H19.0642V26H17.5555V22.5H21.2693C21.3597 22.5 21.4338 22.4712 21.4918 22.4135C21.5498 22.3558 21.5788 22.2821 21.5788 22.1923V17.5H24.2946L23.3391 13.625C22.9535 12.102 22.1289 10.8671 20.8652 9.92025C19.6014 8.97342 18.1628 8.5 16.5496 8.5C14.605 8.5 12.9454 9.17592 11.5707 10.5277C10.1961 11.8796 9.50876 13.5235 9.50876 15.4595C9.50876 16.458 9.71412 17.4065 10.1248 18.305C10.5356 19.2035 11.1181 20.0022 11.8725 20.701L12.5263 21.3V26H11.0175ZM15.7663 19.2885H17.3329L17.4451 18.202C17.6437 18.152 17.8298 18.0793 18.0033 17.9838C18.1767 17.8881 18.3246 17.7697 18.4472 17.6287L19.4299 18.0808L20.2132 16.7558L19.3429 16.1115C19.4149 15.9077 19.451 15.7038 19.451 15.5C19.451 15.2962 19.4149 15.0923 19.3429 14.8885L20.2132 14.2443L19.4299 12.9193L18.4472 13.3712C18.3246 13.2302 18.1767 13.1119 18.0033 13.0163C17.8298 12.9208 17.6437 12.848 17.4451 12.798L17.3329 11.7115H15.7663L15.6542 12.798C15.4555 12.848 15.2695 12.9208 15.096 13.0163C14.9226 13.1119 14.7747 13.2302 14.6521 13.3712L13.6694 12.9193L12.8861 14.2443L13.7564 14.8885C13.6843 15.0923 13.6483 15.2962 13.6483 15.5C13.6483 15.7038 13.6843 15.9077 13.7564 16.1115L12.8861 16.7558L13.6694 18.0808L14.6521 17.6287C14.7747 17.7697 14.9226 17.8881 15.096 17.9838C15.2695 18.0793 15.4555 18.152 15.6542 18.202L15.7663 19.2885ZM16.5491 17.1827C16.0787 17.1827 15.6792 17.0191 15.3504 16.6918C15.0215 16.3644 14.8571 15.967 14.8571 15.4995C14.8571 15.0318 15.0217 14.6346 15.3509 14.3078C15.6802 13.9808 16.0799 13.8173 16.5501 13.8173C17.0205 13.8173 17.4201 13.9809 17.7489 14.3083C18.0778 14.6356 18.2422 15.033 18.2422 15.5005C18.2422 15.9682 18.0776 16.3654 17.7484 16.6923C17.4191 17.0192 17.0194 17.1827 16.5491 17.1827Z" fill="white"/>
</svg>
