<svg width="32" height="32" viewBox="0 0 32 32" fill="none" xmlns="http://www.w3.org/2000/svg">
<circle cx="16" cy="16" r="16" fill="#046AD0"/>
<path d="M20.0542 14.3905C19.6785 14.3905 19.359 14.2538 19.0958 13.9804C18.8328 13.7071 18.7013 13.375 18.7013 12.9844C18.7013 12.5937 18.8328 12.2616 19.0958 11.9883C19.359 11.7149 19.6785 11.5782 20.0542 11.5782C20.4301 11.5782 20.7495 11.7149 21.0125 11.9883C21.2757 12.2616 21.4073 12.5937 21.4073 12.9844C21.4073 13.375 21.2757 13.7071 21.0125 13.9804C20.7495 14.2538 20.4301 14.3905 20.0542 14.3905ZM11.9365 14.3905C11.5607 14.3905 11.2412 14.2538 10.9782 13.9804C10.715 13.7071 10.5834 13.375 10.5834 12.9844C10.5834 12.5937 10.715 12.2616 10.9782 11.9883C11.2412 11.7149 11.5607 11.5782 11.9365 11.5782C12.3123 11.5782 12.6317 11.7149 12.8949 11.9883C13.1579 12.2616 13.2894 12.5937 13.2894 12.9844C13.2894 13.375 13.1579 13.7071 12.8949 13.9804C12.6317 14.2538 12.3123 14.3905 11.9365 14.3905ZM15.9954 16.9687C15.6195 16.9687 15.3 16.832 15.037 16.5587C14.774 16.2851 14.6425 15.9531 14.6425 15.5626C14.6425 15.1719 14.774 14.8398 15.037 14.5665C15.3 14.2929 15.6195 14.1562 15.9954 14.1562C16.3712 14.1562 16.6907 14.2929 16.9537 14.5665C17.2167 14.8398 17.3482 15.1719 17.3482 15.5626C17.3482 15.9531 17.2167 16.2851 16.9537 16.5587C16.6907 16.832 16.3712 16.9687 15.9954 16.9687ZM15.9954 11.8126C15.6195 11.8126 15.3 11.6758 15.037 11.4022C14.774 11.1289 14.6425 10.7968 14.6425 10.4062C14.6425 10.0155 14.774 9.68344 15.037 9.41007C15.3 9.13669 15.6195 9 15.9954 9C16.3712 9 16.6907 9.13669 16.9537 9.41007C17.2167 9.68344 17.3482 10.0155 17.3482 10.4062C17.3482 10.7968 17.2167 11.1289 16.9537 11.4022C16.6907 11.6758 16.3712 11.8126 15.9954 11.8126ZM15.9958 24C15.6949 24 15.39 23.9779 15.0812 23.9337C14.7725 23.8894 14.4758 23.8249 14.1913 23.7403V20.3927C14.1913 19.8392 14.368 19.3645 14.7214 18.9688C15.0746 18.573 15.4993 18.3751 15.9954 18.3751C16.4914 18.3751 16.9161 18.573 17.2693 18.9688C17.6227 19.3645 17.7994 19.8392 17.7994 20.3927V23.7403C17.5149 23.8249 17.2184 23.8894 16.91 23.9337C16.6015 23.9779 16.2968 24 15.9958 24ZM12.8384 23.2461C12.5391 23.1219 12.251 22.9821 11.9742 22.8267C11.6973 22.6715 11.4299 22.4996 11.1719 22.311C10.747 21.997 10.4112 21.59 10.1645 21.0899C9.91776 20.5899 9.79439 20.0586 9.79439 19.4961C9.79439 19.0941 9.7527 18.7192 9.66932 18.3713C9.58593 18.0235 9.43944 17.6902 9.22985 17.3714C9.08002 17.1642 8.7986 16.8532 8.38559 16.4383C7.97259 16.0234 7.59337 15.6359 7.24795 15.2759C7.08265 15.1037 7 14.8861 7 14.6228C7 14.3596 7.0833 14.1429 7.24991 13.9726C7.41537 13.7994 7.62586 13.7128 7.88139 13.7128C8.13691 13.7128 8.34732 13.7987 8.51262 13.9705L11.9612 17.3674C12.2617 17.6485 12.483 17.9818 12.6252 18.3673C12.7674 18.7527 12.8384 19.1459 12.8384 19.5469V23.2461ZM19.1523 23.2461V19.551C19.1523 19.1456 19.2274 18.748 19.3778 18.3581C19.5281 17.9683 19.7454 17.6393 20.0297 17.3712L23.4842 13.9708C23.6648 13.7988 23.8793 13.7128 24.1277 13.7128C24.376 13.7128 24.5835 13.7994 24.7501 13.9726C24.9167 14.1457 25 14.364 25 14.6274C25 14.8908 24.9175 15.1076 24.7525 15.2779C24.4078 15.6343 24.0273 16.0171 23.6112 16.4264C23.1951 16.8358 22.9114 17.1508 22.7601 17.3712C22.5497 17.683 22.4032 18.0143 22.3204 18.3652C22.2377 18.7161 22.1963 19.0943 22.1963 19.4997C22.1963 20.0612 22.073 20.5941 21.8262 21.0986C21.5795 21.6032 21.2382 22.0143 20.8022 22.3318C20.5616 22.5065 20.3019 22.6715 20.0229 22.8267C19.7441 22.9821 19.4539 23.1219 19.1523 23.2461Z" fill="white"/>
</svg>
