<svg width="24" height="27" viewBox="0 0 24 27" fill="none" xmlns="http://www.w3.org/2000/svg">
<path d="M9.595 11.75C10.345 11.75 10.9525 12.3125 10.9388 13C10.9388 13.6875 10.3463 14.25 9.595 14.25C8.8575 14.25 8.25 13.6875 8.25 13C8.25 12.3125 8.84375 11.75 9.595 11.75ZM14.405 11.75C15.1562 11.75 15.75 12.3125 15.75 13C15.75 13.6875 15.1562 14.25 14.405 14.25C13.6675 14.25 13.0612 13.6875 13.0612 13C13.0612 12.3125 13.6537 11.75 14.405 11.75ZM20.6138 0.5C22.0675 0.5 23.25 1.7075 23.25 3.20375V26.75L20.4862 24.2562L18.93 22.7863L17.2837 21.2238L17.9663 23.6525H3.38625C1.9325 23.6525 0.75 22.445 0.75 20.9487V3.20375C0.75 1.7075 1.9325 0.5 3.38625 0.5H20.6125H20.6138ZM15.6512 17.6413C18.4925 17.55 19.5863 15.6462 19.5863 15.6462C19.5863 11.42 17.7337 7.99375 17.7337 7.99375C15.8837 6.5775 14.1212 6.61625 14.1212 6.61625L13.9413 6.82625C16.1275 7.50875 17.1425 8.49375 17.1425 8.49375C15.9488 7.82124 14.6333 7.39292 13.2725 7.23375C12.4093 7.13625 11.5374 7.14465 10.6763 7.25875C10.5988 7.25875 10.5337 7.2725 10.4575 7.285C10.0075 7.325 8.91375 7.495 7.53875 8.1125C7.06375 8.335 6.78 8.49375 6.78 8.49375C6.78 8.49375 7.8475 7.45625 10.1613 6.77375L10.0325 6.61625C10.0325 6.61625 8.27125 6.5775 6.42 7.995C6.42 7.995 4.56875 11.42 4.56875 15.6462C4.56875 15.6462 5.64875 17.5487 8.49 17.6413C8.49 17.6413 8.965 17.0513 9.3525 16.5525C7.71875 16.0525 7.1025 15.0025 7.1025 15.0025C7.1025 15.0025 7.23 15.095 7.46125 15.2262C7.47375 15.2388 7.48625 15.2525 7.5125 15.265C7.55125 15.2925 7.59 15.305 7.62875 15.3312C7.95 15.515 8.27125 15.6588 8.56625 15.7775C9.09375 15.9875 9.72375 16.1975 10.4575 16.3425C11.5566 16.5579 12.6868 16.5622 13.7875 16.355C14.4286 16.2406 15.0542 16.0514 15.6512 15.7913C16.1012 15.62 16.6025 15.37 17.13 15.0162C17.13 15.0162 16.4875 16.0925 14.8025 16.5788C15.1887 17.0775 15.6525 17.6413 15.6525 17.6413H15.6512Z" fill="#1165BA"/>
</svg>
