<svg width="26" height="25" viewBox="0 0 26 25" fill="none" xmlns="http://www.w3.org/2000/svg">
<path d="M13 0.5C6.09375 0.5 0.500002 6.09375 0.500002 13C0.498584 15.6241 1.32352 18.182 2.85777 20.3108C4.39202 22.4397 6.55768 24.0313 9.0475 24.86C9.6725 24.9688 9.90625 24.5937 9.90625 24.265C9.90625 23.9687 9.89 22.985 9.89 21.9375C6.75 22.5162 5.9375 21.1725 5.6875 20.4688C5.54625 20.1088 4.9375 19 4.40625 18.7025C3.96875 18.4688 3.34375 17.89 4.39 17.875C5.375 17.8587 6.0775 18.7812 6.3125 19.1562C7.4375 21.0462 9.235 20.515 9.9525 20.1875C10.0625 19.375 10.39 18.8288 10.75 18.5163C7.96875 18.2038 5.0625 17.125 5.0625 12.3438C5.0625 10.9838 5.54625 9.86 6.34375 8.98375C6.21875 8.67125 5.78125 7.39 6.46875 5.67125C6.46875 5.67125 7.515 5.34375 9.90625 6.95375C10.9238 6.67133 11.9752 6.52918 13.0313 6.53125C14.0938 6.53125 15.1563 6.67125 16.1563 6.9525C18.5463 5.3275 19.5938 5.6725 19.5938 5.6725C20.2813 7.39125 19.8438 8.6725 19.7188 8.985C20.515 9.86 21 10.9688 21 12.3438C21 17.1413 18.0788 18.2038 15.2975 18.5163C15.75 18.9062 16.1413 19.6562 16.1413 20.8288C16.1413 22.5 16.125 23.8438 16.125 24.2663C16.125 24.5938 16.36 24.9837 16.985 24.8587C19.4663 24.021 21.6224 22.4262 23.1499 20.2989C24.6774 18.1716 25.4993 15.6189 25.5 13C25.5 6.09375 19.9063 0.5 13 0.5Z" fill="#1165BA"/>
</svg>
