<svg width="27" height="26" viewBox="0 0 27 26" fill="none" xmlns="http://www.w3.org/2000/svg">
<path d="M13.5 0.5C17.0095 0.5 17.4474 0.5125 18.8243 0.575C20.1999 0.6375 21.1364 0.84625 21.9605 1.15625C22.813 1.47375 23.5311 1.90375 24.2493 2.5975C24.9061 3.22237 25.4143 3.97824 25.7386 4.8125C26.0576 5.60875 26.2746 6.51625 26.3392 7.8475C26.3999 9.18 26.4167 9.60375 26.4167 13C26.4167 16.3962 26.4038 16.82 26.3392 18.1525C26.2746 19.4837 26.0576 20.39 25.7386 21.1875C25.4153 22.0222 24.9069 22.7783 24.2493 23.4025C23.6034 24.0379 22.8224 24.5297 21.9605 24.8438C21.1377 25.1525 20.1999 25.3625 18.8243 25.425C17.4474 25.4838 17.0095 25.5 13.5 25.5C9.99058 25.5 9.55271 25.4875 8.17579 25.425C6.80017 25.3625 5.86371 25.1525 5.03962 24.8438C4.17721 24.5306 3.39601 24.0387 2.75079 23.4025C2.09386 22.7777 1.58562 22.0218 1.2615 21.1875C0.941166 20.3912 0.725457 19.4837 0.660874 18.1525C0.600166 16.82 0.583374 16.3962 0.583374 13C0.583374 9.60375 0.596291 9.18 0.660874 7.8475C0.725457 6.515 0.941166 5.61 1.2615 4.8125C1.58472 3.97772 2.09308 3.22165 2.75079 2.5975C3.3962 1.96154 4.17734 1.46966 5.03962 1.15625C5.86371 0.84625 6.79887 0.6375 8.17579 0.575C9.55271 0.51625 9.99058 0.5 13.5 0.5ZM13.5 6.75C11.7872 6.75 10.1445 7.40848 8.93331 8.58058C7.72214 9.75268 7.04171 11.3424 7.04171 13C7.04171 14.6576 7.72214 16.2473 8.93331 17.4194C10.1445 18.5915 11.7872 19.25 13.5 19.25C15.2129 19.25 16.8556 18.5915 18.0668 17.4194C19.2779 16.2473 19.9584 14.6576 19.9584 13C19.9584 11.3424 19.2779 9.75268 18.0668 8.58058C16.8556 7.40848 15.2129 6.75 13.5 6.75ZM21.8959 6.4375C21.8959 6.0231 21.7258 5.62567 21.423 5.33265C21.1202 5.03962 20.7095 4.875 20.2813 4.875C19.8531 4.875 19.4424 5.03962 19.1396 5.33265C18.8368 5.62567 18.6667 6.0231 18.6667 6.4375C18.6667 6.8519 18.8368 7.24933 19.1396 7.54235C19.4424 7.83538 19.8531 8 20.2813 8C20.7095 8 21.1202 7.83538 21.423 7.54235C21.7258 7.24933 21.8959 6.8519 21.8959 6.4375ZM13.5 9.25C14.5278 9.25 15.5134 9.64509 16.2401 10.3483C16.9668 11.0516 17.375 12.0054 17.375 13C17.375 13.9946 16.9668 14.9484 16.2401 15.6517C15.5134 16.3549 14.5278 16.75 13.5 16.75C12.4723 16.75 11.4867 16.3549 10.76 15.6517C10.0333 14.9484 9.62504 13.9946 9.62504 13C9.62504 12.0054 10.0333 11.0516 10.76 10.3483C11.4867 9.64509 12.4723 9.25 13.5 9.25Z" fill="#1165BA"/>
</svg>
