<svg width="25" height="24" viewBox="0 0 25 24" fill="none" xmlns="http://www.w3.org/2000/svg">
<path d="M20.6827 19.9238H17.2404V14.7025C17.2404 13.4575 17.2146 11.855 15.445 11.855C13.6509 11.855 13.377 13.21 13.377 14.6112V19.9238H9.93346V9.1875H13.2401V10.65H13.2853C13.7477 9.8075 14.8715 8.91625 16.5507 8.91625C20.0382 8.91625 20.684 11.1387 20.684 14.03V19.9238H20.6827ZM6.04554 7.71875C5.78276 7.71908 5.52249 7.66921 5.27966 7.57201C5.03684 7.4748 4.81622 7.33217 4.63047 7.15229C4.44471 6.97241 4.29747 6.75882 4.19718 6.52377C4.09689 6.28871 4.04553 6.03681 4.04604 5.7825C4.0463 5.39979 4.16382 5.02575 4.38374 4.70768C4.60366 4.38961 4.9161 4.14179 5.28156 3.99557C5.64702 3.84934 6.04908 3.81127 6.43689 3.88618C6.82471 3.96108 7.18086 4.14559 7.46031 4.41638C7.73977 4.68717 7.92997 5.03208 8.00687 5.40748C8.08377 5.78288 8.04392 6.17192 7.89234 6.5254C7.74077 6.87888 7.48429 7.18092 7.15533 7.39334C6.82637 7.60575 6.43971 7.719 6.04425 7.71875H6.04554ZM7.77121 19.9238H4.31858V9.1875H7.7725V19.9238H7.77121ZM22.4071 0.75H2.59162C1.64096 0.75 0.875 1.475 0.875 2.37125V21.6287C0.875 22.525 1.64225 23.25 2.59033 23.25H22.4019C23.35 23.25 24.125 22.525 24.125 21.6287V2.37125C24.125 1.475 23.35 0.75 22.4019 0.75H22.4058H22.4071Z" fill="#1165BA"/>
</svg>
