<svg width="16" height="16" viewBox="0 0 16 16" fill="none" xmlns="http://www.w3.org/2000/svg">
<path d="M7.99992 2C5.41992 2 3.33325 4.08667 3.33325 6.66667C3.33325 7.82667 3.66659 8.91333 4.27325 9.89333C4.90659 10.92 5.73992 11.8 6.37992 12.8267C6.69325 13.3267 6.91992 13.7933 7.15992 14.3333C7.33325 14.7 7.47325 15.3333 7.99992 15.3333C8.52659 15.3333 8.66658 14.7 8.83325 14.3333C9.07992 13.7933 9.29992 13.3267 9.61325 12.8267C10.2533 11.8067 11.0866 10.9267 11.7199 9.89333C12.3333 8.91333 12.6666 7.82667 12.6666 6.66667C12.6666 4.08667 10.5799 2 7.99992 2ZM7.99992 8.5C7.07992 8.5 6.33325 7.75333 6.33325 6.83333C6.33325 5.91333 7.07992 5.16667 7.99992 5.16667C8.91992 5.16667 9.66658 5.91333 9.66658 6.83333C9.66658 7.75333 8.91992 8.5 7.99992 8.5Z" fill="#696969"/>
</svg>
