<svg width="268" height="42" viewBox="0 0 268 42" fill="none" xmlns="http://www.w3.org/2000/svg">
<path d="M54.2253 32.1489L56.6855 29.1193C59.3169 31.6084 62.8162 32.9676 66.4352 32.9062C67.6106 32.9402 68.7814 32.7465 69.8834 32.3357C70.7034 32.0297 71.4248 31.5061 71.9705 30.8209C72.419 30.2426 72.6668 29.5335 72.6762 28.8012C72.6825 28.0268 72.4597 27.2678 72.036 26.62C71.448 25.817 70.6817 25.1619 69.7977 24.7063C68.3614 23.933 66.8537 23.3006 65.2959 22.8179C63.2469 22.1529 61.2787 21.2604 59.4279 20.1569C58.1886 19.4527 57.1479 18.4451 56.4032 17.2284C55.8198 16.1613 55.5228 14.9609 55.5411 13.7444C55.5301 12.2563 55.9831 10.8019 56.8367 9.58385C57.7713 8.28732 59.0301 7.25991 60.4865 6.60481C62.1653 5.83023 63.9975 5.44698 65.8454 5.48388C67.6642 5.49926 69.4656 5.84129 71.1639 6.49372C72.9274 7.13933 74.5626 8.09327 75.9934 9.31119L73.5786 12.4771C72.5166 11.4371 71.2726 10.6018 69.9086 10.013C68.5241 9.42187 67.0328 9.12279 65.5278 9.13447C63.5651 9.13447 62.093 9.55187 61.1117 10.3867C60.6618 10.7321 60.2957 11.175 60.0408 11.6821C59.7859 12.1893 59.6488 12.7475 59.6396 13.3152C59.6463 13.9774 59.8538 14.6219 60.2345 15.1633C60.7902 15.8812 61.5046 16.4602 62.3216 16.8547C63.6727 17.5458 65.0832 18.1136 66.536 18.5513C68.7131 19.1856 70.7927 20.1166 72.7166 21.3183C74.0493 22.1376 75.1771 23.2516 76.0135 24.575C76.6742 25.6851 77.0226 26.9535 77.0218 28.2458C77.0347 29.7634 76.5921 31.2498 75.7514 32.5124C74.8261 33.8692 73.5387 34.9382 72.036 35.5975C70.1604 36.4093 68.1297 36.7989 66.0874 36.7386C64.5955 36.7361 63.1106 36.5358 61.6712 36.1428C60.2282 35.7645 58.8341 35.2188 57.5173 34.517C56.3144 33.8864 55.2062 33.0892 54.2253 32.1489Z" fill="#1165BA"/>
<path d="M81.8563 24.9739C81.7832 22.7525 82.234 20.5452 83.1721 18.531C83.9606 16.8815 85.2113 15.4973 86.7715 14.5472C88.3693 13.653 90.169 13.1836 91.9993 13.1836C93.8295 13.1836 95.6293 13.653 97.227 14.5472C98.7832 15.4993 100.03 16.8832 100.816 18.531C101.752 20.5462 102.202 22.7528 102.132 24.9739C102.2 27.1947 101.749 29.4008 100.816 31.4167C100.033 33.0699 98.7788 34.4542 97.2119 35.3955C95.6099 36.2768 93.8118 36.7388 91.9841 36.7388C90.1564 36.7388 88.3583 36.2768 86.7564 35.3955C85.1966 34.4516 83.9497 33.0674 83.1721 31.4167C82.2368 29.4016 81.7862 27.1949 81.8563 24.9739ZM85.9851 24.9739C85.9414 26.4952 86.1843 28.0111 86.7009 29.4424C87.1012 30.5507 87.8205 31.5153 88.7678 32.2145C89.7322 32.8313 90.8525 33.159 91.9967 33.159C93.141 33.159 94.2613 32.8313 95.2256 32.2145C96.17 31.5135 96.8872 30.5493 97.2875 29.4424C97.8076 28.0118 98.0539 26.4958 98.0134 24.9739C98.0532 23.4536 97.807 21.9394 97.2875 20.5103C96.8834 19.3985 96.1675 18.4272 95.2256 17.7131C94.266 17.0836 93.1439 16.7482 91.9967 16.7482C90.8496 16.7482 89.7274 17.0836 88.7678 17.7131C87.8231 18.4255 87.1051 19.3972 86.7009 20.5103C86.1849 21.94 85.942 23.4542 85.9851 24.9739Z" fill="#1165BA"/>
<path d="M108.303 27.5286V13.623H112.336V26.9985C112.336 29.0552 112.783 30.5514 113.676 31.4872C114.119 31.953 114.655 32.3194 115.25 32.5623C115.844 32.8051 116.483 32.9188 117.125 32.896C118.316 32.891 119.485 32.5649 120.507 31.9518C121.662 31.2613 122.7 30.3922 123.583 29.3766V32.5425C122.65 33.7514 121.503 34.7782 120.2 35.5721C118.977 36.3079 117.583 36.7097 116.157 36.7371C114.731 36.7646 113.323 36.4168 112.073 35.7286C110.863 35.0128 109.898 33.9458 109.306 32.6687C108.581 31.0555 108.238 29.2965 108.303 27.5286ZM123.855 36.284L122.932 31.8811V13.623H126.965V30.9116C126.965 31.5276 126.965 32.0931 127.031 32.6031C127.096 33.1131 127.157 33.6988 127.273 34.34L127.626 36.2789L123.855 36.284Z" fill="#1165BA"/>
<path d="M131.568 33.0271L135.787 28.0991C136.305 28.8217 136.981 29.416 137.764 29.836C138.598 30.2932 139.535 30.5279 140.486 30.5177C141.184 30.5566 141.883 30.4411 142.532 30.1793C143.181 29.9175 143.765 29.5159 144.242 29.0029C145.134 27.993 145.582 26.5389 145.582 24.605V5.92285H152.61V25.5038C152.676 27.6622 152.119 29.7939 151.007 31.6436C149.964 33.3082 148.471 34.6424 146.702 35.4911C144.831 36.3869 142.78 36.8395 140.708 36.814C138.957 36.8407 137.22 36.4966 135.611 35.8042C134.102 35.1393 132.731 34.1974 131.568 33.0271ZM138.399 11.2195V5.92285H150.261V11.2195H138.399Z" fill="#1165BA"/>
<path d="M159.002 27.5285V13.1836H165.591V26.5136C165.591 27.9509 165.936 29.0146 166.625 29.7047C166.99 30.0513 167.422 30.3196 167.894 30.4932C168.367 30.6669 168.87 30.7422 169.372 30.7145C170.278 30.7075 171.17 30.497 171.983 30.0985C172.881 29.6622 173.669 29.0308 174.292 28.2505V32.608C173.429 33.8012 172.356 34.8277 171.126 35.6375C169.88 36.4286 168.428 36.8343 166.952 36.8039C165.606 36.8091 164.281 36.461 163.111 35.794C161.851 35.0573 160.822 33.9815 160.142 32.6888C159.33 31.0938 158.938 29.3176 159.002 27.5285ZM174.469 36.2838L173.632 31.8809V13.1987H180.221V30.7852C180.221 31.4012 180.221 31.9516 180.286 32.4313C180.352 32.9109 180.412 33.4815 180.528 34.1278L180.881 36.2838H174.469Z" fill="#1165BA"/>
<path d="M186.149 13.184H192.567L193.398 17.5819V36.264H186.81V18.6826C186.81 18.0666 186.81 17.5163 186.744 17.0315C186.679 16.5468 186.618 15.9863 186.502 15.34L186.149 13.184ZM192.743 21.1921V16.8346C193.615 15.6276 194.711 14.5992 195.969 13.8051C197.243 13.0194 198.714 12.6147 200.209 12.6387C201.628 12.6374 203.021 13.0212 204.24 13.7494C205.459 14.4775 206.458 15.5227 207.131 16.774C207.961 18.3668 208.362 20.1489 208.295 21.9444V36.2842H201.706V22.9492C201.738 22.1204 201.564 21.2967 201.202 20.5508C200.898 19.9558 200.415 19.4717 199.821 19.1674C199.192 18.8653 198.502 18.7148 197.805 18.7281C196.836 18.7461 195.883 18.976 195.012 19.4016C194.141 19.8272 193.374 20.4383 192.763 21.1921H192.743Z" fill="#1165BA"/>
<path d="M214.178 6.53855C214.173 6.04601 214.266 5.55736 214.45 5.10069C214.634 4.64403 214.907 4.22836 215.252 3.8776C215.975 3.1561 216.954 2.75098 217.974 2.75098C218.995 2.75098 219.974 3.1561 220.697 3.8776C221.039 4.22984 221.308 4.64622 221.488 5.10285C221.669 5.55949 221.758 6.04738 221.75 6.53855C221.756 7.03073 221.664 7.51917 221.481 7.97582C221.298 8.43247 221.026 8.84832 220.682 9.19949C219.957 9.91274 218.983 10.3125 217.967 10.3125C216.951 10.3125 215.976 9.91274 215.252 9.19949C214.907 8.84857 214.635 8.43287 214.45 7.97624C214.266 7.51961 214.174 7.03104 214.178 6.53855ZM214.683 36.2836V13.1833H221.276V36.2836H214.683Z" fill="#1165BA"/>
<path d="M226.217 24.757C226.154 22.5134 226.653 20.2896 227.669 18.2889C228.586 16.5373 229.985 15.0861 231.702 14.1082C233.509 13.1402 235.527 12.6338 237.577 12.6338C239.627 12.6338 241.645 13.1402 243.453 14.1082C245.149 15.0959 246.53 16.5458 247.435 18.2889C248.448 20.2836 248.947 22.5 248.887 24.7368C248.943 26.9587 248.444 29.1595 247.435 31.1392C246.526 32.8844 245.139 34.3345 243.438 35.32C241.63 36.288 239.612 36.7944 237.562 36.7944C235.512 36.7944 233.494 36.288 231.687 35.32C229.97 34.342 228.57 32.8909 227.654 31.1392C226.653 29.1642 226.16 26.9709 226.217 24.757ZM232.896 24.757C232.857 26.0566 233.05 27.3527 233.466 28.5843C233.765 29.4696 234.332 30.2393 235.089 30.7858C235.829 31.2445 236.682 31.4875 237.552 31.4875C238.422 31.4875 239.275 31.2445 240.015 30.7858C240.772 30.2393 241.339 29.4696 241.638 28.5843C242.056 27.3533 242.249 26.0567 242.208 24.757C242.25 23.4573 242.057 22.1606 241.638 20.9297C241.336 20.039 240.77 19.262 240.015 18.703C239.28 18.2316 238.425 17.981 237.552 17.981C236.679 17.981 235.825 18.2316 235.089 18.703C234.334 19.262 233.768 20.039 233.466 20.9297C233.05 22.1612 232.857 23.4574 232.896 24.757Z" fill="#1165BA"/>
<path d="M253.193 13.1835H259.615L260.442 17.7834V36.2635H253.853V18.6821C253.853 18.0661 253.828 17.5158 253.787 17.031C253.747 16.5463 253.661 15.9858 253.545 15.3395L253.193 13.1835ZM259.781 21.853V17.7127C260.597 16.2278 261.749 14.9551 263.144 13.9964C264.441 13.1169 265.973 12.6489 267.54 12.6534V19.1669C266.076 19.1309 264.615 19.3233 263.209 19.7374C261.934 20.1995 260.767 20.9196 259.781 21.853Z" fill="#1165BA"/>
<path d="M9.99355 29.4775H3.51053C2.124 29.4775 1 30.6033 1 31.9921V38.4854C1 39.8741 2.124 40.9999 3.51053 40.9999H9.99355C11.3801 40.9999 12.5041 39.8741 12.5041 38.4854V31.9921C12.5041 30.6033 11.3801 29.4775 9.99355 29.4775Z" fill="#1165BA"/>
<path d="M23.9426 15.2393H17.4596C16.0731 15.2393 14.9491 16.365 14.9491 17.7538V24.2471C14.9491 25.6358 16.0731 26.7616 17.4596 26.7616H23.9426C25.3292 26.7616 26.4532 25.6358 26.4532 24.2471V17.7538C26.4532 16.365 25.3292 15.2393 23.9426 15.2393Z" fill="#1165BA"/>
<path d="M38.1287 1H31.6457C30.2591 1 29.1351 2.12579 29.1351 3.51452V10.0078C29.1351 11.3966 30.2591 12.5223 31.6457 12.5223H38.1287C39.5152 12.5223 40.6392 11.3966 40.6392 10.0078V3.51452C40.6392 2.12579 39.5152 1 38.1287 1Z" fill="#1165BA"/>
<path d="M23.9426 29.4775H17.4596C16.0731 29.4775 14.9491 30.6033 14.9491 31.9921V38.4854C14.9491 39.8741 16.0731 40.9999 17.4596 40.9999H23.9426C25.3292 40.9999 26.4532 39.8741 26.4532 38.4854V31.9921C26.4532 30.6033 25.3292 29.4775 23.9426 29.4775Z" stroke="#1165BA" stroke-width="2" stroke-miterlimit="10"/>
<path d="M38.1287 15.2393H31.6457C30.2591 15.2393 29.1351 16.365 29.1351 17.7538V24.2471C29.1351 25.6358 30.2591 26.7616 31.6457 26.7616H38.1287C39.5152 26.7616 40.6392 25.6358 40.6392 24.2471V17.7538C40.6392 16.365 39.5152 15.2393 38.1287 15.2393Z" stroke="#1165BA" stroke-width="2" stroke-miterlimit="10"/>
<path d="M9.99355 15.2393H3.51053C2.124 15.2393 1 16.365 1 17.7538V24.2471C1 25.6358 2.124 26.7616 3.51053 26.7616H9.99355C11.3801 26.7616 12.5041 25.6358 12.5041 24.2471V17.7538C12.5041 16.365 11.3801 15.2393 9.99355 15.2393Z" stroke="#1165BA" stroke-width="2" stroke-miterlimit="10"/>
<path d="M23.9426 1H17.4596C16.0731 1 14.9491 2.12579 14.9491 3.51452V10.0078C14.9491 11.3966 16.0731 12.5223 17.4596 12.5223H23.9426C25.3292 12.5223 26.4532 11.3966 26.4532 10.0078V3.51452C26.4532 2.12579 25.3292 1 23.9426 1Z" stroke="#1165BA" stroke-width="2" stroke-miterlimit="10"/>
</svg>
