<svg width="46" height="46" viewBox="0 0 46 46" fill="none" xmlns="http://www.w3.org/2000/svg">
<path d="M3.83333 10.5417V7.65325C3.83684 7.14989 4.03823 6.66812 4.39398 6.312C4.74974 5.95588 5.23131 5.75401 5.73467 5.75H40.2653C41.3157 5.75 42.1667 6.60292 42.1667 7.65325V38.3467C42.1632 38.8501 41.9618 39.3319 41.606 39.688C41.2503 40.0441 40.7687 40.246 40.2653 40.25H5.73467C5.23023 40.2495 4.74662 40.0487 4.3901 39.6919C4.03359 39.335 3.83333 38.8512 3.83333 38.3467V36.4167H38.3333V13.9917L23 27.7917L3.83333 10.5417ZM0 19.1667H9.58333V23H0V19.1667ZM0 28.75H15.3333V32.5833H0V28.75Z" fill="#DFDFDF"/>
</svg>
