<svg width="16" height="16" viewBox="0 0 16 16" fill="none" xmlns="http://www.w3.org/2000/svg">
<path d="M10.3333 10.3333H9.80667L9.62 10.1533C10.2733 9.39333 10.6667 8.40667 10.6667 7.33333C10.6667 4.94 8.72667 3 6.33333 3C3.94 3 2 4.94 2 7.33333C2 9.72667 3.94 11.6667 6.33333 11.6667C7.40667 11.6667 8.39333 11.2733 9.15333 10.62L9.33333 10.8067V11.3333L12.6667 14.66L13.66 13.6667L10.3333 10.3333ZM6.33333 10.3333C4.67333 10.3333 3.33333 8.99333 3.33333 7.33333C3.33333 5.67333 4.67333 4.33333 6.33333 4.33333C7.99333 4.33333 9.33333 5.67333 9.33333 7.33333C9.33333 8.99333 7.99333 10.3333 6.33333 10.3333Z" fill="#696969"/>
</svg>
