<svg width="24" height="24" viewBox="0 0 24 24" fill="none" xmlns="http://www.w3.org/2000/svg">
<path fill-rule="evenodd" clip-rule="evenodd" d="M16.7025 2.59497H7.29747C4.71133 2.59497 2.59497 4.71039 2.59497 7.29747V16.7025C2.59497 19.2886 4.71133 21.405 7.29747 21.405H16.7025C19.2886 21.405 21.405 19.2886 21.405 16.7025V7.29747C21.405 4.71039 19.2886 2.59497 16.7025 2.59497ZM12 15.9186C9.83541 15.9186 8.08114 14.1636 8.08114 12C8.08114 9.83541 9.83541 8.08114 12 8.08114C14.1636 8.08114 15.9188 9.83541 15.9188 12C15.9188 14.1636 14.1636 15.9186 12 15.9186ZM15.9188 6.90552C15.9188 7.5547 16.4445 8.08114 17.0944 8.08114C17.7443 8.08114 18.27 7.5547 18.27 6.90552C18.27 6.25634 17.7443 5.72989 17.0944 5.72989C16.4445 5.72989 15.9188 6.25634 15.9188 6.90552Z" fill="#666666"/>
</svg>
