<svg width="236" height="82" viewBox="0 0 236 82" fill="none" xmlns="http://www.w3.org/2000/svg">
<path d="M22.8405 47.25H17.9095C16.8549 47.25 16 48.1049 16 49.1595V54.0905C16 55.1451 16.8549 56 17.9095 56H22.8405C23.8951 56 24.75 55.1451 24.75 54.0905V49.1595C24.75 48.1049 23.8951 47.25 22.8405 47.25Z" fill="#046AD0"/>
<path d="M33.2572 36.8335H28.3263C27.2717 36.8335 26.4167 37.6477 26.4167 38.6521V43.3482C26.4167 44.3526 27.2717 45.1668 28.3263 45.1668H33.2572C34.3118 45.1668 35.1667 44.3526 35.1667 43.3482V38.6521C35.1667 37.6477 34.3118 36.8335 33.2572 36.8335Z" fill="#046AD0"/>
<path d="M44.0905 26H39.1595C38.1049 26 37.25 26.8549 37.25 27.9095V32.8405C37.25 33.8951 38.1049 34.75 39.1595 34.75H44.0905C45.1451 34.75 46 33.8951 46 32.8405V27.9095C46 26.8549 45.1451 26 44.0905 26Z" fill="#046AD0"/>
<path d="M33.2572 47.25H28.3263C27.2717 47.25 26.4167 48.1049 26.4167 49.1595V54.0905C26.4167 55.1451 27.2717 56 28.3263 56H33.2572C34.3118 56 35.1667 55.1451 35.1667 54.0905V49.1595C35.1667 48.1049 34.3118 47.25 33.2572 47.25Z" stroke="#046AD0" stroke-width="0.830793" stroke-miterlimit="10"/>
<path d="M44.0905 36.8335H39.1595C38.1049 36.8335 37.25 37.6477 37.25 38.6521V43.3482C37.25 44.3526 38.1049 45.1668 39.1595 45.1668H44.0905C45.1451 45.1668 46 44.3526 46 43.3482V38.6521C46 37.6477 45.1451 36.8335 44.0905 36.8335Z" stroke="#046AD0" stroke-width="0.830793" stroke-miterlimit="10"/>
<path d="M22.8405 36.8335H17.9095C16.8549 36.8335 16 37.6477 16 38.6521V43.3482C16 44.3526 16.8549 45.1668 17.9095 45.1668H22.8405C23.8951 45.1668 24.75 44.3526 24.75 43.3482V38.6521C24.75 37.6477 23.8951 36.8335 22.8405 36.8335Z" stroke="#046AD0" stroke-width="0.830793" stroke-miterlimit="10"/>
<path d="M33.2572 26H28.3263C27.2717 26 26.4167 26.8549 26.4167 27.9095V32.8405C26.4167 33.8951 27.2717 34.75 28.3263 34.75H33.2572C34.3118 34.75 35.1667 33.8951 35.1667 32.8405V27.9095C35.1667 26.8549 34.3118 26 33.2572 26Z" stroke="#046AD0" stroke-width="0.830793" stroke-miterlimit="10"/>
<path d="M55.6 48.992L57.392 46.784C58.3307 47.6587 59.3867 48.3413 60.56 48.832C61.7547 49.3013 63.0667 49.536 64.496 49.536C65.4987 49.536 66.3307 49.3973 66.992 49.12C67.6747 48.8427 68.1867 48.48 68.528 48.032C68.8693 47.5627 69.04 47.0613 69.04 46.528C69.04 45.952 68.88 45.4293 68.56 44.96C68.2613 44.4693 67.7173 44 66.928 43.552C66.16 43.104 65.072 42.6453 63.664 42.176C61.8507 41.5573 60.4213 40.928 59.376 40.288C58.352 39.6267 57.6267 38.912 57.2 38.144C56.7733 37.376 56.56 36.5333 56.56 35.616C56.56 34.5067 56.8693 33.504 57.488 32.608C58.128 31.6907 59.0133 30.9653 60.144 30.432C61.2747 29.8773 62.576 29.6 64.048 29.6C65.3067 29.6 66.5973 29.8453 67.92 30.336C69.2427 30.8267 70.416 31.5093 71.44 32.384L69.68 34.688C68.8907 33.92 67.9947 33.3227 66.992 32.896C66.0107 32.4693 64.9547 32.256 63.824 32.256C62.3947 32.256 61.3173 32.5653 60.592 33.184C59.888 33.7813 59.536 34.4853 59.536 35.296C59.536 35.7653 59.6747 36.2133 59.952 36.64C60.2507 37.0667 60.7627 37.4827 61.488 37.888C62.2133 38.272 63.2373 38.6773 64.56 39.104C66.4587 39.7013 67.9627 40.3733 69.072 41.12C70.1813 41.8453 70.9813 42.6347 71.472 43.488C71.9627 44.32 72.208 45.2053 72.208 46.144C72.208 47.2747 71.8987 48.3093 71.28 49.248C70.6613 50.1867 69.7547 50.9333 68.56 51.488C67.3867 52.0427 65.9467 52.32 64.24 52.32C63.1733 52.32 62.096 52.1813 61.008 51.904C59.9413 51.6053 58.9387 51.2107 58 50.72C57.0613 50.208 56.2613 49.632 55.6 48.992ZM76.7288 43.776C76.7288 41.92 77.0488 40.3627 77.6888 39.104C78.3288 37.824 79.2034 36.8533 80.3128 36.192C81.4221 35.5307 82.6914 35.2 84.1208 35.2C85.5501 35.2 86.8194 35.5307 87.9288 36.192C89.0381 36.8533 89.9128 37.824 90.5528 39.104C91.1928 40.3627 91.5128 41.92 91.5128 43.776C91.5128 45.6107 91.1928 47.168 90.5528 48.448C89.9128 49.728 89.0381 50.6987 87.9288 51.36C86.8194 52 85.5501 52.32 84.1208 52.32C82.6914 52.32 81.4221 52 80.3128 51.36C79.2034 50.6987 78.3288 49.728 77.6888 48.448C77.0488 47.168 76.7288 45.6107 76.7288 43.776ZM79.7368 43.776C79.7368 45.056 79.9074 46.144 80.2488 47.04C80.6114 47.9147 81.1128 48.5867 81.7528 49.056C82.4141 49.504 83.2034 49.728 84.1208 49.728C85.0381 49.728 85.8168 49.504 86.4568 49.056C87.1181 48.5867 87.6194 47.9147 87.9608 47.04C88.3234 46.144 88.5048 45.056 88.5048 43.776C88.5048 42.496 88.3234 41.4187 87.9608 40.544C87.6194 39.648 87.1181 38.9653 86.4568 38.496C85.8168 38.0267 85.0381 37.792 84.1208 37.792C83.2034 37.792 82.4141 38.0267 81.7528 38.496C81.1128 38.9653 80.6114 39.648 80.2488 40.544C79.9074 41.4187 79.7368 42.496 79.7368 43.776ZM97.0013 45.632V35.52H99.9453V45.248C99.9453 46.7413 100.265 47.8293 100.905 48.512C101.567 49.1947 102.409 49.536 103.433 49.536C104.18 49.536 104.905 49.3547 105.609 48.992C106.335 48.6293 107.017 48.128 107.657 47.488V35.52H110.601V48.096C110.601 48.544 110.612 48.96 110.633 49.344C110.676 49.7067 110.74 50.1227 110.825 50.592L111.081 52H108.329L107.849 49.632C107.167 50.4213 106.377 51.072 105.481 51.584C104.607 52.0747 103.668 52.32 102.665 52.32C101.577 52.32 100.607 52.0747 99.7533 51.584C98.8999 51.0933 98.2279 50.3573 97.7373 49.376C97.2466 48.3733 97.0013 47.1253 97.0013 45.632ZM114.949 49.632L118.021 46.048C118.383 46.56 118.863 46.9867 119.461 47.328C120.058 47.648 120.719 47.808 121.445 47.808C122.618 47.808 123.525 47.4453 124.165 46.72C124.826 45.9947 125.157 44.928 125.157 43.52V33.76H119.909V29.92H130.277V44.16C130.277 45.9093 129.882 47.4027 129.093 48.64C128.325 49.856 127.279 50.784 125.957 51.424C124.655 52.064 123.205 52.384 121.605 52.384C120.239 52.384 119.002 52.1387 117.893 51.648C116.783 51.1573 115.802 50.4853 114.949 49.632ZM135.928 45.632V35.2H140.728V44.896C140.728 45.9413 140.973 46.72 141.464 47.232C141.976 47.7227 142.648 47.968 143.48 47.968C144.034 47.968 144.568 47.8613 145.08 47.648C145.613 47.4133 146.114 47.0933 146.584 46.688V35.2H151.384V48C151.384 48.448 151.394 48.8533 151.416 49.216C151.458 49.5573 151.522 49.9627 151.608 50.432L151.864 52H147.192L146.776 49.728C146.136 50.5173 145.4 51.1573 144.568 51.648C143.736 52.1387 142.786 52.384 141.72 52.384C140.738 52.384 139.8 52.1387 138.904 51.648C138.029 51.136 137.314 50.3787 136.76 49.376C136.205 48.3733 135.928 47.1253 135.928 45.632ZM156.701 35.2H161.373L161.789 37.472C162.451 36.6613 163.208 36.0213 164.061 35.552C164.915 35.0613 165.875 34.816 166.941 34.816C167.944 34.816 168.893 35.072 169.789 35.584C170.685 36.0747 171.411 36.8213 171.965 37.824C172.541 38.8053 172.829 40.0533 172.829 41.568V52H168.029V42.304C168.029 41.6 167.901 41.024 167.645 40.576C167.411 40.1067 167.08 39.7653 166.653 39.552C166.227 39.3387 165.736 39.232 165.181 39.232C164.648 39.232 164.093 39.3387 163.517 39.552C162.963 39.7653 162.451 40.0853 161.981 40.512V52H157.181V39.2C157.181 38.752 157.16 38.3573 157.117 38.016C157.096 37.6533 157.043 37.2373 156.957 36.768L156.701 35.2ZM178.463 52V35.2H183.263V52H178.463ZM178.111 30.368C178.111 29.6213 178.367 28.9813 178.879 28.448C179.391 27.8933 180.052 27.616 180.863 27.616C181.673 27.616 182.335 27.8933 182.847 28.448C183.359 28.9813 183.615 29.6213 183.615 30.368C183.615 31.1147 183.359 31.7653 182.847 32.32C182.335 32.8533 181.673 33.12 180.863 33.12C180.052 33.12 179.391 32.8533 178.879 32.32C178.367 31.7653 178.111 31.1147 178.111 30.368ZM187.872 43.616C187.872 41.8027 188.224 40.2453 188.928 38.944C189.632 37.6213 190.603 36.608 191.84 35.904C193.099 35.1787 194.528 34.816 196.128 34.816C197.75 34.816 199.179 35.1787 200.416 35.904C201.654 36.608 202.624 37.6213 203.328 38.944C204.032 40.2453 204.384 41.8027 204.384 43.616C204.384 45.408 204.032 46.9653 203.328 48.288C202.624 49.5893 201.654 50.6027 200.416 51.328C199.179 52.032 197.75 52.384 196.128 52.384C194.528 52.384 193.099 52.032 191.84 51.328C190.603 50.6027 189.632 49.5893 188.928 48.288C188.224 46.9653 187.872 45.408 187.872 43.616ZM192.736 43.616C192.736 44.7467 192.875 45.6747 193.152 46.4C193.43 47.1253 193.824 47.6587 194.336 48C194.848 48.3413 195.446 48.512 196.128 48.512C196.811 48.512 197.408 48.3413 197.92 48C198.432 47.6587 198.827 47.1253 199.104 46.4C199.382 45.6747 199.52 44.7467 199.52 43.616C199.52 42.4853 199.382 41.5573 199.104 40.832C198.827 40.1067 198.432 39.5733 197.92 39.232C197.408 38.8693 196.811 38.688 196.128 38.688C195.446 38.688 194.848 38.8693 194.336 39.232C193.824 39.5733 193.43 40.1067 193.152 40.832C192.875 41.5573 192.736 42.4853 192.736 43.616ZM208.514 35.2H213.186L213.666 37.92C214.327 36.9387 215.116 36.1813 216.034 35.648C216.951 35.0933 217.932 34.816 218.978 34.816V39.552C217.847 39.552 216.887 39.6693 216.098 39.904C215.308 40.1173 214.54 40.512 213.794 41.088V52H208.994V39.2C208.994 38.752 208.972 38.3573 208.93 38.016C208.908 37.6533 208.855 37.2373 208.77 36.768L208.514 35.2Z" fill="#046AD0"/>
</svg>
