<svg width="24" height="24" viewBox="0 0 24 24" fill="none" xmlns="http://www.w3.org/2000/svg">
<path d="M21.75 7.875V11.625C21.75 11.8239 21.671 12.0147 21.5303 12.1553C21.3897 12.296 21.1989 12.375 21 12.375C19.4333 12.3786 17.889 12.0019 16.5 11.2772V15C16.5 16.8897 15.7493 18.7019 14.4131 20.0381C13.0769 21.3743 11.2647 22.125 9.375 22.125C7.48533 22.125 5.67306 21.3743 4.33686 20.0381C3.00067 18.7019 2.25 16.8897 2.25 15C2.25 11.5406 4.77281 8.4825 8.11875 7.88625C8.22669 7.86706 8.33752 7.87178 8.44345 7.90005C8.54937 7.92833 8.6478 7.97949 8.73182 8.04992C8.81584 8.12035 8.88339 8.20834 8.92972 8.3077C8.97606 8.40706 9.00005 8.51537 9 8.625V12.6272C9.00005 12.7691 8.95981 12.9082 8.88397 13.0282C8.80813 13.1481 8.6998 13.2441 8.57156 13.305C8.26841 13.4488 8.00939 13.6712 7.82151 13.9492C7.63364 14.2272 7.5238 14.5505 7.50345 14.8854C7.4831 15.2203 7.55299 15.5545 7.70582 15.8532C7.85865 16.1519 8.08883 16.4041 8.37234 16.5835C8.65586 16.763 8.98232 16.863 9.31768 16.8733C9.65304 16.8835 9.98501 16.8036 10.279 16.6418C10.5729 16.4801 10.8181 16.2424 10.9889 15.9536C11.1597 15.6648 11.2498 15.3355 11.25 15V2.625C11.25 2.42609 11.329 2.23532 11.4697 2.09467C11.6103 1.95402 11.8011 1.875 12 1.875H15.75C15.9489 1.875 16.1397 1.95402 16.2803 2.09467C16.421 2.23532 16.5 2.42609 16.5 2.625C16.5012 3.81809 16.9757 4.96197 17.8194 5.80561C18.663 6.64925 19.8069 7.12376 21 7.125C21.1989 7.125 21.3897 7.20402 21.5303 7.34467C21.671 7.48532 21.75 7.67609 21.75 7.875Z" fill="#666666"/>
</svg>
